<svg version="1.1" id="Layer_1" xmlns="http://www.w3.org/2000/svg" xmlns:xlink="http://www.w3.org/1999/xlink" x="0px" y="0px"
	 width="100%" viewBox="0 0 1958 1025" enable-background="new 0 0 1958 1025" xml:space="preserve">
<path fill="#FFFFFF" opacity="1.000000" stroke="none" 
	d="
M1303.000000,1026.000000 
	C868.666748,1026.000000 434.833496,1026.000000 1.000175,1026.000000 
	C1.000116,684.333496 1.000116,342.666931 1.000058,1.000312 
	C653.666443,1.000208 1306.332886,1.000208 1958.999512,1.000104 
	C1958.999634,342.666351 1958.999634,684.332703 1958.999756,1025.999512 
	C1740.500000,1026.000000 1522.000000,1026.000000 1303.000000,1026.000000 
M1522.650269,357.265717 
	C1525.816162,357.245819 1528.982056,357.208771 1532.147949,357.208588 
	C1593.472534,357.204681 1654.796997,357.250366 1716.121582,357.179565 
	C1737.025024,357.155426 1752.877197,342.467651 1752.930176,322.527344 
	C1753.108521,255.370911 1753.039673,188.213638 1752.948730,121.056854 
	C1752.935547,111.284096 1748.996094,102.963570 1741.945923,96.173996 
	C1734.001343,88.522659 1724.266235,86.262238 1713.538574,86.264847 
	C1482.904907,86.320801 1252.271240,86.307373 1021.637634,86.307503 
	C1020.637756,86.307510 1019.637573,86.292038 1018.638123,86.312988 
	C996.974976,86.767288 982.173950,101.811020 982.050171,123.495689 
	C981.994080,133.323303 981.937073,143.150909 980.958801,153.015793 
	C804.844238,153.018936 628.729675,153.022034 452.615082,153.025482 
	C450.948914,153.025513 449.282776,153.027817 447.616608,153.032730 
	C443.432434,153.045090 441.090393,155.199890 440.612946,159.286667 
	C440.382111,161.262741 440.403992,163.274750 440.403870,165.270477 
	C440.395294,307.061951 440.396118,448.853424 440.396118,590.644897 
	C440.396118,592.924622 440.396118,595.204346 440.396118,598.084106 
	C433.599365,598.084106 427.382507,598.084106 420.665375,598.084106 
	C421.212830,600.020691 421.478973,601.294006 421.928070,602.499146 
	C426.052002,613.565918 430.275238,624.596191 434.334869,635.686340 
	C438.328674,646.596802 442.165894,657.564636 445.115662,668.529541 
	C378.631134,668.531067 312.146637,668.514038 245.662109,668.543945 
	C221.751572,668.554688 207.139877,683.249817 207.135727,707.201050 
	C207.124512,771.686340 207.407013,836.173523 206.983582,900.656006 
	C206.834503,923.359741 223.287811,939.537170 245.602127,939.510071 
	C477.049072,939.229065 708.496460,939.340942 939.943726,939.304504 
	C943.422241,939.303955 946.998169,939.233459 950.362610,938.466797 
	C966.878662,934.703003 977.945007,920.924438 978.032654,903.926636 
	C978.185669,874.269287 978.153870,844.610962 978.704285,815.416138 
	C981.844849,816.521484 984.984497,818.591431 988.126038,818.594177 
	C1164.600586,818.749390 1341.075195,818.732971 1517.549805,818.730164 
	C1526.428833,818.730042 1528.011719,817.137451 1528.011841,808.271118 
	C1528.012817,683.622375 1528.012329,558.973572 1528.012329,434.324829 
	C1528.012329,432.239990 1528.012451,430.155151 1528.012451,427.647797 
	C1535.075562,427.647797 1541.330811,427.647797 1548.125244,427.647797 
	C1547.357056,425.408112 1546.817993,423.704926 1546.192505,422.034058 
	C1541.584839,409.724762 1537.009766,397.402924 1532.323975,385.123383 
	C1528.832153,375.972443 1525.190186,366.878815 1522.650269,357.265717 
M151.578140,342.998962 
	C150.355408,334.266418 145.098801,329.070709 136.667755,327.931213 
	C129.021637,326.897797 121.214668,327.054626 113.360947,326.681091 
	C113.360947,349.247986 113.360947,370.968750 113.360947,392.738831 
	C116.697571,392.738831 119.767120,392.738831 123.326447,392.738831 
	C123.326447,383.264160 123.326447,374.053192 123.326447,364.960266 
	C129.329651,363.919647 133.734940,365.981354 136.883591,370.309021 
	C141.666656,376.883148 146.068909,383.733459 150.788391,390.355682 
	C151.617325,391.518829 153.135071,392.727692 154.461197,392.891541 
	C157.501312,393.267059 160.619507,393.010345 164.609772,393.010345 
	C156.891693,381.866394 149.688110,371.465302 142.500519,361.087280 
	C149.318008,357.828400 151.912125,351.607208 151.578140,342.998962 
M1596.750244,639.012024 
	C1599.069702,639.012024 1601.389282,639.012024 1603.845337,639.012024 
	C1604.747314,636.920044 1605.584595,634.938354 1606.453857,632.970764 
	C1608.328369,628.727966 1609.137695,622.808777 1612.399048,620.713745 
	C1615.859863,618.490417 1621.740112,620.406738 1626.412354,619.618164 
	C1636.313843,617.946960 1641.787598,621.577393 1644.811523,631.316284 
	C1647.392090,639.626587 1648.202148,639.377625 1656.862061,638.983643 
	C1657.173950,638.969482 1657.479126,638.803772 1658.061768,638.624084 
	C1657.623169,637.393860 1657.268066,636.145325 1656.746338,634.970764 
	C1648.059692,615.418823 1639.304321,595.897156 1630.706787,576.306274 
	C1629.555420,573.682739 1628.243164,572.670410 1625.240845,572.559998 
	C1621.897949,572.437073 1620.972656,574.195129 1620.015625,576.619690 
	C1618.859009,579.549805 1617.558716,582.423401 1616.320312,585.321289 
	C1609.281494,601.792419 1602.195679,618.243896 1595.314209,634.780457 
	C1594.881348,635.820801 1591.718262,638.209900 1596.750244,639.012024 
M230.801239,369.103546 
	C230.073471,370.669434 229.345718,372.235321 228.331528,374.417450 
	C225.421921,367.744232 222.764587,361.682343 220.134338,355.608734 
	C216.950165,348.256073 216.899765,348.222351 207.866013,349.891174 
	C208.477600,351.434875 209.027557,352.949738 209.669922,354.424316 
	C214.774719,366.142395 219.844650,377.876312 225.074356,389.538513 
	C225.802261,391.161743 227.343536,392.420258 228.508286,393.847595 
	C229.670944,392.442627 231.221985,391.209167 231.930756,389.603821 
	C235.475250,381.575592 238.798874,373.449829 242.502838,364.638397 
	C246.482437,373.922638 250.031769,382.327972 253.721207,390.671356 
	C254.255356,391.879272 255.461731,392.789917 256.357025,393.838135 
	C257.433411,392.792206 258.949493,391.942505 259.517548,390.669678 
	C264.658691,379.150482 269.643982,367.561615 274.648529,355.981689 
	C275.544189,353.909210 276.318542,351.784302 277.202148,349.548889 
	C267.691071,348.772583 267.684998,348.769958 264.285583,356.655029 
	C261.798462,362.424072 259.330078,368.201202 256.578461,374.615570 
	C254.814423,370.387299 253.362625,366.881042 251.889481,363.383759 
	C250.343002,359.712280 248.583038,356.116028 247.286087,352.359253 
	C246.423843,349.861633 244.977814,348.571320 242.567276,349.337402 
	C240.842331,349.885590 238.674255,350.939178 237.948593,352.389893 
	C235.354843,357.575195 233.291962,363.026031 230.801239,369.103546 
M379.706848,348.385040 
	C378.716705,348.509338 377.725189,348.623627 376.736633,348.759491 
	C366.115845,350.218933 359.115662,358.555206 358.949219,369.937225 
	C358.766113,382.460571 365.040833,391.401031 375.966217,392.616547 
	C383.315948,393.434265 390.830292,392.772278 398.471252,392.772278 
	C398.471252,370.896484 398.471252,349.196991 398.471252,327.345520 
	C395.341370,327.345520 392.492889,327.345520 389.294739,327.345520 
	C389.294739,334.967560 389.294739,342.239349 389.294739,349.606964 
	C386.147156,349.151154 383.367676,348.748657 379.706848,348.385040 
M1759.101929,604.697510 
	C1749.693726,620.855225 1758.407471,638.247375 1776.659546,639.741272 
	C1788.627686,640.720825 1799.054932,633.415283 1801.231934,622.525269 
	C1803.583252,610.763000 1797.558105,599.680847 1786.570801,596.507324 
	C1776.150635,593.497498 1766.825562,595.453003 1759.101929,604.697510 
M200.417648,353.034515 
	C187.814194,343.455200 170.693390,349.804199 168.180481,365.240204 
	C166.702927,374.316376 167.944229,383.015320 175.716492,389.241058 
	C183.099930,395.155396 191.546707,394.509308 199.896790,391.927856 
	C206.740463,389.812073 207.627701,387.451080 205.345993,380.213501 
	C190.305374,388.718872 177.827835,385.270630 177.275009,371.953308 
	C187.179886,371.953308 197.069092,371.953308 206.984879,371.953308 
	C207.096878,364.752960 205.764465,358.559662 200.417648,353.034515 
M1834.386963,603.681519 
	C1835.624634,606.770996 1837.747803,609.809326 1837.929932,612.959900 
	C1838.425415,621.533142 1838.099976,630.153748 1838.099976,638.771484 
	C1841.514282,638.771484 1844.272339,638.771484 1847.033447,638.771484 
	C1847.033447,628.391479 1847.371582,618.236755 1846.932007,608.115784 
	C1846.543945,599.178528 1839.477295,593.546753 1830.583496,594.881653 
	C1826.984131,595.421875 1823.596436,597.371643 1820.152222,598.665039 
	C1819.331543,594.729004 1819.331543,594.729004 1810.855469,595.605408 
	C1810.855469,609.968933 1810.855469,624.360168 1810.855469,638.821411 
	C1813.925415,638.821411 1816.703735,638.821411 1819.928955,638.821411 
	C1819.928955,630.357056 1819.928589,622.076477 1819.929077,613.795959 
	C1819.929443,604.844666 1824.745850,601.127930 1834.386963,603.681519 
M310.148621,360.413452 
	C308.483551,351.133026 301.230927,346.614716 289.936890,349.087372 
	C279.995483,351.263947 278.834961,353.442535 280.535461,363.994904 
	C285.707672,360.075256 290.675537,354.744965 297.727997,358.289215 
	C299.889954,359.375702 300.740936,363.070892 302.423553,365.970032 
	C299.123779,367.214569 297.079987,367.849823 295.154022,368.739899 
	C291.118408,370.605011 286.810913,372.133820 283.233612,374.672394 
	C279.130188,377.584259 278.166595,383.393036 280.319397,387.733978 
	C282.587006,392.306519 286.679871,394.104767 291.466766,393.514404 
	C294.840027,393.098450 298.086273,391.652527 301.564331,390.614197 
	C305.065002,394.397064 308.958099,394.810791 314.195770,392.073639 
	C317.536163,390.328064 317.113739,387.939362 316.233215,385.087097 
	C314.459686,385.713287 312.973969,386.237823 310.200439,387.217072 
	C310.200439,378.052948 310.200439,369.660065 310.148621,360.413452 
M1667.565308,633.940063 
	C1674.094604,639.855286 1681.842651,640.439209 1690.045532,639.113342 
	C1697.144287,637.965942 1698.235107,636.040466 1695.748901,628.558533 
	C1687.699463,631.317871 1679.529541,633.636353 1673.115234,625.390991 
	C1669.797485,621.126038 1669.803345,613.421570 1673.030029,608.891907 
	C1679.552490,599.735901 1687.613037,603.304138 1695.798950,607.160278 
	C1695.798950,604.261658 1695.989258,602.081299 1695.719604,599.959412 
	C1695.581299,598.869507 1694.882446,597.444824 1693.994141,596.917847 
	C1682.685791,590.208801 1666.642578,596.084351 1662.772339,608.554321 
	C1660.019775,617.423340 1660.666138,625.997925 1667.565308,633.940063 
M1726.532715,639.079163 
	C1732.882202,636.907043 1732.882202,636.907043 1731.531738,628.559326 
	C1729.959106,629.233582 1728.491821,629.966187 1726.956299,630.503174 
	C1720.122559,632.892578 1716.554199,630.645386 1716.307007,623.497742 
	C1716.084717,617.069031 1716.260254,610.626526 1716.260254,603.744873 
	C1720.963745,603.744873 1725.232422,603.744873 1729.712036,603.744873 
	C1729.712036,600.742432 1729.712036,598.193665 1729.712036,595.233032 
	C1725.183472,595.233032 1720.912720,595.233032 1716.473022,595.233032 
	C1716.315186,592.232239 1716.178345,589.632874 1716.055542,587.297913 
	C1710.918579,592.765259 1705.798096,598.215210 1700.822632,603.510681 
	C1702.250000,603.616577 1704.464722,603.780884 1707.096924,603.976196 
	C1707.096924,610.510132 1707.057007,616.968933 1707.105103,623.427002 
	C1707.201294,636.327148 1713.032837,641.245972 1726.532715,639.079163 
M324.184113,371.499878 
	C324.184113,378.598511 324.184113,385.697174 324.184113,392.800598 
	C327.558899,392.800598 330.328979,392.800598 333.470612,392.800598 
	C333.470612,390.612610 333.433563,388.639557 333.477448,386.668304 
	C333.618073,380.356262 333.348877,373.995605 334.049042,367.744568 
	C335.143463,357.973938 342.256287,354.997803 350.183929,360.576843 
	C350.569672,360.848297 351.022705,361.024078 351.797119,361.428741 
	C353.352570,358.881195 354.881439,356.377167 356.444122,353.817688 
	C353.015137,350.112183 349.063232,347.371552 344.432678,349.017120 
	C340.523407,350.406342 337.224487,353.512970 333.688538,355.837769 
	C333.520599,353.893616 333.326843,351.650696 333.154663,349.657654 
	C329.905090,349.657654 327.174133,349.657654 324.184113,349.657654 
	C324.184113,356.883240 324.184113,363.691650 324.184113,371.499878 
M1737.876221,595.391663 
	C1737.569458,597.438904 1737.010742,599.484497 1736.997070,601.533752 
	C1736.914307,613.949768 1736.955933,626.366699 1736.955933,638.743408 
	C1740.276978,638.743408 1743.018188,638.743408 1745.635498,638.743408 
	C1745.635498,624.120789 1745.635498,609.761475 1745.635498,595.275635 
	C1743.093262,595.275635 1740.939087,595.275635 1737.876221,595.391663 
M1743.001099,577.435364 
	C1737.962891,577.485840 1734.856689,580.419006 1736.496826,584.015564 
	C1737.254028,585.676331 1739.546875,587.688477 1741.106567,587.658081 
	C1742.938965,587.622253 1746.044434,585.713501 1746.229492,584.305786 
	C1746.498657,582.258728 1744.650269,579.933289 1743.001099,577.435364 
z"/>
<path fill="#BA49C9" opacity="1.000000" stroke="none" 
	d="
M446.071808,668.507263 
	C442.165894,657.564636 438.328674,646.596802 434.334869,635.686340 
	C430.275238,624.596191 426.052002,613.565918 421.928070,602.499146 
	C421.478973,601.294006 421.212830,600.020691 420.665375,598.084106 
	C427.382507,598.084106 433.599365,598.084106 440.396118,598.084106 
	C440.396118,595.204346 440.396118,592.924622 440.396118,590.644897 
	C440.396118,448.853424 440.395294,307.061951 440.403870,165.270477 
	C440.403992,163.274750 440.382111,161.262741 440.612946,159.286667 
	C441.090393,155.199890 443.432434,153.045090 447.616608,153.032730 
	C449.282776,153.027817 450.948914,153.025513 452.615082,153.025482 
	C628.729675,153.022034 804.844238,153.018936 981.487915,153.454468 
	C981.979065,157.881653 981.941223,161.870148 981.443665,165.822250 
	C805.204285,165.785843 629.424500,165.785843 453.348999,165.785843 
	C453.348999,310.018646 453.348999,453.747009 453.348999,598.054688 
	C459.920380,598.054688 466.302948,598.054688 473.134155,598.054688 
	C472.513550,600.112549 472.170258,601.542664 471.657074,602.908936 
	C464.227325,622.688904 456.755005,642.452881 449.358093,662.245056 
	C448.612762,664.239380 448.290802,666.391907 447.501221,668.614014 
	C446.843964,668.673767 446.457886,668.590515 446.071808,668.507263 
z"/>
<path fill="#BD48CD" opacity="1.000000" stroke="none" 
	d="
M1521.614990,357.759674 
	C1525.190186,366.878815 1528.832153,375.972443 1532.323975,385.123383 
	C1537.009766,397.402924 1541.584839,409.724762 1546.192505,422.034058 
	C1546.817993,423.704926 1547.357056,425.408112 1548.125244,427.647797 
	C1541.330811,427.647797 1535.075562,427.647797 1528.012451,427.647797 
	C1528.012451,430.155151 1528.012329,432.239990 1528.012329,434.324829 
	C1528.012329,558.973572 1528.012817,683.622375 1528.011841,808.271118 
	C1528.011719,817.137451 1526.428833,818.730042 1517.549805,818.730164 
	C1341.075195,818.732971 1164.600586,818.749390 988.126038,818.594177 
	C984.984497,818.591431 981.844849,816.521484 978.365356,814.787415 
	C978.071533,812.517273 978.116638,810.875916 978.470581,809.031921 
	C981.983398,807.884277 985.186768,806.114807 988.391418,806.112366 
	C1161.703125,805.979065 1335.014771,805.994263 1508.326538,805.994263 
	C1510.561157,805.994263 1512.795776,805.994263 1514.954956,805.994263 
	C1514.954956,679.530701 1514.954956,553.952637 1514.954956,427.898376 
	C1508.376099,427.898376 1502.113281,427.898376 1494.982056,427.898376 
	C1504.008301,404.062714 1512.767944,380.930786 1521.569336,357.774658 
	C1521.610962,357.750427 1521.614990,357.759674 1521.614990,357.759674 
z"/>
<path fill="#0E0E0E" opacity="1.000000" stroke="none" 
	d="
M1522.132568,357.512695 
	C1521.614990,357.759674 1521.610962,357.750427 1521.124756,357.512146 
	C1518.640991,357.251190 1516.643188,357.208618 1514.645508,357.208588 
	C1350.947510,357.205505 1187.249512,357.206024 1023.551575,357.203003 
	C1021.054016,357.202942 1018.554321,357.219208 1016.059143,357.129730 
	C999.634888,356.540924 985.563171,344.716614 982.974487,328.538177 
	C981.853149,321.530670 982.185303,314.290649 981.929382,306.686920 
	C981.953430,302.426086 981.905212,298.634552 981.932922,294.389709 
	C981.973633,251.243835 981.938477,208.551254 981.903320,165.858658 
	C981.941223,161.870148 981.979065,157.881653 981.948730,153.435822 
	C981.937073,143.150909 981.994080,133.323303 982.050171,123.495689 
	C982.173950,101.811020 996.974976,86.767288 1018.638123,86.312988 
	C1019.637573,86.292038 1020.637756,86.307510 1021.637634,86.307503 
	C1252.271240,86.307373 1482.904907,86.320801 1713.538574,86.264847 
	C1724.266235,86.262238 1734.001343,88.522659 1741.945923,96.173996 
	C1748.996094,102.963570 1752.935547,111.284096 1752.948730,121.056854 
	C1753.039673,188.213638 1753.108521,255.370911 1752.930176,322.527344 
	C1752.877197,342.467651 1737.025024,357.155426 1716.121582,357.179565 
	C1654.796997,357.250366 1593.472534,357.204681 1532.147949,357.208588 
	C1528.982056,357.208771 1525.816162,357.245819 1522.132568,357.512695 
M1737.213501,345.772461 
	C1745.144531,339.314026 1748.437378,330.871613 1748.427734,320.759430 
	C1748.364868,254.931458 1748.430664,189.103348 1748.374756,123.275360 
	C1748.358032,103.504807 1735.602783,90.885216 1715.760132,90.883789 
	C1483.612183,90.867180 1251.464111,90.866844 1019.316162,90.885780 
	C999.435059,90.887405 986.734314,103.479095 986.718201,123.289879 
	C986.664856,188.951218 986.685303,254.612656 986.734192,320.273987 
	C986.736511,323.412018 986.843872,326.666840 987.647583,329.667633 
	C991.587891,344.379242 1003.514893,352.964905 1019.740295,352.966858 
	C1127.564941,352.979736 1235.389526,352.974213 1343.214233,352.974335 
	C1467.037598,352.974457 1590.861084,352.964569 1714.684448,352.996185 
	C1722.747803,352.998230 1730.204712,351.344940 1737.213501,345.772461 
z"/>
<path fill="#0D0D0D" opacity="1.000000" stroke="none" 
	d="
M978.161743,809.234497 
	C978.116638,810.875916 978.071533,812.517273 978.112915,814.555847 
	C978.153870,844.610962 978.185669,874.269287 978.032654,903.926636 
	C977.945007,920.924438 966.878662,934.703003 950.362610,938.466797 
	C946.998169,939.233459 943.422241,939.303955 939.943726,939.304504 
	C708.496460,939.340942 477.049072,939.229065 245.602127,939.510071 
	C223.287811,939.537170 206.834503,923.359741 206.983582,900.656006 
	C207.407013,836.173523 207.124512,771.686340 207.135727,707.201050 
	C207.139877,683.249817 221.751572,668.554688 245.662109,668.543945 
	C312.146637,668.514038 378.631134,668.531067 445.593750,668.518433 
	C446.457886,668.590515 446.843964,668.673767 448.003174,668.640259 
	C500.608856,668.526672 552.441406,668.542175 604.273926,668.529175 
	C645.938904,668.518738 687.603882,668.473755 729.519409,668.602966 
	C730.146606,668.663757 730.523193,668.565735 731.373230,668.496460 
	C801.148376,668.528259 870.450134,668.511108 939.751831,668.545471 
	C963.473206,668.557190 978.044556,683.155273 978.069397,706.784668 
	C978.105347,740.934631 978.131470,775.084534 978.161743,809.234497 
M385.500000,935.095154 
	C570.143433,935.095093 754.787048,934.953796 939.429871,935.296631 
	C959.608521,935.334167 974.233826,920.839539 974.092468,900.766907 
	C973.638245,836.278076 973.626465,771.781860 974.099487,707.293335 
	C974.246643,687.235962 959.787109,672.618103 939.568787,672.644653 
	C708.264526,672.948853 476.959656,672.940735 245.655411,672.645630 
	C226.962555,672.621765 211.175613,685.555603 211.290176,706.902832 
	C211.637161,771.559631 211.399796,836.219421 211.424316,900.878052 
	C211.432465,922.395081 224.100723,935.082336 245.517258,935.089722 
	C291.844849,935.105835 338.172424,935.095032 385.500000,935.095154 
z"/>
<path fill="#060606" opacity="1.000000" stroke="none" 
	d="
M151.635330,343.414673 
	C151.912125,351.607208 149.318008,357.828400 142.500519,361.087280 
	C149.688110,371.465302 156.891693,381.866394 164.609772,393.010345 
	C160.619507,393.010345 157.501312,393.267059 154.461197,392.891541 
	C153.135071,392.727692 151.617325,391.518829 150.788391,390.355682 
	C146.068909,383.733459 141.666656,376.883148 136.883591,370.309021 
	C133.734940,365.981354 129.329651,363.919647 123.326447,364.960266 
	C123.326447,374.053192 123.326447,383.264160 123.326447,392.738831 
	C119.767120,392.738831 116.697571,392.738831 113.360947,392.738831 
	C113.360947,370.968750 113.360947,349.247986 113.360947,326.681091 
	C121.214668,327.054626 129.021637,326.897797 136.667755,327.931213 
	C145.098801,329.070709 150.355408,334.266418 151.635330,343.414673 
M129.297440,335.790466 
	C127.356285,335.790466 125.415131,335.790466 123.385040,335.790466 
	C123.385040,342.561340 123.385040,348.951324 123.385040,355.306427 
	C134.730423,356.469421 140.656784,353.452423 141.196198,346.422821 
	C141.678177,340.141815 137.964279,336.567291 129.297440,335.790466 
z"/>
<path fill="#060606" opacity="1.000000" stroke="none" 
	d="
M1596.315918,639.011475 
	C1591.718262,638.209900 1594.881348,635.820801 1595.314209,634.780457 
	C1602.195679,618.243896 1609.281494,601.792419 1616.320312,585.321289 
	C1617.558716,582.423401 1618.859009,579.549805 1620.015625,576.619690 
	C1620.972656,574.195129 1621.897949,572.437073 1625.240845,572.559998 
	C1628.243164,572.670410 1629.555420,573.682739 1630.706787,576.306274 
	C1639.304321,595.897156 1648.059692,615.418823 1656.746338,634.970764 
	C1657.268066,636.145325 1657.623169,637.393860 1658.061768,638.624084 
	C1657.479126,638.803772 1657.173950,638.969482 1656.862061,638.983643 
	C1648.202148,639.377625 1647.392090,639.626587 1644.811523,631.316284 
	C1641.787598,621.577393 1636.313843,617.946960 1626.412354,619.618164 
	C1621.740112,620.406738 1615.859863,618.490417 1612.399048,620.713745 
	C1609.137695,622.808777 1608.328369,628.727966 1606.453857,632.970764 
	C1605.584595,634.938354 1604.747314,636.920044 1603.845337,639.012024 
	C1601.389282,639.012024 1599.069702,639.012024 1596.315918,639.011475 
M1619.912720,601.368103 
	C1618.702881,604.385925 1617.493042,607.403748 1616.178223,610.683472 
	C1622.665649,610.683472 1628.588867,610.683472 1635.161011,610.683472 
	C1631.897461,603.313599 1628.779053,596.271301 1625.307739,588.432129 
	C1623.334229,593.080322 1621.730713,596.856995 1619.912720,601.368103 
z"/>
<path fill="#080808" opacity="1.000000" stroke="none" 
	d="
M230.914734,368.739990 
	C233.291962,363.026031 235.354843,357.575195 237.948593,352.389893 
	C238.674255,350.939178 240.842331,349.885590 242.567276,349.337402 
	C244.977814,348.571320 246.423843,349.861633 247.286087,352.359253 
	C248.583038,356.116028 250.343002,359.712280 251.889481,363.383759 
	C253.362625,366.881042 254.814423,370.387299 256.578461,374.615570 
	C259.330078,368.201202 261.798462,362.424072 264.285583,356.655029 
	C267.684998,348.769958 267.691071,348.772583 277.202148,349.548889 
	C276.318542,351.784302 275.544189,353.909210 274.648529,355.981689 
	C269.643982,367.561615 264.658691,379.150482 259.517548,390.669678 
	C258.949493,391.942505 257.433411,392.792206 256.357025,393.838135 
	C255.461731,392.789917 254.255356,391.879272 253.721207,390.671356 
	C250.031769,382.327972 246.482437,373.922638 242.502838,364.638397 
	C238.798874,373.449829 235.475250,381.575592 231.930756,389.603821 
	C231.221985,391.209167 229.670944,392.442627 228.508301,393.847595 
	C227.343536,392.420258 225.802261,391.161743 225.074356,389.538513 
	C219.844650,377.876312 214.774719,366.142395 209.669922,354.424316 
	C209.027557,352.949738 208.477600,351.434875 207.866013,349.891174 
	C216.899765,348.222351 216.950165,348.256073 220.134338,355.608734 
	C222.764587,361.682343 225.421921,367.744232 228.331528,374.417450 
	C229.345718,372.235321 230.073471,370.669434 230.914734,368.739990 
z"/>
<path fill="#0D0D0D" opacity="1.000000" stroke="none" 
	d="
M380.147522,348.365601 
	C383.367676,348.748657 386.147156,349.151154 389.294739,349.606964 
	C389.294739,342.239349 389.294739,334.967560 389.294739,327.345520 
	C392.492889,327.345520 395.341370,327.345520 398.471252,327.345520 
	C398.471252,349.196991 398.471252,370.896484 398.471252,392.772278 
	C390.830292,392.772278 383.315948,393.434265 375.966217,392.616547 
	C365.040833,391.401031 358.766113,382.460571 358.949219,369.937225 
	C359.115662,358.555206 366.115845,350.218933 376.736633,348.759491 
	C377.725189,348.623627 378.716705,348.509338 380.147522,348.365601 
M368.868805,366.695770 
	C365.821198,380.611237 373.191284,387.103668 389.401001,384.486145 
	C389.401001,376.749908 389.562897,368.958954 389.251160,361.187042 
	C389.195312,359.794830 387.433594,357.721680 386.031158,357.257782 
	C378.473846,354.757599 372.499603,357.947693 368.868805,366.695770 
z"/>
<path fill="#090909" opacity="1.000000" stroke="none" 
	d="
M1759.325439,604.412170 
	C1766.825562,595.453003 1776.150635,593.497498 1786.570801,596.507324 
	C1797.558105,599.680847 1803.583252,610.763000 1801.231934,622.525269 
	C1799.054932,633.415283 1788.627686,640.720825 1776.659546,639.741272 
	C1758.407471,638.247375 1749.693726,620.855225 1759.325439,604.412170 
M1765.108032,613.243835 
	C1764.939697,614.559998 1764.648682,615.873779 1764.623169,617.192688 
	C1764.464722,625.384033 1770.354736,631.096924 1778.797485,631.005127 
	C1786.851196,630.917542 1792.542480,625.053345 1792.340210,617.051270 
	C1792.183472,610.857117 1787.821045,605.397461 1781.962402,604.063660 
	C1774.588013,602.384705 1769.141357,605.132935 1765.108032,613.243835 
z"/>
<path fill="#060606" opacity="1.000000" stroke="none" 
	d="
M200.679550,353.285095 
	C205.764465,358.559662 207.096878,364.752960 206.984879,371.953308 
	C197.069092,371.953308 187.179886,371.953308 177.275009,371.953308 
	C177.827835,385.270630 190.305374,388.718872 205.345993,380.213501 
	C207.627701,387.451080 206.740463,389.812073 199.896790,391.927856 
	C191.546707,394.509308 183.099930,395.155396 175.716492,389.241058 
	C167.944229,383.015320 166.702927,374.316376 168.180481,365.240204 
	C170.693390,349.804199 187.814194,343.455200 200.679550,353.285095 
M197.178665,363.360168 
	C194.375137,357.604889 191.151306,355.842010 185.459915,356.952026 
	C181.033661,357.815277 178.301285,361.190247 177.877243,366.589661 
	C183.657455,366.589661 189.420105,366.680573 195.172546,366.479401 
	C195.927383,366.453003 196.629898,364.930389 197.178665,363.360168 
z"/>
<path fill="#060606" opacity="1.000000" stroke="none" 
	d="
M1834.056641,603.414734 
	C1824.745850,601.127930 1819.929443,604.844666 1819.929077,613.795959 
	C1819.928589,622.076477 1819.928955,630.357056 1819.928955,638.821411 
	C1816.703735,638.821411 1813.925415,638.821411 1810.855469,638.821411 
	C1810.855469,624.360168 1810.855469,609.968933 1810.855469,595.605408 
	C1819.331543,594.729004 1819.331543,594.729004 1820.152222,598.665039 
	C1823.596436,597.371643 1826.984131,595.421875 1830.583496,594.881653 
	C1839.477295,593.546753 1846.543945,599.178528 1846.932007,608.115784 
	C1847.371582,618.236755 1847.033447,628.391479 1847.033447,638.771484 
	C1844.272339,638.771484 1841.514282,638.771484 1838.099976,638.771484 
	C1838.099976,630.153748 1838.425415,621.533142 1837.929932,612.959900 
	C1837.747803,609.809326 1835.624634,606.770996 1834.056641,603.414734 
z"/>
<path fill="#080808" opacity="1.000000" stroke="none" 
	d="
M310.174530,360.840332 
	C310.200439,369.660065 310.200439,378.052948 310.200439,387.217072 
	C312.973969,386.237823 314.459686,385.713287 316.233215,385.087097 
	C317.113739,387.939362 317.536163,390.328064 314.195770,392.073639 
	C308.958099,394.810791 305.065002,394.397064 301.564331,390.614197 
	C298.086273,391.652527 294.840027,393.098450 291.466766,393.514404 
	C286.679871,394.104767 282.587006,392.306519 280.319397,387.733978 
	C278.166595,383.393036 279.130188,377.584259 283.233612,374.672394 
	C286.810913,372.133820 291.118408,370.605011 295.154022,368.739899 
	C297.079987,367.849823 299.123779,367.214569 302.423553,365.970032 
	C300.740936,363.070892 299.889954,359.375702 297.727997,358.289215 
	C290.675537,354.744965 285.707672,360.075256 280.535461,363.994904 
	C278.834961,353.442535 279.995483,351.263947 289.936890,349.087372 
	C301.230927,346.614716 308.483551,351.133026 310.174530,360.840332 
M292.856079,386.946808 
	C301.652863,386.950439 302.567749,383.900879 300.505219,372.190826 
	C297.730408,373.443298 294.927582,374.433716 292.404877,375.904541 
	C287.216309,378.929657 287.162109,382.921631 292.856079,386.946808 
z"/>
<path fill="#090909" opacity="1.000000" stroke="none" 
	d="
M1667.312988,633.686768 
	C1660.666138,625.997925 1660.019775,617.423340 1662.772339,608.554321 
	C1666.642578,596.084351 1682.685791,590.208801 1693.994141,596.917847 
	C1694.882446,597.444824 1695.581299,598.869507 1695.719604,599.959412 
	C1695.989258,602.081299 1695.798950,604.261658 1695.798950,607.160278 
	C1687.613037,603.304138 1679.552490,599.735901 1673.030029,608.891907 
	C1669.803345,613.421570 1669.797485,621.126038 1673.115234,625.390991 
	C1679.529541,633.636353 1687.699463,631.317871 1695.748901,628.558533 
	C1698.235107,636.040466 1697.144287,637.965942 1690.045532,639.113342 
	C1681.842651,640.439209 1674.094604,639.855286 1667.312988,633.686768 
z"/>
<path fill="#0A0A0A" opacity="1.000000" stroke="none" 
	d="
M1726.113281,639.123413 
	C1713.032837,641.245972 1707.201294,636.327148 1707.105103,623.427002 
	C1707.057007,616.968933 1707.096924,610.510132 1707.096924,603.976196 
	C1704.464722,603.780884 1702.250000,603.616577 1700.822632,603.510681 
	C1705.798096,598.215210 1710.918579,592.765259 1716.055542,587.297913 
	C1716.178345,589.632874 1716.315186,592.232239 1716.473022,595.233032 
	C1720.912720,595.233032 1725.183472,595.233032 1729.712036,595.233032 
	C1729.712036,598.193665 1729.712036,600.742432 1729.712036,603.744873 
	C1725.232422,603.744873 1720.963745,603.744873 1716.260254,603.744873 
	C1716.260254,610.626526 1716.084717,617.069031 1716.307007,623.497742 
	C1716.554199,630.645386 1720.122559,632.892578 1726.956299,630.503174 
	C1728.491821,629.966187 1729.959106,629.233582 1731.531738,628.559326 
	C1732.882202,636.907043 1732.882202,636.907043 1726.113281,639.123413 
z"/>
<path fill="#0A0A0A" opacity="1.000000" stroke="none" 
	d="
M324.184113,370.999969 
	C324.184113,363.691650 324.184113,356.883240 324.184113,349.657654 
	C327.174133,349.657654 329.905090,349.657654 333.154663,349.657654 
	C333.326843,351.650696 333.520599,353.893616 333.688538,355.837769 
	C337.224487,353.512970 340.523407,350.406342 344.432678,349.017120 
	C349.063232,347.371552 353.015137,350.112183 356.444122,353.817688 
	C354.881439,356.377167 353.352570,358.881195 351.797119,361.428741 
	C351.022705,361.024078 350.569672,360.848297 350.183929,360.576843 
	C342.256287,354.997803 335.143463,357.973938 334.049042,367.744568 
	C333.348877,373.995605 333.618073,380.356262 333.477448,386.668304 
	C333.433563,388.639557 333.470612,390.612610 333.470612,392.800598 
	C330.328979,392.800598 327.558899,392.800598 324.184113,392.800598 
	C324.184113,385.697174 324.184113,378.598511 324.184113,370.999969 
z"/>
<path fill="#020202" opacity="1.000000" stroke="none" 
	d="
M1738.330566,595.333618 
	C1740.939087,595.275635 1743.093262,595.275635 1745.635498,595.275635 
	C1745.635498,609.761475 1745.635498,624.120789 1745.635498,638.743408 
	C1743.018188,638.743408 1740.276978,638.743408 1736.955933,638.743408 
	C1736.955933,626.366699 1736.914307,613.949768 1736.997070,601.533752 
	C1737.010742,599.484497 1737.569458,597.438904 1738.330566,595.333618 
z"/>
<path fill="#0E0E0E" opacity="1.000000" stroke="none" 
	d="
M1743.352905,577.580994 
	C1744.650269,579.933289 1746.498657,582.258728 1746.229492,584.305786 
	C1746.044434,585.713501 1742.938965,587.622253 1741.106567,587.658081 
	C1739.546875,587.688477 1737.254028,585.676331 1736.496826,584.015564 
	C1734.856689,580.419006 1737.962891,577.485840 1743.352905,577.580994 
z"/>
<path fill="#FFFFFF" opacity="1.000000" stroke="none" 
	d="
M729.268921,668.444092 
	C687.603882,668.473755 645.938904,668.518738 604.273926,668.529175 
	C552.441406,668.542175 500.608856,668.526672 448.274353,668.497192 
	C448.290802,666.391907 448.612762,664.239380 449.358093,662.245056 
	C456.755005,642.452881 464.227325,622.688904 471.657074,602.908936 
	C472.170258,601.542664 472.513550,600.112549 473.134155,598.054688 
	C466.302948,598.054688 459.920380,598.054688 453.348999,598.054688 
	C453.348999,453.747009 453.348999,310.018646 453.348999,165.785843 
	C629.424500,165.785843 805.204285,165.785843 981.443665,165.822250 
	C981.938477,208.551254 981.973633,251.243835 981.473022,294.394653 
	C898.628906,294.855072 816.320618,294.856262 734.012268,294.860931 
	C725.119995,294.861450 723.959656,296.025879 723.959473,304.934906 
	C723.957520,400.405884 723.958252,495.876862 723.958252,591.347839 
	C723.958252,593.451538 723.958252,595.555176 723.958252,598.254333 
	C716.971191,598.254333 710.622009,598.254333 703.778687,598.254333 
	C705.400574,602.679688 706.726379,606.419250 708.137268,610.126404 
	C715.350098,629.077087 722.584961,648.019409 729.672607,667.203735 
	C729.445129,667.776672 729.356995,668.110413 729.268921,668.444092 
z"/>
<path fill="#FFFFFF" opacity="1.000000" stroke="none" 
	d="
M978.470581,809.031921 
	C978.131470,775.084534 978.105347,740.934631 978.069397,706.784668 
	C978.044556,683.155273 963.473206,668.557190 939.751831,668.545471 
	C870.450134,668.511108 801.148376,668.528259 731.442993,668.247559 
	C730.936523,667.643860 730.833679,667.317688 730.886963,666.651367 
	C739.511658,643.800354 747.980225,621.289490 756.784851,597.885376 
	C749.370483,597.885376 742.992798,597.885376 736.469177,597.885376 
	C736.381592,595.951965 736.270203,594.641357 736.270081,593.330750 
	C736.261963,499.697052 736.286133,406.063293 736.183838,312.429718 
	C736.179382,308.367004 737.196411,307.043579 741.441956,307.050323 
	C821.580200,307.177521 901.718750,307.150818 981.857178,307.156219 
	C982.185303,314.290649 981.853149,321.530670 982.974487,328.538177 
	C985.563171,344.716614 999.634888,356.540924 1016.059143,357.129730 
	C1018.554321,357.219208 1021.054016,357.202942 1023.551575,357.203003 
	C1187.249512,357.206024 1350.947510,357.205505 1514.645508,357.208588 
	C1516.643188,357.208618 1518.640991,357.251190 1521.083252,357.536377 
	C1512.767944,380.930786 1504.008301,404.062714 1494.982056,427.898376 
	C1502.113281,427.898376 1508.376099,427.898376 1514.954956,427.898376 
	C1514.954956,553.952637 1514.954956,679.530701 1514.954956,805.994263 
	C1512.795776,805.994263 1510.561157,805.994263 1508.326538,805.994263 
	C1335.014771,805.994263 1161.703125,805.979065 988.391418,806.112366 
	C985.186768,806.114807 981.983398,807.884277 978.470581,809.031921 
M839.570007,488.033203 
	C846.450989,479.231018 845.484619,468.014648 836.957458,460.973022 
	C833.776917,458.346558 830.051819,456.388336 826.645996,454.023224 
	C823.791077,452.040741 820.692322,450.242645 818.319397,447.770020 
	C814.261536,443.541656 815.611572,438.191681 821.148926,436.335754 
	C823.560913,435.527283 826.552429,435.113190 828.916626,435.790741 
	C833.108154,436.992004 837.021667,439.163361 840.976624,440.896027 
	C843.338623,431.882660 841.572266,428.560272 832.139404,427.000854 
	C827.984009,426.313904 823.466248,426.340240 819.352295,427.194733 
	C811.339233,428.859100 806.551819,435.887207 806.699524,444.056152 
	C806.831848,451.377228 811.003601,456.015228 816.624939,459.780884 
	C821.175720,462.829407 825.946411,465.582611 830.286560,468.902039 
	C833.788147,471.580048 835.936096,475.447540 833.637817,479.826599 
	C831.381958,484.124786 827.005249,485.839874 822.559082,484.457001 
	C818.264709,483.121338 814.364990,480.471680 810.364014,478.268372 
	C809.328552,477.698120 808.563110,476.637421 806.937500,475.110626 
	C806.937500,479.254242 806.756897,482.373322 807.025696,485.453217 
	C807.134583,486.700439 807.920593,488.287659 808.914551,488.995605 
	C817.017944,494.767212 831.760010,496.061737 839.570007,488.033203 
M983.487488,472.157288 
	C987.258240,472.157288 991.029053,472.157288 994.851013,472.157288 
	C994.851013,469.973999 995.009644,468.317444 994.825378,466.699982 
	C993.585449,455.816040 987.031433,449.182404 977.068787,448.626495 
	C966.609497,448.042877 958.436035,454.338837 956.209106,464.694580 
	C951.957886,484.463684 967.526245,498.503876 986.859314,492.335999 
	C994.473083,489.906952 995.472595,488.066711 993.474487,480.138947 
	C986.364929,484.215515 979.052490,487.463593 971.003052,482.913483 
	C967.082825,480.697479 965.008118,477.077881 965.226868,472.157288 
	C971.195251,472.157288 976.844421,472.157288 983.487488,472.157288 
M903.141846,463.691711 
	C902.111328,465.029724 901.358948,466.914764 899.999573,467.605774 
	C895.445496,469.920685 890.358521,471.305237 886.070923,473.995026 
	C881.272339,477.005432 880.093750,482.863892 882.256042,487.670532 
	C884.146973,491.874023 889.103149,494.415253 894.371887,493.410828 
	C897.414001,492.830902 900.321472,491.544495 903.409363,490.537018 
	C907.060852,494.385620 910.871643,494.772400 916.125549,492.113068 
	C919.538513,490.385498 919.059998,487.963196 918.277100,485.043365 
	C916.527039,485.698853 915.047241,486.253113 912.925171,487.047943 
	C912.693970,484.792114 912.387451,483.064209 912.362305,481.332245 
	C912.268005,474.835907 912.427429,468.332336 912.190857,461.842468 
	C911.841492,452.260590 904.874756,447.241577 893.340515,448.919373 
	C883.151184,450.401520 880.351685,453.265778 882.625732,464.026031 
	C884.244568,462.716278 885.647888,461.323792 887.289429,460.321503 
	C889.114563,459.207062 891.077820,458.170776 893.120056,457.589142 
	C898.202637,456.141632 901.229858,457.857910 903.141846,463.691711 
M876.685181,492.006683 
	C881.483276,489.904205 878.065613,485.954315 879.286926,482.217590 
	C877.068909,483.170135 875.605408,483.891022 874.079590,484.438019 
	C866.994995,486.977692 863.498840,484.688110 863.285828,477.139587 
	C863.108398,470.851501 863.249512,464.554474 863.249512,457.667053 
	C867.976868,457.667053 872.374451,457.667053 876.767761,457.667053 
	C876.767761,454.615936 876.767761,452.170013 876.767761,449.121521 
	C872.208313,449.121521 867.838196,449.121521 862.966797,449.121521 
	C862.966797,446.023804 862.966797,443.531982 862.966797,442.498993 
	C858.209595,447.368011 853.025391,452.674011 848.177917,457.635406 
	C849.466980,457.697418 851.676514,457.803741 854.173584,457.923889 
	C854.173584,465.841827 853.942993,473.321869 854.234985,480.781433 
	C854.561829,489.132263 859.997864,494.122742 868.117188,493.766266 
	C870.724182,493.651825 873.298157,492.784546 876.685181,492.006683 
M931.727234,490.867096 
	C935.339478,491.810333 939.081177,493.884277 942.539978,493.488037 
	C953.598145,492.221222 952.702026,491.460907 951.557312,482.550323 
	C949.969421,483.230072 948.502075,483.959961 946.967346,484.497650 
	C940.127380,486.894012 936.554932,484.650543 936.307068,477.502319 
	C936.084045,471.071075 936.260071,464.626007 936.260071,457.739624 
	C940.975708,457.739624 945.239929,457.739624 949.704712,457.739624 
	C949.704712,454.732788 949.704712,452.183258 949.704712,449.223206 
	C945.166138,449.223206 940.892578,449.223206 936.469482,449.223206 
	C936.313354,446.217957 936.178162,443.615448 936.062927,441.397034 
	C930.983521,446.835724 925.876038,452.304413 920.972290,457.555023 
	C922.276672,457.635193 924.491882,457.771362 927.111633,457.932404 
	C927.111633,465.055481 926.653992,472.060699 927.290222,478.965118 
	C927.648743,482.856171 929.810120,486.581116 931.727234,490.867096 
z"/>
<path fill="#666666" opacity="1.000000" stroke="none" 
	d="
M1736.927246,345.998108 
	C1730.204712,351.344940 1722.747803,352.998230 1714.684448,352.996185 
	C1590.861084,352.964569 1467.037598,352.974457 1343.214233,352.974335 
	C1235.389526,352.974213 1127.564941,352.979736 1019.740295,352.966858 
	C1003.514893,352.964905 991.587891,344.379242 987.647583,329.667633 
	C986.843872,326.666840 986.736511,323.412018 986.734192,320.273987 
	C986.685303,254.612656 986.664856,188.951218 986.718201,123.289879 
	C986.734314,103.479095 999.435059,90.887405 1019.316162,90.885780 
	C1251.464111,90.866844 1483.612183,90.867180 1715.760132,90.883789 
	C1735.602783,90.885216 1748.358032,103.504807 1748.374756,123.275360 
	C1748.430664,189.103348 1748.364868,254.931458 1748.427734,320.759430 
	C1748.437378,330.871613 1745.144531,339.314026 1736.927246,345.998108 
M1455.764160,221.975998 
	C1456.897949,217.411285 1460.851685,214.446030 1465.523560,214.726273 
	C1470.423584,215.020218 1472.612427,218.180130 1472.935791,222.576111 
	C1473.313599,227.715546 1473.206055,232.892426 1473.257324,238.053589 
	C1473.299561,242.293152 1473.265991,246.533478 1473.265991,250.843216 
	C1476.769165,250.843216 1479.400757,250.843216 1481.841919,250.843216 
	C1481.841919,239.729492 1482.730225,228.706726 1481.579346,217.901138 
	C1480.535156,208.097748 1470.356201,203.675247 1461.320190,208.011292 
	C1458.541382,209.344681 1456.132324,211.448669 1453.564819,213.192383 
	C1445.625366,204.943100 1441.844971,204.589706 1428.915405,211.079224 
	C1429.097534,204.908386 1424.583618,207.389236 1421.758057,207.327301 
	C1417.854980,207.241760 1419.307739,210.608612 1419.281250,212.591385 
	C1419.147827,222.584335 1419.220093,232.580017 1419.220093,242.574738 
	C1419.220093,245.315201 1419.220093,248.055679 1419.220093,250.659393 
	C1422.796509,250.659393 1425.527954,250.659393 1428.601685,250.659393 
	C1428.601685,241.323074 1428.575195,232.349197 1428.612427,223.375580 
	C1428.632080,218.642365 1432.473145,214.793549 1437.387817,214.455078 
	C1442.493164,214.103470 1445.637207,216.851151 1446.019531,222.532623 
	C1446.354370,227.510544 1446.263184,232.518753 1446.308228,237.514069 
	C1446.348145,241.929932 1446.316528,246.346466 1446.316528,250.657120 
	C1449.901855,250.657120 1452.635986,250.657120 1455.760986,250.657120 
	C1455.760986,241.159164 1455.760986,232.023849 1455.764160,221.975998 
M1161.141357,193.989975 
	C1168.087036,193.087326 1163.155640,188.256531 1164.709595,185.300217 
	C1151.769287,185.300217 1139.537720,185.300217 1127.299072,185.300217 
	C1127.299072,207.289886 1127.299072,228.981064 1127.299072,250.757706 
	C1140.082764,250.757706 1152.509033,250.757706 1165.190918,250.757706 
	C1165.190918,247.817368 1165.190918,245.083374 1165.190918,241.825165 
	C1155.635864,241.825165 1146.402588,241.825165 1137.268555,241.825165 
	C1137.268555,235.056061 1137.268555,228.817352 1137.268555,222.064056 
	C1146.158813,222.064056 1154.725464,222.064056 1163.198853,222.064056 
	C1164.471558,213.182220 1164.471558,213.182068 1156.280762,213.181732 
	C1150.001465,213.181473 1143.722168,213.181671 1137.342163,213.181671 
	C1137.342163,206.502182 1137.342163,200.324341 1137.342163,193.990753 
	C1145.234741,193.990753 1152.718750,193.990753 1161.141357,193.989975 
M1332.760010,208.071198 
	C1332.129150,208.276688 1331.487549,208.453888 1330.869141,208.691895 
	C1320.167603,212.811188 1314.616577,222.530365 1316.613403,233.637772 
	C1318.551270,244.417419 1327.428101,251.649445 1338.943115,251.830185 
	C1350.757690,252.015640 1360.186768,244.932114 1362.328247,234.262238 
	C1365.727905,217.324509 1351.922241,204.679459 1332.760010,208.071198 
M1529.063110,238.355103 
	C1523.898315,239.897858 1518.801392,242.373047 1513.552124,242.755447 
	C1506.440186,243.273499 1501.762939,237.917694 1501.296631,230.007416 
	C1511.169678,230.007416 1521.023682,230.007416 1530.872070,230.007416 
	C1530.872070,227.880905 1530.998901,226.375687 1530.851807,224.897736 
	C1529.763184,213.958267 1522.936401,207.053772 1512.762085,206.529053 
	C1502.531982,206.001434 1494.095337,212.739929 1492.143066,222.997696 
	C1488.409790,242.613510 1503.008911,256.006256 1522.228394,250.596939 
	C1530.140747,248.370041 1530.815308,247.298462 1529.063110,238.355103 
M1204.703003,209.700470 
	C1197.346436,204.523407 1190.365479,206.130646 1183.553955,211.152069 
	C1181.964111,204.424088 1177.410645,208.008438 1173.798584,207.513565 
	C1173.798584,222.244522 1173.798584,236.462219 1173.798584,250.774567 
	C1176.895996,250.774567 1179.660645,250.774567 1182.928589,250.774567 
	C1182.928589,241.778671 1182.916504,233.010635 1182.932983,224.242645 
	C1182.943481,218.667099 1186.965942,214.515686 1192.426392,214.393524 
	C1197.751465,214.274384 1200.719849,217.409195 1201.025269,223.753250 
	C1201.209106,227.570129 1201.130127,231.400330 1201.141602,235.224640 
	C1201.156860,240.332962 1201.145386,245.441360 1201.145386,250.775116 
	C1204.448608,250.775116 1207.200317,250.775116 1210.101807,250.775116 
	C1210.101807,240.808548 1210.539917,230.997299 1209.882080,221.260071 
	C1209.625977,217.469711 1206.899536,213.846237 1204.703003,209.700470 
M1371.521851,209.164200 
	C1371.521851,222.956497 1371.521851,236.748810 1371.521851,250.657227 
	C1374.882446,250.657227 1377.759155,250.657227 1380.930054,250.657227 
	C1380.930054,241.166962 1380.876953,232.027390 1380.953247,222.888885 
	C1380.989258,218.580139 1384.986572,214.894867 1389.811157,214.461761 
	C1394.549438,214.036423 1397.927734,216.423004 1398.741211,221.183472 
	C1399.186035,223.786652 1399.111572,226.491989 1399.128906,229.152191 
	C1399.175171,236.270859 1399.144653,243.390030 1399.144653,250.755615 
	C1402.419800,250.755615 1405.177612,250.755615 1407.914917,250.755615 
	C1407.914917,239.993851 1408.279663,229.350479 1407.780396,218.747757 
	C1407.472046,212.200851 1402.251953,207.094238 1395.625854,207.015289 
	C1390.785889,206.957626 1385.922974,208.834152 1380.984497,209.866425 
	C1380.115112,206.728546 1377.402588,206.012619 1371.521851,209.164200 
M1555.207886,215.043777 
	C1563.130859,213.487503 1566.664062,216.111633 1567.041138,223.989822 
	C1567.208130,227.481354 1567.133423,230.985153 1567.141846,234.483444 
	C1567.154907,239.915588 1567.145386,245.347824 1567.145386,250.662994 
	C1570.628296,250.662994 1573.366089,250.662994 1575.982666,250.662994 
	C1575.982666,240.006805 1576.298950,229.686417 1575.872925,219.396759 
	C1575.581177,212.349762 1570.355713,207.040115 1563.281494,206.956055 
	C1558.591797,206.900330 1553.878906,208.799683 1549.173950,209.824356 
	C1548.120117,204.284180 1543.360962,208.265961 1539.774902,207.250153 
	C1539.774902,222.027679 1539.774902,236.274719 1539.774902,250.661987 
	C1542.874634,250.661987 1545.750732,250.661987 1548.928345,250.661987 
	C1548.928345,242.008774 1549.227173,233.687073 1548.814819,225.400742 
	C1548.572998,220.542038 1550.260986,217.413925 1555.207886,215.043777 
M1240.800903,222.200165 
	C1239.389771,225.433441 1237.978638,228.666733 1236.150024,232.856888 
	C1232.999023,225.706161 1230.279907,219.523056 1227.550293,213.344574 
	C1224.451172,206.329956 1223.718628,206.003845 1214.991089,208.045761 
	C1221.282227,222.168640 1227.450806,236.243759 1233.857300,250.209717 
	C1235.161621,253.053101 1237.542236,252.533524 1239.050537,249.124496 
	C1243.412964,239.264709 1247.680054,229.362549 1251.953125,219.463486 
	C1253.634277,215.568878 1255.231567,211.638107 1256.931519,207.569687 
	C1247.333008,206.690186 1247.334351,206.690765 1243.979126,214.610306 
	C1243.008667,216.901123 1242.027832,219.187637 1240.800903,222.200165 
M1601.547363,207.212128 
	C1595.149170,207.136093 1600.477295,200.966843 1596.640869,198.674789 
	C1591.943359,203.598541 1587.122681,208.633636 1582.343384,213.707794 
	C1582.077515,213.990005 1582.157227,214.597839 1582.002075,215.470367 
	C1584.352295,215.666565 1586.551147,215.850143 1589.109741,216.063736 
	C1589.109741,223.369995 1589.002686,230.344742 1589.134521,237.314957 
	C1589.334473,247.893127 1595.717651,253.129303 1606.143066,251.447449 
	C1614.312500,250.129532 1614.776245,249.492462 1613.654053,240.977692 
	C1610.797485,241.709869 1607.987915,242.651535 1605.101440,243.112976 
	C1601.615723,243.670197 1598.933838,242.169586 1598.806519,238.462067 
	C1598.552368,231.061020 1598.731201,223.645111 1598.731201,215.615448 
	C1603.272705,215.615448 1607.500244,215.615448 1611.688843,215.615448 
	C1611.688843,212.554245 1611.688843,210.124817 1611.688843,207.217255 
	C1608.443970,207.217255 1605.482300,207.217255 1601.547363,207.212128 
M1284.209717,209.032410 
	C1284.209717,222.944458 1284.209717,236.856491 1284.209717,250.708374 
	C1287.653809,250.708374 1290.406250,250.708374 1293.617310,250.708374 
	C1293.617310,243.104813 1293.303345,235.790512 1293.687500,228.513062 
	C1294.338013,216.188812 1301.139526,212.702057 1311.774658,219.370316 
	C1313.305786,216.884995 1314.837524,214.398911 1316.515991,211.674530 
	C1312.892822,208.317184 1309.119141,205.256989 1304.416138,207.000381 
	C1300.538818,208.437668 1297.263062,211.497849 1293.802612,213.784698 
	C1293.586548,211.877350 1293.334351,209.650925 1293.009521,206.783554 
	C1289.795532,207.304550 1287.109741,207.739944 1284.209717,209.032410 
M1262.962158,215.571152 
	C1262.962158,227.308701 1262.962158,239.046249 1262.962158,250.619080 
	C1266.402344,250.619080 1269.122559,250.619080 1271.659912,250.619080 
	C1271.659912,236.017075 1271.659912,221.798691 1271.659912,207.514160 
	C1268.709473,207.514160 1266.119751,207.514160 1262.962036,207.514160 
	C1262.962036,210.038467 1262.962036,212.318787 1262.962158,215.571152 
M1266.022461,189.409271 
	C1264.765015,191.481613 1262.877075,193.450211 1262.511963,195.669357 
	C1262.324951,196.806030 1264.710693,199.284668 1266.207886,199.538406 
	C1267.934082,199.830978 1270.559204,198.863190 1271.743042,197.517960 
	C1274.733521,194.119736 1272.240967,190.200073 1266.022461,189.409271 
z"/>
<path fill="#BB43CB" opacity="1.000000" stroke="none" 
	d="
M981.929382,306.686920 
	C901.718750,307.150818 821.580200,307.177521 741.441956,307.050323 
	C737.196411,307.043579 736.179382,308.367004 736.183838,312.429718 
	C736.286133,406.063293 736.261963,499.697052 736.270081,593.330750 
	C736.270203,594.641357 736.381592,595.951965 736.469177,597.885376 
	C742.992798,597.885376 749.370483,597.885376 756.784851,597.885376 
	C747.980225,621.289490 739.511658,643.800354 730.732544,666.649780 
	C730.218506,666.987488 730.015137,666.979553 729.812073,666.964600 
	C722.584961,648.019409 715.350098,629.077087 708.137268,610.126404 
	C706.726379,606.419250 705.400574,602.679688 703.778687,598.254333 
	C710.622009,598.254333 716.971191,598.254333 723.958252,598.254333 
	C723.958252,595.555176 723.958252,593.451538 723.958252,591.347839 
	C723.958252,495.876862 723.957520,400.405884 723.959473,304.934906 
	C723.959656,296.025879 725.119995,294.861450 734.012268,294.860931 
	C816.320618,294.856262 898.628906,294.855072 981.397095,294.847961 
	C981.905212,298.634552 981.953430,302.426086 981.929382,306.686920 
z"/>
<path fill="#DFDFDF" opacity="1.000000" stroke="none" 
	d="
M385.000000,935.095154 
	C338.172424,935.095032 291.844849,935.105835 245.517258,935.089722 
	C224.100723,935.082336 211.432465,922.395081 211.424316,900.878052 
	C211.399796,836.219421 211.637161,771.559631 211.290176,706.902832 
	C211.175613,685.555603 226.962555,672.621765 245.655411,672.645630 
	C476.959656,672.940735 708.264526,672.948853 939.568787,672.644653 
	C959.787109,672.618103 974.246643,687.235962 974.099487,707.293335 
	C973.626465,771.781860 973.638245,836.278076 974.092468,900.766907 
	C974.233826,920.839539 959.608521,935.334167 939.429871,935.296631 
	C754.787048,934.953796 570.143433,935.095093 385.000000,935.095154 
M488.415192,805.855896 
	C484.512695,815.077209 480.610199,824.298462 476.554901,833.880859 
	C480.479675,833.880859 483.610321,833.880859 486.909760,833.880859 
	C489.224335,828.507385 491.355042,823.100952 493.920715,817.909363 
	C494.611084,816.512451 496.587219,814.930847 498.035828,814.867554 
	C505.176331,814.555603 512.342834,814.586792 519.487610,814.845947 
	C520.873169,814.896118 522.796448,816.188171 523.451233,817.440857 
	C525.828979,821.989929 527.642456,826.832153 529.971558,831.409729 
	C530.561890,832.569885 532.186462,833.679443 533.489136,833.898010 
	C535.864380,834.296448 538.354309,834.011169 540.912170,834.011169 
	C540.814331,833.090881 540.882202,832.555969 540.694763,832.134644 
	C531.524475,811.525818 522.393127,790.898987 513.004211,770.390076 
	C512.382935,769.033020 509.742126,767.837158 508.110199,767.920898 
	C506.480896,768.004639 504.139069,769.433533 503.485962,770.889893 
	C498.397003,782.237671 493.640259,793.734497 488.415192,805.855896 
M575.839417,813.106323 
	C578.397095,807.903076 577.549622,802.903809 574.516174,798.052124 
	C582.259399,797.281494 582.259399,797.281494 581.125427,789.917542 
	C572.985107,790.303589 564.654053,790.125366 556.501953,791.247437 
	C548.462891,792.354065 543.495178,799.170044 544.997986,807.116211 
	C545.839355,811.565430 548.989441,815.578003 551.165466,819.919312 
	C546.072083,823.166748 545.761536,824.914185 550.175720,830.770081 
	C545.089417,832.702881 540.909241,835.354248 540.768433,841.630249 
	C540.655701,846.656250 542.684814,850.527649 547.033875,852.704346 
	C556.208679,857.296326 565.658142,857.362549 574.897949,852.899536 
	C579.459900,850.696045 581.771057,846.684814 581.424988,841.509644 
	C581.065063,836.126892 578.177734,832.497681 573.040344,830.929810 
	C568.914490,829.670593 564.616394,828.955566 560.533264,827.585938 
	C558.882507,827.032104 557.600159,825.379822 556.150146,824.227417 
	C557.615417,823.330017 559.001160,822.239380 560.570068,821.593933 
	C561.924622,821.036560 563.705688,821.355530 564.917480,820.641296 
	C568.526672,818.513855 571.948364,816.068359 575.839417,813.106323 
M597.089172,820.195679 
	C596.290894,818.007690 595.492676,815.819763 594.448059,812.956360 
	C605.306396,812.956360 615.056274,812.956360 624.844299,812.956360 
	C624.844299,810.918579 625.006958,809.255981 624.818054,807.634277 
	C623.549561,796.744873 616.978027,790.141846 606.983032,789.610168 
	C596.566040,789.056091 588.331604,795.463562 586.179565,805.797913 
	C582.091248,825.430603 597.284912,839.285278 616.526672,833.470520 
	C624.319397,831.115540 625.022339,829.927612 623.712524,821.326416 
	C609.543396,827.774597 604.208618,827.672729 597.089172,820.195679 
M639.262817,790.247070 
	C637.498047,790.247070 635.733337,790.247070 633.778320,790.247070 
	C633.778320,805.089355 633.778320,819.340576 633.778320,833.705688 
	C636.887390,833.705688 639.771484,833.705688 642.929382,833.705688 
	C642.929382,824.113037 642.870117,814.821716 642.957520,805.531738 
	C642.994202,801.631653 647.036011,797.979065 651.602112,797.407349 
	C655.954346,796.862305 659.687500,799.155151 660.573181,803.419312 
	C661.140869,806.152771 661.099854,809.036011 661.126404,811.854004 
	C661.194885,819.123169 661.149353,826.393372 661.149353,833.804932 
	C664.463379,833.804932 667.222717,833.804932 670.011108,833.804932 
	C670.011108,823.307556 670.373291,812.998108 669.897949,802.727417 
	C669.509644,794.337280 662.581238,788.742188 654.202820,789.807800 
	C650.438599,790.286560 646.861145,792.232788 643.854675,793.283813 
	C642.552551,792.226135 641.335083,791.237305 639.262817,790.247070 
M683.741516,789.241760 
	C681.002869,791.993225 678.264282,794.744690 674.679871,798.345947 
	C678.233276,798.617432 680.442993,798.786255 682.578125,798.949402 
	C682.727234,799.208801 682.880920,799.352112 682.882690,799.497192 
	C682.969421,806.465576 682.958069,813.436279 683.137817,820.402100 
	C683.410645,830.975342 689.645813,836.045410 700.168457,834.396667 
	C708.469971,833.095947 709.188477,832.061340 707.383667,823.644287 
	C705.677307,824.352905 704.061340,825.192810 702.347412,825.705750 
	C695.871582,827.643677 692.615051,825.536316 692.343262,818.852417 
	C692.076416,812.290283 692.285095,805.708801 692.285095,798.667297 
	C697.107300,798.667297 701.363342,798.667297 705.635132,798.667297 
	C705.635132,795.633484 705.635132,793.086487 705.635132,790.095703 
	C701.056091,790.095703 696.810303,790.095703 692.461853,790.095703 
	C692.302124,787.110657 692.166504,784.575867 691.938293,780.311218 
	C688.695679,783.869995 686.473572,786.308777 683.741516,789.241760 
z"/>
<path fill="#BA49C9" opacity="1.000000" stroke="none" 
	d="
M729.672607,667.203735 
	C730.015137,666.979553 730.218506,666.987488 730.576416,666.989990 
	C730.833679,667.317688 730.936523,667.643860 730.969543,668.218811 
	C730.523193,668.565735 730.146606,668.663757 729.519470,668.602966 
	C729.356995,668.110413 729.445129,667.776672 729.672607,667.203735 
z"/>
<path fill="#F9F9F9" opacity="1.000000" stroke="none" 
	d="
M129.753571,335.819550 
	C137.964279,336.567291 141.678177,340.141815 141.196198,346.422821 
	C140.656784,353.452423 134.730423,356.469421 123.385040,355.306427 
	C123.385040,348.951324 123.385040,342.561340 123.385040,335.790466 
	C125.415131,335.790466 127.356285,335.790466 129.753571,335.819550 
z"/>
<path fill="#F7F7F7" opacity="1.000000" stroke="none" 
	d="
M1620.020020,601.000854 
	C1621.730713,596.856995 1623.334229,593.080322 1625.307739,588.432129 
	C1628.779053,596.271301 1631.897461,603.313599 1635.161011,610.683472 
	C1628.588867,610.683472 1622.665649,610.683472 1616.178223,610.683472 
	C1617.493042,607.403748 1618.702881,604.385925 1620.020020,601.000854 
z"/>
<path fill="#FBFBFB" opacity="1.000000" stroke="none" 
	d="
M368.939301,366.302124 
	C372.499603,357.947693 378.473846,354.757599 386.031158,357.257782 
	C387.433594,357.721680 389.195312,359.794830 389.251160,361.187042 
	C389.562897,368.958954 389.401001,376.749908 389.401001,384.486145 
	C373.191284,387.103668 365.821198,380.611237 368.939301,366.302124 
z"/>
<path fill="#FBFBFB" opacity="1.000000" stroke="none" 
	d="
M1765.223877,612.847534 
	C1769.141357,605.132935 1774.588013,602.384705 1781.962402,604.063660 
	C1787.821045,605.397461 1792.183472,610.857117 1792.340210,617.051270 
	C1792.542480,625.053345 1786.851196,630.917542 1778.797485,631.005127 
	C1770.354736,631.096924 1764.464722,625.384033 1764.623169,617.192688 
	C1764.648682,615.873779 1764.939697,614.559998 1765.223877,612.847534 
z"/>
<path fill="#EDEDED" opacity="1.000000" stroke="none" 
	d="
M197.267654,363.730469 
	C196.629898,364.930389 195.927383,366.453003 195.172546,366.479401 
	C189.420105,366.680573 183.657455,366.589661 177.877243,366.589661 
	C178.301285,361.190247 181.033661,357.815277 185.459915,356.952026 
	C191.151306,355.842010 194.375137,357.604889 197.267654,363.730469 
z"/>
<path fill="#F7F7F7" opacity="1.000000" stroke="none" 
	d="
M292.455078,386.843201 
	C287.162109,382.921631 287.216309,378.929657 292.404877,375.904541 
	C294.927582,374.433716 297.730408,373.443298 300.505219,372.190826 
	C302.567749,383.900879 301.652863,386.950439 292.455078,386.843201 
z"/>
<path fill="#080808" opacity="1.000000" stroke="none" 
	d="
M839.317505,488.298218 
	C831.760010,496.061737 817.017944,494.767212 808.914551,488.995605 
	C807.920593,488.287659 807.134583,486.700439 807.025696,485.453217 
	C806.756897,482.373322 806.937500,479.254242 806.937500,475.110626 
	C808.563110,476.637421 809.328552,477.698120 810.364014,478.268372 
	C814.364990,480.471680 818.264709,483.121338 822.559082,484.457001 
	C827.005249,485.839874 831.381958,484.124786 833.637817,479.826599 
	C835.936096,475.447540 833.788147,471.580048 830.286560,468.902039 
	C825.946411,465.582611 821.175720,462.829407 816.624939,459.780884 
	C811.003601,456.015228 806.831848,451.377228 806.699524,444.056152 
	C806.551819,435.887207 811.339233,428.859100 819.352295,427.194733 
	C823.466248,426.340240 827.984009,426.313904 832.139404,427.000854 
	C841.572266,428.560272 843.338623,431.882660 840.976624,440.896027 
	C837.021667,439.163361 833.108154,436.992004 828.916626,435.790741 
	C826.552429,435.113190 823.560913,435.527283 821.148926,436.335754 
	C815.611572,438.191681 814.261536,443.541656 818.319397,447.770020 
	C820.692322,450.242645 823.791077,452.040741 826.645996,454.023224 
	C830.051819,456.388336 833.776917,458.346558 836.957458,460.973022 
	C845.484619,468.014648 846.450989,479.231018 839.317505,488.298218 
z"/>
<path fill="#060606" opacity="1.000000" stroke="none" 
	d="
M982.990479,472.157288 
	C976.844421,472.157288 971.195251,472.157288 965.226868,472.157288 
	C965.008118,477.077881 967.082825,480.697479 971.003052,482.913483 
	C979.052490,487.463593 986.364929,484.215515 993.475403,480.146118 
	C995.472595,488.066711 994.473083,489.906952 986.859314,492.335999 
	C967.526245,498.503876 951.957886,484.463684 956.209106,464.694580 
	C958.436035,454.338837 966.609497,448.042877 977.068787,448.626495 
	C987.031433,449.182404 993.585449,455.816040 994.825378,466.699982 
	C995.009644,468.317444 994.851013,469.973999 994.851013,472.157288 
	C991.029053,472.157288 987.258240,472.157288 982.990479,472.157288 
M965.903015,466.299316 
	C972.421143,466.299316 978.939331,466.299316 985.497986,466.299316 
	C984.522217,459.699646 981.975952,457.027283 976.665710,456.738220 
	C970.865479,456.422485 967.414917,459.178314 965.903015,466.299316 
z"/>
<path fill="#080808" opacity="1.000000" stroke="none" 
	d="
M903.098267,463.278503 
	C901.229858,457.857910 898.202637,456.141632 893.120056,457.589142 
	C891.077820,458.170776 889.114563,459.207062 887.289429,460.321503 
	C885.647888,461.323792 884.244568,462.716278 882.625732,464.026031 
	C880.351685,453.265778 883.151184,450.401520 893.340515,448.919373 
	C904.874756,447.241577 911.841492,452.260590 912.190857,461.842468 
	C912.427429,468.332336 912.268005,474.835907 912.362305,481.332245 
	C912.387451,483.064209 912.693970,484.792114 912.925171,487.047943 
	C915.047241,486.253113 916.527039,485.698853 918.277100,485.043365 
	C919.059998,487.963196 919.538513,490.385498 916.125549,492.113068 
	C910.871643,494.772400 907.060852,494.385620 903.409363,490.537018 
	C900.321472,491.544495 897.414001,492.830902 894.371887,493.410828 
	C889.103149,494.415253 884.146973,491.874023 882.256042,487.670532 
	C880.093750,482.863892 881.272339,477.005432 886.070923,473.995026 
	C890.358521,471.305237 895.445496,469.920685 899.999573,467.605774 
	C901.358948,466.914764 902.111328,465.029724 903.098267,463.278503 
M897.209106,474.381134 
	C895.782288,475.203186 893.735413,475.689331 893.067261,476.922455 
	C891.937378,479.007843 890.556946,482.113953 891.367004,483.772522 
	C892.196655,485.471130 895.538025,486.764984 897.766174,486.744415 
	C900.379028,486.720367 903.398804,485.566895 903.347717,481.752380 
	C903.307007,478.710083 903.339539,475.666809 903.339539,472.136536 
	C901.029236,472.961243 899.499695,473.507263 897.209106,474.381134 
z"/>
<path fill="#0A0A0A" opacity="1.000000" stroke="none" 
	d="
M876.286194,492.134186 
	C873.298157,492.784546 870.724182,493.651825 868.117188,493.766266 
	C859.997864,494.122742 854.561829,489.132263 854.234985,480.781433 
	C853.942993,473.321869 854.173584,465.841827 854.173584,457.923889 
	C851.676514,457.803741 849.466980,457.697418 848.177917,457.635406 
	C853.025391,452.674011 858.209595,447.368011 862.966797,442.498993 
	C862.966797,443.531982 862.966797,446.023804 862.966797,449.121521 
	C867.838196,449.121521 872.208313,449.121521 876.767761,449.121521 
	C876.767761,452.170013 876.767761,454.615936 876.767761,457.667053 
	C872.374451,457.667053 867.976868,457.667053 863.249512,457.667053 
	C863.249512,464.554474 863.108398,470.851501 863.285828,477.139587 
	C863.498840,484.688110 866.994995,486.977692 874.079590,484.438019 
	C875.605408,483.891022 877.068909,483.170135 879.286926,482.217590 
	C878.065613,485.954315 881.483276,489.904205 876.286194,492.134186 
z"/>
<path fill="#0A0A0A" opacity="1.000000" stroke="none" 
	d="
M931.443298,490.623962 
	C929.810120,486.581116 927.648743,482.856171 927.290222,478.965118 
	C926.653992,472.060699 927.111633,465.055481 927.111633,457.932404 
	C924.491882,457.771362 922.276672,457.635193 920.972290,457.555023 
	C925.876038,452.304413 930.983521,446.835724 936.062927,441.397034 
	C936.178162,443.615448 936.313354,446.217957 936.469482,449.223206 
	C940.892578,449.223206 945.166138,449.223206 949.704712,449.223206 
	C949.704712,452.183258 949.704712,454.732788 949.704712,457.739624 
	C945.239929,457.739624 940.975708,457.739624 936.260071,457.739624 
	C936.260071,464.626007 936.084045,471.071075 936.307068,477.502319 
	C936.554932,484.650543 940.127380,486.894012 946.967346,484.497650 
	C948.502075,483.959961 949.969421,483.230072 951.557312,482.550323 
	C952.702026,491.460907 953.598145,492.221222 942.539978,493.488037 
	C939.081177,493.884277 935.339478,491.810333 931.443298,490.623962 
z"/>
<path fill="#F7F7F7" opacity="1.000000" stroke="none" 
	d="
M1455.762573,222.432251 
	C1455.760986,232.023849 1455.760986,241.159164 1455.760986,250.657120 
	C1452.635986,250.657120 1449.901855,250.657120 1446.316528,250.657120 
	C1446.316528,246.346466 1446.348145,241.929932 1446.308228,237.514069 
	C1446.263184,232.518753 1446.354370,227.510544 1446.019531,222.532623 
	C1445.637207,216.851151 1442.493164,214.103470 1437.387817,214.455078 
	C1432.473145,214.793549 1428.632080,218.642365 1428.612427,223.375580 
	C1428.575195,232.349197 1428.601685,241.323074 1428.601685,250.659393 
	C1425.527954,250.659393 1422.796509,250.659393 1419.220093,250.659393 
	C1419.220093,248.055679 1419.220093,245.315201 1419.220093,242.574738 
	C1419.220093,232.580017 1419.147827,222.584335 1419.281250,212.591385 
	C1419.307739,210.608612 1417.854980,207.241760 1421.758057,207.327301 
	C1424.583618,207.389236 1429.097534,204.908386 1428.915405,211.079224 
	C1441.844971,204.589706 1445.625366,204.943100 1453.564819,213.192383 
	C1456.132324,211.448669 1458.541382,209.344681 1461.320190,208.011292 
	C1470.356201,203.675247 1480.535156,208.097748 1481.579346,217.901138 
	C1482.730225,228.706726 1481.841919,239.729492 1481.841919,250.843216 
	C1479.400757,250.843216 1476.769165,250.843216 1473.265991,250.843216 
	C1473.265991,246.533478 1473.299561,242.293152 1473.257324,238.053589 
	C1473.206055,232.892426 1473.313599,227.715546 1472.935791,222.576111 
	C1472.612427,218.180130 1470.423584,215.020218 1465.523560,214.726273 
	C1460.851685,214.446030 1456.897949,217.411285 1455.762573,222.432251 
z"/>
<path fill="#FCFCFC" opacity="1.000000" stroke="none" 
	d="
M1160.672119,193.990356 
	C1152.718750,193.990753 1145.234741,193.990753 1137.342163,193.990753 
	C1137.342163,200.324341 1137.342163,206.502182 1137.342163,213.181671 
	C1143.722168,213.181671 1150.001465,213.181473 1156.280762,213.181732 
	C1164.471558,213.182068 1164.471558,213.182220 1163.198853,222.064056 
	C1154.725464,222.064056 1146.158813,222.064056 1137.268555,222.064056 
	C1137.268555,228.817352 1137.268555,235.056061 1137.268555,241.825165 
	C1146.402588,241.825165 1155.635864,241.825165 1165.190918,241.825165 
	C1165.190918,245.083374 1165.190918,247.817368 1165.190918,250.757706 
	C1152.509033,250.757706 1140.082764,250.757706 1127.299072,250.757706 
	C1127.299072,228.981064 1127.299072,207.289886 1127.299072,185.300217 
	C1139.537720,185.300217 1151.769287,185.300217 1164.709595,185.300217 
	C1163.155640,188.256531 1168.087036,193.087326 1160.672119,193.990356 
z"/>
<path fill="#FAFAFA" opacity="1.000000" stroke="none" 
	d="
M1333.164551,207.995819 
	C1351.922241,204.679459 1365.727905,217.324509 1362.328247,234.262238 
	C1360.186768,244.932114 1350.757690,252.015640 1338.943115,251.830185 
	C1327.428101,251.649445 1318.551270,244.417419 1316.613403,233.637772 
	C1314.616577,222.530365 1320.167603,212.811188 1330.869141,208.691895 
	C1331.487549,208.453888 1332.129150,208.276688 1333.164551,207.995819 
M1352.177734,235.170380 
	C1354.538818,227.471497 1352.918701,221.767502 1347.307129,218.022675 
	C1342.322754,214.696381 1335.006104,214.971085 1330.570312,218.637482 
	C1325.775635,222.600510 1324.769775,227.841217 1326.167847,233.480759 
	C1327.485596,238.795715 1331.401733,241.954681 1336.694458,242.825363 
	C1343.135620,243.885010 1348.473267,241.853851 1352.177734,235.170380 
z"/>
<path fill="#FBFBFB" opacity="1.000000" stroke="none" 
	d="
M1529.454224,238.426147 
	C1530.815308,247.298462 1530.140747,248.370041 1522.228394,250.596939 
	C1503.008911,256.006256 1488.409790,242.613510 1492.143066,222.997696 
	C1494.095337,212.739929 1502.531982,206.001434 1512.762085,206.529053 
	C1522.936401,207.053772 1529.763184,213.958267 1530.851807,224.897736 
	C1530.998901,226.375687 1530.872070,227.880905 1530.872070,230.007416 
	C1521.023682,230.007416 1511.169678,230.007416 1501.296631,230.007416 
	C1501.762939,237.917694 1506.440186,243.273499 1513.552124,242.755447 
	C1518.801392,242.373047 1523.898315,239.897858 1529.454224,238.426147 
M1519.929443,218.683350 
	C1516.866333,214.344574 1512.470459,213.780807 1508.035278,215.385208 
	C1504.202759,216.771576 1501.664673,219.797363 1501.648926,224.311218 
	C1508.426880,224.311218 1514.935669,224.311218 1522.053345,224.311218 
	C1521.351685,222.321930 1520.825195,220.829514 1519.929443,218.683350 
z"/>
<path fill="#FBFBFB" opacity="1.000000" stroke="none" 
	d="
M1205.000732,209.923615 
	C1206.899536,213.846237 1209.625977,217.469711 1209.882080,221.260071 
	C1210.539917,230.997299 1210.101807,240.808548 1210.101807,250.775116 
	C1207.200317,250.775116 1204.448608,250.775116 1201.145386,250.775116 
	C1201.145386,245.441360 1201.156860,240.332962 1201.141602,235.224640 
	C1201.130127,231.400330 1201.209106,227.570129 1201.025269,223.753250 
	C1200.719849,217.409195 1197.751465,214.274384 1192.426392,214.393524 
	C1186.965942,214.515686 1182.943481,218.667099 1182.932983,224.242645 
	C1182.916504,233.010635 1182.928589,241.778671 1182.928589,250.774567 
	C1179.660645,250.774567 1176.895996,250.774567 1173.798584,250.774567 
	C1173.798584,236.462219 1173.798584,222.244522 1173.798584,207.513565 
	C1177.410645,208.008438 1181.964111,204.424088 1183.553955,211.152069 
	C1190.365479,206.130646 1197.346436,204.523407 1205.000732,209.923615 
z"/>
<path fill="#FBFBFB" opacity="1.000000" stroke="none" 
	d="
M1371.614258,208.736694 
	C1377.402588,206.012619 1380.115112,206.728546 1380.984497,209.866425 
	C1385.922974,208.834152 1390.785889,206.957626 1395.625854,207.015289 
	C1402.251953,207.094238 1407.472046,212.200851 1407.780396,218.747757 
	C1408.279663,229.350479 1407.914917,239.993851 1407.914917,250.755615 
	C1405.177612,250.755615 1402.419800,250.755615 1399.144653,250.755615 
	C1399.144653,243.390030 1399.175171,236.270859 1399.128906,229.152191 
	C1399.111572,226.491989 1399.186035,223.786652 1398.741211,221.183472 
	C1397.927734,216.423004 1394.549438,214.036423 1389.811157,214.461761 
	C1384.986572,214.894867 1380.989258,218.580139 1380.953247,222.888885 
	C1380.876953,232.027390 1380.930054,241.166962 1380.930054,250.657227 
	C1377.759155,250.657227 1374.882446,250.657227 1371.521851,250.657227 
	C1371.521851,236.748810 1371.521851,222.956497 1371.614258,208.736694 
z"/>
<path fill="#FBFBFB" opacity="1.000000" stroke="none" 
	d="
M1554.817627,215.190277 
	C1550.260986,217.413925 1548.572998,220.542038 1548.814819,225.400742 
	C1549.227173,233.687073 1548.928345,242.008774 1548.928345,250.661987 
	C1545.750732,250.661987 1542.874634,250.661987 1539.774902,250.661987 
	C1539.774902,236.274719 1539.774902,222.027679 1539.774902,207.250153 
	C1543.360962,208.265961 1548.120117,204.284180 1549.173950,209.824356 
	C1553.878906,208.799683 1558.591797,206.900330 1563.281494,206.956055 
	C1570.355713,207.040115 1575.581177,212.349762 1575.872925,219.396759 
	C1576.298950,229.686417 1575.982666,240.006805 1575.982666,250.662994 
	C1573.366089,250.662994 1570.628296,250.662994 1567.145386,250.662994 
	C1567.145386,245.347824 1567.154907,239.915588 1567.141846,234.483444 
	C1567.133423,230.985153 1567.208130,227.481354 1567.041138,223.989822 
	C1566.664062,216.111633 1563.130859,213.487503 1554.817627,215.190277 
z"/>
<path fill="#FAFAFA" opacity="1.000000" stroke="none" 
	d="
M1240.926270,221.838150 
	C1242.027832,219.187637 1243.008667,216.901123 1243.979126,214.610306 
	C1247.334351,206.690765 1247.333008,206.690186 1256.931519,207.569687 
	C1255.231567,211.638107 1253.634277,215.568878 1251.953125,219.463486 
	C1247.680054,229.362549 1243.412964,239.264709 1239.050537,249.124496 
	C1237.542236,252.533524 1235.161621,253.053101 1233.857300,250.209717 
	C1227.450806,236.243759 1221.282227,222.168640 1214.991089,208.045761 
	C1223.718628,206.003845 1224.451172,206.329956 1227.550293,213.344574 
	C1230.279907,219.523056 1232.999023,225.706161 1236.150024,232.856888 
	C1237.978638,228.666733 1239.389771,225.433441 1240.926270,221.838150 
z"/>
<path fill="#F9F9F9" opacity="1.000000" stroke="none" 
	d="
M1602.033936,207.214691 
	C1605.482300,207.217255 1608.443970,207.217255 1611.688843,207.217255 
	C1611.688843,210.124817 1611.688843,212.554245 1611.688843,215.615448 
	C1607.500244,215.615448 1603.272705,215.615448 1598.731201,215.615448 
	C1598.731201,223.645111 1598.552368,231.061020 1598.806519,238.462067 
	C1598.933838,242.169586 1601.615723,243.670197 1605.101440,243.112976 
	C1607.987915,242.651535 1610.797485,241.709869 1613.654053,240.977692 
	C1614.776245,249.492462 1614.312500,250.129532 1606.143066,251.447449 
	C1595.717651,253.129303 1589.334473,247.893127 1589.134521,237.314957 
	C1589.002686,230.344742 1589.109741,223.369995 1589.109741,216.063736 
	C1586.551147,215.850143 1584.352295,215.666565 1582.002075,215.470367 
	C1582.157227,214.597839 1582.077515,213.990005 1582.343384,213.707794 
	C1587.122681,208.633636 1591.943359,203.598541 1596.640869,198.674789 
	C1600.477295,200.966843 1595.149170,207.136093 1602.033936,207.214691 
z"/>
<path fill="#F9F9F9" opacity="1.000000" stroke="none" 
	d="
M1284.316772,208.603867 
	C1287.109741,207.739944 1289.795532,207.304550 1293.009521,206.783554 
	C1293.334351,209.650925 1293.586548,211.877350 1293.802612,213.784698 
	C1297.263062,211.497849 1300.538818,208.437668 1304.416138,207.000381 
	C1309.119141,205.256989 1312.892822,208.317184 1316.515991,211.674530 
	C1314.837524,214.398911 1313.305786,216.884995 1311.774658,219.370316 
	C1301.139526,212.702057 1294.338013,216.188812 1293.687500,228.513062 
	C1293.303345,235.790512 1293.617310,243.104813 1293.617310,250.708374 
	C1290.406250,250.708374 1287.653809,250.708374 1284.209717,250.708374 
	C1284.209717,236.856491 1284.209717,222.944458 1284.316772,208.603867 
z"/>
<path fill="#FFFFFF" opacity="1.000000" stroke="none" 
	d="
M1262.962158,215.085114 
	C1262.962036,212.318787 1262.962036,210.038467 1262.962036,207.514160 
	C1266.119751,207.514160 1268.709473,207.514160 1271.659912,207.514160 
	C1271.659912,221.798691 1271.659912,236.017075 1271.659912,250.619080 
	C1269.122559,250.619080 1266.402344,250.619080 1262.962158,250.619080 
	C1262.962158,239.046249 1262.962158,227.308701 1262.962158,215.085114 
z"/>
<path fill="#F7F7F7" opacity="1.000000" stroke="none" 
	d="
M1266.390137,189.318329 
	C1272.240967,190.200073 1274.733521,194.119736 1271.743042,197.517960 
	C1270.559204,198.863190 1267.934082,199.830978 1266.207886,199.538406 
	C1264.710693,199.284668 1262.324951,196.806030 1262.511963,195.669357 
	C1262.877075,193.450211 1264.765015,191.481613 1266.390137,189.318329 
z"/>
<path fill="#060606" opacity="1.000000" stroke="none" 
	d="
M488.598053,805.520569 
	C493.640259,793.734497 498.397003,782.237671 503.485962,770.889893 
	C504.139069,769.433533 506.480896,768.004639 508.110199,767.920898 
	C509.742126,767.837158 512.382935,769.033020 513.004211,770.390076 
	C522.393127,790.898987 531.524475,811.525818 540.694763,832.134644 
	C540.882202,832.555969 540.814331,833.090881 540.912170,834.011169 
	C538.354309,834.011169 535.864380,834.296448 533.489136,833.898010 
	C532.186462,833.679443 530.561890,832.569885 529.971558,831.409729 
	C527.642456,826.832153 525.828979,821.989929 523.451233,817.440857 
	C522.796448,816.188171 520.873169,814.896118 519.487610,814.845947 
	C512.342834,814.586792 505.176331,814.555603 498.035828,814.867554 
	C496.587219,814.930847 494.611084,816.512451 493.920715,817.909363 
	C491.355042,823.100952 489.224335,828.507385 486.909760,833.880859 
	C483.610321,833.880859 480.479675,833.880859 476.554901,833.880859 
	C480.610199,824.298462 484.512695,815.077209 488.598053,805.520569 
M507.577850,805.800781 
	C510.946045,805.800781 514.314270,805.800781 518.249695,805.800781 
	C514.821106,798.067566 511.742798,791.124390 508.291962,783.340942 
	C505.073395,791.122864 502.138275,798.219482 499.002716,805.800720 
	C502.033051,805.800720 504.338989,805.800720 507.577850,805.800781 
z"/>
<path fill="#080808" opacity="1.000000" stroke="none" 
	d="
M575.641357,813.426758 
	C571.948364,816.068359 568.526672,818.513855 564.917480,820.641296 
	C563.705688,821.355530 561.924622,821.036560 560.570068,821.593933 
	C559.001160,822.239380 557.615417,823.330017 556.150146,824.227417 
	C557.600159,825.379822 558.882507,827.032104 560.533264,827.585938 
	C564.616394,828.955566 568.914490,829.670593 573.040344,830.929810 
	C578.177734,832.497681 581.065063,836.126892 581.424988,841.509644 
	C581.771057,846.684814 579.459900,850.696045 574.897949,852.899536 
	C565.658142,857.362549 556.208679,857.296326 547.033875,852.704346 
	C542.684814,850.527649 540.655701,846.656250 540.768433,841.630249 
	C540.909241,835.354248 545.089417,832.702881 550.175720,830.770081 
	C545.761536,824.914185 546.072083,823.166748 551.165466,819.919312 
	C548.989441,815.578003 545.839355,811.565430 544.997986,807.116211 
	C543.495178,799.170044 548.462891,792.354065 556.501953,791.247437 
	C564.654053,790.125366 572.985107,790.303589 581.125427,789.917542 
	C582.259399,797.281494 582.259399,797.281494 574.516174,798.052124 
	C577.549622,802.903809 578.397095,807.903076 575.641357,813.426758 
M570.533630,839.084351 
	C565.062744,836.075195 559.276550,834.717224 553.428345,837.417786 
	C551.733521,838.200500 550.016418,840.808533 549.945068,842.643311 
	C549.887573,844.125488 552.169006,846.876892 553.621094,847.025085 
	C558.596375,847.532898 563.772522,847.755310 568.658142,846.885193 
	C572.087219,846.274597 573.744385,843.247498 570.533630,839.084351 
M555.385132,800.717163 
	C552.384338,804.015991 551.817383,807.515747 555.131714,810.826050 
	C558.229919,813.920471 562.007568,814.043396 565.564026,811.733887 
	C568.653198,809.728027 569.872681,806.728149 568.250854,803.111328 
	C566.521851,799.255310 562.340576,797.719543 557.696533,799.182678 
	C557.087402,799.374512 556.566956,799.847900 555.385132,800.717163 
z"/>
<path fill="#050505" opacity="1.000000" stroke="none" 
	d="
M597.300659,820.510864 
	C604.208618,827.672729 609.543396,827.774597 623.712524,821.326416 
	C625.022339,829.927612 624.319397,831.115540 616.526672,833.470520 
	C597.284912,839.285278 582.091248,825.430603 586.179565,805.797913 
	C588.331604,795.463562 596.566040,789.056091 606.983032,789.610168 
	C616.978027,790.141846 623.549561,796.744873 624.818054,807.634277 
	C625.006958,809.255981 624.844299,810.918579 624.844299,812.956360 
	C615.056274,812.956360 605.306396,812.956360 594.448059,812.956360 
	C595.492676,815.819763 596.290894,818.007690 597.300659,820.510864 
M597.471130,801.998230 
	C596.749817,803.679932 596.028503,805.361633 595.270630,807.128540 
	C602.567749,807.128540 609.093323,807.128540 615.690552,807.128540 
	C613.438477,797.034668 605.401855,794.640137 597.471130,801.998230 
z"/>
<path fill="#050505" opacity="1.000000" stroke="none" 
	d="
M639.690247,790.247742 
	C641.335083,791.237305 642.552551,792.226135 643.854675,793.283813 
	C646.861145,792.232788 650.438599,790.286560 654.202820,789.807800 
	C662.581238,788.742188 669.509644,794.337280 669.897949,802.727417 
	C670.373291,812.998108 670.011108,823.307556 670.011108,833.804932 
	C667.222717,833.804932 664.463379,833.804932 661.149353,833.804932 
	C661.149353,826.393372 661.194885,819.123169 661.126404,811.854004 
	C661.099854,809.036011 661.140869,806.152771 660.573181,803.419312 
	C659.687500,799.155151 655.954346,796.862305 651.602112,797.407349 
	C647.036011,797.979065 642.994202,801.631653 642.957520,805.531738 
	C642.870117,814.821716 642.929382,824.113037 642.929382,833.705688 
	C639.771484,833.705688 636.887390,833.705688 633.778320,833.705688 
	C633.778320,819.340576 633.778320,805.089355 633.778320,790.247070 
	C635.733337,790.247070 637.498047,790.247070 639.690247,790.247742 
z"/>
<path fill="#090909" opacity="1.000000" stroke="none" 
	d="
M683.996460,788.994629 
	C686.473572,786.308777 688.695679,783.869995 691.938293,780.311218 
	C692.166504,784.575867 692.302124,787.110657 692.461853,790.095703 
	C696.810303,790.095703 701.056091,790.095703 705.635132,790.095703 
	C705.635132,793.086487 705.635132,795.633484 705.635132,798.667297 
	C701.363342,798.667297 697.107300,798.667297 692.285095,798.667297 
	C692.285095,805.708801 692.076416,812.290283 692.343262,818.852417 
	C692.615051,825.536316 695.871582,827.643677 702.347412,825.705750 
	C704.061340,825.192810 705.677307,824.352905 707.383667,823.644287 
	C709.188477,832.061340 708.469971,833.095947 700.168457,834.396667 
	C689.645813,836.045410 683.410645,830.975342 683.137817,820.402100 
	C682.958069,813.436279 682.969421,806.465576 682.882690,799.497192 
	C682.880920,799.352112 682.727234,799.208801 682.578125,798.949402 
	C680.442993,798.786255 678.233276,798.617432 674.679871,798.345947 
	C678.264282,794.744690 681.002869,791.993225 683.996460,788.994629 
z"/>
<path fill="#EDEDED" opacity="1.000000" stroke="none" 
	d="
M965.689819,465.987000 
	C967.414917,459.178314 970.865479,456.422485 976.665710,456.738220 
	C981.975952,457.027283 984.522217,459.699646 985.497986,466.299316 
	C978.939331,466.299316 972.421143,466.299316 965.689819,465.987000 
z"/>
<path fill="#F7F7F7" opacity="1.000000" stroke="none" 
	d="
M897.589600,474.217224 
	C899.499695,473.507263 901.029236,472.961243 903.339539,472.136536 
	C903.339539,475.666809 903.307007,478.710083 903.347717,481.752380 
	C903.398804,485.566895 900.379028,486.720367 897.766174,486.744415 
	C895.538025,486.764984 892.196655,485.471130 891.367004,483.772522 
	C890.556946,482.113953 891.937378,479.007843 893.067261,476.922455 
	C893.735413,475.689331 895.782288,475.203186 897.589600,474.217224 
z"/>
<path fill="#686868" opacity="1.000000" stroke="none" 
	d="
M1352.025879,235.539749 
	C1348.473267,241.853851 1343.135620,243.885010 1336.694458,242.825363 
	C1331.401733,241.954681 1327.485596,238.795715 1326.167847,233.480759 
	C1324.769775,227.841217 1325.775635,222.600510 1330.570312,218.637482 
	C1335.006104,214.971085 1342.322754,214.696381 1347.307129,218.022675 
	C1352.918701,221.767502 1354.538818,227.471497 1352.025879,235.539749 
z"/>
<path fill="#717171" opacity="1.000000" stroke="none" 
	d="
M1520.114136,219.010223 
	C1520.825195,220.829514 1521.351685,222.321930 1522.053345,224.311218 
	C1514.935669,224.311218 1508.426880,224.311218 1501.648926,224.311218 
	C1501.664673,219.797363 1504.202759,216.771576 1508.035278,215.385208 
	C1512.470459,213.780807 1516.866333,214.344574 1520.114136,219.010223 
z"/>
<path fill="#D4D4D4" opacity="1.000000" stroke="none" 
	d="
M507.111389,805.800781 
	C504.338989,805.800720 502.033051,805.800720 499.002716,805.800720 
	C502.138275,798.219482 505.073395,791.122864 508.291962,783.340942 
	C511.742798,791.124390 514.821106,798.067566 518.249695,805.800781 
	C514.314270,805.800781 510.946045,805.800781 507.111389,805.800781 
z"/>
<path fill="#D9D9D9" opacity="1.000000" stroke="none" 
	d="
M570.817993,839.368652 
	C573.744385,843.247498 572.087219,846.274597 568.658142,846.885193 
	C563.772522,847.755310 558.596375,847.532898 553.621094,847.025085 
	C552.169006,846.876892 549.887573,844.125488 549.945068,842.643311 
	C550.016418,840.808533 551.733521,838.200500 553.428345,837.417786 
	C559.276550,834.717224 565.062744,836.075195 570.817993,839.368652 
z"/>
<path fill="#D9D9D9" opacity="1.000000" stroke="none" 
	d="
M555.695312,800.454102 
	C556.566956,799.847900 557.087402,799.374512 557.696533,799.182678 
	C562.340576,797.719543 566.521851,799.255310 568.250854,803.111328 
	C569.872681,806.728149 568.653198,809.728027 565.564026,811.733887 
	C562.007568,814.043396 558.229919,813.920471 555.131714,810.826050 
	C551.817383,807.515747 552.384338,804.015991 555.695312,800.454102 
z"/>
<path fill="#D4D4D4" opacity="1.000000" stroke="none" 
	d="
M597.694946,801.706665 
	C605.401855,794.640137 613.438477,797.034668 615.690552,807.128540 
	C609.093323,807.128540 602.567749,807.128540 595.270630,807.128540 
	C596.028503,805.361633 596.749817,803.679932 597.694946,801.706665 
z"/>
</svg>