<svg version="1.1" id="Layer_1" xmlns="http://www.w3.org/2000/svg" xmlns:xlink="http://www.w3.org/1999/xlink" x="0px" y="0px"
	 width="100%" viewBox="0 0 2982 1667" enable-background="new 0 0 2982 1667" xml:space="preserve">
<path fill="none" opacity="1.000000" stroke="#000000" stroke-linecap="round" stroke-linejoin="round" stroke-width="4.000000"
	d="
M453.000000,217.000000 
	C451.026398,212.109344 451.920349,206.980118 452.078949,202.002518 
	C453.028473,172.209167 442.969177,145.757599 424.714233,123.231583 
	C403.639404,97.225914 376.133484,80.736427 342.002380,76.978256 
	C295.440491,71.851318 257.045044,86.497314 226.905670,122.921944 
	C206.826706,147.188156 197.577835,175.040558 198.183670,205.996399 
	C198.747101,234.784317 208.794952,260.446442 226.941025,283.047333 
	C251.425110,313.542175 284.381287,328.415588 322.031464,330.404297 
	C350.565216,331.911438 377.423431,322.353271 401.048065,305.065674 
	C429.113647,284.528320 444.789307,256.696106 450.922150,222.985840 
	C451.272278,221.061371 451.907043,219.496140 453.000000,218.000000 
"/>
<path fill="none" opacity="1.000000" stroke="#000000" stroke-linecap="round" stroke-linejoin="round" stroke-width="4.000000"
	d="
M1035.000000,501.000000 
	C1048.384033,496.508118 1062.688477,496.604279 1076.092773,491.231506 
	C1120.827393,473.300873 1147.984375,441.357727 1157.002563,394.000488 
	C1169.521240,328.260986 1127.452271,263.545868 1060.974365,248.110397 
	C995.481567,232.903625 930.525818,270.478302 910.927673,333.977692 
	C896.442627,380.910309 907.363037,422.915161 938.472595,458.587860 
	C960.263367,483.574921 990.210022,496.821899 1024.008667,498.855927 
	C1030.309204,499.235107 1033.675415,500.718140 1037.323975,506.805786 
	C1055.956055,537.892822 1075.660400,568.337219 1095.008301,598.994751 
	C1097.244507,602.537903 1099.883301,605.851562 1101.000000,610.000000 
"/>
<path fill="none" opacity="1.000000" stroke="#000000" stroke-linecap="round" stroke-linejoin="round" stroke-width="4.000000"
	d="
M217.000000,583.000000 
	C201.377502,586.540894 185.367386,587.006165 169.881302,592.675781 
	C122.242226,610.116943 88.332344,658.757751 87.596985,709.994202 
	C86.806854,765.046387 123.116272,815.680969 175.075409,832.770752 
	C229.650146,850.720825 288.769867,829.256897 320.117096,783.079468 
	C334.599792,761.745117 342.291565,737.936218 342.446869,712.996582 
	C342.628357,683.842773 333.768372,656.140198 314.863129,633.112366 
	C296.757782,611.058899 273.953278,595.425293 246.005188,587.980530 
	C236.801178,585.528748 226.993942,586.567261 218.000000,583.000000 
"/>
<path fill="none" opacity="1.000000" stroke="#000000" stroke-linecap="round" stroke-linejoin="round" stroke-width="4.000000"
	d="
M1102.000000,611.000000 
	C1123.784790,614.253357 1145.323608,617.198608 1165.136353,628.766418 
	C1206.167358,652.722656 1228.087891,687.764771 1229.900757,735.003784 
	C1231.883179,786.660889 1208.412598,825.243835 1164.822754,850.696411 
	C1121.323486,876.096130 1067.805664,871.215515 1027.969604,842.041504 
	C993.715698,816.955627 977.087158,781.991760 975.595947,740.978333 
	C974.556152,712.383240 984.000610,684.947754 1002.190369,662.151917 
	C1020.503906,639.200989 1043.850098,622.973511 1072.976562,615.903564 
	C1082.245361,613.653809 1091.977417,614.406921 1101.000000,611.000000 
"/>
<path fill="none" opacity="1.000000" stroke="#000000" stroke-linecap="round" stroke-linejoin="round" stroke-width="4.000000"
	d="
M639.000000,476.000000 
	C620.196228,497.669342 607.273438,522.022522 603.954895,550.994812 
	C600.114441,584.524231 608.065125,615.220337 628.204712,641.845154 
	C654.475403,676.575562 690.326965,694.470337 733.988586,692.716431 
	C781.330811,690.814575 817.757263,669.395203 841.071411,627.039307 
	C861.444214,590.027161 862.595276,552.471130 845.998291,514.000732 
	C813.014465,437.546844 714.441467,415.328247 651.984497,465.980835 
	C648.103882,469.128021 644.000000,471.999969 640.000000,474.999969 
"/>
<path fill="none" opacity="1.000000" stroke="#000000" stroke-linecap="round" stroke-linejoin="round" stroke-width="4.000000"
	d="
M903.000000,370.000000 
	C891.536743,369.832245 881.395508,364.296783 871.143372,360.602112 
	C817.974304,341.440826 764.272034,323.841003 711.005676,304.983978 
	C627.130920,275.291077 542.487000,247.802872 458.975098,217.067627 
	C457.507263,216.527420 455.666656,217.000000 454.000000,217.000000 
"/>
<path fill="none" opacity="1.000000" stroke="#000000" stroke-linecap="round" stroke-linejoin="round" stroke-width="4.000000"
	d="
M787.000000,1054.000000 
	C802.993286,1071.253662 815.005066,1091.023071 819.794556,1114.042725 
	C828.783020,1157.243774 819.416809,1195.983398 789.052734,1229.048462 
	C768.900696,1250.993042 744.241028,1264.852783 714.970154,1268.777588 
	C669.420776,1274.885254 631.045349,1260.576172 599.885559,1226.103394 
	C565.837280,1188.434937 558.609863,1129.394409 583.150696,1084.081665 
	C606.403870,1041.146240 643.932861,1017.854370 692.028442,1015.609985 
	C724.173096,1014.109924 754.257874,1024.751099 779.006348,1046.992920 
	C781.291504,1049.046509 783.666687,1051.000000 786.000000,1053.000000 
"/>
<path fill="none" opacity="1.000000" stroke="#000000" stroke-linecap="round" stroke-linejoin="round" stroke-width="4.000000"
	d="
M421.000000,302.000000 
	C420.564545,314.142059 427.248413,324.373779 431.431946,334.827118 
	C451.514496,385.007080 470.559418,435.577606 490.048553,485.981232 
	C512.506165,544.062073 535.380493,601.981689 557.973450,660.010315 
	C565.475220,679.278076 572.759399,698.632446 579.919678,718.029663 
	C581.307495,721.789185 582.464905,722.189148 586.979309,722.414490 
	C616.310303,723.878601 645.668762,724.671692 674.993835,726.124268 
	C727.317871,728.716003 779.651489,730.993774 831.998657,733.033875 
	C870.338745,734.527954 908.685974,736.003601 946.985718,738.244019 
	C955.970459,738.769592 965.112549,737.814026 974.000000,740.000000 
"/>
<path fill="none" opacity="1.000000" stroke="#000000" stroke-linecap="round" stroke-linejoin="round" stroke-width="5.000000"
	d="
M2078.000000,514.000000 
	C2115.720703,514.983215 2153.339355,517.997009 2191.013916,519.688354 
	C2208.994385,520.495605 2226.950928,522.633240 2245.000244,522.004822 
	C2253.613037,521.704895 2259.915039,523.495483 2264.294434,532.862305 
	C2276.789551,559.587585 2290.625244,585.687622 2304.010742,611.994568 
	C2319.965576,643.350891 2335.554688,674.909058 2352.366699,705.800354 
	C2355.836182,712.175293 2355.166992,716.469299 2351.888672,720.917969 
	C2338.318115,739.333923 2326.728516,759.044373 2314.129883,778.085938 
	C2290.613037,813.629150 2267.752197,849.605530 2244.264160,885.174500 
	C2239.768311,891.982727 2234.802979,893.323364 2228.000488,892.992188 
	C2194.332275,891.353088 2160.702637,889.086121 2127.011963,887.708374 
	C2104.015381,886.767883 2081.025391,884.893677 2058.000000,884.000000 
"/>
<path fill="none" opacity="1.000000" stroke="#000000" stroke-linecap="round" stroke-linejoin="round" stroke-width="4.000000"
	d="
M306.000031,802.999939 
	C336.666687,828.666626 367.255371,854.427246 398.019806,879.976135 
	C436.270599,911.742249 474.761078,943.219971 512.967407,975.039185 
	C539.137817,996.834534 564.961365,1019.045959 591.035522,1040.957764 
	C595.744080,1044.914673 600.963806,1048.264404 605.000000,1053.000000 
"/>
<path fill="none" opacity="1.000000" stroke="#000000" stroke-linecap="round" stroke-linejoin="round" stroke-width="4.000000"
	d="
M584.000000,724.000000 
	C587.109253,740.905762 595.195251,756.076599 601.203369,771.922913 
	C620.996643,824.127625 641.718506,875.979797 661.978333,928.008423 
	C672.243103,954.369080 681.633972,981.069885 692.916138,1007.036438 
	C693.882751,1009.261292 693.666687,1012.000000 694.000000,1014.500000 
"/>
<path fill="none" opacity="1.000000" stroke="#000000" stroke-linecap="round" stroke-linejoin="round" stroke-width="4.000000"
	d="
M324.000000,332.000000 
	C315.129486,354.677948 304.436157,376.578674 295.140961,399.058289 
	C280.755188,433.848907 265.219849,468.142517 250.600327,502.831573 
	C241.236420,525.050110 231.690216,547.310425 221.090057,569.043945 
	C219.126480,573.069824 218.333328,577.666687 217.000000,582.000000 
"/>
<path fill="none" opacity="1.000000" stroke="#000000" stroke-linecap="round" stroke-linejoin="round" stroke-width="5.000000"
	d="
M580.000000,721.000000 
	C568.000000,723.828491 555.992615,720.865601 544.001709,720.774292 
	C525.661865,720.634521 507.340454,718.837769 488.998566,718.032410 
	C445.327942,716.115051 401.626465,714.889587 357.997345,712.040894 
	C353.350494,711.737427 348.666656,712.000000 344.000000,712.000000 
"/>
<path fill="none" opacity="1.000000" stroke="#000000" stroke-linecap="round" stroke-linejoin="round" stroke-width="4.000000"
	d="
M1012.000000,831.000000 
	C986.765625,854.086487 963.424744,879.092590 939.001587,903.001587 
	C890.996277,949.996216 842.984924,996.984680 795.037781,1044.038452 
	C792.186584,1046.836548 788.698486,1049.139404 787.000000,1053.000000 
"/>
<path fill="none" opacity="1.000000" stroke="#000000" stroke-linecap="round" stroke-linejoin="round" stroke-width="4.000000"
	d="
M417.000000,296.000000 
	C451.410614,319.447113 482.217621,347.491913 514.743103,373.323486 
	C541.789856,394.803833 568.392334,416.928253 595.013306,438.983948 
	C609.605591,451.073761 624.333313,463.000000 639.000000,475.000000 
"/>
<path fill="none" opacity="1.000000" stroke="#000000" stroke-linecap="round" stroke-linejoin="round" stroke-width="5.000000"
	d="
M2534.000000,686.000061 
	C2511.000000,689.666687 2488.007568,693.382263 2464.998047,696.987610 
	C2437.006348,701.373596 2409.003662,705.691345 2380.997559,709.984314 
	C2373.028320,711.205872 2365.152588,713.220581 2357.000000,713.000000 
"/>
<path fill="none" opacity="1.000000" stroke="#000000" stroke-linecap="round" stroke-linejoin="round" stroke-width="5.000000"
	d="
M1926.000000,670.000000 
	C1905.750122,667.393860 1885.318970,667.620178 1864.990479,666.130005 
	C1831.026245,663.640320 1796.917725,663.414490 1762.996094,660.039246 
	C1760.025513,659.743713 1757.000000,660.000000 1754.000000,660.000000 
"/>
<path fill="none" opacity="1.000000" stroke="#000000" stroke-linecap="round" stroke-linejoin="round" stroke-width="5.000000"
	d="
M1924.000000,712.000000 
	C1893.292114,711.614807 1862.692383,708.859131 1832.012085,707.684204 
	C1807.682617,706.752380 1783.412109,703.815247 1759.001221,704.100342 
	C1756.500488,704.129517 1754.404053,702.838684 1752.000000,703.000000 
"/>
<path fill="none" opacity="1.000000" stroke="#000000" stroke-linecap="round" stroke-linejoin="round" stroke-width="5.000000"
	d="
M2600.999756,470.999969 
	C2591.999756,527.333313 2582.999756,583.666626 2573.999756,640.000000 
"/>
<path fill="none" opacity="1.000000" stroke="#000000" stroke-linecap="round" stroke-linejoin="round" stroke-width="5.000000"
	d="
M1947.000000,322.000000 
	C1911.366089,338.410736 1877.422363,358.162964 1842.026611,375.055786 
	C1824.540039,383.401367 1807.333374,392.333313 1790.000000,401.000000 
"/>
<path fill="none" opacity="1.000000" stroke="#000000" stroke-linecap="round" stroke-linejoin="round" stroke-width="5.000000"
	d="
M2444.000000,389.000000 
	C2488.000000,411.333344 2531.997803,433.670776 2576.033691,455.933533 
	C2576.430420,456.134216 2577.105957,456.496826 2578.035645,456.922211 
	C2586.255615,460.683014 2593.322021,469.646698 2601.927246,468.778870 
	C2610.262695,467.938232 2617.918945,461.001404 2626.013428,457.027496 
	C2670.577393,435.150055 2713.848633,410.709686 2759.000000,390.000000 
"/>
<path fill="none" opacity="1.000000" stroke="#000000" stroke-linecap="round" stroke-linejoin="round" stroke-width="5.000000"
	d="
M2107.000000,239.000000 
	C2101.208008,245.114029 2093.111084,247.246231 2085.957275,250.916580 
	C2044.044312,272.419739 2002.005371,293.677368 1959.991211,314.982605 
	C1955.998535,317.007294 1951.882568,318.788818 1947.756836,320.714508 
	C1972.708862,367.973907 1996.175659,415.577576 2020.134644,462.931885 
	C2022.092529,466.801605 2021.969360,473.294250 2029.000000,473.000000 
"/>
<path fill="none" opacity="1.000000" stroke="#000000" stroke-linecap="round" stroke-linejoin="round" stroke-width="5.000000"
	d="
M1872.000000,169.999985 
	C1897.333374,219.999985 1922.666748,269.999969 1948.000000,319.999969 
"/>
<path fill="none" opacity="1.000000" stroke="#000000" stroke-linecap="round" stroke-linejoin="round" stroke-width="5.000000"
	d="
M2056.000000,1157.000000 
	C2022.000000,1135.000000 1988.005249,1112.991821 1953.997559,1091.003784 
	C1939.012085,1081.314697 1924.000000,1071.666626 1909.000000,1062.000000 
"/>
<path fill="none" opacity="1.000000" stroke="#000000" stroke-linecap="round" stroke-linejoin="round" stroke-width="5.000000"
	d="
M2021.000000,551.000000 
	C2006.805054,568.629578 1995.821045,588.436707 1983.114502,607.078064 
	C1966.974854,630.755676 1952.008057,655.233826 1935.814819,678.873047 
	C1930.142334,687.153931 1929.614258,694.668091 1934.024170,702.987183 
	C1958.536255,749.226196 1981.522949,796.237183 2005.000000,843.000000 
"/>
<path fill="none" opacity="1.000000" stroke="#000000" stroke-linecap="round" stroke-linejoin="round" stroke-width="5.000000"
	d="
M2223.000000,908.000000 
	C2247.000000,955.333374 2271.000000,1002.666626 2294.999023,1050.000488 
	C2295.673096,1051.329956 2296.333496,1052.666626 2297.000000,1054.000000 
"/>
<path fill="none" opacity="1.000000" stroke="#000000" stroke-linecap="round" stroke-linejoin="round" stroke-width="5.000000"
	d="
M1763.000000,966.000000 
	C1791.333374,984.666626 1819.636719,1003.378906 1848.010132,1021.984558 
	C1867.957520,1035.064819 1888.000000,1048.000000 1908.000000,1061.000000 
"/>
<path fill="none" opacity="1.000000" stroke="#000000" stroke-linecap="round" stroke-linejoin="round" stroke-width="5.000000"
	d="
M2261.000000,889.000000 
	C2284.000000,934.333313 2306.988281,979.672668 2330.021484,1024.989136 
	C2331.871338,1028.629028 2332.950439,1032.868042 2337.000000,1035.000000 
"/>
<path fill="none" opacity="1.000000" stroke="#000000" stroke-linecap="round" stroke-linejoin="round" stroke-width="5.000000"
	d="
M2000.000000,922.000000 
	C1972.333374,964.000000 1944.537598,1005.915710 1917.033203,1048.021729 
	C1883.560669,1099.264160 1850.333374,1150.666626 1817.000000,1202.000000 
"/>
<path fill="none" opacity="1.000000" stroke="#000000" stroke-linecap="round" stroke-linejoin="round" stroke-width="5.000000"
	d="
M2314.000000,537.000000 
	C2333.006348,572.320679 2349.668457,608.840942 2368.814453,644.100708 
	C2371.993408,649.954773 2375.568115,655.716003 2378.000000,662.000000 
"/>
<path fill="none" opacity="1.000000" stroke="#000000" stroke-linecap="round" stroke-linejoin="round" stroke-width="5.000000"
	d="
M2378.000000,405.000031 
	C2341.666748,441.000031 2305.305176,476.971893 2269.046875,513.047180 
	C2265.707031,516.370056 2261.281494,518.927368 2260.000000,524.000000 
"/>
<path fill="none" opacity="1.000000" stroke="#000000" stroke-linecap="round" stroke-linejoin="round" stroke-width="5.000000"
	d="
M2717.000000,833.999939 
	C2677.666504,873.333252 2638.333252,912.666565 2599.000000,951.999939 
"/>
<path fill="none" opacity="1.000000" stroke="#000000" stroke-linecap="round" stroke-linejoin="round" stroke-width="5.000000"
	d="
M2600.000000,713.000061 
	C2639.333252,752.333374 2678.666748,791.666687 2718.000000,831.000061 
"/>
<path fill="none" opacity="1.000000" stroke="#000000" stroke-linecap="round" stroke-linejoin="round" stroke-width="5.000000"
	d="
M2837.000244,714.000122 
	C2798.000244,753.000122 2759.000244,792.000122 2720.000244,831.000122 
"/>
<path fill="none" opacity="1.000000" stroke="#000000" stroke-linecap="round" stroke-linejoin="round" stroke-width="5.000000"
	d="
M2721.000000,834.000000 
	C2760.000000,873.000000 2799.000000,912.000000 2838.000000,951.000000 
"/>
<path fill="none" opacity="1.000000" stroke="#000000" stroke-linecap="round" stroke-linejoin="round" stroke-width="4.000000"
	d="
M939.000000,461.000000 
	C923.020020,465.806641 906.323669,465.620178 889.981018,467.861511 
	C871.062561,470.456177 851.973694,471.794586 833.027954,474.218384 
	C830.139343,474.587891 826.279114,473.837341 824.000000,477.000000 
"/>
<path fill="none" opacity="1.000000" stroke="#000000" stroke-linecap="round" stroke-linejoin="round" stroke-width="5.000000"
	d="
M2447.000000,435.000000 
	C2445.866699,438.644470 2448.475098,439.741943 2450.993896,441.011993 
	C2485.336182,458.327698 2519.666748,475.666718 2554.000000,493.000061 
"/>
<path fill="none" opacity="1.000000" stroke="#000000" stroke-linecap="round" stroke-linejoin="round" stroke-width="4.000000"
	d="
M2084.000000,1493.000000 
	C2096.756348,1491.118530 2101.985840,1484.656372 2099.805176,1471.031128 
	C2098.141846,1460.637939 2094.806152,1454.440186 2080.994629,1454.789917 
	C2075.166260,1454.937378 2072.697998,1458.851685 2070.185059,1462.141357 
	C2065.205078,1468.660767 2067.327148,1477.029175 2068.563232,1483.898682 
	C2069.559570,1489.436279 2075.516113,1494.139648 2083.000000,1493.000000 
"/>
<path fill="none" opacity="1.000000" stroke="#000000" stroke-linecap="round" stroke-linejoin="round" stroke-width="4.000000"
	d="
M2122.000000,1593.000000 
	C2134.756348,1591.118530 2139.985840,1584.656372 2137.805176,1571.031128 
	C2136.141846,1560.638062 2132.806396,1554.439941 2118.994629,1554.789673 
	C2113.166260,1554.937134 2110.698242,1558.851807 2108.185303,1562.141479 
	C2103.205078,1568.660889 2105.327148,1577.029175 2106.563232,1583.898682 
	C2107.559570,1589.436279 2113.516113,1594.139648 2121.000000,1593.000000 
"/>
<path fill="none" opacity="1.000000" stroke="#000000" stroke-linecap="round" stroke-linejoin="round" stroke-width="4.000000"
	d="
M255.000000,205.000000 
	C259.333344,205.000000 263.669128,205.093750 267.999481,204.980026 
	C276.391571,204.759659 283.000000,199.423492 283.000000,193.000000 
	C283.000000,186.585831 277.893829,182.549942 268.998962,182.017502 
	C267.006104,181.898224 265.000000,182.000000 263.000000,182.000000 
	C259.998352,182.000000 256.996704,182.000000 253.000000,182.000000 
	C253.000000,196.651276 253.000000,210.825638 253.000000,225.000000 
"/>
<path fill="none" opacity="1.000000" stroke="#000000" stroke-linecap="round" stroke-linejoin="round" stroke-width="4.000000"
	d="
M573.000000,1511.000000 
	C569.333374,1509.333252 565.795227,1507.185303 561.957214,1506.160156 
	C559.145813,1505.409180 555.644409,1505.297974 553.045410,1507.066650 
	C545.103577,1512.471680 545.831299,1520.821289 545.953674,1529.000732 
	C546.053528,1535.674805 549.063965,1539.510742 554.809509,1543.289673 
	C563.336426,1548.898071 567.086182,1540.721313 573.000000,1539.000000 
"/>
<path fill="none" opacity="1.000000" stroke="#000000" stroke-linecap="round" stroke-linejoin="round" stroke-width="4.000000"
	d="
M2134.000000,1472.000000 
	C2143.833252,1473.998535 2153.666748,1472.423828 2163.489990,1473.246826 
	C2163.579590,1462.056641 2158.811035,1455.571533 2151.000000,1455.000122 
	C2140.616943,1454.240356 2136.116211,1457.947021 2134.000000,1469.000000 
	C2130.763916,1485.904541 2136.367432,1493.644409 2151.004395,1493.121704 
	C2154.864990,1492.983765 2157.522461,1491.649414 2160.034668,1489.033447 
	C2162.024414,1486.961548 2163.540527,1484.089966 2167.000000,1484.000000 
"/>
<path fill="none" opacity="1.000000" stroke="#000000" stroke-linecap="round" stroke-linejoin="round" stroke-width="4.000000"
	d="
M740.000000,1540.000000 
	C747.333313,1542.405273 754.053711,1548.902100 762.207153,1540.193970 
	C768.015503,1533.990479 768.682129,1527.154785 767.792480,1520.025879 
	C766.884766,1512.752686 761.626404,1507.476562 754.922913,1505.229980 
	C749.167175,1503.300903 744.850220,1508.625610 740.000000,1511.000000 
"/>
<path fill="none" opacity="1.000000" stroke="#000000" stroke-linecap="round" stroke-linejoin="round" stroke-width="4.000000"
	d="
M2332.000000,1572.000000 
	C2341.833252,1573.998535 2351.666748,1572.423828 2361.489990,1573.246826 
	C2361.579590,1562.056641 2356.811035,1555.571533 2349.000000,1555.000000 
	C2338.616943,1554.240479 2334.115967,1557.947021 2332.000000,1569.000000 
	C2328.763672,1585.904541 2334.367432,1593.644409 2349.004395,1593.121582 
	C2352.864990,1592.983887 2355.522461,1591.649536 2358.034668,1589.033447 
	C2360.024658,1586.961670 2361.540527,1584.089966 2365.000000,1584.000000 
"/>
<path fill="none" opacity="1.000000" stroke="#000000" stroke-linecap="round" stroke-linejoin="round" stroke-width="4.000000"
	d="
M2383.000000,1503.000000 
	C2387.902588,1509.530640 2394.050781,1511.362061 2402.038086,1509.136719 
	C2407.651123,1507.572632 2411.657959,1504.830322 2411.886719,1498.995605 
	C2412.291016,1488.677979 2411.753418,1478.325684 2412.076172,1468.002441 
	C2412.345947,1459.373291 2405.713135,1456.917114 2399.916748,1455.297607 
	C2393.334473,1453.458130 2387.127197,1456.399292 2384.077881,1463.035767 
	C2380.223877,1471.423584 2380.614502,1483.412964 2389.887207,1490.155029 
	C2394.234619,1493.315918 2397.298340,1493.805054 2402.158447,1491.308594 
	C2404.615479,1490.046509 2406.888184,1486.794434 2410.500000,1488.000000 
"/>
<path fill="none" opacity="1.000000" stroke="#000000" stroke-linecap="round" stroke-linejoin="round" stroke-width="5.000000"
	d="
M456.000000,1524.000000 
	C465.498871,1523.478271 475.115356,1525.191772 484.467957,1522.802856 
	C485.391083,1514.205688 481.321838,1508.441650 473.932831,1506.223755 
	C466.923859,1504.119995 460.704590,1507.547974 456.037750,1513.032104 
	C452.067047,1517.698120 453.523315,1535.522583 458.000000,1540.000000 
	C464.680573,1546.681641 472.572052,1546.796021 480.942780,1539.930298 
	C483.452576,1537.871582 485.768677,1535.763184 489.000000,1535.000000 
"/>
<path fill="none" opacity="1.000000" stroke="#000000" stroke-linecap="round" stroke-linejoin="round" stroke-width="4.000000"
	d="
M2231.000000,1564.000000 
	C2229.710938,1563.244751 2227.794922,1563.715210 2227.003174,1561.998535 
	C2223.252441,1553.866577 2215.351562,1553.313354 2209.144043,1555.423584 
	C2201.490723,1558.025513 2198.190430,1565.798706 2198.058105,1574.000977 
	C2197.842529,1587.364868 2204.532715,1593.492065 2217.004150,1593.159668 
	C2224.324463,1592.964355 2225.577148,1587.025879 2229.000000,1583.000000 
"/>
<path fill="none" opacity="1.000000" stroke="#000000" stroke-linecap="round" stroke-linejoin="round" stroke-width="4.000000"
	d="
M119.000000,717.000000 
	C123.666664,717.000000 128.363953,716.660217 132.993011,717.077454 
	C140.453003,717.749939 147.374908,713.333496 148.000015,707.000000 
	C148.609497,700.824768 144.049194,695.889954 135.989105,695.112976 
	C130.026016,694.538208 123.963013,695.000000 117.000000,695.000000 
	C117.000000,710.317810 117.000000,724.658936 117.000000,739.000000 
"/>
<path fill="none" opacity="1.000000" stroke="#000000" stroke-linecap="round" stroke-linejoin="round" stroke-width="4.000000"
	d="
M2209.000000,1463.000000 
	C2199.822021,1453.120972 2191.586426,1452.332520 2183.925049,1459.924438 
	C2178.322998,1465.476074 2178.312256,1485.108398 2185.898438,1490.152832 
	C2192.482666,1494.531372 2200.798828,1494.230103 2206.007324,1488.006104 
	C2208.000732,1485.624023 2208.900391,1481.939331 2213.000000,1482.000000 
"/>
<path fill="none" opacity="1.000000" stroke="#000000" stroke-linecap="round" stroke-linejoin="round" stroke-width="4.000000"
	d="
M687.000000,547.000000 
	C687.000000,558.000000 686.776855,569.006104 687.078857,579.997864 
	C687.278564,587.266296 683.275635,590.788696 676.999817,590.793823 
	C669.848389,590.799622 666.915710,586.063232 668.000000,579.000000 
"/>
<path fill="none" opacity="1.000000" stroke="#000000" stroke-linecap="round" stroke-linejoin="round" stroke-width="4.000000"
	d="
M2508.000000,1490.000000 
	C2509.333252,1490.333252 2510.694336,1490.583374 2511.995605,1491.012939 
	C2523.653564,1494.861816 2528.763672,1493.410400 2533.000000,1485.000000 
	C2538.234131,1474.609863 2536.678223,1462.671509 2528.963867,1457.049561 
	C2521.576416,1451.665771 2514.836426,1456.616455 2508.000000,1459.000000 
"/>
<path fill="none" opacity="1.000000" stroke="#000000" stroke-linecap="round" stroke-linejoin="round" stroke-width="4.000000"
	d="
M717.000000,1522.000000 
	C711.573059,1522.500610 706.522949,1524.678955 701.023010,1525.229980 
	C696.760376,1525.656982 691.461243,1526.887695 690.185547,1532.045898 
	C689.359131,1535.387451 689.104919,1539.356567 692.958374,1542.059326 
	C697.416016,1545.186157 701.932007,1546.348389 706.992065,1543.983032 
	C710.367126,1542.405640 713.666687,1540.666748 717.000061,1539.000122 
"/>
<path fill="none" opacity="1.000000" stroke="#000000" stroke-linecap="round" stroke-linejoin="round" stroke-width="4.000000"
	d="
M203.000000,736.000000 
	C213.730255,740.509827 218.176636,739.842834 222.999969,733.000000 
	C226.528473,727.994080 225.409119,717.368286 221.034805,711.971802 
	C218.080124,708.326721 213.494858,706.920959 210.155136,708.360046 
	C206.598190,709.892700 200.723190,710.889587 201.043655,716.997681 
	C201.376343,723.339050 199.690536,729.848999 202.500000,736.000000 
"/>
<path fill="none" opacity="1.000000" stroke="#000000" stroke-linecap="round" stroke-linejoin="round" stroke-width="4.000000"
	d="
M742.000000,574.000000 
	C749.166687,576.030151 756.333313,574.779053 763.545715,574.619446 
	C762.747620,563.799927 759.597473,559.585205 752.007751,560.111755 
	C743.724792,560.686340 741.804382,565.433472 740.234253,573.857300 
	C738.626404,582.483582 741.049011,586.734375 747.102905,589.796509 
	C753.155212,592.857910 759.314819,591.940735 763.000000,585.000000 
"/>
<path fill="none" opacity="1.000000" stroke="#000000" stroke-linecap="round" stroke-linejoin="round" stroke-width="5.000000"
	d="
M529.000000,1545.000000 
	C531.283630,1536.408325 530.074951,1527.634155 529.819580,1519.005371 
	C529.504883,1508.371704 523.119019,1504.193970 513.019592,1507.068970 
	C509.893433,1507.958984 506.999969,1509.666626 503.999969,1511.000000 
"/>
<path fill="none" opacity="1.000000" stroke="#000000" stroke-linecap="round" stroke-linejoin="round" stroke-width="5.000000"
	d="
M811.000000,1545.000000 
	C813.322449,1536.073730 812.247925,1526.938599 811.762573,1518.012939 
	C811.199646,1507.661133 803.852661,1503.922363 792.994934,1506.982056 
	C790.514648,1507.680908 789.027771,1510.620361 786.000000,1510.000000 
"/>
<path fill="none" opacity="1.000000" stroke="#000000" stroke-linecap="round" stroke-linejoin="round" stroke-width="5.000000"
	d="
M2426.000000,1592.000000 
	C2426.000000,1585.000000 2425.881348,1577.997314 2426.036621,1571.000854 
	C2426.167969,1565.073730 2425.868652,1558.901855 2419.909668,1556.199463 
	C2414.538086,1553.763550 2408.590332,1553.726318 2403.940674,1558.947144 
	C2403.019775,1559.981079 2401.333252,1560.333374 2400.000000,1561.000000 
"/>
<path fill="none" opacity="1.000000" stroke="#000000" stroke-linecap="round" stroke-linejoin="round" stroke-width="5.000000"
	d="
M393.000000,1491.000000 
	C382.333344,1488.811768 371.666656,1490.584106 360.487396,1489.838379 
	C359.036560,1508.952026 361.617493,1527.072266 359.000000,1545.000000 
"/>
<path fill="none" opacity="1.000000" stroke="#000000" stroke-linecap="round" stroke-linejoin="round" stroke-width="5.000000"
	d="
M2580.000000,1492.000000 
	C2580.000000,1484.666626 2580.074463,1477.332397 2579.984131,1470.000244 
	C2579.813965,1456.208618 2570.726318,1451.027466 2559.012207,1458.020386 
	C2557.427979,1458.965820 2556.033936,1460.251465 2554.000000,1460.000000 
"/>
<path fill="none" opacity="1.000000" stroke="#000000" stroke-linecap="round" stroke-linejoin="round" stroke-width="4.000000"
	d="
M944.000000,382.000000 
	C948.000000,382.000000 952.059082,381.564697 955.986694,382.098053 
	C962.513794,382.984344 964.335388,379.126648 964.952881,373.994324 
	C965.566284,368.895294 962.933960,365.587219 957.989075,365.114471 
	C952.683472,364.607269 947.291931,365.000000 942.000000,365.000000 
	C942.000000,377.333344 942.000000,388.666656 942.000000,401.000000 
	C945.972473,401.000000 950.023682,400.654541 953.990845,401.084534 
	C959.356506,401.666077 964.731445,400.493347 966.665771,395.860443 
	C968.522644,391.413116 967.373047,385.907806 962.000000,383.000000 
"/>
<path fill="none" opacity="1.000000" stroke="#000000" stroke-linecap="round" stroke-linejoin="round" stroke-width="5.000000"
	d="
M2116.000000,1440.000000 
	C2116.000000,1457.333374 2116.000000,1474.666626 2116.000000,1492.000000 
"/>
<path fill="none" opacity="1.000000" stroke="#000000" stroke-linecap="round" stroke-linejoin="round" stroke-width="5.000000"
	d="
M2270.000000,1440.000000 
	C2270.000000,1457.333374 2270.000000,1474.666626 2270.000000,1492.000000 
"/>
<path fill="none" opacity="1.000000" stroke="#000000" stroke-linecap="round" stroke-linejoin="round" stroke-width="3.000000"
	d="
M1034.000000,399.000000 
	C1041.919067,403.473907 1047.527954,402.814026 1051.000000,396.999969 
	C1055.198730,389.968933 1053.466187,381.306244 1047.000000,377.000000 
	C1040.811646,372.878815 1035.171509,375.710632 1032.822876,382.942505 
	C1030.997437,388.563354 1033.047607,393.666656 1033.000000,399.000000 
"/>
<path fill="none" opacity="1.000000" stroke="#000000" stroke-linecap="round" stroke-linejoin="round" stroke-width="4.000000"
	d="
M2008.500000,856.000000 
	C2005.718750,873.602112 2007.487061,891.332947 2007.000000,909.000000 
"/>
<path fill="none" opacity="1.000000" stroke="#000000" stroke-linecap="round" stroke-linejoin="round" stroke-width="4.000000"
	d="
M2393.000000,347.000000 
	C2401.319824,351.724670 2404.411133,360.483459 2408.925781,368.044312 
	C2415.157715,378.480835 2421.103271,389.068329 2429.500000,398.000000 
"/>
<path fill="none" opacity="1.000000" stroke="#000000" stroke-linecap="round" stroke-linejoin="round" stroke-width="5.000000"
	d="
M2063.500000,538.000000 
	C2057.340332,526.901733 2048.583252,517.573242 2042.648682,506.183014 
	C2039.398560,499.944458 2037.075562,491.859375 2027.559082,487.984253 
	C2024.967529,505.532043 2025.467896,522.245361 2027.000000,539.000000 
"/>
<path fill="none" opacity="1.000000" stroke="#000000" stroke-linecap="round" stroke-linejoin="round" stroke-width="4.000000"
	d="
M2550.500000,654.000000 
	C2547.718750,671.602112 2549.487061,689.332947 2549.000000,707.000000 
"/>
<path fill="none" opacity="1.000000" stroke="#000000" stroke-linecap="round" stroke-linejoin="round" stroke-width="4.000000"
	d="
M2585.500000,706.000000 
	C2571.791504,691.404419 2565.860107,671.491821 2552.000000,657.000000 
"/>
<path fill="none" opacity="1.000000" stroke="#000000" stroke-linecap="round" stroke-linejoin="round" stroke-width="4.000000"
	d="
M728.000000,1165.000000 
	C725.896667,1158.759766 727.179626,1152.329956 727.067932,1145.998779 
	C726.828186,1132.407593 722.833801,1129.635498 710.037964,1135.089111 
	C707.105530,1136.338867 706.026184,1135.267944 705.000000,1133.000000 
"/>
<path fill="none" opacity="1.000000" stroke="#000000" stroke-linecap="round" stroke-linejoin="round" stroke-width="5.000000"
	d="
M690.000000,1165.000000 
	C690.000000,1158.333374 689.994202,1151.666626 690.001221,1145.000000 
	C690.015381,1131.520020 682.941895,1131.525146 674.010986,1134.039185 
	C671.417419,1134.769165 668.658630,1138.056396 667.000000,1133.000000 
"/>
<path fill="none" opacity="1.000000" stroke="#000000" stroke-linecap="round" stroke-linejoin="round" stroke-width="4.000000"
	d="
M2587.000000,653.000000 
	C2587.000000,665.666687 2587.005859,678.333313 2586.996338,691.000000 
	C2586.993652,694.625244 2587.621582,698.453125 2584.000000,701.000000 
"/>
<path fill="none" opacity="1.000000" stroke="#000000" stroke-linecap="round" stroke-linejoin="round" stroke-width="5.000000"
	d="
M2393.500000,350.000000 
	C2390.182373,362.219116 2392.787354,374.677155 2392.034424,387.002106 
	C2391.811279,390.655121 2392.000000,394.333344 2392.000000,398.000000 
"/>
<path fill="none" opacity="1.000000" stroke="#000000" stroke-linecap="round" stroke-linejoin="round" stroke-width="4.000000"
	d="
M2006.000000,1446.000000 
	C2013.265991,1449.866943 2012.296509,1457.884644 2014.900024,1464.042236 
	C2018.828125,1473.332153 2021.512207,1483.140747 2026.500000,1492.000000 
"/>
<path fill="none" opacity="1.000000" stroke="#000000" stroke-linecap="round" stroke-linejoin="round" stroke-width="4.000000"
	d="
M2444.000000,1573.000000 
	C2453.661377,1572.255493 2463.543701,1574.715820 2472.817627,1571.404419 
	C2472.213379,1562.784912 2469.951416,1555.785400 2460.000488,1554.994141 
	C2451.979004,1554.356323 2445.083008,1557.194946 2443.326904,1565.072876 
	C2441.755615,1572.122314 2440.069580,1579.736084 2444.834473,1587.107056 
	C2449.341309,1594.079102 2455.650146,1592.838257 2461.999023,1593.031006 
	C2467.845215,1593.208496 2469.493408,1587.886719 2473.000000,1585.000000 
"/>
<path fill="none" opacity="1.000000" stroke="#000000" stroke-linecap="round" stroke-linejoin="round" stroke-width="4.000000"
	d="
M2270.000000,1592.000000 
	C2266.721191,1585.310303 2269.964355,1578.308838 2269.610840,1571.468384 
	C2269.262695,1564.723877 2269.637695,1559.187378 2262.970947,1556.062134 
	C2256.065674,1552.825317 2246.965332,1554.890991 2242.155518,1561.119995 
	C2240.439941,1563.341797 2238.822754,1562.723755 2237.000000,1563.000000 
"/>
<path fill="none" opacity="1.000000" stroke="#000000" stroke-linecap="round" stroke-linejoin="round" stroke-width="5.000000"
	d="
M2430.000000,346.000000 
	C2430.000000,358.000000 2429.956055,370.000244 2430.025635,381.999847 
	C2430.047852,385.822418 2430.158691,389.604614 2428.000000,393.000000 
"/>
<path fill="none" opacity="1.000000" stroke="#000000" stroke-linecap="round" stroke-linejoin="round" stroke-width="4.000000"
	d="
M2316.000000,1492.000000 
	C2312.721191,1485.310303 2315.964111,1478.308838 2315.610840,1471.468506 
	C2315.262451,1464.723999 2315.637695,1459.187256 2308.970703,1456.062378 
	C2302.065674,1452.825439 2292.965332,1454.890991 2288.155518,1461.119995 
	C2286.439697,1463.341797 2284.822754,1462.723755 2283.000000,1463.000000 
"/>
<path fill="none" opacity="1.000000" stroke="#000000" stroke-linecap="round" stroke-linejoin="round" stroke-width="4.000000"
	d="
M2313.000000,1472.000000 
	C2306.666748,1473.000000 2300.315186,1473.898926 2294.005127,1475.029053 
	C2287.948975,1476.113770 2285.274902,1479.579102 2285.909424,1486.008911 
	C2286.650146,1493.512939 2291.889160,1492.486328 2296.981689,1493.142578 
	C2303.354492,1493.963989 2307.801270,1490.097046 2313.000000,1488.000000 
"/>
<path fill="none" opacity="1.000000" stroke="#000000" stroke-linecap="round" stroke-linejoin="round" stroke-width="4.000000"
	d="
M2267.000000,1572.000000 
	C2260.666748,1573.000000 2254.315186,1573.898926 2248.005127,1575.029053 
	C2241.948975,1576.113770 2239.274902,1579.579102 2239.909424,1586.008911 
	C2240.649902,1593.512939 2245.889160,1592.486328 2250.981689,1593.142700 
	C2257.354492,1593.964233 2261.801270,1590.097046 2267.000000,1588.000000 
"/>
<path fill="none" opacity="1.000000" stroke="#000000" stroke-linecap="round" stroke-linejoin="round" stroke-width="5.000000"
	d="
M2064.000000,486.000000 
	C2064.000000,497.333344 2063.847656,508.669769 2064.078857,519.998413 
	C2064.164795,524.215210 2063.382324,528.119263 2062.000000,532.000000 
"/>
<path fill="none" opacity="1.000000" stroke="#000000" stroke-linecap="round" stroke-linejoin="round" stroke-width="5.000000"
	d="
M2044.000000,856.000000 
	C2044.000000,867.333313 2043.847656,878.669800 2044.078979,889.998413 
	C2044.165161,894.215210 2043.382324,898.119263 2042.000000,902.000000 
"/>
<path fill="none" opacity="1.000000" stroke="#000000" stroke-linecap="round" stroke-linejoin="round" stroke-width="4.000000"
	d="
M2043.500000,908.000000 
	C2037.340332,896.901733 2028.547363,887.596313 2022.657227,876.176758 
	C2019.513428,870.081482 2017.207886,862.468506 2010.000000,859.000000 
"/>
<path fill="none" opacity="1.000000" stroke="#000000" stroke-linecap="round" stroke-linejoin="round" stroke-width="5.000000"
	d="
M2048.000000,1442.000000 
	C2051.332764,1458.560059 2049.583496,1475.323364 2050.000000,1492.000000 
"/>
<path fill="none" opacity="1.000000" stroke="#000000" stroke-linecap="round" stroke-linejoin="round" stroke-width="5.000000"
	d="
M2004.000000,1442.000000 
	C2000.922241,1458.570190 2002.227539,1475.315796 2002.000000,1492.000000 
"/>
<path fill="none" opacity="1.000000" stroke="#000000" stroke-linecap="round" stroke-linejoin="round" stroke-width="4.000000"
	d="
M645.500000,1508.000000 
	C645.382019,1519.000732 645.632996,1530.005493 645.452881,1541.007446 
	C645.320068,1549.120850 645.324524,1555.284180 637.037964,1559.082764 
	C629.045654,1562.746704 623.717957,1561.952271 616.998535,1555.001465 
	C616.343262,1554.323608 615.666687,1553.666626 615.000000,1553.000000 
"/>
<path fill="none" opacity="1.000000" stroke="#000000" stroke-linecap="round" stroke-linejoin="round" stroke-width="3.000000"
	d="
M1133.000000,387.000000 
	C1128.874878,386.915955 1124.912964,387.824921 1121.001465,389.004913 
	C1116.915894,390.237457 1112.065186,391.671051 1113.201538,396.956696 
	C1114.532227,403.146973 1120.347656,402.245270 1124.992676,401.900909 
	C1128.321411,401.654114 1131.158691,396.254059 1135.000000,401.000000 
"/>
<path fill="none" opacity="1.000000" stroke="#000000" stroke-linecap="round" stroke-linejoin="round" stroke-width="4.000000"
	d="
M2483.000000,1472.000000 
	C2478.182617,1474.036499 2472.888428,1472.156006 2467.981689,1473.949951 
	C2462.025391,1476.127563 2455.216797,1477.783325 2456.178955,1485.979004 
	C2456.816406,1491.409302 2466.928955,1494.954468 2474.000000,1493.000000 
	C2483.367188,1490.410889 2487.284180,1484.621582 2485.883301,1475.017090 
	C2485.767334,1474.221436 2484.826660,1473.700317 2484.975098,1472.994751 
	C2486.478271,1465.849121 2488.024170,1457.723022 2478.918945,1455.304810 
	C2470.736084,1453.131592 2462.152100,1454.335083 2457.000000,1463.000000 
"/>
<path fill="none" opacity="1.000000" stroke="#000000" stroke-linecap="round" stroke-linejoin="round" stroke-width="3.000000"
	d="
M997.000000,387.000031 
	C993.000000,387.666718 989.007629,388.384338 984.997742,388.984802 
	C981.464600,389.513794 978.868408,390.574585 978.922607,395.000946 
	C978.983032,399.940674 981.837646,401.417603 985.997253,402.019165 
	C994.357727,403.228363 998.488403,398.447083 998.000000,388.000000 
	C997.449158,376.214752 992.625916,372.162964 983.967102,375.924194 
	C981.174500,377.137268 980.692444,381.236115 977.000000,381.000000 
"/>
<path fill="none" opacity="1.000000" stroke="#000000" stroke-linecap="round" stroke-linejoin="round" stroke-width="3.000000"
	d="
M1081.000000,386.999969 
	C1077.000000,387.666656 1073.007568,388.384186 1068.997681,388.984711 
	C1065.464600,389.513763 1062.868530,390.574585 1062.922607,395.000946 
	C1062.983032,399.940674 1065.837646,401.417603 1069.997192,402.019196 
	C1078.357666,403.228363 1082.488281,398.447083 1081.999878,388.000000 
	C1081.448975,376.214722 1076.625854,372.162903 1067.967041,375.924194 
	C1065.174561,377.137238 1064.692505,381.236115 1061.000000,381.000000 
"/>
<path fill="none" opacity="1.000000" stroke="#000000" stroke-linecap="round" stroke-linejoin="round" stroke-width="5.000000"
	d="
M2222.000000,1456.000000 
	C2222.000000,1463.666626 2221.468750,1471.379272 2222.126953,1478.989014 
	C2223.073486,1489.935059 2226.824463,1493.848755 2235.011963,1493.137695 
	C2244.182617,1492.341064 2249.925049,1487.518311 2249.988037,1478.999878 
	C2250.044678,1471.333740 2250.000000,1463.666626 2250.000000,1456.000000 
"/>
<path fill="none" opacity="1.000000" stroke="#000000" stroke-linecap="round" stroke-linejoin="round" stroke-width="4.000000"
	d="
M742.000000,1147.000000 
	C749.348511,1147.000000 756.696960,1147.000000 763.911072,1147.000000 
	C764.734497,1137.738647 761.554382,1132.791870 755.000000,1132.000000 
	C748.094727,1131.165771 741.704529,1136.599731 741.013062,1144.001221 
	C740.346191,1151.138916 739.960876,1158.314819 748.015991,1161.964600 
	C754.972778,1165.116821 760.432495,1162.403809 765.000000,1157.000000 
"/>
<path fill="none" opacity="1.000000" stroke="#000000" stroke-linecap="round" stroke-linejoin="round" stroke-width="4.000000"
	d="
M1029.000000,725.000000 
	C1026.209106,738.227112 1027.070068,751.636841 1027.000000,765.000000 
"/>
<path fill="none" opacity="1.000000" stroke="#000000" stroke-linecap="round" stroke-linejoin="round" stroke-width="4.000000"
	d="
M238.000000,723.000000 
	C245.348480,723.000000 252.696976,723.000000 259.911102,723.000000 
	C260.734467,713.738708 257.554382,708.791870 251.000000,707.999939 
	C244.094727,707.165710 237.704559,712.599731 237.013062,720.001221 
	C236.346191,727.138916 235.960861,734.314819 244.016022,737.964661 
	C250.972778,741.116760 256.432495,738.403748 261.000000,733.000000 
"/>
<path fill="none" opacity="1.000000" stroke="#000000" stroke-linecap="round" stroke-linejoin="round" stroke-width="4.000000"
	d="
M296.000000,209.000000 
	C303.348480,209.000000 310.696960,209.000000 317.911102,209.000000 
	C318.734467,199.738708 315.554382,194.791901 309.000000,194.000015 
	C302.094727,193.165726 295.704559,198.599731 295.013062,206.001221 
	C294.346191,213.138901 293.960846,220.314880 302.016022,223.964661 
	C308.972778,227.116745 314.432495,224.403763 319.000000,219.000000 
"/>
<path fill="none" opacity="1.000000" stroke="#000000" stroke-linecap="round" stroke-linejoin="round" stroke-width="4.000000"
	d="
M352.000000,209.000000 
	C359.348480,209.000000 366.696960,209.000000 373.911102,209.000000 
	C374.734467,199.738708 371.554382,194.791901 365.000000,194.000000 
	C358.094727,193.165710 351.704559,198.599731 351.013031,206.001221 
	C350.346161,213.138901 349.960846,220.314880 358.016022,223.964661 
	C364.972778,227.116730 370.432495,224.403763 375.000000,219.000000 
"/>
<path fill="none" opacity="1.000000" stroke="#000000" stroke-linecap="round" stroke-linejoin="round" stroke-width="5.000000"
	d="
M1065.000000,725.000000 
	C1066.413330,737.972290 1065.891235,750.994263 1066.000000,764.000000 
"/>
<path fill="none" opacity="1.000000" stroke="#000000" stroke-linecap="round" stroke-linejoin="round" stroke-width="4.000000"
	d="
M2044.000000,1449.000000 
	C2037.758301,1459.603638 2035.035156,1471.563599 2031.196777,1483.065674 
	C2030.465088,1485.258179 2029.164917,1486.432251 2028.000000,1488.000000 
"/>
<path fill="none" opacity="1.000000" stroke="#000000" stroke-linecap="round" stroke-linejoin="round" stroke-width="4.000000"
	d="
M643.000000,1511.000000 
	C639.193176,1510.850342 637.133972,1506.994019 633.018311,1506.722534 
	C630.255371,1506.540283 627.828186,1505.753052 624.969177,1506.924805 
	C616.966309,1510.204590 612.629883,1525.039185 616.999878,1535.000000 
	C620.652527,1543.325439 628.375793,1545.520508 638.006165,1541.013184 
	C639.629272,1540.253418 641.333374,1539.666748 643.000000,1539.000000 
"/>
<path fill="none" opacity="1.000000" stroke="#000000" stroke-linecap="round" stroke-linejoin="round" stroke-width="5.000000"
	d="
M721.000000,1545.000000 
	C714.656494,1537.932251 719.967896,1529.410645 719.532043,1521.939819 
	C719.085632,1514.287231 717.870422,1508.163452 711.862061,1506.497437 
	C705.073914,1504.615112 696.418030,1504.242065 692.000000,1513.000000 
"/>
<path fill="none" opacity="1.000000" stroke="#000000" stroke-linecap="round" stroke-linejoin="round" stroke-width="5.000000"
	d="
M436.000000,1508.000000 
	C436.594360,1520.326294 434.790710,1532.717407 437.000000,1545.000000 
"/>
<path fill="none" opacity="1.000000" stroke="#000000" stroke-linecap="round" stroke-linejoin="round" stroke-width="4.000000"
	d="
M1156.000000,749.000000 
	C1163.348511,749.000000 1170.697021,749.000000 1177.911133,749.000000 
	C1178.652710,740.657837 1178.578491,740.766174 1173.024414,736.964294 
	C1168.900146,734.141113 1165.278076,734.499207 1160.940674,736.892578 
	C1152.562012,741.515808 1154.769287,748.989807 1155.022095,755.999207 
	C1155.273926,762.981689 1160.757446,764.832153 1166.028687,765.851501 
	C1171.732422,766.954285 1176.268433,764.307983 1179.000000,759.000000 
"/>
<path fill="none" opacity="1.000000" stroke="#000000" stroke-linecap="round" stroke-linejoin="round" stroke-width="4.000000"
	d="
M2106.000000,1177.000000 
	C2094.000000,1177.000000 2082.000000,1177.000000 2070.000000,1177.000000 
"/>
<path fill="none" opacity="1.000000" stroke="#000000" stroke-linecap="round" stroke-linejoin="round" stroke-width="5.000000"
	d="
M2378.000000,1556.000000 
	C2378.000000,1568.000000 2378.000000,1580.000000 2378.000000,1592.000000 
"/>
<path fill="none" opacity="1.000000" stroke="#000000" stroke-linecap="round" stroke-linejoin="round" stroke-width="4.000000"
	d="
M2810.000000,372.000000 
	C2798.000000,370.414032 2786.000000,370.414032 2774.000000,372.000000 
"/>
<path fill="none" opacity="1.000000" stroke="#000000" stroke-linecap="round" stroke-linejoin="round" stroke-width="5.000000"
	d="
M2323.000000,1539.000000 
	C2314.597900,1537.931274 2311.528320,1541.525391 2311.854004,1550.005615 
	C2312.391113,1563.984985 2312.000000,1578.000000 2312.000000,1592.000000 
"/>
<path fill="none" opacity="1.000000" stroke="#000000" stroke-linecap="round" stroke-linejoin="round" stroke-width="5.000000"
	d="
M2303.000000,1539.000000 
	C2290.725830,1539.313110 2290.038086,1539.971802 2290.007568,1552.000000 
	C2289.973877,1565.333252 2290.000000,1578.666626 2290.000000,1592.000000 
"/>
<path fill="none" opacity="1.000000" stroke="#000000" stroke-linecap="round" stroke-linejoin="round" stroke-width="5.000000"
	d="
M2169.000000,1539.000000 
	C2156.725830,1539.313110 2156.038086,1539.971802 2156.007568,1552.000000 
	C2155.973877,1565.333252 2156.000000,1578.666626 2156.000000,1592.000000 
"/>
<path fill="none" opacity="1.000000" stroke="#000000" stroke-linecap="round" stroke-linejoin="round" stroke-width="3.000000"
	d="
M1062.000000,730.000000 
	C1054.909424,734.395691 1055.892090,742.628479 1053.105103,749.045654 
	C1050.900269,754.122559 1049.719849,759.647034 1046.000000,764.000000 
"/>
<path fill="none" opacity="1.000000" stroke="#000000" stroke-linecap="round" stroke-linejoin="round" stroke-width="4.000000"
	d="
M1747.000000,943.000000 
	C1735.338257,943.505798 1723.615356,941.868958 1712.000000,944.000000 
"/>
<path fill="none" opacity="1.000000" stroke="#000000" stroke-linecap="round" stroke-linejoin="round" stroke-width="5.000000"
	d="
M2585.000000,982.000000 
	C2573.333252,982.000000 2561.666748,982.000000 2550.000000,982.000000 
"/>
<path fill="none" opacity="1.000000" stroke="#000000" stroke-linecap="round" stroke-linejoin="round" stroke-width="4.000000"
	d="
M2887.000000,982.000000 
	C2875.333252,983.675537 2863.666748,983.519043 2852.000000,982.000000 
"/>
<path fill="none" opacity="1.000000" stroke="#000000" stroke-linecap="round" stroke-linejoin="round" stroke-width="5.000000"
	d="
M335.000000,181.000000 
	C333.191559,192.959030 334.080658,204.999084 334.094696,216.999893 
	C334.101105,222.466064 335.758789,227.119659 343.000000,224.000000 
"/>
<path fill="none" opacity="1.000000" stroke="#000000" stroke-linecap="round" stroke-linejoin="round" stroke-width="4.000000"
	d="
M1869.000000,129.000000 
	C1857.333374,129.000000 1845.666626,129.000000 1834.000000,129.000000 
"/>
<path fill="none" opacity="1.000000" stroke="#000000" stroke-linecap="round" stroke-linejoin="round" stroke-width="4.000000"
	d="
M1775.000000,417.000000 
	C1763.333374,417.000000 1751.666626,417.000000 1740.000000,417.000000 
"/>
<path fill="none" opacity="1.000000" stroke="#000000" stroke-linecap="round" stroke-linejoin="round" stroke-width="5.000000"
	d="
M1809.000000,1240.000000 
	C1797.333374,1240.000000 1785.666626,1240.000000 1774.000000,1240.000000 
"/>
<path fill="none" opacity="1.000000" stroke="#000000" stroke-linecap="round" stroke-linejoin="round" stroke-width="5.000000"
	d="
M2887.000000,680.000000 
	C2875.333252,680.000000 2863.666748,680.000000 2852.000000,680.000000 
"/>
<path fill="none" opacity="1.000000" stroke="#000000" stroke-linecap="round" stroke-linejoin="round" stroke-width="4.000000"
	d="
M2156.000000,223.000000 
	C2144.666748,223.000000 2133.333252,223.000000 2122.000000,223.000000 
"/>
<path fill="none" opacity="1.000000" stroke="#000000" stroke-linecap="round" stroke-linejoin="round" stroke-width="5.000000"
	d="
M783.000000,1489.000000 
	C785.430725,1507.666626 784.520874,1526.333374 783.000000,1545.000000 
"/>
<path fill="none" opacity="1.000000" stroke="#000000" stroke-linecap="round" stroke-linejoin="round" stroke-width="5.000000"
	d="
M409.500000,1512.000000 
	C407.743408,1522.975952 406.990967,1533.967041 409.000000,1545.000000 
"/>
<path fill="none" opacity="1.000000" stroke="#000000" stroke-linecap="round" stroke-linejoin="round" stroke-width="5.000000"
	d="
M501.000000,1507.000000 
	C502.772217,1519.666626 502.436584,1532.333374 501.000000,1545.000000 
"/>
<path fill="none" opacity="1.000000" stroke="#000000" stroke-linecap="round" stroke-linejoin="round" stroke-width="5.000000"
	d="
M663.000000,1507.000000 
	C664.772217,1519.666626 664.436584,1532.333374 663.000000,1545.000000 
"/>
<path fill="none" opacity="1.000000" stroke="#000000" stroke-linecap="round" stroke-linejoin="round" stroke-width="4.000000"
	d="
M1140.000000,733.000000 
	C1142.139160,743.610229 1140.456909,754.339905 1141.000000,765.000000 
"/>
<path fill="none" opacity="1.000000" stroke="#000000" stroke-linecap="round" stroke-linejoin="round" stroke-width="4.000000"
	d="
M1103.000000,762.000000 
	C1105.660522,755.789124 1103.359863,749.320068 1103.711426,742.984009 
	C1104.047119,736.939392 1094.308350,732.317749 1088.059448,735.132141 
	C1085.370850,736.343140 1083.333252,738.999939 1081.000000,740.999939 
"/>
<path fill="none" opacity="1.000000" stroke="#000000" stroke-linecap="round" stroke-linejoin="round" stroke-width="5.000000"
	d="
M2552.000000,1440.000000 
	C2552.000000,1457.333374 2552.000000,1474.666626 2552.000000,1492.000000 
"/>
<path fill="none" opacity="1.000000" stroke="#000000" stroke-linecap="round" stroke-linejoin="round" stroke-width="5.000000"
	d="
M2334.000000,1456.000000 
	C2334.000000,1468.000000 2334.000000,1480.000000 2334.000000,1492.000000 
"/>
<path fill="none" opacity="1.000000" stroke="#000000" stroke-linecap="round" stroke-linejoin="round" stroke-width="4.000000"
	d="
M299.000000,699.000000 
	C299.000000,709.333313 299.122864,719.668823 298.944031,729.999023 
	C298.864166,734.612122 299.770721,738.152832 305.000000,739.000000 
"/>
<path fill="none" opacity="1.000000" stroke="#000000" stroke-linecap="round" stroke-linejoin="round" stroke-width="4.000000"
	d="
M1032.000000,730.000000 
	C1039.090454,739.177124 1038.796021,751.451111 1045.000000,761.000000 
"/>
<path fill="none" opacity="1.000000" stroke="#000000" stroke-linecap="round" stroke-linejoin="round" stroke-width="5.000000"
	d="
M2505.000000,1455.000000 
	C2509.429199,1459.018311 2505.742920,1463.696655 2505.863525,1468.003784 
	C2506.237061,1481.326782 2506.000000,1494.666626 2506.000000,1508.000000 
"/>
<path fill="none" opacity="1.000000" stroke="#000000" stroke-linecap="round" stroke-linejoin="round" stroke-width="5.000000"
	d="
M2397.000000,1555.000000 
	C2398.974609,1567.288940 2397.534668,1579.670288 2398.000000,1592.000000 
"/>
<path fill="none" opacity="1.000000" stroke="#000000" stroke-linecap="round" stroke-linejoin="round" stroke-width="5.000000"
	d="
M2451.000000,1455.000000 
	C2448.333252,1455.333374 2445.575195,1455.342163 2443.018066,1456.063965 
	C2436.557617,1457.886841 2431.434570,1460.795166 2431.906250,1469.005371 
	C2432.345459,1476.646729 2432.000000,1484.333374 2432.000000,1492.000000 
"/>
<path fill="none" opacity="1.000000" stroke="#000000" stroke-linecap="round" stroke-linejoin="round" stroke-width="5.000000"
	d="
M668.000000,1137.000000 
	C668.000000,1146.333374 668.000000,1155.666626 668.000000,1165.000000 
"/>
<path fill="none" opacity="1.000000" stroke="#000000" stroke-linecap="round" stroke-linejoin="round" stroke-width="4.000000"
	d="
M706.000000,1137.000000 
	C703.223633,1146.182617 706.776367,1155.817383 704.000000,1165.000000 
"/>
<path fill="none" opacity="1.000000" stroke="#000000" stroke-linecap="round" stroke-linejoin="round" stroke-width="5.000000"
	d="
M1812.000000,1214.000000 
	C1811.127075,1232.323486 1813.093872,1250.698730 1811.000000,1269.000000 
"/>
<path fill="none" opacity="1.000000" stroke="#000000" stroke-linecap="round" stroke-linejoin="round" stroke-width="4.000000"
	d="
M276.000000,713.000000 
	C273.223633,722.182617 276.776367,731.817383 274.000000,741.000000 
"/>
<path fill="none" opacity="1.000000" stroke="#000000" stroke-linecap="round" stroke-linejoin="round" stroke-width="6.000000"
	d="
M2587.000000,959.000000 
	C2587.000000,976.333313 2587.000000,993.666687 2587.000000,1011.000000 
"/>
<path fill="none" opacity="1.000000" stroke="#000000" stroke-linecap="round" stroke-linejoin="round" stroke-width="5.000000"
	d="
M737.000000,1507.000000 
	C741.429077,1511.018311 737.742798,1515.696655 737.863586,1520.003784 
	C738.237122,1533.326782 738.000000,1546.666626 738.000000,1560.000000 
"/>
<path fill="none" opacity="1.000000" stroke="#000000" stroke-linecap="round" stroke-linejoin="round" stroke-width="5.000000"
	d="
M2851.000000,653.000000 
	C2849.633789,671.666687 2849.523682,690.333313 2851.000000,709.000000 
"/>
<path fill="none" opacity="1.000000" stroke="#000000" stroke-linecap="round" stroke-linejoin="round" stroke-width="4.000000"
	d="
M390.000000,199.000000 
	C387.223633,208.182648 390.776367,217.817352 388.000000,227.000000 
"/>
<path fill="none" opacity="1.000000" stroke="#000000" stroke-linecap="round" stroke-linejoin="round" stroke-width="5.000000"
	d="
M575.000000,1489.000000 
	C576.566223,1504.333374 576.591003,1519.693115 574.825928,1534.979858 
	C574.425293,1538.449829 576.051331,1541.666626 575.000000,1545.000000 
"/>
<path fill="none" opacity="1.000000" stroke="#000000" stroke-linecap="round" stroke-linejoin="round" stroke-width="4.000000"
	d="
M657.000000,1163.000000 
	C649.947205,1149.325439 646.678162,1133.939209 638.132568,1118.820801 
	C629.734375,1134.029053 627.026733,1149.440063 620.000000,1163.000000 
"/>
<path fill="none" opacity="1.000000" stroke="#000000" stroke-linecap="round" stroke-linejoin="round" stroke-width="4.000000"
	d="
M1134.000000,399.000000 
	C1136.028564,394.113007 1134.558594,388.993591 1134.904907,383.993408 
	C1135.194702,379.808075 1132.016846,376.262360 1128.906616,375.302643 
	C1123.831177,373.736511 1118.550537,375.208282 1115.000000,380.000000 
"/>
<path fill="none" opacity="1.000000" stroke="#000000" stroke-linecap="round" stroke-linejoin="round" stroke-width="5.000000"
	d="
M2548.000000,958.000000 
	C2548.000000,975.333313 2548.000000,992.666687 2548.000000,1010.000000 
"/>
<path fill="none" opacity="1.000000" stroke="#000000" stroke-linecap="round" stroke-linejoin="round" stroke-width="5.000000"
	d="
M2850.000000,958.000000 
	C2850.000000,975.333313 2850.000000,992.666687 2850.000000,1010.000000 
"/>
<path fill="none" opacity="1.000000" stroke="#000000" stroke-linecap="round" stroke-linejoin="round" stroke-width="5.000000"
	d="
M2890.000000,958.000000 
	C2890.000000,975.333313 2890.000000,992.666687 2890.000000,1010.000000 
"/>
<path fill="none" opacity="1.000000" stroke="#000000" stroke-linecap="round" stroke-linejoin="round" stroke-width="5.000000"
	d="
M1772.000000,1214.000000 
	C1772.000000,1232.000000 1772.000000,1250.000000 1772.000000,1268.000000 
"/>
<path fill="none" opacity="1.000000" stroke="#000000" stroke-linecap="round" stroke-linejoin="round" stroke-width="5.000000"
	d="
M2890.000000,654.000000 
	C2890.000000,672.000000 2890.000000,690.000000 2890.000000,708.000000 
"/>
<path fill="none" opacity="1.000000" stroke="#000000" stroke-linecap="round" stroke-linejoin="round" stroke-width="5.000000"
	d="
M2158.000000,198.000000 
	C2158.000000,215.333328 2158.000000,232.666672 2158.000000,250.000000 
"/>
<path fill="none" opacity="1.000000" stroke="#000000" stroke-linecap="round" stroke-linejoin="round" stroke-width="5.000000"
	d="
M2772.000000,346.000000 
	C2772.000000,363.333344 2772.000000,380.666656 2772.000000,398.000000 
"/>
<path fill="none" opacity="1.000000" stroke="#000000" stroke-linecap="round" stroke-linejoin="round" stroke-width="5.000000"
	d="
M2812.000000,346.000000 
	C2812.000000,363.333344 2812.000000,380.666656 2812.000000,398.000000 
"/>
<path fill="none" opacity="1.000000" stroke="#000000" stroke-linecap="round" stroke-linejoin="round" stroke-width="5.000000"
	d="
M2120.000000,198.000000 
	C2120.000000,215.333328 2120.000000,232.666672 2120.000000,250.000000 
"/>
<path fill="none" opacity="1.000000" stroke="#000000" stroke-linecap="round" stroke-linejoin="round" stroke-width="5.000000"
	d="
M2068.000000,1152.000000 
	C2068.000000,1169.333374 2068.000000,1186.666626 2068.000000,1204.000000 
"/>
<path fill="none" opacity="1.000000" stroke="#000000" stroke-linecap="round" stroke-linejoin="round" stroke-width="5.000000"
	d="
M1710.000000,918.000000 
	C1710.000000,935.333313 1710.000000,952.666687 1710.000000,970.000000 
"/>
<path fill="none" opacity="1.000000" stroke="#000000" stroke-linecap="round" stroke-linejoin="round" stroke-width="5.000000"
	d="
M388.000000,1516.000000 
	C379.333344,1516.000000 370.666656,1516.000000 362.000000,1516.000000 
"/>
<path fill="none" opacity="1.000000" stroke="#000000" stroke-linecap="round" stroke-linejoin="round" stroke-width="5.000000"
	d="
M1738.000000,392.000000 
	C1738.000000,409.333344 1738.000000,426.666656 1738.000000,444.000000 
"/>
<path fill="none" opacity="1.000000" stroke="#000000" stroke-linecap="round" stroke-linejoin="round" stroke-width="5.000000"
	d="
M2108.000000,1152.000000 
	C2108.000000,1169.333374 2108.000000,1186.666626 2108.000000,1204.000000 
"/>
<path fill="none" opacity="1.000000" stroke="#000000" stroke-linecap="round" stroke-linejoin="round" stroke-width="4.000000"
	d="
M1118.000000,733.000000 
	C1122.653809,739.450623 1117.803223,746.342712 1118.885010,753.018616 
	C1119.516602,756.916260 1119.000000,761.000000 1119.000000,765.000000 
"/>
<path fill="none" opacity="1.000000" stroke="#000000" stroke-linecap="round" stroke-linejoin="round" stroke-width="5.000000"
	d="
M1832.000000,104.000000 
	C1832.000000,121.333336 1832.000000,138.666672 1832.000000,156.000000 
"/>
<path fill="none" opacity="1.000000" stroke="#000000" stroke-linecap="round" stroke-linejoin="round" stroke-width="6.000000"
	d="
M1871.000000,105.000000 
	C1871.000000,121.666664 1871.000000,138.333328 1871.000000,155.000000 
"/>
<path fill="none" opacity="1.000000" stroke="#000000" stroke-linecap="round" stroke-linejoin="round" stroke-width="6.000000"
	d="
M1748.500122,918.000000 
	C1748.666748,935.000000 1748.833374,952.000000 1749.000122,969.000000 
"/>
<path fill="none" opacity="1.000000" stroke="#000000" stroke-linecap="round" stroke-linejoin="round" stroke-width="3.000000"
	d="
M1102.000000,749.000000 
	C1097.440552,748.196533 1093.319092,750.230164 1088.996338,750.979126 
	C1083.304321,751.965332 1078.768677,754.111206 1081.093140,760.968445 
	C1083.245361,767.317383 1089.301270,766.722168 1093.937622,765.713135 
	C1097.737793,764.886230 1100.878662,760.331665 1105.000000,765.000000 
"/>
<path fill="none" opacity="1.000000" stroke="#000000" stroke-linecap="round" stroke-linejoin="round" stroke-width="6.000000"
	d="
M1777.000000,393.000000 
	C1777.000000,409.666656 1777.000000,426.333344 1777.000000,443.000000 
"/>
<path fill="none" opacity="1.000000" stroke="#000000" stroke-linecap="round" stroke-linejoin="round" stroke-width="4.000000"
	d="
M138.000000,719.000000 
	C140.557983,726.244080 146.681320,731.224731 150.053665,737.973206 
	C151.068604,740.004150 153.333954,738.663574 155.000000,739.000000 
"/>
<path fill="none" opacity="1.000000" stroke="#000000" stroke-linecap="round" stroke-linejoin="round" stroke-width="4.000000"
	d="
M1096.000000,380.000000 
	C1094.695679,387.666656 1094.161865,395.333344 1096.000000,403.000000 
"/>
<path fill="none" opacity="1.000000" stroke="#000000" stroke-linecap="round" stroke-linejoin="round" stroke-width="4.000000"
	d="
M1012.000000,380.000000 
	C1010.695618,387.666656 1010.161865,395.333344 1012.000000,403.000000 
"/>
<path fill="none" opacity="1.000000" stroke="#000000" stroke-linecap="round" stroke-linejoin="round" stroke-width="4.000000"
	d="
M307.000000,708.000000 
	C299.085754,710.391724 290.973083,707.860474 282.994568,708.960632 
	C280.362305,709.323608 277.666656,715.764587 275.000000,709.000000 
"/>
<path fill="none" opacity="1.000000" stroke="#000000" stroke-linecap="round" stroke-linejoin="round" stroke-width="4.000000"
	d="
M2321.000000,1555.000000 
	C2308.333252,1555.000000 2295.666748,1555.000000 2283.000000,1555.000000 
"/>
<path fill="none" opacity="1.000000" stroke="#000000" stroke-linecap="round" stroke-linejoin="round" stroke-width="4.000000"
	d="
M629.000000,1146.000000 
	C635.333313,1147.406494 641.666687,1147.829590 648.000000,1146.000000 
"/>
<path fill="none" opacity="1.000000" stroke="#000000" stroke-linecap="round" stroke-linejoin="round" stroke-width="4.000000"
	d="
M201.000000,695.000000 
	C201.795212,700.651550 199.141373,706.708862 203.000000,712.000000 
"/>
<path fill="none" opacity="1.000000" stroke="#000000" stroke-linecap="round" stroke-linejoin="round" stroke-width="4.000000"
	d="
M2351.000000,1455.000000 
	C2345.543457,1455.297363 2341.010010,1458.363525 2336.000000,1460.000000 
"/>
<path fill="none" opacity="1.000000" stroke="#000000" stroke-linecap="round" stroke-linejoin="round" stroke-width="3.000000"
	d="
M1032.000000,363.000000 
	C1032.552246,367.683014 1030.522949,372.734833 1034.000000,377.000000 
"/>
<path fill="none" opacity="1.000000" stroke="#000000" stroke-linecap="round" stroke-linejoin="round" stroke-width="3.000000"
	d="
M1132.000000,739.000000 
	C1129.119873,730.014832 1124.608276,738.975708 1121.000000,738.000000 
"/>
<path fill="none" opacity="1.000000" stroke="#000000" stroke-linecap="round" stroke-linejoin="round" stroke-width="4.000000"
	d="
M424.000000,1508.000000 
	C419.667114,1503.668945 417.040100,1507.448242 413.966187,1509.958618 
	C411.351196,1512.094116 409.449921,1511.096069 408.500000,1508.000000 
"/>
<path fill="none" opacity="1.000000" stroke="#000000" stroke-linecap="round" stroke-linejoin="round" stroke-width="3.000000"
	d="
M1023.000000,376.000000 
	C1019.666321,373.165436 1017.990295,376.156006 1016.002625,378.002808 
	C1013.856445,379.996887 1012.273132,379.301056 1011.000000,377.000000 
"/>
<path fill="none" opacity="1.000000" stroke="#000000" stroke-linecap="round" stroke-linejoin="round" stroke-width="3.000000"
	d="
M1107.000000,376.000000 
	C1103.666260,373.165436 1101.990234,376.156097 1100.002686,378.002869 
	C1097.856445,379.996918 1096.273071,379.301056 1095.000000,377.000000 
"/>
<path fill="none" opacity="1.000000" stroke="#000000" stroke-linecap="round" stroke-linejoin="round" stroke-width="4.000000"
	d="
M2165.000000,1555.000000 
	C2159.666748,1555.000000 2154.333252,1555.000000 2149.000000,1555.000000 
"/>
<path fill="none" opacity="1.000000" stroke="#000000" stroke-linecap="round" stroke-linejoin="round" stroke-width="4.000000"
	d="
M173.000000,708.000000 
	C161.764786,712.359619 157.988724,727.415405 165.940308,735.062073 
	C171.473022,740.382751 178.686752,740.465942 184.045105,735.044556 
	C188.097809,730.944458 189.617661,718.762451 185.945511,714.042358 
	C183.001938,710.258789 179.353027,707.293945 174.000000,708.000000 
"/>
<path fill="none" opacity="1.000000" stroke="#000000" stroke-linecap="round" stroke-linejoin="round" stroke-width="4.000000"
	d="
M2331.000000,1057.000000 
	C2309.724609,1064.416016 2309.787842,1085.696899 2316.214355,1100.909424 
	C2321.276367,1112.891724 2339.516113,1115.566040 2350.112549,1108.161011 
	C2363.392334,1098.880859 2365.119141,1063.855225 2344.038086,1057.866211 
	C2339.921143,1056.696655 2335.988770,1057.467285 2332.000000,1057.000000 
"/>
<path fill="none" opacity="1.000000" stroke="#000000" stroke-linecap="round" stroke-linejoin="round" stroke-width="4.000000"
	d="
M1707.000000,653.000000 
	C1693.902222,661.938843 1687.542603,678.473877 1692.000000,692.000000 
	C1695.337646,702.128296 1705.627563,707.844971 1719.000000,707.000000 
	C1728.204224,706.418457 1736.823853,698.057800 1737.808105,686.982971 
	C1738.637939,677.644104 1739.079590,668.192932 1732.149292,659.875610 
	C1725.335327,651.698120 1716.661987,653.063660 1708.000000,653.000000 
"/>
<path fill="none" opacity="1.000000" stroke="#000000" stroke-linecap="round" stroke-linejoin="round" stroke-width="4.000000"
	d="
M713.000000,560.000000 
	C701.764771,564.359619 697.988708,579.415405 705.940247,587.062134 
	C711.473022,592.382751 718.686707,592.465881 724.045166,587.044617 
	C728.097778,582.944397 729.617737,570.762390 725.945496,566.042358 
	C723.001953,562.258789 719.353027,559.293945 714.000000,560.000000 
"/>
</svg>