<svg xmlns="http://www.w3.org/2000/svg" viewBox="0 0 24 24" width="100" height="100">
  <path fill="none" stroke="green" stroke-width="1" d="M12 2.25a.75.75 0 0 1 .75.75v9a.75.75 0 0 1-1.5 0V3a.75.75 0 0 1 .75-.75ZM6.166 5.106a.75.75 0 0 1 0 1.06 8.25 8.25 0 1 0 11.668 0 .75.75 0 1 1 1.06-1.06c3.808 3.807 3.808 9.98 0 13.788-3.807 3.808-9.98 3.808-13.788 0-3.808-3.807-3.808-9.98 0-13.788a.75.75 0 0 1 1.06 0Z" stroke-dasharray="65" stroke-dashoffset="65">
    <animate attributeName="stroke-dashoffset" values="65;0;65" keyTimes="0;0.5;1" dur="4s" repeatCount="indefinite"/>
  </path>
</svg>
