<svg version="1.1" id="Layer_1" xmlns="http://www.w3.org/2000/svg" xmlns:xlink="http://www.w3.org/1999/xlink" x="0px" y="0px"
	 width="100%" viewBox="0 0 1024 448" enable-background="new 0 0 1024 448" xml:space="preserve">
<path fill="#000000" opacity="1.000000" stroke="none" 
	d="
M386.380615,230.341919 
	C389.238525,229.078018 391.160370,226.745697 394.271454,226.181213 
	C395.314789,229.104752 393.863281,230.796249 391.944733,232.164062 
	C389.231781,234.098297 386.337799,235.751160 383.175690,236.862000 
	C379.846100,238.031662 376.699097,239.194519 375.527374,243.189575 
	C374.748566,245.845078 371.944702,246.175781 370.144470,245.029785 
	C366.490936,242.703979 363.488556,244.419479 360.258881,245.595856 
	C352.574127,248.394989 349.874542,248.542709 345.482422,246.436783 
	C344.434662,244.864944 348.457245,244.433334 346.325104,242.423676 
	C344.593842,240.791840 343.155762,239.091080 340.394531,239.545166 
	C337.120026,240.083710 333.812256,240.456009 330.505493,240.749451 
	C328.431366,240.933517 326.228149,241.181229 324.409729,238.874420 
	C326.428711,236.969910 328.943512,237.522888 331.016266,237.175308 
	C343.677124,235.052216 356.364960,234.434479 368.978790,237.620346 
	C370.660400,238.045074 372.113770,237.975693 373.722839,237.058838 
	C377.764984,234.755600 381.944489,232.693481 386.380615,230.341919 
M358.926666,239.972290 
	C356.248993,239.378845 353.435486,238.429520 352.268341,242.476318 
	C354.915405,243.452911 357.283173,242.791656 359.565552,242.066727 
	C360.956757,241.624878 360.748535,240.768448 358.926666,239.972290 
z"/>
<path fill="#000000" opacity="1.000000" stroke="none" 
	d="
M730.469971,106.723160 
	C727.491028,108.598541 724.776489,110.045837 720.486267,108.424965 
	C728.729492,101.246452 735.120911,93.102348 744.048096,87.853546 
	C747.096558,86.061195 750.876587,86.688644 754.368225,86.689590 
	C762.172302,86.691711 769.804138,88.115936 777.826782,89.223915 
	C776.660278,92.790245 773.940735,92.992851 771.377197,93.243759 
	C767.173645,93.655212 763.111023,92.644211 759.050842,91.738968 
	C757.267395,91.341347 754.182861,90.163559 753.903809,90.639229 
	C750.406494,96.600960 741.963684,92.574211 738.428162,98.707596 
	C736.667969,101.761124 733.371399,103.929031 730.469971,106.723160 
z"/>
<path fill="#000000" opacity="1.000000" stroke="none" 
	d="
M708.622559,168.367249 
	C711.690918,171.078720 715.222839,172.786224 717.311096,176.235229 
	C713.438171,177.266190 712.798950,177.003922 707.614929,172.244766 
	C704.939697,169.788818 702.301941,167.292145 699.491333,164.668335 
	C697.037476,166.727264 695.052734,169.006073 691.466064,167.771133 
	C689.626160,167.137619 688.870605,169.457703 687.954590,170.773209 
	C685.576050,174.188904 683.265930,177.678787 679.938049,180.258194 
	C678.292969,181.533234 676.593689,183.072083 673.765076,182.171783 
	C674.699158,175.867172 679.310608,171.797531 682.751404,167.127319 
	C687.374390,160.852631 692.655457,158.859512 698.410217,160.753769 
	C702.545105,162.114838 705.095154,165.598785 708.622559,168.367249 
z"/>
<path fill="#000000" opacity="1.000000" stroke="none" 
	d="
M442.726624,139.127808 
	C449.913300,132.606659 456.363251,124.683052 467.661285,126.690338 
	C469.694794,127.051620 471.544250,127.809982 473.121368,128.987228 
	C478.054321,132.669434 480.255737,138.695206 485.923126,142.303360 
	C482.300354,144.045364 481.062805,142.169907 479.772461,140.779465 
	C477.852295,138.710388 476.175476,136.413773 474.233521,134.367310 
	C472.978058,133.044250 471.434753,131.729401 469.427185,132.992615 
	C467.210510,134.387421 465.166656,134.533524 462.980743,132.917740 
	C461.247192,131.636337 459.870361,132.952408 458.480621,133.831863 
	C455.115540,135.961365 451.921906,138.403854 448.009399,139.531662 
	C446.277283,140.030960 444.549377,140.936630 442.726624,139.127808 
z"/>
<path fill="#000000" opacity="1.000000" stroke="none" 
	d="
M554.790466,122.958633 
	C554.073853,120.245781 553.493835,117.892365 552.913818,115.538948 
	C553.272949,115.351471 553.632019,115.163986 553.991150,114.976509 
	C557.230225,119.034012 560.861694,122.847092 563.588074,127.223976 
	C565.896912,130.930450 568.683105,132.051865 572.712280,131.596451 
	C577.607544,131.043137 582.356750,129.916016 587.172607,128.321289 
	C586.744385,132.216370 583.615417,132.869141 580.994629,133.105408 
	C575.434570,133.606628 570.333557,134.740311 565.611816,138.046448 
	C562.450378,140.260025 559.115662,138.824173 556.761475,136.025101 
	C554.687866,133.559601 554.680969,131.612854 559.264343,132.078964 
	C557.679993,128.878815 556.303528,126.098442 554.790466,122.958633 
z"/>
<path fill="#000000" opacity="1.000000" stroke="none" 
	d="
M653.607178,219.233215 
	C654.949341,221.330765 654.998596,221.394608 653.406677,222.622482 
	C649.732117,225.456726 645.250977,226.261765 640.907959,227.314331 
	C637.222473,228.207489 633.631592,228.590073 631.009888,232.212891 
	C629.157288,234.772949 625.455872,234.138077 624.383972,231.328995 
	C621.978027,225.024094 616.208496,223.488129 611.304260,220.568176 
	C609.186768,219.307449 606.302856,218.764496 605.179199,214.549820 
	C612.247559,217.996750 618.496033,220.866974 624.559814,224.085358 
	C627.090027,225.428299 629.289612,225.878510 632.107971,225.037613 
	C639.111450,222.948059 646.216919,221.200211 653.607178,219.233215 
z"/>
<path fill="#000000" opacity="1.000000" stroke="none" 
	d="
M462.041199,256.529602 
	C472.218506,259.640472 480.867493,254.149506 490.071228,252.897934 
	C492.245056,252.602325 494.252899,250.675491 496.870483,252.270569 
	C496.556366,254.978333 494.715942,256.381226 492.461121,257.034149 
	C489.126831,257.999664 485.714569,258.933350 482.278473,259.238586 
	C479.260681,259.506653 476.840942,260.027954 475.192291,262.871979 
	C473.552765,265.700287 470.702362,265.775482 468.944672,263.600647 
	C465.881470,259.810516 461.961884,260.432587 458.048401,260.327667 
	C454.115784,260.222229 450.134827,260.226044 447.121826,255.800323 
	C452.419189,254.892365 456.986786,257.553253 462.041199,256.529602 
z"/>
<path fill="#000000" opacity="1.000000" stroke="none" 
	d="
M597.903320,174.032883 
	C599.758423,170.191635 601.928467,167.765472 606.432495,168.138474 
	C611.299744,168.541565 614.642761,170.600769 616.246887,175.203293 
	C617.294006,178.207611 619.208618,181.027542 618.736633,184.846024 
	C615.445801,183.079559 615.344177,179.676178 613.659363,177.345871 
	C611.149719,173.874634 604.352234,174.132629 602.377075,178.003006 
	C600.791504,181.110107 599.390991,184.314636 597.729065,187.378708 
	C596.724243,189.231262 595.535645,191.080750 592.512817,191.775879 
	C592.321289,185.107391 595.829102,179.957565 597.903320,174.032883 
z"/>
<path fill="#000000" opacity="1.000000" stroke="none" 
	d="
M468.086731,238.282501 
	C464.524841,237.203003 461.307983,236.337982 458.253387,235.079269 
	C454.948914,233.717621 451.948334,232.243912 448.586792,235.197784 
	C446.822906,236.747742 444.656464,235.835327 443.354797,234.074707 
	C440.999969,230.889709 437.791565,230.439667 434.149750,230.215515 
	C429.572144,229.933792 424.556396,230.232956 420.625031,224.732483 
	C439.149323,226.760544 456.305298,229.728546 472.964630,235.807358 
	C471.865112,238.401108 470.136810,238.257492 468.086731,238.282501 
z"/>
<path fill="#000000" opacity="1.000000" stroke="none" 
	d="
M283.557068,272.570923 
	C279.711945,268.555847 274.854553,269.030334 270.343689,268.342102 
	C266.883698,267.814209 263.274048,267.449829 261.445496,263.253571 
	C277.635834,267.927124 293.408142,264.661560 309.077118,260.646149 
	C309.734131,264.587036 307.732666,265.407837 305.915436,266.019073 
	C303.730774,266.753845 301.404083,267.060944 299.146027,267.584076 
	C294.774414,268.596832 289.727020,267.812378 286.721558,272.478943 
	C286.226288,273.247925 284.894012,273.101166 283.557068,272.570923 
z"/>
<path fill="#000000" opacity="1.000000" stroke="none" 
	d="
M387.636597,274.663544 
	C385.413391,275.855713 383.604095,276.805542 382.411102,278.871460 
	C379.932037,283.164459 375.147522,283.337128 373.274567,278.754028 
	C371.768188,275.067841 369.045685,274.005341 366.168030,272.567749 
	C363.390289,271.180084 360.415100,270.063843 358.939087,267.099304 
	C360.197357,265.343140 361.185547,266.437714 362.118347,266.919434 
	C366.400635,269.130890 370.705872,271.304596 374.909241,273.658997 
	C376.760345,274.695862 378.286652,274.505585 380.035492,273.520081 
	C384.960144,270.744965 390.204193,268.517242 394.527924,264.733002 
	C395.603180,263.791870 396.700897,262.558624 399.224487,263.494598 
	C398.210846,270.017456 392.733978,271.922699 387.636597,274.663544 
z"/>
<path fill="#000000" opacity="1.000000" stroke="none" 
	d="
M557.712097,292.847504 
	C555.150818,296.912933 551.454346,297.621216 550.056641,294.133820 
	C547.709106,288.276733 542.668701,285.862701 538.184448,282.575439 
	C537.297302,281.925140 536.220337,281.362457 536.369751,279.286896 
	C542.384583,281.571869 547.351318,285.066284 552.648010,288.351349 
	C558.303101,283.340668 563.908386,278.374176 570.015259,272.963196 
	C571.514709,277.631104 568.766724,279.406250 567.037231,281.642517 
	C564.131104,285.400208 558.983826,287.247711 557.712097,292.847504 
z"/>
<path fill="#000000" opacity="1.000000" stroke="none" 
	d="
M153.952026,261.114258 
	C153.385971,261.156860 153.172501,261.208954 153.060165,261.125305 
	C146.518890,256.253235 138.730515,255.192490 131.023163,253.862152 
	C130.589874,253.787369 130.222061,253.333450 129.703629,252.972260 
	C132.920654,251.579239 133.712631,251.166550 141.234314,253.018768 
	C147.493881,254.560211 152.025955,254.541916 155.095688,247.610245 
	C157.111588,243.058258 160.748062,239.223938 163.857285,234.784836 
	C166.280472,237.267197 165.531418,239.346771 164.632095,241.242538 
	C161.824127,247.161652 156.796371,252.049713 156.479797,259.143066 
	C156.437378,260.093475 155.366806,260.748779 153.952026,261.114258 
z"/>
<path fill="#000000" opacity="1.000000" stroke="none" 
	d="
M394.506653,181.390015 
	C397.135773,180.463028 397.804382,179.119049 396.914551,176.671951 
	C395.835327,173.703873 394.659973,170.817612 393.088715,168.066650 
	C392.067719,166.279053 390.965332,164.358032 392.574677,161.111374 
	C396.541626,165.768219 400.659607,169.577713 402.198822,175.077896 
	C403.299500,179.010925 405.217560,179.958984 409.088287,179.229492 
	C412.513184,178.584000 416.207153,178.019028 419.681671,180.259552 
	C417.756531,182.169388 415.513428,182.061462 413.437225,182.059326 
	C409.868988,182.055664 406.718445,182.690308 403.674927,184.886993 
	C399.907837,187.605942 396.779510,186.314667 394.506653,181.390015 
z"/>
<path fill="#000000" opacity="1.000000" stroke="none" 
	d="
M732.197388,237.050262 
	C736.845032,234.655869 740.454285,230.614487 746.154114,231.916382 
	C753.408569,233.573395 756.069946,236.851151 755.235107,244.211884 
	C754.896362,247.198471 754.882019,250.494720 752.164185,253.077560 
	C749.287231,250.535339 750.663757,247.248596 750.085754,244.558899 
	C749.350403,241.137146 748.038513,240.097794 744.502930,239.071487 
	C738.615112,237.362366 733.776978,239.020676 728.275635,241.990341 
	C728.661133,238.790161 730.626404,238.317047 732.197388,237.050262 
z"/>
<path fill="#000000" opacity="1.000000" stroke="none" 
	d="
M400.330017,337.239502 
	C394.841827,336.248688 389.725708,335.380981 384.609589,334.513245 
	C386.993561,332.153381 389.494476,332.157928 391.996552,332.537933 
	C395.754425,333.108704 399.503082,333.757019 403.233124,334.487457 
	C405.271393,334.886566 406.628967,334.116882 408.065521,332.725342 
	C411.633057,329.269531 415.349365,325.963440 419.084869,322.687225 
	C420.148071,321.754761 421.149506,320.438141 423.190369,320.829010 
	C424.260559,323.884552 421.903503,325.551453 420.347870,327.490814 
	C416.896759,331.793182 411.220642,333.998840 409.444031,340.028168 
	C408.716766,342.496338 405.828003,341.836578 403.906647,340.433746 
	C402.722351,339.569031 401.762634,338.396759 400.330017,337.239502 
z"/>
<path fill="#000000" opacity="1.000000" stroke="none" 
	d="
M41.473343,337.460754 
	C39.299839,336.336456 37.217564,335.639008 35.744041,332.845490 
	C50.955444,335.625610 63.107773,344.949829 77.819748,347.676849 
	C76.959747,350.092377 75.050903,350.355316 73.096588,349.889252 
	C70.690269,349.315399 68.331581,348.475861 66.023872,347.569061 
	C61.972519,345.977051 58.085243,345.017487 53.484856,345.803314 
	C50.277225,346.351257 45.062916,347.285004 45.474598,340.586151 
	C45.579357,338.881378 43.203888,338.416626 41.473343,337.460754 
z"/>
<path fill="#000000" opacity="1.000000" stroke="none" 
	d="
M822.401489,212.731720 
	C818.290771,211.396240 815.082764,208.245575 810.400757,210.547775 
	C808.591492,211.437469 804.869202,209.872589 804.427368,207.968674 
	C803.261780,202.946289 798.779114,202.460037 795.659790,200.109131 
	C795.219299,199.777130 795.064636,199.065796 794.460510,197.937881 
	C809.259644,200.608627 821.237244,207.897339 833.670959,215.538834 
	C828.987488,217.291168 826.223511,213.642578 822.401489,212.731720 
z"/>
<path fill="#000000" opacity="1.000000" stroke="none" 
	d="
M861.198242,113.656441 
	C859.201721,108.480659 856.782654,104.683907 850.703186,104.202339 
	C848.377441,104.018097 846.632263,104.052544 844.709167,105.212463 
	C842.390015,106.611275 840.208313,108.614502 836.939636,107.972107 
	C840.168274,102.122772 851.246460,97.178360 857.001343,98.872406 
	C857.897705,99.136269 858.799011,99.746346 859.447021,100.433144 
	C864.159973,105.428566 864.635864,111.807953 866.036621,119.096016 
	C863.092712,117.456703 862.442993,115.531700 861.198242,113.656441 
z"/>
<path fill="#000000" opacity="1.000000" stroke="none" 
	d="
M946.277100,126.022278 
	C946.948853,124.400284 948.982788,125.121460 949.390930,123.506516 
	C948.368774,117.848976 942.741516,114.312286 942.524414,108.092018 
	C946.531128,111.710052 951.193176,114.595543 953.459290,119.707207 
	C954.772888,122.670273 956.310669,123.675308 959.596252,122.198639 
	C962.813782,120.752525 966.374268,120.069405 969.926453,119.008949 
	C970.206909,121.696121 968.347412,121.791618 967.127869,122.244179 
	C963.405640,123.625481 959.825439,124.872017 957.030640,128.160965 
	C954.527283,131.106918 949.699890,129.998199 946.277100,126.022278 
z"/>
<path fill="#000000" opacity="1.000000" stroke="none" 
	d="
M787.158813,149.268646 
	C789.669495,152.839981 793.481384,152.531555 796.710022,153.340073 
	C799.877502,154.133255 801.379761,156.245026 802.480042,158.927017 
	C802.913879,159.984497 803.415833,161.209442 802.159058,162.068680 
	C801.058044,162.821442 799.711914,162.649063 799.000549,161.672913 
	C796.179993,157.802582 793.164917,157.016373 789.080566,160.025040 
	C787.763550,160.995300 785.906433,159.882477 784.698059,158.460175 
	C787.730225,148.887772 777.096863,153.416351 774.648499,148.302902 
	C778.941956,147.160812 782.896423,147.398651 787.158813,149.268646 
z"/>
<path fill="#000000" opacity="1.000000" stroke="none" 
	d="
M941.029785,177.197601 
	C938.086060,176.394653 935.541809,175.645874 933.013367,174.847046 
	C930.139587,173.939117 927.384583,173.120087 924.429932,174.937729 
	C921.459778,176.764938 917.985413,175.129028 916.879883,173.082535 
	C914.513428,168.701874 910.223267,167.437439 906.745300,164.859055 
	C905.775269,164.139893 904.252625,163.626083 904.948914,161.387238 
	C918.143311,166.831451 930.982178,173.299484 945.783142,174.215973 
	C945.016235,176.814133 943.207581,176.993820 941.029785,177.197601 
z"/>
<path fill="#000000" opacity="1.000000" stroke="none" 
	d="
M206.453400,318.932556 
	C209.388748,321.180725 211.509506,320.717651 214.173859,318.666931 
	C216.763229,316.673889 219.568253,314.416504 223.249512,314.310455 
	C224.004440,316.762482 222.226532,317.574249 221.083206,318.579468 
	C218.596878,320.765472 216.321274,322.792969 215.177628,326.281250 
	C213.848373,330.335724 207.281815,330.534424 206.219223,326.422516 
	C204.707611,320.573059 200.455933,320.371613 196.275375,319.214508 
	C195.333496,318.953827 194.306747,318.808258 193.692642,317.124237 
	C198.141113,316.299835 202.046738,318.344543 206.453400,318.932556 
z"/>
<path fill="#000000" opacity="1.000000" stroke="none" 
	d="
M573.056030,203.867538 
	C577.013306,206.243576 580.665527,208.419937 584.982727,210.992523 
	C581.197327,212.258850 578.824036,210.742599 576.310364,209.257660 
	C572.344360,206.914780 569.039368,204.560959 563.310425,205.018036 
	C558.090698,205.434494 552.392334,204.336105 546.826294,205.093475 
	C545.368652,205.291809 543.525513,204.911224 542.163208,202.508835 
	C552.722107,200.308609 562.819580,196.914597 573.056030,203.867538 
z"/>
<path fill="#000000" opacity="1.000000" stroke="none" 
	d="
M110.762695,306.922729 
	C109.234291,307.499756 108.052643,308.277893 106.703415,307.508484 
	C108.064224,302.783234 118.267365,295.645081 123.441597,295.689636 
	C129.380295,295.740753 134.131180,301.085052 136.927338,311.123962 
	C134.060318,311.227570 133.223984,308.829010 132.443604,307.235291 
	C129.959320,302.161713 125.449310,300.858276 120.533318,299.987823 
	C118.724358,299.667542 117.855087,300.981079 116.748039,301.924744 
	C114.859116,303.534882 112.970245,305.145111 110.762695,306.922729 
z"/>
<path fill="#000000" opacity="1.000000" stroke="none" 
	d="
M338.073090,328.819458 
	C343.086823,326.087891 348.167847,325.342865 353.366394,325.824310 
	C356.982330,326.159149 360.034424,327.581696 360.131836,331.861725 
	C358.902222,332.918823 357.799042,332.631775 357.158020,331.921204 
	C354.615784,329.103058 352.410522,328.723877 350.103363,332.222351 
	C349.685638,332.855774 347.977814,333.417603 347.460175,333.085571 
	C342.243713,329.739288 338.357330,333.056824 334.257904,335.465607 
	C333.988342,335.623993 333.614166,335.684540 333.298340,335.660980 
	C332.995819,335.638428 332.705902,335.446960 332.108002,335.209717 
	C332.420074,331.712555 335.667938,330.861450 338.073090,328.819458 
z"/>
<path fill="#000000" opacity="1.000000" stroke="none" 
	d="
M210.450287,240.885590 
	C218.162079,236.302658 225.958618,240.119080 233.554398,239.842560 
	C236.380844,239.739655 238.331604,242.389755 239.027481,245.296478 
	C238.663864,245.704193 238.284241,246.165161 238.262726,246.149017 
	C232.510941,241.831726 224.622665,248.955032 219.070236,242.418213 
	C217.384308,240.433411 214.820480,243.210815 212.584457,243.407654 
	C209.920807,243.642166 209.356750,243.148270 210.450287,240.885590 
z"/>
<path fill="#000000" opacity="1.000000" stroke="none" 
	d="
M540.019897,238.650513 
	C543.025757,237.693375 545.631592,237.575195 548.159058,238.828445 
	C550.061646,239.771820 551.979126,239.646683 553.982605,239.255310 
	C556.881531,238.688950 559.623718,239.223419 561.944641,241.089310 
	C563.093079,242.012619 564.420044,243.345505 563.262024,244.867371 
	C562.078308,246.423004 560.595154,245.555771 559.401184,244.470871 
	C558.553833,243.700974 557.890015,242.669952 556.591675,242.570709 
	C554.977051,242.719131 554.734131,244.294403 553.829468,245.183655 
	C551.583618,247.391296 548.832336,247.940353 547.002808,245.189575 
	C544.408752,241.289276 541.274658,240.723907 537.237610,242.096725 
	C536.459106,242.361450 535.591614,242.288467 534.875610,241.499954 
	C535.516174,239.002899 538.094971,239.725540 540.019897,238.650513 
z"/>
<path fill="#000000" opacity="1.000000" stroke="none" 
	d="
M628.527710,324.632568 
	C626.525208,329.473145 624.112915,330.542725 621.895691,327.339508 
	C619.359009,323.674744 616.855713,320.503052 612.089294,319.588348 
	C615.532349,318.241547 618.568909,318.315460 621.246277,320.374542 
	C623.215149,321.888824 624.503845,321.670929 626.276917,319.844849 
	C629.780029,316.236969 634.550842,314.781525 639.601257,312.322113 
	C639.621765,315.686279 637.410461,316.196350 636.110291,317.385101 
	C633.607117,319.673676 629.713928,320.447571 628.527710,324.632568 
z"/>
<path fill="#000000" opacity="1.000000" stroke="none" 
	d="
M278.144775,176.863953 
	C282.099182,174.565155 286.137726,173.866425 290.417572,173.133240 
	C290.664307,175.272995 289.104645,175.870148 287.970459,176.493332 
	C284.345551,178.485062 280.991150,180.377441 279.024261,184.558533 
	C277.705353,187.362259 274.522827,187.040604 272.366241,184.614929 
	C270.869446,182.931442 269.699585,180.957336 268.233917,178.903229 
	C271.533417,176.761475 275.607758,181.666214 278.144775,176.863953 
z"/>
</svg>