<svg xmlns="http://www.w3.org/2000/svg" xml:space="preserve" viewBox="0 0 1330 982">
  <path fill="#DDDBE5" d="M850 794c-118.3289 0-236.1578.1017-353.9865-.0498-47.4475-.061-92.863-9.8928-135.9792-29.913-3.6192-1.6804-7.335-3.174-10.8555-5.0387-2.604-1.3793-4.2182-.794-5.8998 1.4669-19.2503 25.8827-45.2816 41.0435-76.8729 45.1885-34.5758 4.5367-65.6518-4.7553-92.3334-27.9485-22.0867-19.199-34.7685-43.4919-38.762-72.0455-3.7238-26.6244 1.8558-51.7834 15.5805-75.0572 10.2832-17.4377 24.4782-30.861 40.9887-40.713-5.1348-17.7172-11.0023-34.8673-14.9316-52.4505-3.4505-15.4403-4.9312-31.341-6.8749-47.0886-.8715-7.061-.9122-14.2417-1.0502-21.3735-.7432-38.4026 5.7381-75.627 18.399-111.8358 11.8476-33.8832 28.7875-64.9899 51.0874-93.1061 27.263-34.3737 59.863-62.5015 98.2185-84.0194 33.9928-19.0704 70.2079-31.5815 108.585-37.7563 11.5789-1.863 23.3956-3.1064 35.1087-3.1473 148.956-.5207 297.9133-1.0038 446.8699-.8926 29.8976.0223 59.3444 5.2068 88.0824 13.959 33.032 10.0597 63.9048 24.602 91.9894 44.645 12.3932 8.8447 24.0908 18.7362 35.5982 28.735 25.4598 22.122 45.6852 48.6359 62.4693 77.708 16.719 28.959 28.8241 59.8696 35.4436 92.7038 2.7406 13.5942 4.4444 27.4235 6.0483 41.2123 1.1667 10.03 2.0758 20.1828 1.8707 30.2558-.2559 12.5651-1.6791 25.1127-2.769 37.653-1.8752 21.5796-6.9124 42.526-13.667 63.0203-12.503 37.9357-31.3038 72.4727-56.4344 103.616-26.8419 33.2642-58.9016 60.1417-96.1864 81.0055-31.3406 17.5375-64.7336 29.295-99.8887 35.9485-12.482 2.3623-25.2775 3.8026-37.9724 4.1611-30.4452.8598-60.9155.8287-91.8757 1.1571m58.7288-387.827c-32.0546 15.3828-50.2718 51.4605-45.969 85.0685 5.628 43.96 47.4019 77.7174 91.4903 71.8955 20.7791-2.744 38.3996-11.183 52.2634-27.0573 18.1058-20.7312 24.793-44.553 19.6175-71.7094-10.0174-52.5629-68.623-81.9775-117.4022-58.1972M758.1041 548.6165c24.3559-18.0227 36.4224-41.9556 35.013-72.4572-1.0802-23.3781-10.7704-42.5073-28.219-57.862-17.988-15.8291-39.2776-22.6795-62.7503-19.992-30.6036 3.5038-53.1306 19.631-66.684 47.6227-14.396 29.7323-8.3477 68.2047 14.8397 91.7332 19.3046 19.5885 42.6638 28.624 70.355 25.3862 13.483-1.5765 25.7767-6.1875 37.4456-14.4309m-323.6716 2.4248c16.878 9.9605 34.7209 14.7483 54.5732 12.0363 51.2327-6.9986 86.4978-58.928 66.5791-112.1833-14.3261-38.3029-54.5708-60.5328-96.7955-50.6426-45.6493 10.6924-72.0618 57.674-61.0333 100.2328 5.5398 21.378 17.6265 38.0684 36.6765 50.5568zM44.8676 826.2938c-1.6053-9.744.35-18.6032 4.052-27.0032 12.8767-29.2187 44.9273-42.3 74.389-29.9316 18.5431 7.7847 33.4445 27.4169 33.8892 49.9093.327 16.5321-5.058 30.5755-16.3097 41.9249-9.092 9.171-20.3723 14.7184-33.8816 16.092-13.9633 1.4198-26.4427-1.5418-37.7059-9.2409-14.4294-9.8634-23.056-23.5234-24.433-41.7505z"/>
  <path fill="#A5A3AC" d="M909.075 406.0248c48.433-23.632 107.0386 5.7826 117.056 58.3455 5.1755 27.1564-1.5117 50.9782-19.6175 71.7094-13.8638 15.8743-31.4843 24.3134-52.2634 27.0573-44.0884 5.822-85.8622-27.9356-91.4903-71.8955-4.3028-33.608 13.9144-69.6857 46.3152-85.2167zM757.8218 548.8389c-11.3866 8.021-23.6803 12.632-37.1634 14.2085-27.6911 3.2378-51.0503-5.7977-70.355-25.3862-23.1873-23.5285-29.2355-62.0009-14.8395-91.7332 13.5533-27.9918 36.0803-44.1189 66.6839-47.6228 23.4727-2.6874 44.7623 4.163 62.7503 19.9922 17.4486 15.3546 27.1388 34.4838 28.219 57.862 1.4094 30.5015-10.6571 54.4344-35.2953 72.6795z"/>
  <path fill="#67656E" d="M434.117 550.866c-18.7345-12.313-30.8212-29.0035-36.361-50.3815-11.0285-42.5588 15.384-89.5404 61.0333-100.2328 42.2247-9.8902 82.4694 12.3397 96.7955 50.6426 19.9187 53.2553-15.3464 105.1847-66.5791 112.1833-19.8523 2.712-37.6952-2.0758-54.8886-12.2116m27.7738-148.7005c-18.2012 4.1947-33.291 13.2738-45.3877 27.6903-21.833 26.02-25.0291 62.6156-7.267 91.4857 17.9538 29.182 44.7642 42.9487 79.6529 38.7325 24.0865-2.9107 42.6259-15.0222 56.1329-34.7391 10.543-15.3902 14.588-32.579 13.1284-51.3705-1.861-23.957-13.0285-42.5229-31.42-57.0381-18.8877-14.9068-40.6719-18.4674-64.8395-14.7608z"/>
  <path fill="#7B7981" d="M462.3151 402.0975c23.7434-3.6386 45.5276-.078 64.4153 14.8288 18.3915 14.5152 29.559 33.081 31.42 57.0381 1.4596 18.7914-2.5855 35.9803-13.1284 51.3705-13.507 19.717-32.0464 31.8284-56.133 34.7391-34.8886 4.2162-61.699-9.5506-79.6529-38.7325-17.762-28.8701-14.5659-65.4657 7.2671-91.4857 12.0967-14.4165 27.1865-23.4956 45.812-27.7583z"/>
</svg>
