<svg version="1.1" id="Layer_1" xmlns="http://www.w3.org/2000/svg" xmlns:xlink="http://www.w3.org/1999/xlink" x="0px" y="0px"
	 width="100%" viewBox="0 0 330 330" enable-background="new 0 0 330 330" xml:space="preserve">
<path fill="#FFFFFF" opacity="1.000000" stroke="none" 
	d="
M331.000000,123.000000 
	C331.000000,192.640472 331.000000,261.780945 331.000000,330.960693 
	C221.067871,330.960693 111.135719,330.960693 1.101783,330.960693 
	C1.101783,221.109604 1.101783,111.219070 1.101783,1.164273 
	C110.999802,1.164273 220.999878,1.164273 331.000000,1.164273 
	C331.000000,41.530857 331.000000,82.015427 331.000000,123.000000 
M241.004593,141.855011 
	C241.004593,144.790985 241.004593,147.726974 241.004593,150.638504 
	C247.939621,150.638504 254.443359,150.638504 260.649536,150.638504 
	C260.649536,147.210052 260.649536,144.147781 260.649536,141.068573 
	C253.839615,141.068573 247.379974,141.068573 240.994354,140.125504 
	C240.994354,133.875336 240.994354,127.625183 240.994354,121.191727 
	C237.542435,121.191727 234.485016,121.191727 231.068420,121.191727 
	C231.068420,127.925270 231.068420,134.502380 230.141632,141.005737 
	C227.211548,141.005737 224.281448,141.005737 220.855408,141.005737 
	C220.855408,134.088638 220.855408,127.574028 220.855408,121.075920 
	C217.205536,121.075920 214.068268,121.075920 210.995102,120.130623 
	C210.995102,107.116219 210.995102,94.101822 210.995102,81.069130 
	C207.207565,81.069130 204.065842,81.069130 200.994507,80.142334 
	C200.994507,77.207573 200.994507,74.272812 200.994507,70.985367 
	C204.480576,70.985367 207.547836,70.985367 210.651932,70.985367 
	C210.651932,67.427055 210.651932,64.250999 210.651932,60.716537 
	C207.231934,60.716537 204.161697,60.716537 200.926697,60.716537 
	C200.926697,57.212753 200.926697,54.075043 201.854691,50.995403 
	C204.787415,50.995403 207.720154,50.995403 210.638428,50.995403 
	C210.638428,47.399719 210.638428,44.227013 210.638428,41.334068 
	C207.208176,41.334068 204.143768,41.334068 201.068634,41.334068 
	C201.068634,44.805202 201.068634,47.942375 200.125549,51.005634 
	C193.854752,51.005634 187.583939,51.005634 180.939484,51.005634 
	C180.939484,47.478382 180.939484,44.393333 180.939484,41.217422 
	C177.481842,41.217422 174.411285,41.217422 170.959167,41.217422 
	C170.959167,44.501434 170.959167,47.576263 170.959167,51.024345 
	C164.177811,51.024345 157.768051,51.024345 150.989441,51.024345 
	C150.989441,54.475456 150.989441,57.550812 150.989441,60.807304 
	C147.536194,60.807304 144.467682,60.807304 140.840057,60.807304 
	C140.840057,54.100281 140.840057,47.566025 140.840057,41.354145 
	C137.201950,41.354145 134.128036,41.354145 130.686111,41.354145 
	C130.686111,44.789032 130.686111,47.864838 130.686111,51.304329 
	C127.220993,51.304329 124.144585,51.304329 121.339890,51.304329 
	C121.339890,54.772984 121.339890,57.845314 121.339890,61.285301 
	C124.758980,61.285301 127.836548,61.285301 130.669617,61.285301 
	C130.669617,64.750168 130.669617,67.824272 130.669617,71.266312 
	C127.261902,71.266312 124.183426,71.266312 121.325119,71.266312 
	C121.325119,74.727829 121.325119,77.798401 121.325119,80.924179 
	C128.122864,80.924179 134.595917,80.924179 141.004898,81.869461 
	C141.004898,91.554321 141.004898,101.239189 141.004898,110.924133 
	C144.794815,110.924133 147.931992,110.924133 151.005005,111.844559 
	C151.026382,114.921661 151.047760,117.998764 150.125458,121.005363 
	C133.882492,121.005363 117.639526,121.005363 101.199730,121.005363 
	C101.199730,124.449875 101.199730,127.514755 101.199730,131.126297 
	C111.200394,131.126297 121.051453,131.126297 130.688690,131.126297 
	C130.688690,138.078674 130.688690,144.482651 130.688690,151.073547 
	C127.231102,151.073547 124.084106,151.073547 120.995399,150.145172 
	C120.995399,147.209183 120.995399,144.273193 120.995399,141.361359 
	C114.060493,141.361359 107.556717,141.361359 101.350342,141.361359 
	C101.350342,144.789688 101.350342,147.851974 101.350342,150.931671 
	C108.160133,150.931671 114.619728,150.931671 121.005730,151.858444 
	C121.005730,154.793594 121.005730,157.728745 121.005730,161.181915 
	C114.068161,161.181915 107.548775,161.181915 101.342529,161.181915 
	C101.342529,164.789429 101.342529,167.856400 101.342529,171.276535 
	C104.758217,171.276535 107.831276,171.276535 111.075905,171.276535 
	C111.075905,174.787445 111.075905,177.928268 110.147606,181.005005 
	C107.112938,181.005005 104.078270,181.005005 101.069107,181.005005 
	C101.069107,184.836929 101.069107,187.956375 100.152870,191.005493 
	C97.141846,190.960968 94.130829,190.916428 91.008408,189.956604 
	C91.008408,180.357986 91.008408,170.759354 91.008408,161.301666 
	C87.316589,161.301666 84.237045,161.301666 80.780930,161.301666 
	C80.780930,164.680710 80.780930,167.758209 80.780930,170.697662 
	C73.966919,170.697662 67.551620,170.697662 60.926353,170.697662 
	C60.926353,167.243210 60.926353,164.090118 61.854465,160.995377 
	C64.799690,160.995377 67.744919,160.995377 71.058731,160.995377 
	C71.058731,157.483475 71.058731,154.401917 71.058731,150.956070 
	C77.843491,150.956070 84.254082,150.956070 90.790695,150.956070 
	C90.790695,147.497482 90.790695,144.427872 90.790695,140.975189 
	C87.512772,140.975189 84.435181,140.975189 81.201294,140.975189 
	C81.201294,137.517365 81.201294,134.446472 81.201294,130.991119 
	C84.470459,130.991119 87.548042,130.991119 90.806793,130.991119 
	C90.806793,127.536308 90.806793,124.467300 90.806793,121.339111 
	C74.101753,121.339111 57.592106,121.339111 41.342384,121.339111 
	C41.342384,124.759354 41.342384,127.829666 41.342384,131.272491 
	C48.085796,131.272491 54.489594,131.272491 61.068237,131.272491 
	C61.068237,141.469345 61.068237,151.274277 60.125195,161.005615 
	C53.859444,161.005615 47.593693,161.005615 41.360210,161.005615 
	C41.360210,177.951508 41.360210,194.445679 41.360210,210.824005 
	C44.674793,210.824005 47.626820,210.824005 51.112732,210.824005 
	C51.112732,200.804260 51.112732,190.945618 51.112732,181.323608 
	C54.736076,181.323608 57.810703,181.323608 61.248299,181.323608 
	C61.248299,184.726105 61.248299,187.808319 61.248299,190.924149 
	C64.775200,190.924149 67.922127,190.924149 71.005005,191.852600 
	C71.005005,194.792404 71.005005,197.732193 71.005005,201.030731 
	C67.510109,201.030731 64.429832,201.030731 61.190639,201.030731 
	C61.190639,204.471069 61.190639,207.534180 61.190639,210.656769 
	C67.892426,210.656769 74.397766,210.656769 80.931023,210.656769 
	C80.931023,203.850555 80.931023,197.387360 81.862434,190.994583 
	C84.993050,190.902969 88.123657,190.811356 91.019081,191.712479 
	C91.019081,198.118927 91.019081,204.525360 91.019081,211.288361 
	C101.430367,211.288361 111.161224,211.288361 121.263496,211.288361 
	C121.263496,218.070557 121.263496,224.475082 121.263496,230.930969 
	C128.125610,230.930969 134.600723,230.930969 141.005371,231.874329 
	C141.005371,238.145752 141.005371,244.417175 141.005371,250.776627 
	C137.467682,250.776627 134.397568,250.776627 130.947357,250.776627 
	C130.947357,247.483795 130.947357,244.406708 130.947357,241.215302 
	C127.490692,241.215302 124.422134,241.215302 121.362457,241.215302 
	C121.362457,257.935364 121.362457,274.437683 121.362457,290.820312 
	C124.677979,290.820312 127.629532,290.820312 131.132172,290.820312 
	C131.132172,280.797577 131.132172,270.939270 131.132172,260.924133 
	C148.148224,260.924133 164.608658,260.924133 181.005005,261.852417 
	C181.005005,264.887085 181.005005,267.921753 181.005005,270.930939 
	C184.836945,270.930939 187.956390,270.930939 191.005478,271.849243 
	C191.028030,274.920258 191.050568,277.991241 190.128510,281.004456 
	C183.667435,281.096283 177.206345,281.188110 170.980499,280.304047 
	C170.980499,277.231567 170.980499,274.159119 170.980499,271.323273 
	C167.244217,271.323273 164.173340,271.323273 161.068283,271.323273 
	C161.068283,274.790588 161.068283,277.934906 160.141800,281.005707 
	C157.201828,281.005707 154.261856,281.005707 150.962845,281.005707 
	C150.962845,277.498260 150.962845,274.425720 150.962845,271.195312 
	C147.520554,271.195312 144.456955,271.195312 141.349625,271.195312 
	C141.349625,277.903381 141.349625,284.410004 141.349625,290.684448 
	C148.100403,290.684448 154.498886,290.684448 160.926331,290.684448 
	C160.926331,287.225311 160.926331,284.081146 161.843887,280.995361 
	C164.855911,281.039551 167.867935,281.083740 170.991379,282.026550 
	C170.991379,284.931091 170.991379,287.835632 170.991379,290.652313 
	C177.990540,290.652313 184.468307,290.652313 190.931168,290.652313 
	C190.931168,287.176453 190.931168,284.048248 191.874252,280.994354 
	C198.237930,280.994354 204.601608,280.994354 210.931046,280.994354 
	C210.931046,273.818695 210.931046,267.371429 211.874390,260.994659 
	C218.147247,260.994659 224.420120,260.994659 231.067795,260.994659 
	C231.067795,257.467621 231.067795,254.391006 231.067795,251.223145 
	C234.528320,251.223145 237.600113,251.223145 241.053238,251.223145 
	C241.053238,254.516479 241.053238,257.594330 241.053238,261.046631 
	C244.509567,261.046631 247.587463,261.046631 250.786224,261.046631 
	C250.786224,264.504761 250.786224,267.574005 250.786224,271.022614 
	C240.844025,271.022614 231.106232,271.022614 221.196716,271.022614 
	C221.196716,274.475342 221.196716,277.544861 221.196716,281.000336 
	C224.461334,281.000336 227.539368,281.000336 230.993454,281.000336 
	C230.993454,284.452606 230.993454,287.528931 230.993454,290.660339 
	C251.217285,290.660339 271.053162,290.660339 290.684235,290.660339 
	C290.684235,277.255310 290.684235,264.191467 290.684235,250.756714 
	C287.287079,250.756714 284.204559,250.756714 280.924103,250.756714 
	C280.924103,247.229218 280.924103,244.080063 281.852844,240.994995 
	C284.789246,240.994995 287.725647,240.994995 290.635712,240.994995 
	C290.635712,234.060715 290.635712,227.556473 290.635712,221.068970 
	C280.488983,221.068970 270.706573,221.068970 260.994537,220.150665 
	C260.971954,217.079590 260.949371,214.008499 261.854797,210.995407 
	C264.787506,210.995407 267.720245,210.995407 270.638367,210.995407 
	C270.638367,207.398544 270.638367,204.226730 270.638367,201.334106 
	C267.208069,201.334106 264.143677,201.334106 261.068756,201.334106 
	C261.068756,204.805191 261.068756,207.942429 260.141937,211.005753 
	C257.206848,211.005753 254.271774,211.005753 251.358063,211.005753 
	C251.358063,204.060654 251.358063,197.557144 251.358063,190.686218 
	C254.782837,190.686218 257.847534,190.686218 260.926819,190.686218 
	C260.926819,183.850250 260.926819,177.393829 261.855103,170.995407 
	C264.798920,170.995407 267.742737,170.995407 271.054779,170.995407 
	C271.054779,177.853363 271.054779,184.265671 271.054779,191.047363 
	C274.511963,191.047363 277.588654,191.047363 281.040100,191.047363 
	C281.040100,194.502777 281.040100,197.580826 281.040100,200.789398 
	C284.498169,200.789398 287.567535,200.789398 290.794464,200.789398 
	C290.794464,194.175858 290.794464,187.773804 290.794464,180.986450 
	C287.521973,180.986450 284.445465,180.986450 281.196716,180.986450 
	C281.196716,177.528366 281.196716,174.457001 281.196716,170.999649 
	C284.459564,170.999649 287.535889,170.999649 290.642731,170.999649 
	C290.642731,160.759140 290.642731,150.908707 290.642731,140.856018 
	C287.330597,140.856018 284.376526,140.856018 280.869843,140.856018 
	C280.869843,134.125717 280.869843,127.583382 280.869843,121.348999 
	C277.229492,121.348999 274.159119,121.348999 271.329041,121.348999 
	C271.329041,131.434921 271.329041,141.169800 271.329041,151.274231 
	C274.739319,151.274231 277.819885,151.274231 280.670776,151.274231 
	C280.670776,154.733337 280.670776,157.804657 280.670776,161.240326 
	C273.932404,161.240326 267.518524,161.240326 261.068756,161.240326 
	C261.068756,164.776596 261.068756,167.928116 260.150330,171.005768 
	C257.077209,171.029129 254.004074,171.052490 250.994995,170.147400 
	C250.994995,167.219742 250.994995,164.292099 250.994995,161.340485 
	C247.419113,161.340485 244.246857,161.340485 241.069107,161.340485 
	C241.069107,164.812531 241.069107,167.944168 240.150391,171.005447 
	C237.077271,170.976959 234.004150,170.948471 230.999741,170.993332 
	C230.999741,170.993332 231.072968,171.062164 231.005142,170.119186 
	C230.978943,160.391861 230.952744,150.664551 231.846146,140.995407 
	C234.918289,140.972504 237.990433,140.949600 241.004593,141.855011 
M57.501823,111.000000 
	C75.262970,111.000000 93.024117,111.000000 110.713577,111.000000 
	C110.713577,87.356750 110.713577,64.287247 110.713577,41.286541 
	C87.356522,41.286541 64.287018,41.286541 41.286655,41.286541 
	C41.286655,64.643707 41.286655,87.713219 41.286655,111.000000 
	C46.548100,111.000000 51.525700,111.000000 57.501823,111.000000 
M291.000000,74.500000 
	C291.000000,63.403378 291.000000,52.306755 291.000000,41.286827 
	C267.355774,41.286827 244.286346,41.286827 221.286804,41.286827 
	C221.286804,64.644196 221.286804,87.713608 221.286804,110.713211 
	C244.644165,110.713211 267.713593,110.713211 291.000000,110.713211 
	C291.000000,98.785149 291.000000,87.142570 291.000000,74.500000 
M72.500000,291.000000 
	C85.262695,291.000000 98.025383,291.000000 110.713501,291.000000 
	C110.713501,267.356415 110.713501,244.287003 110.713501,221.286484 
	C87.356461,221.286484 64.287048,221.286484 41.286469,221.286484 
	C41.286469,244.643509 41.286469,267.712921 41.286469,291.000000 
	C51.547657,291.000000 61.523830,291.000000 72.500000,291.000000 
M121.000000,102.474922 
	C121.000000,105.249298 121.000000,108.023682 121.000000,110.720963 
	C124.631706,110.720963 127.705193,110.720963 130.722382,110.720963 
	C130.722382,104.029396 130.722382,97.620071 130.722382,91.281601 
	C127.364166,91.281601 124.289963,91.281601 121.000000,91.281601 
	C121.000000,94.868866 121.000000,98.179039 121.000000,102.474922 
M50.269302,150.942245 
	C50.574993,147.682343 50.880680,144.422424 51.174046,141.293945 
	C47.274624,141.293945 44.222031,141.293945 41.253403,141.293945 
	C41.253403,144.643661 41.253403,147.693253 41.253403,150.996048 
	C44.107788,150.996048 46.711933,150.996048 50.269302,150.942245 
M251.717941,130.941513 
	C254.771866,130.941513 257.825806,130.941513 260.720490,130.941513 
	C260.720490,127.303444 260.720490,124.251884 260.720490,121.239899 
	C257.386993,121.239899 254.337921,121.239899 251.056641,121.239899 
	C251.056641,124.406303 251.056641,127.336197 251.717941,130.941513 
z"/>
<path fill="#000000" opacity="1.000000" stroke="none" 
	d="
M181.069092,260.924133 
	C164.608658,260.924133 148.148224,260.924133 131.132172,260.924133 
	C131.132172,270.939270 131.132172,280.797577 131.132172,290.820312 
	C127.629532,290.820312 124.677979,290.820312 121.362457,290.820312 
	C121.362457,274.437683 121.362457,257.935364 121.362457,241.215302 
	C124.422134,241.215302 127.490692,241.215302 130.947357,241.215302 
	C130.947357,244.406708 130.947357,247.483795 130.947357,250.776627 
	C134.397568,250.776627 137.467682,250.776627 141.005371,250.776627 
	C141.005371,244.417175 141.005371,238.145752 141.003891,231.437103 
	C141.002411,230.999893 140.930008,231.069916 141.401855,231.037430 
	C148.274399,230.980286 154.675079,230.955627 161.040619,231.394501 
	C161.005463,234.796204 161.005463,237.734360 161.005463,240.651321 
	C174.598526,240.651321 187.754456,240.651321 200.683212,240.651321 
	C200.683212,233.900208 200.683212,227.500275 200.683212,221.075912 
	C197.221405,221.075912 194.076172,221.075912 190.962967,220.611542 
	C190.994995,217.215561 190.994995,214.283936 190.994995,211.068970 
	C180.701233,211.068970 170.812729,211.068970 160.959381,210.605438 
	C160.994537,207.202774 160.994537,204.263672 160.994537,200.980591 
	C171.157730,200.980591 180.881378,200.980591 190.798126,200.980591 
	C190.798126,197.556000 190.798126,194.492493 190.798126,190.898041 
	C180.805557,190.898041 170.952179,190.898041 161.069992,190.898041 
	C161.069992,187.222626 161.069992,184.076355 161.034988,180.965057 
	C160.999985,181.000015 160.929993,181.069962 161.393646,181.037506 
	C164.783844,181.005051 167.710388,181.005051 170.660339,181.005051 
	C170.660339,177.418930 170.660339,174.247528 170.660339,170.930038 
	C167.190613,170.930038 164.060303,170.930038 160.964996,170.965012 
	C160.999985,170.999985 161.069992,171.069916 161.037521,170.606079 
	C161.005051,167.217270 161.005051,164.292282 161.005051,160.924179 
	C167.950104,160.924179 174.509521,160.924179 181.036911,161.396667 
	C181.004898,168.124741 181.004898,174.380341 181.004898,180.648666 
	C187.932343,180.648666 194.438477,180.648666 200.661087,180.648666 
	C200.661087,177.219101 200.661087,174.151291 200.661087,170.728882 
	C197.248093,170.728882 194.173676,170.728882 190.924194,170.728882 
	C190.924194,167.215057 190.924194,164.073059 191.396698,160.963089 
	C198.119324,160.995102 204.369461,160.995102 210.805664,160.995102 
	C210.805664,157.547897 210.805664,154.490646 210.805664,151.075882 
	C204.082047,151.075882 197.506485,151.075882 190.962982,150.615753 
	C191.020020,147.080414 191.045013,144.005219 191.035019,140.964996 
	C191.000031,140.999969 190.930054,141.069946 191.401978,141.037445 
	C198.237564,141.004959 204.601227,141.004959 211.069946,141.004959 
	C211.069946,133.822708 211.069946,127.376389 211.034943,120.966263 
	C210.999939,121.002472 210.931015,121.075920 210.931015,121.075920 
	C214.068268,121.075920 217.205536,121.075920 220.855408,121.075920 
	C220.855408,127.574028 220.855408,134.088638 220.855408,141.005737 
	C224.281448,141.005737 227.211548,141.005737 230.570679,141.005920 
	C230.999725,141.006119 230.926544,140.937225 230.926544,140.937225 
	C230.952744,150.664551 230.978943,160.391861 230.566833,170.561829 
	C223.864319,171.004486 217.600113,171.004486 211.196930,171.004486 
	C211.196930,181.165421 211.196930,190.883270 211.196930,200.648285 
	C217.914215,200.648285 224.428879,200.648285 230.654419,200.648285 
	C230.654419,197.218216 230.654419,194.144516 230.654419,190.706314 
	C227.232407,190.706314 224.156784,190.706314 221.329971,190.706314 
	C221.329971,187.246613 221.329971,184.174362 221.329971,180.740402 
	C224.737640,180.740402 227.816452,180.740402 230.931030,180.740402 
	C230.931030,177.214752 230.931030,174.067383 230.931030,170.919983 
	C234.004150,170.948471 237.077271,170.976959 240.575256,171.003906 
	C241.000107,171.002380 240.930038,170.929993 240.962494,171.393646 
	C240.994949,174.783844 240.994949,177.710388 240.994949,180.660339 
	C244.581070,180.660339 247.752472,180.660339 251.069962,180.660339 
	C251.069962,177.190613 251.069962,174.060303 251.034943,170.966217 
	C250.999939,171.002426 250.930954,171.075851 250.930954,171.075867 
	C254.004074,171.052490 257.077209,171.029129 260.575195,171.006042 
	C261.000031,171.006317 260.926819,170.937424 260.926819,170.937424 
	C260.926819,177.393829 260.926819,183.850250 260.926819,190.686218 
	C257.847534,190.686218 254.782837,190.686218 251.358063,190.686218 
	C251.358063,197.557144 251.358063,204.060654 251.358063,211.005753 
	C254.271774,211.005753 257.206848,211.005753 260.570984,211.006042 
	C261.000031,211.006317 260.926819,210.937424 260.926819,210.937424 
	C260.949371,214.008499 260.971954,217.079590 260.996063,220.575348 
	C260.997589,221.000046 261.070007,220.930038 260.606354,220.962494 
	C257.216156,220.994949 254.289612,220.994949 251.339661,220.994949 
	C251.339661,224.581070 251.339661,227.752472 251.339661,231.069962 
	C254.809387,231.069962 257.939697,231.069962 261.035004,231.035004 
	C261.000000,231.000031 260.929962,230.930099 260.962463,231.389496 
	C261.021027,234.920120 261.047089,237.991348 260.609192,241.033585 
	C257.212494,241.004593 254.279770,241.004593 251.361633,241.004593 
	C251.361633,244.600357 251.361633,247.773026 251.361633,250.665894 
	C254.795837,250.665894 257.858246,250.665894 260.931244,250.665894 
	C260.931244,247.194809 260.931244,244.057571 261.402710,240.957352 
	C268.272797,241.019547 274.671387,241.044739 281.033783,241.034912 
	C280.997559,240.999908 280.924103,240.930908 280.924103,240.930908 
	C280.924103,244.080063 280.924103,247.229218 280.924103,250.756714 
	C284.204559,250.756714 287.287079,250.756714 290.684235,250.756714 
	C290.684235,264.191467 290.684235,277.255310 290.684235,290.660339 
	C271.053162,290.660339 251.217285,290.660339 230.993454,290.660339 
	C230.993454,287.528931 230.993454,284.452606 230.993454,281.000336 
	C227.539368,281.000336 224.461334,281.000336 221.196716,281.000336 
	C221.196716,277.544861 221.196716,274.475342 221.196716,271.022614 
	C231.106232,271.022614 240.844025,271.022614 250.786224,271.022614 
	C250.786224,267.574005 250.786224,264.504761 250.786224,261.046631 
	C247.587463,261.046631 244.509567,261.046631 241.053238,261.046631 
	C241.053238,257.594330 241.053238,254.516479 241.053238,251.223145 
	C237.600113,251.223145 234.528320,251.223145 231.067795,251.223145 
	C231.067795,254.391006 231.067795,257.467621 231.067795,260.994659 
	C224.420120,260.994659 218.147247,260.994659 211.437164,260.996124 
	C210.999954,260.997589 211.069962,261.070007 211.037506,260.606354 
	C211.005051,257.216156 211.005051,254.289612 211.005051,251.339661 
	C207.418930,251.339661 204.247528,251.339661 200.930038,251.339661 
	C200.930038,254.809387 200.930038,257.939697 200.965027,261.035004 
	C201.000000,261.000000 201.069962,260.929993 200.610367,260.962463 
	C197.077179,260.973297 194.003601,260.951660 190.964996,260.964996 
	C190.999985,261.000000 191.069962,261.070007 191.037506,260.606354 
	C191.005051,257.216156 191.005051,254.289612 191.005051,251.339661 
	C187.418930,251.339661 184.247528,251.339661 180.930038,251.339661 
	C180.930038,254.809387 180.930038,257.939697 180.965057,261.033783 
	C181.000092,260.997559 181.069092,260.924133 181.069092,260.924133 
M218.560425,241.000000 
	C225.986664,241.000000 233.412903,241.000000 240.690521,241.000000 
	C240.690521,230.642654 240.690521,220.903961 240.690521,211.310913 
	C230.639755,211.310913 220.901001,211.310913 211.312622,211.310913 
	C211.312622,221.362823 211.312622,231.101288 211.312622,241.000000 
	C213.608414,241.000000 215.592575,241.000000 218.560425,241.000000 
M277.424438,261.000000 
	C275.331879,261.000000 273.239319,261.000000 270.766602,261.000000 
	C270.766602,264.703552 270.766602,267.785889 270.766602,271.237762 
	C267.293091,271.237762 264.211090,271.237762 261.320923,271.237762 
	C261.320923,274.713318 261.320923,277.787048 261.320923,280.675903 
	C268.054230,280.675903 274.462555,280.675903 280.999817,280.675903 
	C280.999817,274.864624 281.129364,269.370880 280.881866,263.894196 
	C280.836670,262.893951 279.254822,261.963165 277.424438,261.000000 
z"/>
<path fill="#000000" opacity="1.000000" stroke="none" 
	d="
M141.068954,80.924179 
	C134.595917,80.924179 128.122864,80.924179 121.325119,80.924179 
	C121.325119,77.798401 121.325119,74.727829 121.325119,71.266312 
	C124.183426,71.266312 127.261902,71.266312 130.669617,71.266312 
	C130.669617,67.824272 130.669617,64.750168 130.669617,61.285301 
	C127.836548,61.285301 124.758980,61.285301 121.339890,61.285301 
	C121.339890,57.845314 121.339890,54.772984 121.339890,51.304329 
	C124.144585,51.304329 127.220993,51.304329 130.686111,51.304329 
	C130.686111,47.864838 130.686111,44.789032 130.686111,41.354145 
	C134.128036,41.354145 137.201950,41.354145 140.840057,41.354145 
	C140.840057,47.566025 140.840057,54.100281 140.840057,60.807304 
	C144.467682,60.807304 147.536194,60.807304 150.989441,60.807304 
	C150.989441,57.550812 150.989441,54.475456 150.989441,51.024345 
	C157.768051,51.024345 164.177811,51.024345 170.959167,51.024345 
	C170.959167,47.576263 170.959167,44.501434 170.959167,41.217422 
	C174.411285,41.217422 177.481842,41.217422 180.939484,41.217422 
	C180.939484,44.393333 180.939484,47.478382 180.939484,51.005634 
	C187.583939,51.005634 193.854752,51.005634 200.562714,51.005924 
	C200.999893,51.006214 200.926697,50.937332 200.926697,50.937332 
	C200.926697,54.075043 200.926697,57.212753 200.926697,60.716537 
	C204.161697,60.716537 207.231934,60.716537 210.651932,60.716537 
	C210.651932,64.250999 210.651932,67.427055 210.651932,70.985367 
	C207.547836,70.985367 204.480576,70.985367 200.994507,70.985367 
	C200.994507,74.272812 200.994507,77.207573 200.996033,80.571228 
	C200.997559,81.000130 201.069992,80.930077 200.597900,80.962570 
	C190.433212,80.995056 180.740616,80.995056 171.343567,80.995056 
	C171.343567,84.797119 171.343567,87.861343 171.343567,91.278137 
	C174.760117,91.278137 177.832870,91.278137 180.930038,91.278137 
	C180.930038,94.788727 180.930038,97.929367 180.965012,101.035011 
	C180.999985,101.000015 181.069916,100.930008 180.606232,100.962479 
	C177.216034,100.994942 174.289520,100.994942 170.849518,100.994942 
	C170.849518,104.567390 170.849518,107.754387 170.849518,110.930023 
	C167.190506,110.930023 164.060272,110.930023 160.965012,110.965012 
	C161.000000,111.000000 161.069901,111.070030 161.037415,110.597946 
	C161.004944,100.442223 161.004944,90.758583 161.004944,80.930000 
	C157.204559,80.930000 154.067322,80.930000 150.965057,80.965012 
	C151.000015,81.000015 151.069962,81.070007 151.037506,80.606361 
	C151.005051,77.216171 151.005051,74.289627 151.005051,71.339661 
	C147.418930,71.339661 144.247528,71.339661 140.930038,71.339661 
	C140.930038,74.809387 140.930038,77.939697 140.965027,81.033806 
	C141.000031,80.997604 141.068954,80.924179 141.068954,80.924179 
M168.550720,61.000000 
	C166.110733,61.000000 163.670731,61.000000 161.270767,61.000000 
	C161.270767,64.614738 161.270767,67.688095 161.270767,70.729042 
	C167.954315,70.729042 174.363647,70.729042 180.725006,70.729042 
	C180.725006,67.377548 180.725006,64.305244 180.725006,61.000000 
	C176.810776,61.000000 173.169113,61.000000 168.550720,61.000000 
z"/>
<path fill="#000000" opacity="1.000000" stroke="none" 
	d="
M57.002563,111.000000 
	C51.525700,111.000000 46.548100,111.000000 41.286655,111.000000 
	C41.286655,87.713219 41.286655,64.643707 41.286655,41.286541 
	C64.287018,41.286541 87.356522,41.286541 110.713577,41.286541 
	C110.713577,64.287247 110.713577,87.356750 110.713577,111.000000 
	C93.024117,111.000000 75.262970,111.000000 57.002563,111.000000 
M51.000290,98.322281 
	C51.778126,99.214340 52.548531,100.877098 53.334900,100.884682 
	C69.111259,101.036880 84.889458,100.998459 100.769470,100.998459 
	C100.769470,84.138931 100.769470,67.735115 100.769470,51.232845 
	C84.134224,51.232845 67.730392,51.232845 51.000015,51.232845 
	C51.000015,66.758560 51.000015,82.053398 51.000290,98.322281 
z"/>
<path fill="#000000" opacity="1.000000" stroke="none" 
	d="
M291.000000,75.000000 
	C291.000000,87.142570 291.000000,98.785149 291.000000,110.713211 
	C267.713593,110.713211 244.644165,110.713211 221.286804,110.713211 
	C221.286804,87.713608 221.286804,64.644196 221.286804,41.286827 
	C244.286346,41.286827 267.355774,41.286827 291.000000,41.286827 
	C291.000000,52.306755 291.000000,63.403378 291.000000,75.000000 
M273.439453,101.000000 
	C275.876801,101.000000 278.314178,101.000000 280.731445,101.000000 
	C280.731445,84.060623 280.731445,67.656982 280.731445,51.270012 
	C264.057739,51.270012 247.654053,51.270012 231.271454,51.270012 
	C231.271454,67.945206 231.271454,84.348892 231.271454,101.000000 
	C245.179779,101.000000 258.817871,101.000000 273.439453,101.000000 
z"/>
<path fill="#000000" opacity="1.000000" stroke="none" 
	d="
M72.000000,291.000000 
	C61.523830,291.000000 51.547657,291.000000 41.286469,291.000000 
	C41.286469,267.712921 41.286469,244.643509 41.286469,221.286484 
	C64.287048,221.286484 87.356461,221.286484 110.713501,221.286484 
	C110.713501,244.287003 110.713501,267.356415 110.713501,291.000000 
	C98.025383,291.000000 85.262695,291.000000 72.000000,291.000000 
M51.000000,275.400177 
	C51.000000,277.174194 51.000000,278.948212 51.000000,280.744568 
	C67.912071,280.744568 84.315857,280.744568 100.742554,280.744568 
	C100.742554,264.083954 100.742554,247.680069 100.742554,231.259491 
	C84.079842,231.259491 67.675934,231.259491 51.000000,231.259491 
	C51.000000,245.819427 51.000000,260.121338 51.000000,275.400177 
z"/>
<path fill="#000000" opacity="1.000000" stroke="none" 
	d="
M120.937103,151.073547 
	C124.084106,151.073547 127.231102,151.073547 130.688690,151.073547 
	C130.688690,144.482651 130.688690,138.078674 130.688690,131.126297 
	C121.051453,131.126297 111.200394,131.126297 101.199730,131.126297 
	C101.199730,127.514755 101.199730,124.449875 101.199730,121.005363 
	C117.639526,121.005363 133.882492,121.005363 150.562775,121.003906 
	C151.000107,121.002449 150.929993,120.930038 150.962463,121.389633 
	C150.970032,124.922401 150.945114,127.995575 150.956863,131.034378 
	C150.993530,131.000015 151.062424,130.926788 150.599213,130.960754 
	C147.197983,130.994720 144.259964,130.994720 141.202744,130.994720 
	C141.202744,137.838074 141.202744,144.230377 141.202744,151.000122 
	C144.466858,151.000122 147.537994,151.000122 150.645203,151.000122 
	C150.645203,154.573990 150.645203,157.756226 150.645203,161.309204 
	C147.215546,161.309204 144.142685,161.309204 141.338028,161.309204 
	C141.338028,164.759659 141.338028,167.825974 141.338028,171.069916 
	C148.140076,171.069916 154.605042,171.069916 161.069992,171.069916 
	C161.069992,171.069916 160.999985,170.999985 160.997467,171.424606 
	C160.973297,174.922806 160.951645,177.996384 160.929993,181.069962 
	C160.929993,181.069962 160.999985,181.000015 160.562851,180.997528 
	C143.727142,180.973404 127.328575,180.951736 110.966240,180.965088 
	C111.002472,181.000107 111.075905,181.069092 111.075905,181.069092 
	C111.075905,177.928268 111.075905,174.787445 111.075905,171.276535 
	C107.831276,171.276535 104.758217,171.276535 101.342529,171.276535 
	C101.342529,167.856400 101.342529,164.789429 101.342529,161.181915 
	C107.548775,161.181915 114.068161,161.181915 121.005730,161.181915 
	C121.005730,157.728745 121.005730,154.793594 121.005844,151.429398 
	C121.005966,151.000351 120.937103,151.073547 120.937103,151.073547 
z"/>
<path fill="#000000" opacity="1.000000" stroke="none" 
	d="
M60.926353,160.937012 
	C60.926353,164.090118 60.926353,167.243210 60.926353,170.697662 
	C67.551620,170.697662 73.966919,170.697662 80.780930,170.697662 
	C80.780930,167.758209 80.780930,164.680710 80.780930,161.301666 
	C84.237045,161.301666 87.316589,161.301666 91.008408,161.301666 
	C91.008408,170.759354 91.008408,180.357986 91.094818,190.379440 
	C91.181229,190.802277 91.254272,190.719757 91.254272,190.719757 
	C88.123657,190.811356 84.993050,190.902969 81.431198,190.996094 
	C80.999954,190.997604 81.069962,191.070007 81.037506,190.606354 
	C81.005058,187.216156 81.005058,184.289612 81.005058,181.339661 
	C77.418938,181.339661 74.247520,181.339661 70.930038,181.339661 
	C70.930038,184.809387 70.930038,187.939697 70.965057,191.033783 
	C71.000069,190.997574 71.069054,190.924149 71.069054,190.924149 
	C67.922127,190.924149 64.775200,190.924149 61.248299,190.924149 
	C61.248299,187.808319 61.248299,184.726105 61.248299,181.323608 
	C57.810703,181.323608 54.736076,181.323608 51.112732,181.323608 
	C51.112732,190.945618 51.112732,200.804260 51.112732,210.824005 
	C47.626820,210.824005 44.674793,210.824005 41.360210,210.824005 
	C41.360210,194.445679 41.360210,177.951508 41.360210,161.005615 
	C47.593693,161.005615 53.859444,161.005615 60.562374,161.005737 
	C60.999554,161.005859 60.926353,160.937012 60.926353,160.937012 
z"/>
<path fill="#000000" opacity="1.000000" stroke="none" 
	d="
M261.034393,171.042984 
	C261.068756,167.928116 261.068756,164.776596 261.068756,161.240326 
	C267.518524,161.240326 273.932404,161.240326 280.670776,161.240326 
	C280.670776,157.804657 280.670776,154.733337 280.670776,151.274231 
	C277.819885,151.274231 274.739319,151.274231 271.329041,151.274231 
	C271.329041,141.169800 271.329041,131.434921 271.329041,121.348999 
	C274.159119,121.348999 277.229492,121.348999 280.869843,121.348999 
	C280.869843,127.583382 280.869843,134.125717 280.869843,140.856018 
	C284.376526,140.856018 287.330597,140.856018 290.642731,140.856018 
	C290.642731,150.908707 290.642731,160.759140 290.642731,170.999649 
	C287.535889,170.999649 284.459564,170.999649 281.196716,170.999649 
	C281.196716,174.457001 281.196716,177.528366 281.196716,180.986450 
	C284.445465,180.986450 287.521973,180.986450 290.794464,180.986450 
	C290.794464,187.773804 290.794464,194.175858 290.794464,200.789398 
	C287.567535,200.789398 284.498169,200.789398 281.040100,200.789398 
	C281.040100,197.580826 281.040100,194.502777 281.040100,191.047363 
	C277.588654,191.047363 274.511963,191.047363 271.054779,191.047363 
	C271.054779,184.265671 271.054779,177.853363 271.054779,170.995407 
	C267.742737,170.995407 264.798920,170.995407 261.390961,170.966415 
	C260.926819,170.937424 261.000031,171.006317 261.034393,171.042984 
z"/>
<path fill="#000000" opacity="1.000000" stroke="none" 
	d="
M141.039124,230.965424 
	C134.600723,230.930969 128.125610,230.930969 121.263496,230.930969 
	C121.263496,224.475082 121.263496,218.070557 121.263496,211.288361 
	C111.161224,211.288361 101.430367,211.288361 91.019081,211.288361 
	C91.019081,204.525360 91.019081,198.118927 91.136673,191.216125 
	C91.254272,190.719757 91.181229,190.802277 91.150513,190.837082 
	C94.130829,190.916428 97.141846,190.960968 100.576492,191.003952 
	C101.000107,191.002411 100.930023,190.930023 100.962486,191.393829 
	C100.994949,194.796371 100.994949,197.735107 100.994949,200.798691 
	C107.834129,200.798691 114.226723,200.798691 120.996971,200.798691 
	C120.996971,197.537735 120.996971,194.468185 120.996971,191.339706 
	C127.895432,191.339706 134.409821,191.339706 141.289246,191.339706 
	C141.289246,194.756790 141.289246,197.832382 141.289246,201.260284 
	C144.740097,201.260284 147.817154,201.260284 151.075821,201.260284 
	C151.075821,204.780151 151.075821,207.924545 150.603333,211.036926 
	C143.881042,211.004898 137.631241,211.004898 131.350555,211.004898 
	C131.350555,214.583023 131.350555,217.756516 131.350555,221.288544 
	C134.772202,221.288544 137.842178,221.288544 140.930008,221.288544 
	C140.930008,224.793289 140.930008,227.931595 140.930008,231.069916 
	C140.930008,231.069916 141.002411,230.999893 141.039124,230.965424 
z"/>
<path fill="#000000" opacity="1.000000" stroke="none" 
	d="
M200.960846,81.034630 
	C204.065842,81.069130 207.207565,81.069130 210.995102,81.069130 
	C210.995102,94.101822 210.995102,107.116219 210.963058,120.603271 
	C210.931015,121.075920 210.999939,121.002472 210.562958,120.998756 
	C203.762360,120.995041 197.398712,120.995041 190.930054,120.995041 
	C190.930054,128.177307 190.930054,134.623627 190.930054,141.069946 
	C190.930054,141.069946 191.000031,140.999969 190.575317,140.997467 
	C187.075134,141.019699 183.999664,141.044434 180.959351,140.605774 
	C180.994522,137.205078 180.994522,134.267776 180.994522,130.974121 
	C177.508865,130.974121 174.438904,130.974121 171.360825,130.974121 
	C171.360825,127.409210 171.360825,124.231995 171.360825,120.682961 
	C174.789383,120.682961 177.852982,120.682961 181.069916,120.682961 
	C181.069916,113.844955 181.069916,107.387482 181.069916,100.930008 
	C181.069916,100.930008 180.999985,101.000015 181.424469,101.002533 
	C184.920181,100.978935 187.991409,100.952820 191.033630,101.390717 
	C191.004608,104.787445 191.004608,107.720177 191.004608,110.638428 
	C194.600311,110.638428 197.772995,110.638428 200.665924,110.638428 
	C200.665924,107.208145 200.665924,104.143745 200.665924,101.068649 
	C197.194778,101.068649 194.057602,101.068649 190.957336,100.605392 
	C190.994247,97.215691 190.994247,94.289246 190.994247,90.849388 
	C194.567642,90.849388 197.754547,90.849388 201.069992,90.849388 
	C201.069992,87.190575 201.069992,84.060326 201.069992,80.930077 
	C201.069992,80.930077 200.997559,81.000130 200.960846,81.034630 
z"/>
<path fill="#000000" opacity="1.000000" stroke="none" 
	d="
M61.033897,161.042542 
	C61.068237,151.274277 61.068237,141.469345 61.068237,131.272491 
	C54.489594,131.272491 48.085796,131.272491 41.342384,131.272491 
	C41.342384,127.829666 41.342384,124.759354 41.342384,121.339111 
	C57.592106,121.339111 74.101753,121.339111 90.806793,121.339111 
	C90.806793,124.467300 90.806793,127.536308 90.806793,130.991119 
	C87.548042,130.991119 84.470459,130.991119 81.201294,130.991119 
	C81.201294,134.446472 81.201294,137.517365 81.201294,140.975189 
	C84.435181,140.975189 87.512772,140.975189 90.790695,140.975189 
	C90.790695,144.427872 90.790695,147.497482 90.790695,150.956070 
	C84.254082,150.956070 77.843491,150.956070 71.058731,150.956070 
	C71.058731,154.401917 71.058731,157.483475 71.058731,160.995377 
	C67.744919,160.995377 64.799690,160.995377 61.390411,160.966187 
	C60.926353,160.937012 60.999554,161.005859 61.033897,161.042542 
z"/>
<path fill="#000000" opacity="1.000000" stroke="none" 
	d="
M260.960876,221.034515 
	C270.706573,221.068970 280.488983,221.068970 290.635712,221.068970 
	C290.635712,227.556473 290.635712,234.060715 290.635712,240.994995 
	C287.725647,240.994995 284.789246,240.994995 281.388489,240.962952 
	C280.924103,240.930908 280.997559,240.999908 281.001312,240.571075 
	C281.005066,237.217102 281.005066,234.291962 281.005066,230.930099 
	C274.048309,230.930099 267.489136,230.930099 260.929962,230.930099 
	C260.929962,230.930099 261.000000,231.000031 261.002533,230.575409 
	C261.026733,227.077194 261.048370,224.003616 261.070007,220.930038 
	C261.070007,220.930038 260.997589,221.000046 260.960876,221.034515 
z"/>
<path fill="#000000" opacity="1.000000" stroke="none" 
	d="
M210.965500,260.960876 
	C210.931046,267.371429 210.931046,273.818695 210.931046,280.994354 
	C204.601608,280.994354 198.237930,280.994354 191.437073,280.993896 
	C190.999878,280.993408 191.073105,281.062256 191.073105,281.062256 
	C191.050568,277.991241 191.028030,274.920258 191.003937,271.424591 
	C191.002411,270.999939 190.929993,271.069977 191.393570,271.037537 
	C194.890274,271.005066 197.923401,271.005066 201.069962,271.005066 
	C201.069962,267.165436 201.069962,264.047699 201.069962,260.929993 
	C201.069962,260.929993 201.000000,261.000000 201.424622,261.002563 
	C204.922806,261.026733 207.996384,261.048370 211.069962,261.070007 
	C211.069962,261.070007 210.999954,260.997589 210.965500,260.960876 
z"/>
<path fill="#000000" opacity="1.000000" stroke="none" 
	d="
M80.965485,190.960892 
	C80.931023,197.387360 80.931023,203.850555 80.931023,210.656769 
	C74.397766,210.656769 67.892426,210.656769 61.190639,210.656769 
	C61.190639,207.534180 61.190639,204.471069 61.190639,201.030731 
	C64.429832,201.030731 67.510109,201.030731 71.005005,201.030731 
	C71.005005,197.732193 71.005005,194.792404 71.037033,191.388367 
	C71.069054,190.924149 71.000069,190.997574 71.424652,191.001312 
	C74.922813,191.026718 77.996384,191.048370 81.069962,191.070007 
	C81.069962,191.070007 80.999954,190.997604 80.965485,190.960892 
z"/>
<path fill="#000000" opacity="1.000000" stroke="none" 
	d="
M160.926331,280.936981 
	C160.926331,284.081146 160.926331,287.225311 160.926331,290.684448 
	C154.498886,290.684448 148.100403,290.684448 141.349625,290.684448 
	C141.349625,284.410004 141.349625,277.903381 141.349625,271.195312 
	C144.456955,271.195312 147.520554,271.195312 150.962845,271.195312 
	C150.962845,274.425720 150.962845,277.498260 150.962845,281.005707 
	C154.261856,281.005707 157.201828,281.005707 160.570679,281.005798 
	C160.999542,281.005890 160.926331,280.936981 160.926331,280.936981 
z"/>
<path fill="#000000" opacity="1.000000" stroke="none" 
	d="
M151.069183,110.924133 
	C147.931992,110.924133 144.794815,110.924133 141.004898,110.924133 
	C141.004898,101.239189 141.004898,91.554321 141.036926,81.396820 
	C141.068954,80.924179 141.000031,80.997604 141.424622,81.001328 
	C144.922806,81.026703 147.996384,81.048355 151.069962,81.070007 
	C151.069962,81.070007 151.000015,81.000015 150.997528,81.437134 
	C150.973404,91.606178 150.951752,101.338104 150.965118,111.033798 
	C151.000137,110.997566 151.069183,110.924133 151.069183,110.924133 
z"/>
<path fill="#000000" opacity="1.000000" stroke="none" 
	d="
M190.965515,280.956726 
	C190.931168,284.048248 190.931168,287.176453 190.931168,290.652313 
	C184.468307,290.652313 177.990540,290.652313 170.991379,290.652313 
	C170.991379,287.835632 170.991379,284.931091 170.904938,281.612061 
	C170.818512,281.197540 170.745270,281.279938 170.745270,281.279938 
	C177.206345,281.188110 183.667435,281.096283 190.600800,281.033356 
	C191.073105,281.062256 190.999878,280.993408 190.965515,280.956726 
z"/>
<path fill="#000000" opacity="1.000000" stroke="none" 
	d="
M231.034073,141.042801 
	C231.068420,134.502380 231.068420,127.925270 231.068420,121.191727 
	C234.485016,121.191727 237.542435,121.191727 240.994354,121.191727 
	C240.994354,127.625183 240.994354,133.875336 240.994019,140.562698 
	C240.993698,140.999893 241.062576,140.926697 241.062576,140.926697 
	C237.990433,140.949600 234.918289,140.972504 231.386353,140.966309 
	C230.926544,140.937225 230.999725,141.006119 231.034073,141.042801 
z"/>
<path fill="#000000" opacity="1.000000" stroke="none" 
	d="
M121.000000,101.982071 
	C121.000000,98.179039 121.000000,94.868866 121.000000,91.281601 
	C124.289963,91.281601 127.364166,91.281601 130.722382,91.281601 
	C130.722382,97.620071 130.722382,104.029396 130.722382,110.720963 
	C127.705193,110.720963 124.631706,110.720963 121.000000,110.720963 
	C121.000000,108.023682 121.000000,105.249298 121.000000,101.982071 
z"/>
<path fill="#000000" opacity="1.000000" stroke="none" 
	d="
M121.042641,150.966003 
	C114.619728,150.931671 108.160133,150.931671 101.350342,150.931671 
	C101.350342,147.851974 101.350342,144.789688 101.350342,141.361359 
	C107.556717,141.361359 114.060493,141.361359 120.995399,141.361359 
	C120.995399,144.273193 120.995399,147.209183 120.966248,150.609360 
	C120.937103,151.073547 121.005966,151.000351 121.042641,150.966003 
z"/>
<path fill="#000000" opacity="1.000000" stroke="none" 
	d="
M240.957031,141.034241 
	C247.379974,141.068573 253.839615,141.068573 260.649536,141.068573 
	C260.649536,144.147781 260.649536,147.210052 260.649536,150.638504 
	C254.443359,150.638504 247.939621,150.638504 241.004593,150.638504 
	C241.004593,147.726974 241.004593,144.790985 241.033585,141.390854 
	C241.062576,140.926697 240.993698,140.999893 240.957031,141.034241 
z"/>
<path fill="#000000" opacity="1.000000" stroke="none" 
	d="
M191.039124,270.965454 
	C187.956390,270.930939 184.836945,270.930939 181.005005,270.930939 
	C181.005005,267.921753 181.005005,264.887085 181.037048,261.388275 
	C181.069092,260.924133 181.000092,260.997559 181.424652,261.001312 
	C184.922806,261.026703 187.996384,261.048370 191.069962,261.070007 
	C191.069962,261.070007 190.999985,261.000000 190.997467,261.424622 
	C190.973297,264.922791 190.951645,267.996399 190.929993,271.069977 
	C190.929993,271.069977 191.002411,270.999939 191.039124,270.965454 
z"/>
<path fill="#000000" opacity="1.000000" stroke="none" 
	d="
M151.034622,121.039154 
	C151.047760,117.998764 151.026382,114.921661 151.037094,111.384346 
	C151.069183,110.924133 151.000137,110.997566 151.424713,111.001312 
	C154.922821,111.026718 157.996353,111.048378 161.069901,111.070030 
	C161.069901,111.070030 161.000000,111.000000 160.997467,111.428635 
	C160.994949,114.890289 160.994949,117.923309 160.994949,120.930038 
	C157.165329,120.930038 154.047653,120.930038 150.929993,120.930038 
	C150.929993,120.930038 151.000107,121.002449 151.034622,121.039154 
z"/>
<path fill="#000000" opacity="1.000000" stroke="none" 
	d="
M49.792694,150.969147 
	C46.711933,150.996048 44.107788,150.996048 41.253403,150.996048 
	C41.253403,147.693253 41.253403,144.643661 41.253403,141.293945 
	C44.222031,141.293945 47.274624,141.293945 51.174046,141.293945 
	C50.880680,144.422424 50.574993,147.682343 49.792694,150.969147 
z"/>
<path fill="#000000" opacity="1.000000" stroke="none" 
	d="
M161.033905,281.042542 
	C161.068283,277.934906 161.068283,274.790588 161.068283,271.323273 
	C164.173340,271.323273 167.244217,271.323273 170.980499,271.323273 
	C170.980499,274.159119 170.980499,277.231567 170.862885,280.791992 
	C170.745270,281.279938 170.818512,281.197540 170.849243,281.162720 
	C167.867935,281.083740 164.855911,281.039551 161.385101,280.966187 
	C160.926331,280.936981 160.999542,281.005890 161.033905,281.042542 
z"/>
<path fill="#000000" opacity="1.000000" stroke="none" 
	d="
M201.034271,51.042881 
	C201.068634,47.942375 201.068634,44.805202 201.068634,41.334068 
	C204.143768,41.334068 207.208176,41.334068 210.638428,41.334068 
	C210.638428,44.227013 210.638428,47.399719 210.638428,50.995403 
	C207.720154,50.995403 204.787415,50.995403 201.390686,50.966370 
	C200.926697,50.937332 200.999893,51.006214 201.034271,51.042881 
z"/>
<path fill="#000000" opacity="1.000000" stroke="none" 
	d="
M251.387299,130.603790 
	C251.056641,127.336197 251.056641,124.406303 251.056641,121.239899 
	C254.337921,121.239899 257.386993,121.239899 260.720490,121.239899 
	C260.720490,124.251884 260.720490,127.303444 260.720490,130.941513 
	C257.825806,130.941513 254.771866,130.941513 251.387299,130.603790 
z"/>
<path fill="#000000" opacity="1.000000" stroke="none" 
	d="
M261.034393,211.042984 
	C261.068756,207.942429 261.068756,204.805191 261.068756,201.334106 
	C264.143677,201.334106 267.208069,201.334106 270.638367,201.334106 
	C270.638367,204.226730 270.638367,207.398544 270.638367,210.995407 
	C267.720245,210.995407 264.787506,210.995407 261.390808,210.966415 
	C260.926819,210.937424 261.000031,211.006317 261.034393,211.042984 
z"/>
<path fill="#000000" opacity="1.000000" stroke="none" 
	d="
M241.034607,171.039093 
	C241.069107,167.944168 241.069107,164.812531 241.069107,161.340485 
	C244.246857,161.340485 247.419113,161.340485 250.994995,161.340485 
	C250.994995,164.292099 250.994995,167.219742 250.962982,170.611633 
	C250.930954,171.075851 250.999939,171.002426 250.575348,170.998688 
	C247.077194,170.973297 244.003616,170.951645 240.930038,170.929993 
	C240.930038,170.929993 241.000107,171.002380 241.034607,171.039093 
z"/>
<path fill="#000000" opacity="1.000000" stroke="none" 
	d="
M101.034607,191.039124 
	C101.069107,187.956375 101.069107,184.836929 101.069107,181.005005 
	C104.078270,181.005005 107.112938,181.005005 110.611755,181.037048 
	C111.075905,181.069092 111.002472,181.000107 110.998703,181.428711 
	C110.994934,184.890320 110.994934,187.923325 110.994934,190.930023 
	C107.165337,190.930023 104.047676,190.930023 100.930023,190.930023 
	C100.930023,190.930023 101.000107,191.002411 101.034607,191.039124 
z"/>
<path fill="#FFFFFF" opacity="1.000000" stroke="none" 
	d="
M150.962463,121.389633 
	C154.047653,120.930038 157.165329,120.930038 160.994949,120.930038 
	C160.994949,117.923309 160.994949,114.890289 160.962494,111.393646 
	C164.060272,110.930023 167.190506,110.930023 170.849518,110.930023 
	C170.849518,107.754387 170.849518,104.567390 170.849518,100.994942 
	C174.289520,100.994942 177.216034,100.994942 180.606232,100.962479 
	C181.069916,107.387482 181.069916,113.844955 181.069916,120.682961 
	C177.852982,120.682961 174.789383,120.682961 171.360825,120.682961 
	C171.360825,124.231995 171.360825,127.409210 171.360825,130.974121 
	C174.438904,130.974121 177.508865,130.974121 180.994522,130.974121 
	C180.994522,134.267776 180.994522,137.205078 180.996063,140.571259 
	C180.997604,141.000137 181.070007,140.930038 180.606354,140.962494 
	C177.216156,140.994949 174.289612,140.994949 171.339661,140.994949 
	C171.339661,144.581070 171.339661,147.752472 171.339661,151.069962 
	C174.809387,151.069962 177.939697,151.069962 181.035004,151.034973 
	C180.999985,150.999985 180.930008,150.929993 180.962479,151.389557 
	C180.973312,154.922729 180.951660,157.996368 180.965012,161.033798 
	C181.000015,160.997604 181.068924,160.924179 181.068924,160.924179 
	C174.509521,160.924179 167.950104,160.924179 161.005051,160.924179 
	C161.005051,164.292282 161.005051,167.217270 161.037521,170.606079 
	C154.605042,171.069916 148.140076,171.069916 141.338028,171.069916 
	C141.338028,167.825974 141.338028,164.759659 141.338028,161.309204 
	C144.142685,161.309204 147.215546,161.309204 150.645203,161.309204 
	C150.645203,157.756226 150.645203,154.573990 150.645203,151.000122 
	C147.537994,151.000122 144.466858,151.000122 141.202744,151.000122 
	C141.202744,144.230377 141.202744,137.838074 141.202744,130.994720 
	C144.259964,130.994720 147.197983,130.994720 150.570297,131.424744 
	C151.004593,134.787521 151.004593,137.720245 151.004593,140.638351 
	C154.600372,140.638351 157.773041,140.638351 160.665863,140.638351 
	C160.665863,137.208008 160.665863,134.143616 160.665863,131.068741 
	C157.194611,131.068741 154.057404,131.068741 150.920197,131.068741 
	C150.945114,127.995575 150.970032,124.922401 150.962463,121.389633 
z"/>
<path fill="#FFFFFF" opacity="1.000000" stroke="none" 
	d="
M100.962486,191.393829 
	C104.047676,190.930023 107.165337,190.930023 110.994934,190.930023 
	C110.994934,187.923325 110.994934,184.890320 110.962471,181.393707 
	C127.328575,180.951736 143.727142,180.973404 160.597855,180.962570 
	C161.069992,184.076355 161.069992,187.222626 161.069992,190.898041 
	C170.952179,190.898041 180.805557,190.898041 190.798126,190.898041 
	C190.798126,194.492493 190.798126,197.556000 190.798126,200.980591 
	C180.881378,200.980591 171.157730,200.980591 160.994537,200.980591 
	C160.994537,204.263672 160.994537,207.202774 160.996094,210.570969 
	C160.997665,211.000046 161.070007,210.930008 160.610443,210.962479 
	C157.077271,210.973297 154.003662,210.951645 150.966217,210.964996 
	C151.002396,211.000015 151.075821,211.068939 151.075821,211.068939 
	C151.075821,207.924545 151.075821,204.780151 151.075821,201.260284 
	C147.817154,201.260284 144.740097,201.260284 141.289246,201.260284 
	C141.289246,197.832382 141.289246,194.756790 141.289246,191.339706 
	C134.409821,191.339706 127.895432,191.339706 120.996971,191.339706 
	C120.996971,194.468185 120.996971,197.537735 120.996971,200.798691 
	C114.226723,200.798691 107.834129,200.798691 100.994949,200.798691 
	C100.994949,197.735107 100.994949,194.796371 100.962486,191.393829 
z"/>
<path fill="#FFFFFF" opacity="1.000000" stroke="none" 
	d="
M218.068573,241.000000 
	C215.592575,241.000000 213.608414,241.000000 211.312622,241.000000 
	C211.312622,231.101288 211.312622,221.362823 211.312622,211.310913 
	C220.901001,211.310913 230.639755,211.310913 240.690521,211.310913 
	C240.690521,220.903961 240.690521,230.642654 240.690521,241.000000 
	C233.412903,241.000000 225.986664,241.000000 218.068573,241.000000 
M230.996078,229.317886 
	C230.996078,226.590530 230.996078,223.863174 230.996078,221.270264 
	C227.322433,221.270264 224.271149,221.270264 221.230103,221.270264 
	C221.230103,224.592834 221.230103,227.640594 221.230103,231.294220 
	C224.644150,230.934204 227.793671,230.602097 230.996078,229.317886 
z"/>
<path fill="#FFFFFF" opacity="1.000000" stroke="none" 
	d="
M230.965393,170.956665 
	C230.931030,174.067383 230.931030,177.214752 230.931030,180.740402 
	C227.816452,180.740402 224.737640,180.740402 221.329971,180.740402 
	C221.329971,184.174362 221.329971,187.246613 221.329971,190.706314 
	C224.156784,190.706314 227.232407,190.706314 230.654419,190.706314 
	C230.654419,194.144516 230.654419,197.218216 230.654419,200.648285 
	C224.428879,200.648285 217.914215,200.648285 211.196930,200.648285 
	C211.196930,190.883270 211.196930,181.165421 211.196930,171.004486 
	C217.600113,171.004486 223.864319,171.004486 230.600739,171.033325 
	C231.072968,171.062164 230.999741,170.993332 230.965393,170.956665 
z"/>
<path fill="#FFFFFF" opacity="1.000000" stroke="none" 
	d="
M190.930939,221.075912 
	C194.076172,221.075912 197.221405,221.075912 200.683212,221.075912 
	C200.683212,227.500275 200.683212,233.900208 200.683212,240.651321 
	C187.754456,240.651321 174.598526,240.651321 161.005463,240.651321 
	C161.005463,237.734360 161.005463,234.796204 161.003906,231.428955 
	C161.002335,230.999878 160.929977,231.069916 161.402115,231.037430 
	C171.557861,231.004944 181.241470,231.004944 191.069992,231.004944 
	C191.069992,227.204758 191.069992,224.067413 191.034958,220.966278 
	C190.999924,221.002487 190.930939,221.075912 190.930939,221.075912 
z"/>
<path fill="#FFFFFF" opacity="1.000000" stroke="none" 
	d="
M191.401978,141.037445 
	C190.930054,134.623627 190.930054,128.177307 190.930054,120.995041 
	C197.398712,120.995041 203.762360,120.995041 210.597961,120.962555 
	C211.069946,127.376389 211.069946,133.822708 211.069946,141.004959 
	C204.601227,141.004959 198.237564,141.004959 191.401978,141.037445 
z"/>
<path fill="#FFFFFF" opacity="1.000000" stroke="none" 
	d="
M141.401855,231.037430 
	C140.930008,227.931595 140.930008,224.793289 140.930008,221.288544 
	C137.842178,221.288544 134.772202,221.288544 131.350555,221.288544 
	C131.350555,217.756516 131.350555,214.583023 131.350555,211.004898 
	C137.631241,211.004898 143.881042,211.004898 150.603333,211.036926 
	C151.075821,211.068939 151.002396,211.000015 150.998672,211.428619 
	C150.994949,214.890350 150.994949,217.923447 150.994949,221.069962 
	C154.834595,221.069962 157.952301,221.069962 161.035004,221.034988 
	C161.000015,221.000015 160.929977,220.930084 160.962463,221.389633 
	C160.973282,224.922760 160.951630,227.996338 160.929962,231.069916 
	C160.929977,231.069916 161.002335,230.999878 161.039062,230.965424 
	C154.675079,230.955627 148.274399,230.980286 141.401855,231.037430 
z"/>
<path fill="#FFFFFF" opacity="1.000000" stroke="none" 
	d="
M190.924194,160.931076 
	C190.924194,164.073059 190.924194,167.215057 190.924194,170.728882 
	C194.173676,170.728882 197.248093,170.728882 200.661087,170.728882 
	C200.661087,174.151291 200.661087,177.219101 200.661087,180.648666 
	C194.438477,180.648666 187.932343,180.648666 181.004898,180.648666 
	C181.004898,174.380341 181.004898,168.124741 181.036911,161.396667 
	C181.068924,160.924179 181.000015,160.997604 181.424606,161.001328 
	C184.922791,161.026703 187.996399,161.048355 191.033813,161.035004 
	C190.997635,161.000000 190.924194,160.931076 190.924194,160.931076 
z"/>
<path fill="#FFFFFF" opacity="1.000000" stroke="none" 
	d="
M160.960953,211.034515 
	C170.812729,211.068970 180.701233,211.068970 190.994995,211.068970 
	C190.994995,214.283936 190.994995,217.215561 190.962967,220.611542 
	C190.930939,221.075912 190.999924,221.002487 190.562820,220.998779 
	C180.393799,220.973404 170.661896,220.951752 160.929977,220.930084 
	C160.929977,220.930084 161.000015,221.000015 161.002533,220.575394 
	C161.026703,217.077179 161.048355,214.003601 161.070007,210.930008 
	C161.070007,210.930008 160.997665,211.000046 160.960953,211.034515 
z"/>
<path fill="#FFFFFF" opacity="1.000000" stroke="none" 
	d="
M277.903381,261.000153 
	C279.254822,261.963165 280.836670,262.893951 280.881866,263.894196 
	C281.129364,269.370880 280.999817,274.864624 280.999817,280.675903 
	C274.462555,280.675903 268.054230,280.675903 261.320923,280.675903 
	C261.320923,277.787048 261.320923,274.713318 261.320923,271.237762 
	C264.211090,271.237762 267.293091,271.237762 270.766602,271.237762 
	C270.766602,267.785889 270.766602,264.703552 270.766602,261.000000 
	C273.239319,261.000000 275.331879,261.000000 277.903381,261.000153 
z"/>
<path fill="#FFFFFF" opacity="1.000000" stroke="none" 
	d="
M260.962463,231.389496 
	C267.489136,230.930099 274.048309,230.930099 281.005066,230.930099 
	C281.005066,234.291962 281.005066,237.217102 281.037537,240.606079 
	C274.671387,241.044739 268.272797,241.019547 261.437073,240.994019 
	C260.999969,240.993683 261.073181,241.062576 261.073181,241.062576 
	C261.047089,237.991348 261.021027,234.920120 260.962463,231.389496 
z"/>
<path fill="#FFFFFF" opacity="1.000000" stroke="none" 
	d="
M190.930923,151.075882 
	C197.506485,151.075882 204.082047,151.075882 210.805664,151.075882 
	C210.805664,154.490646 210.805664,157.547897 210.805664,160.995102 
	C204.369461,160.995102 198.119324,160.995102 191.396698,160.963089 
	C190.924194,160.931076 190.997635,161.000000 191.001343,160.575409 
	C191.026718,157.077209 191.048370,154.003601 191.034988,150.966232 
	C190.999954,151.002457 190.930923,151.075882 190.930923,151.075882 
z"/>
<path fill="#FFFFFF" opacity="1.000000" stroke="none" 
	d="
M260.965607,240.957016 
	C260.931244,244.057571 260.931244,247.194809 260.931244,250.665894 
	C257.858246,250.665894 254.795837,250.665894 251.361633,250.665894 
	C251.361633,247.773026 251.361633,244.600357 251.361633,241.004593 
	C254.279770,241.004593 257.212494,241.004593 260.609192,241.033585 
	C261.073181,241.062576 260.999969,240.993683 260.965607,240.957016 
z"/>
<path fill="#FFFFFF" opacity="1.000000" stroke="none" 
	d="
M191.037506,260.606354 
	C187.996384,261.048370 184.922806,261.026703 181.389633,261.037537 
	C180.930038,257.939697 180.930038,254.809387 180.930038,251.339661 
	C184.247528,251.339661 187.418930,251.339661 191.005051,251.339661 
	C191.005051,254.289612 191.005051,257.216156 191.037506,260.606354 
z"/>
<path fill="#FFFFFF" opacity="1.000000" stroke="none" 
	d="
M211.037506,260.606384 
	C207.996384,261.048370 204.922806,261.026733 201.389633,261.037537 
	C200.930038,257.939697 200.930038,254.809387 200.930038,251.339661 
	C204.247528,251.339661 207.418930,251.339661 211.005051,251.339661 
	C211.005051,254.289612 211.005051,257.216156 211.037506,260.606384 
z"/>
<path fill="#FFFFFF" opacity="1.000000" stroke="none" 
	d="
M191.393570,271.037537 
	C190.951645,267.996399 190.973297,264.922791 190.962479,261.389587 
	C194.003601,260.951660 197.077179,260.973297 200.610367,260.962463 
	C201.069962,264.047699 201.069962,267.165436 201.069962,271.005066 
	C197.923401,271.005066 194.890274,271.005066 191.393570,271.037537 
z"/>
<path fill="#FFFFFF" opacity="1.000000" stroke="none" 
	d="
M260.606354,220.962494 
	C261.048370,224.003616 261.026733,227.077194 261.037537,230.610367 
	C257.939697,231.069962 254.809387,231.069962 251.339661,231.069962 
	C251.339661,227.752472 251.339661,224.581070 251.339661,220.994949 
	C254.289612,220.994949 257.216156,220.994949 260.606354,220.962494 
z"/>
<path fill="#FFFFFF" opacity="1.000000" stroke="none" 
	d="
M180.960892,141.034668 
	C183.999664,141.044434 187.075134,141.019699 190.610321,140.962479 
	C191.045013,144.005219 191.020020,147.080414 190.962982,150.615753 
	C190.930923,151.075882 190.999954,151.002457 190.575378,150.998703 
	C187.077209,150.973297 184.003601,150.951645 180.930008,150.929993 
	C180.930008,150.929993 180.999985,150.999985 181.002533,150.575378 
	C181.026718,147.077194 181.048370,144.003616 181.070007,140.930038 
	C181.070007,140.930038 180.997604,141.000137 180.960892,141.034668 
z"/>
<path fill="#FFFFFF" opacity="1.000000" stroke="none" 
	d="
M161.393646,181.037506 
	C160.951645,177.996384 160.973297,174.922806 160.962463,171.389633 
	C164.060303,170.930038 167.190613,170.930038 170.660339,170.930038 
	C170.660339,174.247528 170.660339,177.418930 170.660339,181.005051 
	C167.710388,181.005051 164.783844,181.005051 161.393646,181.037506 
z"/>
<path fill="#FFFFFF" opacity="1.000000" stroke="none" 
	d="
M240.962494,171.393646 
	C244.003616,170.951645 247.077194,170.973297 250.610367,170.962463 
	C251.069962,174.060303 251.069962,177.190613 251.069962,180.660339 
	C247.752472,180.660339 244.581070,180.660339 240.994949,180.660339 
	C240.994949,177.710388 240.994949,174.783844 240.962494,171.393646 
z"/>
<path fill="#FFFFFF" opacity="1.000000" stroke="none" 
	d="
M200.597900,80.962570 
	C201.069992,84.060326 201.069992,87.190575 201.069992,90.849388 
	C197.754547,90.849388 194.567642,90.849388 190.994247,90.849388 
	C190.994247,94.289246 190.994247,97.215691 190.994003,100.571030 
	C190.993759,100.999916 191.062637,100.926712 191.062637,100.926712 
	C187.991409,100.952820 184.920181,100.978935 181.389496,101.037529 
	C180.930038,97.929367 180.930038,94.788727 180.930038,91.278137 
	C177.832870,91.278137 174.760117,91.278137 171.343567,91.278137 
	C171.343567,87.861343 171.343567,84.797119 171.343567,80.995056 
	C180.740616,80.995056 190.433212,80.995056 200.597900,80.962570 
z"/>
<path fill="#FFFFFF" opacity="1.000000" stroke="none" 
	d="
M161.037415,110.597946 
	C157.996353,111.048378 154.922821,111.026718 151.389679,111.037544 
	C150.951752,101.338104 150.973404,91.606178 150.962570,81.402130 
	C154.067322,80.930000 157.204559,80.930000 161.004944,80.930000 
	C161.004944,90.758583 161.004944,100.442223 161.037415,110.597946 
z"/>
<path fill="#FFFFFF" opacity="1.000000" stroke="none" 
	d="
M169.039093,61.000000 
	C173.169113,61.000000 176.810776,61.000000 180.725006,61.000000 
	C180.725006,64.305244 180.725006,67.377548 180.725006,70.729042 
	C174.363647,70.729042 167.954315,70.729042 161.270767,70.729042 
	C161.270767,67.688095 161.270767,64.614738 161.270767,61.000000 
	C163.670731,61.000000 166.110733,61.000000 169.039093,61.000000 
z"/>
<path fill="#FFFFFF" opacity="1.000000" stroke="none" 
	d="
M151.037506,80.606361 
	C147.996384,81.048355 144.922806,81.026703 141.389633,81.037529 
	C140.930038,77.939697 140.930038,74.809387 140.930038,71.339661 
	C144.247528,71.339661 147.418930,71.339661 151.005051,71.339661 
	C151.005051,74.289627 151.005051,77.216171 151.037506,80.606361 
z"/>
<path fill="#FFFFFF" opacity="1.000000" stroke="none" 
	d="
M51.000153,97.835258 
	C51.000015,82.053398 51.000015,66.758560 51.000015,51.232845 
	C67.730392,51.232845 84.134224,51.232845 100.769470,51.232845 
	C100.769470,67.735115 100.769470,84.138931 100.769470,100.998459 
	C84.889458,100.998459 69.111259,101.036880 53.334900,100.884682 
	C52.548531,100.877098 51.778126,99.214340 51.000153,97.835258 
M72.516518,61.000000 
	C68.746124,61.000000 64.975723,61.000000 61.282196,61.000000 
	C61.282196,71.302986 61.282196,81.040077 61.282196,90.717239 
	C71.304054,90.717239 81.041245,90.717239 90.716675,90.717239 
	C90.716675,80.694695 90.716675,70.957565 90.716675,61.000000 
	C84.793320,61.000000 79.151535,61.000000 72.516518,61.000000 
z"/>
<path fill="#FFFFFF" opacity="1.000000" stroke="none" 
	d="
M272.947693,101.000000 
	C258.817871,101.000000 245.179779,101.000000 231.271454,101.000000 
	C231.271454,84.348892 231.271454,67.945206 231.271454,51.270012 
	C247.654053,51.270012 264.057739,51.270012 280.731445,51.270012 
	C280.731445,67.656982 280.731445,84.060623 280.731445,101.000000 
	C278.314178,101.000000 275.876801,101.000000 272.947693,101.000000 
M254.506302,91.000000 
	C259.936066,91.000000 265.365845,91.000000 270.710846,91.000000 
	C270.710846,80.682571 270.710846,70.945374 270.710846,61.289429 
	C260.682037,61.289429 250.944824,61.289429 241.289703,61.289429 
	C241.289703,71.318527 241.289703,81.055725 241.289703,91.000000 
	C245.554993,91.000000 249.532379,91.000000 254.506302,91.000000 
z"/>
<path fill="#FFFFFF" opacity="1.000000" stroke="none" 
	d="
M51.000000,274.911682 
	C51.000000,260.121338 51.000000,245.819427 51.000000,231.259491 
	C67.675934,231.259491 84.079842,231.259491 100.742554,231.259491 
	C100.742554,247.680069 100.742554,264.083954 100.742554,280.744568 
	C84.315857,280.744568 67.912071,280.744568 51.000000,280.744568 
	C51.000000,278.948212 51.000000,277.174194 51.000000,274.911682 
M91.000000,262.456055 
	C91.000000,255.361389 91.000000,248.266724 91.000000,241.303772 
	C80.654221,241.303772 70.915848,241.303772 61.305206,241.303772 
	C61.305206,251.348694 61.305206,261.087097 61.305206,270.693176 
	C71.351440,270.693176 81.089729,270.693176 91.000000,270.693176 
	C91.000000,268.071594 91.000000,265.755585 91.000000,262.456055 
z"/>
<path fill="#FFFFFF" opacity="1.000000" stroke="none" 
	d="
M81.037506,190.606354 
	C77.996384,191.048370 74.922813,191.026718 71.389633,191.037537 
	C70.930038,187.939697 70.930038,184.809387 70.930038,181.339661 
	C74.247520,181.339661 77.418938,181.339661 81.005058,181.339661 
	C81.005058,184.289612 81.005058,187.216156 81.037506,190.606354 
z"/>
<path fill="#FFFFFF" opacity="1.000000" stroke="none" 
	d="
M190.957092,101.034286 
	C194.057602,101.068649 197.194778,101.068649 200.665924,101.068649 
	C200.665924,104.143745 200.665924,107.208145 200.665924,110.638428 
	C197.772995,110.638428 194.600311,110.638428 191.004608,110.638428 
	C191.004608,107.720177 191.004608,104.787445 191.033630,101.390717 
	C191.062637,100.926712 190.993759,100.999916 190.957092,101.034286 
z"/>
<path fill="#000000" opacity="1.000000" stroke="none" 
	d="
M150.956863,131.034378 
	C154.057404,131.068741 157.194611,131.068741 160.665863,131.068741 
	C160.665863,134.143616 160.665863,137.208008 160.665863,140.638351 
	C157.773041,140.638351 154.600372,140.638351 151.004593,140.638351 
	C151.004593,137.720245 151.004593,134.787521 151.033508,131.390778 
	C151.062424,130.926788 150.993530,131.000015 150.956863,131.034378 
z"/>
<path fill="#000000" opacity="1.000000" stroke="none" 
	d="
M180.606354,140.962494 
	C181.048370,144.003616 181.026718,147.077194 181.037537,150.610367 
	C177.939697,151.069962 174.809387,151.069962 171.339661,151.069962 
	C171.339661,147.752472 171.339661,144.581070 171.339661,140.994949 
	C174.289612,140.994949 177.216156,140.994949 180.606354,140.962494 
z"/>
<path fill="#000000" opacity="1.000000" stroke="none" 
	d="
M180.962479,151.389557 
	C184.003601,150.951645 187.077209,150.973297 190.610413,150.962479 
	C191.048370,154.003601 191.026718,157.077209 191.037537,160.610413 
	C187.996399,161.048355 184.922791,161.026703 181.389603,161.037521 
	C180.951660,157.996368 180.973312,154.922729 180.962479,151.389557 
z"/>
<path fill="#000000" opacity="1.000000" stroke="none" 
	d="
M160.610443,210.962479 
	C161.048355,214.003601 161.026703,217.077179 161.037537,220.610367 
	C157.952301,221.069962 154.834595,221.069962 150.994949,221.069962 
	C150.994949,217.923447 150.994949,214.890350 150.962494,211.393616 
	C154.003662,210.951645 157.077271,210.973297 160.610443,210.962479 
z"/>
<path fill="#000000" opacity="1.000000" stroke="none" 
	d="
M230.969635,229.793945 
	C227.793671,230.602097 224.644150,230.934204 221.230103,231.294220 
	C221.230103,227.640594 221.230103,224.592834 221.230103,221.270264 
	C224.271149,221.270264 227.322433,221.270264 230.996078,221.270264 
	C230.996078,223.863174 230.996078,226.590530 230.969635,229.793945 
z"/>
<path fill="#000000" opacity="1.000000" stroke="none" 
	d="
M160.962463,221.389648 
	C170.661896,220.951752 180.393799,220.973404 190.597855,220.962585 
	C191.069992,224.067413 191.069992,227.204758 191.069992,231.004944 
	C181.241470,231.004944 171.557861,231.004944 161.402100,231.037430 
	C160.951630,227.996338 160.973282,224.922760 160.962463,221.389648 
z"/>
<path fill="#000000" opacity="1.000000" stroke="none" 
	d="
M73.013138,61.000000 
	C79.151535,61.000000 84.793320,61.000000 90.716675,61.000000 
	C90.716675,70.957565 90.716675,80.694695 90.716675,90.717239 
	C81.041245,90.717239 71.304054,90.717239 61.282196,90.717239 
	C61.282196,81.040077 61.282196,71.302986 61.282196,61.000000 
	C64.975723,61.000000 68.746124,61.000000 73.013138,61.000000 
z"/>
<path fill="#000000" opacity="1.000000" stroke="none" 
	d="
M254.008026,91.000000 
	C249.532379,91.000000 245.554993,91.000000 241.289703,91.000000 
	C241.289703,81.055725 241.289703,71.318527 241.289703,61.289429 
	C250.944824,61.289429 260.682037,61.289429 270.710846,61.289429 
	C270.710846,70.945374 270.710846,80.682571 270.710846,91.000000 
	C265.365845,91.000000 259.936066,91.000000 254.008026,91.000000 
z"/>
<path fill="#000000" opacity="1.000000" stroke="none" 
	d="
M91.000000,262.947815 
	C91.000000,265.755585 91.000000,268.071594 91.000000,270.693176 
	C81.089729,270.693176 71.351440,270.693176 61.305206,270.693176 
	C61.305206,261.087097 61.305206,251.348694 61.305206,241.303772 
	C70.915848,241.303772 80.654221,241.303772 91.000000,241.303772 
	C91.000000,248.266724 91.000000,255.361389 91.000000,262.947815 
z"/>
</svg>