<svg version="1.1" id="Layer_1" xmlns="http://www.w3.org/2000/svg" xmlns:xlink="http://www.w3.org/1999/xlink" x="0px" y="0px"
	 width="100%" viewBox="0 0 1330 982" enable-background="new 0 0 1330 982" xml:space="preserve">
<path fill="#FBFBFB" opacity="0" stroke="none"
	d="
M966.000000,983.000000 
	C644.000000,983.000000 322.500000,983.000000 1.000000,983.000000 
	C1.000000,655.666687 1.000000,328.333344 1.000000,1.000000 
	C444.333344,1.000000 887.666687,1.000000 1331.000000,1.000000 
	C1331.000000,328.333344 1331.000000,655.666687 1331.000000,983.000000 
	C1209.500000,983.000000 1088.000000,983.000000 966.000000,983.000000 
M850.500000,794.000000 
	C880.960205,793.671570 911.430481,793.702698 941.875732,792.842896 
	C954.570557,792.484375 967.366028,791.044128 979.848145,788.681763 
	C1015.003174,782.028320 1048.396240,770.270813 1079.736816,752.733276 
	C1117.021606,731.869507 1149.081299,704.992004 1175.923218,671.727844 
	C1201.053833,640.584473 1219.854614,606.047485 1232.357544,568.111755 
	C1239.112183,547.617493 1244.149414,526.671082 1246.024658,505.091583 
	C1247.114502,492.551239 1248.537720,480.003601 1248.793579,467.438538 
	C1248.998657,457.365509 1248.089600,447.212646 1246.922852,437.182709 
	C1245.318970,423.393860 1243.615234,409.564636 1240.874634,395.970367 
	C1234.255127,363.136230 1222.150024,332.225677 1205.431030,303.266693 
	C1188.646851,274.194489 1168.421509,247.680634 1142.961670,225.558594 
	C1131.454346,215.559845 1119.756714,205.668320 1107.363525,196.823669 
	C1079.278931,176.780533 1048.406128,162.238327 1015.374084,152.178528 
	C986.636108,143.426437 957.189331,138.241913 927.291687,138.219604 
	C778.335144,138.108444 629.377869,138.591461 480.421753,139.112198 
	C468.708710,139.153137 456.891968,140.396454 445.313019,142.259476 
	C406.935974,148.434265 370.720886,160.945374 336.728088,180.015778 
	C298.372589,201.533722 265.772583,229.661499 238.509628,264.035187 
	C216.209671,292.151428 199.269760,323.258087 187.422150,357.141327 
	C174.761307,393.350189 168.279968,430.574493 169.023209,468.977112 
	C169.161240,476.108917 169.201935,483.289520 170.073441,490.350616 
	C172.017059,506.098236 173.497833,521.998901 176.948273,537.439209 
	C180.877594,555.022400 186.745071,572.172485 191.879944,589.889648 
	C175.369446,599.741638 161.174377,613.164978 150.891220,630.602722 
	C137.166504,653.876526 131.586929,679.035461 135.310623,705.659912 
	C139.304169,734.213501 151.985962,758.506409 174.072723,777.705444 
	C200.754303,800.898560 231.830292,810.190552 266.406097,805.653870 
	C297.997375,801.508850 324.028687,786.348083 343.278992,760.465393 
	C344.960571,758.204468 346.574707,757.619202 349.178833,758.998535 
	C352.699219,760.863159 356.415070,762.356812 360.034271,764.037231 
	C403.150513,784.057373 448.566010,793.889221 496.013489,793.950195 
	C613.842163,794.101685 731.671143,794.000000 850.500000,794.000000 
M44.937172,826.732849 
	C46.244534,844.520874 54.871220,858.180908 69.300636,868.044312 
	C80.563774,875.743408 93.043198,878.704956 107.006493,877.285156 
	C120.515755,875.911621 131.796051,870.364197 140.888107,861.193176 
	C152.139893,849.843750 157.524734,835.800415 157.197815,819.268311 
	C156.753067,796.775879 141.851715,777.143677 123.308594,769.359009 
	C93.846893,756.990662 61.796307,770.071899 48.919529,799.290649 
	C45.217682,807.690552 43.262280,816.549744 44.937172,826.732849 
z"/>
<path fill="#DDDBE5" opacity="1.000000" stroke="none" 
	d="
M850.000000,794.000000 
	C731.671143,794.000000 613.842163,794.101685 496.013489,793.950195 
	C448.566010,793.889221 403.150513,784.057373 360.034271,764.037231 
	C356.415070,762.356812 352.699219,760.863159 349.178833,758.998535 
	C346.574707,757.619202 344.960571,758.204468 343.278992,760.465393 
	C324.028687,786.348083 297.997375,801.508850 266.406097,805.653870 
	C231.830292,810.190552 200.754303,800.898560 174.072723,777.705444 
	C151.985962,758.506409 139.304169,734.213501 135.310623,705.659912 
	C131.586929,679.035461 137.166504,653.876526 150.891220,630.602722 
	C161.174377,613.164978 175.369446,599.741638 191.879944,589.889648 
	C186.745071,572.172485 180.877594,555.022400 176.948273,537.439209 
	C173.497833,521.998901 172.017059,506.098236 170.073441,490.350616 
	C169.201935,483.289520 169.161240,476.108917 169.023209,468.977112 
	C168.279968,430.574493 174.761307,393.350189 187.422150,357.141327 
	C199.269760,323.258087 216.209671,292.151428 238.509628,264.035187 
	C265.772583,229.661499 298.372589,201.533722 336.728088,180.015778 
	C370.720886,160.945374 406.935974,148.434265 445.313019,142.259476 
	C456.891968,140.396454 468.708710,139.153137 480.421753,139.112198 
	C629.377869,138.591461 778.335144,138.108444 927.291687,138.219604 
	C957.189331,138.241913 986.636108,143.426437 1015.374084,152.178528 
	C1048.406128,162.238327 1079.278931,176.780533 1107.363525,196.823669 
	C1119.756714,205.668320 1131.454346,215.559845 1142.961670,225.558594 
	C1168.421509,247.680634 1188.646851,274.194489 1205.431030,303.266693 
	C1222.150024,332.225677 1234.255127,363.136230 1240.874634,395.970367 
	C1243.615234,409.564636 1245.318970,423.393860 1246.922852,437.182709 
	C1248.089600,447.212646 1248.998657,457.365509 1248.793579,467.438538 
	C1248.537720,480.003601 1247.114502,492.551239 1246.024658,505.091583 
	C1244.149414,526.671082 1239.112183,547.617493 1232.357544,568.111755 
	C1219.854614,606.047485 1201.053833,640.584473 1175.923218,671.727844 
	C1149.081299,704.992004 1117.021606,731.869507 1079.736816,752.733276 
	C1048.396240,770.270813 1015.003174,782.028320 979.848145,788.681763 
	C967.366028,791.044128 954.570557,792.484375 941.875732,792.842896 
	C911.430481,793.702698 880.960205,793.671570 850.000000,794.000000 
M908.728821,406.173065 
	C876.674194,421.555847 858.456970,457.633514 862.759766,491.241486 
	C868.387878,535.201416 910.161682,568.958923 954.250061,563.136963 
	C975.029236,560.393066 992.649658,551.953979 1006.513489,536.079712 
	C1024.619263,515.348511 1031.306519,491.526733 1026.130981,464.370300 
	C1016.113586,411.807434 957.507996,382.392792 908.728821,406.173065 
M758.104126,548.616516 
	C782.459961,530.593811 794.526489,506.660919 793.117126,476.159332 
	C792.036926,452.781158 782.346741,433.651978 764.898071,418.297363 
	C746.910095,402.468201 725.620544,395.617798 702.147766,398.305237 
	C671.544189,401.809143 649.017151,417.936249 635.463867,445.928009 
	C621.067871,475.660309 627.116089,514.132690 650.303467,537.661194 
	C669.608093,557.249695 692.967285,566.285217 720.658447,563.047363 
	C734.141479,561.470886 746.435242,556.859924 758.104126,548.616516 
M434.432495,551.041321 
	C451.310455,561.001770 469.153351,565.789612 489.005676,563.077637 
	C540.238403,556.078979 575.503540,504.149597 555.584839,450.894287 
	C541.258667,412.591431 501.013977,390.361481 458.789307,400.251678 
	C413.139954,410.944092 386.727509,457.925720 397.755981,500.484467 
	C403.295776,521.862549 415.382477,538.552917 434.432495,551.041321 
z"/>
<path fill="#DDDBE5" opacity="1.000000" stroke="none" 
	d="
M44.867622,826.293762 
	C43.262280,816.549744 45.217682,807.690552 48.919529,799.290649 
	C61.796307,770.071899 93.846893,756.990662 123.308594,769.359009 
	C141.851715,777.143677 156.753067,796.775879 157.197815,819.268311 
	C157.524734,835.800415 152.139893,849.843750 140.888107,861.193176 
	C131.796051,870.364197 120.515755,875.911621 107.006493,877.285156 
	C93.043198,878.704956 80.563774,875.743408 69.300636,868.044312 
	C54.871220,858.180908 46.244534,844.520874 44.867622,826.293762 
z"/>
<path fill="#A5A3AC" opacity="1.000000" stroke="none" 
	d="
M909.074951,406.024780 
	C957.507996,382.392792 1016.113586,411.807434 1026.130981,464.370300 
	C1031.306519,491.526733 1024.619263,515.348511 1006.513489,536.079712 
	C992.649658,551.953979 975.029236,560.393066 954.250061,563.136963 
	C910.161682,568.958923 868.387878,535.201416 862.759766,491.241486 
	C858.456970,457.633514 876.674194,421.555847 909.074951,406.024780 
z"/>
<path fill="#A5A3AC" opacity="1.000000" stroke="none" 
	d="
M757.821777,548.838867 
	C746.435242,556.859924 734.141479,561.470886 720.658447,563.047363 
	C692.967285,566.285217 669.608093,557.249695 650.303467,537.661194 
	C627.116089,514.132690 621.067871,475.660309 635.463867,445.928009 
	C649.017151,417.936249 671.544189,401.809143 702.147766,398.305237 
	C725.620544,395.617798 746.910095,402.468201 764.898071,418.297363 
	C782.346741,433.651978 792.036926,452.781158 793.117126,476.159332 
	C794.526489,506.660919 782.459961,530.593811 757.821777,548.838867 
z"/>
<path fill="#67656E" opacity="1.000000" stroke="none" 
	d="
M434.117065,550.865967 
	C415.382477,538.552917 403.295776,521.862549 397.755981,500.484467 
	C386.727509,457.925720 413.139954,410.944092 458.789307,400.251678 
	C501.013977,390.361481 541.258667,412.591431 555.584839,450.894287 
	C575.503540,504.149597 540.238403,556.078979 489.005676,563.077637 
	C469.153351,565.789612 451.310455,561.001770 434.117065,550.865967 
M461.890930,402.165466 
	C443.689697,406.360168 428.599884,415.439331 416.503204,429.855835 
	C394.670227,455.875763 391.474091,492.471375 409.236145,521.341492 
	C427.190033,550.523438 454.000427,564.290222 488.889069,560.074036 
	C512.975586,557.163330 531.514954,545.051819 545.021973,525.334900 
	C555.564941,509.944702 559.609985,492.755829 558.150391,473.964417 
	C556.289490,450.007355 545.121948,431.441528 526.730408,416.926300 
	C507.842682,402.019531 486.058533,398.458862 461.890930,402.165466 
z"/>
<path fill="#7B7981" opacity="1.000000" stroke="none" 
	d="
M462.315125,402.097473 
	C486.058533,398.458862 507.842682,402.019531 526.730408,416.926300 
	C545.121948,431.441528 556.289490,450.007355 558.150391,473.964417 
	C559.609985,492.755829 555.564941,509.944702 545.021973,525.334900 
	C531.514954,545.051819 512.975586,557.163330 488.889069,560.074036 
	C454.000427,564.290222 427.190033,550.523438 409.236145,521.341492 
	C391.474091,492.471375 394.670227,455.875763 416.503204,429.855835 
	C428.599884,415.439331 443.689697,406.360168 462.315125,402.097473 
z"/>
</svg>