<svg version="1.1" id="Layer_1" xmlns="http://www.w3.org/2000/svg" xmlns:xlink="http://www.w3.org/1999/xlink" x="0px" y="0px"
	 width="100%" viewBox="0 0 1024 576" enable-background="new 0 0 1024 576" xml:space="preserve">
<path fill="#000000" opacity="1.000000" stroke="none" 
	d="
M447.468658,577.000000 
	C436.973389,571.703186 428.330231,564.922974 422.591675,554.856262 
	C412.069092,536.397156 411.596344,517.578064 422.048737,499.257690 
	C432.310120,481.272125 448.499725,471.910461 469.328766,471.722809 
	C501.373871,471.434113 526.313538,496.574585 525.138123,528.612061 
	C524.405029,548.592834 514.820740,564.055420 497.434631,574.372803 
	C496.148102,575.136230 494.820892,575.830994 493.256287,576.778809 
	C477.979095,577.000000 462.958221,577.000000 447.468658,577.000000 
M472.101715,563.374023 
	C494.299896,561.976746 508.104279,542.032227 506.787140,524.924683 
	C505.648621,510.137543 498.657379,499.221100 485.222961,493.261078 
	C471.922485,487.360413 458.737854,488.635437 447.147156,497.800873 
	C434.364075,507.909241 429.980774,523.785522 435.169434,538.558838 
	C440.558777,553.903625 453.893982,563.117798 472.101715,563.374023 
z"/>
<path fill="#000000" opacity="1.000000" stroke="none" 
	d="
M771.468628,577.000000 
	C769.909851,575.139587 767.855286,574.605042 766.184204,573.577393 
	C744.992859,560.544922 735.103210,534.656555 742.219910,510.723816 
	C749.530823,486.137970 771.814575,470.788452 798.908630,471.675446 
	C822.149719,472.436340 843.690430,490.697662 848.995300,514.136780 
	C854.311340,537.624817 844.232605,561.299622 823.598938,573.811829 
	C822.183899,574.669922 820.800598,575.580261 819.201294,576.733154 
	C803.312439,577.000000 787.624878,577.000000 771.468628,577.000000 
M817.361389,555.896851 
	C833.039185,542.573364 836.478394,524.176880 826.474609,507.149902 
	C818.003967,492.732330 798.265503,486.016388 782.348083,492.135834 
	C765.393250,498.654053 755.271606,516.292969 758.786011,533.197144 
	C764.379089,560.099731 793.554688,571.734375 817.361389,555.896851 
z"/>
<path fill="#000000" opacity="1.000000" stroke="none" 
	d="
M854.000000,87.010788 
	C792.507996,86.970337 731.512634,87.313805 670.524841,86.786148 
	C597.372742,86.153259 524.218811,86.471504 451.069977,85.795166 
	C432.913269,85.627289 414.753418,85.510956 396.595734,85.305954 
	C389.116882,85.221527 384.792023,81.864830 384.758575,76.100006 
	C384.725311,70.362274 389.197510,66.667564 396.505951,66.737030 
	C422.329681,66.982506 448.151917,67.496002 473.975830,67.587570 
	C540.299988,67.822754 606.627991,67.525894 672.948303,68.124847 
	C732.923706,68.666519 792.896240,68.672813 852.870117,68.574638 
	C880.193787,68.529907 907.516785,67.991348 934.839661,67.646370 
	C936.495056,67.625473 938.158325,67.409218 939.798706,67.158157 
	C947.727478,65.944672 953.107056,71.298698 951.806824,79.294052 
	C949.347168,94.419060 945.253540,109.168869 941.342896,123.955727 
	C919.816650,205.350327 896.930908,286.367798 873.746765,367.301880 
	C871.456360,375.297821 868.933411,377.104401 860.472778,377.112274 
	C824.644104,377.145691 788.815430,377.141022 752.986755,377.143188 
	C692.162964,377.146912 631.339233,377.148895 570.515442,377.144836 
	C517.856873,377.141327 465.198120,377.054016 412.540070,377.212646 
	C405.888916,377.232666 401.780457,374.729767 398.492432,369.017365 
	C363.007019,307.367310 327.376190,245.800903 291.740387,184.237534 
	C263.031830,134.641449 234.230911,85.098785 205.581192,35.468792 
	C203.408859,31.705629 200.922943,30.155516 196.456909,30.241697 
	C152.649689,31.087055 108.838013,31.698298 65.028412,32.425102 
	C59.868210,32.510712 54.714062,33.057404 49.555035,33.093456 
	C42.655624,33.141674 38.345833,29.409164 38.299507,23.709675 
	C38.254860,18.217333 42.360935,14.782732 49.215282,14.665171 
	C89.192749,13.979507 129.174240,13.470037 169.145828,12.535522 
	C181.136398,12.255187 193.128967,12.139255 205.116150,11.807966 
	C210.584595,11.656836 214.216400,13.879298 216.909637,18.543163 
	C246.483017,69.755157 276.118744,120.931175 305.749603,172.109955 
	C336.383057,225.020309 367.029327,277.923248 397.671204,330.828705 
	C402.095428,338.467438 406.750244,345.984436 410.857971,353.789551 
	C412.863281,357.599915 415.380219,358.771576 419.543579,358.761810 
	C472.203247,358.638153 524.863281,358.672424 577.523193,358.672699 
	C668.344910,358.673187 759.166687,358.631775 849.988159,358.797821 
	C855.359497,358.807648 857.711853,357.395203 859.243347,351.984894 
	C879.951599,278.830078 900.719360,205.693054 920.210999,132.201172 
	C923.666504,119.172569 927.013489,106.115044 930.364685,93.059090 
	C930.851440,91.162941 931.079773,89.200478 931.582031,86.411400 
	C905.579285,85.710197 880.037292,87.237686 854.000000,87.010788 
z"/>
<path fill="#000000" opacity="1.000000" stroke="none" 
	d="
M630.000000,422.906799 
	C718.143616,422.913055 805.787170,422.918182 893.430786,422.932190 
	C896.088684,422.932617 898.769653,422.718536 901.362732,423.583588 
	C905.683350,425.024902 908.110840,428.158661 907.900940,432.560394 
	C907.692566,436.930939 905.097290,440.035614 900.627930,440.963501 
	C898.698120,441.364136 896.651062,441.280029 894.657227,441.280182 
	C723.702026,441.294647 552.746765,441.296143 381.791565,441.293335 
	C379.959686,441.293304 378.088715,441.451630 376.303711,441.143585 
	C371.934448,440.389587 369.003998,437.997711 368.588287,433.305420 
	C368.141235,428.259918 370.440979,424.619507 375.135956,423.543671 
	C377.693207,422.957672 380.416473,422.933258 383.064972,422.932312 
	C465.209991,422.902771 547.354980,422.907501 630.000000,422.906799 
z"/>
</svg>