<svg version="1.1" id="Layer_1" xmlns="http://www.w3.org/2000/svg" xmlns:xlink="http://www.w3.org/1999/xlink" x="0px" y="0px"
	 width="100%" viewBox="0 0 864 896" enable-background="new 0 0 864 896" xml:space="preserve">
<path fill="#FFFFFF" opacity="1.000000" stroke="none"
	d="
M454.679749,674.628662 
	C470.305237,663.525635 487.076019,657.386047 506.185150,657.501526 
	C519.110779,657.579529 531.788391,658.344299 543.974182,662.942444 
	C546.523987,663.904602 550.414307,664.491699 550.176270,667.769470 
	C549.927490,671.194824 545.941467,670.726379 543.315979,671.320251 
	C528.081177,674.766418 512.550049,676.877319 497.667694,681.912170 
	C474.071289,689.895020 456.636108,705.466187 443.026367,725.805969 
	C438.677307,732.305603 434.647034,739.018738 430.286133,745.510071 
	C426.409485,751.280457 425.513184,751.365662 420.260071,746.976135 
	C410.909485,739.162720 401.217743,731.883789 390.204834,726.498657 
	C372.824127,717.999695 354.966919,718.134399 336.705902,723.069031 
	C323.793610,726.558289 311.546234,731.683777 299.464905,737.306580 
	C297.631165,738.159973 295.538910,740.174255 293.586273,738.026184 
	C291.656647,735.903503 293.177002,733.624512 294.345093,731.612793 
	C309.944763,704.745972 340.464722,684.957703 378.154449,693.898621 
	C390.222198,696.761414 401.777557,700.809265 412.910492,706.061157 
	C416.761749,707.878113 419.442993,707.549133 422.228973,704.668213 
	C427.317932,699.406006 432.447388,694.182800 437.580383,688.963318 
	C442.733765,683.723083 448.410034,679.100647 454.679749,674.628662 
z"/>
<path fill="#FFFFFF" opacity="1.000000" stroke="none"
	d="
M571.565552,355.073120 
	C579.203735,357.084137 586.846252,357.416107 593.620056,360.914368 
	C595.319153,361.791809 597.912048,362.218384 597.811279,364.642151 
	C597.708069,367.122711 595.126038,367.406555 593.278381,367.804108 
	C582.401062,370.144287 571.464539,372.212799 560.600037,374.608673 
	C531.179993,381.096436 509.149017,397.884888 493.320587,423.222992 
	C489.969727,428.586945 486.690521,433.998657 483.215088,439.280945 
	C479.859192,444.381592 478.444397,444.624969 473.806732,440.781158 
	C464.561584,433.118530 455.045410,425.944336 444.153320,420.655914 
	C426.934113,412.295502 409.437714,413.161102 391.635895,418.202759 
	C380.062866,421.480347 369.082123,426.220825 358.156281,431.149628 
	C356.452972,431.917999 354.452362,433.638763 352.632660,431.855316 
	C350.723236,429.983917 351.942932,427.710846 353.020325,425.881470 
	C365.915009,403.986755 390.409424,385.103455 421.159119,388.016449 
	C436.988464,389.516052 451.760712,394.262604 465.897095,401.118408 
	C470.166656,403.189056 472.982635,402.506012 476.062836,399.427155 
	C484.063965,391.429657 491.610474,382.991028 500.379730,375.745789 
	C519.538452,359.916656 541.340759,352.790039 566.131287,354.867706 
	C567.788391,355.006592 569.459229,354.981415 571.565552,355.073120 
z"/>
<path fill="#FFFFFF" opacity="1.000000" stroke="none"
	d="
M711.721008,552.731079 
	C705.399048,558.610413 699.337219,564.248352 693.319031,569.845703 
	C695.400269,573.633667 699.243225,574.451233 701.407410,577.242615 
	C705.079529,581.978882 704.293091,585.135193 698.414551,585.875671 
	C688.325562,587.146362 680.467285,591.388794 675.252808,600.351074 
	C673.312561,603.685608 670.211792,603.226013 667.423035,601.380493 
	C662.379089,598.042542 661.080994,593.073792 661.882141,587.380981 
	C662.087402,585.921936 662.591003,584.504883 663.007690,582.872437 
	C657.022034,579.285828 650.261902,577.946594 643.887878,575.725098 
	C627.688721,570.079224 611.049255,566.108154 594.134460,563.119568 
	C581.377502,560.865479 568.581787,558.621277 556.122375,554.940186 
	C553.663330,554.213684 550.813232,553.708557 549.999451,550.514038 
	C551.289551,547.831543 553.965942,547.502869 556.303223,546.978699 
	C591.488037,539.087280 625.657959,540.931030 658.388306,557.459778 
	C667.873169,562.249573 668.296997,561.635620 675.911072,554.063232 
	C688.065674,541.975159 700.178223,529.844971 713.483276,518.948303 
	C727.775513,507.243103 744.669250,502.962433 762.367004,500.839813 
	C769.121277,500.029755 775.936157,499.213898 782.783508,499.698029 
	C784.931946,499.849976 787.097961,500.080841 789.195374,500.547638 
	C792.148132,501.204742 792.303528,502.968903 790.155762,504.690521 
	C787.832581,506.552643 785.302063,508.207550 782.698425,509.659729 
	C766.707764,518.578430 750.044739,526.249634 734.401428,535.823792 
	C726.413818,540.712402 718.979431,546.295227 711.721008,552.731079 
z"/>
<path fill="lightslategray" opacity="1.000000" stroke="none"
	d="
M253.945099,550.719727 
	C265.824219,550.918640 276.423187,554.023560 286.225647,559.747742 
	C288.518982,561.086914 292.270355,562.249939 291.233887,565.639343 
	C290.386597,568.410034 286.845093,568.043213 284.201630,568.226807 
	C268.589996,569.310852 253.688980,573.010071 239.655640,580.083191 
	C223.436859,588.257812 212.175003,601.380981 202.963394,616.560425 
	C200.027161,621.398926 197.404953,626.427551 194.484665,631.276245 
	C191.643341,635.993835 189.663361,636.127197 186.375122,631.654785 
	C181.544052,625.083923 177.236481,618.126038 171.628128,612.138916 
	C156.151947,595.617493 137.817230,589.635742 115.984276,597.368225 
	C106.602722,600.690857 98.593872,606.415955 91.190681,612.995239 
	C87.830658,615.981262 84.464996,618.961243 81.080093,621.918945 
	C79.958000,622.899475 78.717522,624.199219 77.145378,623.172119 
	C75.384331,622.021667 76.064072,620.253235 76.612236,618.652283 
	C79.133392,611.289001 83.385803,604.883850 88.223335,598.943298 
	C100.462624,583.913330 114.502045,571.377686 134.697189,568.529053 
	C155.533661,565.590027 172.434448,572.068542 184.318497,589.989075 
	C184.960007,590.956482 185.546524,591.987244 186.915527,592.390564 
	C189.331451,592.013306 190.011673,589.669495 191.223785,588.011536 
	C201.954681,573.333496 215.223038,561.770325 231.993027,554.440491 
	C238.846985,551.444763 246.062454,550.550659 253.945099,550.719727 
z"/>
<path fill="gray" opacity="1.000000" stroke="none"
	d="
M220.351746,346.145264 
	C218.022476,349.899719 216.019180,349.992645 213.312103,346.739868 
	C207.002686,339.158600 199.701248,332.616516 191.782578,326.696320 
	C174.356140,313.667999 159.981400,314.545471 141.006546,326.266815 
	C137.342285,328.530365 134.175720,331.586426 130.671402,334.127808 
	C129.014862,335.329163 127.210136,337.661652 125.014091,335.975555 
	C122.883942,334.340057 124.466064,331.793732 125.181320,329.963562 
	C130.195816,317.132690 138.726501,307.129852 151.593018,302.107361 
	C174.034668,293.347198 194.994843,295.688843 213.186798,312.767883 
	C213.532013,313.092010 214.027313,313.256226 214.470795,313.505280 
	C228.706985,293.327393 245.849365,278.759216 272.726501,283.897034 
	C279.723969,285.234650 286.682007,287.492157 291.514954,293.325623 
	C290.182159,295.570587 288.532501,295.173584 287.117218,295.150665 
	C257.691467,294.674683 238.113373,309.256165 225.854935,335.099945 
	C224.142761,338.709595 222.312363,342.263184 220.351746,346.145264 
z"/>
<path fill="gray" opacity="1.000000" stroke="none"
	d="
M385.319183,86.030228 
	C401.185089,82.573959 416.436920,82.043190 430.961639,89.710342 
	C434.097198,91.365509 437.583710,92.774368 439.006866,96.444626 
	C437.548798,98.495232 435.586945,98.082497 433.832520,98.021889 
	C398.251038,96.792679 371.784241,113.506447 350.444580,140.325424 
	C348.889771,142.279495 347.488586,144.355667 345.937683,146.313019 
	C342.992157,150.030502 341.341919,149.949982 338.879211,145.893250 
	C336.116272,141.341888 333.610199,136.628998 330.729523,132.155655 
	C318.757690,113.564957 306.734894,111.556862 283.929932,118.174500 
	C280.589813,119.143753 277.421204,120.697258 274.148102,121.912758 
	C273.760773,122.056602 273.213562,121.770096 271.539215,121.462166 
	C274.939056,111.415565 282.130585,105.373779 290.811981,101.255447 
	C312.971558,90.743271 329.343292,99.056084 342.026184,119.537766 
	C353.868866,103.989861 366.640289,91.357887 385.319183,86.030228 
z"/>
</svg>