<svg version="1.1" id="Layer_1" xmlns="http://www.w3.org/2000/svg" xmlns:xlink="http://www.w3.org/1999/xlink" x="0px" y="0px"
	 width="100%" viewBox="0 0 1024 784" enable-background="new 0 0 1024 784" xml:space="preserve">
<path fill="#000000" opacity="1.000000" stroke="none" 
	d="
M330.897156,436.000000 
	C330.819733,328.846985 330.760986,222.193954 330.608002,115.541061 
	C330.600769,110.505806 331.469330,106.021172 334.635925,102.001541 
	C337.868896,97.897728 341.525055,97.716118 344.921143,101.715187 
	C346.864594,104.003685 347.311035,106.692581 347.370117,109.630722 
	C348.191071,150.446808 348.401855,191.266434 348.370514,232.089905 
	C348.304321,318.401367 348.444733,404.713226 348.219788,491.024170 
	C348.178986,506.687622 348.575592,522.321228 348.956116,537.967285 
	C349.052277,541.921143 350.695526,544.447571 354.112213,546.337219 
	C370.164825,555.215088 386.275024,553.129395 400.346771,539.746460 
	C405.399689,534.940979 409.783447,529.429504 414.446259,524.216736 
	C418.699524,519.461731 420.037384,519.344849 424.106598,524.422119 
	C432.026581,534.303894 441.532745,541.931335 453.906738,545.248718 
	C469.226562,549.355835 483.641296,546.746399 496.910645,538.180176 
	C507.547791,531.313110 516.208008,522.382446 523.272400,511.892487 
	C524.203003,510.510651 525.035400,509.055328 526.047852,507.737488 
	C528.991943,503.905334 531.001709,503.905365 533.631714,508.093079 
	C538.243347,515.435852 542.846802,522.754822 548.698303,529.217773 
	C556.255676,537.564819 564.619446,544.271606 576.501038,545.275452 
	C582.399597,545.773743 587.693542,544.348633 592.886414,541.946777 
	C603.885986,536.859192 612.271851,528.532715 620.219360,519.704773 
	C623.672852,515.868774 627.124817,511.996948 630.181702,507.849701 
	C632.500488,504.703888 634.464844,505.260162 636.600403,507.624847 
	C639.722778,511.082123 642.541992,514.827698 645.804138,518.141541 
	C656.310730,528.814819 668.424438,536.675720 683.537231,539.188538 
	C687.693970,539.879700 691.851624,539.839722 695.987427,539.590149 
	C701.199463,539.275696 701.622681,535.222412 701.742615,531.229004 
	C702.338684,511.376801 699.691040,491.930054 692.764587,473.335052 
	C670.601929,413.835785 629.812134,373.597565 567.619934,358.402771 
	C515.527283,345.675476 466.364777,354.635620 422.333862,386.328918 
	C412.288971,393.559174 401.409271,394.562103 389.981415,394.522583 
	C388.887817,391.411591 390.594025,389.945709 392.203125,388.502502 
	C420.484528,363.136688 452.733795,345.268646 490.526886,339.395538 
	C553.180054,329.659149 609.218872,344.072662 656.527039,387.633850 
	C687.139832,415.822021 707.016785,450.293732 714.615112,491.247742 
	C726.348572,554.489014 711.559326,610.875793 668.649902,659.199280 
	C638.032959,693.679260 599.261230,713.855652 553.960999,720.896179 
	C464.999207,734.722473 380.179108,684.644104 346.652954,604.265991 
	C335.918213,578.529785 330.946686,551.760376 330.906952,523.986084 
	C330.865234,494.824127 330.897491,465.662018 330.897156,436.000000 
M695.834290,556.561584 
	C691.782471,559.774963 687.627197,562.839722 683.023254,565.233093 
	C667.516052,573.294556 652.256531,570.516724 640.560425,557.648315 
	C639.040161,555.975708 638.178833,553.618652 635.469788,552.487366 
	C622.592407,569.800232 607.822998,584.971985 584.806396,586.915649 
	C561.671631,588.869324 544.924683,575.854187 529.463257,560.462036 
	C514.381775,577.660156 497.312469,590.478333 474.051239,591.707214 
	C450.391296,592.957153 432.167297,582.051025 416.949982,564.118958 
	C397.510315,585.593445 376.105774,583.187866 353.153107,569.428223 
	C359.199799,594.358032 369.275940,616.030212 384.028625,635.502625 
	C386.375061,638.599792 389.740417,639.854065 393.704773,639.747131 
	C419.089203,639.062378 439.950958,628.689026 457.198120,610.395081 
	C463.309235,603.913086 463.688354,603.955017 469.817932,610.770020 
	C477.870148,619.722717 486.570892,627.848511 496.787201,634.397095 
	C519.680420,649.071533 543.387695,649.116333 564.518799,634.053772 
	C573.748169,627.474976 580.788025,618.866211 586.890076,609.417175 
	C591.046570,602.980713 592.813232,602.967163 597.169922,609.045471 
	C603.087585,617.301880 608.739929,625.768494 615.691833,633.230408 
	C631.564514,650.267639 657.575745,649.223755 669.832520,630.958191 
	C679.715820,616.229553 687.837097,600.601990 693.186890,583.615967 
	C696.174255,574.130920 698.641785,564.545044 699.745117,554.594910 
	C697.918030,554.365662 697.380615,555.697510 695.834290,556.561584 
M601.964172,666.718445 
	C598.758057,664.424438 595.552002,662.130432 592.078003,659.644714 
	C573.004333,677.802429 550.639465,687.646118 524.314148,686.945862 
	C497.339783,686.228455 477.221222,672.604736 460.980560,650.954590 
	C450.536041,665.665710 436.906342,672.002686 418.266327,668.829590 
	C472.262909,713.826904 565.551941,720.474487 626.370972,672.348450 
	C617.774658,672.583801 609.869873,671.191650 601.964172,666.718445 
z"/>
</svg>