<svg width="15" height="15" viewBox="0 0 15 15" fill="none" xmlns="http://www.w3.org/2000/svg">
  <path
          fill-rule="evenodd"
          clip-rule="evenodd"
          stroke-width="0.5"
          d="M2.29289 11.2929C2.10536 11.4804 2.10536 11.8047 2.29289 11.9922C2.48043 12.1797 2.80467 12.1797 2.9922 11.9922L6.4922 8.4922C6.67973 8.30467 6.67973 7.98043 6.4922 7.79289L2.9922 4.29289C2.80467 4.10536 2.48043 4.10536 2.29289 4.29289C2.10536 4.48043 2.10536 4.80467 2.29289 4.9922L5.58579 8.285L2.29289 11.2929ZM8.29289 11.2929C8.10536 11.4804 8.10536 11.8047 8.29289 11.9922C8.48043 12.1797 8.80467 12.1797 8.9922 11.9922L12.4922 8.4922C12.6797 8.30467 12.6797 7.98043 12.4922 7.79289L8.9922 4.29289C8.80467 4.10536 8.48043 4.10536 8.29289 4.29289C8.10536 4.48043 8.10536 4.80467 8.29289 4.9922L11.5858 8.285L8.29289 11.2929Z"
          fill="currentColor"
  />
</svg>
