<svg version="1.1" xmlns="http://www.w3.org/2000/svg" viewBox="0 0 1040 1380" width="1040" height="1380">
  <rect x="0" y="0" width="1040" height="1380" fill="transparent"></rect><g stroke-linecap="round" transform="translate(10 10) rotate(0 510 680)"><path d="M0 0 L1020 0 L1020 1360 L0 1360" stroke="none" stroke-width="0" fill="#FFF"></path><path d="M0 0 C296.82 0, 593.64 0, 1020 0 M0 0 C398.1 0, 796.2 0, 1020 0 M1020 0 C1020 371.59, 1020 743.17, 1020 1360 M1020 0 C1020 462.63, 1020 925.27, 1020 1360 M1020 1360 C785.59 1360, 551.18 1360, 0 1360 M1020 1360 C808.83 1360, 597.67 1360, 0 1360 M0 1360 C0 935.63, 0 511.26, 0 0 M0 1360 C0 975.13, 0 590.26, 0 0" stroke="#d5d7dc" stroke-width="2" fill="none"></path></g><g stroke-linecap="round" transform="translate(30 210) rotate(0 490 570)"><path d="M0 0 L980 0 L980 1140 L0 1140" stroke="none" stroke-width="0" fill="#f1f3f4"></path><path d="M0 0 C243.85 0, 487.69 0, 980 0 M0 0 C317.66 0, 635.32 0, 980 0 M980 0 C980 275.94, 980 551.88, 980 1140 M980 0 C980 230.1, 980 460.2, 980 1140 M980 1140 C753.85 1140, 527.69 1140, 0 1140 M980 1140 C599.8 1140, 219.6 1140, 0 1140 M0 1140 C0 697.17, 0 254.34, 0 0 M0 1140 C0 836.32, 0 532.65, 0 0" stroke="#FFFFFF" stroke-width="2" fill="none"></path></g><g stroke-opacity="0.8" fill-opacity="0.8" transform="translate(50 230) rotate(0 95.5 11.5)"><text x="0" y="19" font-family="Helvetica, Segoe UI Emoji" font-size="20px" fill="#202124" text-anchor="start" style="white-space: pre;" direction="ltr">Google Cloud Project</text></g><g stroke-linecap="round" transform="translate(50 350) rotate(0 200 490)"><path d="M0 0 L400 0 L400 980 L0 980" stroke="none" stroke-width="0" fill="#d2e3fc"></path><path d="M0 0 C128.25 0, 256.49 0, 400 0 M0 0 C108.04 0, 216.09 0, 400 0 M400 0 C400 332.71, 400 665.42, 400 980 M400 0 C400 214.05, 400 428.11, 400 980 M400 980 C274.19 980, 148.37 980, 0 980 M400 980 C312.86 980, 225.72 980, 0 980 M0 980 C0 625.55, 0 271.1, 0 0 M0 980 C0 613.6, 0 247.2, 0 0" stroke="#4285f4" stroke-width="2" fill="none"></path></g><g stroke-linecap="round" transform="translate(610 690) rotate(0 190 290)"><path d="M0 0 L380 0 L380 580 L0 580" stroke="none" stroke-width="0" fill="#d2e3fc"></path><path d="M0 0 C95.25 0, 190.5 0, 380 0 M0 0 C82.68 0, 165.37 0, 380 0 M380 0 C380 204.23, 380 408.45, 380 580 M380 0 C380 191.7, 380 383.41, 380 580 M380 580 C259.24 580, 138.47 580, 0 580 M380 580 C269.58 580, 159.17 580, 0 580 M0 580 C0 360.33, 0 140.66, 0 0 M0 580 C0 355.31, 0 130.61, 0 0" stroke="#4285f4" stroke-width="2" fill="none"></path></g><g stroke-linecap="round" transform="translate(30 30) rotate(0 490 80)"><path d="M0 0 L980 0 L980 160 L0 160" stroke="none" stroke-width="0" fill="#d2e3fc"></path><path d="M0 0 C331.75 0, 663.51 0, 980 0 M0 0 C379.72 0, 759.44 0, 980 0 M980 0 C980 37.72, 980 75.44, 980 160 M980 0 C980 57.21, 980 114.42, 980 160 M980 160 C598.03 160, 216.07 160, 0 160 M980 160 C613.77 160, 247.54 160, 0 160 M0 160 C0 112.07, 0 64.13, 0 0 M0 160 C0 100.42, 0 40.85, 0 0" stroke="#4285f4" stroke-width="2" fill="none"></path></g><g stroke-opacity="0.8" fill-opacity="0.8" transform="translate(501.5 50) rotate(0 29.5 10)"><text x="0" y="16" font-family="Helvetica, Segoe UI Emoji" font-size="16.444444444444446px" fill="#202124" text-anchor="start" style="white-space: pre;" direction="ltr">CLIENT</text></g><g stroke-linecap="round"><g transform="translate(529.9680532811484 189.625) rotate(0 0.009448749349019181 29.6875)"><path d="M0 0 C0.01 20.11, 0.01 40.22, 0.02 59.38 M0 0 C0 13.95, 0.01 27.9, 0.02 59.38" stroke="#202124" stroke-width="1" fill="none"></path></g><g transform="translate(529.9680532811484 189.625) rotate(0 0.009448749349019181 29.6875)"><path d="M0.02 59.38 L-6.32 45.78 L6.35 45.78 L0.02 59.38" stroke="none" stroke-width="0" fill="#202124" fill-rule="evenodd"></path><path d="M0.02 59.38 C-2.13 54.77, -4.28 50.17, -6.32 45.78 M0.02 59.38 C-1.47 56.18, -2.96 52.99, -6.32 45.78 M-6.32 45.78 C-1.69 45.78, 2.95 45.78, 6.35 45.78 M-6.32 45.78 C-1.82 45.78, 2.68 45.78, 6.35 45.78 M6.35 45.78 C4.77 49.18, 3.18 52.58, 0.02 59.38 M6.35 45.78 C4.83 49.04, 3.32 52.3, 0.02 59.38 M0.02 59.38 C0.02 59.38, 0.02 59.38, 0.02 59.38 M0.02 59.38 C0.02 59.38, 0.02 59.38, 0.02 59.38" stroke="#202124" stroke-width="1" fill="none"></path></g></g><g stroke-linecap="round" transform="translate(490 90) rotate(0 41 41)"><path d="M8.2 0 L73.8 0 L77.39 0.51 L79.95 2.05 L81.49 4.61 L82 8.2 L82 73.8 L81.49 77.39 L79.95 79.95 L77.39 81.49 L73.8 82 L8.2 82 L4.61 81.49 L2.05 79.95 L0.51 77.39 L0 73.8 L0 8.2 L0.51 4.61 L2.05 2.05 L4.61 0.51 L8.2 0" stroke="none" stroke-width="0" fill="#FFF"></path><path d="M8.2 0 M8.2 0 C24.2 0, 40.19 0, 73.8 0 M8.2 0 C23.07 0, 37.94 0, 73.8 0 M73.8 0 C79.27 0, 82 2.73, 82 8.2 M73.8 0 C79.27 0, 82 2.73, 82 8.2 M82 8.2 C82 34.01, 82 59.82, 82 73.8 M82 8.2 C82 31.01, 82 53.81, 82 73.8 M82 73.8 C82 79.27, 79.27 82, 73.8 82 M82 73.8 C82 79.27, 79.27 82, 73.8 82 M73.8 82 C48.77 82, 23.74 82, 8.2 82 M73.8 82 C57.05 82, 40.3 82, 8.2 82 M8.2 82 C2.73 82, 0 79.27, 0 73.8 M8.2 82 C2.73 82, 0 79.27, 0 73.8 M0 73.8 C0 55.2, 0 36.6, 0 8.2 M0 73.8 C0 59.55, 0 45.29, 0 8.2 M0 8.2 C0 2.73, 2.73 0, 8.2 0 M0 8.2 C0 2.73, 2.73 0, 8.2 0" stroke="#202124" stroke-width="1" fill="none"></path></g><g transform="translate(513.5 138) rotate(0 17.5 9)"><text x="17.5" y="14" font-family="Helvetica, Segoe UI Emoji" font-size="16px" fill="#202124" text-anchor="middle" style="white-space: pre;" direction="ltr">User</text></g><g stroke-linecap="round"><g transform="translate(519 106) rotate(0 12 12)" fill-rule="evenodd"><path d="M0 0 L24 0 L24 24 L0 24 L0 0" stroke="none" stroke-width="0" fill="#00000000" fill-rule="evenodd"></path><path d="M0 0 C7.67 0, 15.34 0, 24 0 M0 0 C8.94 0, 17.89 0, 24 0 M24 0 C24 9.31, 24 18.61, 24 24 M24 0 C24 8.34, 24 16.68, 24 24 M24 24 C18.18 24, 12.36 24, 0 24 M24 24 C18.01 24, 12.02 24, 0 24 M0 24 C0 15.65, 0 7.3, 0 0 M0 24 C0 16.83, 0 9.66, 0 0 M0 0 C0 0, 0 0, 0 0 M0 0 C0 0, 0 0, 0 0" stroke="#00000000" stroke-width="1" fill="none"></path></g></g><g stroke-linecap="round"><g transform="translate(535.5 118) rotate(0 -0.005000114440917969 -2.5)" fill-rule="evenodd"><path d="M0 0 L0 0 L0.97 -0.2 L1.76 -0.73 L2.3 -1.53 L2.49 -2.5 L2.3 -3.47 L1.76 -4.27 L0.97 -4.8 L0 -5 L-0.97 -4.8 L-1.77 -4.27 L-2.3 -3.47 L-2.5 -2.5 L-2.3 -1.53 L-1.77 -0.73 L-0.97 -0.2 L0 0 L0 0" stroke="none" stroke-width="0" fill="#000" fill-rule="evenodd"></path><path d="M0 0 C0 0, 0 0, 0 0 M0 0 C0 0, 0 0, 0 0 M0 0 C0.34 -0.07, 0.68 -0.14, 0.97 -0.2 M0 0 C0.21 -0.04, 0.41 -0.08, 0.97 -0.2 M0.97 -0.2 C1.16 -0.32, 1.34 -0.45, 1.76 -0.73 M0.97 -0.2 C1.18 -0.34, 1.39 -0.48, 1.76 -0.73 M1.76 -0.73 C1.97 -1.04, 2.18 -1.35, 2.3 -1.53 M1.76 -0.73 C1.93 -0.98, 2.09 -1.22, 2.3 -1.53 M2.3 -1.53 C2.34 -1.75, 2.38 -1.97, 2.49 -2.5 M2.3 -1.53 C2.35 -1.81, 2.41 -2.1, 2.49 -2.5 M2.49 -2.5 C2.43 -2.79, 2.37 -3.09, 2.3 -3.47 M2.49 -2.5 C2.42 -2.87, 2.34 -3.25, 2.3 -3.47 M2.3 -3.47 C2.13 -3.71, 1.97 -3.95, 1.76 -4.27 M2.3 -3.47 C2.13 -3.72, 1.97 -3.96, 1.76 -4.27 M1.76 -4.27 C1.51 -4.44, 1.25 -4.62, 0.97 -4.8 M1.76 -4.27 C1.5 -4.45, 1.23 -4.63, 0.97 -4.8 M0.97 -4.8 C0.68 -4.86, 0.38 -4.92, 0 -5 M0.97 -4.8 C0.75 -4.85, 0.53 -4.89, 0 -5 M0 -5 C-0.23 -4.95, -0.46 -4.91, -0.97 -4.8 M0 -5 C-0.2 -4.96, -0.4 -4.92, -0.97 -4.8 M-0.97 -4.8 C-1.16 -4.68, -1.35 -4.55, -1.77 -4.27 M-0.97 -4.8 C-1.23 -4.63, -1.49 -4.46, -1.77 -4.27 M-1.77 -4.27 C-1.96 -3.98, -2.16 -3.69, -2.3 -3.47 M-1.77 -4.27 C-1.88 -4.11, -1.99 -3.94, -2.3 -3.47 M-2.3 -3.47 C-2.35 -3.23, -2.4 -2.98, -2.5 -2.5 M-2.3 -3.47 C-2.35 -3.25, -2.39 -3.03, -2.5 -2.5 M-2.5 -2.5 C-2.43 -2.14, -2.35 -1.78, -2.3 -1.53 M-2.5 -2.5 C-2.44 -2.22, -2.39 -1.94, -2.3 -1.53 M-2.3 -1.53 C-2.18 -1.34, -2.05 -1.15, -1.77 -0.73 M-2.3 -1.53 C-2.12 -1.26, -1.95 -1, -1.77 -0.73 M-1.77 -0.73 C-1.56 -0.59, -1.34 -0.45, -0.97 -0.2 M-1.77 -0.73 C-1.48 -0.54, -1.18 -0.34, -0.97 -0.2 M-0.97 -0.2 C-0.76 -0.15, -0.55 -0.11, 0 0 M-0.97 -0.2 C-0.6 -0.12, -0.24 -0.05, 0 0 M0 0 C0 0, 0 0, 0 0 M0 0 C0 0, 0 0, 0 0 M0 0 C0 0, 0 0, 0 0 M0 0 C0 0, 0 0, 0 0" stroke="#00000000" stroke-width="1" fill="none"></path></g></g><g stroke-linecap="round"><g transform="translate(528 117) rotate(0 -0.005000114440917969 -3)" fill-rule="evenodd"><path d="M0 0 L0 0 L1.17 -0.24 L2.12 -0.88 L2.76 -1.83 L2.99 -3 L2.76 -4.17 L2.12 -5.12 L1.17 -5.76 L0 -6 L-1.17 -5.76 L-2.12 -5.12 L-2.76 -4.17 L-3 -3 L-2.76 -1.83 L-2.12 -0.88 L-1.17 -0.24 L0 0 L0 0" stroke="none" stroke-width="0" fill="#000" fill-rule="evenodd"></path><path d="M0 0 C0 0, 0 0, 0 0 M0 0 C0 0, 0 0, 0 0 M0 0 C0.42 -0.09, 0.85 -0.17, 1.17 -0.24 M0 0 C0.41 -0.08, 0.83 -0.17, 1.17 -0.24 M1.17 -0.24 C1.44 -0.42, 1.72 -0.61, 2.12 -0.88 M1.17 -0.24 C1.42 -0.41, 1.68 -0.58, 2.12 -0.88 M2.12 -0.88 C2.36 -1.24, 2.6 -1.6, 2.76 -1.83 M2.12 -0.88 C2.32 -1.17, 2.51 -1.47, 2.76 -1.83 M2.76 -1.83 C2.81 -2.08, 2.86 -2.33, 2.99 -3 M2.76 -1.83 C2.81 -2.11, 2.87 -2.39, 2.99 -3 M2.99 -3 C2.91 -3.42, 2.82 -3.85, 2.76 -4.17 M2.99 -3 C2.94 -3.27, 2.88 -3.53, 2.76 -4.17 M2.76 -4.17 C2.55 -4.48, 2.34 -4.79, 2.12 -5.12 M2.76 -4.17 C2.59 -4.42, 2.41 -4.68, 2.12 -5.12 M2.12 -5.12 C1.84 -5.31, 1.57 -5.5, 1.17 -5.76 M2.12 -5.12 C1.9 -5.27, 1.67 -5.42, 1.17 -5.76 M1.17 -5.76 C0.8 -5.84, 0.43 -5.91, 0 -6 M1.17 -5.76 C0.81 -5.84, 0.46 -5.91, 0 -6 M0 -6 C-0.33 -5.93, -0.66 -5.87, -1.17 -5.76 M0 -6 C-0.24 -5.95, -0.47 -5.91, -1.17 -5.76 M-1.17 -5.76 C-1.41 -5.6, -1.64 -5.44, -2.12 -5.12 M-1.17 -5.76 C-1.4 -5.61, -1.63 -5.46, -2.12 -5.12 M-2.12 -5.12 C-2.27 -4.91, -2.41 -4.69, -2.76 -4.17 M-2.12 -5.12 C-2.35 -4.79, -2.57 -4.46, -2.76 -4.17 M-2.76 -4.17 C-2.84 -3.78, -2.92 -3.4, -3 -3 M-2.76 -4.17 C-2.84 -3.8, -2.91 -3.43, -3 -3 M-3 -3 C-2.92 -2.59, -2.83 -2.18, -2.76 -1.83 M-3 -3 C-2.94 -2.73, -2.89 -2.45, -2.76 -1.83 M-2.76 -1.83 C-2.56 -1.52, -2.35 -1.22, -2.12 -0.88 M-2.76 -1.83 C-2.56 -1.53, -2.36 -1.22, -2.12 -0.88 M-2.12 -0.88 C-1.87 -0.71, -1.63 -0.54, -1.17 -0.24 M-2.12 -0.88 C-1.78 -0.64, -1.43 -0.41, -1.17 -0.24 M-1.17 -0.24 C-0.76 -0.15, -0.35 -0.07, 0 0 M-1.17 -0.24 C-0.74 -0.15, -0.3 -0.06, 0 0 M0 0 C0 0, 0 0, 0 0 M0 0 C0 0, 0 0, 0 0 M0 0 C0 0, 0 0, 0 0 M0 0 C0 0, 0 0, 0 0" stroke="#00000000" stroke-width="1" fill="none"></path></g></g><g stroke-linecap="round"><g transform="translate(535.5 120) rotate(0 0 2.5)" fill-rule="evenodd"><path d="M0 0 L0 0 L-1.63 0.17 L-3.44 0.69 L-4.9 1.55 L-5.34 2.11 L-5.5 2.75 L-5.5 5 L5.5 5 L5.5 2.75 L5.5 2.75 L5.34 2.11 L4.9 1.55 L3.44 0.69 L1.63 0.17 L0 0 L0 0" stroke="none" stroke-width="0" fill="#000" fill-rule="evenodd"></path><path d="M0 0 C0 0, 0 0, 0 0 M0 0 C0 0, 0 0, 0 0 M0 0 C-0.42 0.04, -0.84 0.09, -1.63 0.17 M0 0 C-0.52 0.06, -1.05 0.11, -1.63 0.17 M-1.63 0.17 C-2.04 0.29, -2.45 0.41, -3.44 0.69 M-1.63 0.17 C-2.34 0.38, -3.05 0.58, -3.44 0.69 M-3.44 0.69 C-3.94 0.99, -4.45 1.29, -4.9 1.55 M-3.44 0.69 C-3.96 1, -4.49 1.31, -4.9 1.55 M-4.9 1.55 C-5.01 1.69, -5.12 1.83, -5.34 2.11 M-4.9 1.55 C-5.05 1.74, -5.2 1.93, -5.34 2.11 M-5.34 2.11 C-5.37 2.25, -5.41 2.39, -5.5 2.75 M-5.34 2.11 C-5.4 2.35, -5.46 2.59, -5.5 2.75 M-5.5 2.75 C-5.5 3.59, -5.5 4.43, -5.5 5 M-5.5 2.75 C-5.5 3.52, -5.5 4.28, -5.5 5 M-5.5 5 C-1.44 5, 2.61 5, 5.5 5 M-5.5 5 C-1.68 5, 2.15 5, 5.5 5 M5.5 5 C5.5 4.55, 5.5 4.1, 5.5 2.75 M5.5 5 C5.5 4.35, 5.5 3.7, 5.5 2.75 M5.5 2.75 C5.5 2.75, 5.5 2.75, 5.5 2.75 M5.5 2.75 C5.5 2.75, 5.5 2.75, 5.5 2.75 M5.5 2.75 C5.45 2.55, 5.4 2.35, 5.34 2.11 M5.5 2.75 C5.46 2.59, 5.42 2.43, 5.34 2.11 M5.34 2.11 C5.23 1.97, 5.13 1.84, 4.9 1.55 M5.34 2.11 C5.23 1.97, 5.13 1.84, 4.9 1.55 M4.9 1.55 C4.6 1.37, 4.31 1.2, 3.44 0.69 M4.9 1.55 C4.56 1.35, 4.21 1.15, 3.44 0.69 M3.44 0.69 C2.93 0.54, 2.42 0.4, 1.63 0.17 M3.44 0.69 C2.91 0.54, 2.39 0.39, 1.63 0.17 M1.63 0.17 C1.08 0.11, 0.52 0.06, 0 0 M1.63 0.17 C1.27 0.13, 0.92 0.1, 0 0 M0 0 C0 0, 0 0, 0 0 M0 0 C0 0, 0 0, 0 0 M0 0 C0 0, 0 0, 0 0 M0 0 C0 0, 0 0, 0 0" stroke="#00000000" stroke-width="1" fill="none"></path></g></g><g stroke-linecap="round"><g transform="translate(528 119) rotate(0 -2.315000057220459 3)" fill-rule="evenodd"><path d="M0 0 L0 0 L-0.97 0.05 L-2.08 0.22 L-4.37 0.88 L-5.4 1.37 L-6.23 1.97 L-6.79 2.68 L-7 3.5 L-7 6 L0 6 L0 3.75 L0 3.75 L0.08 3.01 L0.42 2.12 L1.14 1.18 L2.37 0.28 L1.11 0.07 L0 0 L0 0" stroke="none" stroke-width="0" fill="#000" fill-rule="evenodd"></path><path d="M0 0 C0 0, 0 0, 0 0 M0 0 C0 0, 0 0, 0 0 M0 0 C-0.36 0.02, -0.73 0.04, -0.97 0.05 M0 0 C-0.36 0.02, -0.72 0.04, -0.97 0.05 M-0.97 0.05 C-1.35 0.11, -1.74 0.17, -2.08 0.22 M-0.97 0.05 C-1.37 0.11, -1.77 0.17, -2.08 0.22 M-2.08 0.22 C-2.64 0.38, -3.21 0.54, -4.37 0.88 M-2.08 0.22 C-2.77 0.42, -3.46 0.62, -4.37 0.88 M-4.37 0.88 C-4.72 1.04, -5.06 1.21, -5.4 1.37 M-4.37 0.88 C-4.59 0.98, -4.8 1.08, -5.4 1.37 M-5.4 1.37 C-5.67 1.57, -5.95 1.76, -6.23 1.97 M-5.4 1.37 C-5.72 1.6, -6.05 1.84, -6.23 1.97 M-6.23 1.97 C-6.44 2.23, -6.64 2.49, -6.79 2.68 M-6.23 1.97 C-6.41 2.19, -6.59 2.42, -6.79 2.68 M-6.79 2.68 C-6.87 2.99, -6.95 3.29, -7 3.5 M-6.79 2.68 C-6.84 2.87, -6.89 3.05, -7 3.5 M-7 3.5 C-7 4.05, -7 4.61, -7 6 M-7 3.5 C-7 4.5, -7 5.49, -7 6 M-7 6 C-4.95 6, -2.9 6, 0 6 M-7 6 C-4.51 6, -2.03 6, 0 6 M0 6 C0 5.46, 0 4.92, 0 3.75 M0 6 C0 5.28, 0 4.55, 0 3.75 M0 3.75 C0 3.75, 0 3.75, 0 3.75 M0 3.75 C0 3.75, 0 3.75, 0 3.75 M0 3.75 C0.03 3.52, 0.05 3.28, 0.08 3.01 M0 3.75 C0.02 3.54, 0.05 3.33, 0.08 3.01 M0.08 3.01 C0.21 2.67, 0.34 2.34, 0.42 2.12 M0.08 3.01 C0.2 2.7, 0.32 2.38, 0.42 2.12 M0.42 2.12 C0.64 1.84, 0.85 1.56, 1.14 1.18 M0.42 2.12 C0.59 1.89, 0.77 1.67, 1.14 1.18 M1.14 1.18 C1.56 0.87, 1.98 0.57, 2.37 0.28 M1.14 1.18 C1.41 0.98, 1.68 0.79, 2.37 0.28 M2.37 0.28 C1.87 0.2, 1.36 0.11, 1.11 0.07 M2.37 0.28 C2.02 0.22, 1.67 0.17, 1.11 0.07 M1.11 0.07 C0.68 0.04, 0.26 0.02, 0 0 M1.11 0.07 C0.7 0.05, 0.3 0.02, 0 0 M0 0 C0 0, 0 0, 0 0 M0 0 C0 0, 0 0, 0 0 M0 0 C0 0, 0 0, 0 0 M0 0 C0 0, 0 0, 0 0" stroke="#00000000" stroke-width="1" fill="none"></path></g></g><g stroke-linecap="round" transform="translate(90 450) rotate(0 150 140)"><path d="M28 0 L272 0 L284.25 1.75 L289.06 3.94 L293 7 L296.06 10.94 L298.25 15.75 L300 28 L300 252 L298.25 264.25 L296.06 269.06 L293 273 L289.06 276.06 L284.25 278.25 L272 280 L28 280 L15.75 278.25 L10.94 276.06 L7 273 L3.94 269.06 L1.75 264.25 L0 252 L0.44 21.44 L1.75 15.75 L3.94 10.94 L7 7 L10.94 3.94 L15.75 1.75 L28 0" stroke="none" stroke-width="0" fill="#FFF"></path><path d="M28 0 M28 0 C121.23 0, 214.46 0, 272 0 M28 0 C98.84 0, 169.69 0, 272 0 M272 0 C290.67 0, 300 9.33, 300 28 M272 0 C290.67 0, 300 9.33, 300 28 M300 28 C300 104.31, 300 180.62, 300 252 M300 28 C300 113.04, 300 198.08, 300 252 M300 252 C300 270.67, 290.67 280, 272 280 M300 252 C300 270.67, 290.67 280, 272 280 M272 280 C212.62 280, 153.24 280, 28 280 M272 280 C217.95 280, 163.91 280, 28 280 M28 280 C9.33 280, 0 270.67, 0 252 M28 280 C9.33 280, 0 270.67, 0 252 M0 252 C0 174.67, 0 97.34, 0 28 M0 252 C0 166.04, 0 80.08, 0 28 M0 28 C0 9.33, 9.33 0, 28 0 M0 28 C0 9.33, 9.33 0, 28 0" stroke="#202124" stroke-width="1" fill="none"></path></g><g stroke-linecap="round" transform="translate(90 790) rotate(0 150 250)"><path d="M30 0 L270 0 L277.03 0.47 L283.13 1.88 L288.28 4.22 L292.5 7.5 L295.78 11.72 L298.13 16.88 L299.53 22.97 L300 30 L300 470 L299.53 477.03 L298.13 483.13 L295.78 488.28 L292.5 492.5 L288.28 495.78 L283.13 498.13 L277.03 499.53 L270 500 L30 500 L22.97 499.53 L16.88 498.13 L11.72 495.78 L7.5 492.5 L4.22 488.28 L1.88 483.13 L0.47 477.03 L0 470 L0 30 L0.47 22.97 L1.88 16.88 L4.22 11.72 L7.5 7.5 L11.72 4.22 L16.88 1.88 L22.97 0.47 L30 0" stroke="none" stroke-width="0" fill="#FFF"></path><path d="M30 0 M30 0 C97.34 0, 164.67 0, 270 0 M30 0 C84.1 0, 138.2 0, 270 0 M270 0 C290 0, 300 10, 300 30 M270 0 C290 0, 300 10, 300 30 M300 30 C300 146.02, 300 262.04, 300 470 M300 30 C300 197.7, 300 365.41, 300 470 M300 470 C300 490, 290 500, 270 500 M300 470 C300 490, 290 500, 270 500 M270 500 C196.5 500, 122.99 500, 30 500 M270 500 C197.09 500, 124.18 500, 30 500 M30 500 C10 500, 0 490, 0 470 M30 500 C10 500, 0 490, 0 470 M0 470 C0 308.76, 0 147.52, 0 30 M0 470 C0 378.46, 0 286.92, 0 30 M0 30 C0 10, 10 0, 30 0 M0 30 C0 10, 10 0, 30 0" stroke="#202124" stroke-width="1" fill="none"></path></g><g stroke-linecap="round"><g transform="translate(360.7521632932267 470) rotate(0 -0.006810417072472319 12.205986256869323)" fill-rule="evenodd"><path d="M0 0 L-10.75 6.11 L-10.75 18.3 L-0.02 24.41 L10.74 18.26 L10.74 5.99 L0 0" stroke="none" stroke-width="0" fill="#aecbfa" fill-rule="evenodd"></path><path d="M0 0 C-3.59 2.04, -7.18 4.08, -10.75 6.11 M0 0 C-3.77 2.14, -7.55 4.29, -10.75 6.11 M-10.75 6.11 C-10.75 9.1, -10.75 12.08, -10.75 18.3 M-10.75 6.11 C-10.75 9.31, -10.75 12.5, -10.75 18.3 M-10.75 18.3 C-6.51 20.71, -2.28 23.13, -0.02 24.41 M-10.75 18.3 C-7.83 19.96, -4.9 21.63, -0.02 24.41 M-0.02 24.41 C3.04 22.66, 6.1 20.91, 10.74 18.26 M-0.02 24.41 C2.62 22.9, 5.26 21.39, 10.74 18.26 M10.74 18.26 C10.74 14.88, 10.74 11.51, 10.74 5.99 M10.74 18.26 C10.74 13.92, 10.74 9.57, 10.74 5.99 M10.74 5.99 C6.98 3.89, 3.21 1.79, 0 0 M10.74 5.99 C7.33 4.09, 3.91 2.18, 0 0 M0 0 C0 0, 0 0, 0 0 M0 0 C0 0, 0 0, 0 0" stroke="#00000000" stroke-width="1" fill="none"></path></g></g><g stroke-linecap="round"><g transform="translate(360.75216329322666 810) rotate(0 -0.006810417072472319 12.205986256869323)" fill-rule="evenodd"><path d="M0 0 L-10.75 6.11 L-10.75 18.3 L-0.02 24.41 L10.74 18.26 L10.74 5.99 L0 0" stroke="none" stroke-width="0" fill="#aecbfa" fill-rule="evenodd"></path><path d="M0 0 C-4.09 2.32, -8.17 4.64, -10.75 6.11 M0 0 C-3.99 2.27, -7.99 4.54, -10.75 6.11 M-10.75 6.11 C-10.75 8.77, -10.75 11.42, -10.75 18.3 M-10.75 6.11 C-10.75 9.82, -10.75 13.54, -10.75 18.3 M-10.75 18.3 C-6.76 20.57, -2.76 22.85, -0.02 24.41 M-10.75 18.3 C-8.13 19.79, -5.51 21.28, -0.02 24.41 M-0.02 24.41 C2.89 22.75, 5.79 21.08, 10.74 18.26 M-0.02 24.41 C2.4 23.02, 4.83 21.64, 10.74 18.26 M10.74 18.26 C10.74 13.68, 10.74 9.11, 10.74 5.99 M10.74 18.26 C10.74 13.58, 10.74 8.91, 10.74 5.99 M10.74 5.99 C8.45 4.71, 6.16 3.44, 0 0 M10.74 5.99 C7.48 4.17, 4.21 2.35, 0 0 M0 0 C0 0, 0 0, 0 0 M0 0 C0 0, 0 0, 0 0" stroke="#00000000" stroke-width="1" fill="none"></path></g></g><g stroke-linecap="round"><g transform="translate(360.7589721679686 472.6556957121488) rotate(0 -0.013618777704380136 9.546886171613409)" fill-rule="evenodd"><path d="M0 0 L-8.44 4.8 L-8.44 14.29 L-0.03 19.09 L8.42 14.26 L8.42 4.7 L0 0" stroke="none" stroke-width="0" fill="#fff" fill-rule="evenodd"></path><path d="M0 0 C-1.78 1.01, -3.55 2.02, -8.44 4.8 M0 0 C-2.29 1.3, -4.59 2.61, -8.44 4.8 M-8.44 4.8 C-8.44 7.3, -8.44 9.81, -8.44 14.29 M-8.44 4.8 C-8.44 8.17, -8.44 11.54, -8.44 14.29 M-8.44 14.29 C-6.36 15.49, -4.27 16.68, -0.03 19.09 M-8.44 14.29 C-5.83 15.79, -3.21 17.28, -0.03 19.09 M-0.03 19.09 C1.71 18.1, 3.45 17.1, 8.42 14.26 M-0.03 19.09 C2.97 17.37, 5.98 15.65, 8.42 14.26 M8.42 14.26 C8.42 11.15, 8.42 8.05, 8.42 4.7 M8.42 14.26 C8.42 11.51, 8.42 8.77, 8.42 4.7 M8.42 4.7 C5.24 2.93, 2.07 1.15, 0 0 M8.42 4.7 C6.29 3.51, 4.16 2.32, 0 0 M0 0 C0 0, 0 0, 0 0 M0 0 C0 0, 0 0, 0 0" stroke="#00000000" stroke-width="1" fill="none"></path></g></g><g stroke-linecap="round"><g transform="translate(360.7589721679685 812.6556957121488) rotate(0 -0.013618777704380136 9.546886171613437)" fill-rule="evenodd"><path d="M0 0 L-8.44 4.8 L-8.44 14.29 L-0.03 19.09 L8.42 14.26 L8.42 4.7 L0 0" stroke="none" stroke-width="0" fill="#fff" fill-rule="evenodd"></path><path d="M0 0 C-2.6 1.48, -5.2 2.96, -8.44 4.8 M0 0 C-1.87 1.06, -3.74 2.13, -8.44 4.8 M-8.44 4.8 C-8.44 7.47, -8.44 10.15, -8.44 14.29 M-8.44 4.8 C-8.44 7.86, -8.44 10.92, -8.44 14.29 M-8.44 14.29 C-5.87 15.76, -3.29 17.23, -0.03 19.09 M-8.44 14.29 C-6.53 15.38, -4.62 16.48, -0.03 19.09 M-0.03 19.09 C2.89 17.42, 5.82 15.75, 8.42 14.26 M-0.03 19.09 C2.83 17.46, 5.69 15.82, 8.42 14.26 M8.42 14.26 C8.42 12.11, 8.42 9.95, 8.42 4.7 M8.42 14.26 C8.42 10.75, 8.42 7.25, 8.42 4.7 M8.42 4.7 C5.14 2.87, 1.87 1.04, 0 0 M8.42 4.7 C5.32 2.97, 2.22 1.24, 0 0 M0 0 C0 0, 0 0, 0 0 M0 0 C0 0, 0 0, 0 0" stroke="#00000000" stroke-width="1" fill="none"></path></g></g><g stroke-linecap="round"><g transform="translate(361.28330179301867 482.49538984581477) rotate(0 2.386721382243934 1.4231802639614273)" fill-rule="evenodd"><path d="M0 0 L0 5.67 L4.77 2.87 L4.77 -2.83 L0 0" stroke="none" stroke-width="0" fill="#4285f4" fill-rule="evenodd"></path><path d="M0 0 C0 1.97, 0 3.95, 0 5.67 M0 0 C0 1.68, 0 3.35, 0 5.67 M0 5.67 C1.72 4.66, 3.45 3.65, 4.77 2.87 M0 5.67 C1.73 4.66, 3.45 3.65, 4.77 2.87 M4.77 2.87 C4.77 0.79, 4.77 -1.29, 4.77 -2.83 M4.77 2.87 C4.77 0.62, 4.77 -1.63, 4.77 -2.83 M4.77 -2.83 C2.91 -1.72, 1.04 -0.62, 0 0 M4.77 -2.83 C3.64 -2.16, 2.51 -1.49, 0 0 M0 0 C0 0, 0 0, 0 0 M0 0 C0 0, 0 0, 0 0" stroke="#00000000" stroke-width="1" fill="none"></path></g></g><g stroke-linecap="round"><g transform="translate(361.2833017930186 822.4953898458148) rotate(0 2.386721382243934 1.4231802639614557)" fill-rule="evenodd"><path d="M0 0 L0 5.67 L4.77 2.87 L4.77 -2.83 L0 0" stroke="none" stroke-width="0" fill="#4285f4" fill-rule="evenodd"></path><path d="M0 0 C0 1.98, 0 3.97, 0 5.67 M0 0 C0 2.09, 0 4.19, 0 5.67 M0 5.67 C1.51 4.79, 3.02 3.9, 4.77 2.87 M0 5.67 C1.36 4.88, 2.71 4.08, 4.77 2.87 M4.77 2.87 C4.77 1.4, 4.77 -0.08, 4.77 -2.83 M4.77 2.87 C4.77 1.68, 4.77 0.48, 4.77 -2.83 M4.77 -2.83 C3.08 -1.82, 1.39 -0.82, 0 0 M4.77 -2.83 C3.7 -2.19, 2.63 -1.56, 0 0 M0 0 C0 0, 0 0, 0 0 M0 0 C0 0, 0 0, 0 0" stroke="#00000000" stroke-width="1" fill="none"></path></g></g><g stroke-linecap="round"><g transform="translate(355.8629593759211 478.7501776507602) rotate(0 4.882394528453233 0.010214083278270891)" fill-rule="evenodd"><path d="M0 0 L4.84 2.81 L9.76 -0.01 L4.84 -2.79 L0 0" stroke="none" stroke-width="0" fill="#aecbfa" fill-rule="evenodd"></path><path d="M0 0 C1.8 1.04, 3.6 2.08, 4.84 2.81 M0 0 C1.1 0.64, 2.21 1.28, 4.84 2.81 M4.84 2.81 C6.21 2.02, 7.59 1.24, 9.76 -0.01 M4.84 2.81 C6.02 2.13, 7.19 1.46, 9.76 -0.01 M9.76 -0.01 C7.95 -1.03, 6.13 -2.06, 4.84 -2.79 M9.76 -0.01 C8.21 -0.88, 6.66 -1.76, 4.84 -2.79 M4.84 -2.79 C3.03 -1.74, 1.22 -0.7, 0 0 M4.84 -2.79 C3.02 -1.74, 1.2 -0.69, 0 0 M0 0 C0 0, 0 0, 0 0 M0 0 C0 0, 0 0, 0 0" stroke="#00000000" stroke-width="1" fill="none"></path></g></g><g stroke-linecap="round"><g transform="translate(355.86295937592104 818.7501776507602) rotate(0 4.882394528453233 0.01021408327824247)" fill-rule="evenodd"><path d="M0 0 L4.84 2.81 L9.76 -0.01 L4.84 -2.79 L0 0" stroke="none" stroke-width="0" fill="#aecbfa" fill-rule="evenodd"></path><path d="M0 0 C1.18 0.69, 2.37 1.37, 4.84 2.81 M0 0 C1.56 0.91, 3.13 1.81, 4.84 2.81 M4.84 2.81 C6.36 1.94, 7.88 1.07, 9.76 -0.01 M4.84 2.81 C6.55 1.83, 8.25 0.86, 9.76 -0.01 M9.76 -0.01 C7.98 -1.02, 6.19 -2.03, 4.84 -2.79 M9.76 -0.01 C8.51 -0.71, 7.26 -1.42, 4.84 -2.79 M4.84 -2.79 C3.37 -1.94, 1.91 -1.1, 0 0 M4.84 -2.79 C3.74 -2.15, 2.64 -1.52, 0 0 M0 0 C0 0, 0 0, 0 0 M0 0 C0 0, 0 0, 0 0" stroke="#00000000" stroke-width="1" fill="none"></path></g></g><g stroke-linecap="round"><g transform="translate(355.40672415350315 479.69669452574703) rotate(0 2.3526741809279486 4.235494361733487)" fill-rule="evenodd"><path d="M0 0 L4.74 2.83 L4.74 8.47 L-0.03 5.58 L0 0" stroke="none" stroke-width="0" fill="#669df6" fill-rule="evenodd"></path><path d="M0 0 C1.33 0.8, 2.67 1.59, 4.74 2.83 M0 0 C1.53 0.92, 3.07 1.83, 4.74 2.83 M4.74 2.83 C4.74 5.08, 4.74 7.33, 4.74 8.47 M4.74 2.83 C4.74 4.97, 4.74 7.12, 4.74 8.47 M4.74 8.47 C3.31 7.61, 1.89 6.75, -0.03 5.58 M4.74 8.47 C3.06 7.45, 1.37 6.43, -0.03 5.58 M-0.03 5.58 C-0.03 4.45, -0.02 3.32, 0 0 M-0.03 5.58 C-0.02 3.36, -0.01 1.14, 0 0 M0 0 C0 0, 0 0, 0 0 M0 0 C0 0, 0 0, 0 0" stroke="#00000000" stroke-width="1" fill="none"></path></g></g><g stroke-linecap="round"><g transform="translate(355.4067241535031 819.696694525747) rotate(0 2.3526741809279486 4.235494361733515)" fill-rule="evenodd"><path d="M0 0 L4.74 2.83 L4.74 8.47 L-0.03 5.58 L0 0" stroke="none" stroke-width="0" fill="#669df6" fill-rule="evenodd"></path><path d="M0 0 C1.38 0.83, 2.76 1.65, 4.74 2.83 M0 0 C1.21 0.73, 2.43 1.45, 4.74 2.83 M4.74 2.83 C4.74 4.48, 4.74 6.13, 4.74 8.47 M4.74 2.83 C4.74 4.31, 4.74 5.79, 4.74 8.47 M4.74 8.47 C3.15 7.51, 1.56 6.55, -0.03 5.58 M4.74 8.47 C3.5 7.72, 2.26 6.97, -0.03 5.58 M-0.03 5.58 C-0.02 4.02, -0.01 2.45, 0 0 M-0.03 5.58 C-0.03 4.3, -0.02 3.02, 0 0 M0 0 C0 0, 0 0, 0 0 M0 0 C0 0, 0 0, 0 0" stroke="#00000000" stroke-width="1" fill="none"></path></g></g><g stroke-linecap="round"><g transform="translate(361.28330179301867 476.64604924759783) rotate(0 -0.5481622289775885 -1.99517676772453)" fill-rule="evenodd"><path d="M0 0 L0 -3.7 L-0.52 -3.99 L-1.1 -3.66 L-1.1 0 L0 0" stroke="none" stroke-width="0" fill="#aecbfa" fill-rule="evenodd"></path><path d="M0 0 C0 -1.18, 0 -2.35, 0 -3.7 M0 0 C0 -1.28, 0 -2.57, 0 -3.7 M0 -3.7 C-0.11 -3.76, -0.22 -3.82, -0.52 -3.99 M0 -3.7 C-0.16 -3.79, -0.32 -3.88, -0.52 -3.99 M-0.52 -3.99 C-0.73 -3.87, -0.94 -3.75, -1.1 -3.66 M-0.52 -3.99 C-0.69 -3.89, -0.86 -3.8, -1.1 -3.66 M-1.1 -3.66 C-1.1 -2.47, -1.1 -1.28, -1.1 0 M-1.1 -3.66 C-1.1 -2.27, -1.1 -0.88, -1.1 0 M-1.1 0 C-0.85 0, -0.6 0, 0 0 M-1.1 0 C-0.85 0, -0.61 0, 0 0 M0 0 C0 0, 0 0, 0 0 M0 0 C0 0, 0 0, 0 0" stroke="#00000000" stroke-width="1" fill="none"></path></g></g><g stroke-linecap="round"><g transform="translate(361.2833017930186 816.6460492475978) rotate(0 -0.5481622289775885 -1.9951767677245584)" fill-rule="evenodd"><path d="M0 0 L0 -3.7 L-0.52 -3.99 L-1.1 -3.66 L-1.1 0 L0 0" stroke="none" stroke-width="0" fill="#aecbfa" fill-rule="evenodd"></path><path d="M0 0 C0 -1.17, 0 -2.34, 0 -3.7 M0 0 C0 -1.33, 0 -2.67, 0 -3.7 M0 -3.7 C-0.12 -3.77, -0.25 -3.84, -0.52 -3.99 M0 -3.7 C-0.2 -3.81, -0.4 -3.92, -0.52 -3.99 M-0.52 -3.99 C-0.71 -3.88, -0.9 -3.77, -1.1 -3.66 M-0.52 -3.99 C-0.66 -3.91, -0.8 -3.83, -1.1 -3.66 M-1.1 -3.66 C-1.1 -2.67, -1.1 -1.69, -1.1 0 M-1.1 -3.66 C-1.1 -2.74, -1.1 -1.82, -1.1 0 M-1.1 0 C-0.67 0, -0.25 0, 0 0 M-1.1 0 C-0.85 0, -0.6 0, 0 0 M0 0 C0 0, 0 0, 0 0 M0 0 C0 0, 0 0, 0 0" stroke="#00000000" stroke-width="1" fill="none"></path></g></g><g stroke-linecap="round"><g transform="translate(369.1754847523983 486.45850351235936) rotate(0 -2.1926509723509184 -0.7183984926126072)" fill-rule="evenodd"><path d="M0 0 L-3.87 -2.25 L-4.39 -1.37 L-0.63 0.82 L0 0.46 L0 0" stroke="none" stroke-width="0" fill="#4285f4" fill-rule="evenodd"></path><path d="M0 0 C-1.47 -0.86, -2.94 -1.71, -3.87 -2.25 M0 0 C-0.89 -0.52, -1.78 -1.04, -3.87 -2.25 M-3.87 -2.25 C-4.01 -2.02, -4.15 -1.78, -4.39 -1.37 M-3.87 -2.25 C-3.98 -2.07, -4.08 -1.89, -4.39 -1.37 M-4.39 -1.37 C-3.04 -0.59, -1.7 0.19, -0.63 0.82 M-4.39 -1.37 C-3.11 -0.63, -1.84 0.11, -0.63 0.82 M-0.63 0.82 C-0.43 0.7, -0.23 0.59, 0 0.46 M-0.63 0.82 C-0.48 0.73, -0.33 0.64, 0 0.46 M0 0.46 C0 0.29, 0 0.13, 0 0 M0 0.46 C0 0.29, 0 0.13, 0 0 M0 0 C0 0, 0 0, 0 0 M0 0 C0 0, 0 0, 0 0" stroke="#00000000" stroke-width="1" fill="none"></path></g></g><g stroke-linecap="round"><g transform="translate(369.17548475239823 826.4585035123594) rotate(0 -2.1926509723509184 -0.7183984926126072)" fill-rule="evenodd"><path d="M0 0 L-3.87 -2.25 L-4.39 -1.37 L-0.63 0.82 L0 0.46 L0 0" stroke="none" stroke-width="0" fill="#4285f4" fill-rule="evenodd"></path><path d="M0 0 C-1.2 -0.7, -2.39 -1.39, -3.87 -2.25 M0 0 C-0.96 -0.56, -1.91 -1.11, -3.87 -2.25 M-3.87 -2.25 C-4.04 -1.97, -4.2 -1.69, -4.39 -1.37 M-3.87 -2.25 C-4.04 -1.96, -4.21 -1.67, -4.39 -1.37 M-4.39 -1.37 C-3.46 -0.83, -2.54 -0.29, -0.63 0.82 M-4.39 -1.37 C-3.08 -0.61, -1.78 0.14, -0.63 0.82 M-0.63 0.82 C-0.38 0.68, -0.13 0.53, 0 0.46 M-0.63 0.82 C-0.47 0.73, -0.32 0.64, 0 0.46 M0 0.46 C0 0.35, 0 0.25, 0 0 M0 0.46 C0 0.3, 0 0.15, 0 0 M0 0 C0 0, 0 0, 0 0 M0 0 C0 0, 0 0, 0 0" stroke="#00000000" stroke-width="1" fill="none"></path></g></g><g stroke-linecap="round"><g transform="translate(356.0468149313709 484.2249962068954) rotate(0 -1.6036313820399357 1.5355364652978096)" fill-rule="evenodd"><path d="M0 0 L-3.73 2.25 L-3.73 2.72 L-3.13 3.07 L0.52 0.88 L0 0" stroke="none" stroke-width="0" fill="#669df6" fill-rule="evenodd"></path><path d="M0 0 C-1.47 0.89, -2.94 1.77, -3.73 2.25 M0 0 C-0.87 0.52, -1.74 1.05, -3.73 2.25 M-3.73 2.25 C-3.73 2.4, -3.73 2.55, -3.73 2.72 M-3.73 2.25 C-3.73 2.35, -3.73 2.44, -3.73 2.72 M-3.73 2.72 C-3.49 2.86, -3.25 3, -3.13 3.07 M-3.73 2.72 C-3.55 2.83, -3.36 2.94, -3.13 3.07 M-3.13 3.07 C-1.83 2.29, -0.53 1.51, 0.52 0.88 M-3.13 3.07 C-2.22 2.52, -1.31 1.98, 0.52 0.88 M0.52 0.88 C0.32 0.53, 0.11 0.18, 0 0 M0.52 0.88 C0.32 0.53, 0.11 0.18, 0 0 M0 0 C0 0, 0 0, 0 0 M0 0 C0 0, 0 0, 0 0" stroke="#00000000" stroke-width="1" fill="none"></path></g></g><g stroke-linecap="round"><g transform="translate(356.0468149313708 824.2249962068954) rotate(0 -1.6036313820399357 1.5355364652978096)" fill-rule="evenodd"><path d="M0 0 L-3.73 2.25 L-3.73 2.72 L-3.13 3.07 L0.52 0.88 L0 0" stroke="none" stroke-width="0" fill="#669df6" fill-rule="evenodd"></path><path d="M0 0 C-0.96 0.58, -1.91 1.15, -3.73 2.25 M0 0 C-0.9 0.54, -1.81 1.09, -3.73 2.25 M-3.73 2.25 C-3.73 2.37, -3.73 2.5, -3.73 2.72 M-3.73 2.25 C-3.73 2.35, -3.73 2.46, -3.73 2.72 M-3.73 2.72 C-3.59 2.81, -3.44 2.89, -3.13 3.07 M-3.73 2.72 C-3.55 2.83, -3.36 2.93, -3.13 3.07 M-3.13 3.07 C-1.92 2.34, -0.71 1.62, 0.52 0.88 M-3.13 3.07 C-2.28 2.56, -1.43 2.05, 0.52 0.88 M0.52 0.88 C0.32 0.53, 0.11 0.18, 0 0 M0.52 0.88 C0.42 0.7, 0.31 0.53, 0 0 M0 0 C0 0, 0 0, 0 0 M0 0 C0 0, 0 0, 0 0" stroke="#00000000" stroke-width="1" fill="none"></path></g></g><g stroke-linecap="round" transform="translate(350 250) rotate(0 180 40)"><path d="M8 0 L355.5 0.5 L358 2 L359.5 4.5 L360 8 L359.5 75.5 L358 78 L355.5 79.5 L352 80 L4.5 79.5 L2 78 L0.5 75.5 L0 72 L0 8 L0.5 4.5 L2 2 L4.5 0.5 L8 0" stroke="none" stroke-width="0" fill="#FFF"></path><path d="M8 0 M8 0 C102.99 0, 197.98 0, 352 0 M8 0 C111.88 0, 215.76 0, 352 0 M352 0 C357.33 0, 360 2.67, 360 8 M352 0 C357.33 0, 360 2.67, 360 8 M360 8 C360 23.23, 360 38.47, 360 72 M360 8 C360 25.38, 360 42.76, 360 72 M360 72 C360 77.33, 357.33 80, 352 80 M360 72 C360 77.33, 357.33 80, 352 80 M352 80 C276.31 80, 200.63 80, 8 80 M352 80 C239.92 80, 127.84 80, 8 80 M8 80 C2.67 80, 0 77.33, 0 72 M8 80 C2.67 80, 0 77.33, 0 72 M0 72 C0 59.04, 0 46.08, 0 8 M0 72 C0 56.26, 0 40.52, 0 8 M0 8 C0 2.67, 2.67 0, 8 0 M0 8 C0 2.67, 2.67 0, 8 0" stroke="#202124" stroke-width="1" fill="none"></path></g><g transform="translate(379.74545454978943 278.5) rotate(0 129 11.5)"><text x="0" y="18" font-family="Helvetica, Segoe UI Emoji" font-size="20px" fill="#1A73E8" text-anchor="start" style="white-space: pre;" direction="ltr">Google Cloud Load Balancer</text></g><g stroke-linecap="round"><g transform="translate(671.0254547595978 287.72909021377563) rotate(0 -1.0254549980163574 -2.0509088039398193)" fill-rule="evenodd"><path d="M0 0 L-2.05 0 L-2.05 -4.1 L0 -4.1 L0 0" stroke="none" stroke-width="0" fill="#4285f4" fill-rule="evenodd"></path><path d="M0 0 C-0.63 0, -1.26 0, -2.05 0 M0 0 C-0.5 0, -1 0, -2.05 0 M-2.05 0 C-2.05 -1.21, -2.05 -2.43, -2.05 -4.1 M-2.05 0 C-2.05 -1.14, -2.05 -2.28, -2.05 -4.1 M-2.05 -4.1 C-1.59 -4.1, -1.13 -4.1, 0 -4.1 M-2.05 -4.1 C-1.55 -4.1, -1.05 -4.1, 0 -4.1 M0 -4.1 C0 -2.92, 0 -1.74, 0 0 M0 -4.1 C0 -2.78, 0 -1.46, 0 0 M0 0 C0 0, 0 0, 0 0 M0 0 C0 0, 0 0, 0 0" stroke="#00000000" stroke-width="1" fill="none"></path></g></g><g stroke-linecap="round"><g transform="translate(661.7963635921478 287.72909021377563) rotate(0 8.203635454177856 2.563636302947998)" fill-rule="evenodd"><path d="M0 0 L0 5.13 L2.05 5.13 L2.05 2.05 L7.18 2.05 L7.18 5.13 L9.23 5.13 L9.23 2.05 L14.36 2.05 L14.36 5.13 L16.41 5.13 L16.41 0 L0 0" stroke="none" stroke-width="0" fill="#669df6" fill-rule="evenodd"></path><path d="M0 0 C0 1.97, 0 3.93, 0 5.13 M0 0 C0 1.69, 0 3.37, 0 5.13 M0 5.13 C0.51 5.13, 1.01 5.13, 2.05 5.13 M0 5.13 C0.52 5.13, 1.05 5.13, 2.05 5.13 M2.05 5.13 C2.05 4.4, 2.05 3.68, 2.05 2.05 M2.05 5.13 C2.05 4.13, 2.05 3.13, 2.05 2.05 M2.05 2.05 C3.93 2.05, 5.8 2.05, 7.18 2.05 M2.05 2.05 C3.49 2.05, 4.94 2.05, 7.18 2.05 M7.18 2.05 C7.18 2.74, 7.18 3.44, 7.18 5.13 M7.18 2.05 C7.18 2.87, 7.18 3.68, 7.18 5.13 M7.18 5.13 C7.87 5.13, 8.56 5.13, 9.23 5.13 M7.18 5.13 C7.69 5.13, 8.2 5.13, 9.23 5.13 M9.23 5.13 C9.23 4.14, 9.23 3.15, 9.23 2.05 M9.23 5.13 C9.23 4.27, 9.23 3.41, 9.23 2.05 M9.23 2.05 C10.56 2.05, 11.88 2.05, 14.36 2.05 M9.23 2.05 C10.81 2.05, 12.39 2.05, 14.36 2.05 M14.36 2.05 C14.36 2.82, 14.36 3.59, 14.36 5.13 M14.36 2.05 C14.36 2.79, 14.36 3.52, 14.36 5.13 M14.36 5.13 C15.14 5.13, 15.93 5.13, 16.41 5.13 M14.36 5.13 C15.08 5.13, 15.81 5.13, 16.41 5.13 M16.41 5.13 C16.41 3.63, 16.41 2.13, 16.41 0 M16.41 5.13 C16.41 3.27, 16.41 1.41, 16.41 0 M16.41 0 C11.13 0, 5.86 0, 0 0 M16.41 0 C12.69 0, 8.98 0, 0 0 M0 0 C0 0, 0 0, 0 0 M0 0 C0 0, 0 0, 0 0" stroke="#00000000" stroke-width="1" fill="none"></path></g></g><g stroke-linecap="round"><g transform="translate(663.8472726345062 278.5) rotate(0 6.152727365493774 2.563636302947998)" fill-rule="evenodd"><path d="M0 0 L12.31 0 L12.31 5.13 L0 5.13 L0 0" stroke="none" stroke-width="0" fill="#aecbfa" fill-rule="evenodd"></path><path d="M0 0 C4.54 0, 9.09 0, 12.31 0 M0 0 C2.57 0, 5.15 0, 12.31 0 M12.31 0 C12.31 1.82, 12.31 3.64, 12.31 5.13 M12.31 0 C12.31 1.99, 12.31 3.99, 12.31 5.13 M12.31 5.13 C8.75 5.13, 5.19 5.13, 0 5.13 M12.31 5.13 C8.91 5.13, 5.52 5.13, 0 5.13 M0 5.13 C0 3.17, 0 1.21, 0 0 M0 5.13 C0 3.97, 0 2.82, 0 0 M0 0 C0 0, 0 0, 0 0 M0 0 C0 0, 0 0, 0 0" stroke="#00000000" stroke-width="1" fill="none"></path></g></g><g stroke-linecap="round"><g transform="translate(669.9999992847443 278.5) rotate(0 3.076364040374756 2.563636302947998)" fill-rule="evenodd"><path d="M0 0 L6.15 0 L6.15 5.13 L0 5.13 L0 0" stroke="none" stroke-width="0" fill="#669df6" fill-rule="evenodd"></path><path d="M0 0 C1.31 0, 2.61 0, 6.15 0 M0 0 C1.31 0, 2.63 0, 6.15 0 M6.15 0 C6.15 1.63, 6.15 3.26, 6.15 5.13 M6.15 0 C6.15 1.92, 6.15 3.84, 6.15 5.13 M6.15 5.13 C3.72 5.13, 1.29 5.13, 0 5.13 M6.15 5.13 C4.71 5.13, 3.26 5.13, 0 5.13 M0 5.13 C0 3.46, 0 1.79, 0 0 M0 5.13 C0 3.18, 0 1.24, 0 0 M0 0 C0 0, 0 0, 0 0 M0 0 C0 0, 0 0, 0 0" stroke="#00000000" stroke-width="1" fill="none"></path></g></g><g stroke-linecap="round"><g transform="translate(674.1018173694611 292.85636281967163) rotate(0 3.076364040374756 3.076364040374756)" fill-rule="evenodd"><path d="M0 0 L6.15 0 L6.15 6.15 L0 6.15 L0 0" stroke="none" stroke-width="0" fill="#aecbfa" fill-rule="evenodd"></path><path d="M0 0 C2.42 0, 4.83 0, 6.15 0 M0 0 C1.83 0, 3.65 0, 6.15 0 M6.15 0 C6.15 1.73, 6.15 3.46, 6.15 6.15 M6.15 0 C6.15 1.77, 6.15 3.53, 6.15 6.15 M6.15 6.15 C4.18 6.15, 2.2 6.15, 0 6.15 M6.15 6.15 C4.02 6.15, 1.89 6.15, 0 6.15 M0 6.15 C0 4.47, 0 2.8, 0 0 M0 6.15 C0 4.49, 0 2.83, 0 0 M0 0 C0 0, 0 0, 0 0 M0 0 C0 0, 0 0, 0 0" stroke="#00000000" stroke-width="1" fill="none"></path></g></g><g stroke-linecap="round"><g transform="translate(659.7454545497894 292.85636281967163) rotate(0 3.0763635635375977 3.076364040374756)" fill-rule="evenodd"><path d="M0 0 L6.15 0 L6.15 6.15 L0 6.15 L0 0" stroke="none" stroke-width="0" fill="#aecbfa" fill-rule="evenodd"></path><path d="M0 0 C1.36 0, 2.72 0, 6.15 0 M0 0 C1.58 0, 3.17 0, 6.15 0 M6.15 0 C6.15 1.86, 6.15 3.72, 6.15 6.15 M6.15 0 C6.15 1.86, 6.15 3.72, 6.15 6.15 M6.15 6.15 C4.61 6.15, 3.07 6.15, 0 6.15 M6.15 6.15 C4.48 6.15, 2.81 6.15, 0 6.15 M0 6.15 C0 4.43, 0 2.71, 0 0 M0 6.15 C0 4.15, 0 2.14, 0 0 M0 0 C0 0, 0 0, 0 0 M0 0 C0 0, 0 0, 0 0" stroke="#00000000" stroke-width="1" fill="none"></path></g></g><g stroke-linecap="round"><g transform="translate(662.8218185901642 292.85636281967163) rotate(0 1.5381815433502197 3.076364040374756)" fill-rule="evenodd"><path d="M0 0 L3.08 0 L3.08 6.15 L0 6.15 L0 0" stroke="none" stroke-width="0" fill="#669df6" fill-rule="evenodd"></path><path d="M0 0 C1.03 0, 2.06 0, 3.08 0 M0 0 C1.03 0, 2.07 0, 3.08 0 M3.08 0 C3.08 1.62, 3.08 3.23, 3.08 6.15 M3.08 0 C3.08 1.94, 3.08 3.88, 3.08 6.15 M3.08 6.15 C2 6.15, 0.92 6.15, 0 6.15 M3.08 6.15 C2.15 6.15, 1.23 6.15, 0 6.15 M0 6.15 C0 4.63, 0 3.12, 0 0 M0 6.15 C0 3.76, 0 1.36, 0 0 M0 0 C0 0, 0 0, 0 0 M0 0 C0 0, 0 0, 0 0" stroke="#00000000" stroke-width="1" fill="none"></path></g></g><g stroke-linecap="round"><g transform="translate(666.9236357212067 292.85636281967163) rotate(0 3.076364040374756 3.076364040374756)" fill-rule="evenodd"><path d="M0 0 L6.15 0 L6.15 6.15 L0 6.15 L0 0" stroke="none" stroke-width="0" fill="#aecbfa" fill-rule="evenodd"></path><path d="M0 0 C2.43 0, 4.87 0, 6.15 0 M0 0 C2.13 0, 4.27 0, 6.15 0 M6.15 0 C6.15 1.76, 6.15 3.53, 6.15 6.15 M6.15 0 C6.15 2.33, 6.15 4.67, 6.15 6.15 M6.15 6.15 C3.81 6.15, 1.47 6.15, 0 6.15 M6.15 6.15 C4.66 6.15, 3.17 6.15, 0 6.15 M0 6.15 C0 4.43, 0 2.71, 0 0 M0 6.15 C0 4.86, 0 3.56, 0 0 M0 0 C0 0, 0 0, 0 0 M0 0 C0 0, 0 0, 0 0" stroke="#00000000" stroke-width="1" fill="none"></path></g></g><g stroke-linecap="round"><g transform="translate(669.9999992847443 292.85636281967163) rotate(0 1.538182258605957 3.076364040374756)" fill-rule="evenodd"><path d="M0 0 L3.08 0 L3.08 6.15 L0 6.15 L0 0" stroke="none" stroke-width="0" fill="#669df6" fill-rule="evenodd"></path><path d="M0 0 C1.21 0, 2.42 0, 3.08 0 M0 0 C1.07 0, 2.14 0, 3.08 0 M3.08 0 C3.08 2.25, 3.08 4.49, 3.08 6.15 M3.08 0 C3.08 2.28, 3.08 4.55, 3.08 6.15 M3.08 6.15 C2.09 6.15, 1.1 6.15, 0 6.15 M3.08 6.15 C2.16 6.15, 1.25 6.15, 0 6.15 M0 6.15 C0 4.05, 0 1.96, 0 0 M0 6.15 C0 3.73, 0 1.3, 0 0 M0 0 C0 0, 0 0, 0 0 M0 0 C0 0, 0 0, 0 0" stroke="#00000000" stroke-width="1" fill="none"></path></g></g><g stroke-linecap="round"><g transform="translate(677.1781828403473 292.85636281967163) rotate(0 1.5381813049316406 3.076364040374756)" fill-rule="evenodd"><path d="M0 0 L3.08 0 L3.08 6.15 L0 6.15 L0 0" stroke="none" stroke-width="0" fill="#669df6" fill-rule="evenodd"></path><path d="M0 0 C0.85 0, 1.7 0, 3.08 0 M0 0 C0.87 0, 1.74 0, 3.08 0 M3.08 0 C3.08 1.7, 3.08 3.4, 3.08 6.15 M3.08 0 C3.08 1.85, 3.08 3.7, 3.08 6.15 M3.08 6.15 C2.34 6.15, 1.61 6.15, 0 6.15 M3.08 6.15 C2.01 6.15, 0.94 6.15, 0 6.15 M0 6.15 C0 4.8, 0 3.45, 0 0 M0 6.15 C0 4, 0 1.84, 0 0 M0 0 C0 0, 0 0, 0 0 M0 0 C0 0, 0 0, 0 0" stroke="#00000000" stroke-width="1" fill="none"></path></g></g><g stroke-linecap="round" transform="translate(110 570) rotate(0 130 30)"><path d="M6 0 L256.63 0.38 L258.5 1.5 L259.63 3.38 L260 6 L259.63 56.63 L258.5 58.5 L254 60 L3.38 59.63 L1.5 58.5 L0 54 L0 6 L1.5 1.5 L6 0" stroke="none" stroke-width="0" fill="#FFF"></path><path d="M6 0 M6 0 C92.84 0, 179.68 0, 254 0 M6 0 C93.53 0, 181.07 0, 254 0 M254 0 C258 0, 260 2, 260 6 M254 0 C258 0, 260 2, 260 6 M260 6 C260 23.62, 260 41.24, 260 54 M260 6 C260 24.1, 260 42.21, 260 54 M260 54 C260 58, 258 60, 254 60 M260 54 C260 58, 258 60, 254 60 M254 60 C180.02 60, 106.04 60, 6 60 M254 60 C195.86 60, 137.71 60, 6 60 M6 60 C2 60, 0 58, 0 54 M6 60 C2 60, 0 58, 0 54 M0 54 C0 35.14, 0 16.28, 0 6 M0 54 C0 39.97, 0 25.95, 0 6 M0 6 C0 2, 2 0, 6 0 M0 6 C0 2, 2 0, 6 0" stroke="#202124" stroke-width="1" fill="none"></path></g><g stroke-linecap="round" transform="translate(110 650) rotate(0 130 30)"><path d="M6 0 L256.63 0.38 L258.5 1.5 L259.63 3.38 L260 6 L259.63 56.63 L258.5 58.5 L254 60 L3.38 59.63 L1.5 58.5 L0 54 L0 6 L1.5 1.5 L6 0" stroke="none" stroke-width="0" fill="#FFF"></path><path d="M6 0 M6 0 C104.86 0, 203.71 0, 254 0 M6 0 C62.99 0, 119.99 0, 254 0 M254 0 C258 0, 260 2, 260 6 M254 0 C258 0, 260 2, 260 6 M260 6 C260 24.07, 260 42.14, 260 54 M260 6 C260 16.34, 260 26.69, 260 54 M260 54 C260 58, 258 60, 254 60 M260 54 C260 58, 258 60, 254 60 M254 60 C197.1 60, 140.21 60, 6 60 M254 60 C169.89 60, 85.78 60, 6 60 M6 60 C2 60, 0 58, 0 54 M6 60 C2 60, 0 58, 0 54 M0 54 C0 42.07, 0 30.14, 0 6 M0 54 C0 36.83, 0 19.67, 0 6 M0 6 C0 2, 2 0, 6 0 M0 6 C0 2, 2 0, 6 0" stroke="#202124" stroke-width="1" fill="none"></path></g><g stroke-linecap="round" transform="translate(110 910) rotate(0 130 40)"><path d="M8 0 L255.5 0.5 L258 2 L259.5 4.5 L260 8 L259.5 75.5 L258 78 L255.5 79.5 L252 80 L4.5 79.5 L2 78 L0.5 75.5 L0 72 L0 8 L0.5 4.5 L2 2 L4.5 0.5 L8 0" stroke="none" stroke-width="0" fill="#FFF"></path><path d="M8 0 M8 0 C95.27 0, 182.53 0, 252 0 M8 0 C89.72 0, 171.44 0, 252 0 M252 0 C257.33 0, 260 2.67, 260 8 M252 0 C257.33 0, 260 2.67, 260 8 M260 8 C260 31.21, 260 54.42, 260 72 M260 8 C260 31.4, 260 54.79, 260 72 M260 72 C260 77.33, 257.33 80, 252 80 M260 72 C260 77.33, 257.33 80, 252 80 M252 80 C168.28 80, 84.56 80, 8 80 M252 80 C162.04 80, 72.09 80, 8 80 M8 80 C2.67 80, 0 77.33, 0 72 M8 80 C2.67 80, 0 77.33, 0 72 M0 72 C0 49.75, 0 27.5, 0 8 M0 72 C0 55.14, 0 38.29, 0 8 M0 8 C0 2.67, 2.67 0, 8 0 M0 8 C0 2.67, 2.67 0, 8 0" stroke="#202124" stroke-width="1" fill="none"></path></g><g stroke-linecap="round" transform="translate(110 1190) rotate(0 130 40)"><path d="M8 0 L255.5 0.5 L258 2 L259.5 4.5 L260 8 L259.5 75.5 L258 78 L255.5 79.5 L252 80 L4.5 79.5 L2 78 L0.5 75.5 L0 72 L0 8 L0.5 4.5 L2 2 L4.5 0.5 L8 0" stroke="none" stroke-width="0" fill="#FFF"></path><path d="M8 0 M8 0 C71.97 0, 135.94 0, 252 0 M8 0 C60.25 0, 112.51 0, 252 0 M252 0 C257.33 0, 260 2.67, 260 8 M252 0 C257.33 0, 260 2.67, 260 8 M260 8 C260 27.12, 260 46.25, 260 72 M260 8 C260 31.68, 260 55.36, 260 72 M260 72 C260 77.33, 257.33 80, 252 80 M260 72 C260 77.33, 257.33 80, 252 80 M252 80 C169.32 80, 86.64 80, 8 80 M252 80 C166.33 80, 80.65 80, 8 80 M8 80 C2.67 80, 0 77.33, 0 72 M8 80 C2.67 80, 0 77.33, 0 72 M0 72 C0 51.24, 0 30.48, 0 8 M0 72 C0 47.08, 0 22.16, 0 8 M0 8 C0 2.67, 2.67 0, 8 0 M0 8 C0 2.67, 2.67 0, 8 0" stroke="#202124" stroke-width="1" fill="none"></path></g><g stroke-linecap="round" transform="translate(110 1050) rotate(0 130 40)"><path d="M8 0 L255.5 0.5 L258 2 L259.5 4.5 L260 8 L259.5 75.5 L258 78 L255.5 79.5 L252 80 L4.5 79.5 L2 78 L0.5 75.5 L0 72 L0 8 L0.5 4.5 L2 2 L4.5 0.5 L8 0" stroke="none" stroke-width="0" fill="#FFF"></path><path d="M8 0 M8 0 C105.46 0, 202.92 0, 252 0 M8 0 C75.63 0, 143.26 0, 252 0 M252 0 C257.33 0, 260 2.67, 260 8 M252 0 C257.33 0, 260 2.67, 260 8 M260 8 C260 33.23, 260 58.46, 260 72 M260 8 C260 21.98, 260 35.97, 260 72 M260 72 C260 77.33, 257.33 80, 252 80 M260 72 C260 77.33, 257.33 80, 252 80 M252 80 C193.32 80, 134.65 80, 8 80 M252 80 C176.58 80, 101.16 80, 8 80 M8 80 C2.67 80, 0 77.33, 0 72 M8 80 C2.67 80, 0 77.33, 0 72 M0 72 C0 55.39, 0 38.78, 0 8 M0 72 C0 57.1, 0 42.2, 0 8 M0 8 C0 2.67, 2.67 0, 8 0 M0 8 C0 2.67, 2.67 0, 8 0" stroke="#202124" stroke-width="1" fill="none"></path></g><g stroke-linecap="round"><g transform="translate(240 991) rotate(0 0 29)"><path d="M0 0 C0 11.81, 0 23.62, 0 58 M0 0 C0 16.04, 0 32.07, 0 58" stroke="#202124" stroke-width="1" fill="none"></path></g><g transform="translate(240 991) rotate(0 0 29)"><path d="M0 58 L-6.34 44.41 L6.34 44.41 L0 58" stroke="none" stroke-width="0" fill="#202124" fill-rule="evenodd"></path><path d="M0 58 C-1.29 55.23, -2.58 52.46, -6.34 44.41 M0 58 C-1.75 54.24, -3.51 50.48, -6.34 44.41 M-6.34 44.41 C-1.49 44.41, 3.36 44.41, 6.34 44.41 M-6.34 44.41 C-1.39 44.41, 3.57 44.41, 6.34 44.41 M6.34 44.41 C4.19 49.01, 2.04 53.62, 0 58 M6.34 44.41 C4.15 49.1, 1.96 53.8, 0 58 M0 58 C0 58, 0 58, 0 58 M0 58 C0 58, 0 58, 0 58" stroke="#202124" stroke-width="1" fill="none"></path></g></g><g stroke-linecap="round"><g transform="translate(240 1131) rotate(0 0 29)"><path d="M0 0 C0 14.23, 0 28.46, 0 58 M0 0 C0 19.19, 0 38.38, 0 58" stroke="#202124" stroke-width="1" fill="none"></path></g><g transform="translate(240 1131) rotate(0 0 29)"><path d="M0 58 L-6.34 44.41 L6.34 44.41 L0 58" stroke="none" stroke-width="0" fill="#202124" fill-rule="evenodd"></path><path d="M0 58 C-1.56 54.66, -3.11 51.33, -6.34 44.41 M0 58 C-2.1 53.5, -4.19 49, -6.34 44.41 M-6.34 44.41 C-2.29 44.41, 1.75 44.41, 6.34 44.41 M-6.34 44.41 C-3.23 44.41, -0.13 44.41, 6.34 44.41 M6.34 44.41 C4.74 47.84, 3.14 51.27, 0 58 M6.34 44.41 C5.02 47.24, 3.7 50.07, 0 58 M0 58 C0 58, 0 58, 0 58 M0 58 C0 58, 0 58, 0 58" stroke="#202124" stroke-width="1" fill="none"></path></g></g><g stroke-linecap="round" transform="translate(650 790) rotate(0 150 180)"><path d="M30 0 L270 0 L277.03 0.47 L283.13 1.88 L288.28 4.22 L292.5 7.5 L295.78 11.72 L298.13 16.88 L299.53 22.97 L300 30 L300 330 L299.53 337.03 L298.13 343.13 L295.78 348.28 L292.5 352.5 L288.28 355.78 L283.13 358.13 L277.03 359.53 L270 360 L30 360 L22.97 359.53 L16.88 358.13 L11.72 355.78 L7.5 352.5 L4.22 348.28 L1.88 343.13 L0.47 337.03 L0 330 L0.47 22.97 L1.88 16.88 L4.22 11.72 L7.5 7.5 L11.72 4.22 L16.88 1.88 L22.97 0.47 L30 0" stroke="none" stroke-width="0" fill="#FFF"></path><path d="M30 0 M30 0 C103.37 0, 176.74 0, 270 0 M30 0 C96.74 0, 163.47 0, 270 0 M270 0 C290 0, 300 10, 300 30 M270 0 C290 0, 300 10, 300 30 M300 30 C300 128.96, 300 227.92, 300 330 M300 30 C300 134.19, 300 238.39, 300 330 M300 330 C300 350, 290 360, 270 360 M300 330 C300 350, 290 360, 270 360 M270 360 C217.09 360, 164.18 360, 30 360 M270 360 C216.37 360, 162.74 360, 30 360 M30 360 C10 360, 0 350, 0 330 M30 360 C10 360, 0 350, 0 330 M0 330 C0 218.32, 0 106.64, 0 30 M0 330 C0 227.4, 0 124.8, 0 30 M0 30 C0 10, 10 0, 30 0 M0 30 C0 10, 10 0, 30 0" stroke="#202124" stroke-width="1" fill="none"></path></g><g stroke-linecap="round"><g transform="translate(920.7521632932267 810) rotate(0 -0.006810417072472319 12.205986256869323)" fill-rule="evenodd"><path d="M0 0 L-10.75 6.11 L-10.75 18.3 L-0.02 24.41 L10.74 18.26 L10.74 5.99 L0 0" stroke="none" stroke-width="0" fill="#aecbfa" fill-rule="evenodd"></path><path d="M0 0 C-4.25 2.41, -8.49 4.82, -10.75 6.11 M0 0 C-3.53 2.01, -7.06 4.01, -10.75 6.11 M-10.75 6.11 C-10.75 10.29, -10.75 14.47, -10.75 18.3 M-10.75 6.11 C-10.75 9.84, -10.75 13.56, -10.75 18.3 M-10.75 18.3 C-8.07 19.82, -5.4 21.35, -0.02 24.41 M-10.75 18.3 C-7.24 20.3, -3.73 22.3, -0.02 24.41 M-0.02 24.41 C2.95 22.71, 5.92 21.01, 10.74 18.26 M-0.02 24.41 C3.92 22.16, 7.85 19.91, 10.74 18.26 M10.74 18.26 C10.74 15.73, 10.74 13.21, 10.74 5.99 M10.74 18.26 C10.74 14.08, 10.74 9.9, 10.74 5.99 M10.74 5.99 C8.52 4.75, 6.29 3.51, 0 0 M10.74 5.99 C6.92 3.86, 3.1 1.73, 0 0 M0 0 C0 0, 0 0, 0 0 M0 0 C0 0, 0 0, 0 0" stroke="#00000000" stroke-width="1" fill="none"></path></g></g><g stroke-linecap="round"><g transform="translate(920.7589721679685 812.6556957121488) rotate(0 -0.013618777704323293 9.546886171613437)" fill-rule="evenodd"><path d="M0 0 L-8.44 4.8 L-8.44 14.29 L-0.03 19.09 L8.42 14.26 L8.42 4.7 L0 0" stroke="none" stroke-width="0" fill="#fff" fill-rule="evenodd"></path><path d="M0 0 C-1.8 1.02, -3.59 2.04, -8.44 4.8 M0 0 C-2.99 1.7, -5.98 3.4, -8.44 4.8 M-8.44 4.8 C-8.44 8.08, -8.44 11.37, -8.44 14.29 M-8.44 4.8 C-8.44 7.14, -8.44 9.48, -8.44 14.29 M-8.44 14.29 C-5.64 15.89, -2.84 17.49, -0.03 19.09 M-8.44 14.29 C-6.38 15.47, -4.32 16.65, -0.03 19.09 M-0.03 19.09 C3.04 17.34, 6.11 15.58, 8.42 14.26 M-0.03 19.09 C2.92 17.4, 5.88 15.71, 8.42 14.26 M8.42 14.26 C8.42 12.27, 8.42 10.28, 8.42 4.7 M8.42 14.26 C8.42 11.32, 8.42 8.37, 8.42 4.7 M8.42 4.7 C6.22 3.47, 4.01 2.24, 0 0 M8.42 4.7 C5.26 2.94, 2.11 1.18, 0 0 M0 0 C0 0, 0 0, 0 0 M0 0 C0 0, 0 0, 0 0" stroke="#00000000" stroke-width="1" fill="none"></path></g></g><g stroke-linecap="round"><g transform="translate(921.2833017930186 822.4953898458148) rotate(0 2.386721382243934 1.4231802639614557)" fill-rule="evenodd"><path d="M0 0 L0 5.67 L4.77 2.87 L4.77 -2.83 L0 0" stroke="none" stroke-width="0" fill="#4285f4" fill-rule="evenodd"></path><path d="M0 0 C0 1.31, 0 2.61, 0 5.67 M0 0 C0 1.16, 0 2.32, 0 5.67 M0 5.67 C1.38 4.86, 2.76 4.06, 4.77 2.87 M0 5.67 C1.19 4.97, 2.38 4.28, 4.77 2.87 M4.77 2.87 C4.77 0.66, 4.77 -1.55, 4.77 -2.83 M4.77 2.87 C4.77 0.69, 4.77 -1.5, 4.77 -2.83 M4.77 -2.83 C3.31 -1.96, 1.85 -1.1, 0 0 M4.77 -2.83 C3.49 -2.06, 2.2 -1.3, 0 0 M0 0 C0 0, 0 0, 0 0 M0 0 C0 0, 0 0, 0 0" stroke="#00000000" stroke-width="1" fill="none"></path></g></g><g stroke-linecap="round"><g transform="translate(915.862959375921 818.7501776507602) rotate(0 4.882394528453233 0.01021408327824247)" fill-rule="evenodd"><path d="M0 0 L4.84 2.81 L9.76 -0.01 L4.84 -2.79 L0 0" stroke="none" stroke-width="0" fill="#aecbfa" fill-rule="evenodd"></path><path d="M0 0 C1.69 0.98, 3.37 1.96, 4.84 2.81 M0 0 C1.79 1.04, 3.59 2.08, 4.84 2.81 M4.84 2.81 C5.98 2.16, 7.12 1.51, 9.76 -0.01 M4.84 2.81 C6.02 2.13, 7.19 1.46, 9.76 -0.01 M9.76 -0.01 C8.24 -0.87, 6.72 -1.73, 4.84 -2.79 M9.76 -0.01 C8.24 -0.87, 6.71 -1.73, 4.84 -2.79 M4.84 -2.79 C3.03 -1.75, 1.23 -0.71, 0 0 M4.84 -2.79 C3.01 -1.73, 1.19 -0.68, 0 0 M0 0 C0 0, 0 0, 0 0 M0 0 C0 0, 0 0, 0 0" stroke="#00000000" stroke-width="1" fill="none"></path></g></g><g stroke-linecap="round"><g transform="translate(915.4067241535031 819.696694525747) rotate(0 2.35267418092792 4.235494361733515)" fill-rule="evenodd"><path d="M0 0 L4.74 2.83 L4.74 8.47 L-0.03 5.58 L0 0" stroke="none" stroke-width="0" fill="#669df6" fill-rule="evenodd"></path><path d="M0 0 C1.69 1.01, 3.39 2.02, 4.74 2.83 M0 0 C1.57 0.94, 3.14 1.88, 4.74 2.83 M4.74 2.83 C4.74 4.9, 4.74 6.98, 4.74 8.47 M4.74 2.83 C4.74 4.86, 4.74 6.88, 4.74 8.47 M4.74 8.47 C3.78 7.89, 2.82 7.31, -0.03 5.58 M4.74 8.47 C3.11 7.49, 1.49 6.51, -0.03 5.58 M-0.03 5.58 C-0.02 3.83, -0.01 2.07, 0 0 M-0.03 5.58 C-0.02 3.55, -0.01 1.51, 0 0 M0 0 C0 0, 0 0, 0 0 M0 0 C0 0, 0 0, 0 0" stroke="#00000000" stroke-width="1" fill="none"></path></g></g><g stroke-linecap="round"><g transform="translate(921.2833017930186 816.6460492475978) rotate(0 -0.5481622289775601 -1.9951767677245584)" fill-rule="evenodd"><path d="M0 0 L0 -3.7 L-0.52 -3.99 L-1.1 -3.66 L-1.1 0 L0 0" stroke="none" stroke-width="0" fill="#aecbfa" fill-rule="evenodd"></path><path d="M0 0 C0 -1.24, 0 -2.49, 0 -3.7 M0 0 C0 -1.26, 0 -2.52, 0 -3.7 M0 -3.7 C-0.17 -3.79, -0.34 -3.89, -0.52 -3.99 M0 -3.7 C-0.19 -3.81, -0.39 -3.91, -0.52 -3.99 M-0.52 -3.99 C-0.75 -3.86, -0.98 -3.72, -1.1 -3.66 M-0.52 -3.99 C-0.71 -3.88, -0.9 -3.77, -1.1 -3.66 M-1.1 -3.66 C-1.1 -2.56, -1.1 -1.46, -1.1 0 M-1.1 -3.66 C-1.1 -2.72, -1.1 -1.79, -1.1 0 M-1.1 0 C-0.7 0, -0.3 0, 0 0 M-1.1 0 C-0.74 0, -0.39 0, 0 0 M0 0 C0 0, 0 0, 0 0 M0 0 C0 0, 0 0, 0 0" stroke="#00000000" stroke-width="1" fill="none"></path></g></g><g stroke-linecap="round"><g transform="translate(929.1754847523982 826.4585035123594) rotate(0 -2.1926509723509184 -0.7183984926126072)" fill-rule="evenodd"><path d="M0 0 L-3.87 -2.25 L-4.39 -1.37 L-0.63 0.82 L0 0.46 L0 0" stroke="none" stroke-width="0" fill="#4285f4" fill-rule="evenodd"></path><path d="M0 0 C-1.1 -0.64, -2.21 -1.29, -3.87 -2.25 M0 0 C-1.53 -0.89, -3.06 -1.78, -3.87 -2.25 M-3.87 -2.25 C-4.05 -1.95, -4.22 -1.65, -4.39 -1.37 M-3.87 -2.25 C-3.99 -2.05, -4.11 -1.85, -4.39 -1.37 M-4.39 -1.37 C-3.3 -0.74, -2.22 -0.11, -0.63 0.82 M-4.39 -1.37 C-3.23 -0.69, -2.07 -0.02, -0.63 0.82 M-0.63 0.82 C-0.42 0.7, -0.22 0.58, 0 0.46 M-0.63 0.82 C-0.44 0.71, -0.26 0.61, 0 0.46 M0 0.46 C0 0.3, 0 0.14, 0 0 M0 0.46 C0 0.31, 0 0.17, 0 0 M0 0 C0 0, 0 0, 0 0 M0 0 C0 0, 0 0, 0 0" stroke="#00000000" stroke-width="1" fill="none"></path></g></g><g stroke-linecap="round"><g transform="translate(916.0468149313708 824.2249962068954) rotate(0 -1.6036313820399073 1.5355364652978096)" fill-rule="evenodd"><path d="M0 0 L-3.73 2.25 L-3.73 2.72 L-3.13 3.07 L0.52 0.88 L0 0" stroke="none" stroke-width="0" fill="#669df6" fill-rule="evenodd"></path><path d="M0 0 C-0.84 0.51, -1.68 1.01, -3.73 2.25 M0 0 C-1.15 0.69, -2.3 1.39, -3.73 2.25 M-3.73 2.25 C-3.73 2.43, -3.73 2.61, -3.73 2.72 M-3.73 2.25 C-3.73 2.4, -3.73 2.55, -3.73 2.72 M-3.73 2.72 C-3.55 2.83, -3.37 2.93, -3.13 3.07 M-3.73 2.72 C-3.5 2.86, -3.27 2.99, -3.13 3.07 M-3.13 3.07 C-1.73 2.23, -0.32 1.39, 0.52 0.88 M-3.13 3.07 C-2.15 2.48, -1.17 1.9, 0.52 0.88 M0.52 0.88 C0.34 0.56, 0.15 0.25, 0 0 M0.52 0.88 C0.34 0.57, 0.15 0.26, 0 0 M0 0 C0 0, 0 0, 0 0 M0 0 C0 0, 0 0, 0 0" stroke="#00000000" stroke-width="1" fill="none"></path></g></g><g stroke-linecap="round" transform="translate(670 910) rotate(0 130 40)"><path d="M8 0 L255.5 0.5 L258 2 L259.5 4.5 L260 8 L259.5 75.5 L258 78 L255.5 79.5 L252 80 L4.5 79.5 L2 78 L0.5 75.5 L0 72 L0 8 L0.5 4.5 L2 2 L4.5 0.5 L8 0" stroke="none" stroke-width="0" fill="#FFF"></path><path d="M8 0 M8 0 C68.87 0, 129.75 0, 252 0 M8 0 C81.61 0, 155.22 0, 252 0 M252 0 C257.33 0, 260 2.67, 260 8 M252 0 C257.33 0, 260 2.67, 260 8 M260 8 C260 25.66, 260 43.32, 260 72 M260 8 C260 32.56, 260 57.11, 260 72 M260 72 C260 77.33, 257.33 80, 252 80 M260 72 C260 77.33, 257.33 80, 252 80 M252 80 C201.81 80, 151.61 80, 8 80 M252 80 C164.56 80, 77.11 80, 8 80 M8 80 C2.67 80, 0 77.33, 0 72 M8 80 C2.67 80, 0 77.33, 0 72 M0 72 C0 58.75, 0 45.5, 0 8 M0 72 C0 51.98, 0 31.96, 0 8 M0 8 C0 2.67, 2.67 0, 8 0 M0 8 C0 2.67, 2.67 0, 8 0" stroke="#202124" stroke-width="1" fill="none"></path></g><g stroke-linecap="round" transform="translate(670 1050) rotate(0 130 40)"><path d="M8 0 L255.5 0.5 L258 2 L259.5 4.5 L260 8 L259.5 75.5 L258 78 L255.5 79.5 L252 80 L4.5 79.5 L2 78 L0.5 75.5 L0 72 L0 8 L0.5 4.5 L2 2 L4.5 0.5 L8 0" stroke="none" stroke-width="0" fill="#FFF"></path><path d="M8 0 M8 0 C56.97 0, 105.95 0, 252 0 M8 0 C87.87 0, 167.73 0, 252 0 M252 0 C257.33 0, 260 2.67, 260 8 M252 0 C257.33 0, 260 2.67, 260 8 M260 8 C260 28.12, 260 48.24, 260 72 M260 8 C260 31.41, 260 54.82, 260 72 M260 72 C260 77.33, 257.33 80, 252 80 M260 72 C260 77.33, 257.33 80, 252 80 M252 80 C163.43 80, 74.85 80, 8 80 M252 80 C168.85 80, 85.7 80, 8 80 M8 80 C2.67 80, 0 77.33, 0 72 M8 80 C2.67 80, 0 77.33, 0 72 M0 72 C0 48.91, 0 25.81, 0 8 M0 72 C0 49.24, 0 26.48, 0 8 M0 8 C0 2.67, 2.67 0, 8 0 M0 8 C0 2.67, 2.67 0, 8 0" stroke="#202124" stroke-width="1" fill="none"></path></g><g stroke-linecap="round"><g transform="translate(800 990) rotate(0 0 30)"><path d="M0 0 C0 22.22, 0 44.44, 0 60 M0 0 C0 13.87, 0 27.74, 0 60" stroke="#202124" stroke-width="1" fill="none"></path></g><g transform="translate(800 990) rotate(0 0 30)"><path d="M0 60 L-6.34 46.41 L6.34 46.41 L0 60" stroke="none" stroke-width="0" fill="#202124" fill-rule="evenodd"></path><path d="M0 60 C-2.35 54.96, -4.7 49.93, -6.34 46.41 M0 60 C-1.47 56.86, -2.93 53.71, -6.34 46.41 M-6.34 46.41 C-3.31 46.41, -0.28 46.41, 6.34 46.41 M-6.34 46.41 C-2.42 46.41, 1.51 46.41, 6.34 46.41 M6.34 46.41 C4.37 50.63, 2.4 54.85, 0 60 M6.34 46.41 C3.97 51.48, 1.61 56.56, 0 60 M0 60 C0 60, 0 60, 0 60 M0 60 C0 60, 0 60, 0 60" stroke="#202124" stroke-width="1" fill="none"></path></g></g><g stroke-linecap="round"><g transform="translate(800 1130) rotate(0 -215 50)"><path d="M0 0 C0 33.13, 0 66.26, 0 100 M0 0 C0 36.74, 0 73.48, 0 100 M0 100 C-154.43 100, -308.87 100, -430 100 M0 100 C-86.31 100, -172.62 100, -430 100" stroke="#202124" stroke-width="1" fill="none"></path></g><g transform="translate(800 1130) rotate(0 -215 50)"><path d="M-430 100 L-416.41 93.66 L-416.41 106.34 L-430 100" stroke="none" stroke-width="0" fill="#202124" fill-rule="evenodd"></path><path d="M-430 100 C-425.5 97.9, -420.99 95.8, -416.41 93.66 M-430 100 C-425.01 97.67, -420.01 95.34, -416.41 93.66 M-416.41 93.66 C-416.41 98.21, -416.41 102.77, -416.41 106.34 M-416.41 93.66 C-416.41 96.21, -416.41 98.75, -416.41 106.34 M-416.41 106.34 C-421.03 104.18, -425.66 102.02, -430 100 M-416.41 106.34 C-420.68 104.35, -424.95 102.35, -430 100 M-430 100 C-430 100, -430 100, -430 100 M-430 100 C-430 100, -430 100, -430 100" stroke="#202124" stroke-width="1" fill="none"></path></g></g><g stroke-linecap="round"><g transform="translate(530 331) rotate(0 -80 309.5)"><path d="M0 0 C0 138.19, 0 276.38, 0 619 M0 0 C0 140.81, 0 281.61, 0 619 M0 619 C-59.1 619, -118.21 619, -160 619 M0 619 C-49.63 619, -99.25 619, -160 619" stroke="#202124" stroke-width="1" fill="none"></path></g><g transform="translate(530 331) rotate(0 -80 309.5)"><path d="M-160 619 L-146.41 612.66 L-146.41 625.34 L-160 619" stroke="none" stroke-width="0" fill="#202124" fill-rule="evenodd"></path><path d="M-160 619 C-156.97 617.58, -153.93 616.17, -146.41 612.66 M-160 619 C-156.91 617.56, -153.82 616.12, -146.41 612.66 M-146.41 612.66 C-146.41 617.34, -146.41 622.03, -146.41 625.34 M-146.41 612.66 C-146.41 616.59, -146.41 620.53, -146.41 625.34 M-146.41 625.34 C-149.35 623.97, -152.3 622.59, -160 619 M-146.41 625.34 C-151.28 623.07, -156.15 620.79, -160 619 M-160 619 C-160 619, -160 619, -160 619 M-160 619 C-160 619, -160 619, -160 619" stroke="#202124" stroke-width="1" fill="none"></path></g></g><g stroke-linecap="round"><g transform="translate(530 331) rotate(0 70 309.5)"><path d="M0 0 C0 221.64, 0 443.28, 0 619 M0 0 C0 161.8, 0 323.61, 0 619 M0 619 C41.7 619, 83.4 619, 140 619 M0 619 C41.62 619, 83.24 619, 140 619" stroke="#202124" stroke-width="1" fill="none"></path></g><g transform="translate(530 331) rotate(0 70 309.5)"><path d="M140 619 L126.41 625.34 L126.41 612.66 L140 619" stroke="none" stroke-width="0" fill="#202124" fill-rule="evenodd"></path><path d="M140 619 C135.13 621.27, 130.26 623.54, 126.41 625.34 M140 619 C136.45 620.66, 132.89 622.31, 126.41 625.34 M126.41 625.34 C126.41 621.56, 126.41 617.79, 126.41 612.66 M126.41 625.34 C126.41 621.57, 126.41 617.8, 126.41 612.66 M126.41 612.66 C129.27 614, 132.13 615.33, 140 619 M126.41 612.66 C130.51 614.57, 134.61 616.49, 140 619 M140 619 C140 619, 140 619, 140 619 M140 619 C140 619, 140 619, 140 619" stroke="#202124" stroke-width="1" fill="none"></path></g></g><g stroke-linecap="round" transform="translate(570 890) rotate(0 20 20)"><path d="M40 20 C40 21.16, 39.9 22.33, 39.7 23.47 C39.5 24.61, 39.19 25.75, 38.79 26.84 C38.4 27.93, 37.9 29, 37.32 30 C36.74 31, 36.07 31.97, 35.32 32.86 C34.58 33.74, 33.74 34.58, 32.86 35.32 C31.97 36.07, 31 36.74, 30 37.32 C29 37.9, 27.93 38.4, 26.84 38.79 C25.75 39.19, 24.61 39.5, 23.47 39.7 C22.33 39.9, 21.16 40, 20 40 C18.84 40, 17.67 39.9, 16.53 39.7 C15.39 39.5, 14.25 39.19, 13.16 38.79 C12.07 38.4, 11 37.9, 10 37.32 C9 36.74, 8.03 36.07, 7.14 35.32 C6.26 34.58, 5.42 33.74, 4.68 32.86 C3.93 31.97, 3.26 31, 2.68 30 C2.1 29, 1.6 27.93, 1.21 26.84 C0.81 25.75, 0.5 24.61, 0.3 23.47 C0.1 22.33, 0 21.16, 0 20 C0 18.84, 0.1 17.67, 0.3 16.53 C0.5 15.39, 0.81 14.25, 1.21 13.16 C1.6 12.07, 2.1 11, 2.68 10 C3.26 9, 3.93 8.03, 4.68 7.14 C5.42 6.26, 6.26 5.42, 7.14 4.68 C8.03 3.93, 9 3.26, 10 2.68 C11 2.1, 12.07 1.6, 13.16 1.21 C14.25 0.81, 15.39 0.5, 16.53 0.3 C17.67 0.1, 18.84 0, 20 0 C21.16 0, 22.33 0.1, 23.47 0.3 C24.61 0.5, 25.75 0.81, 26.84 1.21 C27.93 1.6, 29 2.1, 30 2.68 C31 3.26, 31.97 3.93, 32.86 4.68 C33.74 5.42, 34.58 6.26, 35.32 7.14 C36.07 8.03, 36.74 9, 37.32 10 C37.9 11, 38.4 12.07, 38.79 13.16 C39.19 14.25, 39.5 15.39, 39.7 16.53 C39.9 17.67, 39.95 19.42, 40 20 C40.05 20.58, 40.05 19.42, 40 20" stroke="none" stroke-width="0" fill="#000"></path><path d="M40 20 C40 21.16, 39.9 22.33, 39.7 23.47 C39.5 24.61, 39.19 25.75, 38.79 26.84 C38.4 27.93, 37.9 29, 37.32 30 C36.74 31, 36.07 31.97, 35.32 32.86 C34.58 33.74, 33.74 34.58, 32.86 35.32 C31.97 36.07, 31 36.74, 30 37.32 C29 37.9, 27.93 38.4, 26.84 38.79 C25.75 39.19, 24.61 39.5, 23.47 39.7 C22.33 39.9, 21.16 40, 20 40 C18.84 40, 17.67 39.9, 16.53 39.7 C15.39 39.5, 14.25 39.19, 13.16 38.79 C12.07 38.4, 11 37.9, 10 37.32 C9 36.74, 8.03 36.07, 7.14 35.32 C6.26 34.58, 5.42 33.74, 4.68 32.86 C3.93 31.97, 3.26 31, 2.68 30 C2.1 29, 1.6 27.93, 1.21 26.84 C0.81 25.75, 0.5 24.61, 0.3 23.47 C0.1 22.33, 0 21.16, 0 20 C0 18.84, 0.1 17.67, 0.3 16.53 C0.5 15.39, 0.81 14.25, 1.21 13.16 C1.6 12.07, 2.1 11, 2.68 10 C3.26 9, 3.93 8.03, 4.68 7.14 C5.42 6.26, 6.26 5.42, 7.14 4.68 C8.03 3.93, 9 3.26, 10 2.68 C11 2.1, 12.07 1.6, 13.16 1.21 C14.25 0.81, 15.39 0.5, 16.53 0.3 C17.67 0.1, 18.84 0, 20 0 C21.16 0, 22.33 0.1, 23.47 0.3 C24.61 0.5, 25.75 0.81, 26.84 1.21 C27.93 1.6, 29 2.1, 30 2.68 C31 3.26, 31.97 3.93, 32.86 4.68 C33.74 5.42, 34.58 6.26, 35.32 7.14 C36.07 8.03, 36.74 9, 37.32 10 C37.9 11, 38.4 12.07, 38.79 13.16 C39.19 14.25, 39.5 15.39, 39.7 16.53 C39.9 17.67, 39.95 19.42, 40 20 C40.05 20.58, 40.05 19.42, 40 20" stroke="#202124" stroke-width="2" fill="none"></path></g><g transform="translate(585 901) rotate(0 5 9)"><text x="0" y="14" font-family="Helvetica, Segoe UI Emoji" font-size="16px" fill="#fff" text-anchor="start" style="white-space: pre;" direction="ltr">2</text></g><g stroke-linecap="round" transform="translate(550 190) rotate(0 20 20)"><path d="M40 20 C40 21.16, 39.9 22.33, 39.7 23.47 C39.5 24.61, 39.19 25.75, 38.79 26.84 C38.4 27.93, 37.9 29, 37.32 30 C36.74 31, 36.07 31.97, 35.32 32.86 C34.58 33.74, 33.74 34.58, 32.86 35.32 C31.97 36.07, 31 36.74, 30 37.32 C29 37.9, 27.93 38.4, 26.84 38.79 C25.75 39.19, 24.61 39.5, 23.47 39.7 C22.33 39.9, 21.16 40, 20 40 C18.84 40, 17.67 39.9, 16.53 39.7 C15.39 39.5, 14.25 39.19, 13.16 38.79 C12.07 38.4, 11 37.9, 10 37.32 C9 36.74, 8.03 36.07, 7.14 35.32 C6.26 34.58, 5.42 33.74, 4.68 32.86 C3.93 31.97, 3.26 31, 2.68 30 C2.1 29, 1.6 27.93, 1.21 26.84 C0.81 25.75, 0.5 24.61, 0.3 23.47 C0.1 22.33, 0 21.16, 0 20 C0 18.84, 0.1 17.67, 0.3 16.53 C0.5 15.39, 0.81 14.25, 1.21 13.16 C1.6 12.07, 2.1 11, 2.68 10 C3.26 9, 3.93 8.03, 4.68 7.14 C5.42 6.26, 6.26 5.42, 7.14 4.68 C8.03 3.93, 9 3.26, 10 2.68 C11 2.1, 12.07 1.6, 13.16 1.21 C14.25 0.81, 15.39 0.5, 16.53 0.3 C17.67 0.1, 18.84 0, 20 0 C21.16 0, 22.33 0.1, 23.47 0.3 C24.61 0.5, 25.75 0.81, 26.84 1.21 C27.93 1.6, 29 2.1, 30 2.68 C31 3.26, 31.97 3.93, 32.86 4.68 C33.74 5.42, 34.58 6.26, 35.32 7.14 C36.07 8.03, 36.74 9, 37.32 10 C37.9 11, 38.4 12.07, 38.79 13.16 C39.19 14.25, 39.5 15.39, 39.7 16.53 C39.9 17.67, 39.95 19.42, 40 20 C40.05 20.58, 40.05 19.42, 40 20" stroke="none" stroke-width="0" fill="#000"></path><path d="M40 20 C40 21.16, 39.9 22.33, 39.7 23.47 C39.5 24.61, 39.19 25.75, 38.79 26.84 C38.4 27.93, 37.9 29, 37.32 30 C36.74 31, 36.07 31.97, 35.32 32.86 C34.58 33.74, 33.74 34.58, 32.86 35.32 C31.97 36.07, 31 36.74, 30 37.32 C29 37.9, 27.93 38.4, 26.84 38.79 C25.75 39.19, 24.61 39.5, 23.47 39.7 C22.33 39.9, 21.16 40, 20 40 C18.84 40, 17.67 39.9, 16.53 39.7 C15.39 39.5, 14.25 39.19, 13.16 38.79 C12.07 38.4, 11 37.9, 10 37.32 C9 36.74, 8.03 36.07, 7.14 35.32 C6.26 34.58, 5.42 33.74, 4.68 32.86 C3.93 31.97, 3.26 31, 2.68 30 C2.1 29, 1.6 27.93, 1.21 26.84 C0.81 25.75, 0.5 24.61, 0.3 23.47 C0.1 22.33, 0 21.16, 0 20 C0 18.84, 0.1 17.67, 0.3 16.53 C0.5 15.39, 0.81 14.25, 1.21 13.16 C1.6 12.07, 2.1 11, 2.68 10 C3.26 9, 3.93 8.03, 4.68 7.14 C5.42 6.26, 6.26 5.42, 7.14 4.68 C8.03 3.93, 9 3.26, 10 2.68 C11 2.1, 12.07 1.6, 13.16 1.21 C14.25 0.81, 15.39 0.5, 16.53 0.3 C17.67 0.1, 18.84 0, 20 0 C21.16 0, 22.33 0.1, 23.47 0.3 C24.61 0.5, 25.75 0.81, 26.84 1.21 C27.93 1.6, 29 2.1, 30 2.68 C31 3.26, 31.97 3.93, 32.86 4.68 C33.74 5.42, 34.58 6.26, 35.32 7.14 C36.07 8.03, 36.74 9, 37.32 10 C37.9 11, 38.4 12.07, 38.79 13.16 C39.19 14.25, 39.5 15.39, 39.7 16.53 C39.9 17.67, 39.95 19.42, 40 20 C40.05 20.58, 40.05 19.42, 40 20" stroke="#202124" stroke-width="2" fill="none"></path></g><g transform="translate(560.5 200) rotate(0 9.5 9)"><text x="0" y="14" font-family="Helvetica, Segoe UI Emoji" font-size="16px" fill="#fff" text-anchor="start" style="white-space: pre;" direction="ltr"> 1 </text></g><g stroke-linecap="round" transform="translate(830 1000) rotate(0 20 20)"><path d="M40 20 C40 21.16, 39.9 22.33, 39.7 23.47 C39.5 24.61, 39.19 25.75, 38.79 26.84 C38.4 27.93, 37.9 29, 37.32 30 C36.74 31, 36.07 31.97, 35.32 32.86 C34.58 33.74, 33.74 34.58, 32.86 35.32 C31.97 36.07, 31 36.74, 30 37.32 C29 37.9, 27.93 38.4, 26.84 38.79 C25.75 39.19, 24.61 39.5, 23.47 39.7 C22.33 39.9, 21.16 40, 20 40 C18.84 40, 17.67 39.9, 16.53 39.7 C15.39 39.5, 14.25 39.19, 13.16 38.79 C12.07 38.4, 11 37.9, 10 37.32 C9 36.74, 8.03 36.07, 7.14 35.32 C6.26 34.58, 5.42 33.74, 4.68 32.86 C3.93 31.97, 3.26 31, 2.68 30 C2.1 29, 1.6 27.93, 1.21 26.84 C0.81 25.75, 0.5 24.61, 0.3 23.47 C0.1 22.33, 0 21.16, 0 20 C0 18.84, 0.1 17.67, 0.3 16.53 C0.5 15.39, 0.81 14.25, 1.21 13.16 C1.6 12.07, 2.1 11, 2.68 10 C3.26 9, 3.93 8.03, 4.68 7.14 C5.42 6.26, 6.26 5.42, 7.14 4.68 C8.03 3.93, 9 3.26, 10 2.68 C11 2.1, 12.07 1.6, 13.16 1.21 C14.25 0.81, 15.39 0.5, 16.53 0.3 C17.67 0.1, 18.84 0, 20 0 C21.16 0, 22.33 0.1, 23.47 0.3 C24.61 0.5, 25.75 0.81, 26.84 1.21 C27.93 1.6, 29 2.1, 30 2.68 C31 3.26, 31.97 3.93, 32.86 4.68 C33.74 5.42, 34.58 6.26, 35.32 7.14 C36.07 8.03, 36.74 9, 37.32 10 C37.9 11, 38.4 12.07, 38.79 13.16 C39.19 14.25, 39.5 15.39, 39.7 16.53 C39.9 17.67, 39.95 19.42, 40 20 C40.05 20.58, 40.05 19.42, 40 20" stroke="none" stroke-width="0" fill="#000"></path><path d="M40 20 C40 21.16, 39.9 22.33, 39.7 23.47 C39.5 24.61, 39.19 25.75, 38.79 26.84 C38.4 27.93, 37.9 29, 37.32 30 C36.74 31, 36.07 31.97, 35.32 32.86 C34.58 33.74, 33.74 34.58, 32.86 35.32 C31.97 36.07, 31 36.74, 30 37.32 C29 37.9, 27.93 38.4, 26.84 38.79 C25.75 39.19, 24.61 39.5, 23.47 39.7 C22.33 39.9, 21.16 40, 20 40 C18.84 40, 17.67 39.9, 16.53 39.7 C15.39 39.5, 14.25 39.19, 13.16 38.79 C12.07 38.4, 11 37.9, 10 37.32 C9 36.74, 8.03 36.07, 7.14 35.32 C6.26 34.58, 5.42 33.74, 4.68 32.86 C3.93 31.97, 3.26 31, 2.68 30 C2.1 29, 1.6 27.93, 1.21 26.84 C0.81 25.75, 0.5 24.61, 0.3 23.47 C0.1 22.33, 0 21.16, 0 20 C0 18.84, 0.1 17.67, 0.3 16.53 C0.5 15.39, 0.81 14.25, 1.21 13.16 C1.6 12.07, 2.1 11, 2.68 10 C3.26 9, 3.93 8.03, 4.68 7.14 C5.42 6.26, 6.26 5.42, 7.14 4.68 C8.03 3.93, 9 3.26, 10 2.68 C11 2.1, 12.07 1.6, 13.16 1.21 C14.25 0.81, 15.39 0.5, 16.53 0.3 C17.67 0.1, 18.84 0, 20 0 C21.16 0, 22.33 0.1, 23.47 0.3 C24.61 0.5, 25.75 0.81, 26.84 1.21 C27.93 1.6, 29 2.1, 30 2.68 C31 3.26, 31.97 3.93, 32.86 4.68 C33.74 5.42, 34.58 6.26, 35.32 7.14 C36.07 8.03, 36.74 9, 37.32 10 C37.9 11, 38.4 12.07, 38.79 13.16 C39.19 14.25, 39.5 15.39, 39.7 16.53 C39.9 17.67, 39.95 19.42, 40 20 C40.05 20.58, 40.05 19.42, 40 20" stroke="#202124" stroke-width="2" fill="none"></path></g><g transform="translate(845 1011) rotate(0 5 9)"><text x="0" y="14" font-family="Helvetica, Segoe UI Emoji" font-size="16px" fill="#fff" text-anchor="start" style="white-space: pre;" direction="ltr">3</text></g><g stroke-linecap="round" transform="translate(550 1170) rotate(0 20 20)"><path d="M40 20 C40 21.16, 39.9 22.33, 39.7 23.47 C39.5 24.61, 39.19 25.75, 38.79 26.84 C38.4 27.93, 37.9 29, 37.32 30 C36.74 31, 36.07 31.97, 35.32 32.86 C34.58 33.74, 33.74 34.58, 32.86 35.32 C31.97 36.07, 31 36.74, 30 37.32 C29 37.9, 27.93 38.4, 26.84 38.79 C25.75 39.19, 24.61 39.5, 23.47 39.7 C22.33 39.9, 21.16 40, 20 40 C18.84 40, 17.67 39.9, 16.53 39.7 C15.39 39.5, 14.25 39.19, 13.16 38.79 C12.07 38.4, 11 37.9, 10 37.32 C9 36.74, 8.03 36.07, 7.14 35.32 C6.26 34.58, 5.42 33.74, 4.68 32.86 C3.93 31.97, 3.26 31, 2.68 30 C2.1 29, 1.6 27.93, 1.21 26.84 C0.81 25.75, 0.5 24.61, 0.3 23.47 C0.1 22.33, 0 21.16, 0 20 C0 18.84, 0.1 17.67, 0.3 16.53 C0.5 15.39, 0.81 14.25, 1.21 13.16 C1.6 12.07, 2.1 11, 2.68 10 C3.26 9, 3.93 8.03, 4.68 7.14 C5.42 6.26, 6.26 5.42, 7.14 4.68 C8.03 3.93, 9 3.26, 10 2.68 C11 2.1, 12.07 1.6, 13.16 1.21 C14.25 0.81, 15.39 0.5, 16.53 0.3 C17.67 0.1, 18.84 0, 20 0 C21.16 0, 22.33 0.1, 23.47 0.3 C24.61 0.5, 25.75 0.81, 26.84 1.21 C27.93 1.6, 29 2.1, 30 2.68 C31 3.26, 31.97 3.93, 32.86 4.68 C33.74 5.42, 34.58 6.26, 35.32 7.14 C36.07 8.03, 36.74 9, 37.32 10 C37.9 11, 38.4 12.07, 38.79 13.16 C39.19 14.25, 39.5 15.39, 39.7 16.53 C39.9 17.67, 39.95 19.42, 40 20 C40.05 20.58, 40.05 19.42, 40 20" stroke="none" stroke-width="0" fill="#000"></path><path d="M40 20 C40 21.16, 39.9 22.33, 39.7 23.47 C39.5 24.61, 39.19 25.75, 38.79 26.84 C38.4 27.93, 37.9 29, 37.32 30 C36.74 31, 36.07 31.97, 35.32 32.86 C34.58 33.74, 33.74 34.58, 32.86 35.32 C31.97 36.07, 31 36.74, 30 37.32 C29 37.9, 27.93 38.4, 26.84 38.79 C25.75 39.19, 24.61 39.5, 23.47 39.7 C22.33 39.9, 21.16 40, 20 40 C18.84 40, 17.67 39.9, 16.53 39.7 C15.39 39.5, 14.25 39.19, 13.16 38.79 C12.07 38.4, 11 37.9, 10 37.32 C9 36.74, 8.03 36.07, 7.14 35.32 C6.26 34.58, 5.42 33.74, 4.68 32.86 C3.93 31.97, 3.26 31, 2.68 30 C2.1 29, 1.6 27.93, 1.21 26.84 C0.81 25.75, 0.5 24.61, 0.3 23.47 C0.1 22.33, 0 21.16, 0 20 C0 18.84, 0.1 17.67, 0.3 16.53 C0.5 15.39, 0.81 14.25, 1.21 13.16 C1.6 12.07, 2.1 11, 2.68 10 C3.26 9, 3.93 8.03, 4.68 7.14 C5.42 6.26, 6.26 5.42, 7.14 4.68 C8.03 3.93, 9 3.26, 10 2.68 C11 2.1, 12.07 1.6, 13.16 1.21 C14.25 0.81, 15.39 0.5, 16.53 0.3 C17.67 0.1, 18.84 0, 20 0 C21.16 0, 22.33 0.1, 23.47 0.3 C24.61 0.5, 25.75 0.81, 26.84 1.21 C27.93 1.6, 29 2.1, 30 2.68 C31 3.26, 31.97 3.93, 32.86 4.68 C33.74 5.42, 34.58 6.26, 35.32 7.14 C36.07 8.03, 36.74 9, 37.32 10 C37.9 11, 38.4 12.07, 38.79 13.16 C39.19 14.25, 39.5 15.39, 39.7 16.53 C39.9 17.67, 39.95 19.42, 40 20 C40.05 20.58, 40.05 19.42, 40 20" stroke="#202124" stroke-width="2" fill="none"></path></g><g transform="translate(565 1181) rotate(0 5 9)"><text x="0" y="14" font-family="Helvetica, Segoe UI Emoji" font-size="16px" fill="#fff" text-anchor="start" style="white-space: pre;" direction="ltr">4</text></g><g transform="translate(722 730) rotate(0 78 11.5)"><text x="0" y="18" font-family="Helvetica, Segoe UI Emoji" font-size="20px" fill="#000000" text-anchor="start" style="white-space: pre;" direction="ltr">Region in Europe</text></g><g transform="translate(180.5 390) rotate(0 59.5 11.5)"><text x="0" y="18" font-family="Helvetica, Segoe UI Emoji" font-size="20px" fill="#000000" text-anchor="start" style="white-space: pre;" direction="ltr">Region in US</text></g><g transform="translate(154 588.5) rotate(0 86 11.5)"><text x="86" y="18" font-family="Helvetica, Segoe UI Emoji" font-size="20px" fill="#000000" text-anchor="middle" style="white-space: pre;" direction="ltr">MultiClusterIngress</text></g><g transform="translate(183.5 927) rotate(0 56.5 23)"><text x="56.5" y="18" font-family="Helvetica, Segoe UI Emoji" font-size="20px" fill="#000000" text-anchor="middle" style="white-space: pre;" direction="ltr">frontend</text><text x="56.5" y="41" font-family="Helvetica, Segoe UI Emoji" font-size="20px" fill="#000000" text-anchor="middle" style="white-space: pre;" direction="ltr">microservice</text></g><g transform="translate(178.5 1067) rotate(0 61.5 23)"><text x="61.5" y="18" font-family="Helvetica, Segoe UI Emoji" font-size="20px" fill="#000000" text-anchor="middle" style="white-space: pre;" direction="ltr"> 9 backend</text><text x="61.5" y="41" font-family="Helvetica, Segoe UI Emoji" font-size="20px" fill="#000000" text-anchor="middle" style="white-space: pre;" direction="ltr">microservices</text></g><g transform="translate(170 1207) rotate(0 70 23)"><text x="70" y="18" font-family="Helvetica, Segoe UI Emoji" font-size="20px" fill="#000000" text-anchor="middle" style="white-space: pre;" direction="ltr">multi-cluster</text><text x="70" y="41" font-family="Helvetica, Segoe UI Emoji" font-size="20px" fill="#000000" text-anchor="middle" style="white-space: pre;" direction="ltr">Redis database</text></g><g transform="translate(738.5 1067) rotate(0 61.5 23)"><text x="61.5" y="18" font-family="Helvetica, Segoe UI Emoji" font-size="20px" fill="#000000" text-anchor="middle" style="white-space: pre;" direction="ltr">9 backend</text><text x="61.5" y="41" font-family="Helvetica, Segoe UI Emoji" font-size="20px" fill="#000000" text-anchor="middle" style="white-space: pre;" direction="ltr">microservices</text></g><g transform="translate(743.5 927) rotate(0 56.5 23)"><text x="56.5" y="18" font-family="Helvetica, Segoe UI Emoji" font-size="20px" fill="#000000" text-anchor="middle" style="white-space: pre;" direction="ltr">frontend</text><text x="56.5" y="41" font-family="Helvetica, Segoe UI Emoji" font-size="20px" fill="#000000" text-anchor="middle" style="white-space: pre;" direction="ltr">microservice</text></g><g transform="translate(670 810) rotate(0 110 10.259067357512947)"><text x="110" y="16.51813471502591" font-family="Helvetica, Segoe UI Emoji" font-size="18.238341968911918px" fill="#1A73E8" text-anchor="middle" style="white-space: pre;" direction="ltr">Google Kubernetes Engine</text></g><g transform="translate(110 470) rotate(0 110 10.259067357512947)"><text x="110" y="16.51813471502591" font-family="Helvetica, Segoe UI Emoji" font-size="18.238341968911918px" fill="#1A73E8" text-anchor="middle" style="white-space: pre;" direction="ltr">Google Kubernetes Engine</text></g><g transform="translate(670 839.7590673575129) rotate(0 71 10.5)"><text x="71" y="17" font-family="Helvetica, Segoe UI Emoji" font-size="18.238341968911918px" fill="#000000" text-anchor="middle" style="white-space: pre;" direction="ltr">Cluster in Europe</text></g><g transform="translate(110 499.75906735751295) rotate(0 56 10.5)"><text x="56" y="17" font-family="Helvetica, Segoe UI Emoji" font-size="18.238341968911918px" fill="#000000" text-anchor="middle" style="white-space: pre;" direction="ltr">Config cluster</text></g><g transform="translate(670 870) rotate(0 31.5 9)"><text x="31.5" y="14" font-family="Helvetica, Segoe UI Emoji" font-size="16px" fill="#000000" text-anchor="middle" style="white-space: pre;" direction="ltr">Autopilot</text></g><g transform="translate(110 530) rotate(0 31.5 9)"><text x="31.5" y="14" font-family="Helvetica, Segoe UI Emoji" font-size="16px" fill="#000000" text-anchor="middle" style="white-space: pre;" direction="ltr">Autopilot</text></g><g transform="translate(153.5 668.5) rotate(0 86.5 11.5)"><text x="86.5" y="18" font-family="Helvetica, Segoe UI Emoji" font-size="20px" fill="#000000" text-anchor="middle" style="white-space: pre;" direction="ltr">MultiClusterService</text></g><g transform="translate(110 810) rotate(0 110 10.259067357512947)"><text x="110" y="16.51813471502591" font-family="Helvetica, Segoe UI Emoji" font-size="18.238341968911918px" fill="#1A73E8" text-anchor="middle" style="white-space: pre;" direction="ltr">Google Kubernetes Engine</text></g><g transform="translate(110 839.7590673575129) rotate(0 54 10.5)"><text x="54" y="17" font-family="Helvetica, Segoe UI Emoji" font-size="18.238341968911918px" fill="#000000" text-anchor="middle" style="white-space: pre;" direction="ltr">Cluster in US</text></g><g transform="translate(110 870) rotate(0 31.5 9)"><text x="31.5" y="14" font-family="Helvetica, Segoe UI Emoji" font-size="16px" fill="#000000" text-anchor="middle" style="white-space: pre;" direction="ltr">Autopilot</text></g><g stroke-linecap="round"><g transform="translate(230.00916670851095 731.0769230769231) rotate(0 -0.0009071808387801639 28.923076923076906)"><path d="M0 0 C0 13.48, 0 26.95, 0 57.85" stroke="#202124" stroke-width="1.5" fill="none" stroke-dasharray="8 9"></path></g><g transform="translate(230.00916670851095 731.0769230769231) rotate(0 -0.0009071808387801639 28.923076923076906)"><path d="M0 57.85 L-6.34 44.25 L6.34 44.25 L0 57.85" stroke="none" stroke-width="0" fill="#202124" fill-rule="evenodd"></path><path d="M0 57.85 C-1.48 54.68, -2.96 51.51, -6.34 44.25 M-6.34 44.25 C-1.5 44.25, 3.33 44.25, 6.34 44.25 M6.34 44.25 C4.72 47.71, 3.11 51.18, 0 57.85 M0 57.85 C0 57.85, 0 57.85, 0 57.85" stroke="#202124" stroke-width="1.5" fill="none"></path></g></g><g stroke-linecap="round"><g transform="translate(391.07692307692315 623.5289919671845) rotate(0 128.92307692307688 89.09947107951808)"><path d="M0 0 C70.47 48.7, 140.93 97.4, 257.85 178.2" stroke="#202124" stroke-width="1.5" fill="none" stroke-dasharray="8 9"></path></g><g transform="translate(391.07692307692315 623.5289919671845) rotate(0 128.92307692307688 89.09947107951808)"><path d="M257.85 178.2 L243.06 175.68 L250.27 165.25 L257.85 178.2" stroke="none" stroke-width="0" fill="#202124" fill-rule="evenodd"></path><path d="M257.85 178.2 C253.8 177.51, 249.76 176.82, 243.06 175.68 M243.06 175.68 C245.28 172.47, 247.5 169.26, 250.27 165.25 M250.27 165.25 C251.88 168.02, 253.5 170.78, 257.85 178.2 M257.85 178.2 C257.85 178.2, 257.85 178.2, 257.85 178.2" stroke="#202124" stroke-width="1.5" fill="none"></path></g></g></svg>