<?xml version="1.0" encoding="iso-8859-1"?>
<!-- Uploaded to: SVG Repo, www.svgrepo.com, Generator: SVG Repo Mixer Tools -->
<svg fill="black" height="100px" width="100px" version="1.1" id="Layer_1" xmlns="http://www.w3.org/2000/svg" xmlns:xlink="http://www.w3.org/1999/xlink"
	 viewBox="0 0 512 512" xml:space="preserve">
<g>
	<g>
		<path d="M339.08,374.03c-22.133-35.317-33.832-76.131-33.832-118.03s11.699-82.714,33.832-118.03
			c21.545-34.38,52.024-62.245,88.14-80.584l29.316-14.886L427.22,27.612C391.138,9.291,352.191,0,311.464,0
			c-68.38,0-132.667,26.628-181.02,74.98C82.093,123.333,55.464,187.62,55.464,256s26.63,132.667,74.98,181.02
			c48.353,48.352,112.64,74.98,181.02,74.98c40.729,0,79.674-9.291,115.755-27.612l29.316-14.887l-29.316-14.886
			C391.103,436.276,360.625,408.41,339.08,374.03z M311.464,478.609c-122.746,0-222.609-99.862-222.609-222.609
			S188.718,33.391,311.464,33.391c24.642,0,48.525,3.906,71.335,11.642c-28.772,19.81-53.319,45.373-72.014,75.204
			c-25.468,40.637-38.929,87.583-38.929,135.762s13.461,95.125,38.929,135.762c18.695,29.831,43.241,55.395,72.014,75.204
			C359.988,474.703,336.106,478.609,311.464,478.609z"/>
	</g>
</g>
</svg>