<svg version="1.1" id="Layer_1" xmlns="http://www.w3.org/2000/svg" xmlns:xlink="http://www.w3.org/1999/xlink" x="0px" y="0px"
	 width="100%" viewBox="0 0 3364 436" enable-background="new 0 0 3364 436" xml:space="preserve">
  <path fill="#000000" opacity="0" stroke="none"
        d="
M139.437500,305.000000
	C124.393456,268.178558 109.790779,231.355591 95.179222,194.536163
	C81.979912,161.275421 68.794930,128.008942 55.552715,94.765274
	C51.113560,83.621094 46.345535,72.624748 40.051323,62.358692
	C33.219009,51.214977 23.687342,43.637619 10.967694,40.292252
	C8.176538,39.558159 6.029675,38.752026 6.426757,35.055618
	C6.838868,31.219316 9.436164,31.710812 11.878625,31.709953
	C50.867733,31.696253 89.856857,31.694664 128.845947,31.727068
	C130.595367,31.728521 132.610352,31.253876 133.789291,33.239540
	C135.372284,35.905769 133.741623,38.909702 130.529175,39.304943
	C124.932579,39.993519 119.285210,40.417419 113.753716,41.456036
	C102.719139,43.527927 96.725899,49.263256 95.751114,59.258591
	C95.203423,64.874580 96.701088,70.493088 98.697540,75.795212
	C107.199699,98.374947 115.771637,120.928604 124.385353,143.466064
	C135.734848,173.161606 147.134338,202.838058 158.565155,232.502365
	C159.254761,234.291962 159.377274,236.445984 161.830078,238.139923
	C164.476166,230.995712 167.093048,224.087799 169.598938,217.139862
	C191.335724,156.871353 213.053558,96.596008 234.771606,36.320740
	C235.628159,33.943565 236.269882,31.681974 239.671631,31.652548
	C243.057327,31.623260 243.797882,33.887642 244.692093,36.215153
	C256.210968,66.196770 267.713593,96.184624 279.222748,126.169968
	C293.234589,162.675751 307.248169,199.180893 321.267792,235.683701
	C321.496582,236.279449 321.811584,236.842102 322.342102,237.958191
	C326.054535,231.903168 327.918518,225.566177 330.327240,219.522263
	C345.856598,180.556000 361.327026,141.565292 376.563080,102.483704
	C380.547058,92.264519 383.847931,81.750488 382.004120,70.425438
	C380.541443,61.441628 375.614594,54.860413 368.198578,49.946575
	C360.879333,45.096874 352.728607,42.287258 344.236023,40.349289
	C343.102692,40.090668 341.976562,39.776741 340.829590,39.606297
	C337.978394,39.182610 337.642609,37.257839 337.691406,34.857559
	C337.749298,32.006714 339.549805,31.717833 341.724304,31.717932
	C373.881927,31.719404 406.039551,31.708103 438.197174,31.726549
	C440.001251,31.727585 442.029541,31.571032 442.254883,34.252930
	C442.458771,36.679245 442.462738,38.951839 439.626129,40.015045
	C434.296936,42.012524 429.377930,44.786510 424.693909,48.002354
	C410.942749,57.443279 402.042297,70.834160 394.473541,85.266335
	C383.850922,105.521645 376.392639,127.127457 367.917877,148.289810
	C347.622253,198.970367 327.542816,249.737488 307.388123,300.474457
	C306.898651,301.706604 306.549683,302.994598 306.067566,304.628265
	C303.629425,305.000000 301.258881,305.000000 298.354187,304.633667
	C297.706085,303.781128 297.646149,303.274414 297.470490,302.811615
	C273.451721,239.533371 249.440933,176.252060 225.357941,112.998253
	C223.882172,109.122147 222.947647,104.947121 220.062561,100.822807
	C195.202347,169.357941 170.601181,237.178970 146.000000,305.000000
	C143.958328,305.000000 141.916672,305.000000 139.437500,305.000000
M85.391685,93.039986
	C82.002457,84.883049 78.987946,76.590805 77.205986,67.924255
	C75.290344,58.607525 77.157570,50.404732 84.797539,44.042614
	C85.834961,43.178707 87.484200,42.641068 87.455162,40.693367
	C69.307343,40.693367 51.259182,40.693367 32.301178,40.693367
	C36.187149,44.967842 39.662010,48.454346 42.753185,52.253071
	C52.150143,63.800896 57.552223,77.512535 62.963623,91.114410
	C86.592705,150.507507 109.964302,210.003036 133.577728,269.402405
	C136.293335,276.233490 138.260742,283.461029 142.939758,290.760773
	C145.555405,283.383392 147.675552,276.945679 150.141006,270.643036
	C151.372849,267.493927 151.353592,264.754242 150.123611,261.563812
	C128.570206,205.656281 107.125572,149.706818 85.391685,93.039986
M265.790100,141.532349
	C255.755585,115.014809 245.721054,88.497269 235.686523,61.979733
	C231.813431,69.512611 229.157654,76.971672 226.372635,84.382172
	C225.311859,87.204758 225.523880,89.768715 226.648193,92.552521
	C229.699249,100.106987 232.533966,107.749084 235.434433,115.364067
	C255.560196,168.203049 275.673187,221.046890 295.814972,273.879761
	C297.863220,279.252472 300.074890,284.562897 302.210693,289.902222
	C306.136566,283.101379 308.788177,276.193909 311.586395,269.346405
	C312.666046,266.704468 312.545959,264.276184 311.509491,261.657745
	C308.387085,253.769363 305.381134,245.834564 302.366699,237.903824
	C290.250946,206.028107 278.149109,174.147095 265.790100,141.532349
M402.969879,50.504894
	C405.967194,47.379128 408.964478,44.253365 412.429047,40.640305
	C397.794495,40.640305 384.083069,40.640305 368.901611,40.640305
	C380.298187,47.282722 388.251923,55.110329 389.934540,68.735001
	C394.454895,61.926533 398.016205,56.140522 402.969879,50.504894
z"/>
<path fill="#38211C" opacity="0" stroke="none"
      d="
M139.437500,305.000000
	C124.393456,268.178558 109.790779,231.355591 95.179222,194.536163
	C81.979912,161.275421 68.794930,128.008942 55.552715,94.765274
	C51.113560,83.621094 46.345535,72.624748 40.051323,62.358692
	C33.219009,51.214977 23.687342,43.637619 10.967694,40.292252
	C8.176538,39.558159 6.029675,38.752026 6.426757,35.055618
	C6.838868,31.219316 9.436164,31.710812 11.878625,31.709953
	C50.867733,31.696253 89.856857,31.694664 128.845947,31.727068
	C130.595367,31.728521 132.610352,31.253876 133.789291,33.239540
	C135.372284,35.905769 133.741623,38.909702 130.529175,39.304943
	C124.932579,39.993519 119.285210,40.417419 113.753716,41.456036
	C102.719139,43.527927 96.725899,49.263256 95.751114,59.258591
	C95.203423,64.874580 96.701088,70.493088 98.697540,75.795212
	C107.199699,98.374947 115.771637,120.928604 124.385353,143.466064
	C135.734848,173.161606 147.134338,202.838058 158.565155,232.502365
	C159.254761,234.291962 159.377274,236.445984 161.830078,238.139923
	C164.476166,230.995712 167.093048,224.087799 169.598938,217.139862
	C191.335724,156.871353 213.053558,96.596008 234.771606,36.320740
	C235.628159,33.943565 236.269882,31.681974 239.671631,31.652548
	C243.057327,31.623260 243.797882,33.887642 244.692093,36.215153
	C256.210968,66.196770 267.713593,96.184624 279.222748,126.169968
	C293.234589,162.675751 307.248169,199.180893 321.267792,235.683701
	C321.496582,236.279449 321.811584,236.842102 322.342102,237.958191
	C326.054535,231.903168 327.918518,225.566177 330.327240,219.522263
	C345.856598,180.556000 361.327026,141.565292 376.563080,102.483704
	C380.547058,92.264519 383.847931,81.750488 382.004120,70.425438
	C380.541443,61.441628 375.614594,54.860413 368.198578,49.946575
	C360.879333,45.096874 352.728607,42.287258 344.236023,40.349289
	C343.102692,40.090668 341.976562,39.776741 340.829590,39.606297
	C337.978394,39.182610 337.642609,37.257839 337.691406,34.857559
	C337.749298,32.006714 339.549805,31.717833 341.724304,31.717932
	C373.881927,31.719404 406.039551,31.708103 438.197174,31.726549
	C440.001251,31.727585 442.029541,31.571032 442.254883,34.252930
	C442.458771,36.679245 442.462738,38.951839 439.626129,40.015045
	C434.296936,42.012524 429.377930,44.786510 424.693909,48.002354
	C410.942749,57.443279 402.042297,70.834160 394.473541,85.266335
	C383.850922,105.521645 376.392639,127.127457 367.917877,148.289810
	C347.622253,198.970367 327.542816,249.737488 307.388123,300.474457
	C306.898651,301.706604 306.549683,302.994598 306.067566,304.628265
	C303.629425,305.000000 301.258881,305.000000 298.354187,304.633667
	C297.706085,303.781128 297.646149,303.274414 297.470490,302.811615
	C273.451721,239.533371 249.440933,176.252060 225.357941,112.998253
	C223.882172,109.122147 222.947647,104.947121 220.062561,100.822807
	C195.202347,169.357941 170.601181,237.178970 146.000000,305.000000
	C143.958328,305.000000 141.916672,305.000000 139.437500,305.000000
M85.391685,93.039986
	C82.002457,84.883049 78.987946,76.590805 77.205986,67.924255
	C75.290344,58.607525 77.157570,50.404732 84.797539,44.042614
	C85.834961,43.178707 87.484200,42.641068 87.455162,40.693367
	C69.307343,40.693367 51.259182,40.693367 32.301178,40.693367
	C36.187149,44.967842 39.662010,48.454346 42.753185,52.253071
	C52.150143,63.800896 57.552223,77.512535 62.963623,91.114410
	C86.592705,150.507507 109.964302,210.003036 133.577728,269.402405
	C136.293335,276.233490 138.260742,283.461029 142.939758,290.760773
	C145.555405,283.383392 147.675552,276.945679 150.141006,270.643036
	C151.372849,267.493927 151.353592,264.754242 150.123611,261.563812
	C128.570206,205.656281 107.125572,149.706818 85.391685,93.039986
M265.790100,141.532349
	C255.755585,115.014809 245.721054,88.497269 235.686523,61.979733
	C231.813431,69.512611 229.157654,76.971672 226.372635,84.382172
	C225.311859,87.204758 225.523880,89.768715 226.648193,92.552521
	C229.699249,100.106987 232.533966,107.749084 235.434433,115.364067
	C255.560196,168.203049 275.673187,221.046890 295.814972,273.879761
	C297.863220,279.252472 300.074890,284.562897 302.210693,289.902222
	C306.136566,283.101379 308.788177,276.193909 311.586395,269.346405
	C312.666046,266.704468 312.545959,264.276184 311.509491,261.657745
	C308.387085,253.769363 305.381134,245.834564 302.366699,237.903824
	C290.250946,206.028107 278.149109,174.147095 265.790100,141.532349
M402.969879,50.504894
	C405.967194,47.379128 408.964478,44.253365 412.429047,40.640305
	C397.794495,40.640305 384.083069,40.640305 368.901611,40.640305
	C380.298187,47.282722 388.251923,55.110329 389.934540,68.735001
	C394.454895,61.926533 398.016205,56.140522 402.969879,50.504894
z"/>

<path fill="#3A231E" opacity="1.000000" stroke="none"
	d="
M1523.130005,353.092865
	C1522.256714,348.445923 1524.560791,346.803345 1528.881714,345.756744
	C1542.055664,342.565796 1553.398926,336.604156 1558.001099,322.635315
	C1559.479614,318.147705 1559.997559,313.343597 1560.955444,307.805847
	C1560.969604,289.280640 1560.983398,271.633911 1560.997070,253.987152
	C1560.980591,243.356674 1560.963989,232.726181 1560.748535,221.279160
	C1559.411743,220.303909 1558.273804,220.007065 1557.135742,220.006424
	C1514.114868,219.982590 1471.093994,219.976151 1428.073120,220.030609
	C1426.700806,220.032349 1425.329224,220.697266 1423.957275,221.053040
	C1423.957275,221.053055 1423.963379,220.975830 1423.709473,221.277740
	C1423.315308,222.222794 1423.053101,222.865723 1423.052124,223.509094
	C1423.023560,241.281113 1423.004395,259.053223 1423.057373,276.825073
	C1423.060547,277.894196 1423.674927,278.961517 1424.004761,280.029694
	C1424.004761,280.029694 1424.059937,280.473297 1423.959229,281.164246
	C1423.852783,285.641663 1423.726318,289.432709 1423.868530,293.213623
	C1424.100586,299.388275 1424.507812,305.556335 1424.841064,311.727173
	C1425.823853,315.908203 1426.363892,320.257050 1427.873535,324.238312
	C1432.153076,335.524292 1440.876831,341.879059 1452.240845,345.016846
	C1454.158569,345.546326 1456.004517,346.551758 1457.942505,346.744110
	C1461.575073,347.104706 1462.281982,349.211670 1461.444580,352.651276
	C1420.674438,353.054474 1380.393066,353.067505 1340.111572,353.080536
	C1338.853027,347.712158 1342.696045,347.013794 1346.432129,345.667297
	C1351.933105,343.684814 1357.512085,341.618805 1362.544189,338.702240
	C1370.917969,333.848694 1375.304688,326.029846 1376.803467,315.680756
	C1376.927979,311.856354 1376.952759,308.861511 1376.977539,305.866669
	C1376.977539,305.866669 1377.012207,306.036865 1377.377197,305.974487
	C1377.832886,304.754578 1378.003296,303.596954 1378.002686,302.439423
	C1377.974609,245.061142 1377.932007,187.682846 1377.890869,130.304565
	C1377.165283,126.414200 1376.991455,122.314728 1375.611328,118.672379
	C1371.324707,107.360214 1363.415771,99.640633 1351.580444,96.277924
	C1348.494629,95.401154 1345.128906,94.981873 1342.453613,93.401375
	C1341.030273,92.560532 1340.809570,89.684082 1340.535645,87.344971
	C1381.310913,86.939011 1421.596680,86.914597 1461.882446,86.890175
	C1462.644287,91.093201 1461.586304,93.359978 1456.754028,94.475983
	C1446.597656,96.821632 1436.940063,101.002960 1431.304199,110.328232
	C1428.330078,115.249466 1427.245605,121.312759 1424.899170,127.408798
	C1424.322876,137.334656 1424.155640,146.712143 1423.988281,156.089630
	C1423.988281,156.089630 1424.059448,156.528671 1423.745850,157.056763
	C1423.321167,175.140732 1423.201782,192.696579 1423.135742,210.252655
	C1423.133545,210.829376 1423.674194,211.408142 1423.961792,211.985947
	C1467.785278,211.994095 1511.609009,211.938065 1555.431885,212.107941
	C1559.904419,212.125290 1561.075073,210.790283 1561.003418,206.440186
	C1560.759277,191.614426 1560.924927,176.781921 1561.010498,161.017212
	C1561.090088,155.317993 1561.217041,150.549591 1561.065186,145.790085
	C1560.878662,139.939850 1560.459351,134.097015 1560.140625,128.250992
	C1559.882446,111.345016 1546.583374,98.963776 1529.650391,94.621162
	C1525.994507,93.683609 1521.780396,93.320534 1523.548828,87.326691
	C1564.318726,86.932259 1604.601929,86.912384 1644.885010,86.892509
	C1645.613037,91.048767 1644.615112,93.281448 1639.797119,94.459801
	C1627.221313,97.535545 1616.145752,103.360420 1611.010742,116.260612
	C1609.244507,120.697418 1608.889771,125.696083 1607.523682,130.992737
	C1607.110229,131.876358 1607.022583,132.205338 1607.022461,132.534332
	C1607.005127,190.402863 1606.988647,248.271393 1607.020142,306.139893
	C1607.020752,307.353760 1607.578857,308.567291 1607.876953,309.780975
	C1608.784058,326.313446 1618.340698,341.474518 1636.688477,345.560699
	C1640.015991,346.301788 1645.912109,345.528259 1644.447754,352.648773
	C1603.682617,353.056702 1563.406250,353.074799 1523.130005,353.092865
M1404.499268,343.950012
	C1410.849976,343.950012 1417.200684,343.950012 1424.511230,343.950012
	C1405.242310,329.109467 1406.981812,333.430695 1406.230225,310.423187
	C1406.203003,309.591156 1406.226807,308.757446 1406.226807,307.924530
	C1406.226807,268.611145 1406.185181,229.297714 1406.242920,189.984421
	C1406.276855,166.834457 1406.729736,143.681519 1406.444824,120.536674
	C1406.347290,112.614426 1409.397949,107.254990 1415.610352,102.999985
	C1419.436035,100.379791 1423.059448,97.464409 1427.372681,94.232780
	C1405.759277,94.232780 1385.223633,94.232780 1364.369141,94.232780
	C1365.511230,95.220284 1366.288086,95.985260 1367.159180,96.621269
	C1368.204224,97.384277 1369.301514,98.086197 1370.424438,98.730476
	C1381.918579,105.325539 1386.209595,114.749123 1386.061890,128.402023
	C1385.398682,189.697067 1385.779053,251.003326 1385.757935,312.305542
	C1385.756836,315.800018 1386.082275,319.428680 1385.266235,322.751862
	C1384.417114,326.209106 1383.026245,329.975189 1380.691650,332.525421
	C1376.890259,336.678040 1372.129028,339.951874 1367.350220,343.950012
	C1379.846802,343.950012 1391.673340,343.950012 1404.499268,343.950012
M1568.778076,169.499878
	C1568.777954,218.332443 1568.620239,267.165955 1568.909546,315.996796
	C1568.967896,325.860535 1566.545288,333.571655 1557.552246,338.533905
	C1555.294312,339.779877 1553.389893,341.666290 1550.856812,343.617310
	C1570.030640,343.617310 1588.231079,343.617310 1607.196777,343.617310
	C1603.313965,340.617035 1600.235474,337.858215 1596.794189,335.669800
	C1591.824097,332.509186 1589.688232,328.114166 1589.689087,322.395874
	C1589.699463,254.236832 1589.710083,186.077774 1589.665161,117.918762
	C1589.661743,112.683586 1591.546875,108.594727 1595.724609,105.463333
	C1600.433472,101.934021 1605.078003,98.318970 1610.398804,94.244781
	C1589.177979,94.244781 1568.866333,94.244781 1547.574829,94.244781
	C1552.021606,97.546143 1555.577759,100.466850 1559.408203,102.967522
	C1565.990601,107.264793 1568.916504,113.082481 1568.792480,121.003059
	C1568.544312,136.831512 1568.756104,152.667175 1568.778076,169.499878
z"/>
<path fill="#3A231E" opacity="1.000000" stroke="none"
	d="
M2872.926758,136.220108
	C2872.099121,130.889816 2871.626465,125.473900 2870.365967,120.248055
	C2868.132324,110.987396 2861.535645,104.916916 2853.837158,100.126366
	C2850.091553,97.795631 2845.875000,95.773773 2841.604248,94.851967
	C2836.609863,93.773987 2833.821289,91.944260 2834.983643,86.512115
	C2842.917480,86.993660 2851.076904,87.488907 2860.158691,87.943077
	C2873.014648,87.921837 2884.948486,87.941681 2896.882080,87.961517
	C2906.434082,87.302757 2915.996094,86.765350 2925.534912,85.951889
	C2935.542725,85.098427 2945.511230,83.442253 2955.528076,83.122864
	C2966.455566,82.774445 2977.452881,83.123878 2988.356201,83.979561
	C2997.677002,84.711037 3007.091797,85.853516 3016.140137,88.113579
	C3034.904785,92.800522 3051.329346,101.688049 3062.034180,118.587624
	C3067.483154,127.190178 3071.609863,136.437149 3070.997070,147.065094
	C3070.621338,153.581146 3071.133545,160.279434 3069.786621,166.583862
	C3065.713379,185.651215 3052.496826,196.813904 3035.008057,203.000092
	C3024.801514,206.610458 3014.001953,208.544769 3004.677734,210.924698
	C3011.230957,215.161880 3019.119873,220.143112 3026.884277,225.311340
	C3038.357422,232.947968 3046.753662,243.605942 3054.406006,254.751450
	C3066.090576,271.769897 3076.813477,289.459991 3088.790039,306.262604
	C3097.409912,318.356628 3106.771729,330.077606 3117.036377,340.781891
	C3122.780762,346.772156 3130.939941,350.515808 3138.215332,354.935028
	C3141.085449,356.678345 3141.493164,356.733521 3140.486084,362.764893
	C3133.886719,362.212006 3127.217285,361.850403 3120.598389,361.061676
	C3100.834229,358.706635 3082.399414,352.476044 3066.353760,340.518585
	C3052.308350,330.051788 3040.490234,317.254303 3030.044189,303.193115
	C3017.000732,285.635345 3008.560791,265.594910 2998.905518,246.182281
	C2994.156982,236.635483 2989.349609,226.967117 2980.090576,220.446045
	C2974.594238,216.575027 2968.466064,215.747330 2962.231445,214.842575
	C2959.045410,214.380203 2955.813721,214.233978 2951.992920,213.577332
	C2940.453369,213.209778 2929.523193,213.209778 2918.304199,213.209778
	C2918.185547,214.708344 2918.019775,215.827118 2918.019775,216.945923
	C2918.014404,244.243973 2918.008301,271.542053 2918.071045,298.839966
	C2918.076416,301.131897 2918.568359,303.422699 2918.834473,305.713989
	C2919.230957,307.809937 2919.934082,309.900116 2919.973877,312.002777
	C2920.236816,325.958832 2929.760010,338.832397 2943.049805,342.965607
	C2946.812988,344.136017 2950.524170,345.564087 2954.364746,346.371613
	C2958.628418,347.268127 2959.809326,349.468750 2958.409180,353.757172
	C2917.572998,353.757172 2876.720215,353.757172 2835.748047,353.757172
	C2833.791748,349.073853 2835.300293,346.749573 2840.188477,345.758667
	C2850.000488,343.769531 2858.309570,338.917938 2864.858154,331.332642
	C2870.330078,324.994507 2870.896729,316.941071 2871.971924,309.131134
	C2872.173584,307.666931 2871.942139,306.143097 2872.243652,303.855774
	C2872.714600,299.740082 2872.971924,296.415375 2872.972168,293.090668
	C2872.976807,240.800476 2872.947998,188.510300 2872.926758,136.220108
M2988.947510,215.307358
	C2988.511963,215.270767 2988.076172,215.234177 2987.640625,215.197540
	C2987.883789,215.663773 2988.126953,216.130005 2988.793945,217.109970
	C2994.235840,225.199615 3000.127930,233.026932 3005.028564,241.432159
	C3015.965088,260.189789 3025.480713,279.837067 3037.279053,298.016083
	C3052.925293,322.124451 3074.066895,340.294830 3101.961426,349.458527
	C3105.403809,350.589355 3108.953125,351.393982 3112.452881,352.349792
	C3106.848877,347.153473 3100.774658,343.160248 3095.198730,338.562836
	C3079.186279,325.360931 3067.927002,308.331909 3056.855957,291.036743
	C3045.775146,273.725281 3034.313721,256.598694 3021.994385,240.158859
	C3013.666992,229.046310 3002.284180,221.009689 2988.947510,215.307358
M2921.054199,113.781059
	C2920.094727,121.497154 2918.446777,129.200897 2918.308105,136.931702
	C2917.926270,158.247971 2918.176514,179.575546 2918.176514,200.898651
	C2918.176514,202.476913 2918.176270,204.055161 2918.176270,206.352676
	C2937.126465,205.771332 2955.268066,205.554916 2973.362549,204.516327
	C2982.420654,203.996429 2991.450195,202.137817 2999.424316,197.214172
	C3012.874512,188.909180 3019.458008,176.180328 3021.493164,161.083160
	C3024.669434,137.521332 3018.640625,117.119057 2998.754395,102.495728
	C2984.484863,92.002777 2967.963379,89.513329 2950.856934,91.426872
	C2937.199463,92.954613 2926.103760,98.961800 2921.054199,113.781059
M2880.191650,166.499908
	C2880.159668,217.803146 2880.054688,269.106567 2880.180908,320.409393
	C2880.198242,327.431122 2877.745117,332.533875 2871.974365,336.363373
	C2868.777832,338.484436 2865.835693,340.988098 2862.470703,343.554321
	C2881.530273,343.554321 2899.851562,343.554321 2918.903076,343.554321
	C2915.311035,340.866272 2912.450195,338.579773 2909.442627,336.505463
	C2903.481689,332.394165 2900.967773,326.991821 2900.988037,319.577606
	C2901.169678,253.117401 2901.158691,186.656342 2901.001465,120.196014
	C2900.984375,112.975006 2903.547119,107.751244 2909.313721,103.685509
	C2913.301270,100.873863 2917.069824,97.751213 2920.928711,94.773407
	C2900.773682,94.773407 2880.997803,94.773407 2861.222168,94.773407
	C2864.757080,98.555534 2868.464355,101.278732 2872.260742,103.871162
	C2877.622070,107.532005 2880.204590,112.404831 2880.138428,119.028923
	C2879.983887,134.517517 2880.153320,150.009354 2880.191650,166.499908
M3027.792480,169.101868
	C3024.026855,184.822433 3014.492432,196.023178 2999.441895,203.992981
	C3023.349854,200.174103 3053.272217,179.969788 3051.143799,146.271652
	C3049.623779,122.205978 3021.126709,93.191086 2998.510498,94.526299
	C3000.751221,96.095604 3002.969727,97.536438 3005.059326,99.144424
	C3007.166992,100.766426 3009.268555,102.430092 3011.163574,104.288841
	C3029.491699,122.267128 3032.763428,144.221786 3027.792480,169.101868
z"/>
<path fill="#3A231E" opacity="1.000000" stroke="none"
	d="
M2570.131348,353.093170
	C2570.131348,351.283478 2570.131348,349.473755 2570.131348,348.465271
	C2577.640137,345.182739 2584.864990,342.461761 2591.669434,338.931366
	C2599.024170,335.115326 2603.964844,329.074402 2605.114746,320.510406
	C2606.087891,313.262756 2607.034180,306.011475 2607.991699,297.871460
	C2607.975830,243.374069 2607.960205,189.767014 2607.944824,136.159943
	C2606.293213,114.834351 2603.104492,101.804909 2570.063232,92.500443
	C2570.063232,90.971550 2570.063232,89.341431 2570.550049,87.331192
	C2644.777100,86.969902 2718.517090,86.988724 2792.257324,87.007545
	C2793.128174,91.477730 2794.329590,95.912720 2794.809814,100.424500
	C2796.385254,115.229698 2797.688721,130.063736 2799.118652,144.884583
	C2799.590820,149.776566 2800.130371,154.662079 2800.638428,159.544144
	C2794.368408,160.281586 2792.531982,156.146240 2790.788330,151.514175
	C2785.501953,137.472183 2778.765137,124.272972 2767.445557,113.980904
	C2756.336182,103.879822 2743.516602,97.401512 2728.406494,95.877052
	C2727.099365,95.745163 2725.816406,95.371185 2723.869629,94.704926
	C2713.191895,94.188370 2703.166504,94.025276 2693.141357,94.014107
	C2691.427490,94.012199 2689.713379,94.659676 2687.999268,95.007202
	C2686.157471,95.364632 2684.330811,95.873856 2682.471680,96.054832
	C2670.228271,97.246674 2658.170654,107.880241 2655.649658,119.841461
	C2655.519775,120.458099 2655.760254,121.152878 2655.599609,122.460526
	C2654.661621,127.842262 2653.392822,132.568527 2653.340332,137.308334
	C2653.113037,157.718735 2653.232422,178.133133 2653.265625,198.546036
	C2653.267822,199.999222 2653.592041,201.451904 2653.766602,202.904816
	C2671.682617,203.019531 2689.739746,204.289871 2707.305420,199.857635
	C2721.514648,196.272415 2732.360840,188.133270 2737.171143,173.500275
	C2738.608398,169.128342 2740.207520,164.809509 2741.815186,160.231079
	C2743.240723,160.231079 2744.809570,160.231079 2746.723877,160.231079
	C2746.826416,162.153687 2746.987793,163.781052 2746.988525,165.408524
	C2747.003906,194.729218 2747.044189,224.050156 2746.895996,253.370102
	C2746.886475,255.228638 2745.786621,258.260620 2744.493896,258.703766
	C2741.145996,259.851349 2740.855225,256.588684 2739.966553,254.279327
	C2736.714844,245.829132 2734.088135,237.015076 2729.777100,229.130463
	C2725.441406,221.201065 2717.321777,217.133347 2708.773438,214.627945
	C2704.508789,213.378006 2700.020752,212.889954 2694.944580,211.660645
	C2685.138428,211.171219 2676.021240,211.078506 2666.904297,210.985809
	C2662.982178,211.020569 2659.060059,211.055313 2654.291016,211.206940
	C2653.304199,211.966858 2653.043457,212.609756 2653.042480,213.253052
	C2653.015869,231.560867 2652.998535,249.868744 2653.056152,268.176361
	C2653.059326,269.193146 2653.716553,270.207886 2654.069336,271.223572
	C2654.069336,271.223602 2654.131592,271.470306 2653.857178,272.024475
	C2653.559326,281.020386 2653.396484,289.465118 2653.577148,297.902435
	C2653.655518,301.558411 2654.441895,305.199249 2654.906982,308.846954
	C2655.578857,317.634674 2656.063477,326.510223 2662.308594,333.594543
	C2669.010742,341.197083 2678.016846,342.843170 2688.350098,343.277466
	C2699.029053,343.394165 2708.889160,343.271118 2718.749268,343.148071
	C2737.543945,342.417175 2753.826172,334.750122 2768.265625,323.561554
	C2778.771973,315.420624 2788.319092,305.960724 2797.756104,296.549500
	C2804.147217,290.175690 2809.408691,282.680847 2815.614990,276.101807
	C2817.211182,274.409607 2820.467285,274.283508 2822.960938,273.437897
	C2823.415039,273.868774 2823.869385,274.299683 2824.323486,274.730560
	C2822.422852,281.301392 2820.481934,287.860870 2818.629395,294.445221
	C2813.275391,313.473938 2807.961914,332.514038 2802.589355,351.537476
	C2802.482422,351.915802 2801.846436,352.144562 2800.796875,352.707062
	C2798.306885,352.984100 2796.477783,353.007996 2794.648438,353.008728
	C2719.809326,353.038147 2644.970459,353.065521 2570.131348,353.093170
M2615.674805,129.561493
	C2615.674805,183.390915 2615.706787,237.220352 2615.648193,291.049713
	C2615.636230,301.874176 2615.164062,312.697906 2615.133057,323.522644
	C2615.119385,328.301758 2613.181641,331.802887 2609.483643,334.574280
	C2605.708984,337.403137 2601.973145,340.283142 2597.563477,343.640930
	C2616.845459,343.640930 2635.155029,343.640930 2654.143555,343.640930
	C2652.835449,342.593445 2652.167969,341.853149 2651.339111,341.426117
	C2638.785156,334.958282 2635.655762,324.446106 2635.771729,310.855804
	C2636.286377,250.364517 2635.990234,189.866379 2636.007324,129.370728
	C2636.008301,125.873886 2636.216553,122.377602 2636.273926,118.880157
	C2636.379883,112.435951 2638.918457,107.410873 2644.396484,103.772995
	C2648.609619,100.974998 2652.571045,97.798225 2657.381348,94.245560
	C2636.072754,94.245560 2615.768799,94.245560 2594.700684,94.245560
	C2600.368896,98.683273 2605.666504,102.377510 2610.369141,106.716591
	C2612.509766,108.691811 2614.235107,111.792404 2614.796387,114.648323
	C2615.686035,119.176331 2615.440186,123.927422 2615.674805,129.561493
M2788.235352,339.895813
	C2791.262207,329.932129 2794.288818,319.968475 2797.315430,310.004822
	C2796.943848,309.762543 2796.572510,309.520264 2796.200928,309.278015
	C2783.825195,323.747223 2768.656494,334.579865 2752.047852,343.591309
	C2762.905762,343.959717 2773.532715,344.072174 2784.150879,343.815704
	C2785.461426,343.784058 2786.724609,341.786438 2788.235352,339.895813
M2781.833984,116.522614
	C2780.550293,109.066879 2779.266602,101.611145 2777.979248,94.134781
	C2769.273682,94.134781 2760.970459,94.134781 2752.525635,94.134781
	C2757.856201,97.503990 2763.332031,100.258575 2767.932617,104.069595
	C2772.606934,107.941841 2776.408936,112.864731 2780.638428,117.284019
	C2780.819580,117.473351 2781.458008,117.225021 2781.833984,116.522614
M2733.026855,208.469727
	C2733.026855,204.148438 2733.026855,199.827164 2733.026855,195.960739
	C2726.172607,200.005157 2719.798828,203.765961 2714.131104,207.110214
	C2720.176758,210.846924 2726.424316,214.708649 2733.026855,218.789612
	C2733.026855,215.628693 2733.026855,212.533859 2733.026855,208.469727
M2797.515137,308.500244
	C2797.515137,308.500244 2797.407715,308.691833 2797.407715,308.691833
	C2797.407715,308.691833 2797.596191,308.665131 2797.515137,308.500244
z"/>
<path fill="#39221D" opacity="0" stroke="none"
	d="
M943.127747,353.092468
	C942.086670,348.283386 944.384338,346.930084 948.898743,345.668396
	C969.449097,339.924835 979.187256,330.038239 980.234924,306.725861
	C980.654114,301.604370 980.965027,297.290497 980.973328,292.976044
	C981.051086,252.261673 981.145813,211.547104 981.079712,170.832840
	C981.057861,157.400925 980.582458,143.969742 980.314514,130.538223
	C979.215332,123.213684 977.896545,116.054459 973.288025,109.819633
	C967.176758,101.551819 958.543091,97.612137 949.239075,94.440521
	C946.115845,93.375870 941.374207,93.053520 944.304871,87.197998
	C1016.404358,86.968414 1087.765503,86.962395 1159.126587,87.071388
	C1161.393311,87.074844 1163.658081,88.260941 1165.923828,88.895721
	C1166.948486,97.600410 1168.024048,106.299477 1168.985229,115.011139
	C1170.311035,127.027634 1171.416870,139.069916 1172.877686,151.069382
	C1173.737793,158.134491 1173.229126,159.074036 1166.600220,158.807251
	C1164.715698,154.070099 1162.901367,149.146423 1160.819458,144.338669
	C1151.794800,123.498589 1138.080933,107.193474 1116.041138,99.416824
	C1110.281738,97.384659 1104.133301,96.455376 1097.450806,94.742592
	C1084.649780,94.551231 1072.561523,94.636848 1060.473145,94.722458
	C1059.084106,95.150826 1057.719482,95.833542 1056.302490,95.968559
	C1040.620728,97.462807 1027.827759,109.583031 1027.937744,126.338303
	C1027.940796,126.796715 1027.634644,127.257149 1026.981445,128.265228
	C1026.354736,137.098907 1026.219238,145.384003 1026.083862,153.669083
	C1026.058716,157.067520 1026.014893,160.465927 1026.011475,163.864380
	C1025.999756,175.626694 1026.045532,187.389282 1025.965942,199.151077
	C1025.947632,201.844055 1026.846069,203.170486 1029.687134,203.025787
	C1032.165771,202.899536 1034.655762,202.994904 1038.071533,203.002243
	C1047.512817,202.766144 1056.023193,202.520142 1064.533691,202.274139
	C1072.356567,200.536850 1080.400391,199.453918 1087.949707,196.905945
	C1098.749756,193.260788 1105.545288,185.023987 1109.582886,174.520966
	C1110.941040,170.987823 1112.139282,167.377121 1113.141235,163.727875
	C1114.074341,160.329010 1115.838745,158.975723 1119.746948,160.565506
	C1119.827271,161.953156 1120.001343,163.566833 1120.002197,165.180618
	C1120.018555,194.624405 1120.038696,224.068253 1119.960449,253.511841
	C1119.955078,255.526779 1121.246338,258.523346 1117.460938,258.938324
	C1114.049316,259.312317 1113.625610,256.936646 1112.810913,254.379868
	C1109.874878,245.166534 1107.382446,235.844727 1101.392822,227.794342
	C1094.530762,218.571243 1084.991699,214.928940 1074.397461,213.084198
	C1069.894897,212.300171 1065.257080,212.292877 1060.140503,211.518997
	C1058.066406,210.753571 1056.537354,210.125504 1054.997559,210.097351
	C1048.068848,209.970779 1041.135620,209.927292 1034.207153,210.040070
	C1031.476685,210.084503 1028.753906,210.614517 1026.027710,210.923431
	C1026.016479,228.642365 1025.953247,246.361557 1026.035522,264.080078
	C1026.053101,267.851624 1026.599976,271.620697 1026.545166,276.118652
	C1026.111450,281.319916 1025.885498,285.797363 1026.003296,290.265747
	C1026.114014,294.463623 1026.588257,298.651886 1026.902466,302.844391
	C1028.395752,311.122192 1028.569946,319.939301 1031.683105,327.554871
	C1036.699463,339.826111 1047.992065,343.088165 1061.206543,343.296692
	C1071.888184,343.460541 1081.773193,343.330933 1091.658203,343.201355
	C1113.928345,341.556854 1132.530884,331.693298 1148.940430,317.237457
	C1156.538086,310.544312 1163.863403,303.511139 1170.944214,296.272217
	C1176.248291,290.849731 1181.247925,285.067657 1185.836792,279.030396
	C1188.658569,275.317932 1191.502197,273.065857 1197.193726,274.539337
	C1189.784058,300.467987 1182.371704,326.406250 1174.459229,352.691650
	C1097.015381,353.056671 1020.071594,353.074554 943.127747,353.092468
M981.578064,335.083099
	C978.014221,337.815735 974.450317,340.548401 970.543945,343.543671
	C989.644043,343.543671 1007.946960,343.543671 1026.870361,343.543671
	C1022.830444,340.469421 1019.431641,337.791748 1015.937012,335.245544
	C1010.950623,331.612457 1008.958313,326.718414 1008.963074,320.628418
	C1009.014893,253.645401 1009.020691,186.662277 1008.956177,119.679276
	C1008.949707,112.979347 1011.388184,107.830299 1016.880066,103.994293
	C1021.151306,101.010849 1025.289185,97.836525 1030.003662,94.366257
	C1008.751282,94.366257 988.325928,94.366257 967.394287,94.366257
	C972.556702,98.287895 977.196899,101.802345 981.825562,105.331970
	C986.237488,108.696442 988.067993,113.017509 988.057617,118.700287
	C987.934265,186.348618 987.941956,253.997314 988.047363,321.645691
	C988.055847,327.090790 986.521790,331.394928 981.578064,335.083099
M1138.512451,343.963409
	C1145.494629,343.963409 1152.476807,343.963409 1159.838379,343.963409
	C1163.324097,332.383728 1166.776733,320.913483 1170.229492,309.443237
	C1156.823853,323.391205 1141.688965,334.603149 1125.041504,343.963409
	C1129.201050,343.963409 1133.360596,343.963409 1138.512451,343.963409
M1134.108398,99.307869
	C1141.056152,105.337746 1148.004028,111.367630 1154.659058,117.143456
	C1153.409912,109.870583 1152.033203,101.856049 1150.723633,94.231750
	C1141.763550,94.231750 1133.467896,94.231750 1124.428955,94.231750
	C1127.952759,96.064201 1130.715332,97.500816 1134.108398,99.307869
M1086.659180,207.937088
	C1092.954834,211.376617 1099.250610,214.816147 1105.554443,218.260117
	C1105.554443,211.089615 1105.554443,203.470581 1105.554443,196.132782
	C1098.984863,199.959732 1092.520508,203.725327 1086.659180,207.937088
z"/>
<path fill="#3A241F" opacity="1.000000" stroke="none"
	d="
M2010.968262,218.082306
	C2010.983154,187.841537 2011.054077,157.600479 2010.896484,127.360611
	C2010.885132,125.168610 2009.808838,122.302521 2008.214355,120.910973
	C1999.183228,113.028770 1989.906738,105.421150 1980.553345,97.920265
	C1978.735107,96.462204 1976.291504,95.550362 1973.989380,94.981339
	C1969.962646,93.986031 1968.183960,91.832893 1969.551758,87.322540
	C1995.006592,86.962914 2019.975098,86.976715 2044.943481,86.990509
	C2052.976807,97.030350 2060.686279,107.353340 2069.143555,117.022308
	C2076.183350,125.070549 2084.260742,132.201370 2091.583984,140.014709
	C2098.337402,147.220215 2104.703369,154.789383 2111.227051,162.209717
	C2111.879395,162.951752 2112.373291,163.838974 2113.056885,164.546616
	C2121.111816,172.886230 2129.250000,181.146133 2137.245117,189.542679
	C2147.815918,200.644440 2158.294922,211.833801 2168.783447,223.013779
	C2178.164795,233.013931 2187.538574,243.022049 2196.854248,253.083359
	C2204.813965,261.680267 2212.397705,270.650787 2220.732422,278.863098
	C2224.343018,282.420807 2229.421631,284.489136 2233.833252,287.234070
	C2233.076172,288.207153 2232.319092,289.180206 2231.562012,290.153259
	C2231.712402,288.982788 2231.988770,287.812775 2231.993164,286.641785
	C2232.028320,276.988953 2232.070801,267.335297 2231.964111,257.683533
	C2231.942871,255.750015 2231.293945,253.823471 2231.385010,251.310699
	C2231.899902,249.570572 2232.020752,248.413406 2232.020264,247.256317
	C2232.003174,213.556946 2231.973877,179.857559 2231.946533,146.158203
	C2229.647949,137.641708 2227.849609,128.949127 2224.928467,120.651756
	C2220.976074,109.425308 2211.844238,102.975342 2201.313965,98.709206
	C2195.347656,96.292152 2188.896484,95.072716 2182.419189,92.749428
	C2182.174805,90.615669 2182.174805,89.046410 2182.174805,86.891594
	C2213.494873,86.891594 2244.188477,86.891594 2274.881836,86.891594
	C2275.166992,90.394600 2275.553711,93.587074 2270.717529,94.778534
	C2254.262695,98.832466 2245.690430,110.347504 2241.909180,126.789383
	C2241.011230,137.486404 2239.395020,147.552658 2239.359131,157.624557
	C2239.127686,222.599686 2239.245117,287.576019 2239.230225,352.551971
	C2239.229492,355.042114 2239.045654,357.532196 2238.947266,360.022308
	C2234.404053,360.851868 2231.244629,357.982849 2228.603516,355.275177
	C2214.012939,340.316620 2199.644043,325.140839 2185.266846,309.975281
	C2174.884033,299.022705 2164.616455,287.960785 2154.280273,276.963898
	C2138.603516,260.285095 2122.907959,243.624252 2107.228027,226.948578
	C2096.899902,215.964584 2086.594238,204.959320 2076.262695,193.978760
	C2060.233154,176.942825 2044.166748,159.941574 2028.176392,142.869156
	C2025.689941,140.214432 2023.523438,137.259995 2020.864502,133.818085
	C2019.945435,133.135056 2019.370972,133.077988 2018.796631,133.020920
	C2018.799316,134.183945 2018.803101,135.346985 2018.804321,136.510010
	C2018.848999,178.459915 2018.854492,220.409927 2018.977661,262.359589
	C2018.997559,269.146606 2019.540405,275.932098 2019.841553,282.718292
	C2020.558716,287.557159 2021.220093,292.405090 2022.002930,297.233337
	C2026.007935,321.932800 2039.442871,338.344818 2064.017578,344.942688
	C2066.358398,345.571136 2068.683105,346.258728 2071.422363,347.352478
	C2072.965576,352.302826 2070.651611,353.083740 2066.721191,353.070038
	C2036.603516,352.965179 2006.484985,352.934509 1976.367920,353.103271
	C1972.225098,353.126495 1970.505249,351.881470 1970.984985,347.796326
	C1977.074829,343.862030 1983.601440,340.457947 1989.160767,335.879456
	C1999.668823,327.225006 2005.233398,315.304535 2007.713501,302.231049
	C2009.545410,292.574249 2009.951294,282.646912 2010.982910,271.904022
	C2010.971802,253.339386 2010.970093,235.710846 2010.968262,218.082306
M2030.878296,98.517822
	C2029.330078,96.997139 2027.820801,94.206741 2026.227539,94.157883
	C2014.168701,93.787971 2002.093384,93.955727 1990.147705,93.955727
	C1997.922485,100.731232 2006.135620,106.754158 2013.000732,114.046204
	C2084.367920,189.852982 2155.517822,265.864197 2226.730469,341.816528
	C2228.226807,343.412598 2229.749268,344.984161 2231.957520,347.298828
	C2231.957520,341.474884 2231.495117,336.924164 2232.049072,332.500671
	C2233.401611,321.696259 2229.640137,313.863892 2221.970947,305.793152
	C2167.581055,248.555649 2113.700195,190.833054 2059.883545,133.054123
	C2049.815430,122.244797 2040.766968,110.485901 2030.878296,98.517822
M2009.506104,319.972931
	C2004.180664,328.002350 1998.855347,336.031738 1993.792114,343.665894
	C2005.471313,343.665894 2018.131958,343.665894 2030.192017,343.665894
	C2024.055298,334.033447 2017.875977,324.334229 2011.825195,314.836853
	C2011.427612,315.727295 2010.630859,317.512054 2009.506104,319.972931
M2233.889160,113.168411
	C2237.336182,106.761375 2240.783203,100.354332 2244.021729,94.334862
	C2232.988281,94.334862 2221.554932,94.334862 2208.695068,94.334862
	C2220.018066,99.390419 2226.956299,107.068207 2231.961914,117.639023
	C2232.839111,115.566666 2233.209473,114.692238 2233.889160,113.168411
z"/>
<path fill="#3A241F" opacity="0" stroke="none"
	d="
M887.011719,210.984894
	C887.030029,259.107483 887.060120,307.230072 887.010437,355.352600
	C887.008972,356.827148 886.277893,359.506866 885.715942,359.553223
	C883.887695,359.704132 881.523987,359.444794 880.190125,358.344635
	C876.479431,355.284393 873.103516,351.799042 869.739685,348.341217
	C860.817688,339.170105 851.942139,329.953339 843.102722,320.702545
	C831.197021,308.242676 819.311035,295.763641 807.475586,283.237030
	C797.241272,272.405121 787.096985,261.488190 776.899231,250.621643
	C766.357971,239.389099 755.790588,228.181122 745.252808,216.945404
	C735.399841,206.439789 725.560913,195.921082 715.733337,185.391739
	C701.249573,169.873764 686.774475,154.347610 672.317932,138.804230
	C670.975830,137.361191 669.793396,135.769608 668.153809,133.726685
	C667.178589,133.602234 666.068481,133.997391 666.067932,134.394104
	C666.025452,164.919922 666.070129,195.445892 666.053528,226.439545
	C666.000244,238.405624 665.926453,249.904739 666.040833,261.402008
	C666.085022,265.849060 666.555908,270.291870 666.832458,274.736633
	C668.108276,287.889465 668.575806,301.167877 673.994751,313.584320
	C680.150146,327.688171 690.255920,337.590088 704.656372,343.028473
	C708.379028,344.434387 712.123779,346.017303 716.002686,346.705017
	C719.639221,347.349731 720.236938,349.268921 719.441650,352.651306
	C685.346436,353.059845 651.739746,353.076599 618.133118,353.093353
	C617.338684,348.997070 619.181702,346.674896 622.881714,344.995880
	C644.952209,334.980621 654.143005,316.334015 657.042969,293.539276
	C657.249878,291.912476 657.646667,290.309814 657.952759,287.811584
	C658.171021,240.703308 658.391724,194.479401 658.775269,147.794556
	C658.973938,141.875580 659.128296,136.414612 658.994263,130.960739
	C658.928833,128.299332 658.325806,125.651123 657.966125,122.996933
	C654.508362,119.697563 650.934875,116.510048 647.615601,113.076782
	C639.307373,104.483192 630.102966,97.165421 618.513184,93.660683
	C614.604248,92.478622 616.462158,89.869431 616.455444,87.414688
	C642.325195,87.069229 667.696777,87.098679 693.068420,87.128128
	C699.763245,95.932274 706.157776,104.987053 713.237183,113.470268
	C720.348022,121.991142 728.076782,130.002609 735.650818,138.129227
	C746.337891,149.596207 757.099854,160.994019 767.888306,172.365860
	C780.406372,185.560715 793.023499,198.661697 805.530212,211.867233
	C815.099243,221.970917 824.565857,232.171738 834.073914,242.333160
	C843.920532,252.856476 853.762695,263.384003 863.605957,273.910522
	C867.900513,278.503174 872.192810,283.097961 876.838806,288.257477
	C881.276672,290.915161 879.118530,286.995361 879.119019,286.417603
	C879.156799,238.643341 879.056824,190.868942 878.966858,143.094574
	C877.933594,138.130783 877.338257,133.025681 875.790100,128.228027
	C869.522278,108.804253 855.485168,98.461891 835.882935,94.812157
	C833.654602,94.397278 831.527588,93.438652 829.064453,92.638206
	C829.064453,90.967194 829.064453,89.339447 829.551147,87.330688
	C860.651917,86.929565 891.265869,86.909470 921.879883,86.889366
	C922.881958,91.668518 920.788330,93.678688 916.188904,95.279472
	C900.772278,100.645065 891.460388,111.339500 889.795837,128.017181
	C889.377258,132.211334 888.800049,136.389633 887.865723,141.269562
	C887.294373,164.970901 887.153076,187.977890 887.011719,210.984894
M738.319031,166.187775
	C724.420593,151.369293 710.385010,136.676056 696.685547,121.675880
	C690.463989,114.863647 684.255249,107.862770 679.296021,100.141258
	C676.334534,95.530266 673.743286,93.561653 668.254883,93.812309
	C657.769775,94.291161 647.247314,93.951370 637.171753,93.951370
	C645.708740,101.374374 654.630676,108.245117 662.485107,116.173462
	C673.740295,127.534607 684.130920,139.747437 695.053040,151.445038
	C703.074524,160.036011 711.462219,168.284531 719.505005,176.856171
	C770.097473,230.775269 820.643616,284.737946 871.184082,338.705902
	C873.575928,341.259949 875.768066,344.001129 878.053162,346.655182
	C879.243530,337.785919 879.021667,329.952209 879.335571,322.140015
	C879.496399,318.137604 878.142822,315.389587 875.447937,312.521423
	C829.835083,263.976227 784.331116,215.328766 738.319031,166.187775
M663.036499,321.364288
	C662.022583,318.994568 661.008667,316.624847 660.376648,315.147766
	C653.749695,324.757294 647.043396,334.481934 640.666870,343.728271
	C652.635742,343.728271 665.490845,343.728271 677.699829,343.728271
	C673.008667,336.572723 668.231384,329.285858 663.036499,321.364288
M868.957031,102.530205
	C872.576843,107.224998 876.196594,111.919800 879.343384,116.001106
	C883.285278,109.020462 887.519104,101.522820 891.670044,94.171936
	C880.512756,94.171936 869.132690,94.171936 857.218018,94.171936
	C861.262329,97.016945 864.844482,99.536873 868.957031,102.530205
z"/>
<path fill="#38211C" opacity="0" stroke="none"
	d="
M593.988525,92.310165
	C587.747131,94.880569 581.238281,96.954536 575.327209,100.138222
	C566.557190,104.861732 560.765381,112.223091 559.042542,122.346809
	C558.503906,125.511398 557.914795,128.667389 557.305359,132.357666
	C556.844421,136.297073 556.093994,139.703445 556.066711,143.115585
	C555.944824,158.358063 556.029358,173.602188 556.039429,188.845718
	C556.358826,195.689697 556.832336,202.530807 556.958862,209.378357
	C557.119202,218.052704 557.003540,226.732269 556.993530,235.409576
	C556.990845,237.721085 556.939148,240.032547 556.678467,243.174683
	C556.304016,246.466843 556.017517,248.929733 556.041016,251.389664
	C556.222290,270.372131 556.463501,289.354034 556.686157,308.336121
	C557.732727,312.825989 558.692505,317.338226 559.842651,321.801392
	C562.823120,333.367157 571.451111,339.492889 581.658386,343.876526
	C584.969177,345.298431 588.704895,345.728668 592.021729,347.140015
	C593.297485,347.682831 594.540039,349.642517 594.664978,351.056671
	C594.741943,351.927399 592.707397,353.797821 591.570129,353.839630
	C576.860779,354.380371 562.142456,354.678223 547.426086,355.026733
	C533.466797,355.357330 519.504150,356.010651 505.548676,355.885101
	C495.654449,355.796082 485.765228,354.702362 475.887878,353.886536
	C474.905090,353.805328 473.249420,352.537445 473.247406,351.816620
	C473.242950,350.211548 473.884491,348.500031 474.638580,347.023895
	C475.582184,345.176697 476.783020,343.424896 478.092346,341.809875
	C479.595001,339.956421 481.034149,337.546692 483.048340,336.731659
	C486.023651,335.527710 489.468140,335.211456 492.737701,335.061920
	C500.063049,334.726929 504.665924,331.742310 506.794739,324.738556
	C508.179016,320.184265 509.450409,315.925873 507.523621,310.552704
	C505.876404,305.959076 507.719208,300.112976 508.022491,294.821106
	C508.677368,283.395142 509.334930,271.969330 510.225433,259.692200
	C510.651764,256.879547 511.011749,254.918182 511.011566,252.956848
	C511.007965,214.042526 510.962616,175.128189 510.925781,136.213867
	C511.094879,127.491158 507.433899,119.736336 504.609497,111.794769
	C504.034729,110.178635 502.752747,108.388023 501.296326,107.580864
	C492.117615,102.493973 485.051361,93.463913 473.051605,93.025291
	C473.051605,90.985184 473.051605,89.366875 473.540009,87.354675
	C513.890137,86.960800 553.751892,86.960800 593.988525,86.960800
	C593.988525,89.347900 593.988525,90.829033 593.988525,92.310165
z"/>
<path fill="#3A241F" opacity="1.000000" stroke="none"
	d="
M3188.791016,140.655655
	C3193.070068,156.424118 3204.719238,165.774948 3218.372314,172.381180
	C3238.014160,181.885010 3258.104492,190.498444 3278.226807,198.960632
	C3295.827637,206.362305 3312.146240,215.640747 3324.666016,230.212204
	C3333.422607,240.403671 3338.372314,252.563217 3340.149414,266.141602
	C3341.930664,279.754852 3340.454834,292.724915 3335.600098,305.483185
	C3329.116943,322.521790 3317.205078,334.816833 3301.911133,344.030884
	C3289.413330,351.560333 3275.862549,356.925812 3261.337891,358.234802
	C3249.143066,359.333771 3236.674316,359.678070 3224.520508,358.446411
	C3203.142578,356.279968 3182.659668,349.813690 3162.565186,342.292633
	C3154.888428,339.419373 3154.405029,338.154510 3153.862061,329.968750
	C3153.121338,318.798004 3151.766602,307.669159 3150.931152,296.503174
	C3150.388672,289.251221 3150.320801,281.964355 3150.000000,274.694916
	C3149.919922,272.879211 3149.489746,271.060242 3149.582764,269.261536
	C3149.654053,267.879761 3150.294678,266.527466 3150.682129,265.162109
	C3152.514404,266.028137 3155.361084,266.426788 3156.010986,267.837616
	C3159.683594,275.808838 3162.387207,284.239441 3166.244141,292.110168
	C3174.831299,309.635193 3186.660889,324.816620 3202.390625,336.432953
	C3211.226562,342.958160 3221.657227,346.221405 3232.644287,348.157135
	C3242.248779,349.849213 3251.650879,348.947815 3260.651611,346.729156
	C3278.799072,342.255768 3298.905029,329.439484 3303.259521,304.099792
	C3306.549805,284.953156 3295.676025,263.762970 3279.918945,254.087311
	C3270.811523,248.494919 3261.915039,242.482941 3252.453125,237.565033
	C3242.689941,232.490662 3232.373047,228.475845 3222.268555,224.065781
	C3205.509521,216.751297 3188.563232,209.546631 3175.258789,196.589767
	C3165.257568,186.849594 3158.648438,175.124908 3156.797363,160.692444
	C3154.531738,143.024887 3158.834229,127.412560 3168.412354,112.774719
	C3175.490479,101.958008 3185.490234,95.056931 3196.860596,89.387619
	C3205.652344,85.004066 3214.839600,81.960716 3224.404053,81.830551
	C3240.430908,81.612419 3256.303955,82.678162 3271.985107,87.659286
	C3282.830322,91.104156 3294.670166,91.417938 3307.119141,93.289261
	C3308.593506,101.506592 3310.332764,111.054680 3312.014648,120.612907
	C3313.825195,130.904373 3315.559814,141.209167 3317.377197,151.499374
	C3317.804199,153.919052 3319.134766,156.689621 3315.647461,157.759888
	C3311.871826,158.918716 3310.625000,156.454727 3309.344727,153.287231
	C3305.212402,143.062653 3301.674316,132.407959 3296.072998,123.012375
	C3288.047607,109.550003 3276.034912,100.084053 3261.105713,94.494232
	C3247.416748,89.368668 3233.556885,88.348244 3219.488037,92.158226
	C3206.970215,95.548187 3197.560059,103.226349 3191.115479,114.433662
	C3190.075195,116.242889 3189.833008,118.511192 3188.746338,121.088852
	C3188.444336,127.958870 3188.617676,134.307266 3188.791016,140.655655
M3188.542236,102.723999
	C3188.230469,102.609047 3187.918457,102.494095 3187.606445,102.379250
	C3187.807861,102.747208 3188.009033,103.115158 3187.916504,102.629128
	C3187.434326,102.878578 3186.952148,103.128029 3185.897705,103.729813
	C3184.416748,105.066055 3182.900391,106.365517 3181.459961,107.744087
	C3159.177002,129.070786 3156.897949,164.234070 3176.519531,186.676880
	C3184.862549,196.219376 3195.525635,202.811066 3206.826660,208.159409
	C3225.666260,217.075562 3244.850586,225.264984 3263.671875,234.218826
	C3277.072021,240.593750 3289.509521,248.407562 3298.968506,260.367401
	C3313.793945,279.112823 3315.002930,307.535217 3303.288574,324.308167
	C3302.835205,324.957214 3302.788574,325.890320 3302.552246,326.691010
	C3315.363525,315.792847 3322.981445,302.181305 3323.855469,285.516663
	C3325.141602,261.003876 3315.328857,241.301941 3294.433105,228.774124
	C3278.045654,218.949234 3260.225830,211.516342 3243.057617,202.989975
	C3228.410645,195.715775 3213.029053,189.581253 3199.325928,180.824387
	C3178.388672,167.444336 3170.476562,147.829086 3176.179443,126.125023
	C3178.219238,118.362526 3183.371826,111.417976 3187.563721,104.017685
	C3187.788574,103.815033 3187.986328,103.588844 3188.542236,102.723999
M3301.043213,327.421265
	C3300.831543,327.892029 3300.619873,328.362793 3300.407959,328.833527
	C3300.986816,328.601471 3301.565674,328.369415 3302.813721,327.817322
	C3302.747803,327.354279 3302.682129,326.891266 3302.616211,326.428192
	C3302.280273,326.627075 3301.944336,326.825958 3301.043213,327.421265
M3191.033203,342.759613
	C3191.310547,342.707916 3191.587646,342.656250 3191.864990,342.604462
	C3191.633789,342.346375 3191.402588,342.088287 3190.983887,341.181763
	C3178.943359,330.420959 3168.032715,318.664032 3159.462646,304.798645
	C3159.684814,312.537994 3160.229248,319.976166 3161.045654,327.384338
	C3161.176025,328.567139 3162.281006,330.162262 3163.349609,330.640076
	C3172.380371,334.678650 3181.507568,338.501770 3191.033203,342.759613
z"/>
<path fill="#3C2621" opacity="1.000000" stroke="none"
	d="
M1702.013428,182.004807
	C1702.013428,182.004807 1701.938721,181.554886 1702.047729,180.859253
	C1702.084106,162.836670 1702.011353,145.509750 1701.938721,128.182800
	C1699.562500,122.328789 1697.741821,116.165024 1694.688110,110.688759
	C1689.241699,100.921242 1679.468872,97.013023 1669.296387,94.382454
	C1665.439453,93.385056 1663.276245,92.025223 1664.476807,87.412613
	C1704.017578,86.999016 1743.062256,87.003311 1782.106689,86.930099
	C1784.158569,86.926254 1786.209229,86.264664 1788.260376,85.909279
	C1790.115845,91.936584 1789.785522,92.750557 1784.014404,94.218544
	C1774.496216,96.639679 1765.321045,99.705765 1758.467285,107.256927
	C1753.585205,112.635689 1750.052246,118.647194 1749.929443,126.242233
	C1749.890625,128.647949 1749.277954,131.044403 1748.551514,134.018372
	C1748.117798,151.731522 1748.060547,168.871414 1748.003418,186.011307
	C1748.024292,198.692200 1748.045166,211.373108 1747.993652,224.989075
	C1747.939575,239.465973 1747.920166,253.008087 1748.016357,266.549377
	C1748.031128,268.629730 1748.578613,270.706360 1748.879761,272.784729
	C1750.633545,281.008575 1751.891602,289.377350 1754.244629,297.425964
	C1759.089233,313.996490 1770.013062,325.998779 1784.633423,334.623993
	C1795.239990,340.881317 1806.832642,343.701416 1819.196533,345.122894
	C1832.999146,346.709778 1846.039551,344.907104 1858.298950,339.462067
	C1882.378418,328.767395 1897.221558,309.985413 1902.858154,284.187225
	C1904.259399,277.774048 1904.963013,271.208405 1905.949219,263.813049
	C1905.582886,220.349823 1905.254517,177.786423 1904.926147,135.223007
	C1902.427612,129.195160 1900.192749,123.040565 1897.371338,117.167892
	C1892.630493,107.300270 1883.782593,101.976517 1874.290649,97.652931
	C1871.103394,96.201088 1867.651611,95.178741 1864.215942,94.463768
	C1860.389160,93.667389 1858.221191,92.018196 1859.462402,87.425491
	C1889.931030,86.979736 1919.901855,86.933502 1949.872559,86.887260
	C1950.907715,91.420425 1949.006226,93.954391 1944.653076,95.342239
	C1934.098877,98.707268 1926.033569,105.477524 1920.861694,115.102249
	C1916.692749,122.860664 1915.557739,131.555313 1915.588501,140.891510
	C1914.782593,142.947830 1914.168823,144.497223 1914.162476,146.049118
	C1914.086304,164.585678 1914.100220,183.122604 1914.090698,201.659439
	C1914.053223,204.604309 1913.985229,207.549179 1913.983154,210.494064
	C1913.970825,227.640701 1914.132690,244.789215 1913.927734,261.933441
	C1913.717651,279.512207 1910.930664,296.592651 1901.943970,312.069000
	C1891.720703,329.675140 1877.184082,342.641907 1858.475952,350.638855
	C1834.775757,360.769623 1810.078003,362.336884 1784.882568,358.137085
	C1760.652832,354.098236 1739.878784,343.242126 1724.089722,324.427277
	C1714.370117,312.844971 1708.426880,298.985657 1705.902100,283.822418
	C1703.864624,271.585083 1702.301270,259.343323 1703.003784,245.969299
	C1702.977783,225.928436 1702.986206,206.824280 1702.902466,187.720505
	C1702.894165,185.814011 1702.323242,183.909988 1702.013428,182.004807
M1754.394043,327.104156
	C1749.259644,319.800049 1743.270752,312.940399 1739.187134,305.089691
	C1732.716553,292.649872 1731.178467,278.718201 1731.064575,264.895721
	C1730.667847,216.749619 1730.714600,168.599976 1730.473755,120.452286
	C1730.435303,112.762703 1733.246216,106.993401 1739.832153,102.918404
	C1743.916138,100.391487 1747.763916,97.482742 1752.557251,94.164017
	C1730.519165,94.164017 1709.774780,94.164017 1687.895264,94.164017
	C1692.630615,97.445107 1696.409058,100.302223 1700.418335,102.787041
	C1706.955322,106.838585 1709.874512,112.447380 1709.853760,120.217476
	C1709.754028,157.703827 1709.644287,195.194046 1710.101562,232.676025
	C1710.275635,246.944260 1711.145874,261.306763 1713.107788,275.430603
	C1718.372314,313.331848 1739.486450,338.373016 1776.275635,349.481873
	C1783.888550,351.780701 1792.016846,352.372833 1799.907593,353.751556
	C1800.020508,353.234344 1800.133301,352.717133 1800.246094,352.199921
	C1783.217896,347.492676 1767.500732,340.391571 1754.394043,327.104156
M1905.461182,113.750427
	C1905.851074,113.987030 1906.240967,114.223633 1906.630737,114.460197
	C1910.539917,107.664459 1914.449097,100.868721 1918.219727,94.313919
	C1908.176392,94.313919 1897.832031,94.313919 1886.367432,94.313919
	C1894.909180,99.355553 1901.091431,105.219917 1905.461182,113.750427
z"/>
<path fill="#3C2520" opacity="1.000000" stroke="none"
	d="
M2445.878662,307.789490
	C2444.402832,327.271027 2460.974854,340.434723 2476.249268,344.060913
	C2479.598877,344.856140 2482.853760,346.449066 2486.220459,346.678864
	C2491.207520,347.019226 2491.425781,349.621307 2490.520996,353.731995
	C2444.940186,353.731995 2399.402100,353.731995 2353.889893,353.731995
	C2352.220703,347.743896 2352.809326,346.507263 2358.784668,345.788422
	C2368.920654,344.569092 2378.035889,340.765808 2386.114258,334.802643
	C2393.676514,329.220551 2397.448730,321.376892 2397.708496,311.832062
	C2397.843750,306.871002 2398.514160,301.924530 2399.022949,296.041718
	C2399.054443,240.115479 2399.005859,185.118973 2398.957520,130.122482
	C2397.395020,110.087929 2388.905273,98.274048 2369.886719,95.028748
	C2357.739258,92.955856 2345.436035,95.827042 2334.365479,103.067741
	C2315.525391,115.390129 2304.677002,133.180923 2297.245605,153.669189
	C2296.850098,154.760239 2296.711914,156.295670 2295.921387,156.817245
	C2294.423584,157.805466 2292.553711,158.567108 2290.806641,158.637878
	C2290.271484,158.659561 2289.032715,156.075027 2289.130615,154.759399
	C2290.635986,134.525391 2292.291260,114.302414 2293.969971,94.081749
	C2294.146240,91.961853 2294.693604,89.872772 2295.555908,87.356644
	C2326.855957,86.954758 2357.668945,86.982224 2388.481689,86.972778
	C2441.945801,86.956383 2495.409668,86.917160 2548.873779,86.887497
	C2549.873291,94.756859 2551.126465,102.604027 2551.816406,110.500420
	C2553.056396,124.687538 2554.053467,138.898590 2554.887207,153.115158
	C2554.997070,154.994217 2554.018799,158.162750 2552.739990,158.658264
	C2549.458740,159.929733 2547.744629,157.465912 2546.810303,154.398270
	C2543.564697,143.738586 2538.769531,133.810547 2532.287109,124.739494
	C2523.022949,111.775642 2511.791260,100.712288 2496.060791,96.748940
	C2477.897461,92.172707 2463.934814,93.284500 2451.238037,109.368874
	C2448.656250,112.639595 2448.352783,117.746002 2447.143555,122.046867
	C2446.572510,124.078728 2446.343506,126.206802 2445.547607,128.877930
	C2445.081299,129.959854 2444.979004,130.455032 2444.979004,130.950195
	C2444.985107,188.677719 2444.993896,246.405228 2445.048584,304.132721
	C2445.049805,305.351929 2445.589844,306.570587 2445.878662,307.789490
M2427.056641,152.500015
	C2427.123047,142.509735 2427.568359,132.503342 2427.144287,122.533943
	C2426.756592,113.426117 2430.064941,106.839981 2437.779297,102.113838
	C2441.312988,99.949150 2444.509033,97.233665 2448.523193,94.278320
	C2428.349609,94.278320 2409.332031,94.278320 2389.487793,94.278320
	C2392.913330,97.358673 2395.653564,99.968109 2398.547607,102.394020
	C2403.984375,106.951424 2406.787354,112.641037 2406.668945,119.796799
	C2406.602783,123.788902 2406.866211,127.785324 2406.867432,131.779831
	C2406.883057,181.080688 2406.893799,230.381561 2406.867188,279.682404
	C2406.860107,292.837769 2406.528809,305.995911 2406.719727,319.147369
	C2406.830566,326.779480 2404.377686,332.685944 2397.813721,336.841400
	C2394.828125,338.731293 2392.096924,341.023071 2388.568359,343.638000
	C2407.905029,343.638000 2426.212158,343.638000 2445.326416,343.638000
	C2441.172363,340.413879 2437.779053,337.534607 2434.137695,335.013855
	C2429.122803,331.542603 2427.274902,326.712616 2427.248779,320.880341
	C2427.227539,316.219727 2427.066650,311.559448 2427.065186,306.898987
	C2427.051270,255.766006 2427.056641,204.633011 2427.056641,152.500015
M2306.348877,111.853996
	C2312.716309,105.786263 2319.083740,99.718529 2324.859863,94.214066
	C2317.754883,94.214066 2309.555908,94.214066 2301.355225,94.214066
	C2300.519531,103.179588 2299.717285,111.785393 2298.784424,121.792763
	C2301.775146,117.882347 2303.856934,115.160225 2306.348877,111.853996
M2524.166504,104.314987
	C2528.864990,108.203262 2533.563721,112.091537 2537.121826,115.035980
	C2536.355957,109.558647 2535.273193,101.816223 2534.202881,94.161469
	C2525.307129,94.161469 2516.976562,94.161469 2508.425293,94.161469
	C2513.689453,97.526848 2518.648438,100.697113 2524.166504,104.314987
z"/>

</svg>
