<svg version="1.1" id="Layer_1" xmlns="http://www.w3.org/2000/svg" xmlns:xlink="http://www.w3.org/1999/xlink" x="0px" y="0px"
	 width="100%" viewBox="0 0 96 96" enable-background="new 0 0 96 96" xml:space="preserve">
<path fill="#000000" opacity="1.000000" stroke="none" 
	d="
M54.000000,97.000000 
	C36.000004,97.000000 18.500006,97.000000 1.000007,97.000000 
	C1.000005,65.000008 1.000005,33.000019 1.000002,1.000020 
	C32.999985,1.000013 64.999969,1.000013 96.999969,1.000007 
	C96.999977,32.999981 96.999977,64.999962 96.999985,96.999969 
	C82.833336,97.000000 68.666664,97.000000 54.000000,97.000000 
M51.050064,18.843649 
	C48.154099,33.641376 45.192711,48.426746 42.393578,63.242771 
	C41.234428,69.378227 40.422634,75.579315 39.490520,81.510963 
	C45.031227,82.868156 46.449551,81.174187 47.181225,76.654472 
	C48.938961,65.796600 51.738136,55.111965 53.855003,44.306080 
	C55.447285,36.178032 56.722591,27.983135 57.895523,19.783169 
	C58.058121,18.646429 56.708282,16.214687 56.251522,16.261578 
	C54.597252,16.431404 53.025215,17.402220 51.050064,18.843649 
M68.406654,41.071796 
	C73.641510,43.902229 78.876366,46.732662 84.833336,49.953537 
	C80.168350,52.563808 76.267853,54.783871 72.331543,56.938519 
	C68.231552,59.182758 64.097023,61.363865 60.247833,63.427681 
	C60.247833,65.444504 60.247833,67.050873 60.247833,69.352585 
	C62.777168,68.843666 65.191757,68.880196 67.061539,67.889008 
	C74.231804,64.087944 81.336983,60.135822 88.251938,55.890648 
	C93.459808,52.693470 93.351318,47.298790 88.028122,44.069286 
	C81.780487,40.278934 75.330612,36.807816 68.855850,33.413006 
	C66.311371,32.078899 63.462154,31.326008 60.445366,30.193420 
	C59.876926,36.315235 59.893921,36.283905 63.996708,38.509312 
	C65.279984,39.205379 66.444572,40.120274 68.406654,41.071796 
M14.122493,49.610718 
	C20.932568,45.782063 27.696468,41.867466 34.577332,38.170563 
	C37.042953,36.845860 39.140686,35.109997 37.501556,32.554127 
	C36.819080,31.489952 33.208679,31.241974 31.600014,32.016029 
	C24.418221,35.471745 17.358816,39.227036 10.487110,43.268436 
	C4.395558,46.851017 4.702924,53.377907 10.961017,56.961044 
	C17.175026,60.518944 23.434776,64.013420 29.822826,67.242188 
	C32.140408,68.413574 34.886871,68.736427 37.430679,69.444511 
	C38.773167,65.034332 37.229324,63.125435 34.149296,61.515400 
	C27.377989,57.975834 20.783503,54.098003 14.122493,49.610718 
z"/>
<path fill="#0ED2FF" opacity="1.000000" stroke="none" 
	d="
M51.236107,18.457207 
	C53.025215,17.402220 54.597252,16.431404 56.251522,16.261578 
	C56.708282,16.214687 58.058121,18.646429 57.895523,19.783169 
	C56.722591,27.983135 55.447285,36.178032 53.855003,44.306080 
	C51.738136,55.111965 48.938961,65.796600 47.181225,76.654472 
	C46.449551,81.174187 45.031227,82.868156 39.490520,81.510963 
	C40.422634,75.579315 41.234428,69.378227 42.393578,63.242771 
	C45.192711,48.426746 48.154099,33.641376 51.236107,18.457207 
z"/>
<path fill="#4C4CFF" opacity="1.000000" stroke="none" 
	d="
M68.035072,41.003403 
	C66.444572,40.120274 65.279984,39.205379 63.996708,38.509312 
	C59.893921,36.283905 59.876926,36.315235 60.445366,30.193420 
	C63.462154,31.326008 66.311371,32.078899 68.855850,33.413006 
	C75.330612,36.807816 81.780487,40.278934 88.028122,44.069286 
	C93.351318,47.298790 93.459808,52.693470 88.251938,55.890648 
	C81.336983,60.135822 74.231804,64.087944 67.061539,67.889008 
	C65.191757,68.880196 62.777168,68.843666 60.247833,69.352585 
	C60.247833,67.050873 60.247833,65.444504 60.247833,63.427681 
	C64.097023,61.363865 68.231552,59.182758 72.331543,56.938519 
	C76.267853,54.783871 80.168350,52.563808 84.833336,49.953537 
	C78.876366,46.732662 73.641510,43.902229 68.035072,41.003403 
z"/>
<path fill="#4D4DFF" opacity="1.000000" stroke="none" 
	d="
M14.119665,49.984486 
	C20.783503,54.098003 27.377989,57.975834 34.149296,61.515400 
	C37.229324,63.125435 38.773167,65.034332 37.430679,69.444511 
	C34.886871,68.736427 32.140408,68.413574 29.822826,67.242188 
	C23.434776,64.013420 17.175026,60.518944 10.961017,56.961044 
	C4.702924,53.377907 4.395558,46.851017 10.487110,43.268436 
	C17.358816,39.227036 24.418221,35.471745 31.600014,32.016029 
	C33.208679,31.241974 36.819080,31.489952 37.501556,32.554127 
	C39.140686,35.109997 37.042953,36.845860 34.577332,38.170563 
	C27.696468,41.867466 20.932568,45.782063 14.119665,49.984486 
z"/>
</svg>