<?xml version="1.0" ?>
<!DOCTYPE svg  PUBLIC '-//W3C//DTD SVG 1.1//EN'  'http://www.w3.org/Graphics/SVG/1.1/DTD/svg11.dtd'>
<!-- Uploaded to: SVG Repo, www.svgrepo.com, Generator: SVG Repo Mixer Tools -->
<svg fill="#000000" width="800px" height="800px" viewBox="0 0 6000 6000" style="fill-rule:evenodd;clip-rule:evenodd;stroke-linejoin:round;stroke-miterlimit:2;" version="1.1" xml:space="preserve" xmlns="http://www.w3.org/2000/svg" xmlns:serif="http://www.serif.com/" xmlns:xlink="http://www.w3.org/1999/xlink">
<g transform="matrix(7.73953,0,0,7.73953,-8028.73,-4294.13)">
<path d="M1458.29,681.7C1458.03,681.326 1457.73,680.946 1457.4,680.557C1455.02,677.757 1451.89,678.067 1448.44,679.451C1446.15,680.374 1443.69,681.765 1441.26,682.761C1439.02,683.675 1436.81,684.273 1434.76,683.666C1432.4,682.968 1430.28,681.418 1428.22,679.596C1426.06,677.685 1423.98,675.471 1421.82,673.53C1417.23,669.407 1412.28,666.531 1405.71,669.604C1401.19,671.717 1400.14,676.126 1399.19,680.532C1398.36,684.388 1397.65,688.255 1393.72,689.897C1391.43,690.853 1389.01,690.783 1386.55,690.384C1383.94,689.96 1381.3,689.162 1378.74,688.685C1376.01,688.177 1373.36,688.038 1370.92,688.955C1368.46,689.879 1366.18,691.866 1364.25,695.718C1363.76,696.713 1363.63,698.249 1363.89,700.204C1364.24,702.853 1365.27,706.348 1366.75,710.284C1371.08,721.814 1379.24,737.195 1384.87,746.138C1385.52,752.043 1386.53,757.826 1388,763.145C1388.4,764.584 1389.97,768.567 1392.06,771.453C1392.99,772.741 1394.03,773.81 1395.1,774.4C1395.94,774.86 1396.8,775.046 1397.67,774.896C1397.78,774.877 1397.89,774.852 1398,774.821C1399.73,780.579 1403.05,785.486 1408.27,788.215C1410.99,789.634 1414.18,790.052 1417.62,789.651C1422.62,789.069 1428.17,786.754 1433.52,783.383C1441.47,778.371 1448.97,771.031 1453.56,763.72C1456.68,758.734 1458.44,753.749 1458.15,749.501C1457.63,741.791 1452.52,738.578 1445.5,736.571C1440.51,735.148 1434.55,734.328 1428.72,732.744C1427.85,732.509 1426.99,732.258 1426.14,731.984C1426.83,731.016 1427.47,730.007 1428.1,728.988C1429.9,726.099 1431.64,723.135 1434.36,721.024C1436.19,719.608 1438.25,718.525 1440.4,717.568C1440.64,717.602 1440.88,717.632 1441.13,717.658C1445.6,718.141 1450.68,717.392 1455.82,716.665C1460.81,715.959 1465.86,715.273 1470.45,715.865C1471.83,716.042 1473.15,716.334 1474.42,716.778C1472.59,735.166 1466.99,753.608 1456.03,768.596C1451.94,774.181 1444.36,778.534 1438.25,782.364C1433.96,785.047 1430.39,787.514 1429,789.892C1428.55,790.656 1428.17,791.469 1427.85,792.319C1424.97,795.301 1422.52,798.548 1420.69,802.222C1416.08,811.527 1419.03,819.869 1423.05,828.215C1426.89,836.182 1431.73,844.14 1431.1,853.06C1430.56,860.784 1427.52,867.959 1424.05,875.015C1420.51,882.213 1416.51,889.288 1414.13,896.663C1406.27,920.971 1404.3,949.407 1407.18,974.732C1407.24,975.211 1407.67,975.555 1408.15,975.501C1408.63,975.446 1408.98,975.013 1408.92,974.534C1406.06,949.448 1408.01,921.279 1415.79,897.201C1418.15,889.903 1422.11,882.908 1425.62,875.787C1429.19,868.524 1432.29,861.131 1432.84,853.182C1433.49,843.958 1428.59,835.695 1424.62,827.457C1420.84,819.6 1417.91,811.759 1422.26,802.999C1423.52,800.47 1425.08,798.152 1426.88,795.987C1426.65,797.326 1426.53,798.717 1426.49,800.132C1426.34,805.608 1427.49,811.44 1428.57,815.896C1433.46,835.946 1441.38,856.857 1436.84,877.674C1434.77,887.152 1430.13,895.647 1425.56,904.172C1420.91,912.846 1416.34,921.549 1414.49,931.292C1413.1,938.593 1413.75,945.959 1414.56,953.347C1415.35,960.586 1416.31,967.847 1415.56,975.089C1415.32,977.402 1413.99,982.763 1412.43,989.265C1407.1,984.202 1401.77,978.919 1396.9,972.86C1395.3,962.17 1390.07,945.493 1388.07,930.895C1388.13,930.773 1388.2,930.652 1388.27,930.53C1392.7,922.669 1399.15,915.756 1402.94,910.689C1404.31,908.866 1405.33,907.265 1405.84,905.936C1406.31,904.724 1406.36,903.69 1406,902.863C1405.64,902.017 1404.85,901.32 1403.44,900.907C1400.97,900.182 1398.26,900.339 1395.82,901.142C1391.09,902.695 1388.27,906.146 1386.81,910.845C1385.4,915.354 1385.27,921.045 1385.88,927.262C1385.98,928.346 1386.11,929.447 1386.26,930.558C1381.99,938.476 1379.88,947.276 1384.15,956.109C1387.35,962.714 1391.14,968.435 1395.26,973.599C1395.52,975.454 1395.65,977.112 1395.62,978.527C1395.51,983.837 1393.36,988.84 1391.42,993.862C1389.39,999.116 1387.59,1004.39 1388.3,1010C1389.04,1015.96 1392.47,1020.65 1395.72,1025.42C1398.8,1029.94 1401.7,1034.54 1401.59,1040.57C1401.46,1047.66 1398.96,1054.19 1396.7,1060.79C1394.37,1067.59 1392.3,1074.46 1393.12,1082.02C1394.35,1093.54 1399.05,1104.02 1404,1114.46C1408.86,1124.73 1413.97,1134.96 1416.09,1146.11C1418.27,1157.56 1417.13,1169.16 1415.38,1180.76C1413.62,1192.49 1411.22,1204.22 1410.9,1215.81C1410.89,1216.29 1411.27,1216.69 1411.75,1216.71C1412.23,1216.72 1412.63,1216.34 1412.65,1215.86C1412.97,1204.34 1415.36,1192.67 1417.11,1181.02C1418.89,1169.22 1420.02,1157.43 1417.81,1145.78C1415.66,1134.48 1410.51,1124.12 1405.57,1113.71C1400.71,1103.45 1396.07,1093.16 1394.85,1081.84C1394.07,1074.54 1396.11,1067.91 1398.35,1061.35C1400.67,1054.58 1403.2,1047.88 1403.34,1040.6C1403.46,1034.18 1400.44,1029.25 1397.17,1024.44C1394.07,1019.89 1390.74,1015.46 1390.03,1009.78C1389.36,1004.46 1391.12,999.473 1393.05,994.492C1395.06,989.279 1397.25,984.074 1397.37,978.563C1397.38,977.795 1397.35,976.956 1397.28,976.054C1401.94,981.579 1406.96,986.487 1411.97,991.224C1409.9,999.926 1407.6,1010.23 1406.94,1017.97C1406.62,1021.79 1406.7,1025 1407.36,1027.15C1407.89,1028.85 1408.79,1029.94 1410.02,1030.36C1413.08,1031.4 1415.77,1030.05 1418.01,1027.35C1422.73,1021.68 1425.46,1009.9 1426.2,1006.26C1426.28,1005.9 1426.35,1005.53 1426.41,1005.17C1431.25,1010.22 1435.69,1015.57 1439.3,1021.75C1435.75,1033.61 1429.98,1044.43 1424.13,1055.17C1417.27,1067.75 1410.32,1080.21 1406.62,1094.05C1405.27,1099.12 1404.27,1107.31 1406.17,1113.7C1407.49,1118.15 1410.18,1121.74 1414.99,1123C1423.05,1125.12 1429.84,1120.38 1435.17,1112.95C1442.89,1102.18 1447.53,1085.78 1448.72,1078C1452.7,1052.03 1448.85,1034.85 1441.2,1021.48C1441.69,1019.79 1442.13,1018.09 1442.52,1016.36C1450.55,981.065 1443.28,944.212 1452.55,909.186C1453.95,903.897 1456.56,896.134 1460.37,889.28C1464.6,886.599 1474.51,879.571 1477.32,876.241C1477.95,875.495 1478.25,874.849 1478.27,874.427C1478.3,874 1478.15,873.663 1477.86,873.407C1477.67,873.233 1477.38,873.084 1476.95,873.039C1476.43,872.983 1475.56,873.093 1474.29,873.462C1469.16,874.953 1464.78,879.205 1461.23,884.514C1460.47,885.647 1459.75,886.827 1459.07,888.036C1458.8,888.204 1458.56,888.347 1458.36,888.464C1443.01,897.342 1431.22,908.064 1425.52,925.372C1421.03,938.997 1422.14,952.475 1423.7,965.957C1425.07,977.755 1426.79,989.555 1425.23,1001.46C1423.71,999.945 1422.17,998.45 1420.6,996.959C1418.39,994.854 1416.14,992.76 1413.89,990.637C1415.56,983.603 1417.04,977.721 1417.3,975.269C1418.06,967.904 1417.1,960.519 1416.3,953.156C1415.5,945.941 1414.85,938.748 1416.2,931.618C1418.02,922.051 1422.53,913.514 1427.1,904.997C1431.74,896.33 1436.44,887.683 1438.55,878.047C1443.15,856.969 1435.22,835.784 1430.27,815.483C1429.22,811.156 1428.09,805.495 1428.24,800.178C1428.3,797.732 1428.63,795.359 1429.38,793.236C1434.71,787.792 1441.56,783.268 1448.62,778.577C1459.72,771.204 1471.37,763.444 1478.9,751.366C1481.89,746.575 1485.21,740.045 1486.03,733.696C1486.59,729.323 1485.97,725.035 1483.35,721.408C1481.33,718.617 1478.94,716.784 1476.29,715.628C1476.46,713.682 1476.6,711.736 1476.69,709.795C1477,703.444 1477.13,692.782 1474.99,683.682C1473.53,677.446 1470.98,671.95 1466.8,668.931C1465.98,668.34 1465.2,668.145 1464.49,668.204C1463.46,668.289 1462.52,668.923 1461.73,669.913C1460.08,671.97 1459.04,675.611 1458.75,677.042C1458.45,678.478 1458.32,680.047 1458.29,681.7ZM1440.48,1023.85C1436.87,1035.21 1431.3,1045.65 1425.66,1056C1418.87,1068.46 1411.97,1080.79 1408.31,1094.5C1407.02,1099.33 1406.04,1107.12 1407.84,1113.2C1408.99,1117.06 1411.27,1120.22 1415.44,1121.31C1422.79,1123.24 1428.89,1118.71 1433.75,1111.93C1441.3,1101.39 1445.83,1085.35 1446.99,1077.74C1450.74,1053.26 1447.4,1036.74 1440.48,1023.85ZM1413.42,992.595C1411.43,1001.02 1409.31,1010.74 1408.68,1018.12C1408.38,1021.66 1408.42,1024.64 1409.04,1026.63C1409.36,1027.69 1409.82,1028.45 1410.58,1028.71C1412.1,1029.23 1413.49,1028.9 1414.74,1028.05C1416.13,1027.09 1417.36,1025.52 1418.45,1023.64C1421.88,1017.74 1423.88,1008.93 1424.49,1005.91C1424.64,1005.15 1424.78,1004.38 1424.91,1003.62C1423.11,1001.8 1421.27,1000.01 1419.4,998.224C1417.43,996.349 1415.43,994.482 1413.42,992.595ZM1457.49,891.004C1443.38,899.457 1432.52,909.708 1427.18,925.919C1422.77,939.292 1423.9,952.523 1425.44,965.756C1426.88,978.137 1428.66,990.521 1426.77,1003.02C1431.68,1008.05 1436.21,1013.34 1439.96,1019.41C1440.27,1018.27 1440.56,1017.13 1440.82,1015.97C1448.85,980.657 1441.59,943.785 1450.86,908.739C1452.12,903.994 1454.33,897.304 1457.49,891.004ZM1386.7,933.554C1383.45,940.403 1382.1,947.858 1385.73,955.347C1388.35,960.766 1391.38,965.58 1394.67,969.978C1392.81,960.024 1388.71,946.197 1386.7,933.554ZM1387.71,928.025C1392.11,920.774 1397.99,914.399 1401.54,909.643C1402.79,907.976 1403.75,906.524 1404.21,905.309C1404.48,904.613 1404.6,904.027 1404.4,903.551C1404.2,903.094 1403.71,902.807 1402.95,902.584C1400.81,901.958 1398.47,902.108 1396.36,902.802C1392.21,904.168 1389.76,907.233 1388.48,911.364C1387.13,915.684 1387.03,921.137 1387.62,927.092C1387.65,927.402 1387.68,927.712 1387.71,928.025ZM1476.2,874.847C1475.82,874.898 1475.31,874.987 1474.78,875.14C1470,876.527 1465.99,880.547 1462.68,885.486L1462.48,885.795C1466.24,883.224 1471.29,879.535 1474.28,876.829C1475.11,876.069 1475.78,875.393 1476.2,874.847ZM1425.02,733.455C1423.89,734.835 1422.61,736.078 1421.06,737.069C1418.25,738.851 1414.69,739.402 1411.35,740.188C1408.31,740.9 1405.45,741.795 1403.71,744.353C1400.9,748.487 1399.04,754.282 1398.47,760.33C1399.17,761.313 1399.81,762.318 1400.34,763.323C1402.19,766.838 1402.7,770.363 1400.35,773.174C1400.09,773.482 1399.83,773.744 1399.57,773.964C1401.13,779.416 1404.17,784.101 1409.08,786.667C1411.5,787.931 1414.35,788.273 1417.42,787.915C1422.19,787.36 1427.48,785.123 1432.59,781.905C1440.32,777.032 1447.62,769.9 1452.08,762.792C1454.98,758.166 1456.68,753.562 1456.41,749.62C1455.94,742.761 1451.27,740.036 1445.02,738.251C1440.04,736.83 1434.08,736.012 1428.26,734.431C1427.17,734.135 1426.09,733.813 1425.02,733.455ZM1387.04,749.439C1387.66,754.028 1388.53,758.499 1389.69,762.679C1390.13,764.28 1392.13,769.285 1394.65,771.847C1395.49,772.695 1396.36,773.294 1397.27,773.188C1397.36,773.178 1397.45,773.16 1397.55,773.134C1397.49,772.898 1397.43,772.66 1397.38,772.42C1396.57,768.701 1396.37,764.725 1396.68,760.829C1394.12,757.355 1390.85,754.196 1389.2,752.307C1388.6,751.623 1387.87,750.65 1387.04,749.439ZM1398.29,763.246C1398.22,766.202 1398.47,769.166 1399.07,771.977C1400.89,769.73 1400.27,766.932 1398.79,764.139C1398.64,763.841 1398.47,763.543 1398.29,763.246ZM1476.11,717.475C1474.19,735.996 1468.47,754.532 1457.44,769.627C1456.95,770.295 1456.41,770.947 1455.84,771.584C1464.02,765.838 1471.87,759.345 1477.42,750.441C1480.29,745.838 1483.51,739.574 1484.29,733.473C1484.8,729.547 1484.29,725.688 1481.93,722.432C1480.25,720.109 1478.28,718.525 1476.11,717.475ZM1423.27,732.835C1419.1,731.268 1415.18,729.089 1411.91,725.793C1408.7,722.556 1405.19,716.671 1401.01,712.389C1398.38,709.706 1395.51,707.647 1392.22,707.489C1390.08,707.386 1388.69,708.584 1387.77,710.256C1386.2,713.088 1385.88,717.211 1385.79,719.707C1385.48,727.827 1385.62,736.826 1386.56,745.568C1388.16,748.075 1389.53,750.023 1390.52,751.159C1391.95,752.806 1394.58,755.403 1396.95,758.337C1397.73,752.651 1399.6,747.298 1402.27,743.371C1404.26,740.441 1407.47,739.302 1410.94,738.487C1414.1,737.746 1417.48,737.276 1420.12,735.595C1421.33,734.823 1422.35,733.88 1423.27,732.835ZM1437.6,716.969C1434.43,716.024 1431.69,714.177 1429.59,710.908C1428.62,709.403 1428.36,708.038 1428.59,706.795C1428.82,705.571 1429.54,704.444 1430.67,703.411C1433.65,700.694 1439.62,698.572 1445.35,696.317C1449.03,694.871 1452.59,693.364 1455.11,691.551C1456.82,690.317 1458.04,688.965 1458.32,687.342C1458.61,685.715 1457.93,683.878 1456.07,681.689C1454.73,680.11 1453.05,679.944 1451.21,680.378C1449.81,680.708 1448.33,681.366 1446.81,682.096C1444.38,683.258 1441.85,684.597 1439.39,685.245C1437.63,685.712 1435.9,685.826 1434.26,685.341C1429.21,683.844 1425.07,678.803 1420.65,674.83C1416.59,671.184 1412.26,668.469 1406.45,671.187C1402.47,673.044 1401.73,677.026 1400.9,680.899C1399.95,685.324 1398.9,689.625 1394.39,691.509C1391.8,692.592 1389.05,692.561 1386.27,692.109C1383.65,691.683 1381,690.882 1378.42,690.403C1376.02,689.956 1373.69,689.783 1371.54,690.59C1369.41,691.391 1367.49,693.164 1365.82,696.5C1365.43,697.268 1365.42,698.462 1365.62,699.974C1365.96,702.523 1366.96,705.882 1368.39,709.67C1372.23,719.896 1379.11,733.198 1384.49,742.197C1383.85,734.509 1383.77,726.743 1384.04,719.641C1384.14,716.936 1384.54,712.479 1386.24,709.411C1387.49,707.149 1389.41,705.604 1392.3,705.744C1396.01,705.922 1399.3,708.145 1402.26,711.168C1406.44,715.446 1409.95,721.328 1413.15,724.563C1416.38,727.816 1420.28,729.906 1424.41,731.398C1425.2,730.333 1425.91,729.202 1426.62,728.064C1428.53,725 1430.4,721.882 1433.29,719.643C1434.63,718.608 1436.08,717.741 1437.6,716.969ZM1474.59,714.987C1474.74,713.224 1474.86,711.465 1474.95,709.71C1475.25,703.477 1475.39,693.012 1473.29,684.081C1471.93,678.296 1469.66,673.148 1465.78,670.347C1465.37,670.051 1464.99,669.916 1464.63,669.945C1464.04,669.994 1463.55,670.435 1463.09,671.005C1461.62,672.845 1460.72,676.114 1460.46,677.393C1459.93,679.986 1459.96,683.023 1460.12,686.209L1460.12,686.27C1460.12,686.304 1460.12,686.338 1460.12,686.372L1460.13,686.444C1460.25,688.852 1460.43,691.341 1460.48,693.785C1460.61,699.878 1459.9,705.682 1455.9,709.495C1452.92,712.327 1449.06,714.013 1445.12,715.612L1443.99,716.066C1447.63,716.091 1451.58,715.499 1455.58,714.935C1460.72,714.206 1465.94,713.521 1470.68,714.132C1472.02,714.305 1473.33,714.581 1474.59,714.987ZM1458.62,690.665C1457.96,691.484 1457.12,692.25 1456.13,692.968C1453.51,694.854 1449.81,696.439 1445.99,697.943C1440.49,700.111 1434.71,702.089 1431.85,704.701C1431.04,705.445 1430.47,706.232 1430.31,707.114C1430.15,707.979 1430.39,708.916 1431.06,709.964C1433.35,713.527 1436.51,715.159 1440.17,715.766C1441.59,715.147 1443.03,714.574 1444.46,713.993C1448.2,712.478 1451.87,710.913 1454.69,708.229C1458.36,704.743 1458.85,699.393 1458.73,693.821C1458.71,692.774 1458.67,691.719 1458.62,690.665Z"/>
</g>
</svg>