<?xml version="1.0" encoding="utf-8"?>
<!-- Uploaded to: SVG Repo, www.svgrepo.com, Generator: SVG Repo Mixer Tools -->
<svg version="1.1" id="Uploaded to svgrepo.com" xmlns="http://www.w3.org/2000/svg" xmlns:xlink="http://www.w3.org/1999/xlink" 
	 width="800px" height="800px" viewBox="0 0 32 32" xml:space="preserve">
<style type="text/css">
	.flatshadows_een{fill:#FDFFFF;}
	.flatshadows_twee{fill:#E1E5E5;}
	.flatshadows_vijf{fill:#8D9999;}
	.st0{fill:#A3AFAF;}
	.st1{fill:#C4CCCC;}
	.st2{fill:#FFFFFF;}
</style>
<g>
	<polygon class="flatshadows_een" points="30,26 20,26 16,30 12,26 2,26 2,2 30,2 	"/>
	<path class="flatshadows_twee" d="M23.607,26L11.303,13.697l1.393-1.393L26.393,26H23.607z M30,26v-0.393L16.697,12.303
		l-1.393,1.393L27.607,26H30z M30,21.607l-9.303-9.303l-1.393,1.393L30,24.393V21.607z"/>
	<path class="flatshadows_vijf" d="M13,13c0,0.552-0.448,1-1,1s-1-0.448-1-1s0.448-1,1-1S13,12.448,13,13z M16,12
		c-0.552,0-1,0.448-1,1s0.448,1,1,1c0.552,0,1-0.448,1-1S16.552,12,16,12z M20,12c-0.552,0-1,0.448-1,1s0.448,1,1,1s1-0.448,1-1
		S20.552,12,20,12z"/>
</g>
</svg>