<svg version="1.1" id="Layer_1" xmlns="http://www.w3.org/2000/svg" xmlns:xlink="http://www.w3.org/1999/xlink" x="0px" y="0px"
	 width="100%" viewBox="0 0 1066 748" enable-background="new 0 0 1066 748" xml:space="preserve">
<path fill="#FFFFFF" opacity="1.000000" stroke="none" 
	d="
M689.000000,749.000000 
	C459.333344,749.000000 230.166687,749.000000 1.000031,749.000000 
	C1.000021,499.666687 1.000021,250.333389 1.000010,1.000064 
	C356.333282,1.000043 711.666565,1.000043 1067.000000,1.000021 
	C1067.000000,250.333267 1067.000000,499.666534 1067.000000,748.999878 
	C941.166687,749.000000 815.333313,749.000000 689.000000,749.000000 
M112.999977,411.500000 
	C112.999977,435.996124 112.909698,460.492859 113.067909,484.987976 
	C113.104263,490.617340 113.382896,496.376373 114.591721,501.845459 
	C121.813919,534.520813 149.622437,556.954102 183.163742,556.964722 
	C397.637085,557.032715 612.110474,557.037964 826.583801,556.965210 
	C866.239258,556.951721 896.892700,526.450378 896.943298,486.720703 
	C897.097595,365.569275 897.096375,244.417419 896.943237,123.265991 
	C896.893005,83.518517 866.256714,53.047691 826.564209,53.034348 
	C612.257507,52.962296 397.950806,52.988628 183.644119,53.067245 
	C178.361176,53.069183 172.928268,53.456322 167.820175,54.705753 
	C134.024918,62.972027 113.027779,89.800514 113.013550,124.535530 
	C112.974495,219.856995 113.000015,315.178497 112.999977,411.500000 
M137.113205,585.269897 
	C118.041100,589.867188 108.877296,605.296936 114.883873,622.699036 
	C118.768990,633.954895 129.460205,640.631958 142.961105,641.052551 
	C193.909821,642.639587 244.937408,643.144592 295.772247,646.515991 
	C343.412720,649.675415 391.006195,654.771729 438.326782,661.182617 
	C485.932770,667.632019 533.425720,675.522278 580.510254,685.045349 
	C628.367371,694.724670 675.735840,706.879700 723.187683,718.484924 
	C766.131470,728.987549 806.791565,702.592651 812.157227,658.824829 
	C814.150146,642.568176 812.691895,625.888000 812.782471,609.400818 
	C812.786072,608.752014 812.544128,608.098267 812.391541,607.452698 
	C808.976990,593.008118 796.006653,583.565979 781.831116,585.201721 
	C767.601074,586.843689 757.129517,598.805542 757.016907,613.726379 
	C756.926392,625.723145 757.069702,637.721680 756.971741,649.718323 
	C756.905334,657.852356 752.835510,663.045837 744.879578,664.366272 
	C741.595703,664.911255 737.916870,664.424988 734.652649,663.540649 
	C675.420227,647.494263 615.708130,633.467773 555.260315,622.926453 
	C512.331848,615.440369 469.229919,608.796936 426.040344,603.009216 
	C391.569275,598.389893 356.897156,595.039612 322.225616,592.214233 
	C289.528809,589.549805 256.734253,587.836426 223.949158,586.579590 
	C195.324478,585.482239 166.653107,585.603271 137.113205,585.269897 
z"/>
<path fill="#000000" opacity="1.000000" stroke="none" 
	d="
M112.999977,411.000000 
	C113.000015,315.178497 112.974495,219.856995 113.013550,124.535530 
	C113.027779,89.800514 134.024918,62.972027 167.820175,54.705753 
	C172.928268,53.456322 178.361176,53.069183 183.644119,53.067245 
	C397.950806,52.988628 612.257507,52.962296 826.564209,53.034348 
	C866.256714,53.047691 896.893005,83.518517 896.943237,123.265991 
	C897.096375,244.417419 897.097595,365.569275 896.943298,486.720703 
	C896.892700,526.450378 866.239258,556.951721 826.583801,556.965210 
	C612.110474,557.037964 397.637085,557.032715 183.163742,556.964722 
	C149.622437,556.954102 121.813919,534.520813 114.591721,501.845459 
	C113.382896,496.376373 113.104263,490.617340 113.067909,484.987976 
	C112.909698,460.492859 112.999977,435.996124 112.999977,411.000000 
M382.500000,501.000092 
	C516.594360,501.000092 650.688782,501.000092 784.988525,501.000092 
	C785.145386,485.169281 790.819885,472.096375 801.643799,461.234833 
	C812.459839,450.381134 825.681458,445.105164 840.709473,444.894257 
	C840.709473,351.260803 840.709473,258.184753 840.709473,165.071732 
	C825.276123,164.677780 812.258667,159.204300 801.478455,148.554169 
	C790.563599,137.771011 785.207153,124.553696 784.923462,109.361290 
	C598.057007,109.361290 411.556885,109.361290 225.026001,109.361290 
	C224.706436,124.897446 219.217590,137.872589 208.465988,148.618866 
	C197.617294,159.462219 184.259659,164.464584 169.203094,165.161880 
	C169.203094,258.680420 169.203094,351.777649 169.203094,445.077087 
	C184.806076,444.999725 197.842651,450.700836 208.663101,461.572235 
	C219.454834,472.414795 224.828568,485.611176 225.087311,501.000092 
	C277.554504,501.000092 329.527252,501.000092 382.500000,501.000092 
z"/>
<path fill="#010101" opacity="1.000000" stroke="none" 
	d="
M137.557785,585.227905 
	C166.653107,585.603271 195.324478,585.482239 223.949158,586.579590 
	C256.734253,587.836426 289.528809,589.549805 322.225616,592.214233 
	C356.897156,595.039612 391.569275,598.389893 426.040344,603.009216 
	C469.229919,608.796936 512.331848,615.440369 555.260315,622.926453 
	C615.708130,633.467773 675.420227,647.494263 734.652649,663.540649 
	C737.916870,664.424988 741.595703,664.911255 744.879578,664.366272 
	C752.835510,663.045837 756.905334,657.852356 756.971741,649.718323 
	C757.069702,637.721680 756.926392,625.723145 757.016907,613.726379 
	C757.129517,598.805542 767.601074,586.843689 781.831116,585.201721 
	C796.006653,583.565979 808.976990,593.008118 812.391541,607.452698 
	C812.544128,608.098267 812.786072,608.752014 812.782471,609.400818 
	C812.691895,625.888000 814.150146,642.568176 812.157227,658.824829 
	C806.791565,702.592651 766.131470,728.987549 723.187683,718.484924 
	C675.735840,706.879700 628.367371,694.724670 580.510254,685.045349 
	C533.425720,675.522278 485.932770,667.632019 438.326782,661.182617 
	C391.006195,654.771729 343.412720,649.675415 295.772247,646.515991 
	C244.937408,643.144592 193.909821,642.639587 142.961105,641.052551 
	C129.460205,640.631958 118.768990,633.954895 114.883873,622.699036 
	C108.877296,605.296936 118.041100,589.867188 137.557785,585.227905 
z"/>
<path fill="#FFFFFF" opacity="1.000000" stroke="none" 
	d="
M382.000000,501.000092 
	C329.527252,501.000092 277.554504,501.000092 225.087311,501.000092 
	C224.828568,485.611176 219.454834,472.414795 208.663101,461.572235 
	C197.842651,450.700836 184.806076,444.999725 169.203094,445.077087 
	C169.203094,351.777649 169.203094,258.680420 169.203094,165.161880 
	C184.259659,164.464584 197.617294,159.462219 208.465988,148.618866 
	C219.217590,137.872589 224.706436,124.897446 225.026001,109.361290 
	C411.556885,109.361290 598.057007,109.361290 784.923462,109.361290 
	C785.207153,124.553696 790.563599,137.771011 801.478455,148.554169 
	C812.258667,159.204300 825.276123,164.677780 840.709473,165.071732 
	C840.709473,258.184753 840.709473,351.260803 840.709473,444.894257 
	C825.681458,445.105164 812.459839,450.381134 801.643799,461.234833 
	C790.819885,472.096375 785.145386,485.169281 784.988525,501.000092 
	C650.688782,501.000092 516.594360,501.000092 382.000000,501.000092 
M374.633270,355.814056 
	C383.974823,379.595886 398.453125,399.798309 418.819702,415.112793 
	C459.852753,445.967255 505.057678,453.561768 553.588562,436.068237 
	C587.592102,423.811310 613.159973,401.014038 629.375488,368.806213 
	C650.111023,327.620605 651.048828,285.314026 630.577637,243.895706 
	C606.932007,196.054565 567.339905,169.647263 514.280273,165.520126 
	C472.629486,162.280380 436.332123,176.372787 406.431122,205.727737 
	C384.755066,227.007889 371.872162,253.002747 366.887695,282.958130 
	C362.770508,307.701233 365.731476,331.692902 374.633270,355.814056 
M276.222534,277.405792 
	C274.954041,277.790802 273.671051,278.133881 272.419373,278.567383 
	C261.390289,282.386810 253.812439,291.880188 253.089920,302.756073 
	C252.281982,314.917511 258.399963,325.950287 269.810730,330.823730 
	C280.601196,335.432281 290.917206,333.773163 299.961395,325.920410 
	C308.632660,318.391510 311.634430,305.364929 307.171326,294.553833 
	C302.278748,282.702454 291.021729,276.239502 276.222534,277.405792 
M720.292786,278.622101 
	C705.421753,284.098663 697.790649,298.707520 702.197632,313.263184 
	C706.503967,327.486481 721.626648,336.042725 735.977966,332.375732 
	C750.636597,328.630157 760.160156,313.325409 756.686768,299.095917 
	C752.765076,283.030029 737.382568,274.048676 720.292786,278.622101 
z"/>
<path fill="#010101" opacity="1.000000" stroke="none" 
	d="
M374.452911,355.470551 
	C365.731476,331.692902 362.770508,307.701233 366.887695,282.958130 
	C371.872162,253.002747 384.755066,227.007889 406.431122,205.727737 
	C436.332123,176.372787 472.629486,162.280380 514.280273,165.520126 
	C567.339905,169.647263 606.932007,196.054565 630.577637,243.895706 
	C651.048828,285.314026 650.111023,327.620605 629.375488,368.806213 
	C613.159973,401.014038 587.592102,423.811310 553.588562,436.068237 
	C505.057678,453.561768 459.852753,445.967255 418.819702,415.112793 
	C398.453125,399.798309 383.974823,379.595886 374.452911,355.470551 
M497.910858,221.150421 
	C496.103760,221.433395 494.300659,221.745316 492.488983,221.995132 
	C454.218414,227.272324 423.246918,260.859680 421.169281,299.347015 
	C418.291870,352.649994 462.149872,394.128204 515.064819,388.147705 
	C574.118408,381.473450 607.918823,315.533813 578.191162,264.122894 
	C560.709839,233.890823 533.637329,220.055328 497.910858,221.150421 
z"/>
<path fill="#020202" opacity="1.000000" stroke="none" 
	d="
M276.648071,277.339874 
	C291.021729,276.239502 302.278748,282.702454 307.171326,294.553833 
	C311.634430,305.364929 308.632660,318.391510 299.961395,325.920410 
	C290.917206,333.773163 280.601196,335.432281 269.810730,330.823730 
	C258.399963,325.950287 252.281982,314.917511 253.089920,302.756073 
	C253.812439,291.880188 261.390289,282.386810 272.419373,278.567383 
	C273.671051,278.133881 274.954041,277.790802 276.648071,277.339874 
z"/>
<path fill="#020202" opacity="1.000000" stroke="none" 
	d="
M720.653931,278.445251 
	C737.382568,274.048676 752.765076,283.030029 756.686768,299.095917 
	C760.160156,313.325409 750.636597,328.630157 735.977966,332.375732 
	C721.626648,336.042725 706.503967,327.486481 702.197632,313.263184 
	C697.790649,298.707520 705.421753,284.098663 720.653931,278.445251 
z"/>
<path fill="#FEFEFE" opacity="1.000000" stroke="none" 
	d="
M498.375336,221.137146 
	C533.637329,220.055328 560.709839,233.890823 578.191162,264.122894 
	C607.918823,315.533813 574.118408,381.473450 515.064819,388.147705 
	C462.149872,394.128204 418.291870,352.649994 421.169281,299.347015 
	C423.246918,260.859680 454.218414,227.272324 492.488983,221.995132 
	C494.300659,221.745316 496.103760,221.433395 498.375336,221.137146 
z"/>
</svg>