<svg version="1.1" id="Layer_1" xmlns="http://www.w3.org/2000/svg" xmlns:xlink="http://www.w3.org/1999/xlink" x="0px" y="0px"
	 width="100%" viewBox="0 0 912 1024" enable-background="new 0 0 912 1024" xml:space="preserve">
<path fill="#000000" opacity="1.000000" stroke="none" 
	d="
M503.306244,148.087494 
	C518.105225,145.274704 532.607544,143.501678 547.158325,141.942825 
	C565.292236,140.000076 578.003845,148.032501 581.814819,164.476868 
	C585.059509,178.477951 578.600098,193.464386 565.876526,200.203461 
	C556.908447,204.953430 547.422485,208.729019 538.477051,213.517502 
	C519.427979,223.714508 504.025238,237.518051 496.800323,258.656525 
	C492.907349,270.046539 491.054565,281.866577 490.297821,293.869568 
	C487.841034,332.838898 490.540344,371.804108 490.623291,410.769104 
	C490.696289,445.065430 491.692291,479.380249 492.463409,513.680969 
	C493.249725,548.655701 493.970795,583.628540 494.442627,618.608887 
	C494.761627,642.258728 495.445374,665.903687 495.951385,689.551147 
	C496.058685,694.566589 496.114197,699.550842 499.293549,703.881470 
	C500.409790,705.401917 500.364166,707.354980 500.365295,709.197021 
	C500.384613,741.008606 500.338867,772.820435 500.434662,804.631775 
	C500.489502,822.839050 491.803680,836.557800 478.036591,847.221863 
	C458.689178,862.208374 436.327911,866.303711 412.411926,863.747925 
	C395.725281,861.964722 380.746429,856.012695 367.934845,845.131470 
	C354.645264,833.844177 347.613464,819.591187 347.720032,801.855957 
	C347.901245,771.694153 347.776428,741.530518 347.758698,711.367615 
	C347.757233,708.850159 347.502228,706.159607 349.005188,704.088562 
	C352.814697,698.838928 352.626373,692.911987 352.750885,686.875793 
	C353.407227,655.067078 354.148560,623.259644 354.995270,591.455383 
	C355.832855,559.995300 356.723450,528.535889 357.785767,497.082794 
	C359.151825,456.635895 360.513306,416.191284 361.154114,375.723328 
	C361.478455,355.241882 362.078583,334.760681 362.874603,314.291840 
	C363.982086,285.814331 368.270508,258.011963 381.167145,232.110764 
	C396.584412,201.147293 420.722809,179.351044 451.696686,164.750671 
	C468.035461,157.048950 485.189453,151.747421 503.306244,148.087494 
M372.443817,428.878296 
	C371.988556,452.025970 371.192841,475.162567 370.451233,498.302582 
	C369.448547,529.590637 368.651123,560.883667 367.443634,592.167664 
	C366.447968,617.963440 366.349915,643.793213 365.439514,669.593323 
	C365.035309,681.047302 366.347443,692.619202 363.622864,703.951355 
	C363.027466,706.427490 364.470581,707.189331 366.444000,707.728149 
	C373.037415,709.528503 379.741760,710.868469 386.513855,711.596863 
	C404.758179,713.559265 423.074341,713.464661 441.393402,713.043945 
	C454.907166,712.733459 468.286499,711.422241 481.394745,707.962341 
	C483.423157,707.427002 485.988983,707.390015 485.112671,704.014221 
	C482.523041,694.037598 483.369934,683.763916 483.181763,673.674927 
	C482.467255,635.365845 481.962830,597.054382 480.926514,558.749329 
	C480.029907,525.609619 479.507263,492.458618 479.000977,459.309845 
	C478.456360,423.655304 478.121857,387.997589 477.699188,352.341217 
	C477.618195,345.509064 477.771790,338.666168 477.440491,331.846497 
	C476.435822,311.166443 477.179626,290.585541 480.759338,270.173615 
	C484.713409,247.627029 495.203735,228.913986 513.474670,214.715271 
	C525.290161,205.533203 538.416016,198.762512 551.976196,192.679947 
	C555.158936,191.252274 558.401855,189.832397 561.304626,187.931702 
	C568.452026,183.251678 571.704224,173.412537 569.055664,165.415604 
	C566.422729,157.466019 561.118469,153.973221 551.220276,154.388672 
	C544.757812,154.659897 538.320190,155.574829 531.877686,156.259628 
	C506.889679,158.915573 482.652588,164.515381 459.681488,174.941849 
	C417.092804,194.272644 391.137817,226.912674 381.008759,272.546936 
	C374.819122,300.433197 375.643341,328.787872 374.437134,357.003357 
	C373.426971,380.633972 373.122772,404.294769 372.443817,428.878296 
M476.485413,784.912292 
	C478.752625,784.379395 481.008362,783.790161 483.289642,783.326172 
	C487.122314,782.546570 488.727448,780.659302 488.502899,776.378601 
	C488.111267,768.910767 488.556396,761.401062 488.582581,753.908691 
	C488.612854,745.250793 488.629517,736.591797 488.521057,727.934937 
	C488.488495,725.335083 488.280853,723.029968 484.222046,723.887878 
	C448.345551,731.471436 412.272980,731.877563 376.089539,726.330994 
	C371.073090,725.562073 366.103119,724.489990 360.946014,723.527283 
	C359.837952,728.508179 360.783051,733.032043 360.276947,737.448608 
	C359.698853,742.493408 362.048035,744.636108 366.660950,745.735718 
	C379.167816,748.717163 391.832275,750.280151 404.659271,750.769653 
	C406.714050,750.848022 409.664154,750.539185 409.409027,753.667297 
	C409.202240,756.202576 406.515320,756.119934 404.560333,755.949219 
	C397.101562,755.298157 389.625702,754.712158 382.214844,753.680664 
	C375.185913,752.702393 368.230316,751.196899 361.424774,749.956421 
	C359.892487,751.934021 360.366272,753.838684 360.361328,755.613098 
	C360.318390,771.109131 360.508423,786.608398 360.233704,802.099670 
	C360.151367,806.742188 362.049133,808.635132 366.200836,809.705872 
	C379.674500,813.180542 393.433868,814.277405 407.244263,814.722534 
	C429.903473,815.453003 452.607452,815.686035 474.996521,811.549622 
	C490.833099,808.623901 488.774902,808.422058 488.421936,795.456299 
	C488.390259,794.293457 488.500702,793.127380 488.505371,791.962646 
	C488.518341,788.733521 487.706848,786.859131 483.755890,788.075623 
	C477.229614,790.085083 470.463501,791.125000 463.690369,791.883057 
	C456.749054,792.659973 449.772064,793.134705 442.803131,793.636536 
	C441.073242,793.761108 439.227844,793.324402 439.251099,791.101685 
	C439.270752,789.219482 440.899475,788.824646 442.482941,788.703918 
	C443.146698,788.653198 443.815338,788.669861 444.480438,788.632568 
	C454.944031,788.046448 465.385864,787.264587 476.485413,784.912292 
M366.895081,815.199585 
	C365.654572,815.186584 364.440552,813.916565 362.936737,815.301147 
	C363.544220,818.852844 365.202728,822.076965 367.196930,825.148193 
	C371.928253,832.434692 378.355194,837.902588 385.829712,842.171814 
	C403.475220,852.250427 422.550507,854.023621 441.962189,850.112427 
	C459.480438,846.582886 474.433075,838.202698 483.733032,821.983948 
	C485.012634,819.752319 486.307831,817.459900 485.988708,814.291443 
	C472.744873,817.300415 459.729340,818.708862 446.621033,819.564026 
	C420.111511,821.293396 393.758514,820.583435 366.895081,815.199585 
M464.389069,722.787292 
	C471.300934,721.791199 478.236145,720.916138 484.905029,718.696594 
	C488.244537,717.585083 489.522888,715.669434 487.499420,712.274170 
	C445.320648,721.041382 403.165161,721.496277 360.827332,712.677979 
	C359.418915,718.277832 363.560211,718.784668 366.724762,719.487915 
	C398.764099,726.607849 431.086029,726.171143 464.389069,722.787292 
z"/>
<path fill="#000000" opacity="1.000000" stroke="none" 
	d="
M378.742126,681.995789 
	C379.451447,655.198242 379.906555,628.889771 380.939789,602.604004 
	C381.927399,577.478821 382.440002,552.347595 383.040375,527.214172 
	C383.867493,492.589050 384.982819,457.970642 386.011627,423.350464 
	C386.916626,392.897217 387.779694,362.442261 388.833923,331.994049 
	C389.738556,305.867859 390.532715,279.705261 400.308533,254.876373 
	C403.799957,246.008759 407.858673,237.458374 413.440521,229.697876 
	C414.571747,228.125092 415.743774,225.871231 418.137817,227.652496 
	C420.134674,229.138290 418.874329,231.000381 417.865387,232.518677 
	C401.530121,257.100586 396.030792,284.711395 395.129669,313.616119 
	C394.138916,345.397186 393.280334,377.183105 392.113617,408.957733 
	C390.720764,446.891174 389.550201,484.825836 388.882874,522.781677 
	C388.323822,554.578674 387.086334,586.363892 386.134888,618.153870 
	C385.472504,640.285950 384.807373,662.417969 384.087708,684.548279 
	C383.974213,688.037720 383.558136,691.516907 383.296448,695.001953 
	C383.191711,696.396545 382.967682,697.824951 381.268372,697.955261 
	C379.261902,698.109009 378.753662,696.600830 378.734558,694.990662 
	C378.685211,690.825928 378.732117,686.660156 378.742126,681.995789 
z"/>
<path fill="#000000" opacity="1.000000" stroke="none" 
	d="
M455.729370,192.657898 
	C459.022980,194.623566 457.681549,196.466141 455.665192,197.707947 
	C448.010986,202.421936 440.688690,207.561737 433.920319,213.490250 
	C432.580872,214.663483 430.885284,215.224747 429.472168,213.685226 
	C428.223541,212.324905 428.798584,210.806656 430.022125,209.724945 
	C437.729523,202.911316 445.414581,196.048660 455.729370,192.657898 
z"/>
<path fill="#000000" opacity="1.000000" stroke="none" 
	d="
M475.097961,188.887146 
	C472.886383,189.628540 471.002319,189.886978 470.358002,187.452850 
	C469.866486,185.596069 471.454926,184.833862 472.806519,184.234177 
	C477.796722,182.020035 482.905182,180.111023 488.243622,178.917908 
	C489.841675,178.560730 491.882111,178.190811 492.547333,180.182953 
	C493.374847,182.661087 491.045868,183.149048 489.430298,183.752991 
	C484.790100,185.487579 480.101471,187.092636 475.097961,188.887146 
z"/>
<path fill="#000000" opacity="1.000000" stroke="none" 
	d="
M414.314697,788.724548 
	C419.249054,788.801514 423.722839,788.833679 428.193451,788.970459 
	C429.915863,789.023132 431.796173,789.480957 431.775330,791.576843 
	C431.754395,793.686584 429.844086,794.083984 428.131195,794.096008 
	C423.327789,794.129578 418.520508,794.142395 413.721161,793.977234 
	C411.667084,793.906555 408.733734,794.101257 408.795929,791.149963 
	C408.862091,788.008606 411.857941,788.961365 414.314697,788.724548 
z"/>
<path fill="#000000" opacity="1.000000" stroke="none" 
	d="
M438.938843,755.466370 
	C432.355865,757.011780 426.035278,756.110535 419.743805,756.236572 
	C418.169281,756.268066 416.614410,755.695190 416.604218,753.773132 
	C416.593994,751.845093 418.197113,751.279053 419.728760,751.255432 
	C425.379730,751.168152 431.037628,751.099548 436.683075,751.300476 
	C438.835449,751.377075 440.688568,752.377319 438.938843,755.466370 
z"/>
<path fill="#000000" opacity="1.000000" stroke="none" 
	d="
M396.080139,793.124634 
	C393.344513,792.762085 391.026428,792.501648 388.746948,792.047485 
	C387.257385,791.750732 386.444946,790.705017 386.747284,789.118408 
	C387.006134,787.760071 388.058136,787.139221 389.310242,787.229919 
	C392.620331,787.469666 395.932495,787.764893 399.217590,788.225464 
	C400.634399,788.424133 402.593506,788.651489 402.591156,790.547974 
	C402.588593,792.608521 400.783997,793.100098 399.009064,793.187500 
	C398.180115,793.228394 397.345917,793.162231 396.080139,793.124634 
z"/>
<path fill="#000000" opacity="1.000000" stroke="none" 
	d="
M459.530914,749.731018 
	C461.367615,749.937134 462.712097,750.363159 462.608643,752.083679 
	C462.514191,753.653748 461.204346,754.372131 459.848969,754.527466 
	C456.385773,754.924255 452.905029,755.194214 449.424500,755.399658 
	C448.168549,755.473755 447.117035,754.863708 446.926941,753.465088 
	C446.699432,751.790771 447.738251,750.968689 449.200867,750.780334 
	C452.493866,750.356384 455.803101,750.058716 459.530914,749.731018 
z"/>
</svg>