<svg version="1.1" id="Layer_1" xmlns="http://www.w3.org/2000/svg" xmlns:xlink="http://www.w3.org/1999/xlink" x="0px" y="0px"
	 width="100%" viewBox="0 0 768 720" enable-background="new 0 0 768 720" xml:space="preserve">
<path fill="#000000" opacity="1.000000" stroke="none" 
	d="
M653.001831,477.857239 
	C646.084290,493.962097 638.056274,509.023407 628.751343,523.443176 
	C612.360229,548.844299 592.398376,571.014404 569.074097,590.174561 
	C544.458923,610.395142 517.225403,626.175598 487.381042,637.296997 
	C469.924805,643.802063 451.963715,648.483582 433.484070,651.254150 
	C416.335938,653.825012 399.159515,655.778442 381.810913,655.210754 
	C362.355133,654.574219 343.066956,652.673828 323.912354,648.728943 
	C265.651794,636.730347 216.761948,608.232849 175.844406,565.581177 
	C149.387131,538.002563 129.189621,506.273987 115.321976,470.668671 
	C107.035042,449.391876 101.643547,427.284149 98.862900,404.599060 
	C95.587791,377.880066 95.521553,351.181976 99.255882,324.459320 
	C101.772308,306.451965 105.878296,288.875214 111.714691,271.679169 
	C121.303154,243.428177 135.111206,217.394653 152.938126,193.494675 
	C181.556900,155.126389 217.553635,125.638824 260.581390,104.801331 
	C276.894226,96.901337 293.975159,91.079384 311.542053,86.375664 
	C337.627197,79.391090 364.089325,76.288345 390.964325,76.905457 
	C409.735718,77.336487 428.346008,79.463745 446.814667,83.381004 
	C468.028442,87.880501 488.418396,94.555313 507.977814,103.750290 
	C545.535950,121.406570 578.033020,145.795700 605.245789,177.235565 
	C626.688721,202.009247 643.319946,229.707962 655.240295,260.101135 
	C663.119568,280.191040 668.681152,300.961426 671.610718,322.533447 
	C673.182678,334.108276 674.023254,345.693909 674.757263,357.266571 
	C675.821960,374.053528 674.056641,390.782196 671.909668,407.491882 
	C670.570435,417.915161 668.472168,428.139862 666.096252,438.304840 
	C663.301758,450.260498 659.178101,461.852234 654.768311,473.320007 
	C654.231689,474.715485 653.684753,476.106934 653.001831,477.857239 
M124.616150,408.792969 
	C125.079796,410.560059 125.795639,412.303131 125.966400,414.098083 
	C127.124817,426.274567 130.843964,437.876160 134.731583,449.297577 
	C141.871017,470.272614 151.645081,490.033447 163.604691,508.790100 
	C180.473648,535.246338 201.552307,557.700623 226.556564,576.413879 
	C258.652557,600.434570 294.221191,616.647766 333.789917,624.539307 
	C348.233215,627.419861 362.630280,629.194397 377.185089,629.788208 
	C406.653259,630.990295 435.649506,627.206055 463.725098,618.246887 
	C491.609741,609.348633 517.520996,596.239624 541.193909,578.845520 
	C577.764954,551.974121 605.719177,518.044250 624.979370,476.968292 
	C632.472473,460.987976 638.282227,444.427582 642.404236,427.227936 
	C646.250732,411.178009 649.506897,395.043182 649.711365,378.520874 
	C649.912964,362.229156 650.023071,345.998688 647.347412,329.700653 
	C645.190063,316.559937 642.497559,303.571991 638.919739,290.859558 
	C634.885132,276.523773 628.999634,262.761566 622.344788,249.342941 
	C603.879822,212.110703 577.920776,181.131714 544.959167,156.005203 
	C513.264893,131.844757 477.805481,115.940918 438.772827,107.660614 
	C422.395081,104.186272 405.901855,102.595810 389.280975,102.309937 
	C363.030609,101.858459 337.264252,105.064583 312.006287,112.773895 
	C295.564392,117.792343 279.597382,123.787659 264.367523,131.662811 
	C233.212143,147.772858 206.396530,169.394836 183.731903,196.147110 
	C165.744385,217.378754 151.548309,240.926819 140.975800,266.663422 
	C134.017380,283.602264 128.381500,300.922394 125.522156,319.078644 
	C123.581879,331.399017 121.364532,343.651093 121.035286,356.194733 
	C120.579132,373.573212 121.732124,390.803772 124.616150,408.792969 
z"/>
<path fill="#000000" opacity="1.000000" stroke="none" 
	d="
M527.273804,450.967560 
	C531.953247,465.038940 533.699219,479.043640 533.464661,493.529724 
	C533.337769,501.369812 526.986694,508.041290 519.533813,508.043427 
	C514.868103,508.044739 510.202423,508.045929 505.536713,508.045593 
	C423.549042,508.039764 341.561340,508.034576 259.573669,508.024719 
	C255.911041,508.024261 252.248993,508.116577 248.616455,507.399872 
	C243.010040,506.293793 238.126678,501.423492 237.924545,495.721130 
	C236.787872,463.653687 244.515701,434.623077 268.632996,411.940308 
	C280.720245,400.571991 295.337158,393.724152 311.745819,390.334900 
	C322.154419,388.184937 332.535645,387.878387 343.037018,387.898346 
	C375.865356,387.960815 408.724121,387.071503 441.514008,388.203796 
	C475.857849,389.389740 503.135986,404.090057 520.108948,435.220428 
	C522.820312,440.193390 524.893921,445.424957 527.273804,450.967560 
z"/>
<path fill="#000000" opacity="1.000000" stroke="none" 
	d="
M321.605225,333.316650 
	C308.816589,313.399231 304.460297,292.165192 311.143433,269.702240 
	C319.002014,243.288528 336.077057,225.107864 362.750641,216.685364 
	C398.300598,205.460007 435.247406,221.464874 452.864288,252.760422 
	C462.190704,269.328247 465.238678,287.157532 460.925842,306.151855 
	C455.084503,331.877869 439.987427,350.017731 416.386963,360.823151 
	C398.285767,369.110718 379.436371,369.465210 360.492584,362.927429 
	C344.363464,357.361023 331.561462,347.535706 321.605225,333.316650 
z"/>
</svg>