<svg version="1.1" id="Layer_1" xmlns="http://www.w3.org/2000/svg" xmlns:xlink="http://www.w3.org/1999/xlink" x="0px" y="0px"
	 width="100%" viewBox="0 0 912 1024" enable-background="new 0 0 912 1024" xml:space="preserve">
<path fill="#000000" opacity="1.000000" stroke="none" 
	d="
M474.013611,729.315430 
	C455.329529,728.927612 437.361237,726.564636 419.559998,722.990112 
	C416.356110,722.346741 414.740814,723.034912 413.055298,725.698792 
	C394.246826,755.424377 367.021240,770.197998 332.010956,770.164734 
	C290.693085,770.125549 254.038422,739.697632 244.825958,698.190735 
	C239.700348,675.097290 243.165848,653.188232 254.858627,632.658081 
	C256.460815,629.844971 256.364227,628.107849 254.138748,625.751831 
	C242.103561,613.010986 231.161407,599.356812 221.302139,584.873779 
	C218.921097,581.376038 216.749878,580.705383 212.686417,582.041565 
	C147.036438,603.630249 77.780701,563.885742 63.276428,496.445831 
	C49.699604,433.318298 90.196129,371.591949 153.634064,358.719330 
	C215.359558,346.194183 276.662659,386.102631 289.628662,447.252106 
	C299.655884,494.541870 280.587616,541.817871 240.320770,568.714539 
	C236.085342,571.543640 236.089188,573.445435 238.839417,577.228699 
	C247.571777,589.241211 256.917938,600.731873 266.865448,611.744995 
	C267.397644,612.334229 268.088318,612.780334 269.038239,613.569885 
	C276.039307,607.199097 283.271637,601.394348 291.591339,597.046753 
	C349.094025,566.997437 418.540039,603.612976 425.933380,668.082520 
	C427.150421,678.694580 426.830780,689.431030 423.883179,699.831970 
	C422.877899,703.379272 423.990936,704.714905 427.311462,705.264954 
	C448.852356,708.832947 470.405640,711.779968 492.368744,710.073853 
	C500.667145,709.429260 508.938599,708.675781 517.201843,707.716248 
	C523.641602,706.968384 523.846130,706.804138 522.856934,700.442871 
	C517.454224,665.700317 535.670044,630.568848 566.935425,615.431885 
	C600.301025,599.278137 638.127197,606.247498 663.066162,633.117920 
	C664.400452,634.555603 665.380981,636.408020 667.659302,637.264771 
	C674.712036,632.642578 680.404602,626.279907 686.433350,620.386475 
	C703.640198,603.565918 718.771423,584.978027 732.416809,565.156738 
	C734.543945,562.066895 734.275635,560.506897 731.390381,557.856812 
	C709.256958,537.527039 700.572815,512.431824 708.558105,483.284973 
	C716.856934,452.993195 737.467041,435.110321 768.557190,429.590363 
	C775.343628,428.385437 782.148010,428.104218 788.919434,429.395752 
	C792.679199,430.112854 793.574768,427.898651 794.210632,425.086823 
	C798.686707,405.292664 802.922119,385.454346 804.765198,365.198120 
	C805.488525,357.248474 806.040466,349.282928 806.804810,341.337524 
	C807.115051,338.112396 805.808228,336.641876 802.762634,335.591309 
	C779.220459,327.470795 765.386353,306.841614 767.901306,281.837219 
	C770.046997,260.504242 784.553040,241.735107 810.358215,236.941864 
	C835.744751,232.226395 862.399414,249.859848 868.106445,275.036133 
	C874.225281,302.028931 858.957520,328.916901 833.414551,336.131897 
	C825.897095,338.255310 825.803650,338.250488 825.397522,346.134277 
	C823.902588,375.152618 818.965759,403.641876 811.999329,431.787354 
	C811.014893,435.764648 812.953735,436.718353 815.533875,438.157593 
	C840.846069,452.277008 855.745422,482.105133 852.054321,511.150421 
	C848.387573,540.004395 827.179077,564.892334 799.632324,572.640503 
	C785.489319,576.618408 771.312866,576.608948 757.307373,572.245117 
	C753.092896,570.931946 750.699829,571.558228 748.200928,575.316040 
	C729.550476,603.362305 707.356384,628.340454 681.993103,650.477356 
	C678.789246,653.273743 677.859253,655.687622 679.378174,659.912109 
	C697.155701,709.356079 666.226807,760.786438 614.279114,768.433777 
	C582.638245,773.091675 549.994995,757.626343 533.941528,730.050293 
	C531.617004,726.057312 529.237671,725.032715 524.736145,725.745300 
	C508.116058,728.376038 491.374512,729.848389 474.013611,729.315430 
M251.666779,533.167175 
	C269.884827,510.042419 276.646393,483.953918 271.705109,454.927399 
	C262.931396,403.388306 212.567413,367.708313 161.080673,376.473328 
	C107.733437,385.555084 72.091446,435.465912 81.536057,489.031891 
	C87.449417,522.570007 106.769760,546.687317 137.676682,560.711731 
	C177.264267,578.675171 223.731613,567.005981 251.666779,533.167175 
M340.352570,750.965088 
	C342.670013,750.740662 345.021088,750.694641 347.299866,750.265137 
	C383.730743,743.399536 408.024567,710.309937 407.231750,677.012512 
	C406.196777,633.545044 367.519653,599.845276 324.373474,606.152161 
	C275.743988,613.260498 247.829376,663.048340 267.384613,707.911255 
	C277.568329,731.274353 303.797943,753.559631 340.352570,750.965088 
M569.385559,740.116943 
	C581.920349,747.926453 595.329956,751.601074 610.255798,749.878113 
	C645.102844,745.855713 669.702515,714.041443 664.793396,678.945190 
	C659.984619,644.565613 626.482300,620.378967 592.503662,626.756348 
	C567.648560,631.421326 547.509338,650.739441 542.459229,674.760498 
	C537.139282,700.064636 547.064331,724.545166 569.385559,740.116943 
M791.829529,555.417969 
	C820.738464,548.395325 838.583679,520.937134 833.140991,492.110962 
	C827.524475,462.363800 800.618652,443.861969 770.852661,448.281952 
	C739.640137,452.916748 718.566406,484.613556 726.273987,515.178162 
	C732.994995,541.830444 759.476624,562.033203 791.829529,555.417969 
M840.473694,264.020599 
	C839.717957,263.369507 838.992188,262.679413 838.202148,262.073120 
	C826.128357,252.808197 809.072754,253.066833 798.111755,262.669312 
	C785.561218,273.664368 782.772217,289.696259 790.991699,303.597626 
	C798.815125,316.829102 814.842773,322.443268 829.564636,317.242828 
	C850.396362,309.884094 858.455078,281.954895 840.473694,264.020599 
z"/>
<path fill="#000000" opacity="1.000000" stroke="none" 
	d="
M121.318649,507.587158 
	C95.052277,465.441589 121.487610,413.391541 167.138519,407.346344 
	C195.226669,403.626892 217.790115,414.108826 232.547165,438.321869 
	C246.860153,461.806366 246.037537,486.098389 230.725815,508.912567 
	C204.506866,547.978333 147.936569,547.224365 121.318649,507.587158 
M164.244980,517.283142 
	C169.936478,518.871887 175.778778,519.226562 181.572327,518.524780 
	C208.475174,515.265991 226.879898,490.614197 222.564224,463.846008 
	C218.412521,438.094910 192.171631,420.984131 165.672379,426.748810 
	C145.646042,431.105377 130.246185,449.382843 129.393875,469.806396 
	C128.476593,491.787567 142.066513,510.610626 164.244980,517.283142 
z"/>
<path fill="#000000" opacity="1.000000" stroke="none" 
	d="
M298.240112,713.748718 
	C289.759735,704.674133 284.986816,694.289734 283.889038,682.249084 
	C283.813568,681.421143 283.767242,680.588928 283.747894,679.757751 
	C283.569946,672.103027 286.941345,667.593689 293.004944,667.361938 
	C298.846893,667.138672 302.713135,671.655457 303.079071,679.131226 
	C303.916107,696.231262 314.920380,707.894226 331.996643,709.779846 
	C339.455627,710.603516 343.375183,714.812195 342.451721,721.006165 
	C341.616364,726.609497 336.509949,729.393494 329.444458,728.603394 
	C317.418182,727.258423 307.074646,722.543823 298.240112,713.748718 
z"/>
<path fill="#000000" opacity="1.000000" stroke="none" 
	d="
M600.741760,714.052734 
	C604.893799,714.607239 608.349243,715.594360 610.322083,719.268311 
	C613.848572,725.835571 609.441833,733.112122 601.780823,733.340576 
	C581.964233,733.931396 560.953369,715.642273 558.668335,695.820618 
	C558.458923,694.003845 558.187561,692.194336 557.965576,690.378967 
	C557.073303,683.081055 560.700439,677.770508 566.947144,677.216309 
	C572.572144,676.717224 576.940613,681.626221 577.248291,688.792297 
	C577.831665,702.376770 586.921082,712.305786 600.741760,714.052734 
z"/>
<path fill="#000000" opacity="1.000000" stroke="none" 
	d="
M742.173767,520.624756 
	C739.697937,515.073914 738.123840,509.653198 737.819763,503.953918 
	C737.441772,496.872192 740.943359,492.163269 746.697388,491.691559 
	C752.348938,491.228241 756.292358,494.838318 756.876587,502.066040 
	C757.428223,508.890015 759.624817,514.678589 764.790466,519.210205 
	C768.672913,522.616089 773.278992,524.255005 778.397522,524.773560 
	C784.369507,525.378479 788.138672,529.573242 787.791626,534.935364 
	C787.453613,540.158142 783.549011,543.536133 777.496033,543.374817 
	C761.336304,542.944214 749.985962,534.827393 742.173767,520.624756 
z"/>
</svg>