<svg version="1.1" id="Layer_1" xmlns="http://www.w3.org/2000/svg" xmlns:xlink="http://www.w3.org/1999/xlink" x="0px" y="0px"
	 width="100%" viewBox="0 0 768 576" enable-background="new 0 0 768 576" xml:space="preserve">
<path fill="#000000" opacity="1.000000" stroke="none" 
	d="
M200.685562,349.693787 
	C225.312454,322.555115 249.694351,295.673279 274.367157,268.470703 
	C279.125031,272.579681 282.332428,277.247345 285.882874,281.550568 
	C324.160400,327.943665 362.363098,374.398529 400.585938,420.836761 
	C405.008728,426.210083 404.992462,426.189209 410.679932,422.109039 
	C438.297089,402.296448 465.986176,382.582916 493.477722,362.597595 
	C497.557831,359.631531 499.787811,359.790222 503.207001,363.570496 
	C529.583130,392.731812 556.185669,421.688324 582.726379,450.700684 
	C583.385376,451.421082 584.140625,452.053406 585.144592,453.005127 
	C586.280273,450.846771 585.826111,448.839752 585.828064,446.957611 
	C585.861267,414.960968 585.840576,382.964325 585.864075,350.967651 
	C585.865662,348.812927 585.867737,346.603973 586.310425,344.513580 
	C587.863525,337.180603 594.021973,332.535828 601.125305,333.122559 
	C608.567871,333.737244 614.091675,339.378204 614.231445,347.007538 
	C614.414551,357.003174 614.284790,367.004639 614.284607,377.003571 
	C614.283997,414.499664 614.386108,451.996185 614.240479,489.491730 
	C614.151550,512.379456 598.650208,532.137024 576.959778,537.552124 
	C572.573853,538.647095 568.099731,538.982483 563.582886,538.982117 
	C418.597931,538.969543 273.613007,538.976929 128.628052,538.961914 
	C99.454300,538.958862 77.794205,517.389954 77.779465,488.076965 
	C77.722557,374.922089 77.716965,261.767120 77.820351,148.612305 
	C77.832054,135.808472 76.719612,122.951317 78.676826,110.193909 
	C82.412506,85.844162 102.224266,68.728706 126.847137,68.717522 
	C223.003799,68.673859 319.160492,68.685303 415.317169,68.699707 
	C427.266388,68.701492 434.428833,77.019753 431.242035,87.085663 
	C429.309723,93.189262 424.830933,96.213013 418.714539,97.013847 
	C416.744995,97.271729 414.721893,97.151924 412.723297,97.152000 
	C318.399780,97.155792 224.076248,97.153374 129.752716,97.152763 
	C114.154335,97.152657 106.219795,105.042793 106.215714,120.838432 
	C106.187531,229.993729 106.199890,339.149017 106.208260,448.304321 
	C106.208359,449.588318 106.327950,450.872345 106.454483,453.418365 
	C138.268661,418.394684 169.354614,384.172668 200.685562,349.693787 
M481.240540,399.764526 
	C478.810822,401.520599 476.383942,403.280640 473.950897,405.032074 
	C450.962708,421.580231 427.946594,438.089813 405.018860,454.721283 
	C402.169861,456.787903 400.109253,457.122375 398.071106,453.911438 
	C397.274567,452.656616 396.154999,451.608978 395.201599,450.451294 
	C357.384338,404.530670 319.586060,358.594330 281.715515,312.717712 
	C279.226593,309.702637 277.141663,306.224976 273.589569,303.845459 
	C271.596497,305.950714 269.736755,307.844208 267.954620,309.808136 
	C239.182114,341.515381 210.431625,373.242615 181.650894,404.942413 
	C157.461456,431.585297 133.265915,458.222748 108.990639,484.787292 
	C106.584023,487.420868 105.932053,490.058472 106.725487,493.439789 
	C109.340012,504.582031 116.913986,510.646515 128.658340,510.649689 
	C186.988907,510.665344 245.319458,510.647827 303.650024,510.646942 
	C389.979279,510.645630 476.308502,510.639496 562.637756,510.671448 
	C567.931274,510.673401 572.919006,509.896637 577.274719,506.631256 
	C586.601013,499.639587 587.561218,489.782196 579.856812,481.391449 
	C560.133911,459.911743 540.475464,438.372864 520.768066,416.878937 
	C512.464172,407.822296 504.101807,398.819153 495.599670,389.611542 
	C490.779266,393.018250 486.302551,396.182098 481.240540,399.764526 
z"/>
<path fill="#000000" opacity="1.000000" stroke="none" 
	d="
M403.798126,189.041382 
	C413.283752,186.055313 422.732025,183.507385 432.117676,180.746552 
	C436.423553,179.479965 440.628479,177.854660 444.841461,176.290359 
	C471.780670,166.287750 484.535614,144.744736 491.638275,118.639244 
	C493.893433,110.350403 496.055206,102.036163 498.370972,93.314636 
	C500.969818,95.409416 500.653046,98.144341 501.199188,100.391487 
	C503.992218,111.883232 507.215942,123.219612 511.392365,134.305695 
	C519.580933,156.041626 534.970703,170.098373 556.627197,177.811020 
	C567.790222,181.786545 579.218872,184.762878 590.705200,187.574203 
	C591.917053,187.870804 593.466797,187.498779 594.318054,189.740753 
	C589.688904,190.929871 585.145203,192.110809 580.594177,193.263351 
	C569.927002,195.964828 559.469788,199.266998 549.306641,203.538239 
	C526.092773,213.294220 514.158264,232.166473 507.404510,255.191864 
	C504.829926,263.969299 502.660614,272.865692 500.314941,281.710052 
	C500.068054,282.640991 500.189667,283.745117 498.611694,284.396973 
	C497.230194,282.808899 497.213440,280.629578 496.734619,278.688629 
	C493.742645,266.559998 490.534973,254.513138 485.952850,242.848923 
	C478.333313,223.452698 464.848175,210.089127 445.553070,202.336700 
	C433.921967,197.663513 421.885406,194.420944 409.761017,191.414490 
	C407.701782,190.903854 405.480530,190.848679 403.798126,189.041382 
z"/>
<path fill="#000000" opacity="1.000000" stroke="none" 
	d="
M224.991821,246.998367 
	C208.400970,262.480011 189.336868,266.887360 168.392380,259.661469 
	C147.545364,252.469177 135.542038,236.967178 131.999069,215.319626 
	C127.342033,186.865097 148.064621,158.439850 176.458664,153.739090 
	C206.621765,148.745422 234.838181,167.692581 240.295212,196.809662 
	C243.887711,215.978149 238.972351,232.727432 224.991821,246.998367 
M183.216522,175.948975 
	C181.900787,176.146713 180.567123,176.264313 179.272064,176.554321 
	C162.929184,180.214020 151.785919,196.853546 154.820663,213.031265 
	C158.184448,230.963120 174.406784,242.489395 192.153061,239.556671 
	C208.255630,236.895599 220.531540,220.477371 218.558456,204.241180 
	C216.477051,187.113647 201.021301,174.384338 183.216522,175.948975 
z"/>
<path fill="#000000" opacity="1.000000" stroke="none" 
	d="
M622.051819,49.075317 
	C625.982483,39.734455 628.122864,30.207361 631.176819,20.805647 
	C636.463379,36.965755 639.002502,54.173489 651.651245,66.683517 
	C664.148804,79.044075 681.162537,81.615784 697.783081,86.353752 
	C695.156067,88.740608 692.489746,88.510361 690.197815,89.139450 
	C680.561768,91.784454 670.930847,94.364235 662.015808,99.079437 
	C650.966187,104.923698 644.143311,114.193283 639.810059,125.648285 
	C636.520081,134.345413 634.338989,143.374863 631.977295,152.330627 
	C629.722351,151.937531 630.013733,150.362442 629.732544,149.175232 
	C627.620850,140.258850 625.099304,131.473038 621.653564,122.965790 
	C616.122253,109.309715 606.125671,100.393784 592.466003,95.337914 
	C584.650391,92.445091 576.653198,90.166145 568.531677,88.319466 
	C567.272400,88.033119 565.880676,88.116516 564.701843,86.270950 
	C567.970032,85.402420 570.907776,84.568954 573.872192,83.844482 
	C580.835510,82.142700 587.673462,80.050453 594.313843,77.346138 
	C607.488831,71.980545 616.838562,62.816608 622.051819,49.075317 
z"/>
<path fill="#000000" opacity="1.000000" stroke="none" 
	d="
M624.008240,246.023346 
	C616.469666,243.846115 609.300537,241.800323 602.150574,239.760025 
	C602.070496,237.876968 603.495117,238.027710 604.525757,237.779877 
	C612.457764,235.872299 620.303589,233.723328 627.990356,230.926712 
	C644.879395,224.782120 653.973328,211.988510 658.807068,195.456512 
	C660.616394,189.268753 662.297424,183.043488 664.583130,176.742386 
	C669.702759,191.954865 672.062317,208.383820 684.072388,220.199936 
	C695.948914,231.884720 712.106018,234.394135 727.296082,239.756424 
	C722.746460,240.975830 718.194519,242.186646 713.647766,243.416809 
	C707.368347,245.115784 701.258728,247.260727 695.374207,250.070297 
	C683.295776,255.837051 676.403076,265.854156 672.054993,278.057159 
	C669.332886,285.696716 667.355347,293.556000 665.206787,302.002045 
	C663.156860,300.393799 663.160217,298.531250 662.782898,296.918884 
	C661.225952,290.266022 659.205078,283.759735 657.007019,277.291168 
	C651.539307,261.200317 640.313599,251.231125 624.008240,246.023346 
z"/>
</svg>