<svg version="1.1" id="Layer_1" xmlns="http://www.w3.org/2000/svg" xmlns:xlink="http://www.w3.org/1999/xlink" x="0px" y="0px"
	 width="100%" viewBox="0 0 1044 1158" enable-background="new 0 0 1044 1158" xml:space="preserve">
<path fill="#FEFEFE" opacity="1.000000" stroke="none" 
	d="
M593.000000,1159.000000 
	C396.855469,1159.000000 201.210968,1158.988892 5.566485,1159.086182 
	C1.940247,1159.088013 0.895617,1158.469727 0.896744,1154.567505 
	C1.007388,771.610840 1.008944,388.654175 0.882961,5.697554 
	C0.881591,1.532968 1.856136,0.895455 5.801443,0.896732 
	C350.595703,1.008308 695.390015,1.008084 1040.184326,0.898762 
	C1044.099854,0.897520 1045.120117,1.488243 1045.118652,5.683279 
	C1044.990723,388.473236 1044.990234,771.263245 1045.122192,1154.053223 
	C1045.123657,1158.425293 1044.038452,1159.104980 1039.947754,1159.101685 
	C891.131897,1158.980713 742.315979,1159.000000 593.000000,1159.000000 
z"/>
<path fill="#C1755D" opacity="1.000000" stroke="none" 
	d="
M509.797546,655.604614 
	C511.712372,614.282898 509.443604,573.554138 506.305756,532.841614 
	C503.401062,495.154388 500.759949,457.446869 497.886505,419.757172 
	C495.430450,387.542419 492.307739,355.369415 492.968933,322.993073 
	C493.191010,312.118530 495.463745,301.512329 496.785492,290.783905 
	C497.253571,286.984711 496.784882,284.581696 493.095306,282.198486 
	C483.879761,276.245850 480.266571,266.641113 479.088654,256.259735 
	C476.485260,233.314545 481.454620,211.223755 487.617065,189.369553 
	C490.705109,178.418381 495.529419,168.174622 501.949982,158.740738 
	C516.821960,136.889023 537.913879,125.743233 563.824524,123.070389 
	C567.184753,122.723763 570.300842,122.027252 573.424316,120.686676 
	C602.028259,108.409874 628.517334,113.886147 653.179077,131.068939 
	C672.791321,144.733551 686.201660,163.473801 693.922424,185.934921 
	C704.662231,217.178818 717.929810,247.269669 733.115845,276.562714 
	C734.425293,279.088654 735.933228,281.398773 737.802368,283.572937 
	C752.489868,300.657471 754.056152,322.971527 741.806030,339.150604 
	C739.476135,342.227844 736.793701,344.993469 733.565002,347.090363 
	C731.266296,348.583252 730.653076,350.236877 731.247192,352.933197 
	C740.458801,394.737885 746.751648,437.031281 751.641174,479.521240 
	C756.134827,518.570984 759.098022,557.744629 760.187439,597.071350 
	C761.646790,649.754639 759.241028,702.341736 757.125671,754.940308 
	C755.920837,784.897644 754.432678,814.845154 752.842773,844.784912 
	C751.844971,863.574646 750.498657,882.347412 749.135620,901.115173 
	C748.788757,905.891846 749.219727,910.037231 752.112976,914.251770 
	C761.915466,928.530151 762.020386,944.598999 759.555786,960.906555 
	C754.711121,992.963745 734.620850,1012.528809 706.286438,1025.056152 
	C684.424622,1034.721558 661.346252,1039.474121 637.573242,1040.865234 
	C599.678711,1043.082520 562.039185,1039.916748 524.461487,1035.305420 
	C497.193573,1031.959229 470.146576,1027.367798 443.165405,1022.237183 
	C434.454926,1020.580872 425.618378,1023.236938 416.799133,1023.421753 
	C385.112427,1024.085449 354.917450,1018.843689 328.708344,999.834229 
	C295.076355,975.440979 282.102600,935.991272 293.231018,895.207275 
	C304.371033,854.380859 331.116180,828.197998 369.726288,812.976929 
	C394.755463,803.109863 420.848053,798.656555 447.588379,796.842529 
	C462.278992,795.845886 476.884888,797.138123 491.530609,797.075317 
	C495.574554,797.057983 497.371307,796.265503 497.793793,791.879456 
	C499.692810,772.164551 502.032654,752.492554 504.012543,732.784851 
	C506.576355,707.265137 508.247009,681.673889 509.797546,655.604614 
z"/>
<path fill="#F3C7B5" opacity="1.000000" stroke="none" 
	d="
M686.339478,866.744019 
	C681.957336,866.788086 679.795410,863.398071 676.966492,861.249146 
	C636.944458,830.847900 592.277039,810.871460 542.964172,801.310730 
	C535.804749,799.922607 528.534790,799.067505 521.289612,798.182068 
	C519.190308,797.925537 518.543701,797.508240 518.811279,795.207947 
	C520.441284,781.198303 521.934631,767.171936 523.360596,753.139648 
	C524.652222,740.428284 525.933411,727.713257 526.977966,714.980042 
	C528.362549,698.103882 530.004028,681.227234 530.645386,664.317078 
	C531.552490,640.397461 533.171631,616.468018 531.211853,592.499939 
	C530.169678,579.754822 529.731323,566.960327 529.026855,554.187744 
	C528.020752,535.946899 526.802063,517.724121 525.200989,499.521759 
	C523.891418,484.634247 523.134949,469.698944 521.969299,454.797668 
	C520.454590,435.434479 518.727295,416.087982 517.190674,396.726410 
	C516.375977,386.460663 515.628845,376.185425 515.111389,365.901367 
	C514.584900,355.440460 514.525696,344.955902 513.993713,334.495361 
	C513.337952,321.600281 516.409119,309.061157 517.231323,296.328613 
	C517.724121,288.698059 519.883118,283.042633 526.966797,279.052765 
	C531.462585,276.520538 533.655640,271.348724 535.704102,266.197754 
	C539.850281,267.714905 538.314209,271.068939 537.775513,273.590881 
	C535.891052,282.412598 532.797668,290.868317 528.888672,299.010040 
	C527.302124,302.314453 525.477112,305.507660 524.065002,308.891205 
	C521.886597,314.110962 523.161072,318.717438 527.323975,321.135620 
	C531.774536,323.720886 536.675293,322.615143 540.032898,317.994171 
	C543.181763,313.660522 545.265381,308.717987 547.482361,303.869934 
	C548.174622,302.356171 548.719482,300.774048 549.498230,299.297974 
	C551.957581,294.636597 553.431763,294.417542 556.510925,298.506226 
	C573.938110,321.646973 595.509399,339.857300 621.243896,353.153961 
	C636.310120,360.938416 652.298767,366.026031 668.828796,369.553406 
	C671.100464,370.038177 673.462585,370.272064 675.580627,372.189209 
	C679.401245,383.520813 679.889404,395.094147 681.924316,406.380463 
	C684.108032,418.491577 685.699951,430.721741 686.898010,443.386292 
	C686.889709,444.820221 686.671997,445.924072 685.851074,446.496460 
	C680.592957,450.162537 680.054138,455.832367 679.160767,461.461151 
	C677.740967,470.406464 674.928101,478.947998 670.784302,487.000946 
	C668.546448,491.349976 666.654846,491.658325 663.116150,488.281494 
	C653.941711,479.526642 643.586304,472.192017 634.043518,463.878906 
	C620.964966,452.485687 608.823120,440.175812 597.362854,427.177612 
	C587.554688,416.053284 578.242493,404.538269 569.680786,392.412811 
	C566.063538,387.289825 561.152161,386.146790 556.731934,388.942108 
	C551.925781,391.981506 550.696472,397.459412 554.310303,402.959900 
	C559.797729,411.312103 565.948975,419.216522 572.339172,426.901550 
	C583.307434,440.092316 594.674377,452.933838 607.073669,464.817383 
	C617.059204,474.387604 627.737366,483.154022 638.467102,491.868011 
	C643.241638,495.745605 647.976318,499.707153 652.304504,504.097412 
	C656.260925,508.110535 656.096191,508.782074 652.204712,513.078918 
	C646.554382,519.317993 639.392822,523.693237 632.997253,529.009033 
	C616.926880,542.366150 604.622498,558.436584 597.281494,578.131165 
	C595.990845,581.593628 595.071960,585.115845 595.250977,588.854736 
	C595.468994,593.408325 597.658386,596.419128 601.512756,597.434143 
	C605.804077,598.564270 609.458313,597.159668 611.912170,593.444214 
	C612.561157,592.461609 613.041199,591.400879 613.353516,590.271545 
	C619.152954,569.301025 632.066895,553.388245 648.929138,540.304016 
	C654.456238,536.015259 660.119995,531.899963 664.979858,526.818237 
	C667.430542,524.255676 669.922852,523.460266 672.511963,526.695801 
	C682.450500,539.115723 690.678528,552.579529 697.205017,567.083191 
	C697.548706,567.846863 697.625916,568.690491 697.556152,569.934143 
	C697.729675,580.119995 697.488037,589.890137 698.202881,599.695068 
	C698.899048,609.243164 698.854492,618.918396 697.807617,628.509277 
	C697.282837,633.316528 697.602112,638.134644 697.546387,643.355591 
	C697.874634,646.061340 696.563477,647.533630 694.950562,648.820923 
	C675.417175,664.410706 655.742981,679.789917 633.120972,690.840698 
	C621.161072,696.683105 621.144958,696.733765 613.844910,685.488281 
	C609.673035,679.061707 606.086060,672.290771 602.324097,665.620850 
	C598.238220,658.376648 590.529846,657.435913 586.070374,663.493225 
	C583.370178,667.160889 583.818176,671.086426 585.846069,674.805237 
	C589.270325,681.084595 592.667480,687.389221 596.612244,693.367737 
	C597.529724,694.758179 598.483459,696.123474 599.269470,697.591919 
	C601.366394,701.509827 601.065369,702.600403 596.968445,704.505920 
	C587.145020,709.074890 577.622375,714.208862 568.348083,719.788940 
	C560.495972,724.513184 552.919678,729.681213 545.891052,735.570923 
	C540.564087,740.034668 540.076477,745.564636 544.282593,749.863098 
	C547.881653,753.541199 552.571655,753.679504 557.795105,749.744751 
	C565.520020,743.925659 573.524231,738.543274 581.809570,733.577148 
	C589.961243,728.691101 598.623108,724.775208 607.171387,720.665588 
	C612.995117,717.865845 614.580322,718.539917 618.803406,723.223083 
	C630.072083,735.719421 642.905029,745.508240 660.191223,748.362427 
	C670.709900,750.099243 679.942139,755.227722 688.454956,761.570251 
	C690.472778,763.073547 692.298645,764.781311 693.121948,767.724304 
	C691.922180,777.890625 693.360535,787.854187 690.944458,797.942383 
	C688.648865,800.960938 686.433838,799.238525 684.603516,798.113220 
	C672.895630,790.916138 660.386230,785.480896 647.387817,781.188843 
	C632.655640,776.324158 617.583679,772.774231 602.235046,770.449890 
	C600.918091,770.250488 599.573425,770.314941 598.241028,770.345398 
	C592.222900,770.482910 588.854248,773.153748 588.446655,778.094788 
	C588.010864,783.379089 591.386597,787.720703 597.147461,788.370300 
	C602.640381,788.989746 607.963623,790.321716 613.342407,791.407166 
	C632.039429,795.180237 650.084412,800.937012 667.135315,809.600586 
	C672.802490,812.480103 678.034607,816.060974 683.006958,819.977905 
	C685.714355,822.110535 688.596191,824.273621 689.584961,828.337402 
	C689.690125,838.912292 688.238831,848.993469 688.245422,859.146301 
	C688.247070,861.598694 687.760498,864.117371 686.339478,866.744019 
z"/>
<path fill="#FCC5AB" opacity="1.000000" stroke="none" 
	d="
M315.351379,948.285278 
	C308.510223,929.969971 310.049286,912.113586 315.841705,894.261230 
	C326.191498,862.362915 349.307587,843.557129 379.498260,832.024780 
	C399.181366,824.506287 419.637604,820.652649 440.606323,818.785583 
	C456.096863,817.406311 471.550262,818.300598 487.482635,818.161865 
	C494.773834,819.509766 501.704193,820.032715 508.536530,821.505371 
	C549.023560,830.232056 585.275879,847.664001 617.377136,873.770752 
	C620.804810,876.558350 624.356079,878.449707 628.874939,879.193604 
	C641.665100,881.298950 651.874939,888.468384 661.308350,896.897766 
	C662.549622,898.006897 663.603455,899.328491 664.874878,900.395020 
	C686.601318,918.619995 679.830750,954.068970 664.846924,968.702087 
	C657.452881,975.922974 649.149292,981.592957 639.615723,985.398438 
	C624.046387,991.613159 607.896851,995.217529 591.127808,996.481628 
	C566.632568,998.328125 542.302368,996.924133 517.894104,994.721741 
	C491.832153,992.369934 466.034912,988.414978 440.261444,984.126770 
	C437.139069,983.607300 434.053894,982.903076 430.967621,982.197327 
	C422.822449,980.334717 414.760284,980.034973 406.287537,980.807251 
	C380.971130,983.114929 356.331970,980.427979 334.121094,966.514954 
	C326.718262,961.877808 320.405701,955.994995 315.351379,948.285278 
z"/>
<path fill="#EAB39B" opacity="1.000000" stroke="none" 
	d="
M689.713318,799.386353 
	C690.591736,788.643738 691.291199,778.206299 691.990295,767.327393 
	C694.811340,766.528442 695.975403,768.921021 697.638611,770.389038 
	C702.057556,774.289307 708.201355,774.937927 711.624268,771.732544 
	C715.478333,768.123413 715.483154,762.960815 711.800537,757.807617 
	C707.854858,752.286133 702.434692,748.447571 697.056030,744.542358 
	C695.059387,743.092712 692.704651,741.998108 691.808350,738.954590 
	C692.044617,724.638733 692.194092,710.711548 692.948364,696.821716 
	C693.299561,690.354248 693.159973,683.890686 693.598267,677.025146 
	C693.951477,673.898926 695.706360,672.190979 697.727722,670.621094 
	C703.900208,665.827209 709.924805,660.846619 715.806152,655.704407 
	C722.147217,650.160156 720.916931,641.310913 713.575256,638.855591 
	C710.525024,637.835449 707.708496,638.210266 705.125305,640.266418 
	C702.801025,642.116394 700.718079,644.348816 697.383179,645.136414 
	C694.833008,639.432739 696.002747,633.620117 696.278809,627.937622 
	C696.796814,617.275940 697.166870,606.670105 696.296387,595.983704 
	C695.584778,587.248108 695.638733,578.425903 696.648254,569.352783 
	C698.739441,569.973145 699.375671,571.749329 699.978027,573.453674 
	C703.086304,582.248962 705.983704,591.101379 706.387207,600.541016 
	C706.465759,602.377625 706.859131,604.172607 707.276978,605.952759 
	C708.533020,611.302917 711.685059,613.837524 716.729248,613.616516 
	C721.054321,613.426941 724.594055,610.172974 725.374695,605.369690 
	C726.192444,600.337402 724.910461,595.414001 723.998169,590.541199 
	C719.921936,568.769714 710.528992,549.229736 698.621399,530.750916 
	C696.037048,526.740540 692.464905,523.229492 691.674683,517.789368 
	C691.426636,510.015320 690.256226,502.735229 689.638428,494.990234 
	C690.138184,487.319733 693.937805,480.997711 695.474548,474.018677 
	C696.259644,470.453094 697.316406,466.952332 697.886597,463.325256 
	C699.789368,451.220490 698.075134,448.493195 686.274963,445.366516 
	C684.372009,434.018158 682.816528,422.939941 681.132141,411.881348 
	C679.149475,398.863922 677.054932,385.863525 675.014893,372.440063 
	C675.324646,371.619904 675.688171,371.227600 676.165222,371.105133 
	C683.263672,369.282410 686.184692,364.600189 685.801147,357.202271 
	C692.878174,356.947449 699.718506,357.151733 706.539734,356.878265 
	C709.685669,356.752167 710.883118,357.753418 711.485718,360.779053 
	C714.555298,376.190704 717.673157,391.588989 720.026489,407.133698 
	C722.155640,421.197754 724.574280,435.219788 726.557251,449.303741 
	C728.264221,461.428162 729.591675,473.607483 730.985596,485.774139 
	C732.323181,497.449402 733.645813,509.128632 734.758606,520.826660 
	C735.669434,530.401917 736.422729,539.998413 736.962891,549.601379 
	C738.204773,571.680542 738.651001,593.789001 739.346924,615.888733 
	C740.075867,639.036255 738.781250,662.118530 738.697266,685.228699 
	C738.630310,703.650452 737.613342,722.109253 736.877380,740.542969 
	C735.962952,763.447937 734.809143,786.345215 733.829346,809.249817 
	C733.326050,821.015686 732.699219,832.803101 731.818176,844.542603 
	C730.752625,858.740234 730.724426,873.021179 728.570557,887.840393 
	C715.773376,878.240417 702.159729,870.854858 686.364258,867.231384 
	C686.818298,854.252319 687.609741,841.429321 688.692871,828.312744 
	C691.557983,827.834229 692.048462,830.184631 693.220642,831.611389 
	C697.364868,836.655396 701.609375,837.781128 706.212952,834.903503 
	C711.043396,831.883972 712.018250,827.307617 708.810486,821.432861 
	C705.160217,814.747559 699.751160,809.575317 693.970947,804.741516 
	C692.250671,803.302795 689.792786,802.440430 689.713318,799.386353 
z"/>
<path fill="#F3B5AA" opacity="1.000000" stroke="none" 
	d="
M635.184814,144.744522 
	C654.407593,156.849945 667.272278,173.580719 674.331482,194.651642 
	C685.516785,228.038544 700.278442,259.836517 716.570618,290.961823 
	C718.307190,294.279541 721.299622,296.919617 723.537720,299.998901 
	C731.382996,310.792999 731.278931,328.884583 711.869019,334.124451 
	C697.763306,337.932434 684.180664,335.179382 670.620239,331.730347 
	C649.547058,326.370483 631.443054,315.692596 615.349854,301.123016 
	C593.191223,281.062134 576.913330,256.761353 563.004944,230.631683 
	C556.978455,219.309662 552.105164,207.482697 547.338196,195.600891 
	C544.781921,189.229401 541.057922,187.060654 534.566895,187.981186 
	C530.072937,188.618484 526.802979,193.044571 526.002747,198.896454 
	C523.351562,218.282791 520.449280,237.631485 515.884155,256.682800 
	C515.387390,258.755676 514.820068,260.815674 513.216797,262.491058 
	C509.221252,266.666382 504.981812,266.208923 502.455780,261.029724 
	C498.538879,252.998825 499.486084,244.320740 500.218597,235.974396 
	C501.436646,222.095551 503.779449,208.292725 508.220612,195.031006 
	C514.557617,176.108322 523.889893,159.330170 543.110962,150.409866 
	C551.656128,146.444199 560.702759,144.436325 570.082764,144.033463 
	C572.965576,143.909653 575.730042,143.564713 578.274475,142.217896 
	C597.602417,131.987106 616.399170,134.378815 635.184814,144.744522 
z"/>
<path fill="#EDB195" opacity="1.000000" stroke="none" 
	d="
M315.085785,948.342224 
	C318.285889,951.041809 321.545410,954.052002 324.665710,957.200073 
	C336.510803,969.150696 351.582855,974.446106 367.486938,977.969482 
	C378.442383,980.396545 389.593292,980.024414 400.720276,980.067505 
	C403.928284,980.079956 407.013367,979.551270 410.084015,978.956543 
	C419.723297,977.089661 428.705200,980.627258 437.893158,982.217407 
	C454.178497,985.036072 470.447540,987.972351 486.855438,989.948181 
	C505.252136,992.163513 523.674927,994.028809 542.191162,995.252808 
	C555.684570,996.144714 569.163208,996.374878 582.569153,995.796509 
	C604.528992,994.849182 626.132812,991.127930 645.978210,980.930908 
	C661.610779,972.898560 673.206482,961.136780 676.356812,943.113159 
	C679.016663,927.895508 677.036255,913.837646 665.015137,902.358948 
	C656.143433,893.887512 646.873779,886.295654 635.202820,882.039062 
	C633.617065,881.460693 632.078857,880.877319 630.393311,880.917236 
	C621.660706,881.124084 616.611633,874.596008 610.574158,869.987000 
	C582.079651,848.234192 550.373657,833.130371 515.649841,824.505127 
	C507.185883,822.402710 498.646576,820.075256 489.780182,819.899780 
	C489.241882,819.889099 488.715759,819.264099 488.065002,818.562866 
	C517.764526,817.470886 546.761414,822.119629 575.058350,831.434326 
	C607.403931,842.081848 637.150818,857.677307 664.318970,878.195679 
	C665.642822,879.195435 666.738037,880.503357 668.081970,881.470093 
	C672.257385,884.473633 676.020935,887.216248 681.696655,888.506653 
	C706.227173,894.083191 724.935364,908.263428 736.825073,930.706604 
	C741.025452,938.635193 739.260559,947.439636 738.705566,955.784241 
	C737.964539,966.926514 733.752502,976.932007 726.358582,985.634644 
	C719.509827,993.695557 711.027344,999.446228 701.697205,1003.853516 
	C683.082764,1012.646179 663.391113,1017.400085 642.824402,1019.133789 
	C623.183350,1020.789490 603.507019,1020.644104 583.942627,1019.697449 
	C559.663086,1018.522644 535.455383,1015.769958 511.341187,1012.246826 
	C488.087372,1008.849426 464.942139,1005.008118 441.909943,1000.356140 
	C438.180542,999.602844 434.040680,1000.842102 430.094818,1001.206787 
	C402.554413,1003.752136 375.560791,1002.325928 350.631653,988.758728 
	C334.077301,979.749329 321.490509,966.892700 315.085785,948.342224 
z"/>
<path fill="#F4D8D5" opacity="1.000000" stroke="none" 
	d="
M685.684204,356.770996 
	C688.113770,365.556854 684.635864,370.666290 675.409180,372.009277 
	C646.447144,367.180481 620.122803,356.703827 596.640015,339.698273 
	C580.724487,328.172638 566.481689,314.756500 555.120667,298.562225 
	C553.132446,295.728119 552.197021,296.194641 550.961060,298.990753 
	C548.075745,305.517975 545.499634,312.205231 541.487427,318.178162 
	C537.476624,324.148956 532.431702,325.530396 526.578003,322.263519 
	C521.525513,319.443817 520.048157,313.729919 523.222534,307.624023 
	C528.759216,296.974243 533.498352,286.044800 536.397766,274.355194 
	C537.053528,271.711121 537.296326,269.152710 536.273560,266.251465 
	C536.149353,264.529022 535.763977,262.971100 536.991333,261.368652 
	C540.990723,254.448257 544.035522,252.938583 550.829407,254.675476 
	C556.086304,262.184540 560.918152,269.527008 565.915100,276.755310 
	C583.055420,301.549316 603.519287,322.935486 629.846375,338.132324 
	C646.157410,347.547516 663.818176,353.189087 682.406128,356.012817 
	C683.385681,356.161591 684.350891,356.404419 685.684204,356.770996 
z"/>
<path fill="#F3C7B5" opacity="1.000000" stroke="none" 
	d="
M551.109009,254.545166 
	C545.488403,254.140167 541.099121,256.279999 537.502930,260.974365 
	C536.810669,258.413239 538.085510,256.106232 538.847290,253.330780 
	C541.260315,250.709320 543.119385,247.972015 546.710083,246.896637 
	C548.383972,249.328018 549.711609,251.761963 551.109009,254.545166 
z"/>
<path fill="#EFC2B0" opacity="1.000000" stroke="none" 
	d="
M547.000916,246.543854 
	C544.474915,248.742508 542.683960,251.552689 539.372803,252.965485 
	C539.796082,248.152832 540.560974,243.303589 541.432495,237.778305 
	C544.899719,240.111511 545.396790,243.510345 547.000916,246.543854 
z"/>
<path fill="#F5D9D5" opacity="1.000000" stroke="none" 
	d="
M692.670227,517.816284 
	C692.781982,520.860962 694.782471,522.624939 696.151672,524.638916 
	C708.946533,543.459167 719.326904,563.386658 724.390808,585.770020 
	C725.706665,591.586548 726.904053,597.448303 726.917114,603.431641 
	C726.930664,609.612488 723.014709,614.589294 718.159729,615.019775 
	C710.809875,615.671448 706.892761,612.909180 705.940430,605.312866 
	C704.406982,593.081299 702.019348,581.125427 696.995422,569.418457 
	C690.119629,554.198303 681.720886,540.299866 671.660950,527.412048 
	C670.535034,525.969666 669.327820,524.073425 667.335266,526.238220 
	C658.629028,535.696899 647.276367,542.056458 638.286377,551.185364 
	C627.150452,562.493408 618.574463,575.271729 614.519836,590.842285 
	C612.889343,597.103516 607.987244,600.003357 601.696899,598.957520 
	C596.864136,598.154053 593.920898,593.942688 593.990784,587.810242 
	C594.087158,579.349121 598.087402,572.094849 601.791931,564.947205 
	C611.711548,545.807617 626.597473,531.069519 644.174011,518.877014 
	C645.527954,517.937805 646.721191,516.744446 647.899963,515.579041 
	C655.912231,507.657715 655.796936,507.781250 647.145447,500.695953 
	C628.527161,485.448181 609.644531,470.468811 593.273438,452.712524 
	C579.219421,437.469452 565.735962,421.727844 553.880554,404.681519 
	C548.371643,396.760498 550.856018,388.622498 559.218811,386.431610 
	C564.329285,385.092773 567.988892,387.558502 570.688538,391.496765 
	C584.911255,412.245239 601.586548,430.928619 619.308472,448.661682 
	C631.269226,460.630005 644.539062,471.185333 657.728882,481.775726 
	C659.821167,483.455658 661.875366,485.165436 663.570312,487.170990 
	C666.744995,490.927643 668.301880,489.696625 670.119019,485.887573 
	C674.666809,476.354584 677.590149,466.333862 678.811584,455.931335 
	C679.391418,450.993683 681.846863,448.071838 685.783997,445.344452 
	C695.673218,443.283844 701.723267,450.655365 699.709167,461.771576 
	C697.757263,472.544647 693.872559,482.691040 690.925049,493.535339 
	C689.526550,497.070496 688.008179,500.163513 686.187744,503.054871 
	C684.382629,505.921814 684.853821,508.252289 686.957764,510.606628 
	C688.925476,512.808594 690.703552,515.167908 692.670227,517.816284 
z"/>
<path fill="#F5D9D5" opacity="1.000000" stroke="none" 
	d="
M696.871765,645.338257 
	C698.988159,643.531677 701.005798,642.090149 702.896851,640.498230 
	C708.497192,635.783630 715.056458,635.862915 719.139038,640.764038 
	C722.796936,645.155334 721.463989,652.837524 716.302979,657.085876 
	C709.298462,662.851746 702.291565,668.614685 695.125244,674.674805 
	C687.495239,682.976135 678.177612,688.592773 669.177917,694.552490 
	C660.157898,700.525879 650.949890,706.271729 640.937805,710.524109 
	C638.016541,711.764832 638.586060,712.755554 640.516541,714.681213 
	C647.710815,721.857117 656.161316,726.027893 666.198853,728.067505 
	C675.610535,729.979980 684.856262,733.087585 692.727417,739.761841 
	C700.225891,745.503113 708.115234,750.200012 713.488403,757.900146 
	C716.958740,762.873596 716.810730,768.812805 712.618103,772.796631 
	C708.952393,776.279785 701.762085,775.940552 697.618042,772.061707 
	C695.918091,770.470520 694.268860,768.825134 692.293213,767.045166 
	C682.962830,757.098877 671.409180,751.549377 658.685608,749.298584 
	C641.385315,746.238281 628.757324,736.234863 617.745972,723.764099 
	C614.630493,720.235718 612.258362,719.447510 608.541626,721.313660 
	C598.287842,726.462097 587.737915,731.044739 578.074646,737.326904 
	C571.260254,741.757080 564.470642,746.193237 558.066223,751.235413 
	C552.363464,755.725281 546.326416,754.932617 542.216248,749.677124 
	C538.581421,745.029419 539.327759,739.322144 544.796387,734.795837 
	C553.631165,727.483643 563.128296,721.050720 573.151367,715.473450 
	C581.138428,711.029053 589.049683,706.392456 597.577332,703.008545 
	C600.043579,702.029846 599.925354,701.012939 598.640137,698.937622 
	C594.011963,691.464294 589.441284,683.943726 585.185852,676.254578 
	C581.172668,669.003113 582.654053,662.464294 588.544861,659.330627 
	C594.452637,656.187927 600.222412,658.869629 604.158813,666.303894 
	C608.591187,674.674927 613.432068,682.804871 618.732483,690.674683 
	C620.666077,693.545593 622.251038,694.243713 625.631531,692.822266 
	C644.807068,684.759644 661.647217,672.981201 678.025330,660.443848 
	C684.336121,655.613037 690.489868,650.577087 696.871765,645.338257 
z"/>
<path fill="#F5D9D5" opacity="1.000000" stroke="none" 
	d="
M689.546387,799.017822 
	C693.303345,803.848999 698.731873,806.437866 702.506836,810.875244 
	C705.534485,814.434021 708.570374,817.918579 710.619019,822.151550 
	C713.270996,827.631409 712.106018,832.672729 707.480957,835.753540 
	C702.558228,839.032654 697.225891,838.320251 693.255920,833.696838 
	C691.856506,832.067139 690.759094,830.178284 689.254150,828.213440 
	C680.488403,817.443237 668.818970,811.468384 656.802246,806.120178 
	C639.290039,798.326050 620.703003,794.067261 602.027710,790.266663 
	C597.705627,789.387024 593.089233,790.164246 589.676208,786.254211 
	C586.554016,782.677490 586.134766,778.739441 587.796936,774.671936 
	C589.372253,770.817017 592.520264,768.876343 596.874634,768.962463 
	C609.590881,769.214294 621.662598,772.844482 633.865662,775.827942 
	C646.969177,779.031555 659.500488,783.854492 671.706543,789.479858 
	C677.716858,792.249756 683.380188,795.772461 689.546387,799.017822 
z"/>
<path fill="#F5D9D5" opacity="1.000000" stroke="none" 
	d="
M601.129578,643.997131 
	C586.945618,642.898193 573.333069,641.162537 560.213745,636.886658 
	C550.833374,633.829285 548.072327,626.169434 553.433472,619.245972 
	C556.495850,615.291138 560.951721,615.076416 564.804199,616.275757 
	C578.198730,620.445496 591.974182,622.469360 605.819092,622.687439 
	C615.951721,622.846985 626.274780,621.719604 635.812683,617.141052 
	C644.494751,612.973511 652.919250,618.528564 651.956543,627.623230 
	C651.443359,632.471558 648.122253,635.162415 643.909851,636.891174 
	C630.351624,642.455505 616.178894,644.415588 601.129578,643.997131 
z"/>
<path fill="#F5D9D6" opacity="1.000000" stroke="none" 
	d="
M608.939941,506.559631 
	C609.032776,516.459534 604.004333,520.501099 594.684753,518.784058 
	C580.901550,516.244690 567.389160,515.939941 554.903442,523.963867 
	C551.629272,526.067993 545.323853,524.323303 542.700134,521.097778 
	C539.249817,516.856018 539.234436,511.889893 542.591370,507.898071 
	C545.445374,504.504333 548.947998,501.977722 553.090942,500.529724 
	C568.851013,495.021423 584.853333,494.430328 601.030823,498.518982 
	C605.106628,499.549042 607.494751,502.352753 608.939941,506.559631 
z"/>
<path fill="#FDDCCD" opacity="1.000000" stroke="none" 
	d="
M521.586792,944.889526 
	C513.397888,945.576233 505.620941,946.928162 497.894714,946.682617 
	C478.224426,946.057617 458.820770,943.680420 441.548218,932.987549 
	C439.488739,931.712585 437.399780,930.432983 435.047333,931.061646 
	C428.370514,932.845947 421.509918,931.869141 414.747406,932.633972 
	C406.722778,933.541565 398.532379,932.243530 390.538788,930.921509 
	C376.692200,928.631531 363.326813,924.790222 351.992065,915.980347 
	C335.187744,902.919128 333.397095,885.517578 348.043243,869.538818 
	C362.601685,853.655823 381.905579,846.694824 402.247986,842.028442 
	C416.447021,838.771240 430.932465,838.111450 445.342987,839.150452 
	C461.820496,840.338501 477.856293,843.934631 491.890350,853.391785 
	C495.061707,855.528931 498.023743,854.014099 500.982880,853.742065 
	C523.904114,851.635071 546.488281,852.365784 567.863647,862.050354 
	C576.215149,865.834229 583.948608,870.822998 588.939148,878.936401 
	C596.237061,890.801025 594.073669,904.892639 583.639587,915.900513 
	C570.064209,930.222168 552.744385,937.326660 534.115051,941.985413 
	C530.098328,942.989929 526.053650,943.882874 521.586792,944.889526 
z"/>
<path fill="#F3C7B5" opacity="1.000000" stroke="none" 
	d="
M692.984497,739.552124 
	C681.303955,733.571167 668.829712,729.526062 655.818237,726.621765 
	C648.171082,724.914795 643.135376,718.403870 637.299805,713.587158 
	C634.587891,711.348755 637.796448,710.589783 639.142517,710.006958 
	C648.130615,706.115173 656.401917,700.979309 664.742310,695.904419 
	C675.073730,689.618042 684.542297,682.162170 694.622070,675.016968 
	C695.437927,691.409973 693.600647,707.792725 693.771179,724.242737 
	C693.821655,729.110901 693.050781,734.119263 692.984497,739.552124 
z"/>
<path fill="#F2C7B5" opacity="1.000000" stroke="none" 
	d="
M692.926208,517.625366 
	C688.213684,515.789368 686.068481,511.222687 683.276855,507.261169 
	C682.664856,506.392731 683.410156,505.419128 683.947327,504.547607 
	C686.081604,501.085175 688.150757,497.582642 690.577271,494.012329 
	C691.450928,501.687286 693.170166,509.340576 692.926208,517.625366 
z"/>
<path fill="#FCCBC4" opacity="1.000000" stroke="none" 
	d="
M711.591064,297.669556 
	C720.271057,298.176666 723.854065,301.107086 724.005798,307.786682 
	C724.167114,314.883942 720.812805,318.121735 713.678955,319.097504 
	C706.725647,320.048553 699.794495,319.976562 692.836853,320.008209 
	C666.641479,320.127289 642.885925,312.554413 621.932495,296.849548 
	C615.169128,291.780304 609.310669,285.538025 604.395813,278.591125 
	C601.224121,274.108093 602.841003,267.451294 607.553589,264.003265 
	C611.764404,260.922394 618.124512,261.678619 621.359680,266.057587 
	C625.148376,271.185822 629.951660,275.271698 634.716064,279.852448 
	C639.594238,280.751282 642.981079,283.923767 646.870850,286.013397 
	C665.708618,296.133240 685.864563,298.796539 706.840637,297.274902 
	C708.327576,297.167023 709.803650,296.740662 711.591064,297.669556 
z"/>
<path fill="#FCCBC4" opacity="1.000000" stroke="none" 
	d="
M581.941895,152.620056 
	C589.508362,148.720062 597.586060,149.561356 605.321960,150.275101 
	C615.346069,151.199966 625.154541,153.664307 634.593750,157.612427 
	C641.574341,160.532211 647.853149,164.496368 653.994385,168.707764 
	C659.486877,172.474243 660.748047,179.292938 657.380554,184.006500 
	C653.456116,189.499649 647.913208,190.452423 641.782043,186.149292 
	C632.132385,179.376617 621.741943,174.677673 610.089417,172.425858 
	C601.643677,170.793732 593.308533,171.887009 584.462036,172.010376 
	C583.949463,171.850021 583.797546,171.633133 583.851746,171.549042 
	C588.182922,164.828629 587.349915,158.660583 581.941895,152.620056 
z"/>
<path fill="#FEFDFC" opacity="1.000000" stroke="none" 
	d="
M581.552429,152.214508 
	C583.721863,154.976746 587.375916,156.266541 587.905823,159.810562 
	C588.559082,164.179184 587.976807,168.288879 584.159973,171.691132 
	C575.175781,174.867218 566.276733,177.430679 558.038452,181.978699 
	C553.619690,184.418121 547.854797,182.294693 545.255127,178.365158 
	C542.045715,173.513916 542.269836,168.079163 547.049683,164.550064 
	C557.101196,157.128708 568.429504,152.627151 581.552429,152.214508 
z"/>
<path fill="#E49E91" opacity="1.000000" stroke="none" 
	d="
M711.960571,297.503784 
	C691.314331,300.764404 671.315613,298.721924 652.208252,290.150269 
	C646.324036,287.510559 640.491272,284.684692 635.317932,280.143616 
	C636.329956,278.255829 637.715393,279.483002 639.052490,279.907410 
	C650.051270,283.398376 661.502930,284.573120 672.859131,284.730164 
	C681.520325,284.850006 690.494690,283.970276 698.783081,280.919128 
	C707.402161,277.746246 715.661377,286.068695 712.437805,295.161285 
	C712.217834,295.781738 712.137817,296.451782 711.960571,297.503784 
z"/>
</svg>