<svg version="1.1" id="Layer_1" xmlns="http://www.w3.org/2000/svg" xmlns:xlink="http://www.w3.org/1999/xlink" x="0px" y="0px"
	 width="100%" viewBox="0 0 700 816" enable-background="new 0 0 700 816" xml:space="preserve">
<path fill="none" opacity="1.000000" stroke="#000000" stroke-linecap="round" stroke-linejoin="round" stroke-width="3.000000"
	d="
M637.000000,250.000000 
	C637.214905,268.703552 634.423706,286.977722 629.539368,305.010651 
	C624.296082,324.368835 615.861633,342.219269 605.007080,359.004578 
	C599.047607,368.220093 592.156311,376.670593 585.186584,385.153290 
	C576.106445,396.204651 566.923462,407.240936 559.710632,419.834259 
	C556.722351,425.051575 552.354248,429.908661 549.230530,435.137726 
	C544.176636,443.598206 538.477661,451.699310 534.018311,460.509277 
	C526.949524,474.474457 520.622192,488.860443 512.790894,502.378845 
	C507.157410,512.103394 499.031158,519.936523 489.675964,526.741882 
	C481.817688,532.458374 473.504395,536.548584 464.475983,539.424622 
	C457.376709,541.686157 449.813812,542.967529 442.505768,542.777710 
	C426.718597,542.367737 411.632996,538.699524 397.880402,530.193359 
	C395.113770,528.482178 393.090607,525.379272 389.500000,525.000000 
"/>
<path fill="none" opacity="1.000000" stroke="#000000" stroke-linecap="round" stroke-linejoin="round" stroke-width="5.000000"
	d="
M684.000000,615.500000 
	C683.696411,607.552734 677.393188,603.138733 672.787659,598.197937 
	C667.816406,592.864746 661.895996,588.044556 654.987061,585.029663 
	C645.565186,580.918213 635.710876,578.428650 625.517273,576.886047 
	C617.824585,575.721863 610.116577,575.576843 602.513489,576.172180 
	C592.993591,576.917664 583.343140,577.103149 574.022400,579.584229 
	C573.348572,579.763611 572.645935,580.093140 572.005737,579.970154 
	C565.290833,578.680481 558.684570,581.135010 552.651855,582.617859 
	C547.324951,583.927246 541.087708,581.680176 536.490234,585.989563 
	C536.401489,586.072754 536.160828,586.028564 536.000854,585.995850 
	C529.454773,584.655579 523.551025,588.643921 516.988708,588.149719 
	C512.345642,587.800049 507.592194,589.402832 503.062439,590.311279 
	C494.236023,592.081482 485.330292,594.018005 476.475342,594.659546 
	C468.625366,595.228271 460.216370,597.270691 452.469421,593.056213 
	C451.697815,592.636414 450.500000,593.000000 449.500000,593.000000 
"/>
<path fill="none" opacity="1.000000" stroke="#000000" stroke-linecap="round" stroke-linejoin="round" stroke-width="3.000000"
	d="
M397.000000,414.500000 
	C396.049774,418.514923 399.066254,420.716827 400.962830,423.525085 
	C409.586884,436.294708 420.044403,447.485046 432.129517,456.832550 
	C441.804901,464.316193 453.041443,469.656769 464.549988,473.863220 
	C473.496185,477.133118 483.261932,476.974854 492.461212,475.716400 
	C501.888214,474.426788 510.181000,469.347260 515.421265,460.950867 
	C520.576477,452.690948 526.621155,445.085754 532.060608,437.040985 
	C537.581360,428.875885 538.010803,424.401550 532.464050,416.525330 
	C528.630127,411.081360 524.034119,406.169617 518.421265,402.624695 
	C514.731384,400.294281 510.255005,399.626801 506.004456,402.007935 
	C503.313843,403.515198 500.833191,403.048889 497.967865,402.096710 
	C490.260193,399.535278 483.263275,394.960968 475.000732,393.993713 
	C471.091156,393.536072 467.312561,394.748871 463.521942,395.188965 
	C454.121796,396.280457 444.634674,397.630310 435.555359,400.195892 
	C426.302185,402.810608 416.836823,404.944214 407.975159,408.944946 
	C403.754974,410.850189 400.022858,414.126129 395.000000,414.000000 
"/>
<path fill="none" opacity="1.000000" stroke="#000000" stroke-linecap="round" stroke-linejoin="round" stroke-width="3.000000"
	d="
M546.000000,324.500000 
	C544.855225,332.161011 548.667419,339.259644 548.178894,347.011261 
	C547.347290,360.205597 540.658813,370.096405 528.485229,373.446228 
	C524.412109,374.567047 520.155273,373.585419 516.002197,373.647888 
	C505.239136,373.809875 500.689972,366.543091 497.134766,358.440857 
	C494.913269,353.378143 490.788605,351.013153 486.430634,349.163422 
	C482.764709,347.607422 478.824799,349.726318 476.096222,352.110138 
	C470.405731,357.081543 464.272400,355.333618 459.147552,352.711578 
	C454.584320,350.376923 451.531097,345.470428 451.980988,339.498566 
	C452.105835,337.841309 452.000000,336.166656 452.000000,334.500000 
"/>
<path fill="none" opacity="1.000000" stroke="#000000" stroke-linecap="round" stroke-linejoin="round" stroke-width="3.000000"
	d="
M105.000000,506.000000 
	C98.711021,510.629486 91.681641,514.024963 85.014992,518.024963 
	C82.672394,519.430603 78.761444,519.731750 79.119347,523.488647 
	C79.482719,527.302917 82.771156,529.100769 86.005661,530.486816 
	C94.396637,534.082275 102.725235,532.088867 110.993256,529.973633 
	C117.950974,528.193665 124.809586,527.196594 132.039780,528.823181 
	C134.561203,529.390503 135.676086,531.363159 137.912170,532.227295 
	C145.636734,535.212463 151.577591,530.456543 157.935226,528.308289 
	C163.745346,526.345093 169.462952,523.781982 175.136719,521.314331 
	C178.510635,519.847046 182.366592,519.555420 185.000000,516.500000 
"/>
<path fill="none" opacity="1.000000" stroke="#000000" stroke-linecap="round" stroke-linejoin="round" stroke-width="3.000000"
	d="
M380.000000,419.500000 
	C380.560272,414.727386 377.133911,411.364807 375.332062,407.579956 
	C371.045410,398.575653 364.056671,392.189331 354.546692,388.383301 
	C348.392944,385.920471 342.348816,385.634308 335.997986,386.484863 
	C324.915375,387.969238 316.233429,394.069641 307.417175,400.384369 
	C297.096375,407.776703 287.008026,415.839111 274.479828,419.429626 
	C271.113068,420.394562 267.500000,420.500000 264.000000,421.000000 
"/>
<path fill="none" opacity="1.000000" stroke="#000000" stroke-linecap="round" stroke-linejoin="round" stroke-width="3.000000"
	d="
M268.000000,411.500000 
	C267.598816,409.065887 269.800262,408.293518 271.037140,407.036560 
	C279.633423,398.300629 288.202393,389.530029 297.049408,381.051544 
	C302.304993,376.014923 306.404144,370.190674 309.945282,363.968872 
	C313.851685,357.105286 317.711456,350.167358 320.902802,342.956970 
	C324.754730,334.254089 327.966400,325.234955 327.977142,315.499969 
	C327.984741,308.612488 328.574036,301.695618 326.133392,294.951721 
	C325.550293,293.340393 324.542358,291.637939 323.795349,290.655640 
	C316.507050,281.072662 312.135834,269.312500 302.476288,261.529419 
	C298.717529,258.500854 294.782043,255.600662 289.499359,255.991425 
	C288.670563,256.052734 287.477325,255.638687 287.054504,256.055298 
	C282.284973,260.755035 277.031128,257.528198 273.707184,255.203720 
	C267.669250,250.981308 261.965607,251.465668 256.029419,253.582520 
	C245.550339,257.319366 235.484192,262.087738 225.500000,267.000000 
"/>
<path fill="none" opacity="1.000000" stroke="#000000" stroke-linecap="round" stroke-linejoin="round" stroke-width="3.000000"
	d="
M221.000000,497.000031 
	C220.000000,497.166687 218.490219,496.972961 218.078415,497.555481 
	C213.711456,503.732635 206.458420,506.522034 201.441040,511.945465 
	C199.102478,514.473328 199.730713,517.758057 198.258392,520.632385 
	C193.525909,529.871094 190.068985,539.821350 188.206741,550.037659 
	C187.153122,555.817871 186.915909,562.434937 191.108826,567.408264 
	C194.693741,571.660400 194.648941,576.457764 193.831284,580.969421 
	C192.171936,590.125488 196.064117,597.035461 200.909119,604.062683 
	C203.650528,608.038879 207.279770,610.062561 211.418411,612.160889 
	C216.785202,614.881958 219.734741,620.448242 223.506317,624.994751 
	C226.073105,628.088989 228.211395,631.374390 231.917648,633.635010 
	C239.153748,638.048584 246.218323,637.863281 253.485123,634.468140 
	C260.447662,631.215210 267.319153,627.784790 275.000000,626.500000 
"/>
<path fill="none" opacity="1.000000" stroke="#000000" stroke-linecap="round" stroke-linejoin="round" stroke-width="3.000000"
	d="
M230.000000,309.500000 
	C229.140594,302.816406 225.961731,297.006195 222.406677,291.560913 
	C217.207932,283.598083 210.901382,276.405487 202.945389,271.081604 
	C196.444382,266.731384 189.712158,263.024048 181.557480,261.657104 
	C177.033813,260.898773 172.545410,260.440399 168.010147,259.912811 
	C161.120758,259.111420 155.970551,261.752136 152.047699,267.035400 
	C149.613678,270.313507 147.332123,271.384155 142.946884,270.196045 
	C135.221970,268.103149 132.109573,270.000641 127.491020,276.994080 
	C117.180313,292.606567 106.152885,307.858704 98.653419,325.066864 
	C93.435303,337.040344 91.024307,349.923981 94.157791,362.962067 
	C95.499161,368.543365 97.750374,374.126770 101.104691,378.926849 
	C102.573364,381.028503 101.575073,382.333344 101.000000,384.000000 
"/>
<path fill="none" opacity="1.000000" stroke="#000000" stroke-linecap="round" stroke-linejoin="round" stroke-width="3.000000"
	d="
M306.000000,521.000000 
	C304.984436,526.338501 308.671722,530.201904 310.680145,534.414124 
	C312.714447,538.680603 315.860321,542.570435 318.260071,546.641418 
	C323.165161,554.962341 324.738068,564.341125 321.995575,573.998718 
	C320.403107,579.606628 320.429596,579.932373 326.012299,582.472961 
	C334.955048,586.542664 343.842590,590.780090 353.997955,591.071289 
	C356.872437,591.153748 359.354523,593.659912 362.500000,593.000000 
"/>
<path fill="none" opacity="1.000000" stroke="#000000" stroke-linecap="round" stroke-linejoin="round" stroke-width="3.000000"
	d="
M128.500000,473.000000 
	C119.643196,475.599792 110.543358,474.891846 101.500145,475.010986 
	C95.013786,475.096436 89.027184,473.134521 82.955101,471.136444 
	C80.250084,470.246338 77.310532,470.117889 74.417435,469.287750 
	C63.603767,466.184875 53.222591,462.758545 45.500000,454.000000 
"/>
<path fill="none" opacity="1.000000" stroke="#000000" stroke-linecap="round" stroke-linejoin="round" stroke-width="3.000000"
	d="
M93.000000,534.000000 
	C92.784546,535.300781 92.030159,536.383606 90.979950,536.963684 
	C84.250313,540.680603 82.729416,547.581055 81.191223,554.045471 
	C80.160202,558.378418 81.036842,563.461060 85.566566,565.875061 
	C89.960854,568.216980 89.419342,571.432800 88.477402,574.994019 
	C85.567162,585.996521 93.302208,601.124756 103.971321,605.568848 
	C106.299202,606.538513 108.696724,606.193970 111.057037,606.763733 
	C119.388519,608.775085 125.085693,616.061890 133.507675,617.453491 
	C141.320114,618.744446 148.841675,618.439636 156.048340,614.079895 
	C169.768051,605.780090 177.262222,592.732178 183.961655,578.981323 
	C184.945557,576.961853 186.895508,575.147339 186.000000,572.500000 
"/>
<path fill="none" opacity="1.000000" stroke="#000000" stroke-linecap="round" stroke-linejoin="round" stroke-width="3.000000"
	d="
M436.000000,576.500000 
	C435.104492,579.147339 436.916199,581.074219 438.062195,582.962219 
	C444.535065,593.626160 449.488190,605.088074 456.238312,615.666992 
	C462.113861,624.875244 467.382996,634.569580 473.034241,643.979431 
	C476.006958,648.929199 479.357483,653.651123 482.491791,658.505310 
	C484.725952,661.965393 486.539215,665.647034 488.000000,669.500000 
"/>
<path fill="none" opacity="1.000000" stroke="#000000" stroke-linecap="round" stroke-linejoin="round" stroke-width="3.000000"
	d="
M630.000000,237.500000 
	C626.370850,247.938934 618.136719,252.052231 608.015564,254.077744 
	C599.465332,255.788849 591.813782,253.651077 583.955750,250.614502 
	C575.212341,247.235825 566.734009,243.048950 557.500000,241.000000 
"/>
<path fill="none" opacity="1.000000" stroke="#000000" stroke-linecap="round" stroke-linejoin="round" stroke-width="3.000000"
	d="
M135.000000,532.500000 
	C131.481049,536.927612 127.807571,541.228821 125.470757,546.487000 
	C123.615997,550.660461 122.217850,554.950684 122.045181,559.501709 
	C121.849426,564.660950 121.687782,569.856201 122.064064,574.995300 
	C122.883575,586.187744 118.324226,595.101013 111.007523,603.006958 
	C110.284546,603.788147 109.666664,604.666687 109.000000,605.500000 
"/>
<path fill="none" opacity="1.000000" stroke="#000000" stroke-linecap="round" stroke-linejoin="round" stroke-width="3.000000"
	d="
M254.000000,582.500000 
	C255.027969,585.992188 257.567078,588.648499 259.622406,591.408875 
	C265.925293,599.873840 270.206482,609.287598 273.978058,619.008545 
	C274.471283,620.279785 275.019196,621.688904 274.936920,622.996033 
	C274.634033,627.808289 277.477814,629.866455 281.501678,630.994019 
	C295.830750,635.009216 310.267609,638.679199 324.454773,643.143677 
	C330.947449,645.186768 337.791290,646.037415 344.020264,648.956787 
	C344.703522,649.276978 345.666656,649.000000 346.500000,649.000000 
"/>
<path fill="none" opacity="1.000000" stroke="#000000" stroke-linecap="round" stroke-linejoin="round" stroke-width="3.000000"
	d="
M92.000000,353.000000 
	C85.372826,353.062408 79.268929,350.591309 72.935280,349.323273 
	C68.241943,348.383636 63.350567,347.557312 58.507675,346.939819 
	C53.999878,346.365021 49.425262,346.396301 44.980869,345.063812 
	C40.802826,343.811218 38.828278,345.493896 39.052364,349.997406 
	C39.254337,354.056458 38.691433,357.467438 35.033688,360.047760 
	C29.888485,363.677429 29.951574,369.595581 31.201397,374.448120 
	C35.316429,390.425049 40.962769,405.862915 51.468277,419.025330 
	C53.062908,421.023254 54.523201,423.041138 57.000000,424.000000 
"/>
<path fill="none" opacity="1.000000" stroke="#000000" stroke-linecap="round" stroke-linejoin="round" stroke-width="3.000000"
	d="
M655.500000,180.000000 
	C651.397156,177.697891 647.395996,179.618698 643.517151,180.569977 
	C632.863281,183.182877 623.604248,188.964294 613.940552,193.883194 
	C608.106140,196.852905 601.911194,199.165970 595.000122,199.171112 
	C592.048035,199.173309 590.050415,197.477600 587.500000,197.000000 
"/>
<path fill="none" opacity="1.000000" stroke="#000000" stroke-linecap="round" stroke-linejoin="round" stroke-width="3.000000"
	d="
M658.500000,229.000000 
	C656.207947,228.687073 655.788879,230.468079 654.972839,231.985397 
	C652.520874,236.544846 645.083374,241.118622 641.041077,239.867279 
	C637.224976,238.685944 633.862488,235.971603 629.500000,237.000000 
	C625.703552,231.678497 619.122253,231.701584 613.915039,229.175110 
	C602.672180,223.720200 590.439209,221.556274 578.029358,223.219025 
	C573.018005,223.890488 568.333313,227.000000 563.500000,229.000000 
"/>
<path fill="none" opacity="1.000000" stroke="#000000" stroke-linecap="round" stroke-linejoin="round" stroke-width="3.000000"
	d="
M513.000000,432.000000 
	C508.689728,427.678528 502.935913,427.101013 497.501923,427.164337 
	C489.218903,427.260864 481.396210,425.683624 473.472687,423.604065 
	C465.016113,421.384583 456.315430,420.250641 447.503174,421.035736 
	C446.812286,421.097321 446.166656,421.666626 445.499969,421.999969 
"/>
<path fill="none" opacity="1.000000" stroke="#000000" stroke-linecap="round" stroke-linejoin="round" stroke-width="3.000000"
	d="
M192.000000,405.500000 
	C191.573471,402.061310 188.531128,400.600281 186.431885,398.570435 
	C182.619675,394.884338 180.175201,390.604034 178.970245,385.507019 
	C178.853241,385.012054 179.314178,384.584778 178.556015,383.934662 
	C171.269882,377.686890 166.872375,368.921082 159.272614,362.668640 
	C155.155533,359.281464 152.346130,353.604492 147.914383,350.108551 
	C141.276993,344.872620 134.601807,339.496460 126.496529,336.509430 
	C117.952042,333.360504 109.274895,333.237305 100.492767,335.471588 
	C99.044136,335.840149 97.500000,335.833313 96.000000,336.000000 
"/>
<path fill="none" opacity="1.000000" stroke="#000000" stroke-linecap="round" stroke-linejoin="round" stroke-width="3.000000"
	d="
M321.000000,582.500000 
	C318.666107,585.738037 320.833557,589.573181 319.550690,593.018860 
	C317.955139,597.304443 316.730072,601.914246 313.898956,605.418335 
	C307.131470,613.794556 299.794067,621.593933 288.515869,624.072266 
	C284.691833,624.912537 280.662567,624.351379 277.000000,626.000000 
"/>
<path fill="none" opacity="1.000000" stroke="#000000" stroke-linecap="round" stroke-linejoin="round" stroke-width="3.000000"
	d="
M208.000000,431.500000 
	C208.093994,427.187134 208.012756,422.931396 211.435349,419.436676 
	C213.217361,417.617218 213.587021,415.023987 212.495865,412.501801 
	C209.568680,405.735687 209.336929,398.138672 206.017014,391.491516 
	C205.883759,391.224701 205.961609,390.828186 206.005676,390.500763 
	C206.969086,383.343811 202.578964,376.704834 203.980484,369.496216 
	C204.226639,368.230011 203.872894,367.012512 201.848770,365.702728 
	C200.500000,365.323029 198.000000,368.586182 195.500000,366.000000 
"/>
<path fill="none" opacity="1.000000" stroke="#000000" stroke-linecap="round" stroke-linejoin="round" stroke-width="3.000000"
	d="
M362.000000,383.500000 
	C359.572906,376.634399 355.396027,371.093018 348.449860,368.642090 
	C344.484528,367.242920 340.113770,367.243042 335.963348,369.430450 
	C332.475037,371.268860 328.759674,372.821564 324.975708,373.916016 
	C320.563110,375.192261 316.339996,373.167511 312.625183,371.256622 
	C311.079742,370.461639 309.306671,370.601654 308.000000,369.500000 
"/>
<path fill="none" opacity="1.000000" stroke="#000000" stroke-linecap="round" stroke-linejoin="round" stroke-width="5.000000"
	d="
M162.500000,499.000000 
	C157.633728,499.567383 154.658813,503.581238 150.585083,505.666229 
	C141.319122,510.408600 131.906555,511.043365 121.996689,509.016205 
	C117.160904,508.026947 112.224159,507.025330 107.599922,505.661255 
	C103.159561,504.351410 98.860130,501.606842 94.545692,499.410248 
	C89.567047,496.875580 84.257164,494.712433 80.094589,490.896820 
	C78.699707,489.618195 76.702744,489.518494 76.055634,489.699219 
	C71.526924,490.963898 67.602333,488.728729 63.522934,487.888641 
	C58.693943,486.894196 55.504181,483.750641 55.000000,478.500000 
"/>
<path fill="none" opacity="1.000000" stroke="#000000" stroke-linecap="round" stroke-linejoin="round" stroke-width="3.000000"
	d="
M336.500000,529.000000 
	C332.334625,530.242615 328.597168,527.795593 325.100861,526.683044 
	C318.398651,524.550232 311.590790,522.351379 305.120361,519.705688 
	C296.743530,516.280396 287.989655,514.599426 279.430969,512.251709 
	C272.542450,510.362091 265.565430,509.071960 258.937866,506.140442 
	C256.004822,504.843109 255.168716,500.913605 251.500000,501.000000 
"/>
<path fill="none" opacity="1.000000" stroke="#000000" stroke-linecap="round" stroke-linejoin="round" stroke-width="3.000000"
	d="
M212.500000,419.000000 
	C213.068451,419.941467 214.395432,419.301483 215.047195,420.473755 
	C218.783524,427.194336 222.837830,433.742645 226.436005,440.533905 
	C228.606888,444.631226 232.455902,446.972809 235.692978,449.777252 
	C237.390717,451.248138 238.533203,453.006134 239.927277,454.565033 
	C243.502106,458.562500 248.700165,459.441925 253.000000,462.000000 
"/>
<path fill="none" opacity="1.000000" stroke="#000000" stroke-linecap="round" stroke-linejoin="round" stroke-width="3.000000"
	d="
M80.500000,387.000000 
	C78.696518,387.447754 78.095123,385.809021 76.983513,385.023315 
	C76.120407,384.413208 75.377426,383.470276 73.960495,384.442413 
	C72.486961,385.453400 73.187866,386.385956 73.487305,387.503387 
	C75.556236,395.224274 81.068741,401.107605 87.213043,404.628174 
	C95.268196,409.243683 103.741417,413.549500 112.500000,417.000000 
"/>
<path fill="none" opacity="1.000000" stroke="#000000" stroke-linecap="round" stroke-linejoin="round" stroke-width="3.000000"
	d="
M220.000000,462.500000 
	C219.899307,463.183167 220.380310,464.258972 219.490463,464.457153 
	C214.076218,465.662994 213.593735,470.715363 211.505707,474.503143 
	C206.764664,483.103577 200.583344,490.100677 191.590363,494.677551 
	C188.737076,496.129669 186.158371,496.084198 183.504974,495.919769 
	C170.781189,495.131317 159.288040,491.419006 149.925735,482.074402 
	C144.886566,477.044739 144.522263,470.581665 143.723389,464.470795 
	C143.036789,459.218842 148.612579,455.624573 154.476791,457.092712 
	C159.930450,458.458038 165.276245,460.333984 170.608185,462.189056 
	C176.349106,464.186432 181.970764,467.616943 188.500000,467.000000 
"/>
<path fill="none" opacity="1.000000" stroke="#000000" stroke-linecap="round" stroke-linejoin="round" stroke-width="3.000000"
	d="
M654.000000,201.500000 
	C655.723206,193.733017 655.444092,185.708679 657.685852,177.909698 
	C658.734436,174.261627 659.705872,169.297455 655.617371,165.377548 
	C652.482849,162.372192 649.263672,162.311752 646.038330,163.596222 
	C638.335205,166.663895 629.841187,167.792542 622.943909,172.924622 
	C622.192993,173.483383 620.666687,173.000000 619.500000,173.000000 
"/>
<path fill="none" opacity="1.000000" stroke="#000000" stroke-linecap="round" stroke-linejoin="round" stroke-width="3.000000"
	d="
M244.500000,667.000000 
	C242.984360,666.737061 241.573212,666.901794 239.935196,666.139221 
	C232.035538,662.461914 224.124313,658.508423 215.000000,659.000000 
	C210.421722,654.646484 203.696503,659.296082 198.885208,655.132629 
	C197.836914,654.225464 195.333328,655.000000 193.500000,655.000000 
"/>
<path fill="none" opacity="1.000000" stroke="#000000" stroke-linecap="round" stroke-linejoin="round" stroke-width="3.000000"
	d="
M634.500000,219.000000 
	C630.141479,218.456100 626.672852,215.628632 622.538940,214.371994 
	C618.063843,213.011673 613.942749,210.588974 608.996277,210.948456 
	C607.098206,211.086380 604.889404,211.696732 603.489563,209.506668 
	C602.870544,208.538284 601.658691,208.778473 601.027222,209.060928 
	C595.372009,211.590302 589.401428,210.929062 583.500000,211.000000 
"/>
<path fill="none" opacity="1.000000" stroke="#000000" stroke-linecap="round" stroke-linejoin="round" stroke-width="3.000000"
	d="
M240.000000,389.500000 
	C237.618622,384.887939 234.250076,380.932312 230.909195,377.078735 
	C226.443008,371.927124 221.166397,367.486237 216.554413,362.450165 
	C213.056076,358.630157 209.080124,355.977570 203.827957,355.056976 
	C205.151230,348.475311 202.338791,342.370758 201.687775,336.032074 
	C201.008759,329.420471 191.631821,327.474670 185.994629,331.993317 
	C182.266327,334.981873 179.871292,338.995544 177.535095,343.020355 
	C175.968658,345.719055 179.175720,349.225006 183.493622,348.911957 
	C190.618622,348.395386 197.112244,350.272156 203.500000,353.000000 
"/>
<path fill="none" opacity="1.000000" stroke="#000000" stroke-linecap="round" stroke-linejoin="round" stroke-width="3.000000"
	d="
M512.500000,434.000000 
	C505.385773,435.460602 498.315796,437.264832 490.980042,435.066589 
	C489.450714,434.608276 487.666260,434.975983 486.000092,435.004517 
	C480.860748,435.092499 476.331879,432.547333 471.469482,431.669006 
	C468.022949,431.046448 465.172394,428.477051 461.500000,429.000000 
"/>
<path fill="none" opacity="1.000000" stroke="#000000" stroke-linecap="round" stroke-linejoin="round" stroke-width="3.000000"
	d="
M220.000000,502.500000 
	C220.000000,508.166656 220.039444,513.833679 219.988144,519.499878 
	C219.943039,524.484192 222.363968,528.850586 223.352234,533.531189 
	C224.900314,540.863281 229.698853,546.607178 232.000000,553.500000 
"/>
<path fill="none" opacity="1.000000" stroke="#000000" stroke-linecap="round" stroke-linejoin="round" stroke-width="3.000000"
	d="
M248.000000,356.500000 
	C248.154709,358.963165 248.230209,361.383148 244.998978,362.000610 
	C247.067352,368.397247 249.084030,374.706604 250.438171,381.411499 
	C252.426086,391.254456 253.680634,401.062897 254.496536,411.000275 
	C254.523727,411.331390 254.500000,411.666656 254.500000,412.000000 
"/>
<path fill="none" opacity="1.000000" stroke="#000000" stroke-linecap="round" stroke-linejoin="round" stroke-width="3.000000"
	d="
M79.500000,433.000000 
	C83.645988,433.140411 84.615662,437.537628 87.901146,439.195862 
	C93.085312,441.812317 98.226555,444.540222 104.012726,446.530029 
	C101.204048,450.367920 97.361214,448.167053 94.523094,449.329254 
	C93.672234,455.619568 96.401154,460.338806 102.480576,464.031982 
	C107.978760,467.372040 113.516533,469.300720 120.034187,467.101318 
	C121.979362,466.444946 124.333336,467.000000 126.500000,467.000000 
"/>
<path fill="none" opacity="1.000000" stroke="#000000" stroke-linecap="round" stroke-linejoin="round" stroke-width="3.000000"
	d="
M152.000000,405.500000 
	C151.886230,404.042328 152.404694,403.551788 153.946167,402.877014 
	C160.592941,399.967377 164.294800,391.075500 162.000000,384.500000 
	C160.822159,381.125031 154.999451,379.726929 151.985306,381.980347 
	C148.889908,384.294556 147.407211,387.691315 146.133545,391.050629 
	C145.542953,392.608337 144.470535,393.114319 143.500000,394.000000 
"/>
<path fill="none" opacity="1.000000" stroke="#000000" stroke-linecap="round" stroke-linejoin="round" stroke-width="3.000000"
	d="
M18.500000,453.000000 
	C16.204195,452.682678 15.679060,454.431122 14.883045,456.150970 
	C23.029936,467.567261 34.102161,474.120026 48.000645,475.995209 
	C51.486336,476.465515 54.800480,478.761627 58.500000,477.000000 
"/>
<path fill="none" opacity="1.000000" stroke="#000000" stroke-linecap="round" stroke-linejoin="round" stroke-width="3.000000"
	d="
M542.000000,252.500000 
	C543.419189,260.185394 539.452820,267.342438 539.904297,275.005646 
	C540.344543,282.479706 540.000000,290.000000 540.000000,297.500000 
"/>
<path fill="none" opacity="1.000000" stroke="#000000" stroke-linecap="round" stroke-linejoin="round" stroke-width="3.000000"
	d="
M424.000000,555.500000 
	C423.912750,552.892334 422.113434,551.901611 420.012543,550.971680 
	C412.646881,547.711365 405.161285,544.657471 398.059479,540.887939 
	C393.192413,538.304626 388.751343,534.908997 383.500000,533.000000 
"/>
<path fill="none" opacity="1.000000" stroke="#000000" stroke-linecap="round" stroke-linejoin="round" stroke-width="3.000000"
	d="
M233.000000,494.000000 
	C239.116959,494.089661 244.090378,491.009216 248.966095,487.946045 
	C253.215912,485.276031 258.366241,484.951569 262.555573,482.081085 
	C265.447906,480.099274 266.624969,477.561737 265.890930,474.526367 
	C265.158783,471.498993 262.543854,470.537598 259.500000,471.000000 
"/>
<path fill="none" opacity="1.000000" stroke="#000000" stroke-linecap="round" stroke-linejoin="round" stroke-width="3.000000"
	d="
M68.500000,421.000000 
	C61.195148,419.617218 56.910969,423.091095 53.908871,429.457031 
	C52.142857,433.201904 48.603821,435.790314 46.246128,439.330963 
	C43.674919,443.192261 42.666561,446.375763 44.497616,450.501068 
	C45.234547,452.161346 45.233284,453.838104 44.497978,455.499115 
	C42.324898,460.407898 42.960438,462.876038 47.520084,465.970398 
	C49.737167,467.475037 52.061779,468.914307 54.519012,469.955109 
	C62.999077,473.546906 68.546616,480.489258 74.525764,486.976257 
	C75.229378,487.739594 74.845123,488.497375 75.000000,489.250000 
"/>
<path fill="none" opacity="1.000000" stroke="#000000" stroke-linecap="round" stroke-linejoin="round" stroke-width="3.000000"
	d="
M444.000000,423.000000 
	C441.904785,422.202271 439.756439,421.939667 437.499603,421.966614 
	C431.012207,422.044189 424.741760,421.535706 418.375610,419.364777 
	C415.412140,418.354156 411.927704,416.941284 408.502655,417.070282 
	C405.950958,417.166382 405.481873,414.474670 403.500000,414.000000 
"/>
<path fill="none" opacity="1.000000" stroke="#000000" stroke-linecap="round" stroke-linejoin="round" stroke-width="3.000000"
	d="
M253.500000,465.000000 
	C248.491272,464.798401 244.093201,466.113312 239.323044,468.068176 
	C235.062134,469.814301 230.987045,472.576385 226.018616,473.158783 
	C220.515915,473.803833 217.198029,479.621979 218.000000,485.500000 
"/>
<path fill="none" opacity="1.000000" stroke="#000000" stroke-linecap="round" stroke-linejoin="round" stroke-width="3.000000"
	d="
M298.500000,685.000000 
	C289.743317,685.091003 281.702972,682.145020 273.418182,679.787537 
	C268.647278,678.429993 264.765350,674.637390 259.500000,675.000000 
"/>
<path fill="none" opacity="1.000000" stroke="#000000" stroke-linecap="round" stroke-linejoin="round" stroke-width="3.000000"
	d="
M374.500000,533.000000 
	C368.833344,533.000000 363.097412,532.444824 357.517548,533.140747 
	C350.565765,534.007751 344.308289,530.250549 337.500000,531.000000 
"/>
<path fill="none" opacity="1.000000" stroke="#000000" stroke-linecap="round" stroke-linejoin="round" stroke-width="3.000000"
	d="
M157.000000,361.500000 
	C154.473511,362.518799 152.228683,361.125061 150.022263,360.429382 
	C144.128052,358.571045 138.464645,355.903748 131.973053,357.912933 
	C130.266693,358.441040 128.155579,358.310944 126.499992,357.000061 
	C122.697525,360.792908 122.889763,365.289062 123.779350,370.041290 
	C125.842728,381.064026 133.834824,390.423370 132.240860,402.531708 
	C131.819733,405.730804 128.825317,408.090820 130.000000,411.500000 
"/>
<path fill="none" opacity="1.000000" stroke="#000000" stroke-linecap="round" stroke-linejoin="round" stroke-width="3.000000"
	d="
M251.000000,340.000000 
	C250.333328,339.333344 249.075027,338.652130 249.091034,338.002228 
	C249.260773,331.104614 243.653122,327.490906 240.498672,322.500854 
	C237.366425,317.545898 232.436600,315.475098 226.993256,315.097015 
	C220.029083,314.613373 212.991409,314.566162 206.492340,317.985443 
	C202.795670,319.930389 201.457565,323.602142 200.138077,327.052795 
	C199.450943,328.849762 198.343231,329.343231 197.000000,330.000000 
"/>
<path fill="none" opacity="1.000000" stroke="#000000" stroke-linecap="round" stroke-linejoin="round" stroke-width="3.000000"
	d="
M168.000000,606.000000 
	C177.872604,617.335449 191.690216,614.606628 202.500000,610.000000 
"/>
<path fill="none" opacity="1.000000" stroke="#000000" stroke-linecap="round" stroke-linejoin="round" stroke-width="3.000000"
	d="
M406.000000,503.500000 
	C406.000000,502.333344 406.000000,501.166656 406.000000,500.000000 
	C406.000000,492.643677 406.081482,492.416077 399.480957,490.053162 
	C389.468384,486.468750 380.656555,480.671722 371.530365,475.446960 
	C370.797241,475.027222 370.183167,475.100677 369.500000,475.000000 
"/>
<path fill="none" opacity="1.000000" stroke="#000000" stroke-linecap="round" stroke-linejoin="round" stroke-width="3.000000"
	d="
M220.500000,624.000000 
	C214.962082,625.084656 209.464188,624.096191 204.006775,623.443420 
	C194.526505,622.309509 185.097244,620.694763 175.499146,621.993652 
	C172.137573,622.448547 170.153442,624.773926 169.108429,627.540955 
	C168.098419,630.215271 169.993454,632.228210 171.977783,634.024536 
	C176.269882,637.910095 181.479294,636.905640 186.500000,637.000000 
"/>
<path fill="none" opacity="1.000000" stroke="#000000" stroke-linecap="round" stroke-linejoin="round" stroke-width="3.000000"
	d="
M126.000000,374.000000 
	C135.450775,376.561035 141.849991,384.334534 142.899857,394.510345 
	C143.098755,396.438232 142.353210,398.682617 141.431763,400.464722 
	C138.965302,405.234894 136.176987,409.839294 133.496262,414.497833 
	C131.786758,417.468628 129.466278,420.174347 129.903610,424.010986 
	C129.951324,424.429565 128.666672,425.000000 128.000000,425.500000 
"/>
<path fill="none" opacity="1.000000" stroke="#000000" stroke-linecap="round" stroke-linejoin="round" stroke-width="3.000000"
	d="
M178.000000,440.000000 
	C178.610840,441.709808 177.129578,442.923065 176.950378,444.494354 
	C176.078781,452.136749 179.179031,456.790771 187.007721,458.972321 
	C190.089722,459.831116 193.075287,462.118073 196.500000,460.000000 
"/>
<path fill="none" opacity="1.000000" stroke="#000000" stroke-linecap="round" stroke-linejoin="round" stroke-width="3.000000"
	d="
M162.500000,427.000000 
	C158.834824,426.456238 156.266693,428.839020 153.533279,430.553070 
	C151.234909,431.994354 151.576813,434.329773 152.512466,436.494598 
	C155.157471,442.614471 159.229797,446.454865 166.500000,445.000000 
"/>
<path fill="none" opacity="1.000000" stroke="#000000" stroke-linecap="round" stroke-linejoin="round" stroke-width="3.000000"
	d="
M194.500000,503.000000 
	C190.059570,505.036957 186.783844,508.080292 185.472733,512.992737 
	C184.794434,515.534119 185.446732,516.051514 188.012573,515.566528 
	C191.802597,514.850037 195.560074,513.682800 199.500000,514.000000 
"/>
<path fill="none" opacity="1.000000" stroke="#000000" stroke-linecap="round" stroke-linejoin="round" stroke-width="3.000000"
	d="
M602.500000,183.000000 
	C593.682495,187.386490 584.327820,190.773758 576.483826,196.979523 
	C576.278809,197.141693 575.833313,197.000000 575.500000,197.000000 
"/>
<path fill="none" opacity="1.000000" stroke="#000000" stroke-linecap="round" stroke-linejoin="round" stroke-width="3.000000"
	d="
M285.000000,258.500000 
	C286.577515,261.500000 285.849670,264.341766 285.155670,267.533844 
	C283.823944,273.659180 280.698425,279.231049 280.000000,285.500000 
"/>
<path fill="none" opacity="1.000000" stroke="#000000" stroke-linecap="round" stroke-linejoin="round" stroke-width="3.000000"
	d="
M208.000000,424.000000 
	C206.209229,423.751801 204.775101,424.661407 204.051193,426.027130 
	C200.501923,432.723175 198.131317,440.024750 195.814911,447.103058 
	C192.134384,458.349792 198.982941,466.346344 210.999100,467.016205 
	C211.756027,467.058441 212.500000,467.333344 213.250000,467.500000 
"/>
<path fill="none" opacity="1.000000" stroke="#000000" stroke-linecap="round" stroke-linejoin="round" stroke-width="3.000000"
	d="
M105.000000,395.000000 
	C96.565254,395.355530 88.965111,392.442200 81.500000,389.000000 
"/>
<path fill="none" opacity="1.000000" stroke="#000000" stroke-linecap="round" stroke-linejoin="round" stroke-width="3.000000"
	d="
M150.000000,406.500000 
	C151.174683,409.909180 147.336700,412.017792 147.837341,415.523224 
	C148.234116,418.301300 149.077087,421.523834 146.141830,424.158020 
	C145.230484,424.975891 146.000000,427.666656 146.000000,429.500000 
"/>
<path fill="none" opacity="1.000000" stroke="#000000" stroke-linecap="round" stroke-linejoin="round" stroke-width="3.000000"
	d="
M257.500000,347.000000 
	C259.938538,347.219177 261.300873,345.005768 263.435608,344.304077 
	C265.666077,343.570953 265.194214,340.163116 263.000000,339.000031 
	C260.269104,337.552460 253.028488,339.085449 250.484131,341.483154 
	C246.722122,345.028412 243.184402,348.722382 241.000000,353.500000 
"/>
<path fill="none" opacity="1.000000" stroke="#000000" stroke-linecap="round" stroke-linejoin="round" stroke-width="3.000000"
	d="
M68.500000,365.000000 
	C64.619545,365.509186 60.794628,363.687927 57.675781,362.527557 
	C53.437901,360.950745 49.527229,361.503296 45.500000,361.000000 
"/>
<path fill="none" opacity="1.000000" stroke="#000000" stroke-linecap="round" stroke-linejoin="round" stroke-width="3.000000"
	d="
M254.000000,456.500000 
	C254.879074,465.551636 251.777817,472.980469 245.021439,479.023987 
	C242.390366,481.377411 240.132919,484.154694 237.458725,486.451935 
	C235.247162,488.351837 234.693649,490.577911 235.000000,493.250000 
"/>
<path fill="none" opacity="1.000000" stroke="#000000" stroke-linecap="round" stroke-linejoin="round" stroke-width="3.000000"
	d="
M221.000000,341.500000 
	C222.738525,339.367401 222.163925,336.791534 221.904877,334.510803 
	C221.422714,330.265930 219.677185,329.166779 215.537598,330.608002 
	C213.526306,331.308197 211.130005,330.019989 209.500000,332.000000 
"/>
<path fill="none" opacity="1.000000" stroke="#000000" stroke-linecap="round" stroke-linejoin="round" stroke-width="3.000000"
	d="
M104.000000,448.000000 
	C109.483429,449.237335 114.576782,450.896851 118.106926,455.924927 
	C119.821617,458.367218 122.666664,456.875824 125.000000,456.000000 
"/>
<path fill="none" opacity="1.000000" stroke="#000000" stroke-linecap="round" stroke-linejoin="round" stroke-width="3.000000"
	d="
M247.000015,428.000000 
	C244.333359,435.166687 241.666687,442.333344 239.000015,449.500000 
"/>
<path fill="none" opacity="1.000000" stroke="#000000" stroke-linecap="round" stroke-linejoin="round" stroke-width="3.000000"
	d="
M535.500000,429.000000 
	C534.360352,428.644257 533.535156,427.545502 531.969055,428.446167 
	C527.056274,431.271637 522.115845,434.240601 515.987915,432.543518 
	C515.411621,432.383911 514.666687,432.833344 514.000000,433.000000 
"/>
<path fill="none" opacity="1.000000" stroke="#000000" stroke-linecap="round" stroke-linejoin="round" stroke-width="3.000000"
	d="
M126.000000,416.500000 
	C126.113213,420.105408 125.616760,423.672638 127.912987,427.058990 
	C130.317886,430.605652 128.680725,435.015289 129.360184,439.023712 
	C130.212433,444.051514 133.017548,448.396667 133.614395,453.486572 
	C133.839066,455.402649 134.100235,457.166656 133.500000,459.000000 
"/>
<path fill="none" opacity="1.000000" stroke="#000000" stroke-linecap="round" stroke-linejoin="round" stroke-width="3.000000"
	d="
M240.000000,355.000000 
	C234.518951,354.690643 231.457367,349.959564 227.758759,347.158356 
	C221.953735,342.761749 215.330460,339.429321 210.098541,334.397552 
	C206.932175,331.352325 204.492172,331.466339 201.500000,334.000000 
"/>
<path fill="none" opacity="1.000000" stroke="#000000" stroke-linecap="round" stroke-linejoin="round" stroke-width="3.000000"
	d="
M42.500000,446.000000 
	C36.971218,445.957611 31.523338,446.245117 26.469055,448.942017 
	C25.690672,449.357330 24.500000,449.000000 23.500000,449.000000 
"/>
<path fill="none" opacity="1.000000" stroke="#000000" stroke-linecap="round" stroke-linejoin="round" stroke-width="3.000000"
	d="
M88.500000,375.000000 
	C83.666664,372.666656 78.700256,370.562653 74.071564,367.876678 
	C72.432762,366.925720 71.015640,367.262939 69.500000,367.000000 
"/>
<path fill="none" opacity="1.000000" stroke="#000000" stroke-linecap="round" stroke-linejoin="round" stroke-width="3.000000"
	d="
M180.500000,419.000000 
	C177.960266,419.035278 174.710556,413.745819 172.894836,420.384491 
	C175.813858,424.008179 179.044373,427.331848 184.500000,427.000000 
"/>
<path fill="none" opacity="1.000000" stroke="#000000" stroke-linecap="round" stroke-linejoin="round" stroke-width="3.000000"
	d="
M128.500000,438.000000 
	C122.837959,442.677948 122.166153,445.529236 123.880203,452.529327 
	C124.516182,455.126617 125.491791,456.474274 127.995705,457.019714 
	C132.101791,457.914093 134.561417,461.767517 138.500000,463.000000 
"/>
<path fill="none" opacity="1.000000" stroke="#000000" stroke-linecap="round" stroke-linejoin="round" stroke-width="3.000000"
	d="
M113.500000,419.000000 
	C117.444580,419.380219 118.476036,422.068481 119.050507,425.491516 
	C120.089676,431.683502 123.362511,434.807007 128.500000,435.000000 
"/>
<path fill="none" opacity="1.000000" stroke="#000000" stroke-linecap="round" stroke-linejoin="round" stroke-width="3.000000"
	d="
M162.000000,284.500000 
	C164.550949,289.944977 163.934982,295.762543 164.000000,301.500000 
"/>
<path fill="none" opacity="1.000000" stroke="#000000" stroke-linecap="round" stroke-linejoin="round" stroke-width="3.000000"
	d="
M195.000000,447.000000 
	C193.511719,447.272064 192.016098,447.091309 190.475281,447.356201 
	C187.025223,447.949432 184.446289,445.630890 184.040359,441.995483 
	C183.657196,438.564087 182.488342,437.096313 178.988098,438.977844 
	C176.190704,440.481598 175.973053,438.565674 176.000000,436.500000 
"/>
<path fill="none" opacity="1.000000" stroke="#000000" stroke-linecap="round" stroke-linejoin="round" stroke-width="3.000000"
	d="
M97.500000,383.000000 
	C102.369164,383.464172 104.464630,387.863495 105.198875,391.068970 
	C106.941429,398.676361 110.699829,404.657043 115.967918,410.031433 
	C116.217873,410.286438 116.000000,411.000000 116.000000,411.500000 
"/>
<path fill="none" opacity="1.000000" stroke="#000000" stroke-linecap="round" stroke-linejoin="round" stroke-width="3.000000"
	d="
M201.000000,417.000000 
	C199.743408,418.230194 198.524170,419.941193 196.525116,418.465973 
	C194.721878,417.135254 193.013824,418.490356 192.095352,419.135712 
	C188.741501,421.492310 185.105423,420.886780 181.500000,421.000000 
"/>
<path fill="none" opacity="1.000000" stroke="#000000" stroke-linecap="round" stroke-linejoin="round" stroke-width="3.000000"
	d="
M254.000000,316.500000 
	C251.356674,321.174438 250.035141,326.289490 249.000000,331.500000 
"/>
<path fill="none" opacity="1.000000" stroke="#000000" stroke-linecap="round" stroke-linejoin="round" stroke-width="3.000000"
	d="
M426.000000,556.500000 
	C427.666656,560.000000 429.050110,563.680725 431.119171,566.923950 
	C432.157471,568.551514 431.737061,569.984375 432.000000,571.500000 
"/>
<path fill="none" opacity="1.000000" stroke="#000000" stroke-linecap="round" stroke-linejoin="round" stroke-width="3.000000"
	d="
M160.000000,410.500000 
	C159.903030,412.339386 160.619461,413.917603 162.021576,414.971283 
	C165.947189,417.921265 166.971481,421.307007 164.000000,425.500000 
"/>
<path fill="none" opacity="1.000000" stroke="#000000" stroke-linecap="round" stroke-linejoin="round" stroke-width="3.000000"
	d="
M650.000000,222.500000 
	C650.362976,228.308319 645.761292,230.475388 641.906433,232.847961 
	C640.647156,233.622986 639.885681,234.529465 639.000000,235.500000 
"/>
<path fill="none" opacity="1.000000" stroke="#000000" stroke-linecap="round" stroke-linejoin="round" stroke-width="3.000000"
	d="
M302.500000,445.000000 
	C297.500000,445.000000 292.500000,445.000000 287.500000,445.000000 
"/>
<path fill="none" opacity="1.000000" stroke="#000000" stroke-linecap="round" stroke-linejoin="round" stroke-width="3.000000"
	d="
M142.500000,477.000000 
	C138.473999,477.707581 135.528152,476.210419 132.904663,473.079895 
	C131.516586,471.423645 130.433289,468.820892 127.500000,469.000000 
"/>
<path fill="none" opacity="1.000000" stroke="#000000" stroke-linecap="round" stroke-linejoin="round" stroke-width="3.000000"
	d="
M228.999985,316.500000 
	C228.666641,317.000000 227.969223,317.575378 228.054779,317.988647 
	C229.275192,323.883453 225.617233,327.056549 221.500000,330.000000 
"/>
<path fill="none" opacity="1.000000" stroke="#000000" stroke-linecap="round" stroke-linejoin="round" stroke-width="3.000000"
	d="
M640.000000,224.500000 
	C638.915100,229.318344 634.599609,229.716644 630.980042,230.941055 
	C629.847534,231.324173 628.416809,230.792114 627.500000,232.000000 
"/>
<path fill="none" opacity="1.000000" stroke="#000000" stroke-linecap="round" stroke-linejoin="round" stroke-width="3.000000"
	d="
M233.000000,482.000000 
	C230.270233,480.072723 226.920319,480.221710 224.632401,481.704315 
	C222.477448,483.100739 220.563232,482.752899 218.500000,483.000000 
"/>
<path fill="none" opacity="1.000000" stroke="#000000" stroke-linecap="round" stroke-linejoin="round" stroke-width="3.000000"
	d="
M380.500000,559.000000 
	C377.112000,559.571533 374.563385,557.469238 372.082092,555.872437 
	C370.455963,554.825989 369.015656,555.262939 367.500000,555.000000 
"/>
<path fill="none" opacity="1.000000" stroke="#000000" stroke-linecap="round" stroke-linejoin="round" stroke-width="3.000000"
	d="
M202.500000,469.000000 
	C198.166672,469.000000 193.833328,469.000000 189.500000,469.000000 
"/>
<path fill="none" opacity="1.000000" stroke="#000000" stroke-linecap="round" stroke-linejoin="round" stroke-width="3.000000"
	d="
M164.000000,304.500000 
	C164.000000,308.833344 164.000000,313.166656 164.000000,317.500000 
"/>
<path fill="none" opacity="1.000000" stroke="#000000" stroke-linecap="round" stroke-linejoin="round" stroke-width="3.000000"
	d="
M258.500000,673.000000 
	C255.112015,673.571533 252.563416,671.469177 250.082077,669.872437 
	C248.455963,668.826050 247.015640,669.262939 245.500000,669.000000 
"/>
<path fill="none" opacity="1.000000" stroke="#000000" stroke-linecap="round" stroke-linejoin="round" stroke-width="3.000000"
	d="
M151.000000,270.500000 
	C154.040390,274.805359 159.136414,277.687622 160.000000,283.500000 
"/>
<path fill="none" opacity="1.000000" stroke="#000000" stroke-linecap="round" stroke-linejoin="round" stroke-width="3.000000"
	d="
M194.000000,406.500000 
	C194.100693,407.183167 193.626678,408.126251 194.509140,408.476990 
	C197.813339,409.790314 199.807419,412.408844 200.906616,415.532867 
	C201.588959,417.472168 202.341812,415.799408 203.000000,416.000000 
"/>
<path fill="none" opacity="1.000000" stroke="#000000" stroke-linecap="round" stroke-linejoin="round" stroke-width="3.000000"
	d="
M388.000000,432.500000 
	C390.245422,437.254578 393.745422,440.754578 398.500000,443.000000 
"/>
<path fill="none" opacity="1.000000" stroke="#000000" stroke-linecap="round" stroke-linejoin="round" stroke-width="3.000000"
	d="
M202.500000,356.000000 
	C197.150879,358.915985 194.586349,363.585236 194.000000,369.500000 
"/>
<path fill="none" opacity="1.000000" stroke="#000000" stroke-linecap="round" stroke-linejoin="round" stroke-width="3.000000"
	d="
M244.500000,473.000000 
	C239.944473,474.628510 237.366394,479.099609 233.000000,481.000000 
"/>
<path fill="none" opacity="1.000000" stroke="#000000" stroke-linecap="round" stroke-linejoin="round" stroke-width="3.000000"
	d="
M542.000000,300.500000 
	C542.000000,304.166656 542.000000,307.833344 542.000000,311.500000 
"/>
<path fill="none" opacity="1.000000" stroke="#000000" stroke-linecap="round" stroke-linejoin="round" stroke-width="3.000000"
	d="
M234.000000,554.500000 
	C234.504547,558.982361 238.790237,561.402283 240.000000,565.500000 
"/>
<path fill="none" opacity="1.000000" stroke="#000000" stroke-linecap="round" stroke-linejoin="round" stroke-width="3.000000"
	d="
M382.000000,420.500000 
	C381.305420,424.904083 385.375916,427.575409 386.000000,431.500000 
"/>
<path fill="none" opacity="1.000000" stroke="#000000" stroke-linecap="round" stroke-linejoin="round" stroke-width="3.000000"
	d="
M200.500000,639.000000 
	C196.833328,639.000000 193.166672,639.000000 189.500000,639.000000 
"/>
<path fill="none" opacity="1.000000" stroke="#000000" stroke-linecap="round" stroke-linejoin="round" stroke-width="3.000000"
	d="
M192.000000,386.500000 
	C192.624069,390.424591 196.694595,393.095917 196.000000,397.500000 
"/>
<path fill="none" opacity="1.000000" stroke="#000000" stroke-linecap="round" stroke-linejoin="round" stroke-width="3.000000"
	d="
M554.000000,222.500000 
	C553.375916,226.424576 549.305420,229.095901 550.000000,233.500000 
"/>
<path fill="none" opacity="1.000000" stroke="#000000" stroke-linecap="round" stroke-linejoin="round" stroke-width="3.000000"
	d="
M204.000000,438.500000 
	C204.000000,442.166656 204.000000,445.833344 204.000000,449.500000 
"/>
<path fill="none" opacity="1.000000" stroke="#000000" stroke-linecap="round" stroke-linejoin="round" stroke-width="3.000000"
	d="
M264.500000,307.000000 
	C260.412323,308.578979 257.578979,311.412323 256.000000,315.500000 
"/>
<path fill="none" opacity="1.000000" stroke="#000000" stroke-linecap="round" stroke-linejoin="round" stroke-width="3.000000"
	d="
M182.500000,378.000000 
	C186.188705,379.311310 188.694595,381.805389 190.000000,385.500000 
"/>
<path fill="none" opacity="1.000000" stroke="#000000" stroke-linecap="round" stroke-linejoin="round" stroke-width="3.000000"
	d="
M368.500000,473.000000 
	C365.030090,472.723969 362.969910,469.276031 359.500000,469.000000 
"/>
<path fill="none" opacity="1.000000" stroke="#000000" stroke-linecap="round" stroke-linejoin="round" stroke-width="3.000000"
	d="
M384.500000,529.000000 
	C381.600830,530.120361 378.813995,531.746338 375.500000,531.000000 
"/>
<path fill="none" opacity="1.000000" stroke="#000000" stroke-linecap="round" stroke-linejoin="round" stroke-width="3.000000"
	d="
M162.000000,324.500000 
	C162.000000,327.500000 162.000000,330.500000 162.000000,333.500000 
"/>
<path fill="none" opacity="1.000000" stroke="#000000" stroke-linecap="round" stroke-linejoin="round" stroke-width="3.000000"
	d="
M358.500000,467.000000 
	C355.030090,466.723969 352.969910,463.276031 349.500000,463.000000 
"/>
<path fill="none" opacity="1.000000" stroke="#000000" stroke-linecap="round" stroke-linejoin="round" stroke-width="3.000000"
	d="
M176.000000,438.500000 
	C172.121475,438.025757 171.044113,442.842590 167.500000,443.000000 
"/>
<path fill="none" opacity="1.000000" stroke="#000000" stroke-linecap="round" stroke-linejoin="round" stroke-width="3.000000"
	d="
M176.000000,626.500000 
	C175.791336,629.330872 176.476135,632.214294 175.500000,635.000000 
"/>
<path fill="none" opacity="1.000000" stroke="#000000" stroke-linecap="round" stroke-linejoin="round" stroke-width="3.000000"
	d="
M208.000000,458.500000 
	C208.713654,461.154907 210.896378,463.442566 210.000000,466.500000 
"/>
<path fill="none" opacity="1.000000" stroke="#000000" stroke-linecap="round" stroke-linejoin="round" stroke-width="3.000000"
	d="
M76.000000,429.500000 
	C75.084061,426.082611 72.917397,423.915955 69.500000,423.000000 
"/>
<path fill="none" opacity="1.000000" stroke="#000000" stroke-linecap="round" stroke-linejoin="round" stroke-width="3.000000"
	d="
M182.000000,644.500000 
	C182.915939,647.917419 185.082611,650.084045 188.500000,651.000000 
"/>
<path fill="none" opacity="1.000000" stroke="#000000" stroke-linecap="round" stroke-linejoin="round" stroke-width="3.000000"
	d="
M572.500000,201.000000 
	C569.082581,201.915939 566.915955,204.082611 566.000000,207.500000 
"/>
<path fill="none" opacity="1.000000" stroke="#000000" stroke-linecap="round" stroke-linejoin="round" stroke-width="3.000000"
	d="
M108.000000,380.500000 
	C107.684212,383.172516 109.262772,386.476471 105.500000,388.000000 
"/>
<path fill="none" opacity="1.000000" stroke="#000000" stroke-linecap="round" stroke-linejoin="round" stroke-width="3.000000"
	d="
M256.500000,349.000000 
	C253.082611,349.915955 250.915939,352.082611 250.000000,355.500000 
"/>
<path fill="none" opacity="1.000000" stroke="#000000" stroke-linecap="round" stroke-linejoin="round" stroke-width="3.000000"
	d="
M95.000000,344.000000 
	C98.301430,344.464508 98.831284,349.086395 102.500000,349.000000 
"/>
<path fill="none" opacity="1.000000" stroke="#000000" stroke-linecap="round" stroke-linejoin="round" stroke-width="3.000000"
	d="
M118.000000,412.500000 
	C117.907700,415.032135 118.454361,417.649475 117.000000,420.000000 
"/>
<path fill="none" opacity="1.000000" stroke="#000000" stroke-linecap="round" stroke-linejoin="round" stroke-width="3.000000"
	d="
M123.500000,359.000000 
	C121.624107,359.739716 118.155014,356.974365 118.000000,361.500000 
"/>
<path fill="none" opacity="1.000000" stroke="#000000" stroke-linecap="round" stroke-linejoin="round" stroke-width="3.000000"
	d="
M144.000000,430.500000 
	C145.096268,433.337036 142.104782,435.006134 142.000000,437.500000 
"/>
<path fill="none" opacity="1.000000" stroke="#000000" stroke-linecap="round" stroke-linejoin="round" stroke-width="3.000000"
	d="
M334.500000,537.000000 
	C332.006134,536.895203 330.337036,533.903748 327.500000,535.000000 
"/>
<path fill="none" opacity="1.000000" stroke="#000000" stroke-linecap="round" stroke-linejoin="round" stroke-width="3.000000"
	d="
M242.000000,566.500000 
	C241.503326,569.879028 246.496674,570.120972 246.000000,573.500000 
"/>
<path fill="none" opacity="1.000000" stroke="#000000" stroke-linecap="round" stroke-linejoin="round" stroke-width="3.000000"
	d="
M266.000000,412.500000 
	C265.000000,414.833344 264.000000,417.166656 263.000000,419.500000 
"/>
<path fill="none" opacity="1.000000" stroke="#000000" stroke-linecap="round" stroke-linejoin="round" stroke-width="3.000000"
	d="
M227.000000,444.500000 
	C225.261475,446.632599 226.276108,449.158478 226.000000,451.500000 
"/>
<path fill="none" opacity="1.000000" stroke="#000000" stroke-linecap="round" stroke-linejoin="round" stroke-width="3.000000"
	d="
M248.000000,574.500000 
	C247.503326,577.879028 252.496674,578.120972 252.000000,581.500000 
"/>
<path fill="none" opacity="1.000000" stroke="#000000" stroke-linecap="round" stroke-linejoin="round" stroke-width="3.000000"
	d="
M562.000000,210.500000 
	C562.496704,213.879059 557.503296,214.120941 558.000000,217.500000 
"/>
<path fill="none" opacity="1.000000" stroke="#000000" stroke-linecap="round" stroke-linejoin="round" stroke-width="3.000000"
	d="
M242.000000,390.500000 
	C241.503326,393.879059 246.496674,394.120941 246.000000,397.500000 
"/>
<path fill="none" opacity="1.000000" stroke="#000000" stroke-linecap="round" stroke-linejoin="round" stroke-width="3.000000"
	d="
M96.500000,381.000000 
	C93.120949,381.496674 92.879051,376.503326 89.500000,377.000000 
"/>
<path fill="none" opacity="1.000000" stroke="#000000" stroke-linecap="round" stroke-linejoin="round" stroke-width="3.000000"
	d="
M114.000000,366.500000 
	C113.895218,368.993866 110.903740,370.662964 112.000000,373.500000 
"/>
<path fill="none" opacity="1.000000" stroke="#000000" stroke-linecap="round" stroke-linejoin="round" stroke-width="3.000000"
	d="
M210.000000,625.000000 
	C210.000000,627.166687 210.000000,629.333313 210.000000,631.500000 
"/>
<path fill="none" opacity="1.000000" stroke="#000000" stroke-linecap="round" stroke-linejoin="round" stroke-width="3.000000"
	d="
M398.000000,516.500000 
	C397.746155,519.246155 396.246155,520.746155 393.500000,521.000000 
"/>
<path fill="none" opacity="1.000000" stroke="#000000" stroke-linecap="round" stroke-linejoin="round" stroke-width="3.000000"
	d="
M181.000000,378.000000 
	C183.359268,380.714813 182.085739,382.521423 179.500000,384.000000 
"/>
<path fill="none" opacity="1.000000" stroke="#000000" stroke-linecap="round" stroke-linejoin="round" stroke-width="3.000000"
	d="
M224.000000,492.500000 
	C221.956329,495.194000 221.824036,498.312744 222.000000,501.500000 
"/>
</svg>