<svg version="1.1" id="Layer_1" xmlns="http://www.w3.org/2000/svg" xmlns:xlink="http://www.w3.org/1999/xlink" x="0px" y="0px"
	 width="100%" viewBox="0 0 912 1024" enable-background="new 0 0 912 1024" xml:space="preserve">
<path fill="#000000" opacity="1.000000" stroke="none" 
	d="
M259.087036,759.154480 
	C232.354263,775.229675 204.032547,785.853333 173.463562,790.398254 
	C155.643585,793.047729 137.854675,794.478760 119.760040,793.463196 
	C70.930794,790.722778 29.707335,753.238342 22.560637,704.685791 
	C19.688492,685.173401 23.551416,666.693542 29.437551,648.279724 
	C40.578533,613.427002 60.090290,583.373535 82.298431,554.821960 
	C88.237076,547.187073 93.797081,539.292480 99.137840,531.234131 
	C107.061378,519.278503 110.138420,505.697662 112.723907,491.874908 
	C116.789825,470.137299 117.278679,447.885986 122.474304,426.309326 
	C129.693832,396.327759 143.319000,369.489960 162.240692,345.333893 
	C187.309982,313.329559 219.545822,292.511230 259.576538,284.231537 
	C261.939117,283.742828 263.826080,282.815521 265.256958,280.644043 
	C285.679779,249.650467 316.175446,233.689331 350.612396,223.673233 
	C379.499329,215.271347 409.182281,213.292664 439.040619,212.972885 
	C455.536407,212.796219 472.036133,212.905579 488.533569,212.988968 
	C519.574646,213.145874 550.417725,215.188904 580.434265,223.871933 
	C611.105774,232.744415 639.246826,246.291748 658.806396,272.543610 
	C665.010803,280.870880 671.958008,284.448334 681.449097,286.996948 
	C721.118530,297.649323 751.609131,321.572296 774.903931,354.861145 
	C795.784912,384.700470 808.722778,417.584290 812.557434,454.110962 
	C814.461121,472.245239 816.228210,490.465088 821.041992,508.253693 
	C825.121948,523.330139 833.538147,535.740723 842.641724,547.896790 
	C858.624817,569.239075 874.955566,590.351257 886.791992,614.431213 
	C896.825989,634.844421 905.460510,655.924988 907.966736,678.632385 
	C911.554565,711.139893 901.446716,739.434387 878.293640,762.771790 
	C852.938110,788.329102 821.411865,795.764038 786.689575,793.697510 
	C766.525574,792.497375 746.649841,789.494080 727.255920,783.810242 
	C693.984924,774.059448 664.488586,757.312561 637.933472,735.163269 
	C627.675049,726.606689 617.821594,717.589783 609.009216,707.591187 
	C587.341370,683.006653 561.327576,664.779480 531.180847,652.060791 
	C510.313354,643.256958 489.746155,633.741272 469.051117,624.529419 
	C466.879181,623.562561 464.863892,622.888489 462.392792,624.003052 
	C435.067871,636.327881 407.357666,647.822815 380.468628,661.082214 
	C358.542389,671.894348 339.924683,687.241028 323.627991,705.376587 
	C304.788330,726.342102 283.533630,744.368958 259.087036,759.154480 
M775.757874,420.643097 
	C773.379028,413.341095 770.187683,406.372742 766.904114,399.453949 
	C754.783386,373.914429 738.920959,351.072510 715.178223,335.186859 
	C669.500793,304.625275 620.465332,300.732330 570.616577,322.572540 
	C506.670105,350.589386 471.709900,419.062836 481.855865,487.796051 
	C489.230408,537.753967 514.913086,576.489807 559.022217,602.033447 
	C587.706909,618.644592 618.842041,624.318115 651.482300,619.267639 
	C689.621155,613.366516 720.849060,594.865234 745.032288,564.708374 
	C747.124451,562.099426 748.767456,562.164490 751.213013,564.129089 
	C756.536987,568.406189 761.945618,572.591248 767.496338,576.567444 
	C770.473572,578.700134 770.874084,580.452209 768.413513,583.377319 
	C756.119995,597.991821 742.550598,611.162476 726.474854,621.620911 
	C691.990051,644.056091 654.304993,653.279297 613.312073,649.630249 
	C603.223999,648.732239 593.400330,646.576477 583.432251,644.668823 
	C583.440735,646.054199 584.267395,646.410461 584.930359,646.853394 
	C603.059570,658.967590 618.540039,673.999268 633.432068,689.829651 
	C677.161072,736.313904 730.056519,763.099854 794.844177,764.095886 
	C816.135132,764.423218 836.125183,760.746155 852.638672,746.338379 
	C872.193359,729.277344 882.081909,707.891602 878.732788,681.604370 
	C876.568542,664.617676 870.330261,648.751709 863.262207,633.277710 
	C852.731506,610.222900 837.560181,590.124512 822.478271,569.965027 
	C811.502319,555.293823 800.590454,540.592834 794.816406,522.778992 
	C788.349426,502.827301 786.712402,482.060760 783.696228,461.518005 
	C781.715820,448.030090 780.609253,434.377197 775.757874,420.643097 
M445.783051,502.390839 
	C449.071838,488.911224 450.998962,475.191040 450.462646,461.364075 
	C449.684082,441.289459 445.978485,421.688904 437.931244,403.120087 
	C420.984558,364.016205 393.303558,335.626404 353.615753,319.523041 
	C331.283752,310.461823 308.015045,307.874939 284.036316,310.160065 
	C260.716553,312.382416 239.033707,319.096069 219.469009,332.121399 
	C186.490845,354.076752 166.810989,385.824127 154.276733,422.414581 
	C147.666656,441.710938 146.344223,462.162537 144.280930,482.321381 
	C140.950256,514.862854 129.600876,543.764038 108.806694,569.304016 
	C91.440125,590.634155 75.569511,613.136536 64.844551,638.772461 
	C58.662758,653.548889 52.616879,668.499451 51.462162,684.606445 
	C48.540607,725.358826 79.456856,760.664185 120.471825,763.540955 
	C143.224716,765.136780 165.781494,762.668091 187.812363,756.993774 
	C230.350250,746.037720 265.487274,722.591248 295.581970,691.173523 
	C307.463104,678.770081 319.153748,666.210876 332.951965,655.858643 
	C337.262085,652.624878 341.607849,649.438660 346.185822,646.046509 
	C343.979370,644.679810 342.372986,645.391724 340.826355,645.744202 
	C300.741058,654.880676 262.059875,650.863647 224.902405,633.204407 
	C200.255081,621.490601 179.684250,604.600769 162.408646,583.536743 
	C159.755371,580.301697 159.902588,578.429382 163.345367,576.070557 
	C168.287521,572.684509 172.948410,568.885498 177.702209,565.227478 
	C182.794479,561.309143 182.714722,561.346741 186.983780,566.433716 
	C214.137512,598.789551 248.741577,617.281433 290.860260,620.379333 
	C322.893280,622.735352 352.755096,614.673462 379.599426,596.954651 
	C413.769196,574.400696 435.492554,542.820251 445.783051,502.390839 
M469.966309,380.565399 
	C502.385712,318.819580 553.662720,285.163483 623.930908,278.915894 
	C622.122803,277.024689 621.448975,276.049866 620.538391,275.414124 
	C616.583130,272.652679 612.710815,269.724731 608.535828,267.332947 
	C570.538818,245.564758 528.743042,242.252975 486.288116,242.682068 
	C473.300873,242.813339 460.301758,243.257965 447.333252,242.777878 
	C423.627014,241.900269 400.068848,242.991455 376.778137,247.473724 
	C353.192963,252.012650 330.801422,259.753784 311.279480,274.329895 
	C309.732635,275.484863 307.754608,276.284332 307.087463,279.103943 
	C380.971649,285.234222 432.929108,323.015900 464.984344,389.355713 
	C467.494385,386.796967 468.248535,383.828735 469.966309,380.565399 
M514.259277,612.133972 
	C516.686890,612.952454 518.836609,614.723877 523.371582,614.573608 
	C497.382324,593.856384 478.342499,569.419739 465.189850,539.027954 
	C451.722809,569.235046 433.076233,593.704590 407.640228,614.006042 
	C409.470398,614.261719 410.012787,614.518982 410.376068,614.362000 
	C422.900970,608.949219 435.400879,603.478638 447.926941,598.068542 
	C450.125122,597.119263 450.685425,595.472778 450.661957,593.275696 
	C450.603271,587.782349 450.804321,582.282227 450.602936,576.795776 
	C450.474731,573.302612 451.957855,571.977356 455.267365,572.003174 
	C461.926178,572.055054 468.586884,572.086121 475.244537,571.981995 
	C478.937347,571.924255 480.221161,573.624023 480.104126,577.184143 
	C479.929138,582.505859 480.132263,587.838989 480.037842,593.164856 
	C479.991211,595.793457 480.844055,597.448608 483.420502,598.551392 
	C493.515656,602.872620 503.527863,607.387573 514.259277,612.133972 
z"/>
</svg>