<svg version="1.1" id="Layer_1" xmlns="http://www.w3.org/2000/svg" xmlns:xlink="http://www.w3.org/1999/xlink" x="0px" y="0px"
	 width="100%" viewBox="0 0 912 1024" enable-background="new 0 0 912 1024" xml:space="preserve">
<path fill="#000000" opacity="1.000000" stroke="none" 
	d="
M583.633057,766.731079 
	C559.056641,779.501892 533.168335,786.365295 506.102386,789.463196 
	C490.367371,791.264160 474.619263,792.636108 458.805176,792.109070 
	C422.625946,790.903198 387.148376,785.954529 354.033997,770.135376 
	C310.161682,749.176880 281.741394,714.927612 267.775238,668.592834 
	C257.354706,634.021240 255.599609,598.669617 258.490814,562.837769 
	C262.384918,514.576782 273.191437,467.907837 289.429535,422.399933 
	C289.698151,421.647095 289.759735,420.820404 290.035400,419.440277 
	C287.145782,419.952850 285.204376,421.474548 283.225769,422.752106 
	C248.117798,445.420532 222.446823,476.247772 204.473389,513.767639 
	C189.573639,544.871155 181.355392,577.853943 176.477646,611.812500 
	C175.807114,616.480713 177.047653,620.688293 178.625702,624.944458 
	C183.484039,638.047729 188.920532,650.915527 192.583893,664.479309 
	C205.470001,712.190857 173.339340,750.089966 139.035782,757.461487 
	C111.183899,763.446533 88.390656,753.245911 70.901451,731.786377 
	C52.393833,709.077332 46.555271,682.272095 51.146553,653.760132 
	C61.552197,589.140869 82.859077,527.956482 112.241386,469.619873 
	C136.787552,420.885132 167.754623,376.701752 208.022324,339.457642 
	C241.134491,308.831787 278.750214,285.685364 321.736206,271.669281 
	C341.874390,265.103027 362.519226,260.671356 383.641907,258.654694 
	C387.219147,258.313171 390.268707,257.033600 393.084961,254.649628 
	C407.997406,242.026184 424.370941,231.882706 443.475098,226.973816 
	C469.484894,220.290512 493.625580,225.755905 516.352844,239.104828 
	C526.158447,244.864151 535.110596,251.798706 543.468262,259.500580 
	C545.070618,260.977203 546.650330,262.286133 548.951355,262.724915 
	C595.336182,271.569794 636.808594,291.211884 674.096497,319.942505 
	C717.118164,353.091034 750.423584,394.590485 777.503113,441.288391 
	C814.101379,504.401184 838.625793,572.075256 852.606323,643.589722 
	C857.687927,669.583862 856.416443,695.031433 843.231567,718.817871 
	C832.584961,738.025391 817.326843,751.943604 795.603882,757.128662 
	C766.550781,764.063293 743.657471,753.001587 725.504761,730.802734 
	C710.159546,712.037109 707.430725,690.315308 712.275208,667.147400 
	C714.468933,656.656616 717.628357,646.386169 722.333862,636.877502 
	C728.880798,623.647827 729.495728,610.388428 726.699036,596.213989 
	C720.972839,567.191223 713.185303,538.899597 700.120422,512.219788 
	C688.060852,487.592834 672.492126,465.527924 652.702393,446.494873 
	C651.881226,445.705139 650.969482,445.009552 649.511719,443.769836 
	C649.905396,449.292542 651.979492,453.616852 653.229492,458.122375 
	C661.114380,486.542633 667.625305,515.247131 670.810425,544.608765 
	C675.014160,583.360840 675.607483,621.962158 665.661438,660.116638 
	C653.405762,707.131348 627.414490,743.524780 583.633057,766.731079 
M373.883179,304.367889 
	C335.577301,355.533051 311.090912,413.181488 294.296539,474.401611 
	C285.289032,507.236572 279.864655,540.638062 277.951782,574.690125 
	C276.246094,605.054504 278.238464,634.899780 287.341095,664.023132 
	C299.576508,703.169617 323.601349,732.321594 360.563477,750.823303 
	C387.326508,764.219727 416.008026,769.726562 445.340698,771.370178 
	C481.058563,773.371460 516.577637,771.181458 550.837830,759.248352 
	C584.613708,747.483948 611.712524,727.405151 629.879395,696.098877 
	C646.373718,667.674866 652.042664,636.427063 653.627991,604.198669 
	C654.504272,586.386230 653.445496,568.573547 651.630554,550.846436 
	C648.692505,522.149414 642.885071,493.957550 634.931152,466.270508 
	C621.163879,418.347473 602.220459,372.598145 575.512878,330.318146 
	C558.040466,302.658142 538.049377,277.193329 510.286163,258.907745 
	C483.068604,240.981522 455.183899,238.787064 426.600037,255.674667 
	C405.747650,267.994446 389.197784,284.998322 373.883179,304.367889 
M240.624603,338.146515 
	C234.272308,343.530731 227.712769,348.690613 221.602219,354.336487 
	C188.110611,385.281250 161.302826,421.440979 139.514511,461.326019 
	C105.799545,523.043640 81.975815,588.317871 71.125351,657.968567 
	C67.538040,680.996033 72.448128,702.504822 87.854820,720.618652 
	C100.027298,734.929932 115.541008,742.010864 134.514984,738.036865 
	C157.947220,733.129150 181.086563,706.662231 174.177704,674.420471 
	C170.977203,659.484619 164.856720,645.641541 159.635345,631.444519 
	C157.563538,625.811218 155.224167,620.060364 156.033188,613.996521 
	C157.526825,602.801147 159.209152,591.601196 161.514893,580.549622 
	C167.835190,550.256104 177.412827,521.039795 192.218079,493.749054 
	C216.688980,448.641418 251.135559,413.819275 298.087311,392.107452 
	C300.709869,390.894714 302.336456,389.254150 303.525818,386.684906 
	C306.946625,379.295044 310.065613,371.781281 313.684265,364.463135 
	C327.093079,337.345886 342.386902,311.449219 361.219208,287.708008 
	C362.352631,286.279114 364.218903,284.985657 363.519958,281.911743 
	C317.982941,290.342743 277.445679,309.281281 240.624603,338.146515 
M830.296631,634.110046 
	C828.489014,626.332886 826.866455,618.507141 824.842651,610.786682 
	C814.519165,571.404480 801.157715,533.093384 783.728394,496.268677 
	C759.970032,446.072021 730.534851,399.755127 690.489929,360.743317 
	C659.141785,330.203888 623.259094,306.880646 581.840820,292.361786 
	C579.132812,291.412506 576.458496,289.842987 572.941589,290.644409 
	C574.347473,294.687256 577.259277,297.307983 579.418701,300.362000 
	C602.240784,332.639282 620.274109,367.453735 634.675720,404.203766 
	C635.606506,406.579010 636.774170,408.632751 638.986694,410.130981 
	C671.580688,432.202759 696.068726,461.407227 714.195923,496.114563 
	C731.164307,528.603210 740.949402,563.347229 747.319336,599.327271 
	C749.942383,614.143311 748.192322,627.580322 742.071533,641.039856 
	C737.806641,650.418274 734.318970,660.153137 731.912109,670.239624 
	C725.859985,695.602295 734.390930,717.536011 756.016785,731.868164 
	C770.812744,741.673828 791.669373,741.400208 805.897949,731.111938 
	C823.978210,718.038635 832.812317,699.835876 834.710632,678.027832 
	C835.980530,663.440063 833.476929,649.139771 830.296631,634.110046 
z"/>
</svg>