<svg version="1.1" id="Layer_1" xmlns="http://www.w3.org/2000/svg" xmlns:xlink="http://www.w3.org/1999/xlink" x="0px" y="0px"
	 width="100%" viewBox="0 0 1044 1158" enable-background="new 0 0 1044 1158" xml:space="preserve">
<path fill="#" opacity="1.000000" stroke="none"
	d="
M825.748901,198.745880 
	C837.745972,209.371155 848.444763,221.265503 859.599915,232.714890 
	C868.885376,242.245239 879.105103,250.890305 886.376465,262.260895 
	C896.081360,277.437134 901.807495,293.721008 903.164307,311.906372 
	C905.637024,345.047638 894.315796,373.895172 877.082031,401.037079 
	C856.951538,432.741241 831.204956,459.663971 801.982605,482.780334 
	C735.972229,534.997864 685.343201,599.710999 643.731445,672.174194 
	C623.479980,707.440430 606.950073,744.539856 588.921814,780.913391 
	C555.811707,847.715881 516.996826,910.906982 464.854919,964.929077 
	C443.419891,987.136963 419.542572,1006.200073 390.464600,1017.771423 
	C372.513824,1024.914795 353.787598,1027.800293 334.779480,1024.679810 
	C313.774323,1021.231750 295.577637,1011.194824 280.131256,996.594055 
	C251.673965,969.694824 231.713638,937.508972 221.369781,899.633301 
	C217.158676,884.213684 216.510834,868.359253 216.923126,852.434998 
	C217.857285,816.353516 230.266190,783.812073 247.924042,753.020996 
	C270.976471,712.823181 301.872040,679.132812 336.408295,648.657898 
	C400.006439,592.538574 463.509857,536.325867 523.261963,476.045837 
	C541.458069,457.688995 559.375732,439.144928 572.700073,416.693604 
	C588.064514,390.804932 598.543701,363.162292 604.098999,333.569977 
	C606.018372,323.345917 608.097839,313.189240 608.311401,302.316254 
	C610.668579,301.090363 611.520996,302.810303 612.457825,304.054382 
	C617.330139,310.524872 622.674133,316.575684 628.497070,322.651611 
	C625.271667,347.743134 618.708435,371.614258 609.000793,394.599335 
	C599.147095,417.930573 586.083923,439.348938 569.878784,458.815063 
	C565.942749,463.543152 562.115845,468.387360 557.613098,472.624817 
	C547.537292,482.107117 538.905029,492.984650 528.798279,502.440155 
	C510.800781,519.277954 493.433228,536.776306 475.455353,553.628479 
	C456.027832,571.839539 436.436279,589.888916 416.515106,607.557068 
	C395.223938,626.440247 373.765442,645.140930 352.497375,664.049072 
	C320.883209,692.155334 292.097961,722.811401 270.000122,759.213318 
	C268.184875,762.203674 266.533997,765.287354 264.694092,768.704590 
	C253.317520,790.530151 244.412811,812.801697 240.921844,836.971741 
	C238.430786,854.218933 238.877319,871.371643 242.318542,888.834900 
	C242.459320,889.451721 242.522034,889.692932 242.684082,890.287231 
	C242.993484,891.550842 243.085068,892.483521 243.385834,893.711060 
	C243.533539,894.236572 243.593567,894.444580 243.732300,894.963745 
	C243.985413,896.087769 244.064713,896.919189 244.383926,898.012085 
	C244.539124,898.495911 244.600494,898.689636 244.740570,899.177612 
	C244.990601,900.259338 245.074585,901.065002 245.414993,902.129089 
	C245.586380,902.616455 245.655869,902.813232 245.824707,903.310425 
	C246.179031,904.439636 246.425629,905.271362 246.927765,906.379761 
	C253.595306,925.623413 263.186523,942.880310 275.545837,958.594421 
	C283.591858,968.824463 292.228333,978.535767 302.673309,986.409485 
	C327.047852,1004.783936 353.488831,1008.224121 381.896881,997.117798 
	C402.234406,989.166809 419.615021,976.678955 435.601013,962.104187 
	C472.391724,928.561096 500.860687,888.399780 527.126343,846.517029 
	C543.340698,820.661804 558.265137,794.067017 571.305237,766.474731 
	C581.626587,744.635132 591.482178,722.571106 602.599426,701.118896 
	C629.114624,649.953979 659.298706,601.127563 695.719116,556.332336 
	C711.919067,536.407166 729.327881,517.564941 747.952087,499.893433 
	C762.091980,486.476776 777.693237,474.722137 792.332153,461.872040 
	C817.563721,439.723877 841.393982,416.229095 859.396423,387.563446 
	C871.039185,369.024414 879.731018,349.287842 881.521301,327.131012 
	C883.110657,307.461792 878.096863,289.502991 866.642212,272.992645 
	C861.455017,265.767029 855.376282,259.920441 849.298889,253.949692 
	C840.906555,245.704559 832.372375,237.501480 824.949829,227.805969 
	C825.162048,219.063324 825.963989,210.713760 824.635803,202.371277 
	C824.457092,201.248886 824.832581,200.087402 825.748901,198.745880 
z"/>
<path fill="#" opacity="1.000000" stroke="none"
	d="
M628.111572,323.439697 
	C620.615295,317.010864 615.307007,309.142120 608.824951,301.976807 
	C606.949951,296.223206 603.378052,291.483704 601.168335,286.092560 
	C593.851685,268.241974 592.633972,249.812286 594.952820,230.831863 
	C597.432190,210.537903 601.759277,190.843170 611.690247,172.764557 
	C627.575378,143.846771 650.377319,123.430405 683.125427,115.606071 
	C699.526978,111.687355 715.943115,112.413193 732.429199,115.662262 
	C767.205627,122.515976 792.598206,143.470108 814.269226,169.886307 
	C820.808289,177.857162 823.480103,187.856552 826.001831,198.090546 
	C826.461365,208.297043 827.769287,218.167221 826.008972,228.465714 
	C826.603943,234.198135 824.621887,239.040833 823.148376,243.914993 
	C818.781616,258.359406 811.361572,271.243317 802.212891,283.601929 
	C797.047119,290.014435 791.890625,295.957184 786.274780,301.967194 
	C785.588318,302.787323 785.136536,303.344116 784.455200,304.198090 
	C784.018127,304.650421 783.826111,304.817902 783.315308,305.203491 
	C774.235657,312.571533 765.526306,319.772095 755.411255,325.042480 
	C737.944031,334.143677 719.510132,339.586487 699.835144,341.502502 
	C686.398254,342.811096 673.287598,341.697876 660.217468,339.079132 
	C650.177307,337.067474 640.823242,333.178497 632.287537,327.449982 
	C630.780518,326.438568 629.128967,325.553650 628.111572,323.439697 
z"/>
<path fill="#" opacity="0" stroke="none"
	d="
M784.809631,302.046021 
	C790.065186,295.915802 795.184753,290.065216 800.588379,284.033569 
	C803.649414,284.582275 805.262756,286.854248 806.903809,288.846191 
	C812.101562,295.155518 818.155273,300.544617 824.074280,306.139008 
	C832.059570,313.686401 838.760864,322.408691 843.533813,332.854828 
	C843.638794,336.458679 841.510864,338.751831 839.857239,341.182281 
	C827.721130,359.019684 813.508057,375.141022 798.022339,390.071075 
	C783.037048,404.518829 766.897217,417.688110 750.885681,430.996490 
	C731.910522,446.768127 714.536255,464.212799 698.170227,482.707855 
	C677.482849,506.086426 658.692017,530.877014 641.214172,556.713013 
	C626.636230,578.262207 613.348816,600.584290 600.736328,623.319824 
	C590.147095,642.408203 580.127563,661.787109 571.033508,681.640991 
	C564.583191,695.723022 558.294128,709.895630 551.362732,723.736145 
	C543.011719,740.411194 533.890198,756.699036 524.472473,772.810486 
	C504.427490,807.102539 482.520081,840.117798 457.034882,870.643616 
	C435.908905,895.947998 412.979370,919.343079 384.126099,936.012329 
	C369.242096,944.611206 353.283417,950.489563 335.945099,951.080444 
	C317.644440,951.704163 301.214539,945.724731 286.540009,934.925720 
	C270.062500,922.799805 252.920639,902.480835 242.302887,882.753723 
	C243.492111,885.321472 243.560699,887.919495 242.244141,890.798706 
	C238.590195,882.953369 238.499420,874.267090 238.112808,865.782349 
	C236.517303,830.766846 246.999313,798.783264 263.765686,768.223877 
	C275.286102,754.665955 287.199219,741.921326 299.353943,729.390442 
	C303.537659,725.077332 308.466736,721.618896 312.623566,717.290344 
	C313.757660,716.109375 315.088623,714.936340 317.227386,716.084106 
	C317.888428,718.312012 316.597076,719.487671 315.560547,720.774048 
	C299.448029,740.770569 286.392639,762.600769 277.256226,786.600708 
	C269.625549,806.645020 264.391022,827.341675 265.402863,849.009521 
	C266.187866,865.819214 270.071350,881.685242 283.132690,893.777771 
	C290.523834,900.620667 299.241333,904.116516 309.290863,904.716797 
	C329.718079,905.937012 347.546509,898.721619 364.219513,887.906372 
	C394.370087,868.348328 416.868286,841.740540 434.665314,810.856812 
	C449.244080,785.557922 458.891937,758.603394 461.497528,729.399780 
	C462.586975,717.189514 461.315796,705.082092 457.544220,693.360535 
	C454.240479,683.092957 448.282959,674.623108 439.330170,667.876465 
	C438.136261,663.916992 441.274780,662.739319 443.292694,661.057312 
	C462.357269,645.165771 482.628662,630.849243 502.431305,615.921021 
	C519.613220,602.968506 535.819824,588.888611 550.493652,573.168762 
	C572.552429,549.537537 592.594360,524.255798 611.087097,497.727234 
	C630.622314,469.703156 648.506531,440.675903 664.856323,410.692322 
	C665.414795,409.668060 665.956177,408.632324 667.228516,407.732758 
	C677.976440,404.305298 687.200989,398.577271 696.151489,392.633026 
	C725.150269,373.374237 750.639160,350.309967 771.329407,322.091705 
	C775.559509,316.322479 779.090149,310.108093 783.706787,304.200134 
	C783.929260,303.923462 783.995728,303.944183 783.962158,303.953308 
	C784.497437,303.562775 784.505005,302.907593 784.809631,302.046021 
z"/>
<path fill="#" opacity="0" stroke="none"
	d="
M241.989349,891.030029 
	C242.234619,887.396484 241.908813,883.786560 241.255020,880.077271 
	C246.080200,886.036865 249.397354,892.934204 253.936966,899.037292 
	C263.797516,912.293701 274.456482,924.729248 287.953949,934.441711 
	C302.391785,944.830811 318.495605,950.693237 336.341888,949.846008 
	C355.490143,948.936951 372.766968,941.834778 388.899963,931.712952 
	C407.187469,920.239380 423.293396,906.131653 437.944061,890.421936 
	C466.231323,860.089966 490.171997,826.475769 511.963135,791.250732 
	C524.822021,770.464539 536.920776,749.239624 548.031494,727.504333 
	C557.709778,708.571106 566.132080,688.998108 575.219727,669.760010 
	C583.464600,652.306030 592.690186,635.356689 602.032227,618.473450 
	C613.134399,598.409119 625.046204,578.834778 637.661682,559.684509 
	C648.802917,542.772156 660.686157,526.381287 673.193726,510.477081 
	C689.111938,490.235901 706.124207,470.899658 724.648071,452.991089 
	C738.362610,439.732117 752.754150,427.204590 767.806519,415.445740 
	C773.290222,411.161987 778.487854,406.492859 783.635620,401.801605 
	C803.806335,383.419342 822.759460,363.922913 838.213013,341.284241 
	C839.886841,338.832153 841.350464,336.236603 842.942200,333.355988 
	C845.312622,326.584808 849.221313,320.960449 852.191589,314.852386 
	C858.051575,302.801880 862.237793,290.300201 863.757080,276.953705 
	C863.984863,274.952820 864.225098,272.955963 866.648071,271.912598 
	C875.376709,282.312927 880.091309,294.253754 881.947083,307.250336 
	C886.756531,340.931946 873.331604,369.315613 855.239807,396.092224 
	C839.692566,419.102631 819.962524,438.368317 799.614868,457.094330 
	C784.828186,470.702484 768.696960,482.687073 753.932312,496.336456 
	C734.725525,514.092468 716.957458,533.090759 700.192139,553.131470 
	C681.308167,575.704773 664.206604,599.552551 648.269470,624.246826 
	C634.298157,645.895020 621.707703,668.351074 609.386230,690.983643 
	C592.738281,721.563293 579.522888,753.788269 563.644836,784.722412 
	C542.441528,826.031555 518.276489,865.539978 490.466583,902.735474 
	C476.846863,920.951721 462.357025,938.552551 445.961670,954.355225 
	C429.068634,970.637695 411.012360,985.491516 389.366852,995.380005 
	C376.978363,1001.039490 364.065552,1004.808289 350.529816,1004.846436 
	C332.551697,1004.897095 316.326324,998.682068 302.210724,987.619385 
	C284.079376,973.409668 270.224670,955.544128 258.731415,935.672180 
	C253.409302,926.470276 249.400040,916.782410 245.996048,906.440552 
	C245.316177,905.341797 245.621597,904.360779 245.183746,903.241455 
	C244.959442,902.984985 245.011215,902.993835 245.003326,903.018921 
	C244.167007,901.981140 244.701950,900.697327 244.193329,899.269653 
	C243.958664,898.994629 244.005127,898.997742 243.993698,899.018066 
	C243.175385,897.972900 243.698715,896.696472 243.194290,895.272095 
	C242.960220,894.998291 243.003769,894.998352 242.991730,895.016541 
	C242.176590,893.966675 242.695786,892.691589 242.195679,891.267212 
	C241.958969,890.995300 242.001770,891.010376 241.989349,891.030029 
z"/>
<path fill="#" opacity="0" stroke="none"
	d="
M783.573975,303.908508 
	C782.388123,309.676697 778.714600,314.300140 775.315369,318.906616 
	C764.761536,333.208435 753.479858,346.939911 740.403259,359.056183 
	C719.746216,378.196198 697.765808,395.500488 672.018066,407.457336 
	C670.881836,407.984985 669.865112,409.165985 668.162354,408.218750 
	C667.201599,405.775757 668.595886,404.118835 669.439514,402.380371 
	C672.270447,396.546967 675.273987,390.797455 678.090637,384.957245 
	C683.446655,373.851532 679.695740,361.685120 669.484070,356.821625 
	C659.112854,351.882141 647.911743,356.103210 642.334961,367.116913 
	C631.366455,388.778778 619.519409,409.950653 606.942993,430.716522 
	C605.567078,432.988403 604.214233,435.289673 602.009644,437.401001 
	C589.382324,445.349396 578.787048,455.269348 567.860718,464.753296 
	C565.235229,467.032104 563.963501,470.535492 562.179382,473.536987 
	C551.841858,490.928375 539.664734,506.829529 525.805115,521.641296 
	C510.883850,537.587830 495.514832,553.081970 479.782532,568.174500 
	C459.972107,587.179260 440.373077,606.432129 419.735107,624.565857 
	C417.484161,626.543701 415.367889,628.677429 413.254883,631.278931 
	C412.901733,631.727966 412.749146,631.895935 412.334534,632.274780 
	C410.330780,633.309021 408.532104,634.069214 407.817078,636.495789 
	C405.427246,640.970337 400.977081,642.633606 397.667969,645.596497 
	C387.541504,654.663452 377.044220,663.331787 367.818970,673.368103 
	C365.546143,675.840759 362.765839,677.654785 359.614746,679.556396 
	C345.369080,689.556641 332.882202,701.040894 320.988342,713.206604 
	C319.951050,714.267578 319.144928,715.598938 317.338135,716.091919 
	C311.477356,718.569763 307.656342,723.313354 303.408783,727.329468 
	C290.749390,739.298889 279.022430,752.195374 267.853363,765.583313 
	C267.014648,766.588623 266.139160,767.648621 264.387482,767.988159 
	C269.663574,755.735718 277.573395,744.882080 285.472260,734.030151 
	C301.872223,711.498657 321.053986,691.422302 341.295197,672.420349 
	C356.526733,658.121460 372.708679,644.838013 388.378845,631.002136 
	C398.707275,621.882751 408.881256,612.588440 419.119232,603.366760 
	C442.823792,582.015320 466.498016,560.636169 489.377411,538.385193 
	C493.289612,534.580444 497.422028,530.941284 501.352661,527.121155 
	C514.002319,514.827332 526.955505,502.822601 539.164795,490.104645 
	C556.164795,472.396423 573.406860,454.899902 586.744263,433.975250 
	C605.732727,404.184692 618.295837,371.984222 625.000244,337.396057 
	C625.879150,332.861572 626.740540,328.323761 627.770874,323.435364 
	C643.047729,333.980316 659.984741,339.155731 678.544495,340.197449 
	C716.599487,342.333405 750.227600,331.742340 779.078918,306.575439 
	C780.305359,305.505585 781.831848,304.779694 783.573975,303.908508 
z"/>
<path fill="#" opacity="0" stroke="none"
	d="
M866.894653,271.673126 
	C863.451477,275.590790 865.066040,280.459625 864.128662,284.684509 
	C860.282043,302.020538 853.232849,317.891174 843.282104,332.852264 
	C838.437378,325.754974 833.810486,318.608307 828.190002,312.081604 
	C825.124756,308.522034 821.373047,305.855835 818.157104,302.571472 
	C812.375000,296.666199 806.837158,290.521820 801.034790,284.164917 
	C804.308655,277.793732 808.615906,272.305389 812.063538,266.226196 
	C818.608765,254.685104 822.940918,242.422729 825.765381,229.185394 
	C832.595398,234.960007 838.919189,241.219757 844.804810,247.971802 
	C848.908630,252.679779 853.911743,256.596832 858.433838,260.949646 
	C861.653564,264.048859 864.349182,267.597717 866.894653,271.673126 
z"/>
<path fill="#" opacity="0" stroke="none"
	d="
M241.944489,891.365479 
	C243.265274,891.788330 242.956848,893.097778 242.996246,894.662720 
	C241.683502,894.236145 242.089798,892.895874 241.944489,891.365479 
z"/>
<path fill="#" opacity="0" stroke="none"
	d="
M242.944641,895.367981 
	C244.256271,895.796021 243.950500,897.102966 243.995209,898.666382 
	C242.703369,898.234192 243.090881,896.898315 242.944641,895.367981 
z"/>
<path fill="#" opacity="00" stroke="none"
	d="
M243.951752,899.362671 
	C245.248657,899.797546 244.954025,901.101624 244.999237,902.670471 
	C243.805450,902.205811 244.069931,900.906494 243.951752,899.362671 
z"/>
<path fill="#" opacity="" stroke="none"
	d="
M244.973526,903.330688 
	C245.935028,903.514771 245.985916,904.443298 245.998138,905.743408 
	C245.109589,905.521667 245.020065,904.610962 244.973526,903.330688 
z"/>
<path fill="" opacity="0" stroke="none"
	d="
M683.233032,318.645996 
	C646.765503,318.684723 625.342346,298.191986 617.042236,264.204926 
	C616.534851,262.127319 616.341553,259.973022 615.996338,257.440643 
	C614.979858,251.320068 615.720337,245.570236 615.770691,239.406708 
	C616.659790,233.598236 617.346436,228.225357 618.109009,222.436691 
	C620.278137,222.038879 620.897217,223.822601 621.648865,225.186401 
	C629.480835,239.396637 642.740540,244.149490 657.621643,244.559937 
	C681.653809,245.222763 702.386536,235.969254 720.654968,220.908829 
	C734.543884,209.458908 745.183044,195.696960 749.531494,177.787384 
	C749.805542,176.658722 750.170959,175.537491 751.526611,174.645477 
	C754.406616,174.557999 755.570251,176.502640 756.962097,178.130661 
	C770.718079,194.220062 772.645508,212.878250 768.360596,232.648712 
	C764.650696,249.765915 756.163757,264.586761 744.951050,277.868042 
	C729.626709,296.019501 711.581604,310.314423 688.348083,317.105957 
	C686.754028,317.571930 685.132385,317.926056 683.233032,318.645996 
z"/>
<path fill="#" opacity="0" stroke="none"
	d="
M683.305908,318.972229 
	C683.370728,316.436676 685.648499,316.620483 687.217834,316.139832 
	C719.556946,306.234528 741.975098,284.497833 758.290283,255.881943 
	C766.135010,242.122650 770.068909,227.000946 768.928772,211.014832 
	C767.941772,197.177002 762.949707,184.942535 752.253296,175.157944 
	C750.377014,173.408371 750.636658,171.340240 750.674255,169.404053 
	C750.856750,159.997467 748.770325,151.406967 742.073120,144.368057 
	C741.162048,143.410385 740.417114,142.296707 740.711792,140.480804 
	C747.347473,140.942749 752.706787,144.515366 757.984802,147.769745 
	C772.180176,156.522491 784.923706,167.178711 795.481079,180.135834 
	C801.131409,187.070435 803.834839,195.530991 804.974487,204.387512 
	C808.220459,229.613708 798.557922,250.870712 784.006226,270.359985 
	C764.950439,295.881622 739.890320,312.181885 708.284546,317.710175 
	C700.184692,319.126984 691.962463,319.893433 683.305908,318.972229 
z"/>
<path fill="#" opacity="" stroke="none"
	d="
M740.654541,139.842133 
	C741.026672,140.582184 741.024414,141.206696 741.334717,141.497223 
	C750.862366,150.416214 752.804565,161.790268 751.948242,174.548935 
	C749.138672,184.731415 745.767273,194.208496 739.726135,202.470764 
	C723.257141,224.995010 701.228333,239.048126 674.010132,244.726059 
	C665.423096,246.517410 656.612305,246.749207 647.846985,244.843445 
	C634.552307,241.952927 624.389526,235.143051 618.424805,222.241699 
	C619.525452,206.352722 624.761719,191.951263 632.788330,178.572128 
	C646.225098,156.175095 664.869690,140.171143 691.140991,135.805481 
	C707.589966,133.072037 724.395691,133.170242 740.654541,139.842133 
z"/>
<path fill="#" opacity="1.000000" stroke="none"
	d="
M615.705078,239.289368 
	C616.001587,244.676376 616.030090,250.381668 616.024536,256.556915 
	C614.113708,251.274231 614.987366,245.434189 615.705078,239.289368 
z"/>
<path fill="#" opacity="1.000000" stroke="none"
	d="
M784.689453,301.967224 
	C784.791870,302.385742 784.638184,303.005096 784.206543,303.793457 
	C784.096802,303.364319 784.265076,302.766205 784.689453,301.967224 
z"/>
<path fill="#" opacity="1.000000" stroke="none"
	d="
M600.745972,437.250488 
	C609.841553,424.914001 616.810852,411.690186 624.080017,398.666901 
	C630.391418,387.359680 636.206482,375.776031 642.287170,364.339172 
	C647.266724,354.973358 659.062134,351.044678 669.358154,355.255859 
	C678.798218,359.116882 684.809143,371.263397 681.003296,380.864258 
	C677.403748,389.944794 672.544250,398.525848 668.098755,407.645691 
	C660.068298,421.991669 652.002991,435.912567 643.737793,449.726288 
	C631.620728,469.977631 618.404724,489.478302 604.775146,508.720825 
	C593.939880,524.018188 582.410339,538.797791 570.222107,553.004761 
	C552.366211,573.818237 533.317566,593.462585 511.531586,610.341187 
	C488.731750,628.005371 465.076324,644.544739 442.764404,662.842224 
	C441.486877,663.889893 440.426666,665.202515 439.120422,666.695923 
	C431.493866,674.346558 423.144165,680.695068 415.253418,687.571838 
	C391.928253,707.899658 370.798798,730.196594 353.088043,755.638428 
	C337.149231,778.534790 325.447479,803.450439 317.421936,830.135986 
	C315.643311,836.050110 313.866699,841.997131 308.811432,846.174072 
	C301.190674,852.470825 289.975220,853.215149 281.710327,847.956421 
	C273.352966,842.638855 269.557739,832.755737 272.424835,822.555420 
	C280.408112,794.153137 292.287415,767.466980 307.849731,742.380005 
	C320.459595,722.052429 334.941010,703.225342 351.622498,686.084045 
	C353.831757,683.813904 356.357819,681.879395 358.726837,679.241272 
	C375.053436,665.033569 389.974091,649.801880 406.837830,636.287231 
	C408.398529,634.676941 409.640320,633.156128 411.732910,632.188965 
	C411.970459,631.972168 412.000275,631.993408 411.986420,631.978516 
	C427.110016,618.122986 443.868134,606.331482 460.276794,594.126770 
	C481.136475,578.611328 501.348480,562.468323 519.367920,543.587341 
	C538.959717,523.058899 556.245300,500.727509 572.928589,477.876862 
	C580.780579,467.122162 588.086914,455.988129 595.130859,444.683685 
	C596.710510,442.148560 598.266052,439.566315 600.745972,437.250488 
z"/>
<path fill="#" opacity="0" stroke="none"
	d="
M358.632324,679.007263 
	C359.030518,681.112122 357.330109,682.144897 356.067902,683.401733 
	C329.092346,710.260193 307.639252,741.000732 291.308472,775.355957 
	C284.020447,790.687805 278.272552,806.592407 273.575317,822.885925 
	C270.288818,834.285889 276.257050,845.716858 287.230682,849.205933 
	C298.958618,852.934937 310.410645,847.223999 314.259613,835.466309 
	C319.684021,818.895752 325.175385,802.365417 333.100983,786.764648 
	C343.290466,766.707703 355.830353,748.252808 370.345947,731.068115 
	C379.476013,720.259277 388.982849,709.796631 399.394958,700.266418 
	C411.964447,688.761475 424.337494,676.978577 438.629578,667.033386 
	C449.051880,671.949829 454.364044,680.918457 457.969604,690.823975 
	C463.886353,707.079346 463.897736,723.782471 461.347351,740.826111 
	C457.983215,763.308228 450.415924,784.256592 439.837494,804.138306 
	C429.287323,823.966980 416.660950,842.351013 401.005432,858.694763 
	C386.052948,874.304565 369.653015,887.806580 350.213287,897.308472 
	C334.974884,904.756775 318.890076,908.424622 301.927490,904.965759 
	C287.987274,902.123230 278.342163,893.529907 271.861420,881.041809 
	C264.732727,867.305054 263.138794,852.506042 264.119202,837.476624 
	C265.401733,817.815918 270.586578,798.955566 278.126373,780.785828 
	C286.773224,759.948242 298.416840,740.839417 311.997070,722.859619 
	C313.590424,720.750061 316.107941,719.389893 316.965698,716.342224 
	C329.502472,702.273804 343.107971,689.782410 358.632324,679.007263 
z"/>
<path fill="#" opacity="0" stroke="none"
	d="
M600.642029,437.027466 
	C595.428711,447.770630 588.408264,457.646637 581.566956,467.594574 
	C566.248718,489.868927 549.782593,511.257935 531.989624,531.660339 
	C509.906372,556.982361 484.327332,578.211426 457.296997,597.921448 
	C442.575928,608.655701 427.955536,619.553345 414.018005,631.319458 
	C413.656616,631.624573 413.123840,631.726685 412.321777,631.943542 
	C413.057526,627.970459 416.411804,625.661133 419.304626,623.441650 
	C425.802307,618.456482 431.159851,612.299133 437.286133,606.938293 
	C447.540588,597.964905 456.854034,587.926331 466.894958,578.696533 
	C482.962830,563.926697 498.172821,548.296753 513.584900,532.869446 
	C533.137207,513.297913 550.793884,492.235901 564.146301,467.816956 
	C567.502625,461.678833 573.655701,458.236511 578.747009,453.805969 
	C585.614014,447.830139 592.508240,441.866699 600.642029,437.027466 
z"/>
<path fill="#" opacity="1.000000" stroke="none"
	d="
M411.608032,631.977661 
	C410.968140,633.765198 409.677704,635.245605 407.327820,635.965881 
	C407.332672,633.511230 408.764557,632.190247 411.608032,631.977661 
z"/>
<path fill="#C1E2F0" opacity="1.000000" stroke="none"
	d="
M667.198364,231.497345 
	C647.556580,232.641312 636.232849,217.863541 642.629333,198.194229 
	C651.290222,171.561630 670.252625,155.283585 697.453186,149.241928 
	C711.096436,146.211548 723.209717,152.313828 726.799927,162.995972 
	C728.950439,169.394440 728.828430,176.054794 726.267822,182.781998 
	C723.830322,183.553696 722.581116,181.922043 721.126221,180.948990 
	C716.468933,177.834061 711.495056,176.737732 705.942078,177.820068 
	C688.484314,181.222794 676.368042,191.533035 668.328857,206.969833 
	C664.267700,214.768051 664.320984,222.935516 667.198364,231.497345 
z"/>
<path fill="#90B1BF" opacity="1.000000" stroke="none"
	d="
M667.514221,231.897964 
	C661.384949,222.727005 663.227600,213.457535 667.878845,204.954575 
	C676.033020,190.047791 688.164917,179.953094 705.411682,176.634857 
	C713.364197,175.104813 719.704651,177.434998 725.649902,182.885117 
	C725.963379,188.457199 723.155518,192.873535 720.354065,197.118286 
	C707.825684,216.101257 691.352783,229.290558 667.514221,231.897964 
z"/>
<path fill="#FDEEE8" opacity="1.000000" stroke="none"
	d="
M461.601624,599.630737 
	C468.331177,594.455200 474.675690,589.361328 481.222015,584.541626 
	C485.366699,581.490051 492.529724,582.442322 495.404510,586.054749 
	C499.172028,590.788940 499.186188,596.912292 494.547211,600.822083 
	C486.690948,607.443481 478.352448,613.489929 470.279755,619.858032 
	C454.386047,632.395630 438.566223,645.023621 423.677490,658.768005 
	C421.362091,660.905396 418.986938,662.997192 416.488098,664.912659 
	C412.265930,668.149170 405.804962,667.484375 402.406403,663.621155 
	C398.912506,659.649536 398.723297,652.795105 402.595215,649.066589 
	C408.810699,643.081360 415.227448,637.278442 421.855408,631.753906 
	C434.848724,620.923645 447.702850,609.913147 461.601624,599.630737 
z"/>
</svg>