<svg version="1.1" id="Layer_1" xmlns="http://www.w3.org/2000/svg" xmlns:xlink="http://www.w3.org/1999/xlink" x="0px" y="0px"
	 width="100%" viewBox="0 0 912 1024" enable-background="new 0 0 912 1024" xml:space="preserve">
<path fill="#000000" opacity="1.000000" stroke="none" 
	d="
M324.638245,726.999634 
	C324.638153,598.021973 324.630035,469.544250 324.625336,341.066559 
	C324.624420,315.404358 324.563293,289.741669 324.722382,264.080414 
	C324.746002,260.276764 323.681915,258.010559 320.214478,256.178528 
	C307.209045,249.307022 304.030457,237.434006 304.962372,223.982101 
	C306.844849,196.808533 313.707306,170.843491 324.888885,146.038040 
	C335.189514,123.186897 348.239258,102.214180 367.579590,85.770607 
	C381.146759,74.235489 396.691620,66.804626 414.623474,66.022278 
	C432.475677,65.243423 448.292969,71.628746 462.255585,82.487694 
	C483.720795,99.181450 497.995697,121.345634 509.195007,145.663483 
	C519.134888,167.246658 526.017700,189.819031 528.914185,213.441528 
	C529.795532,220.629395 530.921143,227.870712 529.510620,235.290939 
	C527.847595,244.039200 523.897583,251.126663 516.071533,255.252792 
	C511.274811,257.781738 510.223022,261.098846 510.232025,266.053223 
	C510.355621,334.041870 510.325684,402.030792 510.328400,470.019653 
	C510.329285,492.182526 510.303711,514.345398 510.328003,536.508301 
	C510.330322,538.603638 509.853943,540.827820 511.086212,542.600952 
	C512.341248,542.978271 512.980103,542.412354 513.471863,541.746826 
	C523.385376,528.328369 532.716248,514.587646 539.361023,499.143250 
	C542.586609,491.646118 541.934082,485.947052 535.689575,479.980011 
	C525.945496,470.669037 526.424316,462.002716 535.869812,452.283081 
	C538.790527,449.277588 542.000854,446.644043 545.659485,444.584869 
	C549.809937,442.248810 551.192200,439.098816 550.146851,434.178711 
	C547.775757,423.018707 543.642639,412.519226 539.235596,402.088562 
	C536.569153,395.777557 534.536560,389.287109 533.220093,382.560608 
	C531.365906,373.086609 534.728882,365.115875 542.278809,361.281769 
	C551.278992,356.711182 560.732910,358.354553 567.199707,365.875610 
	C573.173462,372.823273 576.470581,381.182129 579.364624,389.755402 
	C584.491638,404.943787 586.870422,420.765503 590.337830,436.336731 
	C593.271545,449.511536 598.300781,461.755890 606.732971,472.408936 
	C623.923218,494.126740 626.934631,519.505249 624.795471,545.773560 
	C622.729065,571.148071 613.615112,593.912048 596.201233,613.006958 
	C580.100586,630.661682 559.979309,641.553589 537.383484,648.230835 
	C530.221741,650.347107 522.840759,651.744568 515.523743,653.299622 
	C513.108765,653.812805 511.569366,654.702576 511.360291,657.380005 
	C510.611328,666.972107 511.812256,675.887756 518.575134,683.511169 
	C527.859314,693.976807 531.379456,706.489563 531.326660,720.362305 
	C531.176941,759.689209 531.183228,799.017212 531.301819,838.344299 
	C531.352600,855.174561 526.888428,870.201782 515.200195,882.707764 
	C512.485596,885.612244 511.077850,888.978882 511.286621,893.135742 
	C511.545471,898.288269 511.043243,903.484924 511.402802,908.625183 
	C511.906647,915.828796 508.551514,920.734375 502.939301,924.500122 
	C494.321899,930.282166 484.474518,933.096130 474.512390,934.961609 
	C434.304901,942.490662 394.114197,943.049622 354.133514,933.238159 
	C346.840332,931.448364 339.779633,928.894653 333.450653,924.680420 
	C327.662720,920.826416 324.564270,915.804077 324.581329,908.460693 
	C324.721283,848.140686 324.643250,787.820068 324.638245,726.999634 
M336.576447,790.145691 
	C336.632874,819.940063 336.168610,849.735229 336.847656,879.529114 
	C337.047729,888.307495 336.833435,888.412292 345.167572,891.812073 
	C362.068207,898.706604 380.001099,900.547913 397.937805,901.545715 
	C414.217133,902.451233 430.577240,902.573059 446.841431,900.675049 
	C461.563538,898.956970 476.266693,897.086487 490.076660,891.165466 
	C494.619110,889.217834 498.548767,886.977356 500.123627,881.606995 
	C500.922638,878.882202 503.122742,876.415527 505.116730,874.220337 
	C513.978394,864.464905 517.740723,852.975830 517.714355,839.929993 
	C517.631836,799.098511 517.656921,758.266602 517.704773,717.434998 
	C517.715088,708.609131 515.547363,700.295288 509.743561,693.793213 
	C499.840515,682.698792 497.389923,669.869446 498.619019,655.702209 
	C499.239166,648.553711 503.239044,643.484680 510.200409,641.824280 
	C513.756531,640.976074 517.368347,640.364441 520.945557,639.601807 
	C542.985168,634.902710 563.338257,626.475037 580.121460,611.093506 
	C606.475525,586.940369 615.276367,556.188782 612.351990,521.455627 
	C611.192383,507.683411 607.873352,494.354126 598.991150,483.355164 
	C584.185669,465.021271 578.621826,443.302643 574.619202,420.803925 
	C572.167419,407.022827 568.677246,393.468964 562.349243,380.836395 
	C560.998718,378.140289 559.455078,375.537781 557.042297,373.653961 
	C555.054993,372.102295 552.993225,370.727997 550.214294,372.157959 
	C547.563782,373.521790 546.081360,375.480103 546.278503,378.497772 
	C546.386292,380.147705 546.571350,381.805328 546.889099,383.426575 
	C548.083557,389.519287 550.634766,395.142029 552.990295,400.836060 
	C557.638062,412.071075 562.359314,423.276520 563.694214,435.551208 
	C564.478455,442.761597 562.479553,448.714325 556.508423,453.084869 
	C554.088928,454.855865 551.535645,456.454559 549.197510,458.324524 
	C541.297729,464.642517 541.144958,466.304535 548.377991,473.294952 
	C555.264832,479.950836 557.913452,487.784210 554.870300,496.908783 
	C547.578857,518.771240 534.680054,537.347839 519.893127,554.678589 
	C516.645142,558.485413 511.871887,559.306458 507.016571,557.449951 
	C502.037811,555.546204 499.264832,551.863464 498.802673,546.539978 
	C498.658997,544.884583 498.734436,543.208984 498.734467,541.542603 
	C498.736786,451.046448 498.746704,360.550293 498.717896,270.054138 
	C498.717194,267.796783 499.339630,265.403290 497.943298,263.271088 
	C496.018311,262.800842 494.262939,263.382599 492.490509,263.775177 
	C480.262726,266.483582 467.823975,267.494049 455.366882,268.294922 
	C451.482239,268.544708 448.795837,266.767822 448.602783,262.657837 
	C448.417816,258.720581 450.736572,256.537537 454.507172,255.839203 
	C455.321960,255.688309 456.165924,255.694183 456.996521,255.629211 
	C472.614197,254.407364 488.101135,252.414032 503.140015,247.788452 
	C514.224976,244.378983 519.279419,237.268311 518.611389,225.798965 
	C518.389282,221.985825 517.988892,218.170044 517.425354,214.391983 
	C514.238892,193.030289 508.388855,172.420990 499.539398,152.707321 
	C489.769409,130.943085 477.877930,110.589478 459.365417,94.926743 
	C447.056824,84.512924 433.117828,77.816772 416.584137,78.390747 
	C402.075134,78.894417 389.476593,84.644257 378.242798,93.572617 
	C362.118591,106.387749 350.704193,122.918221 341.639923,141.116608 
	C328.149811,168.200836 318.796082,196.503159 318.232117,227.123398 
	C318.013153,239.013657 322.023376,244.297607 333.556030,247.890656 
	C337.844208,249.226669 342.221008,250.275574 346.532471,251.540344 
	C350.365753,252.664810 352.071564,255.415192 351.090790,259.184631 
	C350.118164,262.923035 347.245422,264.381165 343.395599,263.870056 
	C337.382233,263.071747 337.349091,263.086884 337.348541,269.273315 
	C337.342224,341.437103 337.386230,413.600952 337.248230,485.764465 
	C337.239838,490.149261 338.838776,492.465393 342.596130,494.199890 
	C357.052063,500.872986 372.581268,502.778381 388.111847,504.672119 
	C402.208252,506.390991 416.373810,505.862152 430.524689,505.757812 
	C432.415131,505.743896 435.108246,505.173553 435.297821,507.992645 
	C435.508392,511.123993 432.636627,510.964355 430.578217,511.018005 
	C408.900513,511.583191 387.305176,510.865143 365.955627,506.584351 
	C356.532166,504.694855 347.207428,502.467255 338.598572,498.210388 
	C336.651031,500.840820 337.297394,503.255341 337.295746,505.493561 
	C337.254028,562.657837 337.347565,619.822449 337.138000,676.985962 
	C337.117523,682.575317 339.036530,685.528015 344.010712,687.507629 
	C359.817078,693.798035 376.376038,696.531799 393.177460,697.555359 
	C405.468628,698.304077 417.830811,697.870789 430.160767,698.014954 
	C432.100708,698.037659 434.722046,697.727356 434.934418,700.400085 
	C435.157043,703.202087 432.536224,703.186768 430.585907,703.225281 
	C408.240326,703.666016 385.948547,703.317383 363.932739,698.740417 
	C354.846710,696.851440 345.974609,694.280884 336.667664,690.073914 
	C336.667664,723.743469 336.667664,756.502441 336.576447,790.145691 
M477.774780,901.463440 
	C430.590424,911.607727 383.852142,911.218933 337.269318,895.450745 
	C337.269318,898.002136 337.269714,900.474609 337.269226,902.947021 
	C337.267059,914.020325 337.356476,914.362793 347.590454,918.153809 
	C360.458221,922.920410 373.894806,925.423584 387.495361,926.539368 
	C409.931152,928.380005 432.415741,928.456421 454.789032,925.609985 
	C467.493683,923.993652 480.091187,921.581299 491.954315,916.438843 
	C494.365021,915.393860 497.598785,914.438171 498.034698,911.685486 
	C498.898132,906.232788 499.366791,900.612488 497.427917,894.795471 
	C490.923187,897.461670 484.962494,900.010193 477.774780,901.463440 
z"/>
<path fill="#000000" opacity="1.000000" stroke="none" 
	d="
M592.587646,569.405090 
	C585.810608,584.923096 575.778320,597.305664 562.175842,606.756287 
	C560.472961,607.939453 558.517517,609.985107 556.599243,607.432129 
	C554.656067,604.845886 557.144165,603.532043 558.850464,602.345154 
	C586.002563,583.458557 595.898560,556.263184 595.448364,524.589355 
	C595.255859,511.046051 592.472351,497.791260 583.723083,486.607727 
	C582.474304,485.011505 580.518372,482.764893 583.288025,481.092285 
	C585.818726,479.563934 587.043152,482.142517 588.371216,483.790649 
	C596.226562,493.539764 599.051758,505.166412 600.078491,517.200378 
	C601.595398,534.980164 599.605591,552.397339 592.587646,569.405090 
z"/>
<path fill="#000000" opacity="1.000000" stroke="none" 
	d="
M475.345520,344.000092 
	C475.342712,354.654449 475.377167,364.809082 475.301819,374.962921 
	C475.288269,376.788116 476.041046,379.609650 473.082367,379.611053 
	C470.248077,379.612396 470.720551,376.864624 470.717499,374.974335 
	C470.667816,344.012115 470.651733,313.049805 470.673615,282.087555 
	C470.674957,280.198853 470.266907,277.522766 473.276611,277.706726 
	C475.893646,277.866638 475.295837,280.375824 475.299988,282.074585 
	C475.349945,302.549683 475.339691,323.024902 475.345520,344.000092 
z"/>
<path fill="#000000" opacity="1.000000" stroke="none" 
	d="
M479.232422,173.682114 
	C473.250610,155.637375 465.361176,139.077209 452.596710,125.237404 
	C450.128387,122.561073 447.242340,120.271561 444.570496,117.780525 
	C443.449951,116.735832 442.253784,115.520790 443.383057,113.936119 
	C444.672882,112.126068 446.259216,112.840889 447.711670,113.914185 
	C456.004303,120.041992 462.219299,128.039276 467.717072,136.598251 
	C476.042847,149.559875 481.694092,163.739868 486.007568,178.466934 
	C486.552338,180.326874 488.058563,183.120300 484.934387,183.947632 
	C481.946136,184.738968 481.808319,181.671371 481.104767,179.769608 
	C480.415192,177.905624 479.943390,175.961090 479.232422,173.682114 
z"/>
<path fill="#000000" opacity="1.000000" stroke="none" 
	d="
M481.023254,777.747681 
	C481.014679,759.623413 481.005127,741.964539 480.997314,724.305603 
	C480.996887,723.306091 480.961304,722.303223 481.028198,721.307739 
	C481.151581,719.470764 481.167084,717.163025 483.538116,717.088623 
	C486.424988,716.997986 486.184326,719.577820 486.190277,721.516113 
	C486.231842,735.010315 486.211212,748.504761 486.210754,761.999084 
	C486.210541,767.996582 486.267334,773.994873 486.179657,779.991028 
	C486.149902,782.025818 486.812164,785.009155 483.745575,785.125488 
	C480.623962,785.243774 481.253967,782.251953 481.034210,780.210999 
	C480.963287,779.552246 481.022827,778.879395 481.023254,777.747681 
z"/>
<path fill="#000000" opacity="1.000000" stroke="none" 
	d="
M486.047974,798.676147 
	C486.149414,806.756042 486.201202,814.406006 486.184143,822.055786 
	C486.179779,824.016785 486.401398,826.652344 483.699005,826.690186 
	C481.020935,826.727722 481.079132,824.069336 481.060608,822.130249 
	C480.990723,814.813904 481.007477,807.495728 481.096405,800.179504 
	C481.114197,798.717712 481.338104,797.042114 483.003113,796.410583 
	C484.623962,795.795776 485.434906,796.895508 486.047974,798.676147 
z"/>
<path fill="#000000" opacity="1.000000" stroke="none" 
	d="
M485.666138,204.213043 
	C485.405914,201.636871 485.073547,199.504456 484.933136,197.359482 
	C484.850952,196.103683 485.498505,195.082611 486.797455,194.753387 
	C488.134766,194.414429 488.946320,195.142014 489.584930,196.270859 
	C492.253845,200.988678 489.939789,216.914688 485.925507,220.894928 
	C484.531281,222.277328 482.909332,224.263794 480.864563,222.589584 
	C478.542450,220.688385 480.667999,219.022873 481.998962,217.657883 
	C485.601593,213.963135 485.794678,209.365189 485.666138,204.213043 
z"/>
<path fill="#000000" opacity="1.000000" stroke="none" 
	d="
M470.676025,402.027893 
	C470.685272,399.044312 470.654358,396.554962 470.718414,394.068085 
	C470.758728,392.502441 471.052582,390.944672 473.110352,390.996216 
	C474.834381,391.039337 475.259613,392.377197 475.266083,393.778778 
	C475.303772,401.906891 475.307159,410.035309 475.278870,418.163483 
	C475.274048,419.545044 474.939301,420.942108 473.194824,420.998108 
	C471.165100,421.063232 470.777924,419.523254 470.757050,417.950165 
	C470.688843,412.808411 470.697113,407.665588 470.676025,402.027893 
z"/>
<path fill="#000000" opacity="1.000000" stroke="none" 
	d="
M535.636292,619.828857 
	C533.069153,620.700989 530.894531,621.520447 528.659851,622.113220 
	C527.098450,622.527405 525.600891,622.123596 524.940125,620.466003 
	C524.214844,618.646973 525.367737,617.615662 526.875732,617.051025 
	C532.298706,615.020386 537.743835,613.048279 543.195435,611.095520 
	C544.853027,610.501770 546.199036,611.046570 546.819336,612.702271 
	C547.394592,614.238037 546.445801,615.335876 545.180298,615.901550 
	C542.161438,617.250854 539.067078,618.431030 535.636292,619.828857 
z"/>
<path fill="#000000" opacity="1.000000" stroke="none" 
	d="
M463.651611,508.046234 
	C458.992126,508.693451 454.736511,509.198334 450.497192,509.815125 
	C448.484711,510.107910 446.596924,509.886719 446.176239,507.678406 
	C445.679321,505.069855 447.882446,504.975708 449.701874,504.706573 
	C454.099213,504.056061 458.478333,503.242920 462.894531,502.776855 
	C464.942291,502.560760 468.020660,500.813843 468.766968,504.203491 
	C469.519257,507.620148 465.927582,507.017883 463.651611,508.046234 
z"/>
<path fill="#000000" opacity="1.000000" stroke="none" 
	d="
M460.804016,695.677979 
	C464.061493,695.684143 468.446869,692.549316 469.225525,696.803711 
	C469.910004,700.543579 464.933716,699.696838 462.306213,700.269775 
	C458.614166,701.074768 454.816406,701.403015 451.058533,701.894714 
	C449.215515,702.135925 447.008118,702.335876 446.494965,700.112244 
	C445.871704,697.411377 448.511414,697.489136 450.102661,697.181030 
	C453.492615,696.524475 456.943359,696.181885 460.804016,695.677979 
z"/>
<path fill="#000000" opacity="1.000000" stroke="none" 
	d="
M475.337158,450.625183 
	C475.145752,452.779877 475.787048,455.181091 473.063934,455.196594 
	C470.392517,455.211853 470.750519,452.860138 470.716858,451.118134 
	C470.640167,447.152466 470.640472,443.183929 470.696289,439.217804 
	C470.717987,437.677063 471.061768,436.067474 473.047089,436.072693 
	C475.088745,436.078064 475.258423,437.748016 475.284332,439.265625 
	C475.346405,442.901337 475.326080,446.538483 475.337158,450.625183 
z"/>
<path fill="#000000" opacity="1.000000" stroke="none" 
	d="
M510.331879,626.508301 
	C508.767029,626.761536 507.626740,627.055176 506.477966,627.093201 
	C504.976257,627.142944 503.930695,626.450134 503.817627,624.799500 
	C503.728485,623.498535 504.217438,622.369019 505.503418,622.103638 
	C509.066040,621.368286 512.654724,620.738403 516.254822,620.216980 
	C517.451782,620.043579 518.608887,620.612427 518.944275,621.929993 
	C519.349487,623.522034 518.344910,624.548706 517.029541,624.964417 
	C514.986328,625.610107 512.849670,625.959900 510.331879,626.508301 
z"/>
<path fill="#000000" opacity="1.000000" stroke="none" 
	d="
M490.549377,690.478760 
	C491.276245,694.213379 488.400787,694.338440 486.407257,695.092590 
	C484.106354,695.963074 481.687347,696.543579 479.289459,697.125793 
	C478.111328,697.411743 476.990936,697.095520 476.284668,695.954163 
	C475.670715,694.961914 475.957031,694.081848 476.638092,693.257446 
	C478.170349,691.402893 487.692047,689.249817 490.549377,690.478760 
z"/>
<path fill="#000000" opacity="1.000000" stroke="none" 
	d="
M485.361694,855.993225 
	C484.497498,856.525330 483.823639,857.004272 483.314240,856.868103 
	C481.053864,856.263794 480.935516,854.275635 481.070343,852.497437 
	C481.336212,848.992004 479.624817,844.926270 482.518768,842.151367 
	C484.220490,840.519592 486.005951,842.240479 486.077393,844.403137 
	C486.201355,848.152466 486.742462,851.947571 485.361694,855.993225 
z"/>
<path fill="#000000" opacity="1.000000" stroke="none" 
	d="
M489.383423,501.470825 
	C485.887695,502.672943 482.739014,503.733337 479.546265,504.638397 
	C477.931274,505.096161 476.456848,504.620270 476.017090,502.828003 
	C475.619537,501.207642 476.836884,500.383026 478.143188,499.926453 
	C481.125793,498.883911 484.084442,497.571106 487.166901,497.070526 
	C490.503448,496.528687 492.300201,497.780365 489.383423,501.470825 
z"/>
</svg>