<svg version="1.1" id="Layer_1" xmlns="http://www.w3.org/2000/svg" xmlns:xlink="http://www.w3.org/1999/xlink" x="0px" y="0px"
	 width="100%" viewBox="0 0 912 1024" enable-background="new 0 0 912 1024" xml:space="preserve">
<path fill="#000000" opacity="1.000000" stroke="none" 
	d="
M585.255859,502.135986 
	C584.084595,510.993958 583.369324,519.452698 583.363281,527.942139 
	C583.321228,587.099243 583.439148,646.256653 583.289734,705.413391 
	C583.236450,726.523682 588.825012,745.354858 602.787048,761.624939 
	C610.857544,771.029541 613.724792,782.772278 615.252075,794.820435 
	C616.153870,801.934387 615.945068,809.115967 616.378906,816.249451 
	C617.155396,829.016357 611.351685,838.443787 602.004883,846.025330 
	C585.148682,859.698059 565.070068,866.268188 544.366516,871.222656 
	C503.370300,881.033081 461.840302,881.573181 420.238464,877.043701 
	C394.196930,874.208374 368.689423,868.516235 345.117737,856.270691 
	C339.471832,853.337585 334.179810,849.896545 329.328766,845.793213 
	C320.041718,837.937622 314.947693,828.406311 315.499695,815.729126 
	C316.080322,802.392761 316.232758,789.113525 320.770142,776.329895 
	C323.885345,767.553101 329.593719,760.281494 334.550476,752.627930 
	C342.865692,739.788513 347.015900,726.107361 346.953461,710.706909 
	C346.695404,647.051575 346.828857,583.394653 346.800171,519.738342 
	C346.789825,496.702972 341.455688,475.196167 328.195129,456.035706 
	C320.364624,444.721252 317.071045,431.899658 316.023743,418.472321 
	C315.365265,410.030334 314.793610,401.540588 315.601898,393.031921 
	C315.872589,390.182648 316.395447,387.956604 319.763184,388.171021 
	C324.226868,388.455200 324.846832,386.002045 324.830078,382.262543 
	C324.720337,357.766907 324.771210,333.270538 324.770844,308.774414 
	C324.770721,300.794464 324.772583,300.809204 332.591187,300.691986 
	C334.062317,300.669952 335.600922,301.009491 336.976715,300.142303 
	C338.141266,298.555725 336.992279,297.241272 336.371521,295.986328 
	C329.434174,281.962219 328.451416,266.925568 328.635010,251.658829 
	C328.673553,248.453171 330.400360,247.758057 333.105804,247.782852 
	C338.437744,247.831757 343.777893,247.603882 349.100830,247.824478 
	C354.044220,248.029343 355.175964,244.557007 355.313477,241.081635 
	C355.460724,237.360168 353.353577,234.823441 349.017181,235.160995 
	C347.195984,235.302750 345.350220,235.230179 343.520630,235.145996 
	C332.539032,234.640549 326.402527,225.514328 330.338440,215.242172 
	C334.277069,204.962997 341.038300,196.676788 350.272797,190.873764 
	C360.769470,184.277573 369.234528,175.781158 376.709290,166.059433 
	C384.571289,155.834000 395.273834,150.611557 407.917816,149.254990 
	C411.339264,148.887924 413.555756,147.527206 415.547729,144.637955 
	C421.810730,135.553894 430.456787,132.362503 441.179443,135.073044 
	C446.197479,136.341537 450.733063,135.058334 455.321350,133.530167 
	C466.556549,129.788147 477.810730,126.107941 489.888062,126.756607 
	C504.768982,127.555855 516.559875,133.507248 523.251953,147.457657 
	C524.384705,149.819016 525.941345,150.985947 528.369019,151.623688 
	C562.946777,160.707031 584.612366,184.533340 600.042603,215.124863 
	C604.522827,224.007187 597.829102,234.266525 587.818848,235.114685 
	C586.328552,235.240952 584.819824,235.213623 583.321838,235.173370 
	C579.139954,235.061050 577.463135,237.837723 577.664734,241.223145 
	C577.858032,244.469193 578.830444,247.934738 583.512085,247.824127 
	C588.841248,247.698227 594.180908,247.957367 599.506836,247.776581 
	C603.203674,247.651062 604.377808,249.124023 604.406799,252.771637 
	C604.528625,268.077728 603.001221,283.024475 596.118164,297.000275 
	C595.763611,297.720184 595.622986,298.545502 595.405579,299.248199 
	C597.011658,301.447021 599.224792,300.744049 601.053528,300.623383 
	C605.293335,300.343597 606.082275,302.658691 606.063599,306.168549 
	C605.998840,318.332550 606.053589,330.497101 606.047668,342.661469 
	C606.041321,355.825531 606.149353,368.991821 605.925476,382.152344 
	C605.854126,386.345459 607.027832,388.428650 611.490356,388.187378 
	C613.820679,388.061371 615.170349,389.413391 615.226624,391.888672 
	C615.613770,408.900269 615.457275,425.833923 609.759705,442.203827 
	C607.535095,448.595306 603.719604,454.071625 600.205750,459.704559 
	C592.141357,472.632233 586.972168,486.530396 585.255859,502.135986 
M452.987671,866.442993 
	C469.823730,867.175171 486.614655,866.497742 503.363159,864.731873 
	C525.942932,862.351074 548.153870,858.215576 569.257263,849.547974 
	C579.439941,845.365723 589.342712,840.502930 597.049927,832.243286 
	C601.181152,827.815857 603.731689,822.687012 603.526428,816.506348 
	C603.333069,810.682922 603.190125,804.841797 602.604309,799.051025 
	C601.506042,788.194458 599.034973,777.859558 592.269836,768.771912 
	C578.705505,750.550842 570.709106,730.385620 570.897644,707.192566 
	C571.413696,643.712708 570.180115,580.226624 571.607178,516.746826 
	C572.183655,491.103241 578.940918,467.570343 593.619873,446.342743 
	C602.926819,432.883698 602.721252,417.286560 603.158081,401.913055 
	C593.745667,400.114563 593.733643,400.114563 593.729675,390.326599 
	C593.720093,366.662415 593.627441,342.997559 593.804688,319.334717 
	C593.838440,314.824829 592.564331,313.268646 587.873352,313.279144 
	C526.214172,313.417084 464.554504,313.414001 402.895264,313.292969 
	C398.377319,313.284088 397.255768,314.927277 397.270111,319.147797 
	C397.391418,354.810303 397.336731,390.473389 397.332428,426.136322 
	C397.332184,428.138916 397.416595,430.057129 398.457489,431.922577 
	C413.683472,459.210510 419.596008,488.891205 420.071503,519.733154 
	C420.531311,549.556274 420.214752,579.391663 420.194061,609.221619 
	C420.192505,611.447327 420.740265,614.746826 417.571747,614.762024 
	C414.412323,614.777222 415.037476,611.492859 414.884155,609.252930 
	C414.827362,608.423706 414.879333,607.587097 414.879181,606.753845 
	C414.874023,578.256897 414.894592,549.759949 414.856079,521.263062 
	C414.814636,490.621460 408.732971,461.415436 393.932861,434.325562 
	C392.766327,432.190308 392.493134,430.046814 392.495850,427.637146 
	C392.520935,405.491364 392.388702,383.345520 392.358948,361.199615 
	C392.340393,347.392883 392.332489,333.584961 392.498077,319.779724 
	C392.563049,314.364777 391.956390,313.442108 386.289948,313.419189 
	C371.958618,313.361267 357.622833,313.561768 343.297699,313.250732 
	C338.257172,313.141296 336.767365,314.698090 336.786957,319.760620 
	C336.884918,345.077576 336.529297,370.396057 336.536194,395.713898 
	C336.537262,399.669281 335.650604,401.718231 331.321472,401.242828 
	C328.691956,400.954041 327.301575,402.200562 327.358032,405.031036 
	C327.666748,420.502502 329.331940,435.550598 338.466248,448.850861 
	C352.675690,469.540802 359.135223,492.792664 359.232605,517.645752 
	C359.487823,582.804443 359.385681,647.964905 359.280884,713.124390 
	C359.257965,727.360962 355.898285,740.843689 348.285828,753.069092 
	C344.764038,758.724976 341.469452,764.544617 337.621033,769.970276 
	C328.492371,782.840027 328.586060,797.717590 327.297089,812.502014 
	C326.200500,825.080200 332.197845,832.940125 341.774139,839.409119 
	C353.251099,847.161987 366.036438,851.895081 379.183105,855.699463 
	C402.969604,862.582703 427.328491,865.775452 452.987671,866.442993 
M499.719604,161.335602 
	C495.769775,161.837860 491.773102,162.105240 487.878174,162.882538 
	C469.890045,166.472443 454.754456,174.682419 444.091797,190.139114 
	C441.964691,193.222565 438.800781,194.511627 435.442841,192.100418 
	C432.030792,189.650375 431.916168,186.300995 434.102264,182.846115 
	C434.634796,182.004517 435.297638,181.244629 435.909454,180.454041 
	C448.654816,163.983932 465.717407,154.773117 485.859314,150.721466 
	C492.812836,149.322708 499.880707,148.813553 507.010040,148.516922 
	C506.829285,145.722702 505.020508,144.933777 503.523193,144.050583 
	C496.692688,140.021622 489.366516,138.514740 481.457947,139.734970 
	C473.356903,140.984894 465.587463,143.374695 457.853333,145.994766 
	C451.636627,148.100784 445.327393,149.108444 438.725891,147.451202 
	C432.149841,145.800354 428.496704,147.455353 424.987457,153.279541 
	C421.853546,158.480850 420.153687,164.183609 419.235107,170.183380 
	C418.070007,177.793381 418.115997,185.454529 417.841461,193.109512 
	C417.622314,199.221252 415.094269,202.414948 410.896210,202.259384 
	C406.921631,202.112106 404.783356,198.925339 404.866180,192.967010 
	C404.905396,190.144623 405.215088,187.324921 405.431885,184.506302 
	C405.987885,177.278030 406.560455,170.051041 407.172363,162.236511 
	C399.191833,163.009964 392.955566,166.128632 388.413544,172.042633 
	C379.301636,183.906830 368.986450,194.334030 356.141663,202.257233 
	C351.038574,205.405014 347.061401,210.065811 344.130005,215.441376 
	C341.154694,220.897369 341.603790,221.763794 347.663361,221.763763 
	C425.821014,221.763382 503.978638,221.749939 582.136292,221.701355 
	C583.861145,221.700287 585.837891,222.376602 587.240234,220.650757 
	C578.070496,196.817947 547.905029,159.036057 499.719604,161.335602 
M588.613586,282.075104 
	C589.941162,277.585846 590.504150,272.971649 591.074524,268.337158 
	C592.059570,260.334076 592.162354,260.356567 584.418091,260.361572 
	C550.939148,260.383301 517.460205,260.405670 483.981293,260.410217 
	C448.510132,260.415039 413.039001,260.402435 377.567841,260.391907 
	C367.410248,260.388916 357.252655,260.351624 347.095093,260.362061 
	C343.929779,260.365295 340.923859,260.548462 341.189880,265.054840 
	C341.846619,276.179901 344.059540,286.792511 350.529541,296.190155 
	C352.684998,299.320984 355.179169,300.813934 359.199432,300.807220 
	C427.664215,300.692810 496.129303,300.727570 564.594299,300.724701 
	C580.676514,300.724030 581.898193,299.872040 587.732239,284.726013 
	C587.971558,284.104614 588.178711,283.470856 588.613586,282.075104 
M505.500000,247.770355 
	C525.252319,247.770355 545.004639,247.770355 564.786865,247.770355 
	C564.786865,243.352371 564.786865,239.626953 564.786865,236.106949 
	C563.089661,234.991089 561.549622,235.300720 560.087097,235.300598 
	C499.491150,235.295197 438.895233,235.293762 378.299286,235.338242 
	C367.335205,235.346283 367.331665,235.438126 367.265411,246.522720 
	C367.263763,246.798416 367.570953,247.075943 367.979462,247.768753 
	C413.330048,247.768753 458.915039,247.768753 505.500000,247.770355 
z"/>
<path fill="#000000" opacity="1.000000" stroke="none" 
	d="
M515.884094,565.000000 
	C515.891541,608.472900 515.904846,651.445862 515.894043,694.418762 
	C515.893066,698.240051 515.796875,702.064209 515.620972,705.881287 
	C515.550903,707.403809 515.142578,709.058960 513.166687,709.045105 
	C511.245667,709.031616 510.772614,707.537476 510.721527,705.909180 
	C510.674561,704.411255 510.671234,702.911560 510.671265,701.412659 
	C510.671478,641.447937 510.545929,581.482788 510.729584,521.518616 
	C510.824615,490.480377 516.655029,460.661072 531.541748,433.048889 
	C532.706970,430.887543 532.970947,428.661530 532.966064,426.309723 
	C532.950928,418.980865 532.905090,411.651489 532.979126,404.323425 
	C533.000061,402.248840 532.669250,399.383545 535.744568,399.409241 
	C538.463623,399.431946 538.248718,402.057922 538.257385,404.033386 
	C538.294006,412.361664 538.252075,420.690338 538.303223,429.018463 
	C538.316162,431.122894 537.477051,432.838531 536.504578,434.624023 
	C525.368103,455.070984 519.008179,476.868439 517.038940,500.124664 
	C515.221863,521.583862 516.293274,543.044250 515.884094,565.000000 
z"/>
<path fill="#000000" opacity="1.000000" stroke="none" 
	d="
M505.676575,828.015198 
	C488.681061,830.112915 472.059753,830.685547 455.403809,830.212341 
	C449.255066,830.037598 443.112701,829.571167 436.974274,829.139893 
	C434.994080,829.000793 432.405884,828.765015 432.515106,826.201294 
	C432.649750,823.041382 435.570190,823.575806 437.579620,823.821838 
	C453.520996,825.773315 469.552948,825.497742 485.465424,824.508545 
	C511.259827,822.904907 536.786682,819.308289 560.552551,808.058655 
	C562.285950,807.238159 564.504883,805.792419 565.795349,808.310974 
	C567.171143,810.995911 564.764832,812.226685 562.841309,813.155212 
	C550.150818,819.281067 536.692261,822.941772 522.859131,825.319763 
	C517.293274,826.276550 511.698364,827.064209 505.676575,828.015198 
z"/>
<path fill="#000000" opacity="1.000000" stroke="none" 
	d="
M538.279907,359.245758 
	C538.281250,367.539001 538.329590,375.360352 538.245117,383.180267 
	C538.223450,385.186157 539.008118,388.168274 535.870300,388.308685 
	C532.854736,388.443634 532.999451,385.574280 532.978394,383.472015 
	C532.896545,375.319305 532.878662,367.164948 532.957520,359.012329 
	C532.977661,356.924988 532.845825,354.089600 535.842529,354.127136 
	C538.622131,354.161987 538.126831,356.847992 538.279907,359.245758 
z"/>
<path fill="#000000" opacity="1.000000" stroke="none" 
	d="
M421.555481,824.050781 
	C421.158417,827.056824 419.151611,826.641235 417.354248,826.423035 
	C408.599335,825.360229 399.907898,823.954285 391.434387,821.420654 
	C389.627563,820.880493 387.502472,820.300964 388.130127,817.934143 
	C388.786530,815.458862 391.026611,816.143372 392.737488,816.696533 
	C400.855713,819.321167 409.300995,820.278870 417.653381,821.708008 
	C419.163391,821.966370 420.626648,822.191223 421.555481,824.050781 
z"/>
<path fill="#000000" opacity="1.000000" stroke="none" 
	d="
M414.663818,638.029175 
	C414.683899,634.547119 414.654083,631.557251 414.741852,628.570801 
	C414.790039,626.931702 415.414459,625.582703 417.377075,625.662903 
	C419.169769,625.736084 419.445831,627.132568 419.466675,628.505493 
	C419.607605,637.789368 419.738617,647.073792 419.783386,656.358521 
	C419.791382,658.020996 419.489594,660.031189 417.291870,660.002747 
	C414.788239,659.970337 414.728607,657.808777 414.712708,655.958130 
	C414.662781,650.146606 414.674896,644.334534 414.663818,638.029175 
z"/>
<path fill="#000000" opacity="1.000000" stroke="none" 
	d="
M510.846313,719.880127 
	C510.810272,718.115723 510.740906,716.788757 510.832397,715.472961 
	C510.947113,713.823364 511.651886,712.554138 513.547180,712.614563 
	C515.107910,712.664368 515.972168,713.677612 516.111267,715.147705 
	C516.515442,719.420471 516.884338,723.698303 517.154358,727.981262 
	C517.264587,729.729004 516.831238,731.531250 514.680176,731.587952 
	C512.624817,731.642151 512.011230,729.939209 511.789429,728.196350 
	C511.455902,725.575806 511.183075,722.947449 510.846313,719.880127 
z"/>
<path fill="#000000" opacity="1.000000" stroke="none" 
	d="
M523.965637,759.034912 
	C525.661621,763.046082 527.187683,766.702271 528.707947,770.360901 
	C529.410095,772.050720 529.511963,773.749878 527.633911,774.622864 
	C525.784607,775.482361 524.895691,773.913574 524.293213,772.575623 
	C522.600525,768.816895 521.027222,765.003601 519.448792,761.194519 
	C518.860840,759.775635 518.416443,758.232422 520.117004,757.263977 
	C521.798523,756.306213 522.897888,757.343628 523.965637,759.034912 
z"/>
<path fill="#000000" opacity="1.000000" stroke="none" 
	d="
M533.036987,334.521912 
	C533.455627,332.588654 533.993408,331.123352 535.940979,331.414917 
	C537.754700,331.686432 538.396423,333.184967 538.182556,334.727386 
	C537.788452,337.569244 540.021545,342.502014 535.993408,342.702972 
	C531.079041,342.948151 533.629150,337.778442 533.036987,334.521912 
z"/>
<path fill="#000000" opacity="1.000000" stroke="none" 
	d="
M370.792603,814.445557 
	C369.353821,813.573242 368.115845,812.992126 367.199219,812.085938 
	C366.283478,811.180603 366.197388,809.752686 367.340302,809.020264 
	C370.402191,807.057983 372.567291,809.981445 375.107025,810.776123 
	C376.677521,811.267639 378.373108,812.174805 377.741333,814.317261 
	C377.384583,815.527100 376.168304,816.086609 374.911041,815.822388 
	C373.623016,815.551636 372.390900,815.014771 370.792603,814.445557 
z"/>
<path fill="#000000" opacity="1.000000" stroke="none" 
	d="
M414.682922,676.902771 
	C414.792236,675.155396 414.783447,673.824524 415.063507,672.557434 
	C415.297729,671.497925 416.218597,670.966797 417.310791,671.024292 
	C418.461823,671.084839 419.133850,671.866577 419.227142,672.928284 
	C419.400055,674.895386 419.458649,676.876038 419.478577,678.851990 
	C419.495026,680.485535 419.702637,682.522766 417.456482,682.717651 
	C415.287415,682.905884 414.930145,681.039978 414.765381,679.323303 
	C414.702484,678.668152 414.712921,678.005859 414.682922,676.902771 
z"/>
</svg>