<svg version="1.1" id="Layer_1" xmlns="http://www.w3.org/2000/svg" xmlns:xlink="http://www.w3.org/1999/xlink" x="0px" y="0px"
	 width="100%" viewBox="0 0 896 1024" enable-background="new 0 0 896 1024" xml:space="preserve">
<path fill="#000000" opacity="1.000000" stroke="none" 
	d="
M552.774536,561.211670 
	C566.066101,575.341248 573.867676,591.572144 574.144653,610.784973 
	C574.336609,624.091980 570.531555,636.392639 562.549438,647.252197 
	C557.419983,654.230774 552.487915,661.356750 547.264465,668.263123 
	C545.021057,671.229248 544.228149,674.310974 544.233215,677.980774 
	C544.308044,732.802734 544.322327,787.625000 544.272583,842.447021 
	C544.223938,896.109985 506.891571,938.984680 453.812531,946.458252 
	C404.530731,953.397156 355.398804,920.769714 341.749298,872.119324 
	C338.934937,862.088196 337.811798,851.873413 337.806122,841.509155 
	C337.776520,787.520203 337.750397,733.531250 337.825287,679.542419 
	C337.830627,675.697388 337.003296,672.539490 334.590759,669.433167 
	C329.177277,662.462646 324.145782,655.196045 318.934387,648.067749 
	C301.085541,623.653687 303.039276,590.608704 323.960022,566.465698 
	C331.238098,558.066589 336.672913,549.108459 336.788574,537.502930 
	C336.890045,527.324707 333.489166,518.556519 327.172546,510.853577 
	C307.228882,486.532806 305.944092,453.513428 324.256226,427.974731 
	C326.954010,424.212311 330.367828,420.942963 333.593597,417.583008 
	C347.786591,402.799774 348.082153,383.240082 333.968109,368.429504 
	C321.552063,355.400726 313.945740,340.570984 313.539764,322.125427 
	C313.100830,302.183533 320.302856,285.767334 334.425476,272.111298 
	C339.276764,267.420288 343.599792,262.399933 345.713440,255.874573 
	C350.103027,242.322739 347.555054,230.065277 337.815704,219.748856 
	C324.547852,205.694809 317.888641,189.303864 318.666412,169.943069 
	C319.211700,156.368103 323.781952,144.236679 331.935852,133.465958 
	C340.784698,121.777237 349.611908,110.064880 358.758484,98.610321 
	C377.384583,75.284286 401.648499,61.993279 431.436890,59.699707 
	C469.369446,56.779072 500.029724,70.954414 523.591492,100.622925 
	C532.190247,111.450294 540.484070,122.519989 548.903992,133.489151 
	C568.897156,159.535599 566.627319,195.850006 543.415710,219.242035 
	C538.023376,224.676270 533.565063,230.461014 532.222412,238.254883 
	C530.001282,251.149017 534.671509,261.343353 544.055359,269.900543 
	C555.959167,280.755707 564.384521,293.639557 566.681396,309.937103 
	C569.473389,329.747955 565.241150,347.624420 551.917969,362.955261 
	C548.318359,367.097290 544.115295,370.764648 541.388123,375.599091 
	C533.757324,389.126282 535.858093,405.092377 547.113525,417.062988 
	C553.422180,423.772583 559.583008,430.523407 563.312744,439.066803 
	C574.560608,464.831329 571.183655,488.715942 553.837341,510.691772 
	C541.403992,526.443420 540.885315,544.770447 552.774536,561.211670 
M365.320404,206.250137 
	C377.164978,223.414902 380.687897,242.039627 375.190643,262.266479 
	C371.709656,275.074463 363.995453,285.031738 354.762177,294.283691 
	C339.130768,309.946747 339.173920,330.868347 354.304993,346.412689 
	C381.284271,374.128876 381.295959,413.047363 353.322418,439.928131 
	C338.570526,454.103729 337.887024,478.011383 350.288116,492.280060 
	C364.420258,508.540497 368.971527,528.042053 365.308350,549.279907 
	C362.980469,562.776245 356.616272,574.303589 347.478180,584.440735 
	C333.476440,599.973083 332.613190,616.479736 344.736267,633.354553 
	C348.722260,638.902893 352.924530,644.308228 356.659363,650.019897 
	C358.915955,653.470825 361.553467,654.777466 365.695831,654.755493 
	C396.026245,654.594238 426.357910,654.705444 456.689026,654.637756 
	C476.516449,654.593445 496.343414,654.365723 516.170898,654.289917 
	C519.645081,654.276611 522.062561,652.926331 524.055847,650.044495 
	C528.983765,642.919739 534.147888,635.958496 539.213989,628.929199 
	C541.275757,626.068420 542.962524,623.027771 543.742615,619.544495 
	C546.776489,605.998474 542.356445,594.483093 533.544128,584.527771 
	C521.088501,570.456787 514.246033,554.441956 514.584290,535.457520 
	C514.884949,518.590942 520.836426,504.014893 531.403809,491.048798 
	C539.949951,480.562714 541.794312,468.714447 538.028259,455.795837 
	C535.833557,448.267242 530.706482,442.880615 525.540710,437.400726 
	C511.764221,422.786377 505.284058,405.607727 507.616974,385.401733 
	C509.386658,370.073792 516.059448,357.252594 526.868530,346.317596 
	C541.775269,331.237244 541.708069,310.019226 526.955811,294.926849 
	C524.160095,292.066711 521.190002,289.366974 518.520386,286.395538 
	C504.473358,270.760803 499.167206,252.638367 503.149689,231.884079 
	C505.838440,217.872040 513.815063,207.105316 523.406372,196.998886 
	C535.319519,184.445923 535.877441,165.341721 525.377808,151.592987 
	C516.579163,140.071701 507.723907,128.593430 498.848297,117.131233 
	C471.874573,82.296532 418.109131,79.195274 387.666931,111.078354 
	C375.001740,124.342957 364.363556,139.382095 353.879517,154.384735 
	C344.960541,167.147705 346.689148,184.278015 356.741394,196.208115 
	C359.424896,199.392944 362.185242,202.513062 365.320404,206.250137 
M509.344330,871.838013 
	C513.001587,863.133362 514.823303,854.070679 514.818909,844.618408 
	C514.794861,793.149231 514.738708,741.679932 514.890198,690.211243 
	C514.904663,685.283875 513.235291,684.065491 508.554108,684.077576 
	C463.414948,684.193787 418.275024,684.158325 373.136017,683.990662 
	C368.535492,683.973572 367.206360,685.426392 367.219788,690.004028 
	C367.370728,741.472778 367.334717,792.942078 367.306366,844.411255 
	C367.304138,848.420959 367.648193,852.358704 368.325806,856.311951 
	C374.339417,891.396545 405.525818,918.199829 441.104950,917.556213 
	C472.938080,916.980469 495.529541,901.342529 509.344330,871.838013 
z"/>
<path fill="#000000" opacity="1.000000" stroke="none" 
	d="
M602.043701,221.059448 
	C602.380798,220.662125 602.491455,220.537704 602.598083,220.409866 
	C610.579651,210.835831 610.579590,210.835800 601.593201,202.553513 
	C588.825928,190.786560 586.264038,173.673096 595.042969,158.519150 
	C599.713623,150.456894 604.537354,142.481842 609.107727,134.363724 
	C610.842896,131.281647 612.639465,130.993530 615.519775,132.816528 
	C621.141541,136.374710 626.850586,139.807083 632.646790,143.072739 
	C635.945984,144.931549 636.600647,146.770050 634.449707,150.165466 
	C629.821960,157.470627 625.757019,165.132172 621.134521,172.440918 
	C618.795593,176.139160 619.165894,178.703796 622.539429,181.407791 
	C642.139954,197.118149 644.132507,216.519684 628.221802,235.949219 
	C623.162415,242.127533 617.989319,248.213608 612.984497,254.435394 
	C611.139832,256.728607 609.565369,257.093445 607.219055,255.057465 
	C601.816467,250.369461 596.301270,245.806900 590.729797,241.319931 
	C588.205505,239.286942 588.135071,237.501862 590.256287,235.093857 
	C594.215271,230.599548 597.973511,225.928360 602.043701,221.059448 
z"/>
<path fill="#000000" opacity="1.000000" stroke="none" 
	d="
M604.331299,354.744080 
	C589.526733,343.685394 585.256287,322.480347 595.494995,307.225433 
	C600.494019,299.777191 604.762756,291.830414 609.196716,284.015472 
	C610.908813,280.997711 612.544739,280.605225 615.515625,282.541016 
	C621.225769,286.261597 627.149719,289.664307 633.077026,293.037048 
	C636.024414,294.714172 636.545105,296.434052 634.672058,299.427399 
	C629.995178,306.901855 625.744202,314.643646 621.035706,322.097137 
	C618.580139,325.984406 619.103027,328.641083 622.709412,331.425751 
	C641.538208,345.964508 643.758972,367.375488 628.491394,385.415405 
	C623.224548,391.638641 617.965698,397.873016 612.884888,404.247131 
	C610.833008,406.821411 609.214539,406.925903 606.769592,404.773560 
	C601.774719,400.376404 596.658691,396.104767 591.420715,392.000671 
	C588.292419,389.549591 587.743530,387.545990 590.661621,384.347626 
	C595.929016,378.574310 600.804993,372.442535 605.811951,366.433380 
	C610.121826,361.260773 609.889282,359.210724 604.331299,354.744080 
z"/>
<path fill="#000000" opacity="1.000000" stroke="none" 
	d="
M266.688354,417.928375 
	C266.677063,414.848969 264.715973,413.528503 262.847595,412.100220 
	C246.844391,399.866211 243.297379,381.630615 253.507401,364.379089 
	C257.914032,356.933350 262.371735,349.513062 266.560730,341.945343 
	C268.587250,338.284271 270.656189,337.906433 274.095490,340.164337 
	C279.654114,343.813568 285.431274,347.137421 291.190125,350.470886 
	C293.919525,352.050812 294.373840,353.644806 292.626709,356.455719 
	C288.060760,363.801758 283.770447,371.319946 279.413544,378.794708 
	C276.321686,384.099091 276.594360,385.505707 281.537292,389.145233 
	C292.517548,397.230103 297.310974,408.091827 296.281952,421.615204 
	C295.813416,427.772858 293.651154,433.341705 289.830017,438.110565 
	C283.590851,445.897156 277.068085,453.455872 270.741913,461.173767 
	C268.764893,463.585663 267.117584,463.929993 264.604706,461.671722 
	C259.533569,457.114288 254.300217,452.715088 248.897491,448.557709 
	C245.886002,446.240448 245.894730,444.417572 248.295410,441.698059 
	C253.468674,435.837738 258.437897,429.796387 263.447418,423.793060 
	C264.816803,422.152008 266.472717,420.639923 266.688354,417.928375 
z"/>
<path fill="#000000" opacity="1.000000" stroke="none" 
	d="
M246.804230,596.350342 
	C245.981094,593.798218 247.864578,592.767761 248.958115,591.424072 
	C254.106506,585.098206 259.381836,578.875061 264.494568,572.520874 
	C267.932709,568.247864 267.775299,565.468811 263.332184,562.483154 
	C247.926926,552.131287 242.480469,530.048096 253.926407,513.526428 
	C258.745850,506.569824 262.651611,498.969360 266.805969,491.567963 
	C268.582489,488.402954 270.354279,487.849365 273.531036,489.908600 
	C279.252594,493.617432 285.194031,496.996552 291.130280,500.360443 
	C293.883362,501.920563 294.410797,503.489716 292.666595,506.323944 
	C287.957062,513.976501 283.633972,521.867004 278.919464,529.516357 
	C276.457153,533.511658 277.446411,536.098755 280.979553,538.786682 
	C299.234406,552.674866 301.715820,574.029968 287.239777,591.651367 
	C281.851959,598.209778 276.310730,604.643921 271.006775,611.268616 
	C268.967316,613.815857 267.287933,613.986755 264.848022,611.848145 
	C258.967438,606.693726 252.941559,601.704956 246.804230,596.350342 
z"/>
<path fill="#000000" opacity="1.000000" stroke="none" 
	d="
M476.219543,238.006500 
	C476.623413,243.493790 474.689636,245.709534 469.293976,245.323288 
	C463.165161,244.884537 456.978546,245.120743 450.821442,245.259125 
	C447.009583,245.344818 445.942078,243.579117 446.156891,240.025665 
	C447.554413,216.904877 454.194550,195.576080 467.991516,176.800491 
	C470.578186,173.280411 470.335327,170.874557 467.719971,167.706146 
	C463.512909,162.609421 459.668549,157.213272 455.318420,151.478897 
	C462.648315,145.863083 469.486603,140.618011 476.332428,135.382797 
	C478.306549,133.873093 479.660583,134.841492 480.918579,136.499512 
	C487.860199,145.648438 494.990265,154.659790 501.731354,163.953568 
	C506.493988,170.519775 506.025909,177.431625 500.402863,183.533081 
	C487.755676,197.256241 479.479736,213.035431 476.819916,231.608017 
	C476.537994,233.576477 476.428101,235.569580 476.219543,238.006500 
z"/>
<path fill="#000000" opacity="1.000000" stroke="none" 
	d="
M425.680969,785.999878 
	C425.678986,764.847351 425.803680,744.193359 425.578918,723.543274 
	C425.527985,718.863708 427.110199,717.411255 431.612000,717.623169 
	C437.927094,717.920410 444.268951,717.808655 450.594452,717.661316 
	C454.013062,717.581726 455.329468,718.904053 455.319946,722.348083 
	C455.244049,749.828979 455.251709,777.310364 455.312164,804.791382 
	C455.319183,807.974060 454.107605,809.308289 450.895721,809.247620 
	C444.069214,809.118469 437.237854,809.090088 430.411133,809.194153 
	C427.034821,809.245605 425.568298,807.947510 425.650818,804.486572 
	C425.793640,798.494141 425.684540,792.495789 425.680969,785.999878 
z"/>
<path fill="#000000" opacity="1.000000" stroke="none" 
	d="
M439.999359,869.913513 
	C425.687073,869.864929 425.686310,869.864929 425.682739,855.877808 
	C425.681793,852.221924 425.775543,848.563293 425.661804,844.911011 
	C425.571136,841.999634 426.691315,840.644409 429.717133,840.682190 
	C436.861572,840.771423 444.008789,840.771484 451.153107,840.675659 
	C454.140503,840.635620 455.328827,841.904297 455.290436,844.846985 
	C455.201569,851.659058 455.152161,858.475342 455.299255,865.285339 
	C455.375641,868.820129 453.700745,870.019165 450.464508,869.948242 
	C447.142517,869.875305 443.817871,869.921631 439.999359,869.913513 
z"/>
</svg>