<svg version="1.1" id="Layer_1" xmlns="http://www.w3.org/2000/svg" xmlns:xlink="http://www.w3.org/1999/xlink" x="0px" y="0px"
	 width="100%" viewBox="0 0 768 576" enable-background="new 0 0 768 576" xml:space="preserve">
<path fill="#000000" opacity="1.000000" stroke="none" 
	d="
M357.000061,50.691628 
	C370.331543,50.693317 383.163177,50.656666 395.994415,50.710121 
	C405.309326,50.748924 411.593750,56.488094 411.901398,65.088890 
	C412.193237,73.247459 405.529236,79.805145 396.471619,80.123749 
	C392.477203,80.264252 388.473724,80.145081 384.474365,80.145172 
	C298.820221,80.147171 213.163162,80.541000 127.513741,79.905350 
	C102.830925,79.722168 82.820320,100.489441 82.887840,124.958214 
	C83.200043,238.107452 83.021454,351.258026 83.051109,464.408112 
	C83.056076,483.363342 91.536736,497.188049 108.518234,505.731873 
	C114.190933,508.585999 120.252731,509.115356 126.496765,509.113434 
	C251.978394,509.075226 377.460052,509.085999 502.941681,509.087036 
	C515.273193,509.087128 527.604797,509.110291 539.936279,509.082947 
	C560.611572,509.037079 578.106873,494.150330 581.610840,473.650238 
	C582.312927,469.542694 582.652771,465.422058 582.642395,461.234528 
	C582.573975,433.572113 582.544250,405.909149 582.645630,378.246918 
	C582.684692,367.590515 591.854004,360.659760 601.521790,363.844452 
	C606.800842,365.583466 610.290527,369.226562 611.336243,374.813080 
	C611.762329,377.089600 611.967163,379.440521 611.970825,381.758057 
	C612.013367,409.087311 612.240417,436.419403 611.931885,463.745239 
	C611.615356,491.775726 599.979431,513.896973 575.943237,528.901428 
	C564.780823,535.869507 552.316467,538.924072 539.275452,538.931152 
	C401.462311,539.006104 263.649048,539.038635 125.835976,538.917297 
	C85.897858,538.882141 53.713081,506.505096 53.682495,466.540741 
	C53.594757,351.890900 53.589088,237.240906 53.672684,122.591072 
	C53.701885,82.544968 85.900757,50.702591 126.035439,50.694195 
	C202.856979,50.678120 279.678528,50.691013 357.000061,50.691628 
z"/>
<path fill="#000000" opacity="1.000000" stroke="none" 
	d="
M250.968445,173.277405 
	C259.467468,146.637726 281.117981,129.922455 308.025696,128.915009 
	C332.478973,127.999489 356.126556,143.292480 365.673828,166.282120 
	C368.701447,173.572601 370.393433,181.160706 370.387573,189.112244 
	C370.360138,226.256287 370.554993,263.401459 370.323975,300.544098 
	C370.118103,333.649261 342.951477,360.232849 309.749664,360.314301 
	C276.577301,360.395660 249.060516,333.855774 248.793335,300.887695 
	C248.491013,263.579529 248.719864,226.267105 248.712875,188.956543 
	C248.711899,183.759644 249.695221,178.704742 250.968445,173.277405 
M272.469696,186.099045 
	C272.426758,224.086090 272.295624,262.073303 272.377045,300.060089 
	C272.419617,319.930328 289.343597,336.581024 309.219727,336.709473 
	C329.393433,336.839844 346.591217,320.280975 346.677155,300.181183 
	C346.835266,263.193085 346.808197,226.203720 346.710602,189.215271 
	C346.668274,173.173599 335.634064,158.761017 320.158508,154.286667 
	C298.797882,148.110809 276.108276,161.332642 272.469696,186.099045 
z"/>
<path fill="#000000" opacity="1.000000" stroke="none" 
	d="
M329.999939,460.294556 
	C308.502533,460.294067 287.505096,460.306854 266.507690,460.285553 
	C257.977570,460.276917 252.809052,455.821777 252.768616,448.539307 
	C252.728790,441.367035 258.017365,436.785980 266.546600,436.731201 
	C275.378479,436.674469 284.214844,436.560516 293.041443,436.782196 
	C296.958160,436.880585 297.820862,435.184814 297.759491,431.696198 
	C297.601257,422.700165 297.574982,413.696167 297.783966,404.702057 
	C297.870667,400.971130 296.600952,399.631897 292.837769,398.937592 
	C260.927917,393.050537 236.836914,375.942627 220.946472,347.623779 
	C212.808487,333.120819 208.881317,317.372375 208.715317,300.745148 
	C208.638199,293.021210 213.388062,287.787140 220.167542,287.692505 
	C227.290588,287.593109 232.086014,292.724487 232.294998,300.669617 
	C233.446045,344.429993 269.211670,378.159637 312.886932,376.673798 
	C348.549011,375.460571 379.671936,347.941864 385.713196,312.370300 
	C386.413910,308.244385 386.627289,304.123901 386.775482,299.958466 
	C387.041901,292.469910 392.248535,287.443329 399.134766,287.698303 
	C405.829742,287.946198 410.251984,292.968170 410.356110,300.441376 
	C411.019165,348.041962 374.678314,390.706543 326.125275,399.015839 
	C322.199188,399.687744 321.192261,401.198090 321.260559,404.800903 
	C321.427979,413.630035 321.482574,422.468597 321.251648,431.294708 
	C321.145691,435.343933 322.355835,436.930359 326.606812,436.808197 
	C335.764679,436.544922 344.936951,436.631470 354.100342,436.770752 
	C359.121216,436.847046 363.201080,438.963898 365.314209,443.746490 
	C367.321320,448.289124 366.432587,452.588623 363.315430,456.352264 
	C360.932861,459.229004 357.718689,460.342651 353.996033,460.313049 
	C346.164459,460.250793 338.332031,460.294159 329.999939,460.294556 
z"/>
<path fill="#000000" opacity="1.000000" stroke="none" 
	d="
M536.269287,160.724854 
	C546.450623,178.229355 562.463013,187.283600 580.526978,193.487778 
	C590.298645,196.843887 600.274353,199.507568 610.357422,201.773788 
	C612.081604,202.161316 613.977173,202.225555 615.390686,203.544403 
	C614.935730,205.378494 613.358826,205.092926 612.148987,205.377808 
	C600.145020,208.204163 588.286804,211.495056 576.608093,215.504822 
	C551.799011,224.022690 535.654907,240.866241 527.512268,265.644165 
	C523.871826,276.721771 520.455566,287.857056 518.087585,299.290253 
	C517.826599,300.550507 517.851562,301.978485 516.551697,302.879211 
	C514.771423,301.918793 515.073059,300.074341 514.693848,298.549225 
	C511.880920,287.236633 508.858307,275.993347 505.168488,264.919586 
	C496.419434,238.662415 478.401306,222.252884 452.261871,214.091187 
	C442.239380,210.961823 432.148010,208.141235 421.964050,205.611816 
	C420.462158,205.238770 418.524689,205.624802 417.430054,203.460526 
	C421.661011,201.382004 426.285706,200.915573 430.676025,199.763962 
	C441.157867,197.014496 451.504822,193.925476 461.584900,189.890274 
	C481.993164,181.720551 495.649414,167.153564 503.438263,146.757187 
	C507.725922,135.529327 510.926910,123.995850 513.756104,112.339218 
	C514.371460,109.803856 515.159912,107.310501 516.448669,104.758186 
	C522.102417,123.733536 526.029236,143.163284 536.269287,160.724854 
z"/>
<path fill="#000000" opacity="1.000000" stroke="none" 
	d="
M624.552979,133.535950 
	C622.192566,141.711700 619.967224,149.521637 617.754333,157.287750 
	C615.859863,157.212952 615.951965,155.862518 615.697205,154.793411 
	C613.805237,146.852585 611.588623,139.020309 608.925232,131.287231 
	C603.349487,115.098236 592.738403,104.038742 576.626587,98.169670 
	C569.098511,95.427391 561.415955,93.266716 553.651978,91.346939 
	C551.929932,90.921135 550.063843,90.810928 548.680725,89.432152 
	C549.440857,87.585526 551.160156,87.919884 552.533813,87.573296 
	C560.610291,85.535583 568.626709,83.329773 576.500488,80.563721 
	C596.251282,73.625252 606.175598,58.438560 611.518616,39.331696 
	C613.248108,33.147133 614.865417,26.931204 616.779480,19.817465 
	C618.702271,22.276276 618.794739,24.411579 619.264709,26.338612 
	C621.556091,35.734123 624.131104,45.031101 628.164673,53.862560 
	C633.218384,64.927650 641.230103,72.982407 652.293762,78.124344 
	C661.729797,82.509811 671.690002,85.149902 681.735535,87.581886 
	C683.128662,87.919159 684.795349,87.602722 686.131470,89.739082 
	C681.731445,90.918961 677.542725,92.047821 673.350952,93.165016 
	C664.802673,95.443298 656.448547,98.218193 648.575623,102.345444 
	C635.898132,108.991371 629.320129,120.315102 624.552979,133.535950 
z"/>
<path fill="#000000" opacity="1.000000" stroke="none" 
	d="
M677.700928,205.371948 
	C678.997864,209.403137 680.091797,213.074844 681.348877,216.689835 
	C686.853943,232.520523 697.447998,243.224731 713.419067,248.582916 
	C720.215759,250.863144 727.050293,252.976288 734.033264,254.602722 
	C735.606445,254.969116 737.408386,254.822418 738.756348,256.905884 
	C733.495605,258.327545 728.380920,259.600433 723.335632,261.105896 
	C718.872009,262.437866 714.415405,263.848572 710.078247,265.538940 
	C696.594177,270.794250 687.356079,280.279114 682.210571,293.829376 
	C679.425110,301.164581 677.271912,308.675140 675.392883,316.277405 
	C674.965637,318.005737 675.003662,319.924316 672.956360,321.681885 
	C668.261353,305.574615 665.934875,288.641357 653.521423,276.297638 
	C641.063354,263.909546 624.080078,261.647125 607.610168,256.701935 
	C610.517273,254.685303 613.371277,254.516983 615.981140,253.818939 
	C624.676147,251.493301 633.318237,249.087540 641.456299,245.102295 
	C653.930542,238.993515 661.397156,228.751801 665.637085,215.921585 
	C668.333679,207.761612 670.643677,199.473877 673.551819,189.835571 
	C675.136719,195.807205 676.354858,200.396790 677.700928,205.371948 
z"/>
</svg>