<svg version="1.1" id="Layer_1" xmlns="http://www.w3.org/2000/svg" xmlns:xlink="http://www.w3.org/1999/xlink" x="0px" y="0px"
	 width="100%" viewBox="0 0 1024 896" enable-background="new 0 0 1024 896" xml:space="preserve">
<path fill="#000000" opacity="1.000000" stroke="none" 
	d="
M433.304688,387.093933 
	C435.397919,414.598022 434.725433,441.772003 437.273163,468.800598 
	C439.451599,491.911560 448.233765,512.625366 460.951599,531.530396 
	C475.194366,552.702148 491.868866,571.972717 511.188507,588.803528 
	C512.286804,589.760315 513.173584,591.092346 514.842041,591.269104 
	C517.114258,590.299927 517.461731,587.998657 518.402161,586.117615 
	C525.966553,570.988159 531.255005,555.416138 529.863831,538.040344 
	C528.932739,526.409790 529.451599,514.744873 532.754333,503.375366 
	C535.022217,495.568237 538.976135,488.414673 540.741455,480.355011 
	C544.973633,461.032471 549.231995,441.742615 551.798584,422.098206 
	C553.567566,408.558899 554.949890,394.997284 555.847046,381.379608 
	C556.006409,378.960358 556.661804,377.010193 559.648621,377.341431 
	C562.649414,377.674255 562.599548,379.759888 562.513428,382.135040 
	C561.716187,404.128265 558.302002,425.790680 554.655701,447.444916 
	C553.027832,457.112030 550.377502,466.559784 548.745850,476.168182 
	C547.574890,483.063446 547.924622,490.436157 548.911316,497.409729 
	C549.708740,503.046204 550.316711,508.631622 550.259033,514.278015 
	C550.228699,517.247864 551.091614,519.829224 552.312439,522.391541 
	C553.781860,525.475464 556.083557,526.258301 559.307129,525.115173 
	C565.296997,522.991089 571.258850,522.247192 576.753845,526.497559 
	C579.352783,528.507935 580.793091,527.042053 581.703857,524.783630 
	C583.083862,521.361694 583.708618,517.712524 583.648193,514.039124 
	C583.459412,502.552734 581.554565,491.318054 579.440430,480.017517 
	C576.593201,464.798340 571.284546,450.304108 567.773987,435.308380 
	C566.414001,429.499084 567.757019,426.340271 573.046265,423.415985 
	C589.214722,414.476868 593.196106,397.446594 589.661560,380.683289 
	C588.129089,373.415070 586.757202,366.129150 584.988464,358.895599 
	C580.658203,341.186554 574.374634,324.331848 565.020264,308.670258 
	C562.408630,304.297729 560.409424,299.519470 556.123352,294.893341 
	C556.622070,305.044983 557.117737,314.272980 557.519104,323.505066 
	C558.134033,337.649109 558.694458,351.795563 559.241882,365.942383 
	C559.286316,367.091675 559.329346,368.374237 558.882690,369.376312 
	C558.296997,370.690277 557.428040,372.164215 555.574402,371.884399 
	C554.060974,371.655945 553.292419,370.437256 553.075317,369.082001 
	C552.575928,365.963959 552.014954,362.826355 551.898132,359.681122 
	C551.069885,337.379761 550.313599,315.075531 549.616211,292.769623 
	C549.452515,287.533081 547.396118,282.730499 546.525024,277.660736 
	C546.195801,275.744324 544.762756,273.605042 547.304016,272.422638 
	C549.761536,271.279175 552.321533,271.718689 553.997192,274.046875 
	C555.447205,276.061462 556.556580,278.322449 557.801453,280.483154 
	C565.951599,294.629211 574.017395,308.857727 580.601135,323.786377 
	C589.082092,343.016785 596.376770,362.725464 597.900391,383.985016 
	C598.713623,395.332123 596.780029,406.220856 591.283691,416.332062 
	C588.839050,420.829285 585.487427,424.585449 581.043274,427.013672 
	C577.400635,429.003937 576.556396,431.235779 577.546204,435.297943 
	C583.066711,457.952972 587.784851,480.770966 589.879761,504.047272 
	C590.444946,510.327118 590.058289,516.611694 589.395813,523.667603 
	C595.884216,522.499146 601.839111,521.405029 607.802124,520.356995 
	C627.488708,516.896973 647.202148,516.826599 666.926208,520.000610 
	C669.334900,520.388184 671.741028,521.166199 671.044312,524.400818 
	C670.317566,527.774780 667.786926,526.812744 665.446533,526.550903 
	C639.781677,523.679199 614.288757,523.845947 589.220032,531.081665 
	C587.934998,531.452515 586.649963,531.792175 585.806091,532.951172 
	C589.922424,546.470459 595.494263,559.428467 600.630371,572.565002 
	C608.595337,592.936951 614.365051,613.919189 616.265259,635.870544 
	C617.363159,648.554626 620.304504,660.730835 624.802429,672.864624 
	C629.698914,686.073853 635.740356,698.867859 639.697266,712.486511 
	C641.569031,718.928711 646.623474,724.152344 651.973816,728.531433 
	C663.396973,737.880859 676.488953,744.566772 689.767029,750.608398 
	C697.858582,754.289978 707.214050,754.260071 716.050659,755.583496 
	C719.096924,756.039673 721.808594,754.097900 724.571350,753.065247 
	C739.554321,747.464905 750.648010,736.660889 761.058411,725.087280 
	C764.195801,721.599365 765.721436,717.056091 767.442383,712.713623 
	C770.980286,703.786377 775.593018,695.114136 776.986877,685.585693 
	C778.547424,674.916992 781.821045,664.284241 778.226196,653.190430 
	C776.363159,647.441162 776.969910,641.088257 776.065674,634.992065 
	C771.701416,605.568176 760.898804,578.609131 747.102966,552.557800 
	C739.336365,537.891724 729.379089,525.076721 718.177002,512.849426 
	C700.205322,493.232941 682.653564,473.225891 664.571899,453.699097 
	C660.831299,449.659546 655.120178,447.246368 653.886963,441.015106 
	C653.638123,439.758118 652.424683,438.507874 653.832642,437.436310 
	C655.302429,436.317657 656.482910,437.204132 657.737488,438.305328 
	C676.890686,455.116821 695.848083,472.072662 712.620056,491.402557 
	C738.074829,520.739502 757.572388,553.531128 771.831665,589.572571 
	C776.766296,602.045166 779.652893,615.014160 782.048462,628.136047 
	C782.316406,629.603638 782.397644,631.227783 783.838562,632.105042 
	C791.988159,637.066406 793.254883,645.306152 794.225342,653.706848 
	C794.377563,655.024902 794.490051,656.371399 794.856506,657.636475 
	C796.052063,661.763367 796.961548,664.921753 790.658997,666.098083 
	C785.230652,667.111267 787.171387,672.625610 787.538635,676.269775 
	C787.938049,680.232849 791.278625,678.232727 793.508362,678.145508 
	C800.656250,677.865906 807.833984,677.910217 814.881531,676.408264 
	C816.820435,675.995117 818.616638,675.812378 819.134644,678.380615 
	C819.664490,681.007751 818.593506,682.708862 815.938171,682.960571 
	C809.816589,683.540833 803.684265,684.053955 797.544983,684.384277 
	C793.177246,684.619202 788.955811,684.991272 785.261169,687.727722 
	C783.580383,688.972595 782.208374,690.385254 781.665710,692.369141 
	C777.218506,708.626404 770.716064,723.917175 760.701904,737.594482 
	C751.851746,749.681824 741.080505,759.147339 726.038208,762.527832 
	C722.169922,763.397156 721.989685,765.726318 722.335022,768.785095 
	C723.404541,778.258606 723.368652,787.722595 722.148071,797.191284 
	C720.649902,808.811768 717.432007,819.342468 708.589417,828.055298 
	C705.296753,831.299622 701.948242,833.688416 698.086914,835.775940 
	C673.098145,849.285767 646.538391,858.230774 618.508545,862.646729 
	C587.465149,867.537598 557.694275,864.437500 530.479370,847.270142 
	C510.325439,834.556946 496.269867,816.342651 484.864136,795.863464 
	C476.814178,781.409668 470.398590,766.200256 465.706970,750.353149 
	C461.721497,736.891235 454.920227,724.865051 446.723938,713.827393 
	C435.408295,698.588928 425.577698,682.357605 414.505402,667.032043 
	C396.666229,642.340210 375.575745,620.356689 352.524048,600.384705 
	C340.467224,589.938660 332.457336,576.664124 324.717285,563.051819 
	C320.528687,555.685425 315.461456,548.821716 311.194733,541.495850 
	C300.431549,523.015747 293.258728,502.941620 285.783447,483.017212 
	C284.048584,478.393219 282.592072,473.664795 280.331573,468.946564 
	C280.331573,470.309967 280.331543,471.673401 280.331573,473.036804 
	C280.332062,486.033478 280.237549,499.031128 280.367554,512.026489 
	C280.449493,520.215393 278.261108,527.984985 276.857330,535.935486 
	C275.429565,544.021790 273.601288,552.029541 272.244415,560.131104 
	C270.894867,568.189148 268.732330,576.107666 267.104034,584.123352 
	C265.299072,593.008667 261.042969,601.079285 258.719391,609.729187 
	C257.505524,614.247925 258.153381,619.345642 258.393768,624.160217 
	C258.953705,635.375305 256.959320,645.916260 253.022751,656.540955 
	C250.642319,662.965576 249.548996,670.176819 247.999100,677.034119 
	C245.635315,687.492371 245.238022,698.206970 242.668549,708.609985 
	C241.298691,714.156067 241.488800,720.093567 240.903046,725.785278 
	C240.127853,733.317871 238.969360,740.872864 238.092636,748.383545 
	C236.995758,757.780457 235.599335,767.235046 233.041534,776.471680 
	C229.967896,787.570862 227.600037,798.865295 224.915741,810.072571 
	C223.026596,817.960022 220.570038,825.760193 219.363068,833.749756 
	C217.945633,843.132446 216.186829,852.384888 213.131821,861.345459 
	C210.925903,867.815552 209.970169,874.817505 205.563110,880.940735 
	C202.826263,878.085266 203.428818,875.020203 204.284729,872.417175 
	C208.346252,860.065308 211.357590,847.499023 214.009064,834.759644 
	C216.132492,824.557312 218.706879,814.371033 221.180115,804.222351 
	C224.196716,791.843933 227.878723,779.593628 229.953094,766.938782 
	C231.412872,758.033264 232.952576,749.189392 234.036194,740.205139 
	C235.314880,729.603577 236.691437,719.006897 237.954697,708.392212 
	C239.429871,695.997070 241.362167,683.604370 244.063416,671.425232 
	C245.863205,663.310425 248.400696,655.294861 251.028320,647.336914 
	C253.510651,639.819031 254.769272,631.796814 253.649414,623.834839 
	C251.858093,611.098572 256.942047,599.878784 260.584625,588.278809 
	C262.792877,581.246521 264.389587,574.047485 265.715576,566.783813 
	C267.397736,557.568970 269.238098,548.381653 271.125061,539.206116 
	C272.023071,534.839478 272.647522,530.338440 273.155914,526.016602 
	C274.080414,518.157715 276.171265,510.445160 275.800323,502.331665 
	C275.139709,487.882874 276.287781,473.364777 273.863831,458.969086 
	C273.461823,456.581573 272.842896,454.479858 271.512878,452.540283 
	C264.078888,441.699432 259.016388,429.695312 254.234055,417.542175 
	C253.171768,414.842621 254.191666,412.998566 256.197205,411.493835 
	C258.372925,409.861481 260.004547,411.490875 261.421478,412.822266 
	C269.690552,420.592377 274.261047,430.585358 278.399200,440.903015 
	C286.764954,461.761139 293.046753,483.357452 301.340424,504.259460 
	C308.535370,522.392456 317.747375,539.270447 328.545746,555.403320 
	C334.185730,563.829651 338.068329,573.324829 344.619781,581.234070 
	C348.979370,586.497192 353.530426,591.522827 358.670563,595.998474 
	C370.569397,606.359131 381.876099,617.395386 392.221802,629.231812 
	C403.363739,641.979309 414.885864,654.415894 424.576172,668.480042 
	C435.109741,683.767944 449.965149,693.357056 467.953979,699.027649 
	C492.230225,706.680115 517.012817,709.183655 542.206970,710.084595 
	C561.042664,710.758179 579.841003,709.682434 598.658752,709.741150 
	C609.300659,709.774353 619.887268,710.527771 630.911194,711.923157 
	C631.299988,705.343506 627.408325,700.631104 625.704590,695.297058 
	C620.988770,680.532471 612.920776,666.791138 611.323792,651.111694 
	C610.566528,643.676208 609.228271,636.331543 608.496216,628.892395 
	C607.843201,622.255310 606.031067,615.676392 604.193848,609.224670 
	C601.364197,599.287903 598.651855,589.304932 594.798401,579.677185 
	C589.644287,566.799744 584.885071,553.760681 579.546631,540.961914 
	C576.486023,533.624146 570.258606,530.072144 562.666870,532.473206 
	C551.576416,535.980896 545.190125,526.402527 543.594299,518.090454 
	C542.363647,511.680908 542.924194,505.179199 542.398132,497.921692 
	C539.730835,500.842560 539.108093,504.078491 538.664246,506.842651 
	C537.434814,514.498535 535.826965,522.097778 536.215088,530.025513 
	C536.735840,540.661987 536.613647,551.345154 535.417175,561.976318 
	C535.134155,564.491272 534.829590,567.046814 533.609863,569.197876 
	C526.622620,581.520386 523.408508,595.705261 515.079285,607.318054 
	C502.647095,624.651367 487.216919,638.687988 464.532867,636.785400 
	C447.387238,635.347412 430.596375,630.132202 417.302795,617.458191 
	C410.897705,611.351624 402.471008,607.972229 395.181030,603.007568 
	C381.670624,593.806519 368.084167,584.490784 356.903564,572.618774 
	C339.515472,554.155457 324.806732,533.653137 313.452881,510.737488 
	C297.811646,479.168732 287.263702,445.998413 280.154449,411.616211 
	C279.682251,409.332581 279.250793,407.185333 282.306641,406.530029 
	C285.462128,405.853363 285.800873,408.253357 286.295746,410.385071 
	C293.186920,440.068207 301.776398,469.285309 314.249725,497.081757 
	C334.275269,541.708130 364.606445,577.661255 407.040680,602.804382 
	C412.143524,605.828003 418.987366,606.721497 422.440796,611.454834 
	C427.681122,618.637451 435.464355,620.735168 442.691101,623.867126 
	C449.330994,626.744751 456.432953,628.705627 463.489594,630.418457 
	C468.017853,631.517456 472.775787,630.964050 477.210571,629.043823 
	C489.889282,623.553955 501.565216,616.809509 508.835632,604.362976 
	C510.429626,601.634155 510.495728,599.664429 508.343536,596.830444 
	C501.552887,587.888611 492.950104,580.726501 485.432617,572.513184 
	C469.099304,554.667908 453.174255,536.515076 441.630920,515.056519 
	C423.412720,481.189789 416.328674,445.390533 421.597656,406.957520 
	C422.653564,399.255585 422.813965,391.750061 426.868439,384.957062 
	C427.898041,383.231964 428.394775,380.352509 431.319855,381.121704 
	C434.250977,381.892456 432.964386,384.661682 433.304688,387.093933 
M601.858765,855.064209 
	C615.857483,855.219971 629.856079,854.029358 643.178284,850.041931 
	C661.662964,844.509277 680.664185,840.008423 695.711731,826.129822 
	C700.935242,821.311951 705.895264,816.571838 709.269958,810.515991 
	C716.801514,797.000427 716.321899,782.124939 715.481079,767.322815 
	C715.309448,764.301392 713.086365,762.607605 710.040344,762.468262 
	C702.708984,762.132751 695.592102,760.580200 688.658569,758.370544 
	C669.151855,752.153809 652.936462,740.943726 639.864746,725.241150 
	C637.211304,722.053589 634.448608,719.674316 630.181763,718.830994 
	C613.205078,715.475525 596.048218,715.831604 578.953552,716.589355 
	C557.166565,717.555237 535.406738,718.770020 513.763855,715.198486 
	C500.372803,712.988647 486.757874,712.255737 473.703674,707.748596 
	C463.127289,704.096924 452.281006,701.266968 442.370789,695.701721 
	C444.076752,698.501282 445.883728,701.064026 447.887726,703.462280 
	C454.826569,711.765930 459.700043,721.471069 465.864471,730.311951 
	C469.597900,735.666382 471.481812,742.609558 474.358246,748.776428 
	C481.422211,763.920654 487.046844,779.695312 494.418091,794.712891 
	C504.688019,815.636047 518.874268,832.842712 539.982788,843.703125 
	C549.131287,848.410095 558.387817,852.271545 568.845337,853.384094 
	C579.537659,854.521606 590.122681,856.568604 601.858765,855.064209 
M427.299438,435.695068 
	C426.574951,447.658325 428.222260,459.326019 431.656128,470.778107 
	C430.061584,455.528595 429.736237,440.199219 429.421051,424.869141 
	C428.999420,424.878387 428.577789,424.887604 428.156189,424.896820 
	C427.871338,428.182587 427.586517,431.468384 427.299438,435.695068 
z"/>
<path fill="#000000" opacity="1.000000" stroke="none" 
	d="
M850.632446,431.492188 
	C850.227783,434.921722 849.895386,437.865479 850.789490,440.855865 
	C851.830872,444.338989 850.501160,445.812714 846.745544,445.477722 
	C844.580750,445.284668 842.909485,444.302368 841.345459,443.149994 
	C825.087402,431.171387 806.370972,424.412842 787.656677,417.595123 
	C770.594604,411.379364 753.202393,406.455627 735.263428,403.556610 
	C724.685608,401.847198 724.112671,402.672028 724.724426,413.332672 
	C725.783264,431.783905 726.429199,450.258728 727.262573,468.722992 
	C727.547668,475.040680 727.960754,481.354034 728.140930,487.674286 
	C728.209778,490.092621 729.499695,491.755463 730.916748,493.362152 
	C739.821411,503.458099 748.338196,513.945679 757.815674,523.475830 
	C774.072693,539.823059 786.623718,558.818359 797.950012,578.593689 
	C805.080688,591.043640 813.245483,602.616882 822.689819,613.229919 
	C828.232849,619.458862 830.898438,626.589111 831.825684,634.307983 
	C833.042114,644.432983 836.306641,653.941772 838.987488,663.642212 
	C839.432129,665.251343 840.259827,666.760742 838.921509,668.687805 
	C836.588989,668.353516 835.724182,666.631287 834.786194,664.608887 
	C830.492126,655.349487 828.904541,645.339355 827.179871,635.477661 
	C825.909302,628.212708 823.847900,621.804260 818.865417,616.234253 
	C807.748169,603.806152 798.890564,589.880310 790.283020,575.555359 
	C778.080078,555.246887 763.327209,536.654358 747.268372,519.016174 
	C726.346924,496.037201 705.509460,472.972168 684.479309,450.091614 
	C673.347107,437.979950 662.537292,425.460876 649.657898,415.082642 
	C640.227966,407.484009 630.219360,401.579132 617.197327,405.305237 
	C612.915344,406.530518 608.363708,406.844666 603.918823,407.454254 
	C602.093994,407.704529 599.916748,407.818939 599.395203,405.490082 
	C598.862915,403.113678 601.077576,403.065521 602.609497,402.613281 
	C611.718628,399.923859 621.015442,397.752289 630.504395,398.890381 
	C638.038208,399.793976 644.133362,404.471405 650.285034,408.690735 
	C664.861755,418.688721 674.333191,433.745392 687.022095,445.632568 
	C694.148743,452.308990 700.414246,459.904968 707.062927,467.091095 
	C708.595520,468.747528 710.108704,470.421936 712.671204,473.226929 
	C712.671204,467.792267 712.800415,464.022919 712.649719,460.264832 
	C711.823059,439.644501 710.922058,419.033691 707.761658,398.589539 
	C706.439148,390.034393 695.684143,380.845703 687.120972,380.199707 
	C667.069641,378.687042 648.181702,372.833221 630.298279,363.639832 
	C610.939514,353.687927 598.541321,336.841583 586.737000,319.516052 
	C578.359253,307.219788 573.538208,293.016357 566.552307,279.957977 
	C564.566223,276.245483 566.745728,274.338226 569.652954,272.860382 
	C575.227295,270.026794 581.427551,269.326080 587.429504,268.143616 
	C593.581970,266.931488 599.709778,265.155182 606.357056,265.538788 
	C591.598694,254.497360 580.933838,239.275909 566.077942,228.560150 
	C562.296204,225.832367 557.689514,225.764252 553.676086,223.919617 
	C552.150757,223.218567 549.581543,223.257751 550.234314,220.580322 
	C550.727905,218.555466 552.292786,217.032654 554.441528,216.802551 
	C560.666260,216.135925 566.713257,214.579178 573.094788,214.422791 
	C579.116394,214.275192 584.859070,213.235718 591.159485,214.202118 
	C600.502136,215.635162 608.977051,218.927734 617.195862,222.895569 
	C630.421997,229.280777 644.106750,235.597717 653.953064,246.774246 
	C666.512512,261.030426 677.200623,276.604218 681.559692,295.797577 
	C683.067261,302.435120 685.836060,308.942535 689.148560,315.061676 
	C691.287048,319.011963 694.495911,321.669067 698.723022,323.510742 
	C700.505554,321.124054 699.854614,318.535767 699.825928,316.167694 
	C699.726990,308.007141 699.439331,299.826782 702.105103,291.965546 
	C703.204285,288.723907 702.053162,286.517944 699.802002,284.453217 
	C697.188171,282.055878 694.217346,280.257874 690.811279,279.307159 
	C680.601440,276.457367 675.114929,269.748199 674.741638,259.270630 
	C674.659180,256.955109 674.180969,255.060776 672.230286,253.627243 
	C661.079895,245.433243 655.221619,233.729401 650.473206,221.188309 
	C647.434448,213.162598 646.059143,204.982117 646.784546,196.470551 
	C647.126404,192.460022 645.799866,189.054352 643.890564,185.665909 
	C634.230408,168.521973 623.629700,151.979065 612.942444,135.456650 
	C601.998047,118.536896 590.044006,102.520447 576.666443,87.476257 
	C569.566284,79.491592 560.828552,74.414055 550.968445,70.911591 
	C549.042603,70.227516 547.208984,69.531616 546.480713,67.141212 
	C548.120972,65.045616 550.439880,65.279213 552.742676,65.424789 
	C577.001404,66.958160 598.398987,76.362129 618.185120,89.756882 
	C630.368103,98.004494 639.959961,109.088165 649.305603,120.328377 
	C650.660278,121.957672 651.737000,123.874512 654.823547,125.233673 
	C653.731689,120.291023 652.856750,115.965904 651.812012,111.682190 
	C650.020081,104.334991 650.076416,97.090782 651.847168,89.687653 
	C653.692688,81.971893 656.153137,74.534142 659.764099,67.493340 
	C665.104370,57.080589 672.894226,48.718758 682.094604,41.654583 
	C689.092346,36.281578 696.063293,30.921812 701.083435,23.459621 
	C704.922180,24.682842 706.422424,28.708000 710.353027,29.452921 
	C714.271851,30.195623 717.840149,30.474598 721.392090,28.303421 
	C730.088440,22.987669 739.814270,20.729933 749.626648,18.470739 
	C754.034973,17.455755 758.320129,16.811710 762.808655,16.593298 
	C766.355591,16.420704 768.413574,17.841730 770.009094,20.692158 
	C774.939514,29.500420 778.220398,38.871239 780.477905,48.717491 
	C782.846436,59.048157 784.117920,69.383110 784.494324,80.011177 
	C785.201965,99.993103 779.654236,118.116386 769.814148,135.069458 
	C762.229065,148.137466 753.631775,160.531113 741.384583,169.975830 
	C745.216919,169.141907 747.994263,166.364883 751.282227,164.579468 
	C754.782227,162.678879 758.187012,160.568222 761.475159,158.318161 
	C773.383484,150.169434 786.747498,146.293716 800.746521,143.329483 
	C812.282532,140.886765 822.295349,145.200577 832.849365,147.569901 
	C834.388672,147.915436 835.723999,148.731415 836.010376,150.397537 
	C836.278381,151.956345 834.975586,152.969406 833.922546,153.548157 
	C819.189636,161.645370 808.832581,174.635925 797.385803,186.348114 
	C788.710571,195.224411 780.005188,204.148300 773.517334,214.911240 
	C771.315063,218.564697 770.328796,220.936203 773.356567,225.592575 
	C778.764282,233.909195 777.571167,243.575348 773.511719,252.621002 
	C771.236572,257.690674 768.256348,262.377808 765.587036,267.410828 
	C771.732605,263.886047 777.800964,260.217743 784.038147,256.863159 
	C803.301880,246.502502 823.858398,242.616867 845.631775,244.600296 
	C849.708252,244.971634 850.018127,247.325348 850.083679,250.350098 
	C850.384827,264.245697 845.744019,276.618744 839.417236,288.809998 
	C827.896545,311.009460 811.441406,328.538696 791.153442,342.771179 
	C788.483276,344.644379 787.769348,347.742004 787.002319,350.558929 
	C783.555603,363.218018 774.534546,371.836212 765.678772,380.604065 
	C764.883606,381.391418 763.630432,381.754578 763.357056,383.365356 
	C775.874329,380.990723 788.268250,378.807648 800.981812,378.941315 
	C822.002441,379.162354 836.958801,389.925964 847.834656,406.598114 
	C852.445740,413.666595 850.874939,422.732697 850.632446,431.492188 
M777.688660,99.491417 
	C782.883545,74.401215 777.688049,50.781357 768.067871,26.447710 
	C760.385437,39.117085 753.241699,50.398075 746.633240,61.984364 
	C742.677612,68.919586 737.826172,75.978256 742.124512,84.729927 
	C742.520142,85.535431 742.413025,86.768440 742.146912,87.689537 
	C740.181458,94.490845 740.513855,101.728073 738.204163,108.449814 
	C732.804993,124.162552 726.220093,139.382492 718.206421,153.921143 
	C714.624451,160.419662 711.148010,167.346268 704.261169,171.170609 
	C700.992798,172.985596 700.595581,175.289062 701.980774,178.161148 
	C703.339905,180.979355 702.981323,183.488739 701.940247,186.304031 
	C699.031555,194.169724 698.567627,198.832901 699.858826,205.569962 
	C699.858826,203.217255 699.794617,201.889343 699.868835,200.569183 
	C700.540588,188.619583 705.642822,180.286316 717.818420,176.642929 
	C725.101379,174.463608 731.758118,170.641174 737.926208,165.939987 
	C750.898438,156.052902 759.870300,143.036209 767.615601,129.032639 
	C772.572083,120.071236 775.765930,110.426628 777.688660,99.491417 
M681.868225,158.619003 
	C685.365906,161.092712 687.798950,164.568741 690.964050,167.956802 
	C700.210266,123.730408 713.221069,79.917206 700.303467,33.576260 
	C691.431335,41.880135 681.496521,48.499977 673.390503,57.333080 
	C664.959839,66.519989 660.796631,77.730698 657.478943,89.370316 
	C655.945923,94.748734 653.950806,100.367889 655.642761,105.891525 
	C657.660522,112.478722 658.756836,119.285133 661.211670,125.780846 
	C665.809570,137.947464 671.105957,149.552170 681.868225,158.619003 
M649.674988,126.836929 
	C634.774780,108.789490 618.870422,92.070999 596.878357,82.260017 
	C587.629272,78.133858 577.940613,75.978394 568.336609,73.103928 
	C570.127380,75.204666 572.179810,76.826309 574.075989,78.613716 
	C598.469849,101.608383 615.424011,130.165756 633.284485,158.028549 
	C642.430359,172.296249 649.278259,188.020920 659.885132,201.338379 
	C665.993958,209.008331 671.831482,217.017883 679.436218,223.809509 
	C680.478943,221.111542 682.041748,219.215134 682.792053,216.756073 
	C686.153564,205.738602 683.185120,194.828491 679.536621,185.155136 
	C671.910095,164.934845 664.214661,144.438904 649.674988,126.836929 
M640.648560,287.859863 
	C635.907654,284.502869 631.264038,280.996307 626.398071,277.831543 
	C621.667175,274.754578 616.524475,272.082336 610.929688,271.432587 
	C601.108887,270.292114 591.419128,271.915222 581.962830,274.642914 
	C578.916687,275.521545 575.172913,274.706085 572.817261,278.112030 
	C573.260498,278.788605 573.589478,279.580963 574.159302,280.117737 
	C586.223022,291.482361 596.827209,304.492218 610.416199,314.119019 
	C629.107422,327.360413 648.245789,339.977905 667.962952,351.666901 
	C674.858337,355.754730 680.603210,361.557281 688.737183,365.470825 
	C685.796082,360.557983 685.005859,355.845306 683.854065,351.215485 
	C681.932922,343.493530 680.615173,335.402496 676.107239,328.708099 
	C666.112427,313.865601 656.538879,298.570038 640.648560,287.859863 
M838.759705,279.260223 
	C842.137329,271.436401 844.898071,263.476013 844.697144,254.264709 
	C798.499023,275.917419 763.019592,308.057648 739.654053,352.455200 
	C748.635620,346.592957 759.473450,346.237244 770.232666,345.813873 
	C776.011719,345.586456 781.544006,344.318390 786.210144,341.193207 
	C799.494141,332.296326 811.471802,321.869904 821.161865,309.013123 
	C827.987488,299.957062 832.951904,289.790100 838.759705,279.260223 
M725.844482,268.424591 
	C730.927979,262.018036 734.519592,254.688049 737.504272,247.222672 
	C740.502319,239.723907 746.320007,232.458176 741.943604,223.440094 
	C741.640320,222.815094 742.000671,221.805984 742.196411,221.010925 
	C743.434875,215.979767 739.878784,211.840561 734.964905,213.692322 
	C730.239380,215.473099 725.310120,215.258774 720.569641,216.985596 
	C704.440186,222.861115 690.565796,231.090179 682.300354,246.993484 
	C676.833862,257.511200 678.300964,267.725647 687.346130,272.437439 
	C694.618896,276.225952 702.759033,278.439514 707.495728,285.412109 
	C715.990173,281.860199 720.805908,275.504303 725.844482,268.424591 
M804.759888,163.207718 
	C811.678589,159.539001 818.597351,155.870285 826.615784,151.618454 
	C822.441345,150.208694 819.740601,148.749390 816.913086,148.436768 
	C804.870850,147.105377 793.258118,149.487885 781.940613,153.406952 
	C770.860229,157.243958 761.588135,164.372055 751.693054,170.369247 
	C735.947327,179.912354 720.993774,190.311386 711.036865,206.380386 
	C708.707153,210.140152 705.908997,213.669388 704.378723,219.312576 
	C714.069214,213.124649 723.882812,211.507782 733.343323,208.885956 
	C739.132202,207.281662 743.513367,210.146210 746.578979,213.812744 
	C749.947754,210.789017 753.009338,208.257034 755.826172,205.477081 
	C771.030884,190.471558 785.446655,174.563797 804.759888,163.207718 
M710.766724,94.921730 
	C708.407410,108.708076 706.209473,122.514381 703.499878,136.249603 
	C701.231750,147.747238 699.845154,159.408249 695.641174,170.112778 
	C705.101013,168.213928 709.091675,160.618317 713.412048,153.300110 
	C717.443909,146.470474 720.228821,139.043686 723.793640,132.008453 
	C730.748047,118.283691 734.776978,103.709686 737.502441,88.701225 
	C737.879700,86.624146 738.064270,84.150345 737.294983,82.292023 
	C734.571228,75.712852 735.838989,68.617561 734.001648,61.832619 
	C731.359131,52.074841 727.960022,43.244328 719.069702,37.671787 
	C715.415527,35.381317 711.329468,33.893848 706.046997,33.465199 
	C710.673950,53.978947 712.087524,73.913689 710.766724,94.921730 
M779.941101,291.444763 
	C799.042114,274.337341 819.678162,259.584167 843.185120,249.669571 
	C826.971191,248.137009 810.980347,249.978424 795.445679,256.927277 
	C767.742004,269.319427 744.144409,285.597137 735.783936,316.929230 
	C732.881836,327.805420 732.265747,339.022461 733.612732,351.619751 
	C738.104004,344.854797 741.964539,339.172241 745.690125,333.402527 
	C755.417419,318.337769 765.672241,303.711609 779.941101,291.444763 
M607.237854,223.334396 
	C594.205078,216.794830 580.361572,219.710602 565.796997,219.427094 
	C566.991150,220.261566 567.305725,220.563370 567.680359,220.731400 
	C585.487488,228.719193 601.845581,239.141281 617.035767,251.265594 
	C636.031311,266.427338 654.482727,282.256836 672.140686,298.987946 
	C673.683167,300.449402 675.148621,302.613007 677.901245,302.195618 
	C678.158264,301.556580 678.483276,301.107727 678.489258,300.654755 
	C678.499878,299.834106 678.444397,298.972321 678.201721,298.194702 
	C674.492615,286.306763 669.915344,274.893494 662.664795,264.555481 
	C654.944336,253.547440 646.389038,243.815292 634.343384,237.186890 
	C625.657532,232.407272 616.836243,227.943527 607.237854,223.334396 
M784.724854,385.339325 
	C773.587341,386.337738 763.201172,389.714233 752.833740,395.129974 
	C758.883972,397.979736 764.984436,398.003601 770.698792,399.574249 
	C784.197205,403.284424 797.040405,408.849518 810.317932,413.161682 
	C820.471497,416.459290 829.349609,421.707886 836.575928,429.607086 
	C838.631409,431.853973 840.863220,433.651947 844.697815,434.342316 
	C844.345886,425.347321 846.757202,416.705292 841.797852,408.423309 
	C829.597107,388.048645 806.376587,381.890656 784.724854,385.339325 
M593.439087,307.063171 
	C589.252075,303.110016 585.690857,298.440674 579.943848,294.380676 
	C590.590271,322.760315 615.809021,351.623474 640.247253,362.822174 
	C655.117798,369.636566 670.744141,374.251831 687.510986,373.271942 
	C685.749451,371.242981 683.827026,369.689636 681.855225,368.201691 
	C665.421814,355.800964 647.383240,345.846130 630.327332,334.395294 
	C617.807373,325.989655 604.463196,318.686066 593.439087,307.063171 
M750.612732,274.173645 
	C753.259399,272.440002 755.681335,270.492157 757.942139,268.221222 
	C765.025940,261.105713 766.884888,251.792664 770.278259,242.834091 
	C774.366150,232.042267 767.832703,223.556335 758.997437,220.031464 
	C754.944275,218.414398 750.586060,220.900146 750.479370,225.222839 
	C750.386780,228.979095 749.056885,232.521194 747.845947,235.736755 
	C739.984070,256.613373 731.100708,276.972870 711.415100,290.064667 
	C713.624512,289.351257 715.699280,288.432861 717.802490,287.585052 
	C728.542969,283.255585 739.290771,278.944427 750.612732,274.173645 
M726.270386,359.507080 
	C727.688416,358.067719 727.679077,356.237122 727.759521,354.388733 
	C728.226501,343.657898 727.186768,332.972321 729.367615,322.166901 
	C731.292419,312.630432 734.036682,303.745850 739.186218,295.595428 
	C741.677979,291.651550 744.459900,287.890961 747.599060,283.338867 
	C737.942017,286.166626 729.344971,288.970062 721.172241,293.115967 
	C715.594849,295.945282 713.296753,300.152496 713.093262,306.237000 
	C712.673218,318.796478 714.636536,331.053284 717.495239,343.173981 
	C718.380493,346.927368 718.997803,350.604431 719.263489,354.438080 
	C719.480408,357.567566 719.388733,361.022827 722.027039,363.473450 
	C724.000732,362.854645 725.022644,361.595581 726.270386,359.507080 
M779.162903,350.096893 
	C777.504883,350.198029 775.759399,349.998749 774.203735,350.451538 
	C766.923584,352.570374 759.448242,353.417114 751.995850,354.597595 
	C747.124268,355.369232 742.130859,356.386658 738.536926,361.541992 
	C733.538574,368.712128 734.769470,377.170715 731.088257,385.118408 
	C736.742065,384.705353 741.661560,384.184387 746.592407,384.032806 
	C751.183960,383.891693 754.973999,382.232605 758.168823,379.036194 
	C763.453247,373.749054 768.581604,368.293823 774.065369,363.222656 
	C777.360962,360.174957 779.289551,356.505219 780.869629,352.479126 
	C781.370667,351.202393 781.673706,350.220398 779.162903,350.096893 
M680.825500,315.546753 
	C678.070374,314.619202 675.315308,313.691650 671.793579,312.506042 
	C675.993835,319.114838 680.274841,324.700958 683.415527,331.038330 
	C687.408142,339.094940 688.446716,347.988037 691.217346,356.386047 
	C694.580933,366.581787 702.445068,373.119537 709.622803,381.789032 
	C709.622803,379.836914 709.723145,379.178192 709.607910,378.559662 
	C707.543518,367.479797 705.757019,356.334137 703.209229,345.365601 
	C702.270935,341.326263 703.029785,336.434479 699.184753,333.357147 
	C692.680481,328.151611 686.919922,322.201630 680.825500,315.546753 
M742.617554,53.381248 
	C748.560669,42.402191 755.379395,31.971321 763.883423,20.856022 
	C747.994995,22.311769 734.353760,25.706970 720.645264,33.436707 
	C731.973694,40.196621 735.799622,50.671997 739.055542,62.406887 
	C740.346558,58.919460 741.256836,56.460400 742.617554,53.381248 
M718.347229,376.932983 
	C718.133423,375.620331 718.202209,374.176239 717.662048,373.015411 
	C712.307312,361.507538 711.510376,349.004547 709.685181,336.739349 
	C708.521362,328.919403 707.685730,321.050629 706.703003,313.203735 
	C707.877686,321.170227 706.844238,329.176788 707.229980,337.121033 
	C707.278137,338.112854 707.392639,339.120270 707.633911,340.080872 
	C710.144226,350.075836 711.662659,360.248535 713.127747,370.431549 
	C713.362610,372.064331 713.203369,374.006958 714.820496,374.932159 
	C717.748657,376.607483 716.947571,378.738434 716.403931,381.346497 
	C714.990845,388.126068 710.398254,394.368439 713.145630,401.915405 
	C714.210205,404.839844 714.694580,408.086792 714.843384,411.215363 
	C715.845337,432.271271 719.672974,453.224762 717.216003,474.410187 
	C716.834351,477.701263 718.081482,480.126221 721.257629,481.717468 
	C721.460449,481.046417 721.702881,480.606720 721.711853,480.162323 
	C722.100342,461.012939 720.810608,441.966064 718.166016,423.004547 
	C717.725403,419.845490 717.696960,416.703369 718.397095,413.576447 
	C719.198242,409.997803 720.019531,406.411041 719.527100,402.710785 
	C719.143066,399.824585 720.604126,398.492218 723.152161,397.638092 
	C725.827332,396.741302 728.385742,396.927460 730.985596,397.734436 
	C734.241272,398.744965 737.527344,399.073364 740.889465,398.179230 
	C735.351074,397.348541 729.979919,395.601257 724.257751,395.989746 
	C719.026550,396.344910 717.763062,395.056427 717.803284,389.710388 
	C717.833191,385.723206 718.195374,381.738495 718.347229,376.932983 
M669.709900,220.785477 
	C663.967529,213.879211 658.225159,206.972961 652.505981,200.094620 
	C651.248474,201.042542 651.244568,201.965851 651.477844,202.699005 
	C653.710632,209.716492 654.197876,217.238678 657.414856,223.954529 
	C661.331360,232.130707 665.123901,240.426224 672.036133,246.673309 
	C673.058350,247.597183 673.941650,249.152023 675.839539,248.242599 
	C679.228210,246.618790 682.149536,237.030121 680.124329,233.772491 
	C677.304749,229.236969 673.909607,225.142502 669.709900,220.785477 
M784.169556,183.674377 
	C773.576904,193.003220 763.165344,202.502655 754.181519,214.228119 
	C758.732544,215.772385 762.272400,216.973541 766.342468,218.354614 
	C776.819153,198.943542 793.544006,184.740784 807.702393,168.359070 
	C799.314331,172.306335 791.826660,177.470901 784.169556,183.674377 
M603.441772,256.049530 
	C612.997681,264.254425 624.698975,268.870270 635.203613,275.488037 
	C625.232117,262.266754 591.839722,236.866470 578.684509,232.184326 
	C586.981445,240.145981 594.980469,247.821823 603.441772,256.049530 
M724.043884,183.518951 
	C726.965820,181.152084 729.887817,178.785202 732.809814,176.418335 
	C726.701172,178.537964 720.957336,181.098633 715.236633,183.710144 
	C707.479797,187.251221 703.583191,196.015640 706.121094,204.501419 
	C711.366760,197.083664 716.725403,189.931763 724.043884,183.518951 
M679.907532,174.606003 
	C681.736877,179.032593 683.566223,183.459183 685.678589,188.570526 
	C686.413940,169.389481 683.808838,163.290405 673.620300,159.459930 
	C675.598328,164.280426 677.576355,169.100922 679.907532,174.606003 
M691.285278,194.502594 
	C690.936829,204.494247 691.354309,214.395462 695.012207,223.965805 
	C690.075623,207.517685 695.011963,190.954834 694.616577,173.309631 
	C689.490173,180.288422 691.919861,187.120163 691.285278,194.502594 
M727.027161,367.034668 
	C723.930908,372.116638 725.432312,377.536652 725.802307,382.898407 
	C727.652832,377.135651 729.151978,371.343597 729.632202,365.377258 
	C729.215454,365.168976 728.798645,364.960724 728.381836,364.752472 
	C728.056519,365.326263 727.731201,365.900024 727.027161,367.034668 
M687.775269,219.297836 
	C687.698425,219.151779 687.650452,218.974640 687.536255,218.868729 
	C687.429871,218.770004 687.182739,218.654327 687.117432,218.703949 
	C682.198547,222.439240 682.248901,227.118271 687.631287,231.232819 
	C690.278015,227.415268 687.400269,223.559708 687.775269,219.297836 
z"/>
<path fill="#000000" opacity="1.000000" stroke="none" 
	d="
M300.274811,278.172058 
	C306.210632,276.158386 311.245605,273.263855 316.041840,269.893066 
	C317.506317,268.863831 319.233429,267.360016 320.838623,269.412994 
	C322.599609,271.665253 320.686584,273.193512 319.107819,274.336212 
	C311.062958,280.158936 301.688141,283.261993 292.615326,286.934265 
	C276.700256,293.376007 259.922150,297.157471 243.675278,302.541046 
	C228.571884,307.545715 218.244537,318.274658 212.043610,332.982574 
	C203.674133,352.834045 202.093353,373.516907 202.664505,394.855286 
	C203.087799,410.669556 204.396835,426.415039 205.502151,442.135437 
	C206.900055,462.016907 208.423416,481.908966 210.026611,501.785522 
	C211.279770,517.322449 209.883484,532.681885 207.661057,547.994873 
	C205.685059,561.609924 203.502274,575.201111 201.075836,588.742859 
	C198.915070,600.801941 196.229721,612.766052 193.900543,624.796265 
	C192.240494,633.370422 191.282333,642.113403 189.091568,650.541992 
	C187.191238,657.853271 187.959641,665.395752 186.089752,672.630798 
	C185.757721,673.915466 185.332794,675.262451 185.409485,676.553406 
	C186.371124,692.740601 183.298538,708.746765 183.304855,724.887146 
	C183.311813,742.679321 181.296204,760.383423 180.672638,778.159180 
	C180.351089,787.325378 180.590652,796.787842 178.990906,805.841064 
	C177.196396,815.996582 178.223236,826.696350 173.470459,836.320190 
	C170.447998,842.440369 166.065323,845.721008 158.840027,846.463257 
	C147.833252,847.593933 136.804459,848.926575 125.961044,851.540222 
	C120.437454,852.871582 114.576286,852.802490 108.129768,853.439331 
	C109.382088,847.475403 114.146362,847.632996 117.424301,846.966248 
	C127.116974,844.994812 136.876755,843.349854 146.562988,841.290466 
	C150.089493,840.540771 153.851196,840.865601 157.507355,840.764893 
	C162.911667,840.616089 166.713898,838.148438 168.583939,833.036804 
	C170.827179,826.905029 171.633743,820.527588 172.209412,814.022156 
	C175.055679,781.857788 176.083435,749.591187 177.707733,717.363464 
	C178.713074,697.417053 179.436584,677.448425 182.146545,657.668213 
	C183.852524,645.216125 186.972931,632.962158 189.303909,620.590149 
	C191.572006,608.551880 193.272629,596.394653 195.913269,584.442322 
	C198.161240,574.267212 198.957718,563.875366 201.344330,553.716125 
	C202.536392,548.641785 202.812042,543.243408 203.449951,538.010925 
	C205.728928,519.317261 205.289856,500.440216 203.284882,481.804291 
	C202.248322,472.169617 202.602936,462.536285 201.467834,453.007019 
	C199.462708,436.173737 198.287277,419.317841 197.521362,402.387878 
	C196.956116,389.894043 196.405487,377.313568 198.011734,365.035706 
	C201.162354,340.952789 208.946289,319.178558 229.711914,303.388031 
	C237.086349,297.780396 244.741577,296.365997 252.749664,294.295685 
	C268.873169,290.127258 284.506378,284.551971 300.274811,278.172058 
z"/>
<path fill="#000000" opacity="1.000000" stroke="none" 
	d="
M275.850616,215.259857 
	C276.352966,211.813126 275.033691,210.042847 272.484985,208.345673 
	C266.433533,204.316071 264.913635,199.767426 266.887421,192.567917 
	C267.333832,190.939636 266.506226,190.125229 266.014099,188.946823 
	C264.939148,186.372620 263.596893,183.972260 263.556885,180.941116 
	C263.498108,176.485687 263.838745,172.568802 269.137695,170.969528 
	C267.198975,167.688034 264.449524,165.764465 262.105865,163.491287 
	C255.519135,157.102615 255.893539,148.363358 263.226532,142.667877 
	C266.151428,140.396133 268.777161,137.957474 270.817932,134.838303 
	C271.944763,133.116058 273.118835,131.606003 272.204895,129.371887 
	C271.751831,128.264420 271.704742,126.801559 272.977783,126.284164 
	C277.091919,124.612053 275.824890,121.913246 274.265320,119.431816 
	C271.788391,115.490723 271.659454,111.924652 273.123474,107.273048 
	C274.669098,102.362305 274.957550,96.842468 275.404572,91.623055 
	C276.088135,83.642113 277.525360,75.890274 279.870392,68.326637 
	C281.659332,62.556629 286.610779,58.966431 290.743500,54.896915 
	C291.927673,53.730831 293.214630,54.213993 294.325500,55.152081 
	C295.603149,56.231007 296.167419,57.517105 295.166840,59.094746 
	C294.901367,59.513329 294.633301,59.984909 294.245209,60.263042 
	C285.109344,66.810478 282.754883,76.398102 281.972687,86.857399 
	C281.602356,91.809258 280.615448,96.727562 279.697174,101.621529 
	C279.071075,104.958427 279.256256,107.166496 283.266296,108.403999 
	C286.880432,109.519318 290.127563,111.886566 290.901855,116.218407 
	C291.196655,117.867729 291.706238,119.558922 289.644958,120.523834 
	C287.464294,121.544640 286.608917,120.103378 285.901184,118.487000 
	C284.958954,116.335190 283.233734,115.712120 281.009705,115.795143 
	C279.574280,117.834946 280.285400,119.543419 281.685730,121.175240 
	C285.309906,125.398582 289.179688,129.103821 295.075867,130.075607 
	C298.508240,130.641312 299.267639,132.140533 296.226349,134.958115 
	C293.690521,137.307480 291.505859,140.013351 288.362457,141.629425 
	C285.756622,142.969131 283.639893,143.360504 281.619324,140.233871 
	C278.964172,136.125259 276.645905,136.243103 273.487244,139.724243 
	C270.814362,142.669983 268.064453,145.558197 265.187286,148.302734 
	C262.204956,151.147614 262.361206,153.877258 264.661255,157.062088 
	C266.760315,159.968613 269.857727,161.709076 272.291168,164.224045 
	C276.743042,168.825119 276.569061,172.937820 271.391296,176.877380 
	C270.489716,177.563354 269.563782,178.217346 268.516052,178.983383 
	C270.517639,184.704941 273.426025,189.698792 277.025360,194.302948 
	C278.186188,195.787842 280.405151,196.725098 278.687622,199.270172 
	C277.090210,201.637222 275.213287,200.246536 273.009369,199.827469 
	C273.919006,201.977600 275.247040,203.731918 276.984375,204.252945 
	C281.930206,205.736191 282.424072,209.337982 282.457794,213.613815 
	C282.571960,228.066910 285.783203,229.853073 300.049957,227.441879 
	C310.069305,225.748535 320.350922,223.645004 330.732300,225.845306 
	C335.613159,226.879807 339.069550,229.822205 342.102722,233.460983 
	C343.125610,234.688156 343.573761,236.094482 342.175323,237.470474 
	C340.684143,238.937744 339.408783,238.212601 338.325623,237.010178 
	C330.867462,228.730972 321.568848,231.140747 312.389648,232.365707 
	C304.221252,233.455734 296.246857,236.169052 287.840088,235.332443 
	C282.373901,234.788467 275.998718,227.195358 275.691895,220.695526 
	C275.613617,219.036407 275.763214,217.366516 275.850616,215.259857 
z"/>
<path fill="#000000" opacity="1.000000" stroke="none" 
	d="
M841.208008,737.295654 
	C843.580566,736.360107 845.567810,735.499268 847.608948,734.794983 
	C849.304138,734.210083 850.532715,734.907410 851.182434,736.558777 
	C851.833618,738.213745 852.125610,739.822571 850.170349,740.866699 
	C834.272278,749.356384 818.476562,753.274719 801.480042,741.094055 
	C794.703064,736.237244 787.326660,733.011169 778.631592,735.044250 
	C777.667358,735.269714 776.645569,735.239136 775.655823,735.368042 
	C773.764343,735.614319 772.377075,735.119629 771.930481,733.038391 
	C771.445007,730.776062 772.553345,729.654724 774.575195,728.989685 
	C786.141235,725.186035 796.888245,726.777405 806.789185,733.857544 
	C809.757629,735.980347 812.455261,738.438538 815.838257,740.013672 
	C822.848755,743.277893 829.457397,741.004761 836.121704,738.913940 
	C837.695862,738.419983 839.271240,737.929993 841.208008,737.295654 
z"/>
</svg>