<svg version="1.1" id="Layer_1" xmlns="http://www.w3.org/2000/svg" xmlns:xlink="http://www.w3.org/1999/xlink" x="0px" y="0px"
	 width="100%" viewBox="0 0 1024 864" enable-background="new 0 0 1024 864" xml:space="preserve">
<path fill="#000000" opacity="1.000000" stroke="none" 
	d="
M52.105789,372.900452 
	C48.389565,365.512756 46.551601,357.843811 43.883698,350.514252 
	C41.005856,342.607880 42.116974,334.895538 41.446915,327.091553 
	C40.828529,319.889313 45.222084,315.050385 49.043419,310.035187 
	C50.844597,307.671265 51.865440,306.074463 51.054474,302.770752 
	C49.061554,294.652008 52.443443,288.009125 61.732376,288.911804 
	C72.348045,289.943451 82.716400,292.340149 93.183037,294.071564 
	C99.799385,295.166046 106.120293,297.623505 112.925919,297.935974 
	C119.266815,298.227112 125.081268,301.605072 131.623947,301.759338 
	C132.686371,296.190948 131.630997,290.210510 132.225662,284.236115 
	C132.720520,279.264404 134.607605,274.937439 136.065704,270.488037 
	C140.859207,255.860489 149.661713,243.323395 157.620239,230.289001 
	C163.181946,221.180130 169.533585,212.543259 174.236679,202.824966 
	C177.484802,196.113174 182.137833,189.897720 187.039383,184.216553 
	C193.031723,177.271118 200.126190,175.558685 210.359009,179.193054 
	C212.498337,179.952881 214.241531,179.962326 215.855194,178.392883 
	C217.512009,176.781479 219.269058,175.228775 220.676849,173.413513 
	C226.223572,166.261368 234.168930,164.253555 242.485458,162.805573 
	C251.781113,161.187134 260.767487,164.373688 269.205841,166.507355 
	C281.867157,169.708832 294.257996,175.279327 304.227142,184.656387 
	C305.989685,186.314255 308.343628,187.343414 310.132446,188.477707 
	C321.958405,181.351486 333.371460,174.270950 345.481598,168.164383 
	C355.083069,163.322815 365.152191,159.602615 374.646912,154.607910 
	C377.090515,153.322433 379.885162,153.911362 382.531311,153.831161 
	C391.014221,153.574005 399.203033,153.527100 406.817047,158.912796 
	C410.473511,161.499161 416.061005,160.411118 420.501709,159.347214 
	C428.388824,157.457626 434.909149,160.331345 441.545807,163.672012 
	C451.863678,168.865692 458.291168,178.109039 464.393066,187.132874 
	C471.320679,197.377808 478.427734,208.129715 482.185852,219.721680 
	C486.358459,232.592163 489.665344,246.580811 483.712677,260.353119 
	C483.271027,261.374969 483.255219,262.638885 483.264984,263.788330 
	C483.323090,270.634491 479.990479,276.515869 478.130615,282.832123 
	C475.853424,290.565582 472.287292,297.584839 468.567047,304.630737 
	C465.361786,310.701263 462.743988,317.094727 458.257233,322.411102 
	C455.687347,325.456116 456.483276,327.544189 460.293793,327.612061 
	C471.117981,327.804962 482.084259,330.668365 492.654083,325.166290 
	C495.381439,323.746582 498.865601,323.309235 501.982178,322.188690 
	C506.920898,320.412964 511.103485,323.987732 515.549805,325.503021 
	C515.979431,325.649414 516.224060,326.332550 516.654236,326.484711 
	C529.806763,331.136719 534.224976,342.476929 538.806152,354.181488 
	C542.333374,363.193268 547.349243,371.627899 551.784790,380.277283 
	C556.640198,389.745422 561.772217,399.094055 565.088501,409.249939 
	C566.162170,412.538300 568.125732,415.159698 570.272278,417.643860 
	C579.948914,428.842346 590.191833,439.585022 599.349487,451.187500 
	C606.175110,459.835327 609.454163,470.960907 606.868713,481.362396 
	C602.952576,497.117432 602.382568,513.306091 598.616394,528.989441 
	C596.496033,537.819336 592.581604,545.582153 585.278870,551.263245 
	C582.524658,553.405884 583.021240,555.167480 585.684265,556.561401 
	C591.553833,559.633728 596.351624,563.981567 600.615295,568.920410 
	C602.683472,571.316101 605.709167,571.481140 608.210999,572.318604 
	C613.388916,574.051758 618.641602,575.704163 623.983826,577.067688 
	C635.202698,579.931152 646.556030,580.671692 657.776062,579.480408 
	C665.886963,578.619263 674.490417,578.048584 681.914734,573.773865 
	C691.350159,568.341309 701.933716,565.550537 711.571472,560.652527 
	C722.108459,555.297607 729.482971,546.153015 737.553833,537.908813 
	C748.734619,526.487915 754.386108,511.799072 761.232605,497.767303 
	C764.771729,490.513947 768.736755,483.388245 772.166199,476.114349 
	C777.556824,464.681091 784.094482,453.961487 790.603638,443.234497 
	C797.738464,431.476532 805.603271,420.129822 812.936462,408.509491 
	C824.948242,389.475281 837.967407,371.325745 852.474487,354.141357 
	C863.052368,341.611420 873.942017,329.252960 882.734497,315.354126 
	C888.687561,305.943756 893.936829,296.097626 899.182617,286.245453 
	C904.453674,276.345764 908.284363,265.871246 912.756409,255.679977 
	C914.440002,251.843262 915.708740,247.421112 916.749939,243.122925 
	C918.049866,237.756516 920.335999,232.608383 921.392151,227.208710 
	C922.750000,220.266754 924.084900,213.231140 925.938171,206.503677 
	C928.966125,195.512390 927.201538,184.091385 930.420837,173.163193 
	C931.782959,168.539642 930.823120,163.236115 930.949524,158.242432 
	C930.995789,156.412872 931.013733,154.569778 931.256226,152.761246 
	C931.559753,150.497162 932.269958,148.419479 935.225220,148.687897 
	C938.019592,148.941681 938.123901,151.144943 938.127808,153.130630 
	C938.152466,165.629410 939.844666,178.479385 937.439575,190.503967 
	C935.834351,198.529541 937.658386,207.456253 932.668945,214.848831 
	C932.094543,215.699814 932.245544,217.116211 932.250183,218.269684 
	C932.279175,225.455750 929.125854,231.826523 927.259460,238.540955 
	C925.323730,245.504852 922.964905,252.290314 920.512634,259.078857 
	C916.091125,271.318848 911.080139,283.303833 904.848389,294.703918 
	C899.439941,304.597961 893.707642,314.355469 887.448975,323.726135 
	C884.559570,328.052399 881.387146,332.318695 878.117371,336.390930 
	C867.494690,349.620911 856.112488,362.249725 845.697815,375.635284 
	C837.555847,386.099884 830.247070,397.216522 822.947205,408.325806 
	C816.995117,417.384033 811.331116,426.610626 805.526184,435.753326 
	C798.280212,447.165771 791.459412,458.821808 784.733948,470.557892 
	C777.738770,482.764648 772.051575,495.585968 765.922119,508.159088 
	C760.797974,518.670105 755.538940,528.967651 748.468506,538.210205 
	C740.165466,549.064026 730.727478,558.838684 718.954529,566.110413 
	C708.920044,572.308289 698.852600,578.318298 687.305237,581.481079 
	C682.560791,582.780518 678.133789,585.197144 673.479797,586.877014 
	C663.178345,590.595398 652.457642,590.404175 641.898987,588.994446 
	C632.201172,587.699646 622.232544,587.582947 612.906677,584.126221 
	C599.753723,579.250916 586.638733,574.269958 575.874695,564.776550 
	C572.617432,561.903748 569.244080,562.781494 566.073669,567.265259 
	C580.349243,574.398132 595.734375,578.952515 609.722839,586.617126 
	C614.934753,589.472839 620.779602,591.666809 623.900208,597.123474 
	C629.270020,606.513000 634.891785,615.784790 638.532776,626.076660 
	C640.976257,632.983643 643.605042,640.132080 648.312622,645.598511 
	C653.232910,651.311951 660.365479,654.872803 668.012268,655.853088 
	C680.110474,657.403870 692.471252,657.266724 704.381165,655.500488 
	C711.863281,654.390991 719.850464,654.474365 727.084839,651.123169 
	C729.197327,650.144653 732.120056,651.082520 734.476685,650.434204 
	C743.849976,647.855652 753.916260,648.970276 763.005859,644.988037 
	C763.301270,644.858582 763.673828,644.778198 763.984863,644.829712 
	C773.094971,646.338989 781.834595,642.839539 790.231873,640.981323 
	C798.369629,639.180603 807.274963,640.948181 814.789734,636.314026 
	C815.063354,636.145264 815.436462,635.985901 815.733337,636.028870 
	C824.663513,637.321167 833.162048,633.952759 841.496460,632.225891 
	C852.829529,629.877808 864.570740,631.522827 875.613892,627.527832 
	C878.606873,626.445129 882.200623,626.905029 885.520935,626.869141 
	C893.353149,626.784424 901.230103,626.305542 909.008667,626.951965 
	C918.536377,627.743774 927.927673,629.613281 937.276184,631.932861 
	C941.986572,633.101501 946.713928,634.328796 951.303528,635.820984 
	C956.473206,637.501648 961.559448,639.673157 966.344788,642.255859 
	C978.561523,648.849670 989.146729,657.506287 998.397888,667.935791 
	C1002.913696,673.026794 1005.287415,679.123047 1008.012634,685.048035 
	C1008.948303,687.082397 1009.658203,690.750671 1006.383179,692.020203 
	C1003.276855,693.224304 1001.009583,692.201233 998.529602,689.028198 
	C990.471497,678.717773 983.271179,667.534546 971.771423,660.306458 
	C964.015869,655.431702 955.976013,651.404846 947.419739,648.045532 
	C921.852295,638.007263 895.221802,637.702759 868.712708,640.394958 
	C858.562805,641.425781 847.818054,640.951965 837.966064,644.954773 
	C837.665283,645.076965 837.300110,645.152100 836.984070,645.108948 
	C826.560242,643.684814 816.388306,646.943420 806.659302,649.025452 
	C798.209473,650.833740 789.024902,648.971680 781.170837,653.611816 
	C780.625977,653.933716 779.893860,654.052002 779.244507,654.066101 
	C772.130798,654.220581 765.196777,654.685364 758.194641,656.809143 
	C752.376343,658.573853 745.808594,658.812927 739.841919,659.320862 
	C729.783569,660.177124 719.908203,662.335327 710.051819,663.771301 
	C700.142578,665.215027 690.378296,666.114319 680.438232,666.188354 
	C673.542542,666.239624 667.400757,663.575623 661.195312,661.090515 
	C660.588562,660.847473 659.996887,660.490479 659.367798,660.401001 
	C658.760376,660.314697 658.113525,660.505981 656.891357,660.640625 
	C666.261475,676.524658 675.475830,691.965881 684.508667,707.512634 
	C691.976624,720.365906 699.118835,733.408752 706.613525,746.246033 
	C712.665771,756.612671 719.013489,766.807129 725.265198,777.056580 
	C726.632812,779.298706 727.501770,781.788269 729.284302,783.857056 
	C730.351746,785.095886 730.153381,787.213989 728.820312,788.460754 
	C727.324646,789.859802 726.133972,788.594421 725.035278,787.485291 
	C724.456848,786.901367 723.659363,785.940125 723.095825,786.026917 
	C716.998840,786.965149 715.989685,781.830872 713.872437,778.270020 
	C699.488342,754.078796 685.105530,729.885620 670.926636,705.573853 
	C662.850098,691.725464 654.262024,678.069153 647.522766,663.573914 
	C639.113159,645.485840 629.563293,627.948242 621.712830,609.618408 
	C618.743591,602.685608 614.032654,598.311707 607.122620,595.918274 
	C594.781616,591.643677 583.218689,585.886841 572.191040,578.821594 
	C567.515869,575.826294 561.639771,574.757568 557.548523,570.538208 
	C556.950867,569.921875 556.053589,569.794983 555.233704,570.269165 
	C548.794373,573.993286 541.262268,571.399353 534.422729,574.086487 
	C529.635071,575.967468 524.062134,574.056580 518.767151,573.443787 
	C507.057953,572.088867 495.593201,569.237305 484.024200,567.956116 
	C483.323334,569.254639 483.822449,570.122986 484.572571,570.314575 
	C492.139008,572.246765 498.403290,576.985657 505.285461,580.301270 
	C517.804993,586.332947 530.056946,593.108276 543.028870,597.976440 
	C558.612671,603.824890 573.596375,611.086548 589.276245,616.620300 
	C591.874695,617.537415 594.843140,617.467529 597.653320,617.703064 
	C599.721008,617.876282 601.175476,618.419495 601.231384,620.873108 
	C601.287903,623.356689 600.140381,624.577087 597.738770,624.790100 
	C595.059814,625.027710 592.378601,624.994629 589.806519,624.194275 
	C581.035400,621.464905 572.111084,619.110840 563.572754,615.775330 
	C547.895447,609.650940 533.104614,601.543396 517.880615,594.398010 
	C512.773926,592.001221 507.624542,589.575928 502.275146,587.840454 
	C490.896423,584.148865 481.923615,575.868042 470.786072,571.792969 
	C469.215057,571.218140 468.764069,569.711670 467.986450,568.442810 
	C466.880676,566.638428 468.665527,563.809998 465.998505,562.651672 
	C462.091980,560.955322 458.593536,558.293335 454.125305,557.328857 
	C451.979401,561.728088 455.542267,564.591614 456.992218,567.381836 
	C460.365967,573.874084 465.049377,579.669983 468.872467,585.948792 
	C472.581665,592.040649 476.203918,598.048828 477.673370,605.413391 
	C478.601685,610.066162 480.389618,614.499023 480.080658,619.418091 
	C479.801239,623.867981 476.185822,627.345703 477.016785,632.257629 
	C477.525452,635.264526 477.831970,637.461853 480.913116,638.995300 
	C488.164032,642.603760 495.745026,645.206970 503.282745,648.044067 
	C508.672974,650.072815 514.753723,648.546692 519.643372,652.455261 
	C521.507996,653.945801 524.917053,653.104309 527.439453,652.321899 
	C531.484741,651.067078 532.595459,653.329407 533.025391,656.476685 
	C533.494629,659.911133 531.082886,660.100769 528.560791,660.210266 
	C517.489197,660.690918 507.037537,658.221375 496.481934,654.953247 
	C489.104126,652.669006 482.404785,649.094788 475.108398,646.605591 
	C470.245758,679.991516 451.552917,701.400391 418.685028,709.367615 
	C418.804901,711.409790 419.633881,711.643494 420.469269,711.692383 
	C427.267883,712.090698 433.239807,715.568298 439.641541,716.944092 
	C444.599121,718.009460 449.054840,720.920410 454.250793,720.769043 
	C458.491333,720.645508 461.826721,723.399231 465.759155,724.446045 
	C480.616974,728.401184 495.326843,732.956909 510.201477,736.915710 
	C512.475281,737.520874 516.154724,737.255066 514.915894,741.585510 
	C514.162048,744.220642 509.763153,745.939636 506.953400,744.493896 
	C500.729614,741.291321 493.398712,742.142456 487.234436,739.178101 
	C481.727905,736.530151 475.501648,737.042480 470.006744,734.201172 
	C466.478729,732.376892 462.111206,731.903198 458.194641,731.033020 
	C445.571686,728.228577 433.122559,724.795410 420.772705,721.109741 
	C412.332489,718.590820 403.376068,717.801758 395.396851,713.687561 
	C394.006653,712.970886 392.665222,713.685730 391.216278,714.408752 
	C381.798004,719.108398 372.556183,724.151978 362.242432,726.904785 
	C351.463409,729.781738 334.957947,723.122192 327.072266,711.923584 
	C325.451080,709.621338 323.805389,707.516541 320.874969,707.815002 
	C317.728943,708.135498 315.505859,709.795715 314.480011,713.199036 
	C311.497009,723.095154 303.145203,726.274475 294.276428,727.648499 
	C287.752747,728.659180 280.974609,728.273682 274.324249,727.588379 
	C272.145508,727.363892 270.021057,727.398193 267.506561,728.307434 
	C270.854828,736.759888 277.201538,740.854736 285.338501,744.256470 
	C291.713196,746.921448 298.846802,745.541626 304.682068,749.400085 
	C305.315247,749.818787 306.344208,749.969177 307.103516,749.816345 
	C315.556152,748.114624 323.059601,753.267395 331.346039,753.107239 
	C334.551422,753.045288 337.423401,755.345947 340.516113,756.408508 
	C355.228546,761.463440 369.597839,767.476562 384.561279,771.878235 
	C392.067505,774.086243 399.178406,777.301636 405.702911,781.870972 
	C411.668396,786.048828 418.678772,787.582275 425.921539,787.993042 
	C430.242615,788.238098 434.554657,788.699524 438.877777,788.828308 
	C441.472748,788.905640 442.264191,790.352722 442.716339,792.522339 
	C443.291016,795.279724 441.155029,795.509949 439.502350,796.022949 
	C431.263092,798.580505 423.200775,796.017395 415.510559,793.952820 
	C410.911560,792.718201 406.100189,791.452087 401.495270,789.675781 
	C392.817596,786.328491 384.220734,782.790588 375.608398,779.285034 
	C367.427277,775.955017 359.452087,772.151550 351.323944,768.692139 
	C338.958221,763.429016 325.794617,763.293396 312.928772,761.057068 
	C300.148834,758.835693 287.685059,755.057373 275.834686,749.527649 
	C269.071472,746.371826 265.867889,740.017578 261.786530,734.434753 
	C258.464386,729.890503 255.476532,725.018372 250.304840,722.253052 
	C244.923203,719.375488 243.361435,714.946350 243.742935,709.011414 
	C244.163040,702.475464 248.554855,699.265137 253.326096,696.720459 
	C261.280670,692.477966 269.806793,693.800781 278.201294,695.591919 
	C278.839386,695.728088 279.444122,696.381836 280.031830,696.339783 
	C292.280762,695.464294 303.948853,700.968933 316.314575,699.808960 
	C313.315521,692.767395 307.310211,689.325806 299.678497,689.340149 
	C292.795135,689.353088 286.638916,693.055542 279.711548,692.688049 
	C275.898926,692.485840 272.057861,692.861450 268.228760,692.921082 
	C259.068817,693.063843 252.272842,688.404053 246.295990,681.839722 
	C241.657227,684.137207 238.108582,687.917236 234.084900,690.824158 
	C224.632767,697.653015 214.083572,699.401978 203.241806,699.462158 
	C194.046082,699.513245 185.083038,696.454590 177.707565,690.850952 
	C170.604843,685.454712 162.474197,683.041992 154.223206,681.178406 
	C144.244568,678.924438 137.435364,673.295654 132.630630,664.662354 
	C130.028076,659.985840 126.703094,655.558716 124.991325,650.576782 
	C122.724327,643.978943 122.468880,636.836731 125.157684,630.204285 
	C126.817657,626.109619 126.707687,623.836914 122.724495,622.419312 
	C117.253960,620.472412 115.402016,616.229919 114.864235,611.029114 
	C114.693604,609.378967 114.946335,607.685608 114.782715,606.034058 
	C113.450394,592.585327 118.489601,581.882324 129.155304,573.181763 
	C125.607224,571.144104 122.382286,569.024536 118.932671,567.374756 
	C113.995804,565.013733 112.130936,560.183228 109.906281,555.945190 
	C107.947777,552.214172 111.546509,549.778137 114.324806,548.143616 
	C121.647705,543.835266 129.158157,539.841614 136.649750,535.826904 
	C138.658310,534.750488 140.117889,532.723999 142.699554,532.579529 
	C143.985687,532.507507 144.692093,531.435364 144.599442,530.073425 
	C144.515732,528.842896 143.524002,528.669678 142.580978,528.248047 
	C134.869812,524.800110 127.179031,521.272766 120.251472,516.379639 
	C117.322212,514.310608 113.984421,514.004944 110.768333,512.980591 
	C101.187454,509.929077 90.674301,509.786438 81.945404,504.151093 
	C79.267868,502.422455 76.943047,499.944916 76.895882,496.581970 
	C76.825272,491.548309 73.628075,490.477112 69.702728,490.203705 
	C48.577236,488.732239 32.719208,477.547791 18.990927,462.587677 
	C17.284752,460.728424 16.569784,457.959595 15.155136,455.131622 
	C20.276421,450.705322 25.542101,446.366821 32.404106,444.719604 
	C34.877701,444.125824 36.532318,442.313721 38.980751,441.524689 
	C44.877598,439.624359 50.698605,438.427124 56.892971,438.607025 
	C59.316002,438.677368 60.679951,436.529877 61.605095,434.616882 
	C64.946266,427.708191 70.378883,422.299377 74.812119,416.194000 
	C76.748032,413.527893 76.809372,412.423798 74.667465,410.054993 
	C64.877220,399.227722 57.909233,386.627197 52.105789,372.900452 
M413.035217,445.525452 
	C412.204681,445.548462 411.311310,445.378387 410.553436,445.624817 
	C404.145233,447.708862 397.646606,449.587830 391.424194,452.136444 
	C388.719025,453.244415 386.422638,456.179504 386.429962,459.134430 
	C386.443726,464.669861 382.636627,468.586395 381.290466,473.931915 
	C384.019409,473.755676 385.407959,476.401398 387.991364,476.824585 
	C392.750824,477.604248 394.378510,481.271515 394.976562,485.345459 
	C395.834625,491.190674 389.221130,499.647125 382.842957,501.611420 
	C377.231140,503.339691 371.592194,505.072327 366.114868,508.620270 
	C369.721771,513.850037 371.790100,520.011780 377.654877,523.325073 
	C388.245392,529.307922 399.631958,532.858032 411.752960,533.638000 
	C426.151947,534.564575 439.656372,538.016113 451.554962,546.502686 
	C456.400421,549.958679 462.244385,551.140686 467.607391,553.255005 
	C472.370758,555.132996 477.364105,556.854309 482.327850,558.191406 
	C486.648895,559.355408 490.436218,562.056335 494.978455,562.323669 
	C511.429504,563.291626 527.859314,564.941223 544.362549,564.485107 
	C554.704285,564.199158 562.763672,558.082764 571.128601,553.036194 
	C573.287476,551.733765 573.520081,548.135620 576.978088,547.674133 
	C580.347717,547.224548 582.142212,544.335083 584.237122,541.942261 
	C589.793884,535.595337 590.602661,527.447021 592.834229,519.843201 
	C593.536926,517.448975 592.325256,516.015076 590.270142,514.563599 
	C582.695801,509.213898 573.949097,506.090454 565.809265,501.920380 
	C554.374939,496.062561 543.634094,489.165100 532.733887,482.525635 
	C518.606384,473.920441 504.570679,465.247833 489.023315,459.379364 
	C464.795563,450.234375 440.434021,441.777679 413.035217,445.525452 
M391.540833,539.964783 
	C376.504761,535.977112 365.489594,526.684082 357.192535,512.928345 
	C354.190216,517.356506 349.799042,515.520020 346.294556,516.858032 
	C343.314972,517.995728 340.304840,517.826599 338.616913,515.312927 
	C336.861633,512.698914 337.602844,509.647430 339.599701,506.966644 
	C341.273468,504.719574 343.428192,502.634491 343.926880,498.652954 
	C340.759766,501.029480 337.257019,500.755615 335.702515,504.625122 
	C332.130554,513.516357 327.571777,521.680786 326.759033,531.876953 
	C325.702393,545.133850 327.019653,557.869385 330.834839,570.215393 
	C333.681061,579.425964 337.942474,588.410522 342.897766,596.704651 
	C349.115021,607.111206 356.180054,617.118896 363.815887,626.539551 
	C371.227264,635.683228 377.895508,645.359375 385.074615,654.657654 
	C387.426514,657.703796 390.036987,660.855164 391.738586,664.349060 
	C397.168732,675.498840 404.724457,685.731445 406.767426,698.385071 
	C406.975708,699.675110 407.870728,700.260193 409.261963,700.335388 
	C417.188110,700.763794 424.786530,699.150818 431.847137,695.800781 
	C441.589478,691.178284 450.092407,685.119446 455.923553,675.462463 
	C460.663025,667.613464 465.112274,660.014648 464.796234,650.450623 
	C464.671265,646.668030 465.228027,642.973755 466.353363,639.190735 
	C468.177429,633.058899 469.384979,626.634094 469.931335,620.254028 
	C471.141388,606.124329 464.113525,594.628296 457.251801,583.096863 
	C453.497253,576.787109 450.054901,570.266052 446.882599,563.643433 
	C444.240540,558.127808 444.606903,550.201233 435.299896,550.687012 
	C434.715363,550.717529 434.127838,550.038879 433.494354,549.884399 
	C427.266876,548.366394 421.085083,546.563599 414.780304,545.484985 
	C407.165161,544.182312 399.582977,542.912415 391.540833,539.964783 
M571.002686,494.487427 
	C573.845215,496.213379 576.690979,497.933929 579.529602,499.666321 
	C587.805420,504.717102 587.800415,504.716553 592.653564,496.765656 
	C593.173645,495.913635 593.754700,495.096954 594.337402,494.285370 
	C602.175903,483.367645 603.047852,470.005859 595.567993,458.924500 
	C589.641357,450.144318 583.105713,441.476440 574.870483,434.844391 
	C566.943909,428.460968 561.784973,420.620514 558.066467,411.600861 
	C553.279358,399.989136 548.465088,388.458313 540.329529,378.660309 
	C534.264404,371.355804 527.640137,364.211060 518.747009,361.028381 
	C509.993835,357.895782 500.322052,358.504028 491.082642,359.846893 
	C480.953491,361.319031 472.244659,366.069427 463.637115,371.720795 
	C452.781921,378.848022 442.325562,386.473053 432.015747,394.298950 
	C428.268158,397.143585 424.744629,400.004517 420.227875,401.529572 
	C412.111206,404.269989 404.440063,408.573242 395.464752,408.193573 
	C393.591461,408.114349 391.469299,409.670227 392.642792,411.135437 
	C394.916168,413.973999 394.492371,417.463867 395.933502,420.284332 
	C399.122528,426.525604 399.400970,432.461823 395.769073,438.531006 
	C395.163025,439.543793 394.971649,440.718781 395.854370,441.861328 
	C397.557159,442.411560 399.014893,441.401794 400.579132,441.005920 
	C412.935913,437.878845 425.406311,436.457001 438.120819,438.416626 
	C445.882812,439.612976 453.665710,439.110443 461.584930,441.195679 
	C469.296936,443.226349 477.109253,445.414978 484.256470,448.443848 
	C491.559326,451.538727 498.703461,455.560242 505.925659,459.063385 
	C527.965576,469.753937 549.436584,481.425842 571.002686,494.487427 
M392.806427,385.389771 
	C401.049988,377.301178 409.552002,369.456451 417.472443,361.062988 
	C427.621826,350.307495 437.116394,338.905731 445.767639,326.939789 
	C450.605713,320.247986 455.181274,313.226776 458.956726,305.729248 
	C462.502625,298.687683 466.103058,291.729492 468.539795,284.204285 
	C471.651184,274.595551 476.116516,265.353394 475.925110,254.893539 
	C475.864410,251.576950 476.428314,248.247818 476.349915,244.932877 
	C476.208527,238.957047 477.053741,232.555649 475.184998,227.123962 
	C472.809540,220.219360 470.536194,213.008163 464.647095,207.478134 
	C457.130615,200.419937 454.151703,189.755676 446.477325,182.634735 
	C442.125336,178.596558 438.418213,173.723175 432.865906,171.193451 
	C430.075226,169.921967 426.254272,168.394257 424.615479,172.048355 
	C423.264099,175.061508 421.723755,178.301224 421.706116,181.974579 
	C421.693787,184.544952 421.429626,187.183014 420.512329,189.789398 
	C417.522125,198.285828 413.837280,206.472610 409.872437,214.526001 
	C406.897675,220.568237 403.805328,226.604141 399.017670,231.520264 
	C394.302673,236.361771 388.539886,240.216919 383.995117,244.974823 
	C377.193939,252.094864 371.766815,260.568085 369.378174,270.675659 
	C367.827545,277.237366 369.691406,280.610107 376.402954,279.940399 
	C383.510864,279.231140 388.843597,282.428925 393.608612,286.976227 
	C396.304749,289.549133 395.535126,295.552734 392.496246,295.698547 
	C388.557373,295.887512 385.700806,298.131348 382.415405,299.408203 
	C373.527466,302.862549 367.255859,308.869537 365.624847,318.866974 
	C364.412445,326.298737 369.224457,332.364075 369.790985,339.539398 
	C370.504089,348.571716 373.792694,357.366425 374.238068,366.528381 
	C374.575653,373.473022 377.486145,379.854614 378.123322,386.818970 
	C378.411194,389.965332 379.834686,394.911346 384.309692,397.137482 
	C385.660950,392.318634 389.221893,389.262604 392.806427,385.389771 
M382.862854,667.515381 
	C376.899017,655.105286 367.784515,644.805359 360.039459,633.593323 
	C356.025055,627.781982 351.220154,622.515869 347.218628,616.696594 
	C341.183258,607.919495 335.106873,599.134460 330.521454,589.458862 
	C326.170837,580.278625 321.104675,571.334534 320.627869,560.820496 
	C320.535919,558.793091 319.964874,556.934082 319.333679,555.017639 
	C316.562256,546.603210 317.062469,538.066345 319.018036,529.600159 
	C319.464752,527.666077 320.425598,525.903503 319.612518,523.543335 
	C313.396637,529.245483 306.645966,534.258545 301.393005,540.526794 
	C293.009338,550.530884 290.642944,563.516602 286.313446,575.479858 
	C284.716675,579.892029 283.636566,584.488403 282.158569,588.946960 
	C279.269928,597.660706 278.119110,606.763916 282.639221,614.819702 
	C287.317963,623.158142 290.297180,631.346802 289.319183,640.963562 
	C288.866516,645.414734 289.239777,649.952026 289.279633,654.449829 
	C289.289886,655.608765 289.061005,657.016479 289.611877,657.885010 
	C294.093384,664.950500 296.776184,673.056152 305.200989,677.554199 
	C309.988342,680.110291 314.673462,683.701721 318.971802,687.574890 
	C326.870178,694.691833 331.223022,704.631592 339.410492,711.481934 
	C346.134125,717.107544 352.893677,719.054443 361.649475,716.698669 
	C374.335266,713.285583 385.810822,707.188354 397.935608,701.976440 
	C395.767731,689.630798 389.468811,678.899475 382.862854,667.515381 
M185.407028,685.170898 
	C188.756241,686.258118 191.944534,687.938232 195.117905,689.277527 
	C204.448608,693.215759 213.367538,691.340698 221.561493,687.969177 
	C233.697800,682.975525 242.281937,672.986145 249.964355,662.625366 
	C255.976074,654.517883 261.923401,646.286072 265.633514,636.711975 
	C268.816956,628.497070 277.039246,621.376953 270.840881,611.223389 
	C270.464325,610.606567 270.707886,609.586304 270.729126,608.755432 
	C270.909851,601.684814 270.618103,594.787048 273.030365,587.690857 
	C275.042603,581.771484 276.921295,575.671875 278.612030,569.591187 
	C280.171143,563.983826 282.644501,558.842834 284.950043,553.581848 
	C286.641815,549.721313 285.704163,548.335449 281.590973,548.351562 
	C280.265411,548.356750 278.815369,548.250122 277.635773,548.724976 
	C269.768677,551.891907 262.108490,555.534119 254.227737,558.704834 
	C248.249786,561.109985 242.192657,563.460815 236.314102,566.180298 
	C229.963791,569.118042 223.229004,571.068604 216.685501,573.498047 
	C212.649323,574.996643 209.124420,575.697815 205.330887,573.412354 
	C204.045166,572.637756 202.770584,571.918762 201.253754,573.213867 
	C191.187271,581.808533 184.652908,592.568237 183.680069,605.769531 
	C182.825485,617.366333 183.496872,629.070129 183.300934,640.723389 
	C183.202682,646.567017 180.759155,651.877747 178.748734,657.246704 
	C176.682556,662.764709 172.766739,667.066772 169.177734,671.591125 
	C167.773849,673.360840 166.481735,675.478760 169.947083,676.566406 
	C175.460068,678.296631 180.191284,681.386169 185.407028,685.170898 
M281.840698,331.016541 
	C278.348907,328.451202 279.547699,325.336853 280.758850,322.175629 
	C282.800354,316.847015 286.235626,312.502075 290.379425,308.839325 
	C288.794342,304.988220 285.710144,305.022797 282.686279,305.182037 
	C273.091888,305.687317 263.966675,304.386719 255.757187,298.893707 
	C253.050995,297.082977 252.202927,295.302277 254.277237,292.361969 
	C256.908417,288.632324 259.658966,284.877869 261.556519,280.764374 
	C264.638519,274.083252 275.719391,265.396454 282.480896,266.880127 
	C287.688293,268.022827 288.946625,265.457611 290.663330,262.307800 
	C297.274963,250.176727 308.324005,245.888565 321.238892,244.970459 
	C325.536469,244.664948 329.842834,244.912552 333.870422,246.319824 
	C335.126343,244.716476 335.087921,243.102539 334.401123,241.812317 
	C329.563782,232.724167 325.377991,223.155640 319.490509,214.791916 
	C311.097229,202.868500 300.659912,192.658066 287.626526,185.596954 
	C283.183533,183.189880 278.607697,180.915558 273.869904,179.192963 
	C267.715210,176.955200 260.862671,176.831528 254.812332,174.880569 
	C247.576767,172.547440 241.503983,173.763443 235.072403,176.148575 
	C230.344467,177.901917 226.657959,183.721344 228.910217,186.253983 
	C232.816238,190.646255 235.470108,195.717880 237.997223,200.881775 
	C241.947342,208.953430 245.379913,217.211121 245.278824,226.458252 
	C245.178345,235.649261 243.748642,244.749634 242.990036,253.808685 
	C241.827515,267.691162 240.199738,281.956207 244.728653,296.109985 
	C246.220169,300.771240 247.493561,306.124390 248.798050,311.040131 
	C250.542770,317.614746 254.510376,323.728577 258.232452,329.590057 
	C259.873138,332.173798 262.020203,335.662506 265.601196,335.795197 
	C269.815613,335.951416 271.966370,338.491608 274.623260,341.030792 
	C279.111053,345.319794 281.724945,350.906982 285.438080,355.722168 
	C288.250671,359.369507 290.733398,363.728699 291.813995,368.149719 
	C293.544525,375.229584 296.690002,382.204803 295.281006,389.857391 
	C295.024658,391.249725 294.834167,393.837921 296.113403,393.961365 
	C302.128967,394.541962 301.216156,399.210663 301.648315,403.451080 
	C303.737244,401.246643 305.376862,399.433838 307.114838,397.720856 
	C307.861755,396.984711 308.919617,395.923981 308.314850,395.240082 
	C305.573242,392.140015 306.572998,387.882721 304.840759,384.637543 
	C301.938477,379.200500 301.153656,373.119415 300.127167,367.374420 
	C298.634247,359.018738 296.354675,350.764313 296.214233,342.024567 
	C296.151245,338.104492 294.192627,333.369232 293.293365,328.343323 
	C289.671509,331.282440 286.274170,331.626801 281.840698,331.016541 
M148.252365,361.663849 
	C143.129898,351.534027 133.333588,346.323822 124.494263,340.661713 
	C115.163330,334.684692 104.746315,330.257172 94.151726,326.621185 
	C90.148972,325.247467 86.095505,323.579254 81.951149,323.152527 
	C73.362152,322.268127 65.110970,320.803192 58.009403,315.190521 
	C56.099480,317.602875 53.988518,319.618866 52.697010,322.067139 
	C51.128197,325.041077 49.422855,328.283997 50.467274,331.848206 
	C52.070362,337.318970 52.004295,343.003143 53.713627,348.618469 
	C55.952374,355.973083 59.113792,362.925323 61.590366,370.137634 
	C65.288277,380.906860 72.615303,389.823914 78.516090,399.448090 
	C80.256584,402.286835 82.530319,405.963715 87.012451,401.607819 
	C89.402695,399.284882 98.850487,400.602936 101.503632,402.854675 
	C112.959747,412.577850 122.066055,425.183563 136.323853,431.460144 
	C142.227081,434.058838 148.135269,436.798584 154.293884,438.619690 
	C159.882233,440.272186 164.942352,442.391724 169.230469,446.398071 
	C171.518219,448.535492 173.249405,451.348297 176.946472,453.365570 
	C175.342117,444.020294 174.655197,435.530609 182.070724,429.299774 
	C176.291702,423.944427 169.916580,419.594238 170.618042,410.819427 
	C170.717514,409.574951 169.975494,408.756927 168.900833,408.019196 
	C157.019150,399.863159 143.643600,394.464142 131.091492,387.545135 
	C122.080872,382.578308 113.623970,377.504883 108.477173,367.944519 
	C105.649673,362.692413 103.408997,357.410217 101.784615,351.715912 
	C101.131065,349.424866 99.661499,347.335754 102.052048,345.500275 
	C104.623177,343.526123 107.355766,343.815826 109.762672,345.978302 
	C120.814407,355.907776 133.654510,361.987793 148.419937,363.781738 
	C149.994064,363.973022 148.697098,362.755798 148.252365,361.663849 
M237.858063,223.968460 
	C235.442566,215.603165 233.302139,206.977051 228.254532,199.840836 
	C224.350388,194.321243 219.818115,188.464752 211.308121,190.307968 
	C209.736191,190.648468 208.067139,190.238281 206.543610,189.277039 
	C202.133621,186.494598 198.556030,187.772888 195.203354,191.477966 
	C188.533554,198.848892 183.896255,207.612503 178.502823,215.820190 
	C169.449020,229.598236 161.094070,243.840225 152.617371,257.990234 
	C149.564316,263.086700 147.519821,268.658752 146.439194,274.458679 
	C146.923874,274.699188 147.072296,274.839386 147.214005,274.832855 
	C148.708374,274.764587 150.201660,274.672668 151.695267,274.587646 
	C165.550079,273.799255 179.152618,273.224945 192.281204,279.913635 
	C203.731094,285.747070 213.674530,293.562531 223.221603,301.713806 
	C231.655685,308.914795 240.027222,316.615753 245.742126,326.519318 
	C246.424728,327.702240 247.754532,328.615051 249.402145,328.928406 
	C249.524185,328.368866 249.856934,327.790924 249.693451,327.453156 
	C246.222168,320.280273 242.107132,313.486389 240.040512,305.579926 
	C238.186325,298.486176 235.554398,291.565582 235.113235,284.200134 
	C234.725464,277.726105 234.706726,271.207825 234.943695,264.724396 
	C235.206604,257.531219 235.045654,250.449127 237.425476,243.231445 
	C239.260925,237.664886 237.852310,231.028702 237.858063,223.968460 
M228.661621,421.921722 
	C227.165253,423.716400 227.800507,425.797424 228.126602,427.690399 
	C229.769730,437.228943 237.008072,440.174103 244.645081,434.500031 
	C245.710983,433.708069 246.807327,432.938660 247.775192,432.036163 
	C253.530167,426.669525 260.504150,426.321198 267.755280,427.139709 
	C269.514832,427.338318 270.846710,428.128204 271.443329,430.004028 
	C272.245941,432.527527 273.395935,434.948914 274.079285,437.499207 
	C274.618317,439.510895 274.871094,441.393585 277.510254,441.686920 
	C280.429901,442.011383 282.914368,441.352509 284.340210,438.689667 
	C285.655396,436.233429 286.931152,433.675812 287.676758,431.009735 
	C289.967224,422.819794 293.904388,415.520416 298.932465,408.737518 
	C299.800476,407.566559 300.770905,406.291534 299.288239,404.795715 
	C296.862640,404.902954 296.028748,406.815857 294.926636,408.442108 
	C289.841431,415.945740 283.843201,421.495483 273.676849,419.433533 
	C270.148773,418.718018 266.462677,419.050812 263.151031,422.017090 
	C261.953705,417.955505 260.149200,414.845642 256.379059,413.716888 
	C254.293869,413.092590 253.107239,411.462830 251.649063,410.177429 
	C248.678055,407.558319 249.876648,404.021149 250.106644,400.800354 
	C250.266479,398.561951 252.102310,398.011353 254.035828,397.679871 
	C257.575836,397.072998 261.021912,397.002197 264.063202,399.267761 
	C265.939575,400.665527 268.122955,400.449463 270.229919,400.849060 
	C275.520660,401.852539 279.890839,399.282135 284.395325,397.450409 
	C287.000244,396.391144 286.593658,394.730743 284.938965,392.370300 
	C279.514160,384.631744 272.461884,378.304077 266.890320,370.636078 
	C263.280975,365.668640 261.690002,359.557159 257.671967,355.256348 
	C251.304596,348.440887 246.668243,340.462952 241.061203,333.158997 
	C240.431015,332.338104 239.772797,331.811340 238.845718,331.326721 
	C229.557846,326.471100 220.594681,321.032440 210.318481,318.195190 
	C201.720139,315.821167 193.659851,316.816315 185.677979,320.254395 
	C184.356094,320.823792 184.050079,321.941711 184.451920,323.151764 
	C186.149582,328.263824 188.707794,333.177399 193.509262,335.617004 
	C203.107742,340.493866 208.822128,347.949097 210.894485,358.656860 
	C212.721619,354.431641 214.892487,350.791962 217.729126,347.663055 
	C223.995972,340.750549 233.777863,339.735596 238.183350,345.918091 
	C242.216354,351.577911 243.882263,358.440918 241.758636,365.164368 
	C239.705841,371.663635 236.863983,378.044434 229.709930,381.076996 
	C226.109604,382.603180 223.054932,385.500793 222.370010,389.323700 
	C221.256027,395.541290 221.511368,401.793427 219.553467,408.144501 
	C217.842728,413.693817 216.107605,419.243591 214.067734,424.710815 
	C210.569244,434.087433 201.991119,440.717926 200.384186,451.255341 
	C199.591537,456.453064 200.712997,461.552032 205.575272,464.493805 
	C206.932663,464.084015 208.004822,463.162384 208.403381,461.885773 
	C210.365875,455.599762 215.749893,454.292328 221.059540,453.861084 
	C230.162827,453.121735 238.363815,457.335083 246.698532,460.088104 
	C259.586914,464.345245 271.659363,471.305389 285.727539,471.411011 
	C288.083832,471.428680 289.454834,474.863556 292.475983,473.063385 
	C289.895813,471.842987 288.471191,469.302460 285.400452,469.261566 
	C277.320618,469.153961 270.222107,466.090088 263.558746,461.711060 
	C254.901352,456.021515 253.201065,452.002350 255.437958,441.939850 
	C255.750458,440.534088 256.288300,438.999359 254.611618,437.650421 
	C251.916473,438.333313 249.883835,440.237488 247.589249,441.814789 
	C238.527954,448.043549 233.626572,448.207153 225.222534,439.100708 
	C219.677963,433.092773 220.155228,425.455048 220.921448,417.955719 
	C221.030548,416.887909 221.991104,416.373627 222.574539,415.606964 
	C224.907761,412.541016 228.339630,412.702698 231.573669,412.154633 
	C234.509857,411.657013 237.049194,410.399536 237.841583,407.276398 
	C238.631424,404.163300 237.108902,402.361023 234.152863,401.219238 
	C232.889999,400.731476 231.935333,399.285614 230.999283,398.144897 
	C228.962204,395.662445 228.860199,392.368011 230.491211,390.264954 
	C232.359726,387.855682 235.756592,388.258667 238.205795,390.125397 
	C241.835007,392.891510 245.426468,395.790405 247.920090,400.172272 
	C245.543625,401.809204 245.072968,404.171875 245.309937,406.757507 
	C245.747711,411.533936 242.844330,414.041077 239.455276,416.824677 
	C236.298218,419.417694 231.877045,418.367432 228.661621,421.921722 
M368.553741,167.156143 
	C350.801453,175.181870 332.370880,181.923416 316.431915,193.910202 
	C322.842163,203.621567 330.169617,211.877350 334.936310,221.833267 
	C338.073425,228.385544 341.195007,234.969238 342.144989,242.220383 
	C342.529205,245.153305 343.557861,246.969467 345.924683,248.705307 
	C351.884186,253.076035 357.483276,257.895447 361.063995,264.645172 
	C362.343292,263.790222 363.522797,262.776886 363.817322,261.268860 
	C365.716675,251.543442 373.651428,246.270493 379.737549,239.670410 
	C385.510712,233.409760 392.581177,228.491837 397.391266,221.164932 
	C403.236176,212.261734 406.747589,202.338913 410.296844,192.552795 
	C412.366180,186.847183 415.106537,180.896347 414.594910,174.387024 
	C414.446350,172.496994 414.498932,170.194077 411.996368,170.406860 
	C405.777344,170.935608 401.293427,167.142319 396.057861,165.030930 
	C392.694183,163.674438 388.218781,160.398102 385.607513,161.868546 
	C380.366333,164.819946 373.888092,162.813202 368.553741,167.156143 
M136.189590,652.403748 
	C138.853928,659.096130 142.822601,664.876831 148.346069,669.524231 
	C151.399750,672.093567 156.802338,671.898132 159.536362,668.951355 
	C168.128799,659.690369 173.905289,649.461487 173.997665,636.095093 
	C174.084930,623.471191 171.694489,610.703613 176.314484,598.108887 
	C177.917587,593.738586 179.747192,589.517334 181.489914,585.220581 
	C183.988235,579.060913 189.351181,575.191589 192.983215,569.891235 
	C187.607986,565.416016 181.964615,565.755249 175.662277,567.666382 
	C168.944870,569.703430 161.961288,571.449707 155.000793,571.907593 
	C149.679184,572.257629 144.820343,574.023560 140.288086,575.803955 
	C128.602417,580.394165 120.824852,600.203125 125.019203,611.962769 
	C125.667862,613.781433 126.879761,614.386414 128.501511,615.081238 
	C132.718384,616.887939 137.269775,623.196716 135.794739,625.766235 
	C133.493561,629.774780 133.722778,634.081360 132.996704,638.278687 
	C132.161499,643.107117 132.845505,647.673035 136.189590,652.403748 
M170.520462,489.390869 
	C162.087036,490.528046 153.405914,491.484772 145.303726,489.069275 
	C137.706955,486.804535 129.838501,486.748016 122.221863,484.564301 
	C116.872017,483.030426 111.125114,481.709778 105.846619,480.088654 
	C101.542946,478.766876 96.772835,478.140625 92.425964,475.890350 
	C89.519066,474.385529 85.723335,470.960938 80.581337,473.034088 
	C87.998207,475.977997 93.787399,479.814423 98.920135,485.152771 
	C108.342552,494.952637 117.563026,505.179047 130.338135,510.978912 
	C137.625000,514.287109 144.564957,518.304565 152.106705,521.116699 
	C158.212814,523.393494 164.212677,525.840454 170.482361,527.761902 
	C177.644852,529.956970 184.884949,531.521423 192.211197,532.683411 
	C196.968796,533.438049 201.481873,531.151001 206.059937,530.312195 
	C218.465347,528.038940 227.595276,520.266968 238.372864,514.497437 
	C236.365265,512.707397 235.384460,511.009033 233.280182,510.387115 
	C224.219269,507.708984 217.915390,501.164246 212.711441,493.924133 
	C210.588898,490.971100 208.963348,489.988098 205.743607,490.153595 
	C200.770981,490.409180 195.686523,490.830902 192.239319,485.941071 
	C191.203125,484.471161 189.264496,483.531982 187.839966,484.382446 
	C182.692627,487.455475 176.426895,486.195343 170.520462,489.390869 
M242.050171,554.297668 
	C249.741974,553.086121 256.133942,548.108826 263.833252,546.809143 
	C265.739990,546.487305 267.730530,544.953247 267.562561,542.657349 
	C267.093323,536.243835 271.772949,533.086487 275.492462,529.227661 
	C279.371277,525.203552 284.198761,522.008484 287.507263,516.571533 
	C286.147186,516.571533 285.595764,516.414917 285.194641,516.594299 
	C274.047668,521.580750 262.830994,520.676453 251.616974,516.940369 
	C249.827255,516.344116 248.619400,516.831360 247.014191,517.634216 
	C242.428635,519.927734 238.587280,523.347046 234.398453,526.146912 
	C224.363586,532.854370 214.208389,538.052979 202.156113,540.800537 
	C191.725372,543.178345 182.439514,540.117432 172.827286,538.761841 
	C165.540009,537.734131 158.584915,531.731384 151.543793,539.210205 
	C151.146942,539.631775 150.284332,539.586670 149.669479,539.835388 
	C140.953171,543.361145 133.094681,548.530579 124.877655,552.996094 
	C120.590874,555.325806 120.690422,557.842285 125.086342,560.149475 
	C129.088852,562.250183 133.519104,564.095337 137.946854,564.707642 
	C146.606247,565.905090 154.888855,562.577148 163.127441,560.627991 
	C174.229294,558.001526 185.196060,559.069031 196.253326,559.526550 
	C196.947372,559.555237 197.559464,560.503601 198.291092,560.854065 
	C203.965012,563.572083 209.934128,566.934875 216.182831,564.508057 
	C224.585281,561.244690 232.894318,557.735107 242.050171,554.297668 
M111.517075,423.030823 
	C107.986252,419.324463 104.586441,415.481415 100.894691,411.942963 
	C94.980209,406.274109 91.049942,406.898407 86.402084,413.510193 
	C82.152367,419.555573 77.858803,425.611450 73.082054,431.235870 
	C64.854248,440.923767 68.306786,452.570770 76.516853,458.425964 
	C85.247261,464.652252 95.491997,468.370361 106.016441,471.216125 
	C110.722588,472.488647 115.449387,473.693146 120.165962,474.945160 
	C127.070717,476.778015 133.669891,479.766235 141.003830,479.866364 
	C145.990082,479.934418 150.950195,480.233032 155.677490,482.222870 
	C157.853577,483.138885 160.325348,483.223450 162.506226,482.210449 
	C167.035370,480.106598 171.815308,479.914398 176.660126,479.821075 
	C178.294724,479.789581 180.149612,480.324097 182.524811,478.233276 
	C176.148819,478.233276 170.843994,478.023529 165.563980,478.295380 
	C160.776917,478.541870 156.363525,477.789429 152.388428,475.079071 
	C149.945969,473.413727 147.759201,471.302216 145.169357,469.938538 
	C139.271973,466.833344 135.536179,461.693665 133.357101,455.910004 
	C132.084290,452.531799 130.809830,447.864014 135.107513,444.528259 
	C137.066360,443.007843 136.178864,441.394623 134.129639,440.318054 
	C125.827881,435.956604 118.191162,430.698029 111.517075,423.030823 
M334.030548,371.154297 
	C344.366486,373.868286 354.260101,377.781250 363.441895,383.042908 
	C364.754822,380.985596 364.203217,379.830627 363.468231,378.997620 
	C359.983032,375.047455 357.127808,370.624847 353.902039,366.492462 
	C345.375061,355.568817 336.304077,345.082825 326.580383,335.203918 
	C320.099060,328.619080 314.903564,320.728333 306.549133,316.008453 
	C300.710083,312.709656 295.875519,314.237854 293.177643,320.824524 
	C298.265320,317.585083 300.646423,318.878357 301.183563,325.168304 
	C301.296692,326.492767 301.036072,328.024139 301.612152,329.106537 
	C306.450989,338.198853 303.718231,348.534607 306.530090,358.181061 
	C308.329529,364.354187 309.304871,371.425751 310.886230,377.815887 
	C313.371857,387.860382 316.329315,398.077759 321.634552,407.251160 
	C326.539093,415.731781 330.947937,424.526459 336.783264,432.425720 
	C339.673248,436.337891 343.789520,439.265167 346.068359,443.950012 
	C349.032867,437.521545 351.755615,431.412170 354.658600,425.389679 
	C356.828918,420.887207 356.375031,415.463562 353.012573,414.315094 
	C349.897430,413.251099 346.994843,411.414032 343.893311,410.808411 
	C338.003754,409.658447 333.848145,405.830841 329.601318,402.378448 
	C322.871460,396.907532 322.725861,388.918213 322.882446,380.984497 
	C323.071411,371.409515 323.670776,370.746796 334.030548,371.154297 
M299.172546,478.227112 
	C288.734131,477.840790 278.329498,479.695160 267.858826,475.796387 
	C263.526489,474.183258 258.081879,473.505707 253.918472,471.551147 
	C246.285172,467.967682 237.903580,467.248596 230.279312,463.825165 
	C227.215988,462.449677 223.072739,463.366150 219.425888,463.450623 
	C217.582367,463.493317 216.450195,464.630463 216.191650,466.608826 
	C215.198090,474.211639 216.087479,481.883942 219.897934,488.225586 
	C226.295090,498.872162 237.319290,503.382812 248.815781,506.658966 
	C254.835022,508.374298 260.989410,509.230591 267.185394,509.946259 
	C272.457367,510.555176 277.502960,510.093109 282.325012,507.697601 
	C291.586548,503.096680 296.975677,494.621368 303.274994,487.028839 
	C304.745392,485.256592 307.096588,483.832703 305.912231,481.194183 
	C304.864594,478.860382 302.512207,478.183685 299.172546,478.227112 
M506.748688,333.519867 
	C500.561127,335.268677 493.749908,334.127625 487.917725,337.342346 
	C484.361572,339.302460 480.834106,340.625916 476.673035,340.278351 
	C470.327759,339.748383 464.083710,340.744171 457.722107,337.723816 
	C450.893585,334.481781 446.227600,339.679016 442.060333,344.763977 
	C430.238617,359.189056 417.320923,372.559753 403.172180,384.749939 
	C398.970917,388.369751 395.029816,392.375153 391.870178,398.193176 
	C397.831177,398.731110 403.584167,399.026337 407.983215,396.962372 
	C418.791046,391.891571 429.390991,386.257629 438.777496,378.563232 
	C448.506927,370.587708 457.965790,362.099274 470.349457,358.066162 
	C477.721771,355.665161 483.990479,349.969208 492.441467,350.749023 
	C494.461273,350.935394 496.355621,350.481171 498.179016,349.442047 
	C499.826935,348.502960 501.820160,348.452637 503.535919,349.068268 
	C510.086334,351.418457 517.204651,351.031433 523.755981,353.420074 
	C525.145935,353.926849 526.898071,354.698730 528.645813,353.490143 
	C528.868286,352.048553 528.972839,350.683136 527.761292,349.400513 
	C523.906921,345.320312 520.042664,341.243286 516.354126,337.015106 
	C513.966553,334.278229 511.127625,333.086609 506.748688,333.519867 
M325.269989,296.201965 
	C318.553070,291.613953 311.909607,286.912476 305.082947,282.493988 
	C302.362152,280.732941 301.520782,282.399231 301.060211,285.174957 
	C299.965271,291.774323 303.980560,297.174072 304.984772,303.271912 
	C305.243652,304.844055 306.964661,306.733765 309.350159,306.866760 
	C310.543945,306.933289 311.416107,307.640656 312.304871,308.500275 
	C322.316162,318.183350 332.403900,327.731628 341.247772,338.601288 
	C350.129822,349.517914 358.778168,360.570190 367.050446,372.814880 
	C367.520172,368.750275 368.283691,365.200684 366.662628,361.986267 
	C363.470062,355.655670 363.047485,348.474426 362.222748,341.924225 
	C360.490173,328.163940 354.861267,317.771210 343.643707,309.947906 
	C337.569885,305.711884 331.806946,301.030029 325.269989,296.201965 
M181.373474,403.812408 
	C182.748001,401.587982 181.783554,398.547791 183.130646,396.644531 
	C189.673676,387.400085 188.812164,376.949524 188.732651,366.547028 
	C188.690918,361.088043 186.565750,356.298126 184.342804,351.548218 
	C180.987244,344.378204 176.179306,337.893250 176.283524,329.283295 
	C176.318375,326.404144 177.463806,323.160950 176.039719,320.175140 
	C172.232895,321.560028 172.262604,325.241699 170.630615,327.769104 
	C165.611862,335.541382 162.674362,344.370117 160.595520,353.130432 
	C158.301056,362.799347 160.250824,372.302734 167.276672,380.381592 
	C174.461456,388.643158 179.421692,397.998779 178.008179,409.569336 
	C177.868469,410.712860 177.683411,412.055176 178.127335,413.027710 
	C179.511017,416.059021 179.715805,420.123352 183.965698,421.155884 
	C185.554245,418.958252 183.962112,417.479889 183.788422,415.855164 
	C183.363754,411.882996 178.173691,409.136841 181.373474,403.812408 
M343.005554,383.952148 
	C339.743805,380.357422 335.059174,381.718353 331.066345,380.093903 
	C328.834900,387.501495 331.786133,392.999603 336.782349,397.193390 
	C343.338074,402.696228 351.368256,405.337494 359.771545,406.675781 
	C361.596863,406.966522 363.223694,407.346771 364.886566,408.319214 
	C373.582977,413.404694 376.116302,422.053833 377.060913,430.934570 
	C377.961060,439.397278 378.617035,447.984009 377.347595,457.463989 
	C381.536957,454.484558 382.160858,450.415894 384.618042,447.623230 
	C388.647919,443.042969 390.088196,437.369019 390.806671,431.422089 
	C391.243286,427.808228 388.526886,425.188385 388.156708,421.967072 
	C387.477356,416.056061 384.282532,411.803986 380.510315,407.499481 
	C374.885162,401.080536 368.295502,395.715790 361.114838,391.560242 
	C355.797546,388.483032 350.528992,384.317719 343.005554,383.952148 
M121.058517,308.215790 
	C117.170448,308.445312 113.435921,305.852600 110.283714,305.871429 
	C102.006516,305.920746 94.593300,301.814728 86.431900,302.206604 
	C82.263519,302.406738 78.225113,302.051849 74.229958,300.330627 
	C70.064209,298.535919 65.578056,298.963776 60.860828,299.733276 
	C61.775372,302.932007 62.311371,305.708374 63.359779,308.275482 
	C65.221298,312.833527 69.837852,311.820801 73.418190,313.169098 
	C82.312286,316.518372 91.837608,317.013031 100.796326,320.534698 
	C109.049065,323.778900 116.746193,327.967926 124.781532,331.528137 
	C130.332367,333.987518 134.476700,338.983856 140.665405,340.729523 
	C140.714600,339.903229 140.923676,339.333649 140.746307,338.936768 
	C137.080612,330.733826 132.466492,322.868225 132.002136,313.552460 
	C131.939621,312.298401 131.125305,311.459625 129.884628,311.041321 
	C127.218712,310.142487 124.568596,309.196808 121.058517,308.215790 
M154.188599,299.317535 
	C159.381531,304.968506 167.409058,306.321655 172.887970,311.866394 
	C174.642288,310.202850 176.263535,308.589630 177.966461,307.067780 
	C180.817596,304.519836 184.713120,302.037689 187.792633,304.305634 
	C192.157501,307.520203 196.572891,306.635162 201.078568,306.795471 
	C203.784805,306.891754 206.255219,307.242645 208.692093,308.662170 
	C211.256577,310.156036 214.149017,310.242523 217.133484,309.056396 
	C211.228516,300.947296 202.933899,296.092957 195.228073,290.981415 
	C189.616150,287.258820 182.433121,285.670288 175.689819,283.629547 
	C165.644150,280.589447 156.443985,282.133331 147.218582,285.201416 
	C141.706131,287.034729 141.646713,289.555847 146.173645,293.071503 
	C148.660950,295.003174 151.194199,296.875671 154.188599,299.317535 
M202.792633,392.125488 
	C201.731400,393.785400 200.607254,395.408875 199.619598,397.111481 
	C194.863388,405.310577 190.526276,413.772949 192.490479,423.619873 
	C193.623749,429.301056 196.133636,434.703186 195.715210,440.776093 
	C199.039444,435.568481 202.353149,430.685364 205.386154,425.664642 
	C211.402740,415.704987 212.290146,403.951477 214.312637,392.881561 
	C215.979462,383.758209 219.739441,377.770081 227.734009,373.763306 
	C230.620438,372.316620 232.706070,369.886414 232.681335,366.264313 
	C232.671066,364.762390 232.852280,363.287201 233.630112,361.924652 
	C235.819031,358.090240 235.005051,354.460083 231.439484,352.411316 
	C227.997055,350.433350 224.760956,352.024750 222.418930,355.284058 
	C219.435333,359.436218 217.494293,364.130127 215.086441,368.579529 
	C210.982620,376.162811 206.908630,383.743439 202.792633,392.125488 
M335.105743,446.957550 
	C334.641235,447.633575 333.856720,448.267456 333.761353,448.992065 
	C332.710724,456.976105 328.163971,463.455048 324.983398,470.555878 
	C322.851257,475.316010 318.387177,478.028687 316.408508,482.448700 
	C311.960663,492.384155 304.451111,500.063354 298.136353,508.628601 
	C298.573059,509.573730 299.430939,509.514465 300.259155,509.505554 
	C303.850403,509.466858 307.101257,509.634064 310.670776,511.428375 
	C318.757507,515.493286 326.063019,511.783875 329.045135,503.117615 
	C329.454193,501.928802 329.917694,500.758728 330.385590,499.500366 
	C327.998047,498.568542 326.509491,500.470276 324.658691,500.865875 
	C321.490173,501.543121 317.331482,503.320496 315.539368,499.918823 
	C313.807404,496.631317 313.683533,492.380646 316.449951,488.682007 
	C320.436035,483.352692 325.747955,479.301422 331.710999,477.549194 
	C341.574951,474.650696 350.559235,469.544403 361.531433,467.248047 
	C351.841919,461.784607 344.970459,454.447021 337.945312,447.287994 
	C337.293915,446.624115 336.592407,446.390533 335.105743,446.957550 
M288.822144,676.194092 
	C288.375458,675.117249 288.181915,673.809143 287.442596,672.999512 
	C280.580627,665.484680 279.392883,656.376831 279.528839,646.722839 
	C279.621399,640.145874 280.486786,633.485229 278.713196,626.893982 
	C270.916473,644.009399 263.956268,661.353882 251.671768,675.611450 
	C254.625992,680.706482 258.462189,683.243408 264.378632,682.826477 
	C270.509430,682.394409 276.693146,682.614807 282.851166,682.711304 
	C285.561218,682.753723 287.569122,681.473816 289.674072,680.075989 
	C292.120087,678.451538 290.024841,677.745667 288.822144,676.194092 
M308.341431,418.846283 
	C306.949982,422.136139 304.432129,425.407349 304.377319,428.719330 
	C304.209991,438.829193 302.182281,449.286438 307.345917,458.852051 
	C309.313080,462.496155 310.480591,467.995728 315.651215,467.605682 
	C320.700836,467.224854 322.063507,462.081726 323.560974,457.858459 
	C323.615387,457.705078 323.559448,457.501312 323.636810,457.368866 
	C326.192993,452.991364 326.001923,447.786682 327.752960,443.268066 
	C329.416473,438.975281 328.963867,435.592102 326.422607,432.123260 
	C321.316101,425.152924 316.801514,417.844971 313.744904,409.547913 
	C312.006287,412.551270 309.565460,414.910980 308.341431,418.846283 
M358.729034,279.627258 
	C355.965881,268.960083 347.903961,262.647369 340.113892,256.103577 
	C337.347626,261.450226 336.714264,267.224609 332.817993,271.501373 
	C328.447266,276.298950 328.850677,287.476074 333.876343,291.446320 
	C338.847565,295.373535 344.682159,298.166931 348.803955,303.423340 
	C351.176697,300.122925 352.979767,297.163818 355.226440,294.592285 
	C358.887054,290.402344 363.781799,286.704529 358.729034,279.627258 
M39.014271,450.440643 
	C35.507290,452.163940 31.677551,452.976410 28.121136,454.754913 
	C24.369928,456.630859 25.110283,457.556091 27.340263,460.013031 
	C31.027149,464.075165 35.454391,467.009430 39.836514,470.193329 
	C43.587238,472.918579 47.862926,474.414825 51.560749,476.933350 
	C56.556602,480.335846 62.672272,479.510712 67.895538,482.103485 
	C71.044662,483.666687 74.892677,482.880005 78.494980,482.049957 
	C74.858459,481.757385 72.101768,479.634308 69.173897,477.992767 
	C59.289219,472.450836 55.966690,463.551178 59.629501,452.775085 
	C61.480865,447.328369 59.266438,444.376129 53.964870,446.548065 
	C49.218540,448.492462 44.318871,448.493317 39.014271,450.440643 
M151.303513,344.204803 
	C151.381714,346.712036 152.272324,348.362366 155.388870,347.966217 
	C155.731171,345.476105 155.513916,342.782867 156.502838,340.648438 
	C159.715515,333.714325 161.790054,326.228699 166.772614,320.108063 
	C168.698257,317.742615 168.319290,315.334747 164.668121,313.992340 
	C161.507523,312.830322 158.827637,310.334991 155.655731,309.235229 
	C149.995071,307.272461 146.587296,301.658051 140.436737,300.211914 
	C138.823761,309.281433 141.128891,317.492859 144.092636,325.799133 
	C146.233704,331.799713 149.255646,337.399628 151.303513,344.204803 
M183.304001,468.903595 
	C188.100983,472.001007 194.054611,473.820282 197.046860,478.999969 
	C199.958099,484.039429 203.746796,483.117432 208.054932,482.292419 
	C205.840836,474.748047 205.816956,474.793335 199.989365,471.720856 
	C198.389709,470.877441 196.569382,469.973267 195.556091,468.582672 
	C191.835632,463.476959 186.734360,462.773407 181.043594,463.304230 
	C176.075455,463.767609 171.527573,462.994049 167.826523,459.114563 
	C161.732422,452.726562 153.832458,451.616211 145.548096,452.076294 
	C142.119583,452.266724 141.470306,454.067261 143.687927,456.624329 
	C147.269485,460.754150 151.095596,464.911255 156.080750,467.077423 
	C161.353989,469.368713 166.872482,473.159485 172.998550,469.954559 
	C176.206055,468.276459 179.213333,467.890503 183.304001,468.903595 
M135.639969,369.294891 
	C128.158264,366.307831 120.030136,364.762451 113.467026,358.272705 
	C113.467026,360.058075 113.212234,360.865051 113.505051,361.318115 
	C118.310173,368.752777 124.392342,375.444244 132.002441,379.456726 
	C143.680649,385.614136 155.659424,391.283417 167.459183,397.478363 
	C168.534546,395.204010 167.078537,394.013763 166.295944,392.397217 
	C163.675171,386.983826 158.363358,383.570312 155.957184,378.100128 
	C154.631622,375.086609 152.848724,373.221985 149.589523,371.851959 
	C145.276199,370.038849 140.887955,369.999329 135.639969,369.294891 
M262.326660,712.814209 
	C261.665222,717.127808 263.449585,718.739624 267.851532,718.752319 
	C277.478302,718.780090 287.091278,716.832703 296.737793,718.550415 
	C297.798126,718.739197 299.044769,718.283752 300.123047,717.897949 
	C304.152100,716.456360 302.624603,712.952332 302.732635,710.192505 
	C302.846619,707.279602 300.492676,707.295532 298.463501,707.387512 
	C290.067139,707.768127 281.923920,706.091431 273.746765,704.558350 
	C266.523499,703.204224 264.107117,704.879456 262.326660,712.814209 
M290.955536,284.718719 
	C288.020752,277.494202 283.389801,272.798187 275.809143,278.084656 
	C269.991608,282.141632 266.801392,287.941071 264.007477,294.505951 
	C269.735077,295.287201 275.128021,294.466187 280.307648,295.846252 
	C283.322235,296.649475 286.129364,298.020477 289.436218,297.921326 
	C293.454315,297.800812 294.690155,296.234528 292.940216,292.667572 
	C291.817535,290.379303 291.121460,288.048523 290.955536,284.718719 
M356.554504,444.894867 
	C355.472626,449.796112 356.747131,453.932312 360.293152,457.531311 
	C362.720703,459.995178 365.502136,459.322906 368.213318,458.769440 
	C370.423737,458.318176 370.497833,456.278412 370.699249,454.405243 
	C371.938080,442.884644 368.281586,431.983429 366.806335,420.496887 
	C365.024719,422.021606 364.742767,423.998901 364.094269,425.511749 
	C361.473267,431.626404 357.331879,437.177185 356.554504,444.894867 
M305.758240,268.742584 
	C308.245148,268.711273 310.732086,268.680145 313.218994,268.648651 
	C323.574005,268.517487 327.496948,265.541687 330.472412,255.560852 
	C311.230469,253.719910 301.670807,255.649811 296.367889,271.222626 
	C299.336334,270.561310 301.662445,268.033112 305.758240,268.742584 
M283.142975,538.660583 
	C293.962006,534.769714 302.914612,528.099060 311.199768,520.259766 
	C305.159515,514.987488 301.042786,514.741272 295.305969,519.520630 
	C288.843933,524.904236 283.709259,531.567017 277.752533,537.843140 
	C279.463867,539.081848 280.984131,538.592407 283.142975,538.660583 
M374.610992,481.386993 
	C368.132477,488.710846 360.325317,494.805481 354.320831,502.391022 
	C355.277344,503.726440 356.257507,503.894135 356.887817,503.433167 
	C364.181030,498.099121 372.980621,496.005463 381.040955,492.355133 
	C383.937439,491.043427 385.532715,489.787354 385.377289,486.794769 
	C385.210358,483.580597 382.224823,482.760223 380.044128,481.569946 
	C378.721649,480.848145 376.829865,481.169434 374.610992,481.386993 
M280.470673,375.061157 
	C282.793640,377.505371 284.286346,380.693939 287.213104,382.654572 
	C288.057129,375.467621 276.330505,350.357056 269.726715,349.406250 
	C268.114807,355.778473 268.487823,360.539398 271.223419,363.994995 
	C274.055450,367.572357 277.104034,370.978333 280.470673,375.061157 
M296.863342,448.241425 
	C296.863342,441.986145 296.863342,435.730865 296.863342,429.475555 
	C296.425446,429.484253 295.987579,429.492920 295.549683,429.501587 
	C295.313782,431.281830 295.474091,433.237915 294.775116,434.812592 
	C291.281525,442.683441 290.822632,450.780518 292.179596,459.161865 
	C293.052277,464.552368 297.710205,468.128998 303.612885,467.316193 
	C300.958344,461.367462 297.655029,455.713104 296.863342,448.241425 
M198.156174,349.354492 
	C195.493958,347.440216 192.831757,345.525970 190.169540,343.611725 
	C192.552780,349.833649 194.191803,356.017029 196.752655,361.746552 
	C199.516815,367.931030 196.794357,374.456757 198.957657,380.954681 
	C204.751801,370.135162 205.643570,359.896179 198.156174,349.354492 
M280.083771,449.202362 
	C272.019806,450.427979 268.014282,444.630249 263.424377,438.178772 
	C263.050262,444.377380 261.703247,449.582672 266.501740,452.790344 
	C270.387726,455.388000 274.863892,457.121307 279.139343,459.106476 
	C280.395691,459.689819 282.269043,459.600861 282.383667,457.989227 
	C282.591553,455.064850 284.083923,451.737396 280.083771,449.202362 
M361.992157,301.562317 
	C359.707458,303.377258 359.171082,306.325287 357.517853,308.578979 
	C356.727722,309.656067 356.742401,311.637817 358.585571,312.343628 
	C359.949280,312.865875 360.623108,311.791779 361.176392,310.666595 
	C365.725952,301.414276 373.694489,295.867706 382.547943,290.942169 
	C380.422302,289.662903 378.998596,288.484924 375.750671,289.675293 
	C369.689117,291.896881 366.605164,296.932037 361.992157,301.562317 
M341.954926,482.449219 
	C340.844055,483.557495 339.310638,483.713806 337.966064,484.304718 
	C333.636810,486.207245 328.735748,487.174500 325.700745,491.464020 
	C336.174347,489.071655 346.478516,486.347931 355.623047,478.370972 
	C350.105804,478.028870 346.844910,481.851410 341.954926,482.449219 
M188.118027,443.324371 
	C187.745163,441.642914 188.589920,439.699005 187.110413,438.193848 
	C181.153397,444.052185 183.068558,453.080414 190.768661,455.811066 
	C192.716141,451.293121 188.269058,448.190399 188.118027,443.324371 
M97.399055,496.571503 
	C94.166649,494.060486 92.087395,489.954132 87.502014,489.126892 
	C85.827728,491.726257 85.535652,494.566864 87.972572,495.921143 
	C91.600365,497.937256 95.396942,500.282349 100.373039,500.341675 
	C99.079041,498.803589 98.362633,497.952057 97.399055,496.571503 
M263.900360,408.919617 
	C268.039581,413.227234 273.430115,412.780151 278.683502,412.751221 
	C280.093018,412.743469 282.031097,412.978088 282.110901,410.880554 
	C282.188660,408.837708 280.590118,408.156616 278.753113,408.078735 
	C277.260590,408.015442 275.680542,407.914185 274.451324,408.849518 
	C272.299957,410.486603 270.320557,410.480652 268.128510,408.925781 
	C266.889679,408.047089 265.385406,407.871216 263.900360,408.919617 
M313.681885,276.054718 
	C313.191132,276.121460 312.700348,276.188202 311.311920,276.377045 
	C315.032532,277.653931 316.389191,281.376099 320.187927,281.485870 
	C321.430115,275.843903 317.779907,276.056427 313.681885,276.054718 
z"/>
<path fill="#000000" opacity="1.000000" stroke="none" 
	d="
M812.021240,126.022064 
	C808.112610,128.388290 807.934326,132.959427 806.295227,136.505432 
	C802.708618,144.264755 801.545288,152.830780 799.480896,161.101456 
	C796.230591,174.123154 796.747925,187.192978 796.425110,200.200989 
	C795.987854,217.816971 797.124634,235.534836 800.674500,252.828247 
	C802.324585,260.866364 804.356934,268.981873 806.252747,276.978119 
	C810.500244,294.893524 810.801025,313.103363 797.391785,328.247772 
	C789.043823,337.675995 779.053589,343.412262 765.636719,340.558624 
	C761.634705,339.707428 757.234863,340.803162 753.188660,340.066223 
	C745.277588,338.625336 736.973877,337.134125 732.425537,329.415588 
	C729.164124,323.881073 725.906555,318.314423 723.247559,312.398041 
	C720.102783,305.400696 715.587646,303.843384 708.630737,306.802063 
	C699.429199,310.715393 690.116272,312.819977 679.976257,311.146057 
	C670.370361,309.560333 661.170776,299.853088 660.953857,290.026703 
	C660.869324,286.196655 660.907532,282.363281 660.934387,278.531708 
	C660.952759,275.913544 662.111023,274.534576 664.944458,274.733612 
	C667.839294,274.937012 668.145264,276.953918 667.804565,278.984222 
	C667.264160,282.204590 667.989136,285.282104 668.284729,288.415375 
	C669.490662,301.201141 684.726868,308.782806 695.820007,302.258270 
	C698.357971,300.765564 700.575500,298.771973 703.525146,297.852478 
	C714.528015,294.422546 725.729919,299.874664 732.391663,311.255615 
	C735.995911,317.413055 738.384216,324.666229 745.678650,327.892883 
	C755.214294,332.110870 764.448792,333.877808 775.397949,331.351715 
	C785.762329,328.960510 790.116272,321.280090 795.140686,314.581177 
	C799.945251,308.175537 799.418640,299.229889 799.629456,291.054016 
	C799.899048,280.595306 797.267334,270.570801 795.434448,260.461884 
	C792.403198,243.743469 790.277588,227.007477 789.387268,210.002838 
	C788.413696,191.408188 789.846069,173.137756 792.909851,154.869171 
	C793.964783,148.579071 797.809326,142.730667 795.981934,135.951767 
	C795.849731,135.461258 796.330627,134.644745 796.752747,134.189804 
	C802.869629,127.596596 806.006592,119.207642 810.287842,111.533249 
	C816.702759,100.034042 825.261536,90.427658 834.680664,81.358047 
	C849.513733,67.075432 867.949829,58.327431 885.268005,47.905033 
	C900.402344,38.796875 916.114990,30.684904 933.028015,25.223883 
	C938.905518,23.326109 944.903503,22.085066 951.103516,21.716753 
	C964.936157,20.895025 971.559326,34.715977 969.125732,45.052101 
	C966.782898,55.002785 965.998840,65.311691 964.271301,75.419006 
	C963.044983,82.593651 959.876709,89.201187 957.616760,96.075958 
	C955.115173,103.685600 951.160217,110.234406 945.089111,115.564262 
	C941.306946,118.884567 940.728333,124.941010 935.425232,127.184029 
	C941.932251,128.432739 945.356384,124.006706 948.610474,119.850021 
	C949.963867,118.121223 951.423767,116.173386 951.916809,113.765465 
	C952.334167,111.726936 953.867371,110.627457 955.990479,110.934952 
	C958.501770,111.298660 958.268799,113.450974 958.413574,115.225258 
	C958.553650,116.941322 957.936157,118.396828 956.932861,119.854004 
	C955.960205,121.266563 954.892334,122.927010 956.448547,125.446098 
	C958.084473,123.590019 959.578857,121.950569 961.008179,120.256195 
	C962.292114,118.734085 963.910156,118.763992 965.565308,119.253853 
	C967.157898,119.725182 967.054382,121.175819 967.315125,122.501534 
	C968.585083,128.957916 964.695618,133.180817 960.845093,137.297897 
	C955.869080,142.618301 948.756470,143.682571 942.289612,145.908234 
	C940.081055,146.668365 937.816650,145.634567 935.628723,144.534943 
	C929.918457,141.665131 926.425293,142.557800 923.091675,148.123779 
	C911.829407,166.927597 886.383057,169.037186 871.222534,165.239044 
	C853.855957,160.888260 837.270508,154.653366 821.077698,147.205978 
	C810.790344,142.474625 809.000366,138.431519 812.135193,126.248306 
	C817.507080,117.929886 823.249939,111.293755 831.211426,105.922348 
	C845.591736,96.220367 860.940125,91.472633 878.096619,91.890831 
	C887.007629,92.108040 895.810059,92.518990 904.580017,94.861511 
	C909.596313,96.201408 914.162048,98.483475 919.084534,99.896729 
	C925.029846,101.603668 929.900024,105.502953 935.303162,108.311104 
	C940.005432,110.754967 942.521545,109.060410 945.224182,105.355095 
	C950.363892,98.308289 952.081848,89.965836 954.508911,81.917862 
	C956.616760,74.928268 958.202698,67.835701 957.897278,60.349728 
	C957.722168,56.055527 956.187256,54.761192 952.208862,55.259472 
	C945.685608,56.076477 939.638000,58.266968 933.540527,60.672611 
	C921.270996,65.513397 910.045044,72.428734 898.074707,77.801010 
	C891.998352,80.528091 885.535828,82.870033 879.008301,83.992561 
	C871.398865,85.301147 864.408264,82.226929 858.319336,77.562759 
	C855.707947,75.562393 853.474915,74.460892 851.495728,78.181152 
	C849.926208,81.131210 847.341125,82.834579 844.313721,84.045906 
	C841.499268,85.172043 839.099609,86.944038 837.021851,89.155067 
	C831.592285,94.932793 825.834900,100.472153 821.712646,107.305489 
	C818.084167,113.320114 813.643799,118.954742 812.021240,126.022064 
M910.189880,134.376236 
	C905.840088,132.068176 901.304321,130.184296 896.799866,128.200439 
	C876.911499,119.441261 856.631653,115.980309 835.529968,123.127991 
	C827.895630,125.713951 821.728027,130.430603 817.682678,137.563766 
	C818.310974,138.147110 818.538879,138.549026 818.787537,138.562302 
	C831.923401,139.263718 843.167236,145.649780 854.989929,150.388321 
	C861.461121,152.981995 868.142944,155.522629 874.967346,156.652725 
	C885.437134,158.386444 895.730042,156.447617 905.060547,151.189713 
	C910.435486,148.160828 915.125488,144.159149 917.965332,138.371552 
	C915.251221,136.916382 913.078613,135.751556 910.189880,134.376236 
M871.184570,66.992050 
	C867.793213,67.042778 865.895325,69.830429 863.173279,71.521149 
	C873.219543,73.139786 883.313599,74.160866 892.989136,70.877365 
	C899.525452,68.659218 905.667114,65.091248 911.710693,61.645359 
	C926.156738,53.408539 941.378174,47.631996 958.009094,45.920380 
	C959.528320,45.764019 960.959961,45.644661 961.714172,43.956444 
	C964.273438,38.228073 959.252075,31.095156 953.043640,31.313656 
	C947.777039,31.499010 943.050110,33.564816 938.236206,35.144733 
	C929.645630,37.964134 921.129456,41.101566 912.822632,44.666447 
	C905.355896,47.870777 898.191406,51.786942 890.931641,55.464146 
	C884.346497,58.799644 877.970703,62.503475 871.184570,66.992050 
M874.560669,99.332680 
	C869.553101,99.054298 864.957153,100.792465 860.180725,101.788353 
	C855.359192,102.793663 850.437012,103.226021 845.922058,105.382019 
	C840.462341,107.989197 835.356506,111.116585 830.897949,116.303947 
	C844.418274,112.531456 857.100830,108.850586 870.674988,109.791832 
	C874.682495,110.069717 877.866699,112.421013 881.525940,112.677803 
	C890.424255,113.302246 897.939819,117.404045 905.844116,120.841072 
	C910.381409,122.814018 915.865784,122.099030 920.519043,124.482674 
	C921.101440,124.781021 922.298462,123.822723 923.230591,123.505211 
	C927.493042,122.053207 927.484192,116.503197 931.625366,115.422127 
	C913.926697,105.878502 895.767334,98.855019 874.560669,99.332680 
z"/>
<path fill="#000000" opacity="1.000000" stroke="none" 
	d="
M680.858398,487.128845 
	C673.596741,484.996582 667.111206,482.059570 660.550171,479.161896 
	C650.799561,474.855591 642.158508,468.951904 633.223389,463.368835 
	C625.518311,458.554291 619.728027,451.622711 612.677979,446.100067 
	C606.398315,441.180878 600.477112,435.768219 594.687195,430.268555 
	C587.062927,423.026398 579.910217,415.406830 577.995361,404.373718 
	C577.639832,402.324982 576.388916,400.378113 575.319519,398.517426 
	C572.764709,394.072266 573.315369,391.760071 577.815125,389.411072 
	C588.764404,383.695251 600.146057,379.463867 612.443298,377.336456 
	C622.636963,375.572968 632.649353,372.651855 642.454163,369.197174 
	C643.226318,368.925110 644.100281,368.674988 644.889771,368.760071 
	C653.954956,369.737305 662.642273,366.442505 671.200134,364.888916 
	C680.673340,363.169159 689.943848,363.477478 699.278137,362.620758 
	C705.423523,362.056732 710.255981,365.206726 715.544006,367.212769 
	C722.561340,369.874878 728.988220,374.252075 736.871338,374.441406 
	C739.087708,374.494629 741.328430,374.521179 743.183350,373.384766 
	C751.044434,368.568695 758.247253,371.579926 764.284668,376.260651 
	C774.548157,384.217743 782.718262,393.904510 789.717041,405.285736 
	C796.286133,415.968353 794.528381,416.913818 788.139709,426.471741 
	C780.921814,437.270416 772.744568,447.447815 765.871704,458.449554 
	C761.906616,464.796631 757.535400,470.808441 752.563599,476.178619 
	C747.711304,481.419678 741.508118,485.054321 734.472595,487.773590 
	C725.996338,491.049652 716.871033,492.245941 708.832825,491.321014 
	C699.745056,490.275330 689.770142,492.518829 680.858398,487.128845 
M705.251038,429.293030 
	C697.856018,427.956360 690.659241,425.899506 683.887573,422.645630 
	C673.158142,417.489929 661.476318,415.933105 650.009338,413.828979 
	C644.857605,412.883698 639.594299,411.177063 634.526245,411.198486 
	C621.266296,411.254608 609.392273,406.206543 597.041260,402.810150 
	C594.425842,402.090942 591.669373,400.169250 588.615967,402.473816 
	C591.679199,406.872437 594.331726,411.226166 597.524048,415.139587 
	C602.516418,421.259674 606.677063,428.332153 613.938538,432.174286 
	C622.791077,436.858337 629.778442,443.600525 636.590454,450.777985 
	C642.739258,457.256683 649.607605,462.775726 658.343445,465.995941 
	C675.856506,472.451569 693.796692,475.821045 712.429504,476.773560 
	C725.972839,477.465881 736.955811,473.483734 746.905701,464.295166 
	C755.596619,456.269196 761.721313,446.350616 768.950439,437.270691 
	C771.114441,434.552521 774.009277,431.677429 774.684387,427.829163 
	C773.092163,426.517700 771.659302,427.674530 770.261414,427.608673 
	C759.769897,427.114258 749.839722,431.246368 739.419495,431.294342 
	C736.755859,431.306580 733.934021,430.834015 731.457520,431.540314 
	C722.656738,434.050385 714.328857,432.469086 705.251038,429.293030 
M762.673096,386.783356 
	C756.597717,381.356842 749.154663,379.573242 741.720459,381.635345 
	C733.286926,383.974640 725.646545,382.354279 718.628113,378.657166 
	C704.105652,371.007050 688.693237,372.601013 673.638611,374.080078 
	C657.814697,375.634735 642.273499,379.522949 626.807678,383.681488 
	C616.430542,386.471680 606.952759,391.377655 596.543091,393.964233 
	C598.172852,394.784668 599.781738,395.097534 601.306641,395.644348 
	C615.799988,400.841797 630.874756,402.628418 646.123535,403.800323 
	C652.687561,404.304810 658.454041,401.497498 664.701538,400.764008 
	C674.842529,399.573303 684.174072,403.637177 694.011475,404.524963 
	C707.597473,405.750977 720.654236,411.572571 734.728760,409.946259 
	C735.638245,409.841187 736.789551,410.179749 737.550110,410.710602 
	C741.580078,413.523285 746.890198,412.336212 751.011475,415.270172 
	C752.459961,416.301361 754.890503,416.450378 756.864502,417.136230 
	C760.790222,418.500244 765.210693,419.513885 769.380920,417.531433 
	C772.453308,416.070923 775.267578,414.032013 778.398560,412.739471 
	C782.349792,411.108368 782.536194,408.887482 780.232422,405.816223 
	C775.173340,399.071564 769.134460,393.222809 762.673096,386.783356 
M725.090027,423.505554 
	C726.357788,423.414337 727.770081,423.721985 729.164917,421.196930 
	C712.216003,418.789917 696.391785,412.936279 678.498230,410.959656 
	C683.309143,416.062439 688.776917,416.814636 693.543640,418.357941 
	C703.466980,421.570740 714.047668,421.869690 725.090027,423.505554 
z"/>
</svg>