<svg version="1.1" id="Layer_1" xmlns="http://www.w3.org/2000/svg" xmlns:xlink="http://www.w3.org/1999/xlink" x="0px" y="0px"
	 width="24" height="24" viewBox="0 0 1080 694" enable-background="new 0 0 1080 694" xml:space="preserve">

<path fill="#595A5F" opacity="1.000000" stroke="none" 
	d="
M116.474411,625.959534 
	C103.345818,613.679382 91.081131,600.870300 87.461319,582.232544 
	C81.304207,550.530884 91.766640,524.574341 116.880585,506.499023 
	C127.811806,498.631470 140.027023,495.916809 152.977737,495.019836 
	C163.224075,494.310181 162.862381,494.347473 163.122116,484.498199 
	C163.445831,472.223938 162.893784,459.628082 165.483505,447.774872 
	C170.712692,423.840607 184.148285,404.554138 204.161194,390.209015 
	C207.499512,387.816071 208.144363,385.581329 207.071716,381.850800 
	C199.034775,353.899780 196.093613,325.254517 197.126617,296.316498 
	C198.965378,244.807678 216.436798,199.040146 249.298157,159.226807 
	C266.318146,138.606171 284.694458,119.528267 307.250488,104.696663 
	C338.670258,84.036728 373.223267,73.383781 410.228424,67.599396 
	C432.320496,64.146118 454.108032,65.431366 475.988892,65.285309 
	C553.129761,64.770393 630.280884,65.618073 707.418823,64.918465 
	C770.510254,64.346252 826.450012,83.300865 876.601746,121.304893 
	C925.041687,158.011749 955.361511,206.451294 971.159729,264.395355 
	C979.775024,295.994080 979.934448,328.258057 975.519531,360.594849 
	C972.471985,382.917267 964.491089,403.539856 955.284912,423.995605 
	C945.386108,445.990509 931.845764,465.197601 916.261475,483.351562 
	C907.460083,493.604279 896.058289,500.428802 885.184570,508.959167 
	C882.472168,509.807251 880.343933,510.347778 878.510864,511.401733 
	C869.622986,516.512085 860.814270,521.760193 851.706421,527.036377 
	C850.954468,527.400757 850.473572,527.688171 849.659180,528.076782 
	C847.232117,529.155396 845.138611,530.132751 842.686340,531.169861 
	C832.904907,534.517395 823.482117,537.805298 813.678711,541.162903 
	C809.419800,542.201477 805.554016,543.223755 801.661255,544.130432 
	C777.079773,549.855713 752.054321,548.977356 727.106140,548.991394 
	C630.772949,549.045776 534.439636,549.100891 438.106873,548.896790 
	C426.830597,548.872925 415.490967,547.733887 404.302673,546.214050 
	C393.768951,544.783142 383.396484,542.165283 372.588623,540.015076 
	C369.152466,538.961731 366.080750,537.962830 362.710815,536.771973 
	C358.549744,535.035950 354.606903,533.662109 350.848328,531.896118 
	C347.610992,530.374939 345.562195,530.809143 343.279419,533.837219 
	C333.487122,546.826660 321.079163,556.608765 306.412537,563.761719 
	C292.620667,570.488098 277.946564,573.534668 262.918671,573.458679 
	C253.226440,573.409729 243.501892,570.889282 233.886353,568.996277 
	C230.162430,568.263184 228.045364,568.460205 227.743927,572.684570 
	C227.661362,573.841614 227.321243,574.977844 227.163300,576.132324 
	C222.431458,610.723816 192.329346,637.021667 157.476288,637.006836 
	C153.310516,637.005066 149.144760,637.018372 144.598480,636.930603 
	C140.460403,635.926453 136.702866,635.016357 132.657532,633.914612 
	C128.217407,631.827332 124.065086,629.931763 119.912766,628.036194 
	C119.912766,628.036194 119.986877,628.008606 119.783180,627.841064 
	C119.031212,627.448425 118.482933,627.223267 117.934662,626.998108 
	C117.934662,626.998108 118.011574,626.961487 117.761620,626.829285 
	C117.165916,626.451233 116.820168,626.205383 116.474411,625.959534 
M430.479034,496.582062 
	C432.348053,497.052002 434.216797,497.931915 436.086121,497.933167 
	C533.762451,497.999390 631.438782,498.002289 729.115051,497.910919 
	C731.071716,497.909088 733.027283,496.714691 735.769653,495.774994 
	C736.598572,495.693329 737.425964,495.589844 738.256531,495.532990 
	C841.328796,488.476990 919.586060,397.895386 911.707336,294.762726 
	C904.287659,197.639374 822.641846,122.176956 725.114563,122.218384 
	C629.803955,122.258865 534.493408,122.213097 439.182831,122.250763 
	C433.861237,122.252861 428.523865,122.479088 423.220703,122.922714 
	C312.149109,132.214218 233.747879,237.933319 256.773956,346.947235 
	C261.436371,369.020782 270.613403,389.315704 279.286987,409.869354 
	C279.942322,411.422333 280.454651,413.035675 281.162048,414.973206 
	C240.564621,407.193604 216.227158,436.994568 213.241089,460.952881 
	C209.707718,489.302368 228.385544,516.170898 256.245911,521.908936 
	C270.236755,524.790466 283.585022,522.829956 295.670258,515.223206 
	C316.059479,502.389771 324.125854,483.286011 321.862732,458.855194 
	C324.409424,460.360565 325.909943,461.368988 327.512146,462.175476 
	C340.140259,468.531738 352.492188,475.552979 365.497314,481.017334 
	C386.055939,489.655518 407.881348,493.647491 430.479034,496.582062 
M166.375854,541.916443 
	C164.788162,541.422913 163.227127,540.806274 161.608444,540.455994 
	C150.950531,538.149963 139.923798,543.120605 134.284927,552.713135 
	C128.659378,562.283020 129.774704,574.310242 137.047791,582.506042 
	C144.557068,590.968018 156.099014,593.872864 166.137848,589.485046 
	C175.800400,585.261597 181.507370,577.846497 182.079971,567.175903 
	C182.699890,555.623901 177.200287,547.461792 166.375854,541.916443 
z"/>
<path fill="#858585" opacity="1.000000" stroke="none" 
	d="
M851.977539,526.959473 
	C860.814270,521.760193 869.622986,516.512085 878.510864,511.401733 
	C880.343933,510.347778 882.472168,509.807251 884.854614,509.021606 
	C873.369202,516.912598 861.899902,525.526306 849.532837,532.561951 
	C824.279236,546.928833 796.588928,554.449219 768.054260,558.912170 
	C761.510437,559.935669 754.788574,560.170532 748.148254,560.175415 
	C646.184143,560.250793 544.219971,560.251038 442.255829,560.210571 
	C418.770264,560.201233 396.097046,555.113220 374.035736,547.666321 
	C363.879578,544.238037 356.399506,545.211182 348.694427,553.198242 
	C338.149872,564.128723 325.848938,573.063904 311.426910,578.604858 
	C297.527405,583.945007 283.104401,585.594788 268.356110,584.498108 
	C262.082001,584.031616 255.846756,583.018555 249.601395,582.196655 
	C244.829208,581.568665 241.594666,583.210510 239.908859,587.948120 
	C237.240997,595.445618 235.201004,603.335999 231.384521,610.222900 
	C220.690521,629.520630 205.326691,643.940979 182.826614,647.333740 
	C159.344269,650.874634 137.334427,646.837646 119.893959,628.384277 
	C124.065086,629.931763 128.217407,631.827332 132.786697,634.225708 
	C134.293869,635.690491 135.246552,636.911316 136.495346,637.574646 
	C150.405670,644.963013 165.153137,647.803284 180.684021,644.669800 
	C190.240402,642.741699 199.851349,640.540527 206.992279,632.990845 
	C206.998779,633.000000 206.983765,632.978333 207.340073,632.938354 
	C216.156494,628.431458 222.123657,621.676453 225.995956,612.746460 
	C226.014893,612.511536 226.051453,612.041687 226.367920,611.909424 
	C227.967850,609.712646 229.685150,607.796143 230.450180,605.554626 
	C232.433090,599.744934 234.151978,593.832214 235.690277,587.886719 
	C237.862427,579.491333 242.678802,576.367920 251.231064,578.702026 
	C268.753906,583.484375 286.124634,583.389954 303.384766,577.622314 
	C305.038208,577.069702 306.494690,575.927612 308.362305,575.041626 
	C309.108154,574.998169 309.534271,574.972351 310.336365,574.919067 
	C323.571381,570.575195 334.377472,563.173401 343.988251,553.644531 
	C357.396606,540.350403 354.777710,537.397156 377.379150,544.936279 
	C378.135193,544.965881 378.567108,544.986206 379.188477,545.234009 
	C380.584198,545.664551 381.790466,545.867615 383.318878,546.080811 
	C384.070648,546.095886 384.500275,546.100769 385.118958,546.389648 
	C394.522614,551.958374 404.738983,553.129700 415.374512,553.920288 
	C416.133911,553.937134 416.567780,553.950195 417.335876,554.149536 
	C427.213654,555.550232 436.754578,557.795471 446.301270,557.820251 
	C545.688232,558.078186 645.076477,558.083618 744.463318,557.805481 
	C753.645691,557.779785 762.821228,555.318237 772.370605,553.981689 
	C773.482727,553.966064 774.224060,553.956482 775.398560,553.961975 
	C777.651062,553.798828 779.544006,553.884460 781.278381,553.401001 
	C796.329956,549.205200 811.487366,545.315796 826.318542,540.438904 
	C832.272766,538.481079 837.491516,534.286682 843.045044,531.110168 
	C845.138611,530.132751 847.232117,529.155396 849.863586,528.151978 
	C850.926880,527.737183 851.452209,527.348328 851.977539,526.959473 
z"/>
<path fill="#858585" opacity="1.000000" stroke="none" 
	d="
M118.095520,627.289307 
	C118.482933,627.223267 119.031212,627.448425 119.796844,627.878174 
	C119.428268,627.915405 118.842323,627.747986 118.095520,627.289307 
z"/>
<path fill="#858585" opacity="1.000000" stroke="none" 
	d="
M116.712181,626.177979 
	C116.820168,626.205383 117.165916,626.451233 117.780060,626.867676 
	C117.682274,626.824341 117.316109,626.610413 116.712181,626.177979 
z"/>
<path fill="#D2D3D1" opacity="1.000000" stroke="none" 
	d="
M429.999084,495.995422 
	C407.881348,493.647491 386.055939,489.655518 365.497314,481.017334 
	C352.492188,475.552979 340.140259,468.531738 327.512146,462.175476 
	C325.909943,461.368988 324.409424,460.360565 321.862732,458.855194 
	C324.125854,483.286011 316.059479,502.389771 295.670258,515.223206 
	C283.585022,522.829956 270.236755,524.790466 256.245911,521.908936 
	C228.385544,516.170898 209.707718,489.302368 213.241089,460.952881 
	C216.227158,436.994568 240.564621,407.193604 281.162048,414.973206 
	C280.454651,413.035675 279.942322,411.422333 279.286987,409.869354 
	C270.613403,389.315704 261.436371,369.020782 256.773956,346.947235 
	C233.747879,237.933319 312.149109,132.214218 423.220703,122.922714 
	C428.523865,122.479088 433.861237,122.252861 439.182831,122.250763 
	C534.493408,122.213097 629.803955,122.258865 725.114563,122.218384 
	C822.641846,122.176956 904.287659,197.639374 911.707336,294.762726 
	C919.586060,397.895386 841.328796,488.476990 738.256531,495.532990 
	C737.425964,495.589844 736.598572,495.693329 734.909790,495.895294 
	C632.699707,496.008850 531.349365,496.002136 429.999084,495.995422 
M639.674438,311.580322 
	C638.953735,289.661041 628.879578,273.215515 609.541687,263.273071 
	C589.996277,253.223923 570.400635,254.712982 552.246521,267.086639 
	C530.430603,281.956085 522.507324,310.475922 532.846497,334.521271 
	C543.394714,359.052887 569.224365,372.594666 595.368958,367.300140 
	C621.410156,362.026520 639.360901,339.824982 639.674438,311.580322 
M690.096924,335.271393 
	C702.765442,361.815338 731.019531,374.542694 757.954590,365.838562 
	C784.836121,357.151764 801.098694,330.437073 795.766785,302.697815 
	C791.526184,280.635681 778.305481,265.672058 756.781799,259.403595 
	C734.900024,253.030838 715.196594,258.386230 699.871460,275.361237 
	C684.265198,292.647614 681.598022,312.860901 690.096924,335.271393 
M464.877930,271.614349 
	C440.963135,250.604675 405.407196,252.566040 385.233490,276.007782 
	C364.819550,299.728729 367.451569,334.936401 391.155243,355.221771 
	C413.732300,374.542877 447.852509,372.416626 468.298981,350.414398 
	C488.907562,328.237762 487.643768,294.228760 464.877930,271.614349 
z"/>
<path fill="#686869" opacity="1.000000" stroke="none" 
	d="
M417.001648,553.963257 
	C416.567780,553.950195 416.133911,553.937134 415.165161,553.638489 
	C413.633423,552.803955 412.696228,551.981934 411.630249,551.748840 
	C402.743561,549.806458 393.833160,547.972412 384.929932,546.105591 
	C384.500275,546.100769 384.070648,546.095886 383.107178,545.881042 
	C381.381897,545.449585 380.190460,545.228088 378.999023,545.006470 
	C378.567108,544.986206 378.135193,544.965881 377.253510,544.636719 
	C375.520172,542.908447 374.236603,541.489014 372.953064,540.069580 
	C383.396484,542.165283 393.768951,544.783142 404.302673,546.214050 
	C415.490967,547.733887 426.830597,548.872925 438.106873,548.896790 
	C534.439636,549.100891 630.772949,549.045776 727.106140,548.991394 
	C752.054321,548.977356 777.079773,549.855713 801.661255,544.130432 
	C805.554016,543.223755 809.419800,542.201477 813.496826,541.458740 
	C813.078308,542.224304 812.541565,543.071167 811.831787,543.257019 
	C801.730774,545.901062 791.587585,548.385925 781.501831,551.085571 
	C779.230469,551.693604 777.139465,552.975342 774.965454,553.946899 
	C774.224060,553.956482 773.482727,553.966064 772.030457,553.817810 
	C770.011475,553.581543 768.695312,553.369324 767.396484,553.446594 
	C759.267273,553.930847 751.142334,554.929871 743.015137,554.938477 
	C643.255554,555.043701 543.495728,555.016479 443.736023,554.973938 
	C439.590149,554.972168 435.447601,554.399963 431.297852,554.242981 
	C426.535736,554.062805 421.767334,554.049255 417.001648,553.963257 
z"/>
<path fill="#686869" opacity="1.000000" stroke="none" 
	d="
M226.051453,612.041687 
	C226.051453,612.041687 226.014893,612.511536 225.697769,612.890198 
	C219.248352,619.838684 213.116058,626.408508 206.983765,632.978333 
	C206.983765,632.978333 206.998779,633.000000 206.623672,633.035645 
	C205.141205,633.409851 203.891159,633.523499 202.948364,634.121521 
	C192.382355,640.823242 180.609772,643.653320 168.367661,643.570312 
	C161.526825,643.523926 154.674667,641.551636 147.891403,640.140625 
	C146.753769,639.903992 145.941559,638.102966 144.978989,637.024780 
	C149.144760,637.018372 153.310516,637.005066 157.476288,637.006836 
	C192.329346,637.021667 222.431458,610.723816 227.163300,576.132324 
	C227.321243,574.977844 227.661362,573.841614 227.743927,572.684570 
	C228.045364,568.460205 230.162430,568.263184 233.886353,568.996277 
	C243.501892,570.889282 253.226440,573.409729 262.918671,573.458679 
	C277.946564,573.534668 292.620667,570.488098 306.412537,563.761719 
	C321.079163,556.608765 333.487122,546.826660 343.279419,533.837219 
	C345.562195,530.809143 347.610992,530.374939 350.848328,531.896118 
	C354.606903,533.662109 358.549744,535.035950 362.466614,537.034546 
	C357.941650,540.228943 352.557678,542.176758 348.935242,545.857971 
	C338.250000,556.716614 326.904449,566.392212 312.640350,572.239502 
	C311.558868,572.682800 310.845123,574.023132 309.960419,574.946472 
	C309.534271,574.972351 309.108154,574.998169 307.954895,575.070801 
	C303.480927,575.892822 299.766724,577.025208 295.980621,577.371887 
	C287.084930,578.186523 278.149017,579.143127 269.240601,579.043091 
	C262.824768,578.971008 256.417755,577.345337 250.023300,576.310730 
	C240.683533,574.799500 234.905762,578.635254 233.129120,587.264832 
	C231.961990,592.933777 230.424774,598.532532 228.884644,604.116211 
	C228.140701,606.813293 227.008087,609.403259 226.051453,612.041687 
z"/>
<path fill="#D0D1CF" opacity="1.000000" stroke="none" 
	d="
M166.735565,542.059326 
	C177.200287,547.461792 182.699890,555.623901 182.079971,567.175903 
	C181.507370,577.846497 175.800400,585.261597 166.137848,589.485046 
	C156.099014,593.872864 144.557068,590.968018 137.047791,582.506042 
	C129.774704,574.310242 128.659378,562.283020 134.284927,552.713135 
	C139.923798,543.120605 150.950531,538.149963 161.608444,540.455994 
	C163.227127,540.806274 164.788162,541.422913 166.735565,542.059326 
z"/>
<path fill="#494A4D" opacity="1.000000" stroke="none" 
	d="
M430.239075,496.288757 
	C531.349365,496.002136 632.699707,496.008850 734.516663,496.046143 
	C733.027283,496.714691 731.071716,497.909088 729.115051,497.910919 
	C631.438782,498.002289 533.762451,497.999390 436.086121,497.933167 
	C434.216797,497.931915 432.348053,497.052002 430.239075,496.288757 
z"/>
<path fill="#767676" opacity="1.000000" stroke="none" 
	d="
M310.336365,574.919067 
	C310.845123,574.023132 311.558868,572.682800 312.640350,572.239502 
	C326.904449,566.392212 338.250000,556.716614 348.935242,545.857971 
	C352.557678,542.176758 357.941650,540.228943 362.764862,537.226501 
	C366.080750,537.962830 369.152466,538.961731 372.588593,540.015076 
	C374.236603,541.489014 375.520172,542.908447 376.929382,544.627441 
	C354.777710,537.397156 357.396606,540.350403 343.988251,553.644531 
	C334.377472,563.173401 323.571381,570.575195 310.336365,574.919067 
z"/>
<path fill="#767676" opacity="1.000000" stroke="none" 
	d="
M144.598480,636.930664 
	C145.941559,638.102966 146.753769,639.903992 147.891403,640.140625 
	C154.674667,641.551636 161.526825,643.523926 168.367661,643.570312 
	C180.609772,643.653320 192.382355,640.823242 202.948364,634.121521 
	C203.891159,633.523499 205.141205,633.409851 206.617157,633.026489 
	C199.851349,640.540527 190.240402,642.741699 180.684021,644.669800 
	C165.153137,647.803284 150.405670,644.963013 136.495346,637.574646 
	C135.246552,636.911316 134.293869,635.690491 133.074493,634.417480 
	C136.702866,635.016357 140.460403,635.926453 144.598480,636.930664 
z"/>
<path fill="#767676" opacity="1.000000" stroke="none" 
	d="
M775.398560,553.962036 
	C777.139465,552.975342 779.230469,551.693604 781.501831,551.085571 
	C791.587585,548.385925 801.730774,545.901062 811.831787,543.257019 
	C812.541565,543.071167 813.078308,542.224304 813.877441,541.389038 
	C823.482117,537.805298 832.904907,534.517395 842.686340,531.169861 
	C837.491516,534.286682 832.272766,538.481079 826.318542,540.438904 
	C811.487366,545.315796 796.329956,549.205200 781.278381,553.401001 
	C779.544006,553.884460 777.651062,553.798828 775.398560,553.962036 
z"/>
<path fill="#767676" opacity="1.000000" stroke="none" 
	d="
M851.706421,527.036377 
	C851.452209,527.348328 850.926880,527.737183 850.197021,528.050781 
	C850.473572,527.688171 850.954468,527.400757 851.706421,527.036377 
z"/>
<path fill="#767676" opacity="1.000000" stroke="none" 
	d="
M417.335876,554.149536 
	C421.767334,554.049255 426.535736,554.062805 431.297852,554.242981 
	C435.447601,554.399963 439.590149,554.972168 443.736023,554.973938 
	C543.495728,555.016479 643.255554,555.043701 743.015137,554.938477 
	C751.142334,554.929871 759.267273,553.930847 767.396484,553.446594 
	C768.695312,553.369324 770.011475,553.581543 771.659790,553.823853 
	C762.821228,555.318237 753.645691,557.779785 744.463318,557.805481 
	C645.076477,558.083618 545.688232,558.078186 446.301270,557.820251 
	C436.754578,557.795471 427.213654,555.550232 417.335876,554.149536 
z"/>
<path fill="#767676" opacity="1.000000" stroke="none" 
	d="
M226.367920,611.909424 
	C227.008087,609.403259 228.140701,606.813293 228.884644,604.116211 
	C230.424774,598.532532 231.961990,592.933777 233.129120,587.264832 
	C234.905762,578.635254 240.683533,574.799500 250.023300,576.310730 
	C256.417755,577.345337 262.824768,578.971008 269.240601,579.043091 
	C278.149017,579.143127 287.084930,578.186523 295.980621,577.371887 
	C299.766724,577.025208 303.480927,575.892822 307.635193,575.088379 
	C306.494690,575.927612 305.038208,577.069702 303.384766,577.622314 
	C286.124634,583.389954 268.753906,583.484375 251.231064,578.702026 
	C242.678802,576.367920 237.862427,579.491333 235.690277,587.886719 
	C234.151978,593.832214 232.433090,599.744934 230.450180,605.554626 
	C229.685150,607.796143 227.967850,609.712646 226.367920,611.909424 
z"/>
<path fill="#767676" opacity="1.000000" stroke="none" 
	d="
M385.118958,546.389648 
	C393.833160,547.972412 402.743561,549.806458 411.630249,551.748840 
	C412.696228,551.981934 413.633423,552.803955 414.839661,553.634766 
	C404.738983,553.129700 394.522614,551.958374 385.118958,546.389648 
z"/>
<path fill="#767676" opacity="1.000000" stroke="none" 
	d="
M207.340057,632.938354 
	C213.116058,626.408508 219.248352,619.838684 225.678833,613.125122 
	C222.123657,621.676453 216.156494,628.431458 207.340057,632.938354 
z"/>
<path fill="#767676" opacity="1.000000" stroke="none" 
	d="
M379.188477,545.234009 
	C380.190460,545.228088 381.381897,545.449585 382.785034,545.870850 
	C381.790466,545.867615 380.584198,545.664551 379.188477,545.234009 
z"/>
<path fill="#595A5F" opacity="1.000000" stroke="none" 
	d="
M639.674866,312.041138 
	C639.360901,339.824982 621.410156,362.026520 595.368958,367.300140 
	C569.224365,372.594666 543.394714,359.052887 532.846497,334.521271 
	C522.507324,310.475922 530.430603,281.956085 552.246521,267.086639 
	C570.400635,254.712982 589.996277,253.223923 609.541687,263.273071 
	C628.879578,273.215515 638.953735,289.661041 639.674866,312.041138 
z"/>
<path fill="#595A5F" opacity="1.000000" stroke="none" 
	d="
M689.953796,334.917175 
	C681.598022,312.860901 684.265198,292.647614 699.871460,275.361237 
	C715.196594,258.386230 734.900024,253.030838 756.781799,259.403595 
	C778.305481,265.672058 791.526184,280.635681 795.766785,302.697815 
	C801.098694,330.437073 784.836121,357.151764 757.954590,365.838562 
	C731.019531,374.542694 702.765442,361.815338 689.953796,334.917175 
z"/>
<path fill="#595A5F" opacity="1.000000" stroke="none" 
	d="
M465.133575,271.862885 
	C487.643768,294.228760 488.907562,328.237762 468.298981,350.414398 
	C447.852509,372.416626 413.732300,374.542877 391.155243,355.221771 
	C367.451569,334.936401 364.819550,299.728729 385.233490,276.007782 
	C405.407196,252.566040 440.963135,250.604675 465.133575,271.862885 
z"/>
</svg>