<svg version="1.1" id="Layer_1" xmlns="http://www.w3.org/2000/svg" xmlns:xlink="http://www.w3.org/1999/xlink" x="0px" y="0px"
	 width="100%" viewBox="0 0 1000 1166" enable-background="new 0 0 1000 1166" xml:space="preserve">
<path fill="none" opacity="1.000000" stroke="#000000" stroke-linecap="round" stroke-linejoin="round" stroke-width="7.000000"
	d="
M975.500000,874.500000 
	C975.115356,872.720520 974.747864,871.101257 973.594543,869.434570 
	C966.993103,859.895020 959.206360,851.364075 949.887207,844.656738 
	C940.731262,838.066956 930.783752,832.765686 919.566833,829.751221 
	C913.070312,828.005310 906.439514,826.808167 900.048340,824.842712 
	C895.360352,823.401123 890.568848,823.658386 885.976562,823.299988 
	C874.380554,822.394897 862.570923,822.075012 851.028015,823.270386 
	C840.340759,824.377319 829.437439,824.800110 818.979858,827.932678 
	C817.121643,828.489380 814.998535,828.140503 813.000244,828.254639 
	C804.589294,828.735046 796.563171,832.184448 788.000000,831.500000 
	C782.172363,836.616028 773.976807,831.512817 767.923401,836.149963 
	C766.792603,837.016235 764.667114,836.587830 762.999939,836.749329 
	C751.043701,837.907593 739.310791,840.629395 727.459656,842.194519 
	C717.295532,843.537048 706.994629,844.793335 697.076721,846.866882 
	C681.854126,850.049622 666.701294,849.203857 651.498596,849.322937 
	C648.578369,849.345825 645.902161,846.293457 642.500000,846.500000 
"/>
<path fill="none" opacity="1.000000" stroke="#000000" stroke-linecap="round" stroke-linejoin="round" stroke-width="10.000000"
	d="
M564.500000,591.750000 
	C566.592163,602.161621 572.109497,610.674500 579.548035,617.950867 
	C584.102173,622.405701 588.633606,626.916626 593.976379,630.534912 
	C604.303955,637.528809 612.791626,646.741150 622.463257,654.545532 
	C630.987610,661.424133 641.051636,665.071838 651.012390,668.968323 
	C659.404602,672.251160 668.226685,675.040466 677.023804,675.664734 
	C688.083557,676.449463 699.429810,678.119141 710.495605,674.984497 
	C720.624390,672.115234 727.961792,665.368774 734.517395,657.514526 
	C740.106567,650.818237 744.984924,643.615601 750.072632,636.552307 
	C753.592163,631.666077 759.155945,628.644470 761.761841,622.613159 
	C763.171692,619.349915 763.961365,616.375793 764.000000,613.000000 
"/>
<path fill="none" opacity="1.000000" stroke="#000000" stroke-linecap="round" stroke-linejoin="round" stroke-width="4.000000"
	d="
M909.500000,356.500000 
	C910.077209,367.527588 910.074951,378.746399 908.065979,389.418304 
	C906.561951,397.407990 906.341370,405.610779 903.950500,413.634247 
	C901.861389,420.645203 901.005249,428.309723 898.891113,435.467834 
	C896.147217,444.758179 893.348572,454.032410 889.625366,463.051758 
	C883.854187,477.032410 877.039001,490.404999 869.603027,503.558228 
	C862.412476,516.277344 854.101257,528.306763 844.689331,539.232361 
	C837.665649,547.385559 831.075317,555.930176 824.282837,564.231445 
	C819.507385,570.067566 814.507385,575.930176 810.146118,582.256042 
	C806.847778,587.040039 803.028442,592.010376 799.956116,596.793030 
	C795.062195,604.411316 789.914307,612.007080 785.373840,619.927673 
	C781.513367,626.661743 776.569214,632.760559 773.435913,639.972168 
	C772.702454,641.660339 771.166687,643.000000 770.000000,644.500000 
"/>
<path fill="none" opacity="1.000000" stroke="#000000" stroke-linecap="round" stroke-linejoin="round" stroke-width="6.000000"
	d="
M579.000000,701.000000 
	C575.982422,702.232788 573.515991,701.969543 570.420044,700.134888 
	C555.961853,691.566956 541.490295,683.005493 526.922729,674.634521 
	C506.143921,662.694397 484.911041,651.481750 461.984741,644.046997 
	C451.235504,640.561157 440.359467,637.692871 429.016296,636.361328 
	C413.622223,634.554199 398.656708,635.163391 383.988861,640.469238 
	C380.071686,641.886230 377.534546,643.693359 376.500000,646.500000 
"/>
<path fill="none" opacity="1.000000" stroke="#000000" stroke-linecap="round" stroke-linejoin="round" stroke-width="4.000000"
	d="
M316.000000,716.500000 
	C312.565521,719.575500 313.746674,723.905518 313.692413,727.502930 
	C313.560883,736.222900 312.056335,745.230652 316.500000,753.500000 
	C314.504333,758.808594 320.301270,762.296082 319.727692,767.524963 
	C319.495270,769.643677 323.809387,771.176941 322.500000,774.500000 
	C328.118439,780.964417 331.031860,789.096069 335.656677,796.222778 
	C342.791382,807.217102 351.324219,817.023743 358.806793,827.636230 
	C366.165131,838.072571 373.542633,848.538696 379.844818,859.807129 
	C384.607910,868.323792 387.938080,877.291138 391.859222,886.062927 
	C393.094543,888.826416 392.666656,892.333313 392.999969,895.500000 
"/>
<path fill="none" opacity="1.000000" stroke="#000000" stroke-linecap="round" stroke-linejoin="round" stroke-width="6.000000"
	d="
M302.500000,893.000000 
	C302.505981,898.391541 302.746552,904.258911 296.460663,906.383667 
	C289.416870,908.764587 282.002472,910.852051 274.530334,908.884705 
	C268.648224,907.336060 262.814575,908.080688 257.002563,908.168884 
	C253.405167,908.223389 252.320816,911.209106 254.559998,913.950989 
	C257.537750,917.597351 260.028412,921.541870 262.470001,925.518433 
	C266.524750,932.122437 273.455750,933.988586 280.006897,936.481934 
	C285.974213,938.752991 292.339783,939.511169 298.469879,941.115112 
	C308.031342,943.616882 317.934509,943.854553 327.480774,946.082458 
	C337.908203,948.515930 348.318604,951.221680 357.988251,956.023682 
	C364.594971,959.304626 371.743408,961.154602 378.588409,963.768494 
	C385.619690,966.453491 391.934021,970.513062 398.991547,973.023743 
	C406.789154,975.797668 414.672882,977.991577 422.992615,978.600891 
	C425.208099,978.763062 427.333344,975.887573 429.500000,978.500000 
"/>
<path fill="none" opacity="1.000000" stroke="#000000" stroke-linecap="round" stroke-linejoin="round" stroke-width="6.000000"
	d="
M331.000000,450.500000 
	C331.109558,444.760345 328.543793,439.997986 326.273102,434.878876 
	C324.123169,430.032074 322.172333,425.140381 319.577332,420.457153 
	C316.001373,414.003632 311.543701,408.224091 306.968079,402.525635 
	C300.818695,394.867157 293.069000,388.705353 284.838928,383.768494 
	C277.436340,379.327972 269.296692,375.946503 260.594727,373.642303 
	C251.837341,371.323425 243.265945,371.251068 234.502228,370.937866 
	C229.447464,370.757233 225.392471,372.386108 221.995224,375.995514 
	C221.026398,377.024841 219.649673,377.826935 219.056396,379.027863 
	C214.956131,387.327698 207.310516,386.011169 200.514053,385.354584 
	C188.363876,384.180847 187.622818,386.184601 181.352127,395.072052 
	C175.783508,402.964478 171.894714,412.092804 166.262909,419.827362 
	C157.119522,432.384705 149.641998,445.922119 141.866364,459.214325 
	C138.428070,465.091980 135.269714,472.326111 135.975021,480.002289 
	C136.003998,480.317657 135.635788,480.654968 135.504456,481.001678 
	C130.913391,493.121155 131.736801,505.678833 133.869553,517.935669 
	C134.541061,521.794861 136.577286,526.216858 138.571350,530.213867 
	C140.081650,533.241211 141.673080,537.013367 143.006348,540.294250 
	C144.244812,543.341797 145.297852,545.496216 144.000000,548.500000 
"/>
<path fill="none" opacity="1.000000" stroke="#000000" stroke-linecap="round" stroke-linejoin="round" stroke-width="6.000000"
	d="
M732.500000,716.500000 
	C728.943970,722.910767 724.811035,728.827759 719.566406,734.066467 
	C713.550598,740.075317 708.297913,746.952209 700.959229,751.433289 
	C692.606445,756.533569 683.390869,759.954224 674.505554,764.012207 
	C668.809143,766.613708 662.976685,769.006653 657.583313,772.143188 
	C655.037354,773.623840 652.615356,773.633545 650.008728,774.054138 
	C632.547363,776.871460 615.451111,774.831970 598.500366,770.498657 
	C592.722046,769.021484 587.543274,766.384705 582.992737,762.508484 
	C581.413391,761.163269 579.743652,760.081177 577.502075,759.960999 
	C573.908569,759.768311 570.236450,760.039307 567.828308,756.105103 
	C567.106018,754.925049 563.937683,755.482971 562.595398,754.383484 
	C560.717224,752.845215 559.500000,750.500000 558.000000,748.500000 
"/>
<path fill="none" opacity="1.000000" stroke="#000000" stroke-linecap="round" stroke-linejoin="round" stroke-width="6.000000"
	d="
M652.500000,607.000000 
	C659.934265,612.208984 668.511108,614.942810 677.042236,617.350281 
	C686.465820,620.009460 696.183411,622.283142 706.000244,622.296326 
	C712.655029,622.305298 720.076538,623.481445 725.561035,617.556458 
	C726.105530,616.968262 727.520142,616.947571 728.496521,617.037476 
	C733.004395,617.452454 737.611206,617.547668 741.970581,618.619568 
	C746.925232,619.837769 750.961487,617.769897 754.924438,615.844543 
	C757.088562,614.793152 759.223694,613.679321 761.512451,613.044800 
	C765.842529,611.844360 767.039429,610.314697 765.683167,606.021118 
	C764.597290,602.583313 763.604065,598.751404 761.368835,596.111023 
	C755.105103,588.711914 749.145508,580.994751 740.077942,576.347961 
	C734.630127,573.556091 728.947693,572.268433 723.560608,573.724304 
	C714.175110,576.260742 705.451233,574.440796 697.619995,570.274475 
	C687.539246,564.911438 677.308838,564.552368 666.494507,565.432861 
	C657.096924,566.197998 647.736389,566.956970 638.492615,568.966125 
	C626.355957,571.604187 614.175415,574.043518 601.996948,576.484680 
	C593.941589,578.099365 585.933228,580.012390 578.552917,583.608582 
	C573.935364,585.858582 569.833374,589.166687 565.500000,592.000000 
"/>
<path fill="none" opacity="1.000000" stroke="#000000" stroke-linecap="round" stroke-linejoin="round" stroke-width="6.000000"
	d="
M647.500000,476.500000 
	C646.230652,485.696014 646.084229,494.602783 654.517212,500.977203 
	C657.308533,503.087128 660.234009,504.712006 663.989441,505.101593 
	C672.530701,505.987640 680.420715,505.521027 688.106628,500.668915 
	C694.376221,496.710938 704.465698,501.132660 707.514832,507.993408 
	C710.134949,513.889038 713.079590,519.338562 717.804077,524.190796 
	C724.555847,531.125183 733.187134,532.048218 741.540222,533.809143 
	C746.487061,534.851990 751.833496,534.022339 756.999817,533.977417 
	C757.834229,533.970154 758.622192,534.108337 759.530884,533.550232 
	C767.477295,528.669312 773.554688,521.912231 778.994629,514.496033 
	C781.619751,510.917206 781.213196,506.535522 781.950317,502.490936 
	C784.078613,490.812164 782.384338,479.367706 779.528198,467.992920 
	C777.135193,458.462280 775.865295,448.729126 774.367676,439.020416 
	C771.983704,423.565247 771.346313,408.072784 771.506287,392.500061 
	C771.662903,377.257843 773.505859,362.219818 777.522705,347.506195 
	C784.505127,321.929932 801.504211,298.589325 822.373291,282.337280 
	C839.617188,268.908295 858.607849,258.514435 877.622559,248.226501 
	C891.840088,240.534012 907.212402,234.995667 923.003479,231.013687 
	C929.394592,229.402054 934.837769,231.641617 938.000061,236.999969 
	C941.969543,243.726196 941.424500,250.811813 936.500000,256.500000 
"/>
<path fill="none" opacity="1.000000" stroke="#000000" stroke-linecap="round" stroke-linejoin="round" stroke-width="7.000000"
	d="
M436.500000,741.500000 
	C436.418610,745.624695 435.941895,749.623352 438.388672,753.569031 
	C441.201508,758.104980 442.607941,763.565613 445.681702,767.870239 
	C448.022797,771.148865 449.788788,774.714172 452.062805,777.955933 
	C461.681915,791.668457 463.090637,806.743103 459.263733,822.442383 
	C458.595886,825.182007 459.632660,827.166687 459.500305,829.499939 
	C465.129822,829.925476 469.523102,833.441284 474.502441,835.494080 
	C486.544067,840.458557 498.654785,845.163635 512.000122,845.010620 
	C513.132629,844.997620 514.283997,845.185303 515.000000,844.000000 
"/>
<path fill="none" opacity="1.000000" stroke="#000000" stroke-linecap="round" stroke-linejoin="round" stroke-width="6.000000"
	d="
M378.000000,599.000000 
	C383.833344,598.333313 389.716064,597.947754 395.488281,596.933289 
	C403.894623,595.455994 411.812195,592.727844 418.531036,587.036682 
	C427.767181,579.213135 436.664551,570.952026 446.989685,564.483582 
	C454.623383,559.701233 462.966125,556.565186 471.518738,554.064087 
	C481.499695,551.145203 491.763580,551.030273 501.995117,552.533203 
	C516.476562,554.660461 526.995850,561.945923 532.647644,575.940369 
	C533.892212,579.021973 535.562256,582.120300 537.341064,585.095032 
	C540.388855,590.191956 543.004639,595.500671 544.787476,601.413330 
	C547.182373,609.355652 552.623596,615.985046 558.493530,622.006287 
	C566.579102,630.300110 573.366028,639.726990 581.383911,648.111023 
	C585.393250,652.303467 585.869507,658.509949 587.560730,663.981201 
	C590.550171,673.651978 586.098022,681.753662 582.426758,689.967285 
	C580.280823,694.768372 579.813599,699.219482 580.780640,704.539856 
	C582.311340,712.962280 579.696960,721.152161 576.490662,728.996155 
	C573.567322,736.147766 567.109863,739.854248 561.608643,744.625305 
	C556.453369,749.096313 549.357300,750.510010 544.977539,755.981995 
	C544.083801,757.098694 542.652954,756.244446 541.500427,756.501892 
	C526.760742,759.794617 511.877258,759.486267 497.005188,757.949646 
	C483.807983,756.586060 470.540527,755.320068 458.013885,750.464172 
	C453.427765,748.686340 448.807129,746.841187 444.540131,744.429016 
	C435.621216,739.387329 426.382111,734.932068 416.450531,732.722290 
	C410.412323,731.378784 404.217377,730.242126 398.028473,729.310791 
	C389.975159,728.098816 382.149414,725.814148 374.389984,722.781433 
	C363.598846,718.563782 358.363220,709.379944 351.500000,701.500000 
"/>
<path fill="none" opacity="1.000000" stroke="#000000" stroke-linecap="round" stroke-linejoin="round" stroke-width="6.000000"
	d="
M545.000000,757.000000 
	C545.892822,760.380005 548.454956,761.978455 551.502502,762.992554 
	C562.458496,766.637939 572.467529,772.407349 583.008484,776.980530 
	C587.123657,778.765930 591.454590,780.086365 595.471008,782.059082 
	C601.213440,784.879578 604.878540,789.494873 607.628845,795.440430 
	C614.573486,810.453552 622.012207,825.245667 629.544128,839.977417 
	C636.840515,854.248230 643.979980,868.643433 652.178955,882.393311 
	C657.844177,891.893921 663.429077,901.452271 668.911438,911.050598 
	C676.724487,924.729553 685.429016,937.878296 692.731995,951.878967 
	C694.704346,955.660095 697.164795,959.566895 700.014404,962.988037 
	C701.382996,964.631042 701.695679,966.476929 701.500000,968.500000 
"/>
<path fill="none" opacity="1.000000" stroke="#000000" stroke-linecap="round" stroke-linejoin="round" stroke-width="6.000000"
	d="
M582.500000,810.500000 
	C574.992554,810.604248 568.255920,807.992920 561.463196,805.085999 
	C551.820007,800.959351 541.907715,797.425049 532.137207,793.645325 
	C524.273193,790.603149 516.574036,786.531433 508.946594,782.603699 
	C498.240997,777.090759 486.401001,773.999146 476.005829,767.740356 
	C471.046661,764.754456 466.097351,761.761963 460.750000,759.500000 
"/>
<path fill="none" opacity="1.000000" stroke="#000000" stroke-linecap="round" stroke-linejoin="round" stroke-width="6.000000"
	d="
M913.500000,317.000000 
	C908.742371,312.348602 902.201599,311.220123 896.456116,308.596130 
	C880.634827,301.370514 863.964966,297.895996 846.500977,299.015259 
	C830.675781,300.029510 816.072510,304.985687 806.356140,317.770630 
	C801.797241,323.769257 795.785522,329.490631 793.981323,337.495789 
	C793.273621,340.635742 792.635925,343.140961 796.960632,344.615540 
	C805.593506,347.559052 814.128906,350.878174 822.455627,354.599365 
	C828.198486,357.165802 834.098083,359.336212 840.049194,361.082245 
	C847.473511,363.260437 855.209595,365.495697 862.988342,364.857910 
	C877.420288,363.674652 889.781006,358.127075 897.445068,344.968018 
	C898.670898,342.863251 899.166687,340.333344 900.000000,338.000000 
"/>
<path fill="none" opacity="1.000000" stroke="#000000" stroke-linecap="round" stroke-linejoin="round" stroke-width="6.000000"
	d="
M393.500000,896.000000 
	C395.428101,899.209900 398.881287,899.470276 401.988281,900.534241 
	C414.482269,904.812622 427.080078,908.630493 439.973480,911.614563 
	C451.664886,914.320557 463.419006,916.949036 474.926453,920.255920 
	C482.751495,922.504700 490.631866,924.461792 498.515442,926.438416 
	C499.064056,926.575928 499.833344,925.833374 500.500031,925.500061 
"/>
<path fill="none" opacity="1.000000" stroke="#000000" stroke-linecap="round" stroke-linejoin="round" stroke-width="4.000000"
	d="
M131.500000,504.500000 
	C123.264252,504.581177 115.453583,501.835571 107.555458,500.227600 
	C93.276268,497.320526 79.042740,494.549896 64.500992,493.486389 
	C63.659969,493.424896 62.824345,493.202240 62.001438,492.994293 
	C56.245342,491.539490 54.293850,493.137451 55.302982,498.990875 
	C56.278786,504.650940 55.010265,509.223450 50.528782,513.033875 
	C43.776302,518.775208 42.490227,526.227173 44.507744,534.498108 
	C46.136208,541.174133 47.191338,548.080566 49.642258,554.445251 
	C53.899796,565.501465 58.141739,576.689453 65.064949,586.453918 
	C68.862259,591.809631 71.718643,597.776306 76.294395,602.691406 
	C77.670441,604.169495 79.230820,604.414490 80.500000,605.500000 
"/>
<path fill="none" opacity="1.000000" stroke="#000000" stroke-linecap="round" stroke-linejoin="round" stroke-width="6.000000"
	d="
M904.500000,322.500000 
	C907.502808,324.176514 909.704102,323.944824 911.621338,320.568909 
	C912.676025,318.711853 914.867859,317.564301 916.869812,316.294739 
	C923.165771,312.302002 926.397339,305.789154 928.500916,298.750275 
	C931.281921,289.444366 934.622620,280.308167 935.634216,270.513855 
	C935.924072,267.707581 936.029541,264.832184 936.809204,261.948425 
	C938.213806,256.753296 934.749695,253.570145 929.503052,254.516846 
	C914.889526,257.153687 901.248169,262.107086 888.415894,269.860748 
	C875.530029,277.646790 861.526978,282.864746 846.007324,281.421509 
	C841.427551,280.995636 837.320129,278.859680 834.000000,275.500000 
"/>
<path fill="none" opacity="1.000000" stroke="#000000" stroke-linecap="round" stroke-linejoin="round" stroke-width="8.000000"
	d="
M520.500000,558.500000 
	C522.184692,549.568542 515.637451,536.623657 507.575836,530.893311 
	C500.243164,525.681091 492.561340,526.120178 484.498932,527.493652 
	C476.503845,528.855835 468.539459,530.634155 460.484314,531.314270 
	C456.072052,531.686768 451.483612,530.259094 447.006134,529.465454 
	C444.306122,528.986755 441.666656,528.166687 439.000000,527.500000 
"/>
<path fill="none" opacity="1.000000" stroke="#000000" stroke-linecap="round" stroke-linejoin="round" stroke-width="4.000000"
	d="
M350.500000,368.000000 
	C357.526886,364.373535 364.945282,361.577667 372.540405,359.660065 
	C379.092072,358.005920 385.213379,360.975922 390.995209,364.009155 
	C396.966675,367.141907 402.568909,370.376434 409.672241,365.765350 
	C411.895782,364.321991 416.283051,364.750580 419.487000,366.032532 
	C430.155701,370.301300 437.089691,378.689392 444.193481,387.341125 
	C450.867432,395.469391 453.957489,405.857574 461.806702,413.206451 
	C463.404327,414.702271 464.629425,418.147614 465.267212,420.561493 
	C468.959076,434.534424 470.478180,448.821686 466.286041,462.936462 
	C465.339752,466.122650 467.056183,469.918304 464.000000,472.500000 
"/>
<path fill="none" opacity="1.000000" stroke="#000000" stroke-linecap="round" stroke-linejoin="round" stroke-width="7.000000"
	d="
M938.500000,323.500000 
	C940.201843,324.244141 939.836731,325.529388 938.969543,326.471985 
	C934.576050,331.247528 931.911926,337.806305 925.003601,340.011353 
	C920.151672,341.559967 915.367798,343.612305 910.478516,340.029327 
	C909.057068,338.987732 907.335754,338.653442 905.510559,338.418213 
	C902.052673,337.972565 898.098816,337.651611 896.118164,334.427429 
	C894.252136,331.389954 891.257507,332.749084 888.922302,331.667877 
	C881.803162,328.371826 874.518921,325.121887 866.960754,323.150360 
	C851.936157,319.231232 836.737305,316.240753 820.973877,319.106445 
	C816.753174,319.873779 813.029663,321.684021 809.027527,322.844818 
	C807.247742,323.361023 805.701172,323.606323 804.000000,323.000000 
"/>
<path fill="none" opacity="1.000000" stroke="#000000" stroke-linecap="round" stroke-linejoin="round" stroke-width="6.000000"
	d="
M574.500000,590.000000 
	C577.728210,594.394409 583.066345,594.317200 587.537537,595.893494 
	C593.167236,597.878235 599.028809,599.261658 604.999573,600.003540 
	C619.667603,601.826050 634.333069,603.668457 649.000977,605.492188 
	C649.493347,605.553406 650.109558,605.688965 650.483826,605.472046 
	C657.469299,601.421753 665.141968,602.155945 672.470825,603.204102 
	C678.358215,604.046204 684.271851,605.231506 690.139526,607.049622 
	C697.234741,609.248169 704.600891,611.974182 712.505920,611.641235 
	C716.806213,611.460083 721.574158,611.635498 724.500000,616.000000 
"/>
<path fill="none" opacity="1.000000" stroke="#000000" stroke-linecap="round" stroke-linejoin="round" stroke-width="6.000000"
	d="
M238.000000,705.000000 
	C236.442184,710.709290 230.601257,712.175964 226.716248,715.126343 
	C223.535690,717.541748 219.439621,719.710449 215.615906,721.720459 
	C210.559982,724.378235 204.989532,725.402161 199.980316,727.961487 
	C199.119766,728.401123 197.987305,728.532043 197.001984,728.469055 
	C187.957581,727.890869 178.979248,729.288330 169.829071,725.971558 
	C165.053574,724.240601 159.705963,721.524475 153.997284,722.227966 
	C153.350708,722.307617 152.452316,722.329346 152.032074,721.963135 
	C145.539459,716.305847 136.866241,714.997925 129.654404,710.658875 
	C123.769653,707.118286 117.587280,704.075500 111.951996,700.067505 
	C110.609055,699.112366 108.291206,698.122375 107.063210,698.647766 
	C100.829468,701.314575 95.610199,697.385620 90.022011,696.377930 
	C82.772469,695.070740 78.983299,690.164856 78.500000,683.000000 
"/>
<path fill="none" opacity="1.000000" stroke="#000000" stroke-linecap="round" stroke-linejoin="round" stroke-width="4.000000"
	d="
M102.500000,544.500000 
	C104.123558,548.170654 104.724335,552.098145 105.635429,555.968140 
	C106.263115,558.634216 107.828934,561.271423 109.572983,563.441345 
	C112.818504,567.479187 116.139221,571.599976 120.091278,574.890381 
	C125.030701,579.002747 131.192505,581.250122 136.970139,584.061340 
	C141.722549,586.373779 146.622314,588.408142 151.050476,591.425964 
	C153.605713,593.167358 156.584152,594.413635 159.533691,595.399170 
	C161.082169,595.916504 161.904388,596.681396 162.500000,598.000000 
"/>
<path fill="none" opacity="1.000000" stroke="#000000" stroke-linecap="round" stroke-linejoin="round" stroke-width="4.000000"
	d="
M309.000000,712.500000 
	C306.523102,716.451599 302.714905,719.016602 298.948090,721.418579 
	C294.362701,724.342468 290.832367,728.309753 287.012695,732.013123 
	C286.421814,732.585999 285.620636,733.299683 285.557983,734.005127 
	C284.832367,742.179810 279.305206,748.483948 277.055450,756.016541 
	C273.421417,768.184204 267.895752,779.991211 268.121399,792.997864 
	C268.244934,800.119629 268.647308,807.478699 274.469879,813.031555 
	C277.456390,815.879761 277.061554,820.046082 276.782898,823.482422 
	C276.473846,827.293762 276.094727,831.246704 275.792908,835.023376 
	C275.249939,841.818237 277.827484,848.284668 280.859528,854.567810 
	C283.492493,860.023926 288.502625,863.574158 291.048157,868.977295 
	C291.738953,870.443604 293.525848,870.539062 294.986115,871.040405 
	C302.800323,873.723572 308.628601,879.030334 313.473541,885.519775 
	C314.419800,886.787170 315.381805,888.229980 314.500000,890.000000 
"/>
<path fill="none" opacity="1.000000" stroke="#000000" stroke-linecap="round" stroke-linejoin="round" stroke-width="4.000000"
	d="
M289.500000,494.500000 
	C289.006744,489.844757 288.038300,485.223541 288.497986,480.499817 
	C288.514038,480.334717 288.532654,480.158905 288.495148,480.001160 
	C287.796478,477.063232 278.502228,469.875397 275.510803,469.427704 
	C271.848206,468.879608 270.309875,473.929626 266.500000,472.500000 
	C263.908386,477.260040 257.690277,479.108398 256.470673,484.993927 
	C256.357605,485.539581 255.933701,486.129517 255.483368,486.478546 
	C252.988937,488.411743 251.351227,491.952301 252.776489,493.784973 
	C254.639053,496.180054 257.784515,498.455963 261.500061,498.492615 
	C264.999725,498.527130 268.518005,498.272247 271.996277,498.547211 
	C279.301788,499.124756 286.286224,500.651642 291.521606,506.480621 
	C292.803986,507.908447 294.763275,507.655762 296.476898,508.090912 
	C302.666687,509.662750 306.267120,514.809204 310.477386,519.022583 
	C317.891449,526.441956 325.829254,533.484924 332.225800,541.713135 
	C335.517975,545.948059 338.948486,550.006714 342.467590,554.028381 
	C342.715393,554.311523 342.500000,555.000000 342.500000,555.500000 
"/>
<path fill="none" opacity="1.000000" stroke="#000000" stroke-linecap="round" stroke-linejoin="round" stroke-width="6.000000"
	d="
M253.500000,909.500000 
	C251.690277,908.007141 250.294571,906.446960 247.569504,905.734253 
	C243.191727,904.589172 240.263489,899.093811 240.947739,896.486267 
	C241.898209,892.864380 247.735184,886.997620 250.999802,887.024719 
	C261.580902,887.112732 272.080750,888.042908 282.511230,889.938232 
	C286.442017,890.652466 290.533081,890.448669 294.492554,891.049194 
	C301.054382,892.044434 307.500000,890.938477 314.007263,890.691284 
	C318.603394,890.516541 322.033142,894.125916 324.980225,897.517151 
	C329.316254,902.506836 333.395020,908.294128 340.514038,908.804016 
	C345.441010,909.156921 350.825226,908.533142 355.427124,906.805847 
	C363.174011,903.898132 371.379089,902.088501 378.582367,897.633118 
	C380.539703,896.422485 383.491547,896.704041 386.002594,896.539673 
	C388.128357,896.400574 390.105927,895.923767 392.000000,895.000000 
"/>
<path fill="none" opacity="1.000000" stroke="#000000" stroke-linecap="round" stroke-linejoin="round" stroke-width="4.000000"
	d="
M769.500000,645.500000 
	C763.333313,656.833313 756.898560,668.031799 751.105042,679.552795 
	C747.862854,686.000244 745.435791,693.002502 742.121765,699.300964 
	C739.279175,704.703369 737.366577,710.879089 733.000000,715.500000 
"/>
<path fill="none" opacity="1.000000" stroke="#000000" stroke-linecap="round" stroke-linejoin="round" stroke-width="3.000000"
	d="
M216.500000,578.500000 
	C217.391525,574.489380 221.484573,574.360962 224.087814,572.632263 
	C231.856384,567.473572 234.432480,551.379822 228.000046,545.499939 
	C225.655197,543.356506 219.414230,543.419678 216.987869,545.485779 
	C212.994858,548.885986 210.309097,553.117249 208.469040,557.988281 
	C207.698959,560.026917 206.696533,562.023926 204.500000,563.000000 
"/>
<path fill="none" opacity="1.000000" stroke="#000000" stroke-linecap="round" stroke-linejoin="round" stroke-width="4.000000"
	d="
M278.500000,522.500000 
	C282.166656,525.263550 285.833344,521.332336 289.488159,522.643738 
	C289.957458,523.685547 291.048035,524.915283 290.911285,525.988708 
	C289.645691,535.924377 293.102112,545.352661 294.375671,554.950134 
	C295.165161,560.900024 296.725769,567.124939 298.547302,573.137146 
	C300.691864,580.215698 303.544434,587.396118 303.951294,595.002625 
	C303.985870,595.649536 303.333313,596.333313 302.999969,597.000000 
"/>
<path fill="none" opacity="1.000000" stroke="#000000" stroke-linecap="round" stroke-linejoin="round" stroke-width="4.000000"
	d="
M125.500000,535.500000 
	C122.492493,534.183594 119.371040,532.919128 116.593079,531.336609 
	C111.975830,528.706360 107.139847,526.545044 102.519623,523.964844 
	C98.368797,521.646729 93.136375,522.186768 89.383163,518.623047 
	C88.506706,517.790833 86.052612,518.884705 84.520576,518.430603 
	C79.109940,516.826660 73.867645,514.573425 67.996254,515.475586 
	C65.511772,515.857361 64.857819,512.538452 62.500000,512.500000 
"/>
<path fill="none" opacity="1.000000" stroke="#000000" stroke-linecap="round" stroke-linejoin="round" stroke-width="4.000000"
	d="
M228.000000,586.500000 
	C227.906464,588.470764 228.616226,590.496826 230.063126,591.398743 
	C233.391174,593.473450 235.030228,596.413025 236.027908,599.992249 
	C236.478485,601.608643 236.441208,602.456299 235.187180,604.139465 
	C231.627701,608.916870 226.894989,611.096924 221.498520,612.494263 
	C218.446259,613.284546 215.294708,618.891113 217.182007,621.885254 
	C219.266388,625.192139 219.716537,629.386230 222.975052,632.030762 
	C225.648651,634.200500 228.180481,636.304443 232.009186,635.546387 
	C233.452591,635.260559 235.000000,635.500000 236.500000,635.500000 
"/>
<path fill="none" opacity="1.000000" stroke="#000000" stroke-linecap="round" stroke-linejoin="round" stroke-width="4.000000"
	d="
M315.500000,471.000000 
	C321.273315,467.191650 326.076050,462.784332 325.509125,454.999329 
	C325.394592,453.426971 325.807800,452.252380 327.474976,451.448120 
	C330.475800,450.000397 333.744629,451.077087 335.341827,452.659637 
	C341.304962,458.568207 347.651398,464.379333 351.325104,472.083405 
	C352.412079,474.362885 354.452301,475.604401 355.332428,478.395172 
	C357.975952,486.777374 353.074982,492.010376 348.843414,497.376495 
	C346.485413,500.366730 344.583252,503.694397 341.955048,506.417419 
	C343.373810,509.042511 344.300262,511.720612 346.934113,513.592712 
	C350.379822,516.041870 351.847107,520.468628 352.678680,524.074097 
	C353.833313,529.080383 357.100525,533.547180 356.546631,539.004761 
	C356.228394,542.140320 356.545074,545.421631 358.589081,547.927307 
	C359.738525,549.336426 359.444031,550.630493 359.473694,552.000549 
	C359.577728,556.808105 358.900635,561.765442 362.039246,565.970703 
	C362.697937,566.853210 362.505737,567.674011 362.472565,568.498901 
	C362.202820,575.200134 362.715485,581.855896 363.500000,588.500000 
"/>
<path fill="none" opacity="1.000000" stroke="#000000" stroke-linecap="round" stroke-linejoin="round" stroke-width="4.000000"
	d="
M241.500000,748.500000 
	C236.490616,748.791321 232.698654,752.251892 228.041763,753.640076 
	C220.882950,755.774048 214.043579,758.960205 206.962875,761.391907 
	C205.564255,761.872192 203.589478,762.040222 201.996979,761.004639 
	C200.019821,759.718994 197.839447,759.272034 195.499130,759.490662 
	C194.838211,759.552307 193.731308,759.752625 193.563370,759.463196 
	C188.797150,751.249390 180.656754,753.865723 174.023132,754.330383 
	C167.864761,754.761658 161.490967,755.200012 155.328491,758.140564 
	C150.518387,760.435669 144.046951,758.941467 138.526718,760.124695 
	C129.144043,762.135742 122.111847,757.891052 115.560158,752.427856 
	C110.611336,748.301270 111.321213,745.106262 116.991020,741.983704 
	C127.023117,736.458679 136.983551,730.803406 147.017883,725.282532 
	C148.514252,724.459167 149.849197,723.638855 150.500000,722.000000 
"/>
<path fill="none" opacity="1.000000" stroke="#000000" stroke-linecap="round" stroke-linejoin="round" stroke-width="4.000000"
	d="
M459.000000,830.500000 
	C456.935181,832.589539 456.426910,835.129028 456.465607,838.000488 
	C456.631714,850.327087 451.436188,860.519104 444.095642,870.073486 
	C440.040771,875.351318 434.913940,879.353455 429.865479,883.329224 
	C425.965240,886.400818 420.769928,887.761719 416.124451,889.785645 
	C408.605133,893.061646 399.853271,890.381958 393.000000,895.500000 
"/>
<path fill="none" opacity="1.000000" stroke="#000000" stroke-linecap="round" stroke-linejoin="round" stroke-width="4.000000"
	d="
M359.500000,588.000000 
	C353.807312,584.251038 347.880432,581.047119 341.706543,578.071472 
	C337.871796,576.223145 333.430725,575.900330 329.904297,573.121460 
	C327.529083,571.249756 323.949036,572.968079 320.913025,571.709839 
	C319.620514,571.174194 318.444427,573.432861 318.443390,575.500000 
	C318.440826,580.534058 317.896942,585.783081 319.718933,590.413879 
	C320.883484,593.373718 323.724304,596.384460 326.590973,597.818115 
	C332.791473,600.919312 338.996368,604.197754 345.972290,605.634583 
	C348.314209,606.116882 350.205933,608.998901 352.522430,609.353516 
	C361.723145,610.761597 361.691284,617.961304 362.402649,624.510559 
	C362.827332,628.420654 363.604401,632.205566 364.496216,636.000916 
	C365.623474,640.797913 366.434998,646.553162 364.533020,650.260437 
	C362.489746,654.243103 363.037292,657.766052 362.500000,661.500000 
"/>
<path fill="none" opacity="1.000000" stroke="#000000" stroke-linecap="round" stroke-linejoin="round" stroke-width="4.000000"
	d="
M91.500000,598.500000 
	C89.891350,601.503662 86.069466,600.765991 83.834755,603.357483 
	C80.960472,606.690735 77.668175,609.255493 76.229469,613.916504 
	C75.363312,616.722656 71.445786,618.487915 70.062752,621.528564 
	C67.872696,626.343384 61.986511,628.994446 62.040913,634.999634 
	C62.089642,640.378479 61.541473,645.942688 66.449493,650.060181 
	C68.514183,651.792297 70.199417,653.915405 72.309456,655.722473 
	C79.015350,661.465454 87.231934,663.321716 94.881744,666.762878 
	C100.011414,669.070374 105.511391,670.194275 110.628456,671.494385 
	C116.139290,672.894531 121.434792,676.608826 127.489021,675.442993 
	C132.113022,674.552612 135.450363,678.131348 139.996231,678.212158 
	C150.174957,678.393250 160.357361,678.994995 170.486954,677.881409 
	C174.030716,677.491821 177.220703,674.991516 180.999802,675.023438 
	C181.834473,675.030518 182.666656,675.333374 183.500000,675.500000 
"/>
<path fill="none" opacity="1.000000" stroke="#000000" stroke-linecap="round" stroke-linejoin="round" stroke-width="4.000000"
	d="
M132.500000,761.500000 
	C131.333633,764.051514 129.742767,766.129944 127.572380,768.080505 
	C117.110603,777.483154 113.605507,789.296570 116.544426,802.990479 
	C117.068726,805.433350 119.235054,806.968506 121.059166,808.425964 
	C122.653236,809.699585 126.074226,808.842896 126.356155,811.515198 
	C126.664703,814.439758 126.765907,817.468567 126.087280,820.519409 
	C124.958488,825.594116 123.041878,830.565918 125.377319,836.052246 
	C127.347382,840.680115 129.178650,845.315186 132.000000,849.500000 
"/>
<path fill="none" opacity="1.000000" stroke="#000000" stroke-linecap="round" stroke-linejoin="round" stroke-width="4.000000"
	d="
M179.500000,510.000000 
	C175.401062,513.607422 173.921555,522.104187 176.510529,527.494934 
	C177.807175,530.194824 178.832458,532.823303 178.600754,536.007324 
	C178.377670,539.072937 182.239609,545.631653 184.355743,549.577393 
	C186.212936,553.040344 187.516891,557.108032 187.851944,561.012695 
	C188.472427,568.243896 190.492050,575.690247 185.663605,582.614075 
	C184.549911,584.211121 185.740646,587.317627 183.500000,589.000000 
"/>
<path fill="none" opacity="1.000000" stroke="#000000" stroke-linecap="round" stroke-linejoin="round" stroke-width="4.000000"
	d="
M271.500000,666.500000 
	C266.975739,667.074402 262.784729,667.305176 258.361176,664.739319 
	C255.572388,663.121704 251.719833,663.064514 248.458481,661.591980 
	C244.241638,659.687988 239.740097,657.955872 235.413620,656.832703 
	C229.203033,655.220398 223.167114,652.729492 216.510010,652.332275 
	C207.913986,651.819336 204.553162,657.267395 205.033432,663.961731 
	C205.399048,669.057983 205.670166,674.826782 208.304550,680.097717 
	C212.536026,688.564087 218.803345,694.365906 227.001099,698.497803 
	C230.994629,700.510681 235.062759,702.385681 238.980453,704.535645 
	C242.194031,706.299194 245.746689,704.827881 249.008667,705.975342 
	C253.684769,707.620178 258.365051,708.769409 263.503510,708.647095 
	C269.616943,708.501648 274.491241,705.777527 279.500000,703.000000 
"/>
<path fill="none" opacity="1.000000" stroke="#000000" stroke-linecap="round" stroke-linejoin="round" stroke-width="4.000000"
	d="
M28.500004,660.500000 
	C30.666670,662.500000 32.892075,664.440674 34.986393,666.513733 
	C38.218472,669.713013 42.383633,671.008179 46.482365,672.546997 
	C48.849617,673.435791 51.416946,674.752319 53.275364,675.872620 
	C59.726974,679.761719 66.886139,678.606567 73.538162,680.354797 
	C76.308464,681.082947 79.500000,684.321777 82.500000,680.500000 
"/>
<path fill="none" opacity="1.000000" stroke="#000000" stroke-linecap="round" stroke-linejoin="round" stroke-width="4.000000"
	d="
M190.000000,764.000000 
	C185.153183,767.035339 184.966766,773.985413 179.500000,776.500000 
	C177.532318,785.007629 173.691467,793.103271 173.536392,802.000610 
	C173.373749,811.331116 173.441956,820.667175 173.519180,829.999817 
	C173.576355,836.909485 171.497498,843.526855 167.715363,848.795654 
	C164.785187,852.877686 163.041260,858.093506 158.495758,860.993347 
	C157.175323,861.835693 156.612488,863.175598 156.000000,864.500000 
"/>
<path fill="none" opacity="1.000000" stroke="#000000" stroke-linecap="round" stroke-linejoin="round" stroke-width="4.000000"
	d="
M361.500000,663.500000 
	C359.666656,663.500000 357.826599,663.601685 356.001282,663.480774 
	C350.730896,663.131531 346.811432,666.273315 342.476288,668.452820 
	C339.277588,670.061035 335.717957,671.357361 332.419128,672.172913 
	C328.555084,673.128296 325.588409,677.394409 321.000000,675.500000 
	C317.136169,679.717041 310.291565,681.615662 310.500000,689.000000 
"/>
<path fill="none" opacity="1.000000" stroke="#000000" stroke-linecap="round" stroke-linejoin="round" stroke-width="4.000000"
	d="
M332.500000,705.500000 
	C334.840332,702.938110 337.570282,706.229492 340.000153,705.000305 
	C342.703522,703.632690 345.350922,702.129150 348.499634,701.991394 
	C351.017548,701.881226 350.696442,698.701355 352.059692,698.146729 
	C356.424042,696.371460 360.279999,693.498901 364.989838,692.454163 
	C369.925079,691.359375 374.459290,689.407837 378.038055,685.535156 
	C380.477631,682.895203 380.102325,679.444885 379.199249,677.116638 
	C378.355652,674.941711 376.311890,671.612427 372.504791,672.520081 
	C369.412811,673.257141 369.648254,669.478699 367.500000,669.000000 
"/>
<path fill="none" opacity="1.000000" stroke="#000000" stroke-linecap="round" stroke-linejoin="round" stroke-width="4.000000"
	d="
M241.000000,866.000000 
	C245.678299,873.287354 252.885345,875.977905 261.003571,876.437073 
	C270.899292,876.996826 280.572998,875.802551 289.500000,871.000000 
"/>
<path fill="none" opacity="1.000000" stroke="#000000" stroke-linecap="round" stroke-linejoin="round" stroke-width="3.000000"
	d="
M215.000000,385.500000 
	C216.646606,386.721527 217.346771,388.696259 218.795349,390.197479 
	C224.448196,396.055664 228.100494,403.176147 231.408844,410.823120 
	C234.502823,417.974548 233.761108,424.533203 233.500000,431.500000 
"/>
<path fill="none" opacity="1.000000" stroke="#000000" stroke-linecap="round" stroke-linejoin="round" stroke-width="6.000000"
	d="
M254.000000,626.500000 
	C252.986862,631.785217 252.274063,637.070984 252.399124,642.502319 
	C252.460693,645.176147 253.182343,647.173584 254.988281,649.011536 
	C261.044983,655.175720 269.039337,656.819458 277.015106,658.424988 
	C278.071838,658.637634 279.333313,657.833313 280.500000,657.499939 
"/>
<path fill="none" opacity="1.000000" stroke="#000000" stroke-linecap="round" stroke-linejoin="round" stroke-width="4.000000"
	d="
M367.000000,659.000000 
	C362.371521,660.756226 360.920166,664.429321 361.006531,668.999878 
	C361.056915,671.668457 359.916290,673.653992 358.034088,675.534119 
	C351.280518,682.280457 344.666229,689.166260 338.000183,696.000183 
	C335.812805,698.242737 334.246338,700.681152 335.500000,704.000000 
"/>
<path fill="none" opacity="1.000000" stroke="#000000" stroke-linecap="round" stroke-linejoin="round" stroke-width="4.000000"
	d="
M407.000000,368.500000 
	C408.249451,372.723297 408.331360,376.764099 406.662262,381.062988 
	C405.810150,383.257721 404.920410,385.867279 405.491241,388.501892 
	C406.068237,391.165100 403.309052,392.134552 402.601898,394.037872 
	C401.660126,396.572906 404.206146,400.482452 399.500000,401.500000 
	C401.089813,405.872986 395.296936,408.232513 396.500000,412.500000 
"/>
<path fill="none" opacity="1.000000" stroke="#000000" stroke-linecap="round" stroke-linejoin="round" stroke-width="4.000000"
	d="
M145.500000,863.000000 
	C146.569794,864.255005 147.935516,865.590210 149.491486,865.421509 
	C157.929138,864.506104 164.502060,869.165955 171.482117,872.537048 
	C175.984665,874.711670 179.917877,877.882751 184.375671,880.235535 
	C186.670090,881.446594 188.972061,881.700134 191.010696,881.824036 
	C199.947678,882.367188 208.713745,883.815674 217.657516,879.312866 
	C224.781906,875.725952 230.568695,870.920898 236.500000,866.000000 
"/>
<path fill="none" opacity="1.000000" stroke="#000000" stroke-linecap="round" stroke-linejoin="round" stroke-width="4.000000"
	d="
M64.000000,649.500000 
	C58.948479,656.565918 62.815762,665.406433 71.979729,668.558899 
	C79.543259,671.160889 86.269089,675.156494 92.106071,680.892029 
	C96.146080,684.861816 100.166313,688.826721 104.097160,692.906372 
	C105.613251,694.479919 106.421135,696.080627 107.000000,698.000000 
"/>
<path fill="none" opacity="1.000000" stroke="#000000" stroke-linecap="round" stroke-linejoin="round" stroke-width="3.000000"
	d="
M60.500000,637.000000 
	C56.547909,636.589539 52.531090,635.300049 48.939503,638.430603 
	C48.371246,638.925903 46.995052,638.434753 46.000771,638.510193 
	C37.164040,639.180481 29.874445,643.718689 22.527603,648.046875 
	C21.385569,648.719604 20.233751,649.800232 20.500000,651.500000 
"/>
<path fill="none" opacity="1.000000" stroke="#000000" stroke-linecap="round" stroke-linejoin="round" stroke-width="4.000000"
	d="
M261.500000,539.500061 
	C260.666290,539.664246 259.832550,539.828430 258.999420,539.996338 
	C259.737396,545.661072 259.737396,545.661072 255.127884,548.909851 
	C255.602310,553.489807 258.570343,557.163879 259.406250,561.518005 
	C259.799835,563.568237 261.604187,563.827515 262.623474,564.880493 
	C268.737579,571.196228 274.203461,578.018738 279.500000,585.000000 
"/>
<path fill="none" opacity="1.000000" stroke="#000000" stroke-linecap="round" stroke-linejoin="round" stroke-width="4.000000"
	d="
M195.500000,582.500000 
	C197.503647,578.899109 199.437454,575.266785 201.640198,571.773132 
	C203.141876,569.391418 205.303818,565.331787 203.046997,561.472534 
	C201.806244,559.350708 203.362549,556.495667 202.384476,554.558350 
	C198.251877,546.372375 192.930557,539.116455 183.983078,535.542358 
	C182.529846,534.961853 181.371323,533.385986 179.500000,534.000000 
"/>
<path fill="none" opacity="1.000000" stroke="#000000" stroke-linecap="round" stroke-linejoin="round" stroke-width="4.000000"
	d="
M150.000000,558.500000 
	C151.894104,561.398682 151.997467,565.053223 153.002151,568.160950 
	C154.520538,572.857727 159.799911,575.229370 159.500000,580.500000 
	C163.465729,581.738342 164.420319,585.619080 166.487610,588.508850 
	C168.948792,591.949219 169.200577,595.648438 167.500000,599.500000 
"/>
<path fill="none" opacity="1.000000" stroke="#000000" stroke-linecap="round" stroke-linejoin="round" stroke-width="4.000000"
	d="
M111.500000,612.500000 
	C109.823662,617.950867 115.339310,619.127014 117.715271,621.260193 
	C125.216118,627.994507 134.064133,632.915649 143.994904,635.519409 
	C144.700470,635.704407 145.735291,636.009277 145.936996,636.524658 
	C147.698593,641.025452 151.754654,640.717773 155.475998,641.601135 
	C159.935318,642.659607 163.655777,645.239990 166.520386,648.984375 
	C169.743729,653.197693 172.851349,653.674194 178.000000,651.000000 
"/>
<path fill="none" opacity="1.000000" stroke="#000000" stroke-linecap="round" stroke-linejoin="round" stroke-width="4.000000"
	d="
M376.000000,601.000000 
	C375.833313,601.666687 375.306641,602.700378 375.554993,602.943970 
	C378.445526,605.778992 378.940796,610.008789 381.510559,612.990906 
	C382.814087,614.503540 382.487427,616.277222 382.492676,618.000000 
	C382.511383,624.166626 382.500000,630.333313 382.500000,636.500000 
"/>
<path fill="none" opacity="1.000000" stroke="#000000" stroke-linecap="round" stroke-linejoin="round" stroke-width="4.000000"
	d="
M147.500000,639.500000 
	C143.416931,642.101379 138.624100,640.941101 134.025314,642.051758 
	C131.974304,652.056091 138.940628,656.913574 145.500000,662.000000 
"/>
<path fill="none" opacity="1.000000" stroke="#000000" stroke-linecap="round" stroke-linejoin="round" stroke-width="4.000000"
	d="
M325.500000,451.000000 
	C325.000000,450.666656 324.536835,450.127350 323.994568,450.030334 
	C312.517487,447.977264 301.481140,449.694672 291.661285,455.761078 
	C288.953400,457.433929 286.836487,461.819580 285.858673,465.106689 
	C284.971954,468.087524 283.008148,469.440918 281.500000,471.500000 
"/>
<path fill="none" opacity="1.000000" stroke="#000000" stroke-linecap="round" stroke-linejoin="round" stroke-width="4.000000"
	d="
M315.000000,487.500000 
	C318.184601,482.061951 316.201996,476.785339 314.642578,470.928894 
	C305.476990,473.220428 295.758057,471.524353 287.500000,477.000000 
"/>
<path fill="none" opacity="1.000000" stroke="#000000" stroke-linecap="round" stroke-linejoin="round" stroke-width="3.000000"
	d="
M215.500000,579.000000 
	C213.109741,583.732910 210.913651,588.726929 211.148895,593.993347 
	C211.443161,600.581238 208.399200,606.282715 207.500000,612.500000 
"/>
<path fill="none" opacity="1.000000" stroke="#000000" stroke-linecap="round" stroke-linejoin="round" stroke-width="4.000000"
	d="
M463.500000,473.500000 
	C463.227295,478.469696 460.247742,482.638611 459.394501,487.481415 
	C458.967072,489.907440 457.320190,492.580750 456.155426,494.261169 
	C452.515350,499.512634 450.903503,505.537628 447.925079,510.958832 
	C447.660645,511.440125 447.270538,512.119446 446.625580,512.652100 
	C444.016602,514.806458 440.672211,521.717407 438.953308,526.483154 
	C438.610565,527.433350 437.706329,528.202332 436.993805,528.994385 
	C430.837982,535.837524 424.815674,542.809021 418.460449,549.462219 
	C411.298889,556.959656 403.956909,564.296204 396.454285,571.452026 
	C391.848999,575.844421 387.967804,581.022644 382.539429,584.560547 
	C382.234467,584.759277 382.500000,585.833313 382.500000,586.500000 
"/>
<path fill="none" opacity="1.000000" stroke="#000000" stroke-linecap="round" stroke-linejoin="round" stroke-width="6.000000"
	d="
M167.500000,476.500000 
	C167.333328,476.500000 167.165680,476.512024 167.000137,476.498260 
	C158.132751,475.762024 149.527908,477.259674 140.992386,479.470612 
	C139.546249,479.845215 138.000000,479.833344 136.500000,480.000000 
"/>
<path fill="none" opacity="1.000000" stroke="#000000" stroke-linecap="round" stroke-linejoin="round" stroke-width="5.000000"
	d="
M180.250000,508.500000 
	C180.910370,511.086945 182.973389,511.069611 184.999420,510.986084 
	C187.668427,510.876099 190.359222,510.846039 192.995026,510.465515 
	C200.170105,509.429688 206.750809,511.574432 212.919937,514.660095 
	C215.439194,515.920166 218.687500,514.104187 220.500000,517.000000 
	C226.862122,515.565552 229.590820,521.082764 233.424820,524.095642 
	C240.612152,529.743774 245.459000,537.489624 250.530930,544.979065 
	C251.309601,546.128967 252.500000,547.000000 253.500000,548.000000 
"/>
<path fill="none" opacity="1.000000" stroke="#000000" stroke-linecap="round" stroke-linejoin="round" stroke-width="4.000000"
	d="
M304.500000,598.500000 
	C309.676056,601.549316 310.187744,607.709229 313.502838,611.997803 
	C316.679993,616.107910 317.588043,621.704224 322.007355,624.990112 
	C322.777496,625.562683 322.341461,626.331482 322.509827,626.997498 
	C323.327454,630.231934 323.788300,633.626221 327.978058,634.594849 
	C329.093719,634.852722 329.959442,635.999084 330.649048,637.428101 
	C332.190704,640.622742 335.546875,642.115112 338.386139,644.158264 
	C341.863922,646.660950 344.412018,650.425842 347.568512,653.427979 
	C348.264191,654.089661 347.884064,655.759033 349.500610,655.503845 
	C354.205566,654.761108 357.332428,658.076355 361.000000,660.000000 
"/>
<path fill="none" opacity="1.000000" stroke="#000000" stroke-linecap="round" stroke-linejoin="round" stroke-width="3.000000"
	d="
M281.500000,598.500000 
	C277.538116,595.585938 273.883148,598.269897 270.573334,599.672974 
	C267.353058,601.038025 259.671326,601.641235 256.992310,599.509644 
	C255.871887,598.618225 254.652924,597.851868 253.502655,596.996399 
	C250.467773,594.739441 249.863510,594.717529 248.117569,598.061401 
	C247.642975,598.970276 246.052719,599.098328 246.500000,600.500000 
"/>
<path fill="none" opacity="1.000000" stroke="#000000" stroke-linecap="round" stroke-linejoin="round" stroke-width="4.000000"
	d="
M183.500000,625.500000 
	C180.618179,626.635254 177.475601,628.615601 176.777817,631.078674 
	C175.721970,634.805725 174.526917,638.990967 175.650574,642.957336 
	C176.033722,644.309875 176.514877,645.601440 176.482635,646.999573 
	C176.423416,649.568359 177.979904,651.122681 180.027023,651.931580 
	C182.487869,652.903931 185.643341,652.249634 187.112259,655.448425 
	C187.286423,655.827698 189.000000,655.500000 190.000000,655.500000 
"/>
<path fill="none" opacity="1.000000" stroke="#000000" stroke-linecap="round" stroke-linejoin="round" stroke-width="3.000000"
	d="
M203.500000,681.500000 
	C199.937027,680.119751 195.504044,682.377136 192.445251,678.543701 
	C190.400009,675.980469 187.642563,673.986755 185.586792,671.430237 
	C184.666916,670.286316 183.826035,669.677612 182.500000,669.500000 
"/>
<path fill="none" opacity="1.000000" stroke="#000000" stroke-linecap="round" stroke-linejoin="round" stroke-width="6.000000"
	d="
M182.500000,666.500000 
	C174.051788,665.730652 165.944855,669.227295 157.500000,668.500000 
"/>
<path fill="none" opacity="1.000000" stroke="#000000" stroke-linecap="round" stroke-linejoin="round" stroke-width="4.000000"
	d="
M296.000000,602.500000 
	C292.324677,606.776855 290.624237,612.214966 287.747986,616.843384 
	C283.873596,623.078064 283.327118,630.349121 279.793976,636.664490 
	C278.089630,639.710938 279.695862,644.511902 279.453369,648.497192 
	C279.102753,654.260315 280.445496,659.281311 285.538666,662.437561 
	C289.319458,664.780640 293.474518,667.146423 297.983521,666.790894 
	C300.502655,666.592163 302.376617,667.385376 304.500000,668.000000 
"/>
<path fill="none" opacity="1.000000" stroke="#000000" stroke-linecap="round" stroke-linejoin="round" stroke-width="4.000000"
	d="
M285.000000,734.000000 
	C278.864655,733.858765 272.990204,735.594055 266.995758,736.470947 
	C265.643738,736.668701 264.147858,736.771729 263.546753,738.022461 
	C261.386200,742.517883 256.564087,742.237488 252.929504,743.840088 
	C249.536423,745.336304 245.930588,746.484436 242.500000,748.000000 
"/>
<path fill="none" opacity="1.000000" stroke="#000000" stroke-linecap="round" stroke-linejoin="round" stroke-width="4.000000"
	d="
M362.499969,452.500000 
	C360.833313,455.666656 359.450958,459.035645 357.394775,461.925140 
	C356.133728,463.697266 356.749939,465.319611 356.511780,467.001678 
	C356.153442,469.532654 357.438690,472.387726 355.000000,474.500000 
"/>
<path fill="none" opacity="1.000000" stroke="#000000" stroke-linecap="round" stroke-linejoin="round" stroke-width="3.000000"
	d="
M127.500000,561.000000 
	C131.351822,561.018616 134.955978,561.275818 138.595001,563.331848 
	C141.940796,565.222290 146.171555,563.721008 150.000000,564.000000 
"/>
<path fill="none" opacity="1.000000" stroke="#000000" stroke-linecap="round" stroke-linejoin="round" stroke-width="4.000000"
	d="
M265.500000,818.500000 
	C266.440369,822.702332 262.998413,825.625610 261.539246,828.787354 
	C260.426544,831.198486 258.993164,834.119568 257.730621,836.616577 
	C252.718323,846.530029 245.362350,854.872437 240.002167,864.501221 
	C239.432510,865.524536 238.442368,865.439270 237.500000,865.500000 
"/>
<path fill="none" opacity="1.000000" stroke="#000000" stroke-linecap="round" stroke-linejoin="round" stroke-width="3.000000"
	d="
M293.500000,643.500000 
	C293.210449,647.976135 293.794464,652.475952 296.618469,655.902344 
	C299.162842,658.989502 299.677429,662.462341 300.500000,666.000000 
"/>
<path fill="none" opacity="1.000000" stroke="#000000" stroke-linecap="round" stroke-linejoin="round" stroke-width="4.000000"
	d="
M195.000000,583.500000 
	C191.079071,588.385498 187.991608,594.255249 186.107925,599.709961 
	C184.530762,604.277100 181.781403,609.276184 182.930267,615.603455 
	C183.977615,621.371643 185.113556,627.478638 185.858337,633.455322 
	C186.153030,635.820129 187.685547,638.898010 189.000000,641.500000 
"/>
<path fill="none" opacity="1.000000" stroke="#000000" stroke-linecap="round" stroke-linejoin="round" stroke-width="4.000000"
	d="
M928.000000,317.500000 
	C928.957581,322.249634 925.831543,324.897766 923.109497,328.093262 
	C919.954712,331.796875 914.313965,331.916077 912.000000,336.500000 
"/>
<path fill="none" opacity="1.000000" stroke="#000000" stroke-linecap="round" stroke-linejoin="round" stroke-width="4.000000"
	d="
M296.000000,474.500000 
	C297.612427,478.665100 302.008636,479.882874 305.152069,481.743042 
	C314.200378,487.097321 322.352142,493.638794 330.987061,499.518982 
	C331.255981,499.702148 331.333313,500.166687 331.500000,500.500000 
"/>
<path fill="none" opacity="1.000000" stroke="#000000" stroke-linecap="round" stroke-linejoin="round" stroke-width="3.000000"
	d="
M91.500000,600.000000 
	C99.649788,600.789612 103.946815,606.818970 108.500000,612.500000 
"/>
<path fill="none" opacity="1.000000" stroke="#000000" stroke-linecap="round" stroke-linejoin="round" stroke-width="3.000000"
	d="
M233.500000,433.500000 
	C234.606689,440.477631 233.714355,447.502838 234.000000,454.500000 
"/>
<path fill="none" opacity="1.000000" stroke="#000000" stroke-linecap="round" stroke-linejoin="round" stroke-width="3.000000"
	d="
M291.500000,667.000000 
	C289.471191,670.913635 285.805817,670.020081 282.500366,669.973633 
	C278.832092,669.922119 275.166656,669.666687 271.500000,669.500000 
"/>
<path fill="none" opacity="1.000000" stroke="#000000" stroke-linecap="round" stroke-linejoin="round" stroke-width="4.000000"
	d="
M289.500000,594.500000 
	C284.628998,595.843506 280.968384,597.864746 280.850891,603.997131 
	C280.759918,608.744629 275.517365,612.493958 270.500000,612.499634 
	C268.500000,612.501892 266.500000,612.500000 264.500000,612.500000 
"/>
<path fill="none" opacity="1.000000" stroke="#000000" stroke-linecap="round" stroke-linejoin="round" stroke-width="4.000000"
	d="
M348.500000,675.500000 
	C347.281311,675.562622 346.375244,675.475159 345.387207,676.923035 
	C342.669067,680.906006 338.187744,683.028076 334.474762,685.968140 
	C332.762207,687.324219 330.324524,687.609253 328.553223,686.872070 
	C325.575012,685.632690 322.214813,686.712524 320.701202,687.784180 
	C317.170807,690.283813 313.978180,689.465637 310.500000,689.000000 
"/>
<path fill="none" opacity="1.000000" stroke="#000000" stroke-linecap="round" stroke-linejoin="round" stroke-width="5.000000"
	d="
M315.500000,659.000000 
	C313.579773,662.534851 311.525177,665.770935 307.018036,666.598267 
	C305.394989,666.896240 304.684265,668.905457 304.545654,670.503967 
	C303.881744,678.159668 298.745026,683.456543 294.357208,688.884583 
	C290.317780,693.881470 285.996429,698.860474 280.500000,702.500000 
"/>
<path fill="none" opacity="1.000000" stroke="#000000" stroke-linecap="round" stroke-linejoin="round" stroke-width="3.000000"
	d="
M205.500000,615.500000 
	C206.552887,619.484375 203.100204,622.030090 201.613953,624.792297 
	C200.268326,627.293274 198.887451,630.406372 196.500000,632.500000 
"/>
<path fill="none" opacity="1.000000" stroke="#000000" stroke-linecap="round" stroke-linejoin="round" stroke-width="4.000000"
	d="
M324.000000,634.500000 
	C322.189240,635.773438 322.639099,637.699280 322.468842,639.497070 
	C322.244934,641.861389 323.395111,644.332520 320.147095,646.249268 
	C318.360931,647.303345 319.664734,650.999878 319.500000,653.500000 
"/>
<path fill="none" opacity="1.000000" stroke="#000000" stroke-linecap="round" stroke-linejoin="round" stroke-width="4.000000"
	d="
M182.500000,589.500000 
	C182.524689,591.730469 182.375351,593.585754 180.636887,595.617126 
	C177.757156,598.982239 179.398727,605.416443 183.000000,607.500000 
"/>
<path fill="none" opacity="1.000000" stroke="#000000" stroke-linecap="round" stroke-linejoin="round" stroke-width="5.000000"
	d="
M563.000000,744.500000 
	C565.670288,747.507019 568.697205,749.862732 572.427612,751.651001 
	C575.428101,753.089417 578.856323,755.066101 578.500000,759.500000 
"/>
<path fill="none" opacity="1.000000" stroke="#000000" stroke-linecap="round" stroke-linejoin="round" stroke-width="4.000000"
	d="
M270.500000,639.000000 
	C264.437988,637.860352 263.045929,636.353455 262.518219,629.998474 
	C262.197479,626.136047 259.189545,625.527710 256.503418,625.610657 
	C250.928955,625.782715 245.120453,625.974487 241.978333,631.988708 
	C241.451096,632.997803 240.333023,632.331787 239.500000,632.500000 
"/>
<path fill="none" opacity="1.000000" stroke="#000000" stroke-linecap="round" stroke-linejoin="round" stroke-width="3.000000"
	d="
M292.500000,625.000000 
	C291.928192,625.790222 290.861572,626.039612 290.928925,627.503296 
	C291.127838,631.827454 291.127838,636.172546 290.928925,640.496704 
	C290.861603,641.960388 291.928192,642.209778 292.500000,643.000000 
"/>
<path fill="none" opacity="1.000000" stroke="#000000" stroke-linecap="round" stroke-linejoin="round" stroke-width="3.000000"
	d="
M231.000000,460.500000 
	C230.692276,466.829620 231.627426,473.191956 230.500000,479.500000 
"/>
<path fill="none" opacity="1.000000" stroke="#000000" stroke-linecap="round" stroke-linejoin="round" stroke-width="4.000000"
	d="
M296.500000,601.500000 
	C298.420074,597.586731 299.531433,597.031067 303.841187,598.083313 
	C302.824982,602.802673 300.829834,607.020142 297.457336,610.458130 
	C295.876434,612.069763 296.800262,613.826721 296.500000,615.500000 
"/>
<path fill="none" opacity="1.000000" stroke="#000000" stroke-linecap="round" stroke-linejoin="round" stroke-width="4.000000"
	d="
M349.500000,368.500000 
	C339.219086,372.104797 329.673981,377.181335 320.500000,383.000000 
"/>
<path fill="none" opacity="1.000000" stroke="#000000" stroke-linecap="round" stroke-linejoin="round" stroke-width="4.000000"
	d="
M179.500000,480.000000 
	C186.248016,482.337311 192.490082,486.110596 198.279785,489.841705 
	C207.119675,495.538422 214.607742,503.384857 222.364761,510.644501 
	C223.343079,511.560059 224.818329,513.807129 224.000000,516.000000 
"/>
<path fill="none" opacity="1.000000" stroke="#000000" stroke-linecap="round" stroke-linejoin="round" stroke-width="3.000000"
	d="
M170.000000,609.500000 
	C171.107346,613.265076 173.447327,615.913513 176.177963,618.804199 
	C178.362778,621.117065 180.051270,621.397461 182.500000,621.500000 
"/>
<path fill="none" opacity="1.000000" stroke="#000000" stroke-linecap="round" stroke-linejoin="round" stroke-width="4.000000"
	d="
M378.500000,489.500000 
	C374.846130,482.157135 368.857117,480.472717 362.500000,485.000000 
"/>
<path fill="none" opacity="1.000000" stroke="#000000" stroke-linecap="round" stroke-linejoin="round" stroke-width="4.000000"
	d="
M327.500000,692.500000 
	C324.773285,692.508240 322.621582,694.742737 322.719360,696.487732 
	C322.997803,701.456116 319.715637,703.901855 317.060211,707.050781 
	C314.964691,709.535767 317.137421,712.694336 316.500000,715.500000 
"/>
<path fill="none" opacity="1.000000" stroke="#000000" stroke-linecap="round" stroke-linejoin="round" stroke-width="5.000000"
	d="
M289.500000,508.000000 
	C281.249603,511.414124 278.294037,518.548950 276.500000,526.500000 
"/>
<path fill="none" opacity="1.000000" stroke="#000000" stroke-linecap="round" stroke-linejoin="round" stroke-width="3.000000"
	d="
M376.000000,438.500000 
	C370.839386,442.006073 367.102722,446.936035 363.000000,451.500000 
"/>
<path fill="none" opacity="1.000000" stroke="#000000" stroke-linecap="round" stroke-linejoin="round" stroke-width="4.000000"
	d="
M273.500000,552.500000 
	C275.281799,555.531494 276.035919,559.236023 279.035004,561.452637 
	C280.000214,562.166016 279.358307,562.848877 279.453888,563.506714 
	C279.619873,564.649292 279.063354,566.592224 279.567657,566.882385 
	C284.511536,569.727051 281.402100,574.797913 283.000000,578.500000 
"/>
<path fill="none" opacity="1.000000" stroke="#000000" stroke-linecap="round" stroke-linejoin="round" stroke-width="5.000000"
	d="
M132.500000,850.500000 
	C135.579819,854.553772 137.895248,859.248291 142.467896,862.052368 
	C143.199646,862.501099 143.816833,862.399292 144.500000,862.500000 
"/>
<path fill="none" opacity="1.000000" stroke="#000000" stroke-linecap="round" stroke-linejoin="round" stroke-width="4.000000"
	d="
M191.500000,641.500000 
	C190.833328,641.833313 189.567749,642.211792 189.588943,642.493286 
	C189.966354,647.502563 189.135910,653.265869 191.390213,657.280884 
	C193.570221,661.163696 198.595993,663.974670 204.000000,664.000000 
"/>
<path fill="none" opacity="1.000000" stroke="#000000" stroke-linecap="round" stroke-linejoin="round" stroke-width="4.000000"
	d="
M360.500000,588.500000 
	C363.879669,588.002258 365.960358,590.436951 367.361359,592.590210 
	C369.535919,595.932373 372.272430,598.394226 375.827637,600.713745 
	C379.233643,597.706177 375.548676,592.214661 379.500000,589.500000 
"/>
<path fill="none" opacity="1.000000" stroke="#000000" stroke-linecap="round" stroke-linejoin="round" stroke-width="3.000000"
	d="
M247.000000,601.500000 
	C249.829239,605.986145 255.189362,606.901733 258.994141,610.007202 
	C260.707458,611.405640 261.970825,609.403992 263.500000,609.500000 
"/>
<path fill="none" opacity="1.000000" stroke="#000000" stroke-linecap="round" stroke-linejoin="round" stroke-width="3.000000"
	d="
M262.500000,540.000000 
	C266.502594,543.374451 269.962921,547.244019 273.000000,551.500000 
"/>
<path fill="none" opacity="1.000000" stroke="#000000" stroke-linecap="round" stroke-linejoin="round" stroke-width="4.000000"
	d="
M276.500000,716.500000 
	C276.709839,719.401184 273.718536,719.739929 272.496765,721.497742 
	C270.174500,724.838806 265.079926,726.139526 265.399353,731.505981 
	C265.471130,732.711975 264.167938,733.835266 262.500000,733.500000 
"/>
<path fill="none" opacity="1.000000" stroke="#000000" stroke-linecap="round" stroke-linejoin="round" stroke-width="4.000000"
	d="
M135.000000,491.000000 
	C139.481628,492.125732 140.973480,497.437134 145.500000,498.500000 
"/>
<path fill="none" opacity="1.000000" stroke="#000000" stroke-linecap="round" stroke-linejoin="round" stroke-width="3.000000"
	d="
M366.500000,498.000000 
	C361.009644,498.295685 359.134033,502.843964 356.500000,506.500000 
"/>
<path fill="none" opacity="1.000000" stroke="#000000" stroke-linecap="round" stroke-linejoin="round" stroke-width="3.000000"
	d="
M154.000000,542.500000 
	C153.407394,546.385681 155.715256,550.901855 151.500000,554.000000 
"/>
<path fill="none" opacity="1.000000" stroke="#000000" stroke-linecap="round" stroke-linejoin="round" stroke-width="3.000000"
	d="
M319.500000,383.500000 
	C315.321625,384.561890 312.478394,388.071503 308.500000,389.500000 
"/>
<path fill="none" opacity="1.000000" stroke="#000000" stroke-linecap="round" stroke-linejoin="round" stroke-width="4.000000"
	d="
M349.500000,619.500000 
	C348.319092,624.474609 346.322784,629.069641 342.968140,632.972595 
	C342.370331,633.668091 342.408813,634.353760 342.531982,634.993835 
	C343.195618,638.441467 341.376373,641.150818 340.000000,644.000000 
"/>
<path fill="none" opacity="1.000000" stroke="#000000" stroke-linecap="round" stroke-linejoin="round" stroke-width="3.000000"
	d="
M126.000000,536.500000 
	C130.613098,539.079285 134.343292,542.820251 138.500000,546.000000 
"/>
<path fill="none" opacity="1.000000" stroke="#000000" stroke-linecap="round" stroke-linejoin="round" stroke-width="6.000000"
	d="
M286.500000,595.000000 
	C285.447968,592.520813 283.223999,590.607178 283.405609,587.494507 
	C283.488892,586.067322 281.999115,585.417969 280.500000,585.500000 
"/>
<path fill="none" opacity="1.000000" stroke="#000000" stroke-linecap="round" stroke-linejoin="round" stroke-width="3.000000"
	d="
M234.000000,485.500000 
	C233.754654,489.163086 234.528702,492.872528 233.500000,496.500000 
"/>
<path fill="none" opacity="1.000000" stroke="#000000" stroke-linecap="round" stroke-linejoin="round" stroke-width="3.000000"
	d="
M146.000000,499.500000 
	C149.166672,501.666656 152.333328,503.833344 155.500000,506.000000 
"/>
<path fill="none" opacity="1.000000" stroke="#000000" stroke-linecap="round" stroke-linejoin="round" stroke-width="3.000000"
	d="
M249.500000,530.000000 
	C253.253357,532.034058 254.306915,536.467896 257.500000,539.000000 
"/>
<path fill="none" opacity="1.000000" stroke="#000000" stroke-linecap="round" stroke-linejoin="round" stroke-width="4.000000"
	d="
M907.000000,325.500000 
	C905.525757,327.958496 904.192505,330.539185 900.488525,329.542694 
	C899.286011,329.219208 898.311218,330.122406 897.500000,331.000000 
"/>
<path fill="none" opacity="1.000000" stroke="#000000" stroke-linecap="round" stroke-linejoin="round" stroke-width="4.000000"
	d="
M176.000000,512.500000 
	C175.000000,512.500000 173.983627,512.616394 173.003021,512.478516 
	C169.862000,512.036865 167.986954,513.067017 168.000000,516.500000 
"/>
<path fill="none" opacity="1.000000" stroke="#000000" stroke-linecap="round" stroke-linejoin="round" stroke-width="4.000000"
	d="
M251.500000,895.500000 
	C249.628601,898.627625 251.182800,902.269104 250.000000,905.500000 
"/>
<path fill="none" opacity="1.000000" stroke="#000000" stroke-linecap="round" stroke-linejoin="round" stroke-width="3.000000"
	d="
M382.500000,489.500000 
	C377.079559,489.741211 373.145508,493.450623 368.500000,495.500000 
"/>
<path fill="none" opacity="1.000000" stroke="#000000" stroke-linecap="round" stroke-linejoin="round" stroke-width="4.000000"
	d="
M125.500000,558.500000 
	C121.731529,559.805420 119.673912,555.978271 116.500000,555.500000 
"/>
<path fill="none" opacity="1.000000" stroke="#000000" stroke-linecap="round" stroke-linejoin="round" stroke-width="3.000000"
	d="
M113.500000,552.500000 
	C112.872589,552.088135 112.083969,553.102600 111.324455,551.588013 
	C110.230713,549.406921 107.804733,548.174377 105.000000,549.000000 
"/>
<path fill="none" opacity="1.000000" stroke="#000000" stroke-linecap="round" stroke-linejoin="round" stroke-width="4.000000"
	d="
M330.500000,501.500000 
	C331.970093,499.542603 333.195007,501.257965 333.938690,502.057037 
	C336.052887,504.328583 338.745453,505.424255 341.500000,506.500000 
"/>
<path fill="none" opacity="1.000000" stroke="#000000" stroke-linecap="round" stroke-linejoin="round" stroke-width="4.000000"
	d="
M354.000000,508.500000 
	C354.013092,511.839874 354.171417,515.252380 350.000000,516.500000 
"/>
<path fill="none" opacity="1.000000" stroke="#000000" stroke-linecap="round" stroke-linejoin="round" stroke-width="3.000000"
	d="
M162.500000,523.500000 
	C162.433060,526.811035 158.059265,528.686401 159.500000,532.500000 
"/>
<path fill="none" opacity="1.000000" stroke="#000000" stroke-linecap="round" stroke-linejoin="round" stroke-width="3.000000"
	d="
M156.499985,668.000000 
	C153.499985,666.333374 150.499985,664.666687 147.499985,663.000000 
"/>
<path fill="none" opacity="1.000000" stroke="#000000" stroke-linecap="round" stroke-linejoin="round" stroke-width="3.000000"
	d="
M304.500000,709.000000 
	C302.011749,706.030457 298.591827,707.253479 295.500000,707.000000 
"/>
<path fill="none" opacity="1.000000" stroke="#000000" stroke-linecap="round" stroke-linejoin="round" stroke-width="4.000000"
	d="
M159.500000,598.500000 
	C167.025879,598.232910 168.679520,598.592773 169.500000,608.500000 
"/>
<path fill="none" opacity="1.000000" stroke="#000000" stroke-linecap="round" stroke-linejoin="round" stroke-width="3.000000"
	d="
M290.000000,495.500000 
	C292.303284,498.207642 291.847412,501.077606 290.500000,504.000000 
"/>
<path fill="none" opacity="1.000000" stroke="#000000" stroke-linecap="round" stroke-linejoin="round" stroke-width="3.000000"
	d="
M272.000000,811.000000 
	C268.138672,811.448486 268.241455,815.556213 266.000000,817.500000 
"/>
<path fill="none" opacity="1.000000" stroke="#000000" stroke-linecap="round" stroke-linejoin="round" stroke-width="3.000000"
	d="
M346.000000,559.500000 
	C348.333344,562.500000 350.666687,565.500000 353.000000,568.500000 
"/>
<path fill="none" opacity="1.000000" stroke="#000000" stroke-linecap="round" stroke-linejoin="round" stroke-width="3.000000"
	d="
M293.500000,616.500000 
	C294.746063,619.166687 293.560089,621.833313 293.500000,624.500000 
"/>
<path fill="none" opacity="1.000000" stroke="#000000" stroke-linecap="round" stroke-linejoin="round" stroke-width="4.000000"
	d="
M353.500000,610.500000 
	C350.887421,612.534058 352.280853,616.320801 350.000000,618.500000 
"/>
<path fill="none" opacity="1.000000" stroke="#000000" stroke-linecap="round" stroke-linejoin="round" stroke-width="3.000000"
	d="
M390.500000,419.500000 
	C391.234100,421.100098 391.751343,422.945404 389.958221,423.923401 
	C387.965851,425.010010 387.561584,427.202881 386.000000,428.500000 
"/>
<path fill="none" opacity="1.000000" stroke="#000000" stroke-linecap="round" stroke-linejoin="round" stroke-width="3.000000"
	d="
M633.000000,843.500000 
	C635.500000,843.666687 638.000000,843.833374 640.500000,844.000000 
"/>
<path fill="none" opacity="1.000000" stroke="#000000" stroke-linecap="round" stroke-linejoin="round" stroke-width="4.000000"
	d="
M139.500000,546.500000 
	C142.167267,547.365967 144.783218,548.212341 145.530319,551.493103 
	C146.001663,553.562866 148.291580,554.041748 149.500000,555.500000 
"/>
<path fill="none" opacity="1.000000" stroke="#000000" stroke-linecap="round" stroke-linejoin="round" stroke-width="4.000000"
	d="
M278.500000,638.500000 
	C275.879211,639.350220 272.352722,636.577576 270.500000,640.500000 
"/>
<path fill="none" opacity="1.000000" stroke="#000000" stroke-linecap="round" stroke-linejoin="round" stroke-width="3.000000"
	d="
M702.500000,966.500000 
	C704.189453,968.810547 707.886658,969.113342 708.500000,972.500000 
"/>
<path fill="none" opacity="1.000000" stroke="#000000" stroke-linecap="round" stroke-linejoin="round" stroke-width="3.000000"
	d="
M21.000000,652.500000 
	C21.689318,655.108032 25.061897,655.703552 25.500000,658.500000 
"/>
<path fill="none" opacity="1.000000" stroke="#000000" stroke-linecap="round" stroke-linejoin="round" stroke-width="3.000000"
	d="
M156.500000,533.500000 
	C157.877228,535.833313 155.992859,538.166687 156.500000,540.500000 
"/>
<path fill="none" opacity="1.000000" stroke="#000000" stroke-linecap="round" stroke-linejoin="round" stroke-width="4.000000"
	d="
M168.500000,477.000000 
	C171.290863,480.003204 175.531631,477.206818 178.500000,479.500000 
"/>
<path fill="none" opacity="1.000000" stroke="#000000" stroke-linecap="round" stroke-linejoin="round" stroke-width="3.000000"
	d="
M316.500000,652.500000 
	C316.709503,654.500000 317.532227,656.500000 316.500000,658.500000 
"/>
<path fill="none" opacity="1.000000" stroke="#000000" stroke-linecap="round" stroke-linejoin="round" stroke-width="4.000000"
	d="
M315.500000,709.500000 
	C312.166656,709.974976 308.833344,710.614685 305.500000,709.500000 
"/>
<path fill="none" opacity="1.000000" stroke="#000000" stroke-linecap="round" stroke-linejoin="round" stroke-width="2.000000"
	d="
M854.500000,827.500000 
	C852.843689,827.229858 851.077454,828.058716 849.500000,827.000000 
"/>
<path fill="none" opacity="1.000000" stroke="#000000" stroke-linecap="round" stroke-linejoin="round" stroke-width="4.000000"
	d="
M358.000000,668.000000 
	C354.565582,669.565186 351.534790,671.689209 349.000000,674.500000 
"/>
<path fill="none" opacity="1.000000" stroke="#000000" stroke-linecap="round" stroke-linejoin="round" stroke-width="2.000000"
	d="
M273.500000,912.000000 
	C272.278076,913.057983 270.820648,912.231812 269.500000,912.500000 
"/>
<path fill="none" opacity="1.000000" stroke="#000000" stroke-linecap="round" stroke-linejoin="round" stroke-width="2.000000"
	d="
M28.500006,657.500000 
	C28.333340,658.333313 28.166672,659.166687 28.000011,660.000000 
	C27.500015,659.666626 27.000015,659.333313 26.500015,659.000000 
"/>
<path fill="none" opacity="1.000000" stroke="#000000" stroke-linecap="round" stroke-linejoin="round" stroke-width="2.000000"
	d="
M126.000000,559.500000 
	C126.333336,560.000000 126.666664,560.500000 127.000000,561.000000 
	C126.166664,561.166687 125.333336,561.333313 124.500000,561.500000 
"/>
</svg>