<svg version="1.1" id="Layer_1" xmlns="http://www.w3.org/2000/svg" xmlns:xlink="http://www.w3.org/1999/xlink" x="0px" y="0px"
	 width="100%" viewBox="0 0 720 1024" enable-background="new 0 0 720 1024" xml:space="preserve">
<path fill="#000000" opacity="1.000000" stroke="none" 
	d="
M501.061432,500.245728 
	C498.810791,504.302032 499.386902,508.115356 501.231842,511.568726 
	C505.012238,518.644836 509.476349,525.162842 516.373108,529.795471 
	C536.976624,543.635193 532.394470,537.650024 534.037903,561.498901 
	C534.591736,569.536011 536.065552,577.296143 540.597961,584.157593 
	C542.106323,586.441162 542.658569,588.553650 540.925049,591.043884 
	C531.664673,604.346436 525.336060,619.237305 518.078430,633.620422 
	C516.959106,635.838623 515.597839,637.290894 513.257874,638.270935 
	C502.672882,642.704102 493.746521,649.606628 485.902130,657.835693 
	C481.436554,662.520264 477.505188,667.721375 473.442413,672.777588 
	C472.408997,674.063660 471.383972,675.169739 469.754456,674.417969 
	C468.259796,673.728333 468.767731,672.114563 468.800629,670.828430 
	C468.851562,668.839661 470.114838,667.458069 471.359283,666.106567 
	C473.025726,664.296814 474.739990,662.531006 475.902161,660.160034 
	C468.055206,666.671875 460.438202,673.487549 452.315979,679.635742 
	C432.061768,694.967346 410.900665,709.084045 390.623322,724.352661 
	C372.636749,737.896362 352.652161,748.984131 337.422058,766.066711 
	C327.196106,777.536560 320.433044,790.527649 316.974091,805.725525 
	C314.239868,817.739136 312.291870,829.899658 309.891510,841.949097 
	C308.634155,848.260742 308.011536,854.996826 307.022766,861.457397 
	C305.342346,872.437805 306.303345,883.632874 303.654083,894.499634 
	C302.921173,897.505859 303.245819,900.798767 303.279663,903.958069 
	C303.427490,917.765320 300.921265,931.127014 297.485840,944.466675 
	C294.111572,957.568909 291.449768,970.890381 292.438995,984.606323 
	C292.534088,985.924561 292.500183,987.270203 292.349976,988.582947 
	C292.204193,989.856934 291.473999,990.786011 290.054321,990.723206 
	C288.678192,990.662231 287.822113,989.741028 287.845062,988.462646 
	C288.005493,979.524841 286.673035,970.564575 288.841644,961.654724 
	C290.739868,953.855591 291.316376,945.646973 293.957581,938.140320 
	C296.772888,930.138855 293.969238,924.403198 289.941528,918.019531 
	C285.341675,910.729004 282.041595,902.681641 279.634033,894.116516 
	C277.162567,894.760864 274.995148,895.395630 272.794006,895.876221 
	C271.223053,896.219177 269.728424,895.917358 268.981689,894.291199 
	C268.131897,892.440796 269.401123,891.565430 270.798279,890.795410 
	C285.605011,882.636414 286.516663,869.035950 284.968597,854.499634 
	C284.385223,849.021484 282.363983,843.917542 280.555695,838.781494 
	C278.800659,833.796753 279.899445,829.046631 282.168213,824.782104 
	C285.753174,818.043518 287.430298,810.859802 288.671387,803.473755 
	C289.798309,796.767334 295.345459,793.783386 300.185364,790.453674 
	C304.824677,787.262146 309.771332,784.476929 315.400269,783.120605 
	C318.218201,782.441650 320.626953,780.628662 322.057495,778.113220 
	C330.159607,763.866699 342.588104,753.880066 355.252991,744.123901 
	C363.288879,737.933594 371.458008,731.915771 379.470825,725.696228 
	C383.889313,722.266724 383.971863,720.229736 380.260651,715.070862 
	C374.344513,720.043152 367.817352,723.943420 360.226013,725.743103 
	C355.669159,726.823425 351.469208,726.736633 347.697784,723.102661 
	C344.269897,719.799866 340.089783,721.860718 337.012573,723.559204 
	C318.086182,734.006348 298.415131,743.166992 280.659576,755.671387 
	C279.279205,756.643555 278.142212,757.772034 277.075165,759.086182 
	C273.305511,763.728638 269.276245,767.858276 263.712524,770.743958 
	C259.117188,773.127319 257.717712,778.858582 255.051453,783.183777 
	C241.039307,805.914307 228.729401,829.614014 215.580246,852.836731 
	C213.303696,856.857361 211.103607,860.983215 208.682404,864.844604 
	C203.204163,873.581177 205.816833,882.038574 208.019852,890.654541 
	C210.168274,899.057007 211.919113,907.535950 213.731277,916.002747 
	C215.982864,926.522583 215.213089,937.137634 216.947159,947.577576 
	C217.607224,951.551575 217.734604,955.624634 217.046051,959.523621 
	C216.197113,964.330750 215.932953,969.123474 216.074097,973.940857 
	C216.223389,979.037231 214.437408,983.748840 213.621048,988.648682 
	C213.373398,990.135010 212.575302,991.132996 210.898880,990.873779 
	C209.248947,990.618469 208.397980,989.205383 208.889557,987.967590 
	C211.817169,980.595642 209.531128,972.704224 211.245361,965.317627 
	C213.096664,957.340454 213.356140,949.585022 211.162506,941.686279 
	C210.639771,939.804077 210.774734,937.718994 210.739273,935.724854 
	C210.518311,923.301147 207.723099,911.357666 204.992798,899.286438 
	C203.161499,891.189880 199.208405,883.308899 200.483017,874.590820 
	C200.723709,872.944519 200.780609,871.292114 201.612640,869.768372 
	C202.933578,867.349060 202.474686,865.294006 200.998978,862.843262 
	C195.944046,854.448303 197.600082,839.432251 203.459824,831.234192 
	C217.124268,812.117004 231.142349,793.275391 245.847763,774.947632 
	C247.275238,773.168579 248.134064,771.294678 247.854568,768.988220 
	C246.764847,759.995850 249.516968,751.807983 253.497330,744.020996 
	C263.469574,724.512085 277.059967,707.377625 289.855560,689.752014 
	C292.923981,685.525269 296.610229,681.348267 302.037750,679.152344 
	C291.687897,678.827637 281.515259,679.810059 271.401886,678.481201 
	C238.000488,674.092407 207.021866,663.417786 179.686447,643.227600 
	C168.938782,635.289246 158.976868,626.523499 150.500732,616.147278 
	C150.079514,615.631653 149.657639,615.106445 149.316406,614.537537 
	C148.482758,613.147339 147.075623,611.689514 148.864151,610.143921 
	C150.571503,608.668457 151.802078,609.883728 153.113922,611.106201 
	C160.553055,618.038391 168.335693,624.568481 176.416351,630.743652 
	C198.301636,647.468262 221.804642,661.151123 248.542465,668.567505 
	C255.061920,670.375671 261.641998,672.268860 268.586029,671.872986 
	C273.943420,671.567749 278.983124,673.698486 284.386810,673.846252 
	C317.044312,674.739563 346.396088,665.298767 372.743317,646.256287 
	C385.273651,637.200012 397.982666,628.334351 409.624786,618.138062 
	C438.932983,592.469788 461.527771,562.188965 473.170502,524.482605 
	C475.957550,515.456482 478.382660,506.405029 478.873260,496.899994 
	C479.046936,493.535706 477.613556,491.824219 474.766632,490.349518 
	C467.871307,486.777802 460.542664,483.839386 455.413147,477.514191 
	C450.103912,470.967346 448.351288,463.733795 450.603485,455.590332 
	C451.092682,453.821503 451.337036,452.111176 451.296478,450.223389 
	C451.155914,443.680115 454.229126,440.665131 460.775879,440.866638 
	C466.739532,441.050201 472.069214,443.372070 477.085388,446.440735 
	C480.012726,448.231567 482.881561,450.117920 486.631500,452.505585 
	C483.567261,444.619568 480.422089,437.914764 478.043823,430.875732 
	C473.686310,417.978546 471.502258,404.829346 472.903778,391.361359 
	C473.738922,383.335480 479.059967,377.626129 485.820953,373.401062 
	C487.050873,372.632477 488.334930,371.950500 490.686279,370.602264 
	C481.669373,370.867767 474.040161,371.557129 467.243073,375.839294 
	C464.619843,377.491913 462.171112,377.484985 459.891357,375.511414 
	C454.491333,370.836761 447.071808,368.053131 445.404175,359.836090 
	C445.028168,357.983521 442.999268,358.223083 441.565277,358.353577 
	C428.949829,359.501648 417.610870,354.505859 406.002075,350.929657 
	C402.675201,349.904785 399.362061,349.981934 396.125214,350.278809 
	C387.511658,351.068878 380.634979,347.531860 374.204163,342.450806 
	C370.166809,339.260895 366.098328,336.108856 361.996429,333.002441 
	C356.816742,329.079681 350.810242,328.061127 344.566223,328.708038 
	C336.074524,329.587891 331.381317,325.418243 331.562531,316.813141 
	C331.625580,313.819305 331.762848,310.888519 332.342590,307.900299 
	C333.057312,304.216370 331.311676,300.994110 327.461945,300.461548 
	C320.487640,299.496796 314.200745,297.576324 309.535248,291.697510 
	C315.335297,298.565552 320.061523,306.151398 322.635406,314.417603 
	C327.056702,328.617065 331.012604,343.157379 326.197937,358.251160 
	C325.728729,359.722076 325.161560,361.145752 323.988464,362.094940 
	C316.681244,368.007294 315.725800,376.871338 313.401550,385.028046 
	C310.613403,394.812775 307.873138,404.638947 305.826599,414.594055 
	C304.965515,418.782776 303.563995,422.865326 303.138306,427.176056 
	C302.748688,431.121216 299.712219,432.584442 296.926575,430.188324 
	C287.320862,421.925781 276.526794,415.233185 266.939392,406.913483 
	C254.857498,396.429169 246.536880,383.909790 243.195206,367.967438 
	C240.877121,367.917694 240.293045,369.958649 239.408508,371.331299 
	C230.768768,384.738770 222.174911,398.178253 212.797302,411.087616 
	C203.007950,424.563751 189.824905,433.549622 174.259903,438.958740 
	C170.604691,440.229034 166.354935,439.823517 162.373108,440.111511 
	C154.904510,440.651642 147.428207,441.089020 139.963379,441.674469 
	C138.070892,441.822845 136.289551,442.064880 135.005463,440.283142 
	C133.648560,438.400421 134.724304,436.875458 135.665237,435.253784 
	C139.850479,428.040680 141.791367,420.298950 141.773605,411.905487 
	C141.738647,395.388672 143.105377,379.076599 147.435593,362.963226 
	C153.962799,338.674500 169.517349,324.796967 193.740250,319.444580 
	C199.035965,318.274445 204.208008,317.759644 209.522400,317.734589 
	C217.849106,317.695312 226.176147,317.724152 234.503036,317.724152 
	C234.511002,317.271515 234.518967,316.818909 234.526917,316.366272 
	C226.631714,316.366272 218.713257,316.756775 210.845978,316.288116 
	C192.273285,315.181641 174.768112,310.646332 160.045776,298.471985 
	C151.731171,291.596375 145.106339,283.326630 140.425125,273.569580 
	C137.669815,267.826721 134.434341,262.476349 129.531815,258.234589 
	C127.119911,256.147736 127.061287,254.069519 130.728516,253.516006 
	C138.743561,252.306244 144.835831,247.994690 150.041916,242.097992 
	C160.711121,230.013367 174.544128,223.962051 190.172226,222.176743 
	C203.202286,220.688202 216.112885,222.007812 228.512314,226.812653 
	C230.664154,227.646515 233.061310,228.597534 235.261642,228.425629 
	C244.609802,227.695282 252.080933,231.451080 258.741821,237.454041 
	C266.711456,244.636520 272.831482,253.102158 275.279327,263.669342 
	C276.841949,270.415070 277.596191,277.348022 278.987366,285.880737 
	C292.793976,275.364990 305.107910,264.626190 318.995880,254.976334 
	C311.024963,252.148560 303.009033,251.784058 295.855286,248.338715 
	C284.577728,242.907257 275.834625,235.330933 272.743622,222.617645 
	C272.313141,220.846909 270.894318,219.929764 269.725800,218.764267 
	C262.271759,211.329346 264.198029,207.321945 268.482971,200.350372 
	C271.083618,196.119080 275.500214,193.772079 279.436432,191.019226 
	C282.868317,188.619125 284.117279,186.091949 281.190308,182.508301 
	C276.968933,177.339859 279.820465,172.236984 281.938202,167.580856 
	C285.129578,160.564148 287.210999,153.873489 284.353149,146.088974 
	C282.843140,141.975800 288.680634,136.065918 293.576569,134.706100 
	C301.898987,132.394592 310.342651,132.612015 318.779327,132.746674 
	C326.789703,132.874512 334.666412,131.949326 342.560852,130.855698 
	C344.550049,130.580124 345.336670,129.800201 345.749054,127.820671 
	C348.952271,112.443954 357.152649,100.401550 370.304535,91.794220 
	C371.809296,90.809410 372.804321,89.810059 372.855896,87.874290 
	C373.399323,67.469696 384.581970,52.035118 397.157379,37.546143 
	C403.900848,29.776541 410.686829,29.448807 420.976807,33.553364 
	C425.273224,35.267151 429.722412,36.135002 434.780273,35.302025 
	C440.597382,34.344009 446.560394,33.813496 452.529755,37.628002 
	C456.499329,40.164581 462.036133,41.234768 467.224396,41.424610 
	C469.331726,41.501724 470.272400,40.697762 470.792084,38.345093 
	C472.810150,29.209248 485.050690,22.209253 494.019440,24.987246 
	C497.067902,25.931486 499.510071,27.993164 500.709045,31.196054 
	C502.087128,34.877480 504.068665,37.426495 508.724426,36.956078 
	C512.282104,36.596619 514.806519,39.437363 517.457214,41.342403 
	C521.612915,44.329082 525.521790,47.659309 529.753235,51.017117 
	C533.438416,46.867828 536.087952,42.074680 540.354492,38.582298 
	C546.083984,33.892464 552.114807,33.142422 558.257202,36.954327 
	C565.124756,41.216232 572.868591,44.125473 578.749878,49.928825 
	C579.689026,50.855530 581.017761,51.875660 581.195435,53.005264 
	C582.223083,59.540340 583.868896,66.167786 583.535889,72.673393 
	C583.209839,79.041435 580.735168,85.191940 576.057251,90.210175 
	C571.741333,94.840080 566.823975,100.102142 569.437134,106.893272 
	C573.402039,117.197144 566.975159,121.356743 560.064636,125.698044 
	C557.684448,127.193306 555.198853,128.520233 552.806946,129.997696 
	C546.098877,134.141220 541.403687,139.294540 539.748169,147.690414 
	C538.195312,155.565338 532.932861,161.949020 526.740417,167.250168 
	C524.870300,168.851105 522.807678,170.285934 521.231506,173.799377 
	C526.460693,172.169449 530.068848,169.816422 533.368774,166.643692 
	C545.586792,154.896591 557.367126,142.679016 570.570251,131.984604 
	C580.053345,124.303467 590.037415,118.126823 602.343750,115.304344 
	C610.215088,113.499054 617.828491,114.019974 625.552979,113.919991 
	C630.273621,113.858879 635.625854,120.027809 635.871277,125.157936 
	C636.021606,128.301834 635.484985,131.473740 635.536682,134.628464 
	C635.595154,138.198273 634.980652,142.170135 640.224060,143.134689 
	C642.587158,143.569366 642.786621,145.994125 641.914673,147.593018 
	C639.596375,151.844070 640.274414,156.350037 640.225647,160.790878 
	C640.129028,169.592773 640.189392,169.593430 635.349426,176.042419 
	C639.448669,179.613144 645.438660,177.423264 649.658813,180.768524 
	C651.336060,182.098007 653.207336,183.077927 654.437622,185.023346 
	C657.579041,189.990814 657.583313,191.616394 653.855835,195.718323 
	C653.957031,197.327637 655.476501,197.741165 656.390747,198.628677 
	C658.875061,201.040329 659.757751,203.746368 657.479675,206.590103 
	C651.291565,214.315140 651.206421,221.586914 656.007935,230.613266 
	C661.497681,240.933350 657.477966,249.141876 645.985107,252.259995 
	C643.501953,252.933731 641.528015,254.412659 639.602722,255.996826 
	C634.383118,260.291504 630.286743,265.934631 623.278809,268.782776 
	C627.329224,273.650879 631.014771,278.033691 634.649658,282.458130 
	C643.890320,293.706146 649.890076,306.819641 655.883850,319.897369 
	C658.037720,324.596802 654.396851,330.001892 649.262878,329.441437 
	C641.755066,328.621826 637.075378,333.791748 631.322510,336.701355 
	C629.525757,337.610107 629.299866,339.526733 629.132263,341.449066 
	C628.235840,351.729034 621.366638,358.264679 611.222595,360.389862 
	C595.737488,363.633972 580.196350,365.495361 564.384644,364.968811 
	C561.773865,364.881866 560.344177,365.655792 560.401978,368.620789 
	C560.629822,380.302734 553.505554,387.846863 545.447388,394.858246 
	C544.046753,396.076965 542.836975,396.213257 541.550110,394.894073 
	C538.990173,392.269958 535.594482,390.666595 533.205872,387.776947 
	C531.858826,386.147308 529.982422,384.900909 528.198730,383.698059 
	C524.708069,381.344147 520.158569,381.647339 516.657593,379.189911 
	C513.269043,376.811432 510.780090,373.222107 507.110168,372.032349 
	C510.102692,384.082642 515.353760,395.805573 517.769409,408.396088 
	C518.462341,412.007568 519.660217,415.424408 522.119385,418.344727 
	C526.502197,423.549500 527.515442,430.451691 530.888672,436.220276 
	C532.918945,439.692169 534.892395,442.496185 539.070740,443.539734 
	C542.803955,444.472137 546.320374,446.250122 548.663513,449.510193 
	C556.928772,461.009705 564.379517,473.051819 571.296082,485.383545 
	C575.382751,492.669769 576.933716,501.050964 578.855896,509.113556 
	C579.756409,512.890747 581.510315,515.368896 584.266113,517.576172 
	C589.707397,521.934326 595.327454,526.107910 599.964844,531.357300 
	C604.212708,536.165710 605.733276,541.540283 603.255066,547.867249 
	C601.318604,552.811340 601.581360,558.321472 600.873230,563.456909 
	C600.000732,569.785339 599.061890,576.267273 597.928101,582.499390 
	C596.106262,592.513672 594.863708,602.633667 592.877563,612.635376 
	C590.993652,622.122375 588.462830,631.926025 590.465637,641.674805 
	C591.711060,647.736938 594.403076,653.551880 596.845703,659.308105 
	C602.658875,673.007263 599.627747,684.993408 590.318726,695.933716 
	C581.637512,706.136108 570.976013,714.188293 560.880737,722.829468 
	C544.074890,737.214783 527.336426,751.672058 511.151672,766.752930 
	C493.144043,783.532410 474.778412,799.929260 457.317780,817.295471 
	C446.540527,828.014404 441.062134,840.383118 439.710358,855.977417 
	C438.671021,867.967346 439.644867,880.183350 436.720428,892.113159 
	C435.444977,897.316406 436.314636,903.058350 436.301971,908.555786 
	C436.271606,921.721802 435.285370,934.989624 436.597076,948.023865 
	C437.781647,959.795044 438.025116,971.514038 438.430206,983.274475 
	C438.485046,984.866150 439.476654,986.404907 439.832184,988.012878 
	C440.170288,989.541992 439.455811,990.620239 437.853943,990.897827 
	C436.447174,991.141602 435.560577,990.345825 435.292023,989.091614 
	C434.460510,985.208740 433.164124,981.314209 433.076416,977.401123 
	C432.453430,949.612366 429.433899,921.857117 431.096405,894.046936 
	C432.135376,876.667419 431.659119,859.095825 435.726166,842.006287 
	C437.995117,832.472290 442.930023,824.080688 449.837555,817.237061 
	C478.096710,789.239685 507.860229,762.853943 537.377136,736.206787 
	C551.941956,723.057861 567.697937,711.286560 581.739014,697.521851 
	C590.861450,688.578979 596.470154,678.511047 592.937256,665.409607 
	C591.390869,659.675049 589.331970,653.972839 586.686096,648.664429 
	C582.298218,639.860901 583.655151,631.109131 585.754822,622.244507 
	C586.324890,619.837463 587.213318,617.525330 586.582275,614.477356 
	C579.148865,630.695435 568.728638,644.850403 562.466248,661.144409 
	C558.205505,672.230408 554.494690,683.527161 550.271362,694.628235 
	C546.795105,703.765808 542.449219,712.497925 536.397766,720.268311 
	C535.085632,721.953125 533.571838,723.170837 531.293396,721.274292 
	C531.943604,717.074585 535.519897,714.669434 537.466858,711.288757 
	C544.007324,699.931824 548.326233,687.728088 552.169861,675.257935 
	C556.768250,660.339111 563.614136,646.392273 571.563599,632.954285 
	C576.700439,624.270813 581.604919,615.336426 584.162109,605.547607 
	C586.902832,595.056396 586.165894,584.337830 582.371033,574.197510 
	C578.161621,562.949280 574.450134,551.436523 568.502991,540.924316 
	C561.251709,528.107056 552.281555,516.911255 537.876343,511.533752 
	C534.335999,510.212128 530.632263,508.651794 526.954041,508.512604 
	C518.560547,508.195007 511.862030,504.976166 506.334839,498.853638 
	C504.100922,496.379089 502.175201,496.048340 501.061432,500.245728 
M514.887756,316.029968 
	C520.071167,315.065338 525.330383,314.393219 530.421509,313.072754 
	C539.815918,310.636169 549.278748,311.500244 558.693237,312.227600 
	C562.932556,312.555084 564.836975,316.376648 562.820374,319.956970 
	C560.137390,324.720276 557.169250,329.443695 551.561279,331.499542 
	C544.217041,334.191925 536.657104,334.300446 528.966736,333.830048 
	C521.028259,333.344452 513.207581,332.120880 505.378052,330.287903 
	C505.254242,332.405029 506.626678,333.065338 507.467072,334.002014 
	C522.949097,351.257416 543.504272,357.489502 565.498108,359.505646 
	C581.630920,360.984436 597.423767,356.971954 613.007629,353.214386 
	C618.401978,351.913727 623.678650,348.378998 622.691895,340.726624 
	C622.055359,335.790588 625.354919,333.118317 629.070251,330.955627 
	C635.606384,327.150940 641.972107,322.837006 650.734009,323.751465 
	C649.739380,320.483307 649.792725,318.070435 648.539856,315.748535 
	C645.788818,310.649841 643.411865,305.350769 640.734741,300.210297 
	C631.407715,282.300964 617.751648,268.429749 600.035217,259.006104 
	C586.027771,251.555283 570.863831,247.725952 554.765869,248.138046 
	C547.373718,248.327271 540.798279,249.490707 535.802734,255.818726 
	C532.719849,259.723907 528.544250,259.401581 525.018127,255.889664 
	C520.487305,251.377258 517.357361,245.899673 514.690186,240.190903 
	C513.467346,237.573639 513.612793,234.776230 515.409973,232.121368 
	C520.802490,224.155289 526.058167,216.096451 531.348389,208.061401 
	C532.920105,205.674286 535.514526,203.945465 536.650330,199.685516 
	C531.134705,202.484802 526.593506,204.789536 522.061768,207.089462 
	C524.782532,213.032578 521.216370,216.917938 518.432434,220.936981 
	C515.807007,224.727249 512.650635,222.166443 509.512421,220.967117 
	C509.132050,225.586288 505.315277,226.925415 502.086060,229.568970 
	C506.322968,230.315018 510.764221,230.468933 511.037231,235.456573 
	C511.254700,239.428802 507.825531,242.626312 507.631714,247.177444 
	C511.038300,246.565475 514.333862,248.131027 514.616333,250.748032 
	C515.211426,256.261780 519.426514,258.424133 522.577209,261.655823 
	C524.568298,263.698090 526.361755,265.862762 527.521912,268.503662 
	C528.292297,270.257202 529.399231,271.437805 531.508423,271.825195 
	C535.755005,272.605286 535.374573,275.286255 533.582092,278.120880 
	C532.385254,280.013519 530.378601,280.876343 528.367981,281.794708 
	C526.054138,282.851654 524.097351,283.483124 522.125610,281.189697 
	C520.345459,279.119110 520.741333,277.154541 522.214661,275.321869 
	C524.220276,272.826996 523.571594,270.761292 521.585938,268.723541 
	C519.960144,267.055115 518.259216,265.445862 516.769531,263.661865 
	C513.942383,260.276184 510.920593,259.169403 506.749390,261.571259 
	C503.470612,263.459229 501.770111,261.936249 501.746185,258.259399 
	C501.739166,257.181519 502.511597,256.014618 501.441406,254.882156 
	C495.610962,258.472412 490.636597,263.079315 485.581451,267.621124 
	C480.269562,272.393585 474.736176,276.624908 467.169495,277.765442 
	C464.691681,278.138947 459.966156,277.944641 459.613678,281.206390 
	C458.893677,287.869385 457.790131,295.042847 462.098999,301.049377 
	C474.000031,317.639099 494.628906,324.431702 514.887756,316.029968 
M407.339233,246.154663 
	C401.184418,247.405640 395.066956,248.896210 388.867737,249.862152 
	C371.136841,252.624924 353.416138,255.636673 335.360016,255.098953 
	C332.985382,255.028244 330.686981,255.257782 328.566040,256.346191 
	C319.315338,261.093414 310.956787,267.002319 304.423431,275.220947 
	C302.664459,277.433624 301.029938,279.686676 301.117981,282.795776 
	C301.202545,285.783386 302.155518,287.596069 305.302307,285.966553 
	C308.902710,284.102142 311.362000,285.564789 313.534241,288.191406 
	C316.994110,292.374969 321.401001,294.279236 326.755005,295.168671 
	C331.358826,295.933502 334.934998,298.374817 336.858795,303.518890 
	C338.710846,308.471191 335.533386,312.507477 336.100555,317.152374 
	C336.773254,322.661530 338.471924,324.784546 344.017639,323.653564 
	C351.243622,322.179840 357.474152,324.086395 363.191895,328.323547 
	C367.723358,331.681610 372.235443,335.070801 376.654419,338.574493 
	C381.875031,342.713654 387.444794,345.722321 394.401306,344.913300 
	C400.653992,344.186066 406.714417,345.575378 412.426910,347.619110 
	C421.747253,350.953613 430.976471,354.213257 441.070923,353.480652 
	C452.451843,352.654694 462.518250,348.965942 469.579071,339.469971 
	C474.947083,332.250549 473.996155,323.731445 468.062225,317.070923 
	C458.733704,306.600189 449.906158,295.776855 453.387726,279.528687 
	C433.353149,275.998810 419.401031,265.194122 413.693573,244.825104 
	C411.961823,245.224182 410.055725,245.663437 407.339233,246.154663 
M415.765503,238.579834 
	C425.434082,234.707306 432.220398,227.232895 440.711731,219.907059 
	C436.225555,219.066162 433.888336,221.545334 431.044800,221.213303 
	C428.959656,220.969803 427.749542,222.082260 426.907227,224.037781 
	C425.362091,227.624985 422.889404,231.110367 418.635284,228.834503 
	C414.840881,226.804581 416.930267,223.159134 418.152771,220.017792 
	C419.622131,216.242126 418.376434,215.130035 414.160553,215.755951 
	C409.172821,216.496475 404.606659,215.182968 400.715668,212.018738 
	C399.378113,210.931030 397.726135,209.312958 399.360138,207.363525 
	C401.197998,205.170883 403.531342,203.486542 406.625519,203.781250 
	C409.610474,204.065567 410.735504,206.222839 411.212280,208.863281 
	C411.387634,209.834671 411.350464,210.902588 412.888885,211.514587 
	C417.823334,210.117294 422.761444,207.541656 429.613495,207.341461 
	C423.566803,205.554337 418.876617,204.474808 413.984070,203.746414 
	C407.759583,202.819717 404.119659,201.110794 407.653595,193.899750 
	C408.267975,192.646194 408.928680,191.110458 407.683411,189.622299 
	C405.611359,188.715775 403.435852,189.206696 401.354034,189.580505 
	C388.352722,191.915054 376.906982,188.260544 366.920471,180.134079 
	C354.473694,170.005585 346.027649,157.475891 345.708405,140.747742 
	C345.632263,136.759674 343.758759,135.446152 340.075287,135.965378 
	C336.786713,136.428955 333.482056,136.790588 330.205872,137.327866 
	C319.040833,139.158890 307.630676,136.668701 296.441071,139.693298 
	C291.801666,140.947311 289.840973,142.546310 290.225250,147.322708 
	C290.825348,154.782059 290.828125,162.089386 286.610321,168.929749 
	C283.698242,173.652527 283.069885,178.844772 287.156982,183.682007 
	C288.894592,185.738556 288.470062,187.907761 286.782806,190.029037 
	C284.805267,192.515320 282.830933,194.878342 279.907501,196.375473 
	C277.067291,197.829971 274.619141,199.964157 272.788971,202.535995 
	C270.419373,205.865829 268.026642,210.124939 271.677490,213.377747 
	C276.002380,217.231140 277.691223,222.067383 279.986176,226.971298 
	C284.437408,236.482880 293.156250,241.293442 302.524536,244.751526 
	C311.622925,248.109970 321.139587,248.692749 330.845428,249.280914 
	C350.670288,250.482208 369.931488,247.846313 389.169830,243.857117 
	C397.755585,242.076797 406.363556,240.403717 415.765503,238.579834 
M485.925232,155.703613 
	C489.793335,155.775467 491.529358,158.518402 493.112762,161.839523 
	C495.027100,157.757141 498.541016,155.714005 501.574097,153.174362 
	C502.650970,152.272690 503.822449,151.504532 505.183594,152.265762 
	C506.622162,153.070282 507.419586,154.700348 506.868042,156.103516 
	C504.967804,160.938156 504.159760,166.247559 499.330933,169.695099 
	C490.487854,176.008606 489.738586,180.686859 495.415131,190.076920 
	C495.995361,189.455536 497.076721,188.446823 497.003448,188.354523 
	C493.868469,184.404633 497.655701,183.024597 499.609802,180.836716 
	C506.020660,173.658951 511.786377,166.180237 509.993439,155.584595 
	C509.736298,154.064987 510.415619,152.841583 511.535065,151.599304 
	C514.509338,148.298599 517.097961,150.893372 519.509583,152.093811 
	C521.733032,153.200577 523.769714,155.258789 522.775391,158.116989 
	C521.659973,161.323257 519.560486,163.614014 515.493347,161.906891 
	C512.541748,171.566833 507.898621,179.785294 499.399139,186.566162 
	C507.328949,185.479843 512.677307,180.749634 515.406128,175.815948 
	C518.641663,169.966141 522.855469,165.395248 527.113159,160.639771 
	C529.805725,157.632477 531.910461,154.468506 533.134766,150.531586 
	C535.905518,141.621796 539.094727,132.926147 548.059875,127.985207 
	C552.270508,125.664619 556.175964,122.796936 560.297485,120.305992 
	C564.637085,117.683289 566.524353,114.252182 563.976440,109.451691 
	C561.212341,104.244064 563.342834,99.804695 565.969971,95.490425 
	C567.168945,93.521446 568.979675,91.936127 570.325684,90.043617 
	C575.987610,82.082970 580.168640,73.735115 577.173706,63.493908 
	C576.716919,61.931942 576.633118,60.172180 576.780823,58.540455 
	C577.094666,55.071602 575.388245,52.682671 572.726196,51.075577 
	C567.054321,47.651482 561.263184,44.418224 555.443726,41.248386 
	C552.348755,39.562611 549.191223,39.768917 545.906311,41.209114 
	C538.746460,44.348221 535.929932,51.133484 532.285400,57.156361 
	C528.957947,62.655064 525.013672,67.513489 519.631653,71.010010 
	C518.248901,71.908348 516.516357,74.001465 514.422791,71.586601 
	C512.428894,69.286736 514.012512,67.377769 515.145020,65.743851 
	C517.192627,62.789696 520.694092,61.612671 523.600159,59.700996 
	C527.540955,57.108654 527.558838,54.936253 523.799561,52.148129 
	C521.798523,50.664013 519.670532,49.334019 517.775574,47.727219 
	C514.039612,44.559345 510.220337,42.163383 504.952423,41.963936 
	C501.496216,41.833076 498.530640,39.711662 497.508087,35.704334 
	C496.309723,31.008091 493.145203,28.863075 488.205444,29.408216 
	C481.075348,30.195084 477.461334,33.194935 475.838806,40.288620 
	C475.227234,42.962482 473.899384,44.815678 471.545898,46.023396 
	C467.174316,48.266689 465.969177,51.197571 468.072571,55.514538 
	C469.456696,58.355282 471.203369,61.640179 470.704712,64.304359 
	C469.564117,70.398315 468.280975,76.534576 466.797302,82.532425 
	C463.741394,94.886292 465.427826,106.157494 470.613281,117.515732 
	C474.745514,126.566994 482.078705,134.940643 478.356140,146.205856 
	C478.204498,146.664734 478.677368,147.608490 479.138000,147.945724 
	C481.981720,150.027786 482.090576,153.257370 482.455139,156.313766 
	C483.606628,156.062302 484.414673,155.885834 485.925232,155.703613 
M619.415466,118.907814 
	C605.148560,119.124908 591.860413,122.436676 580.479065,131.502396 
	C567.076294,142.178238 553.945740,153.171494 542.251892,165.754211 
	C537.702698,170.649155 532.995605,175.292572 526.883301,178.283752 
	C525.613342,178.905243 524.090027,179.386993 523.506531,181.044632 
	C521.141541,187.762817 515.398315,189.279480 509.299561,189.743256 
	C506.893555,189.926224 504.710388,190.166321 502.708557,191.522675 
	C497.780243,194.861908 492.728027,197.247040 486.827362,193.714935 
	C486.266693,193.379303 485.535126,193.577240 485.128479,194.282898 
	C484.919312,195.280975 485.587189,195.840851 486.271362,196.287659 
	C494.046143,201.365326 495.407990,208.798172 489.752655,216.063187 
	C488.592163,217.554001 487.827209,218.804443 489.395660,220.380264 
	C491.256317,222.249619 493.076355,222.465714 494.811829,220.295593 
	C495.145447,218.671875 492.386230,218.205780 493.554993,216.300049 
	C494.422089,214.886093 496.638977,214.894699 496.954803,212.983490 
	C492.920410,210.075714 493.000916,209.508041 497.264923,207.250534 
	C498.759735,206.459152 500.440674,206.206009 501.853424,205.527496 
	C504.919037,204.055145 508.934631,204.551498 511.314117,201.592896 
	C505.288757,198.711716 500.101868,203.647797 494.221832,202.576324 
	C492.846588,199.096588 496.017487,198.615021 497.826416,198.114410 
	C502.542358,196.809296 506.991547,195.231522 510.642700,191.804504 
	C511.796234,190.721786 514.055115,190.183716 514.796814,191.131393 
	C517.619385,194.737640 523.865112,194.590744 524.343933,200.636139 
	C527.918823,198.888199 531.105469,197.766464 530.472778,192.964401 
	C530.099854,190.134048 531.681030,188.845245 534.946899,190.041260 
	C540.280396,191.994461 543.553711,196.193192 547.362244,199.981613 
	C552.906494,205.496445 558.680786,210.813690 562.695374,217.564896 
	C563.855347,219.515518 564.797729,219.955688 566.824463,219.991455 
	C571.860962,220.080414 576.431824,217.705322 581.566528,217.813507 
	C586.495850,217.917328 591.006165,220.161209 595.829224,219.897675 
	C603.398865,219.484039 610.761475,221.325027 617.929382,222.804871 
	C632.400757,225.792542 644.670471,220.726532 651.014954,208.236908 
	C653.419189,203.503891 652.746460,201.201508 648.762085,198.663589 
	C646.754944,197.385071 643.864685,196.281830 644.436279,193.234055 
	C645.009155,190.179886 648.223816,191.229736 650.228333,190.367355 
	C650.490479,190.254578 650.639648,189.879440 650.824280,189.647079 
	C650.919800,188.659058 650.315063,188.036179 649.659424,187.553024 
	C646.101562,184.931000 642.161072,183.527344 637.683655,183.231049 
	C634.027832,182.989120 630.315063,182.056274 628.676575,178.207443 
	C627.089233,174.478821 629.965759,172.422073 632.240173,170.229584 
	C633.848145,168.679489 635.565002,166.735626 634.571167,164.559814 
	C631.755554,158.395798 634.971863,152.956177 636.146484,146.947113 
	C631.389404,144.402924 630.033264,140.118118 630.652954,134.896912 
	C630.848083,133.252808 630.693054,131.567429 630.703003,129.900970 
	C630.761047,120.181747 629.905701,119.272064 619.415466,118.907814 
M448.685486,146.403366 
	C450.212402,143.377167 452.266235,141.349640 455.764282,143.551163 
	C460.769653,146.701324 460.506500,153.849442 455.420654,156.789291 
	C454.727753,157.189804 453.993195,157.787262 453.647766,158.478378 
	C450.159515,165.457489 448.606323,175.418839 457.625397,182.958359 
	C454.980621,176.647034 451.952606,171.131500 459.882294,167.954971 
	C455.420288,164.549835 457.111633,161.212585 458.761658,158.144638 
	C459.900696,156.026947 461.965881,154.754974 464.592621,155.195908 
	C470.062439,156.114120 469.117035,160.797577 469.742462,165.359772 
	C471.970581,160.305679 471.978882,155.679840 473.113525,151.403732 
	C475.656921,141.818542 474.699493,133.135574 469.514984,124.822708 
	C465.022400,117.619263 461.818359,109.776344 460.244141,101.555679 
	C458.406311,91.958710 461.621429,82.652390 463.807068,73.367599 
	C464.624786,69.893906 466.411835,66.142082 465.742981,62.937424 
	C464.594604,57.435184 461.299683,52.426857 461.914154,46.640610 
	C458.073364,45.685993 454.497345,47.204575 451.560211,45.013020 
	C446.420044,41.177628 441.134399,38.464119 434.681458,42.043991 
	C434.160828,42.332817 433.365936,42.098904 432.704620,42.167007 
	C427.691223,42.683300 423.286896,40.627716 418.887634,38.759850 
	C408.357269,34.288750 404.038879,36.371212 397.628174,44.868168 
	C392.127594,52.158810 387.853546,60.178520 384.259735,68.534142 
	C381.750366,74.368332 378.950775,80.263565 380.728058,86.934563 
	C390.817200,87.362511 399.735474,89.931145 403.812988,99.714966 
	C406.993103,107.345596 405.790527,115.247841 402.045685,122.720673 
	C400.215149,126.373421 397.351501,129.777298 397.095764,133.913055 
	C396.597168,141.976059 398.193878,149.819901 401.440338,157.235138 
	C405.875458,167.365250 413.499054,173.955627 424.013885,177.562180 
	C427.371063,171.376617 430.719757,165.806503 438.599030,166.179581 
	C438.579590,163.608643 437.626373,161.660629 435.737793,160.017059 
	C433.205902,157.813644 431.718506,154.994873 430.256256,151.905716 
	C428.705078,148.628616 429.801605,144.933578 427.627441,141.938339 
	C425.384003,138.847610 426.385010,131.470978 429.439941,129.453110 
	C431.871460,127.847000 434.507599,127.681862 436.112183,130.913986 
	C437.905518,134.526352 438.951447,138.082550 435.169220,141.199585 
	C434.006042,142.158218 434.068207,143.441177 434.076324,144.832947 
	C434.128021,153.707260 437.942932,158.686600 446.784882,161.225571 
	C449.623199,156.941086 449.623199,156.941086 448.685486,146.403366 
M272.370605,279.161163 
	C270.388336,270.483795 268.963623,261.573151 264.665771,253.672150 
	C259.630310,244.415283 253.207031,236.589523 241.777039,234.817551 
	C235.105652,233.783295 228.219650,233.090103 221.934845,230.836288 
	C210.975067,226.905975 199.809433,226.244034 188.581757,227.473740 
	C176.570679,228.789230 165.757904,234.055557 157.038528,242.234756 
	C151.045609,247.856400 146.633667,255.166595 137.486771,256.927887 
	C139.411972,259.977203 141.140778,262.232361 142.364532,264.734589 
	C148.808151,277.909790 156.237732,290.161499 170.221619,296.796570 
	C171.847275,297.567963 173.265198,298.838715 174.665070,300.014160 
	C182.242722,306.376709 191.676285,307.892517 200.875519,309.505310 
	C207.716934,310.704742 214.958282,309.742706 221.744583,311.113892 
	C241.132935,315.031311 253.764420,303.512054 266.485748,292.285919 
	C270.662323,288.600220 270.066437,287.398438 265.353271,284.513306 
	C252.300201,276.522980 237.667145,272.835968 223.071655,269.164368 
	C215.689972,267.307465 208.532913,264.426636 200.809784,263.958069 
	C199.250015,263.863464 197.762833,263.072693 198.059113,261.120178 
	C198.366348,259.095184 200.005875,259.181366 201.558609,259.348236 
	C204.038544,259.614777 206.521744,259.856201 208.996399,260.165619 
	C231.053909,262.923218 251.286331,271.153473 270.997498,280.917114 
	C272.607605,281.714691 272.628540,280.956848 272.370605,279.161163 
M148.237076,410.072449 
	C148.556015,418.682648 146.556610,426.928925 143.807907,434.819672 
	C148.282166,434.819672 152.270447,435.023804 156.232147,434.785553 
	C177.432968,433.510651 195.124542,425.648987 207.913071,407.901093 
	C214.549088,398.691681 220.105728,388.802094 226.633255,379.577484 
	C231.147186,373.198456 236.021805,367.158661 238.757370,359.741028 
	C242.316681,350.089783 245.995605,340.543060 242.003326,329.947327 
	C240.501984,325.962708 239.002609,326.268738 236.343948,328.523529 
	C210.584183,350.370575 189.418396,375.694275 176.521240,407.308655 
	C175.807281,409.058746 175.417267,411.814850 172.701355,410.877472 
	C169.679749,409.834656 171.040039,407.270691 171.849319,405.371948 
	C181.610138,382.471222 195.116623,362.038483 212.288712,344.001892 
	C218.879791,337.078979 226.010437,330.714813 233.795914,323.620605 
	C228.402893,324.441467 224.220596,324.176575 219.881683,323.691559 
	C201.970062,321.689117 184.901382,324.143372 170.593735,336.255280 
	C156.898865,347.848480 151.087448,363.490265 149.323700,380.806641 
	C148.363358,390.235138 149.694778,399.796509 148.237076,410.072449 
M271.621155,306.259766 
	C258.198608,318.205658 249.890778,332.713257 248.566864,350.974609 
	C247.572540,364.689606 250.208420,377.208038 258.033661,388.786224 
	C265.896820,400.420502 277.142181,408.046570 288.217194,415.942261 
	C291.501709,418.283936 294.013947,421.723328 298.047119,423.350983 
	C298.709991,421.296082 299.366364,419.601440 299.803802,417.852051 
	C303.655121,402.450195 307.032501,386.913666 311.412048,371.664581 
	C315.911041,355.999573 318.273285,340.185699 317.673920,323.933044 
	C317.171692,310.315033 311.382690,299.604919 299.482758,292.661499 
	C294.440094,289.719177 288.907074,288.518951 282.457764,289.673492 
	C284.283325,293.694214 286.448212,296.720428 287.007812,300.018982 
	C288.739502,310.226166 288.428253,320.582703 287.904602,330.891724 
	C287.827515,332.409912 286.613251,333.894592 285.833069,335.345276 
	C285.201355,336.519836 284.490112,337.814972 282.818542,337.387238 
	C281.251068,336.986145 281.176636,335.539978 280.820892,334.245331 
	C278.059326,324.195374 275.992859,314.021362 275.527618,303.554504 
	C273.610779,303.586884 273.077271,305.006866 271.621155,306.259766 
M462.174469,640.687988 
	C460.590118,643.921753 463.948700,644.950562 465.054230,646.942261 
	C467.457733,651.272522 467.269104,656.080200 467.562042,662.021118 
	C475.151855,654.270081 483.296509,648.821106 487.340088,639.424072 
	C489.307037,634.853149 490.902557,630.214600 492.493835,625.519775 
	C496.386566,614.034912 498.506256,602.119751 499.425415,590.205322 
	C500.339966,578.351013 501.407166,566.402832 499.935577,554.371338 
	C498.829163,545.325806 496.564178,541.119324 488.082733,537.951050 
	C484.855255,536.745483 481.489197,537.451599 478.191132,537.221619 
	C475.528259,537.035950 474.150024,538.137329 473.052216,540.773865 
	C469.227295,549.959778 465.248840,559.140625 459.457825,567.295532 
	C453.661865,575.457336 449.437378,584.000732 449.795288,594.345093 
	C449.879944,596.790405 449.258728,599.313232 448.640350,601.717590 
	C447.659027,605.533142 447.304871,608.943237 450.188629,612.375732 
	C451.992859,614.523254 451.723267,617.675903 451.636719,620.541504 
	C451.519745,624.416321 449.674316,627.701782 447.855560,631.284119 
	C454.084442,632.439026 461.966125,630.292358 462.174469,640.687988 
M461.477600,651.212402 
	C460.564362,650.071777 460.116028,648.482849 458.408661,648.053223 
	C455.272095,649.856201 452.090088,651.633850 448.959961,653.498596 
	C445.605408,655.497009 441.792023,656.017761 438.132629,657.067993 
	C429.130554,659.651611 419.710144,656.295471 414.744904,648.459961 
	C402.260284,650.669556 390.844299,656.088379 379.404938,661.326355 
	C366.929474,667.038818 354.423004,672.399048 340.909882,675.434875 
	C333.250916,677.155457 325.426910,676.992920 317.801300,678.991882 
	C308.570282,681.411804 300.666565,684.884277 294.388519,692.717102 
	C279.752289,710.978088 268.540405,731.301819 257.192505,751.580078 
	C255.005661,755.487854 252.089020,759.296814 253.711975,765.010620 
	C263.343964,753.724915 272.517792,742.794617 281.902283,732.048279 
	C287.549744,725.581238 292.419006,718.284912 300.339569,714.104370 
	C328.258942,699.368225 357.503906,688.061951 387.945312,679.721313 
	C392.469971,678.481628 397.530670,677.925110 401.018646,674.083984 
	C409.996552,664.197144 421.655640,661.471619 434.382202,661.423096 
	C438.426086,661.407715 441.355377,662.210571 442.476410,666.886047 
	C443.142181,669.662720 446.205414,671.394653 447.290344,674.299194 
	C447.804901,675.676697 449.253510,675.605164 450.706757,674.854675 
	C458.312714,670.926819 463.604156,660.123718 461.477600,651.212402 
M401.646210,178.933426 
	C384.057648,169.194473 384.969513,156.798660 388.680115,141.614716 
	C390.722321,133.258041 395.039001,125.708427 398.696869,117.939041 
	C401.379639,112.240799 402.065521,106.110626 399.065704,100.328102 
	C395.404419,93.270660 386.928864,89.532806 376.682983,94.919983 
	C361.778809,102.756432 353.272522,115.877052 351.314819,132.547165 
	C350.082397,143.041794 353.274994,153.088654 358.311554,162.266434 
	C368.039429,179.992706 384.368042,186.459549 407.298889,182.139832 
	C406.947296,180.929535 405.688690,181.205933 404.917603,180.695999 
	C404.088959,180.147964 403.155212,179.758789 401.646210,178.933426 
M555.788330,516.623718 
	C575.803528,536.308411 583.908020,561.979614 591.625183,587.898865 
	C593.349731,586.798889 593.025757,584.947083 593.079834,583.392029 
	C593.340088,575.915161 595.275757,568.657410 596.169312,561.264343 
	C596.881348,555.372437 597.446716,549.420349 598.161804,543.509216 
	C598.682434,539.206177 597.799194,535.330872 594.065308,532.411194 
	C590.532715,529.648926 587.207031,526.618042 583.837891,523.651367 
	C557.825500,500.746216 530.847290,479.281189 498.586334,465.506409 
	C495.937714,464.375519 494.489777,464.187622 492.855438,466.797638 
	C490.960938,469.823120 487.784790,470.402893 484.463776,469.934784 
	C480.145935,469.326172 476.063995,467.920013 472.145874,465.998383 
	C466.818024,463.385284 461.458954,460.835785 456.132599,458.268280 
	C454.392853,461.586517 454.356903,461.595154 454.964294,464.126892 
	C457.094574,473.006592 463.748169,478.019257 470.961273,482.385010 
	C478.611877,487.015686 487.537872,488.896667 495.303101,493.379822 
	C499.126038,495.586945 500.098114,494.754517 499.847260,490.198456 
	C499.526031,484.365234 501.038391,482.546204 506.904755,481.450989 
	C513.284119,480.259979 518.542175,482.674713 522.633789,487.134766 
	C527.656250,492.609528 533.536499,497.495758 536.414490,504.687042 
	C536.944702,506.011902 538.005371,506.897614 539.317688,507.248871 
	C545.394775,508.875397 550.270020,512.611389 555.788330,516.623718 
M480.068695,414.560638 
	C482.720490,428.208527 487.751678,441.012756 493.766602,453.482422 
	C495.793945,457.685272 498.524902,460.574371 503.260040,462.133789 
	C508.365051,463.815002 513.060852,466.742950 517.927612,469.142456 
	C531.768555,475.966766 543.878662,485.486786 557.376099,494.810333 
	C552.149414,486.105896 547.640747,478.212433 542.764404,470.552979 
	C531.238464,452.448975 521.652771,433.379791 513.817017,413.419647 
	C513.060242,411.491943 511.604401,410.857391 509.887421,410.013916 
	C501.389771,405.839294 493.599701,400.725159 490.227722,391.240631 
	C488.863586,387.403595 488.162384,383.330841 487.081665,379.057648 
	C483.212219,381.350525 481.435974,384.801605 480.115936,388.601044 
	C477.215210,396.950439 478.114380,405.331635 480.068695,414.560638 
M385.043671,713.425354 
	C386.384644,715.244385 387.725647,717.063416 389.031433,718.834656 
	C406.205994,706.622742 423.250031,694.518188 440.275635,682.387695 
	C444.704010,679.232483 444.688721,678.238525 440.044281,673.110535 
	C434.142883,679.328247 426.491272,682.365051 418.374573,684.380249 
	C413.324127,685.634155 407.915192,686.358948 403.190430,684.335510 
	C399.970032,682.956299 397.194916,682.619385 394.168365,683.497009 
	C382.262146,686.949768 370.250214,690.124512 358.555756,694.200623 
	C341.921387,699.998657 325.797943,707.137024 309.869629,714.667175 
	C304.769043,717.078430 299.662415,719.546692 295.877533,724.039612 
	C288.270111,733.070129 280.556030,742.010803 272.893158,750.994690 
	C272.137695,751.880371 271.408112,752.790649 270.709869,753.721985 
	C270.022003,754.639465 268.948761,755.405518 268.998505,757.112427 
	C288.736481,743.130554 308.317352,729.598328 330.461823,720.820862 
	C342.443054,716.071899 354.335663,711.709900 364.753662,703.831848 
	C368.528839,700.977112 373.463470,699.617798 378.316254,699.106262 
	C384.708710,698.432495 389.036774,703.549561 385.526459,708.653198 
	C384.699554,709.855408 383.939972,711.253174 385.043671,713.425354 
M533.784912,361.225861 
	C531.262878,360.731384 529.197754,359.278473 527.097473,357.945801 
	C515.778137,350.763428 505.741241,342.040131 497.041840,331.884186 
	C492.404907,326.470856 487.128754,323.846313 479.655121,325.529572 
	C478.390991,342.799316 468.475403,352.933411 451.626068,357.263123 
	C454.028778,362.597321 456.405182,367.446136 461.533356,370.266846 
	C462.518799,370.808868 463.506866,371.957977 464.694916,371.158722 
	C471.431976,366.626495 479.350433,366.301636 486.929382,364.725006 
	C497.869141,362.449280 507.761963,364.326874 516.113770,372.063904 
	C518.900146,374.645203 521.862976,376.272522 525.713867,376.835388 
	C531.613098,377.697571 536.809875,380.158875 540.381653,385.300842 
	C541.195618,386.472656 541.907288,387.886932 543.499939,388.235870 
	C547.379211,385.534576 549.545654,383.021118 552.237244,378.126862 
	C555.439758,372.303833 553.685059,367.031860 547.730408,364.058319 
	C543.566833,361.979156 538.969604,362.277710 533.784912,361.225861 
M606.818665,257.601776 
	C609.057922,259.003632 611.359924,260.315643 613.522522,261.827179 
	C617.349792,264.502167 621.069336,264.384949 625.124268,262.190277 
	C628.565857,260.327484 631.245056,257.654541 634.047913,255.067474 
	C637.942688,251.472549 641.682922,247.783936 647.186646,246.470596 
	C650.558105,245.666046 652.031067,243.147919 652.069153,239.391022 
	C652.132568,233.145340 649.792175,227.949814 646.335022,222.563187 
	C640.936218,226.005646 635.492493,228.583664 629.265686,229.307434 
	C621.179810,230.247345 613.357361,228.121033 605.664185,226.727081 
	C592.450806,224.332932 579.381226,224.091080 566.145935,225.298416 
	C564.683777,225.431808 563.615173,225.908554 563.056396,227.347839 
	C561.181885,232.176361 558.670715,236.848358 559.091553,242.608078 
	C567.718811,243.024551 575.745972,244.983383 583.619324,247.242035 
	C591.526489,249.510406 599.164856,252.761398 606.818665,257.601776 
M432.246155,248.196091 
	C428.742371,248.681656 425.017242,247.080994 421.711609,249.016998 
	C421.422211,251.125763 422.211609,252.689377 423.360504,253.834335 
	C428.421661,258.878204 433.086761,264.553894 438.890717,268.557922 
	C445.957092,273.432922 454.611816,274.870758 462.782867,271.783356 
	C474.276276,267.440613 485.367035,262.064056 494.641510,253.620071 
	C498.971069,249.678207 502.462494,245.468536 501.962433,239.132141 
	C501.798798,237.058884 501.094116,235.479858 498.778534,235.449051 
	C485.847473,235.277039 472.424805,232.934555 460.579529,239.757767 
	C451.906372,244.753769 442.443512,245.875732 432.246155,248.196091 
M284.436859,888.670410 
	C284.586304,890.675476 286.331604,892.035278 286.331177,894.229492 
	C286.329254,904.084290 293.268799,911.072021 296.915192,919.571899 
	C298.560577,875.562134 304.730072,832.401123 316.228302,789.708191 
	C312.553986,791.241333 309.340057,792.512024 306.184601,793.914246 
	C300.297852,796.530151 296.481171,800.712097 294.141846,806.992065 
	C291.545044,813.963196 290.706207,821.540405 286.595093,828.035156 
	C285.194397,830.247986 284.426941,833.247864 285.745941,836.193054 
	C287.588165,840.306702 288.514740,844.708679 289.242554,849.129883 
	C291.444977,862.509094 291.320984,875.624878 284.436859,888.670410 
M481.261353,516.549194 
	C479.028748,520.877014 480.554413,522.658325 485.186646,523.560852 
	C495.928925,525.653687 502.629456,531.970947 505.432983,542.917358 
	C507.596008,551.362976 507.342224,559.825562 506.727875,568.187012 
	C505.527863,584.520203 504.618042,600.918579 501.509674,617.109009 
	C506.059357,607.621277 510.574860,598.133545 517.915771,590.497925 
	C520.891357,587.402832 521.309998,584.085388 520.338867,580.435303 
	C517.796509,570.879272 516.872864,561.002686 517.028992,551.318604 
	C517.174194,542.308350 515.938843,535.108154 507.644958,530.320374 
	C505.965118,529.350647 504.627197,527.705688 503.300659,526.220947 
	C496.725525,518.861816 490.910278,511.219482 494.976013,500.386871 
	C492.137024,498.042023 489.245605,496.347198 485.237427,496.116608 
	C483.972687,502.795746 482.744781,509.280212 481.261353,516.549194 
M520.098389,241.253174 
	C522.044617,244.324539 523.881104,247.472733 525.963135,250.449112 
	C529.020874,254.820450 530.978455,254.998962 534.569519,251.020615 
	C538.606079,246.548706 543.174866,243.229645 549.384216,242.827728 
	C551.467163,242.692902 552.134888,241.078842 552.864075,239.652985 
	C560.565918,224.592468 559.714600,219.258774 547.805786,207.284866 
	C543.619629,203.075836 541.341553,203.118332 537.841309,207.966980 
	C532.304199,215.637177 526.988586,223.466965 521.543213,231.203857 
	C519.519714,234.078903 518.665405,237.131958 520.098389,241.253174 
M369.781616,654.329651 
	C361.331329,659.838745 352.379944,664.478149 342.798248,669.312073 
	C345.421539,669.855774 347.111389,669.690796 348.880585,668.891052 
	C358.564423,664.513611 368.288086,660.223816 378.011780,655.934998 
	C388.323395,651.386780 398.585754,646.759094 409.479980,643.630676 
	C412.852844,642.662109 416.729858,643.954163 419.574585,641.585449 
	C424.960297,637.100830 431.219757,634.705017 437.819946,632.753845 
	C443.566010,631.055176 446.877167,618.820923 443.163544,613.840698 
	C442.844330,613.898315 442.488312,613.885742 442.214294,614.029419 
	C441.777954,614.258301 441.353119,614.546265 440.997681,614.886780 
	C431.631012,623.859863 420.689240,629.158081 407.516052,629.210876 
	C405.348389,629.219543 403.765411,630.335876 402.183136,631.594299 
	C392.027924,639.671143 381.679626,647.476257 369.781616,654.329651 
M532.082703,581.188904 
	C528.807678,570.737427 526.917175,560.048035 526.903809,549.085876 
	C526.900757,546.608337 526.986206,544.522644 523.624084,544.020813 
	C523.475891,545.021973 523.218933,545.820801 523.263367,546.602600 
	C523.732910,554.860107 523.048523,563.067322 524.807861,571.403259 
	C526.733887,580.528809 527.744995,589.236572 519.459595,597.948547 
	C507.665405,610.349854 503.385834,628.021851 493.504303,642.152466 
	C497.418549,639.429626 501.390167,636.992065 505.838013,635.511353 
	C511.428497,633.650269 514.510132,629.349792 516.400940,624.258301 
	C520.808350,612.390259 526.063110,601.024536 534.263794,591.242981 
	C535.652771,589.586182 535.846130,588.132019 534.681335,586.299683 
	C533.799255,584.911926 533.192505,583.349182 532.082703,581.188904 
M240.423538,791.887634 
	C229.092728,805.166748 218.269257,818.841125 208.501831,833.320068 
	C203.168091,841.226746 201.518784,849.568481 206.377655,859.172607 
	C221.848190,831.926331 237.049698,805.153809 252.251221,778.381348 
	C252.016266,778.220947 251.781326,778.060486 251.546387,777.900085 
	C247.991180,782.382019 244.435974,786.863953 240.423538,791.887634 
M537.829102,317.154633 
	C527.743164,319.326080 517.657227,321.497559 506.156036,323.973724 
	C518.123291,327.593781 528.795593,329.368469 539.664612,328.488190 
	C546.958618,327.897400 554.108582,326.162354 557.378784,317.777283 
	C550.952271,315.916138 544.818665,317.120850 537.829102,317.154633 
M452.014893,232.548630 
	C448.103607,236.532852 442.619080,237.790833 438.108154,240.821198 
	C447.927338,239.715729 455.514648,232.679810 465.638092,231.234787 
	C463.268463,227.958267 462.792877,225.575531 466.358124,224.301895 
	C468.741547,223.450424 471.233307,222.902283 473.676575,222.218399 
	C466.977539,224.553391 467.170776,215.181870 462.201202,214.657455 
	C461.521301,216.865067 462.959473,217.781464 463.091553,219.088974 
	C463.295624,221.108597 463.506622,223.123138 461.487030,224.472153 
	C459.608124,225.727203 458.080963,224.833878 456.472321,223.771255 
	C452.548004,221.178894 449.530670,218.052048 449.722351,212.945374 
	C449.834106,209.968323 448.206268,208.827423 445.518463,208.484406 
	C441.139191,207.925476 440.708618,208.346497 439.168579,215.581421 
	C439.912598,215.041901 440.564362,214.777100 440.895050,214.292999 
	C442.230438,212.338150 442.805969,209.020172 446.119049,210.154373 
	C449.231079,211.219757 448.562531,214.496780 448.902496,217.046692 
	C449.011810,217.866547 449.010864,218.708969 448.980743,219.538193 
	C448.855194,222.999176 447.935211,225.221863 443.719391,225.975754 
	C439.162109,226.790710 435.848389,230.261398 432.724823,234.534439 
	C439.634369,235.172150 444.685181,232.851486 448.835663,228.425003 
	C450.414520,226.741150 451.250946,222.791321 454.119843,224.793335 
	C457.021912,226.818481 454.057190,229.414719 452.745331,231.560715 
	C452.658997,231.701996 452.547180,231.827713 452.014893,232.548630 
M569.039673,496.372406 
	C563.915894,484.466614 557.585632,473.196075 550.615906,462.304565 
	C547.304382,457.129608 543.911987,451.733490 536.594727,449.657471 
	C538.082581,452.331848 539.212097,454.335938 540.317505,456.353210 
	C548.611084,471.488342 558.737549,485.566956 566.127502,501.231018 
	C567.249329,503.609009 569.558350,505.024872 572.925659,506.425262 
	C571.557251,502.756287 570.488892,499.891846 569.039673,496.372406 
M473.702728,215.548111 
	C476.737915,214.742081 479.761566,213.888580 482.812439,213.147095 
	C484.771362,212.671021 487.301880,212.427505 487.207489,209.958755 
	C487.101379,207.184418 488.189697,203.613647 484.737488,201.946365 
	C482.186127,200.714172 479.354065,198.292709 476.536835,200.546158 
	C474.360474,202.286972 471.995605,203.685425 469.197235,205.298447 
	C472.434692,208.175522 469.864441,212.673599 473.702728,215.548111 
M465.053009,190.811356 
	C464.377930,187.733002 466.022247,183.929016 462.335541,181.445816 
	C461.510590,184.727615 464.473267,195.478134 466.498749,196.586777 
	C468.657715,197.768509 470.960266,197.559189 472.053253,195.187851 
	C473.704681,191.604858 476.404327,188.655075 477.473297,184.668839 
	C478.770874,179.829834 479.127197,179.925385 474.400848,177.886322 
	C472.631073,183.760010 467.524811,188.404083 468.857391,195.512894 
	C466.253510,194.437805 466.063171,192.792084 465.053009,190.811356 
M250.603455,323.067749 
	C254.081253,316.687897 258.589722,310.994812 262.693970,304.968506 
	C259.240356,307.250763 256.056610,309.795746 252.808014,312.255066 
	C249.539658,314.729340 245.930542,316.808746 243.494919,320.232697 
	C245.030289,322.820099 246.435669,325.188446 248.041962,327.895386 
	C248.891739,326.263672 249.567902,324.965302 250.603455,323.067749 
M398.677032,163.668503 
	C395.971832,159.123352 394.095978,154.229782 392.696106,148.235748 
	C390.984772,163.499191 396.573914,173.199203 407.146240,173.906036 
	C404.301605,170.632614 401.175690,167.870300 398.677032,163.668503 
M444.270294,191.205795 
	C441.183441,186.556564 439.374756,180.526657 431.974182,179.280579 
	C432.114594,181.958069 431.625122,184.213440 433.273468,185.221100 
	C439.031677,188.741165 442.170044,194.845352 447.915192,198.696472 
	C446.843719,196.392822 445.772217,194.089172 444.270294,191.205795 
M474.258636,168.416473 
	C475.679596,169.120605 474.625397,171.405746 476.395203,171.910477 
	C477.594360,170.893326 478.611084,169.714447 479.888153,169.002594 
	C485.384399,165.938904 485.412231,165.988815 481.057434,161.136093 
	C474.080292,163.727722 474.080292,163.727722 474.258636,168.416473 
M493.211884,169.232498 
	C493.708435,168.340485 495.497620,167.897827 494.376678,166.446671 
	C493.275177,165.020676 492.388153,166.208023 491.481781,166.885635 
	C485.123688,171.638947 483.536102,178.685272 481.452820,186.321823 
	C486.783661,181.135666 488.315002,174.470947 493.211884,169.232498 
M423.156158,198.137711 
	C420.908783,198.256165 418.661438,198.374634 416.414062,198.493088 
	C417.692657,199.169708 419.031647,199.095810 420.242645,199.454224 
	C421.642426,199.868530 422.899231,200.740768 424.271027,201.279282 
	C428.877167,203.087387 432.119751,201.436996 433.504425,196.594589 
	C430.122101,195.662170 426.967834,196.193451 423.156158,198.137711 
M495.276337,533.627441 
	C487.907593,528.620789 480.246521,527.611938 477.212555,531.750793 
	C483.690613,531.389526 489.550629,532.421204 495.085205,535.403137 
	C497.119873,536.499390 495.902588,534.742859 495.276337,533.627441 
M437.053894,598.320618 
	C436.402496,601.737366 439.083588,600.401855 440.501373,600.625977 
	C442.143738,600.885559 443.417908,600.256958 443.581970,598.334290 
	C443.806122,595.707520 444.030914,593.080688 444.325684,589.632141 
	C441.620819,592.805542 439.511230,595.280457 437.053894,598.320618 
M486.719391,228.833694 
	C488.125427,228.712494 489.707886,229.394348 491.190826,227.591324 
	C487.420563,225.435211 484.445709,222.508698 482.251648,218.956726 
	C479.507751,219.882645 478.924896,222.022293 480.647552,223.154968 
	C482.960236,224.675644 483.740723,227.365997 486.719391,228.833694 
M451.882629,186.999512 
	C455.659607,193.481171 455.659607,193.481171 459.134613,191.962479 
	C456.672333,189.322067 454.295105,186.772903 450.987091,183.225616 
	C451.343903,185.272583 451.448639,185.873398 451.882629,186.999512 
M426.353790,215.883881 
	C427.945221,216.619675 429.465088,216.870285 430.862976,215.149292 
	C428.857483,211.230331 425.610809,212.339233 421.923340,212.754349 
	C423.544739,213.904465 424.678467,214.708664 426.353790,215.883881 
M435.534576,192.426041 
	C435.291199,189.806885 432.767090,189.443787 431.183228,188.250168 
	C429.962982,187.330582 428.523712,188.128937 427.969330,189.481094 
	C427.379700,190.919250 428.471191,191.584869 429.724030,191.827271 
	C431.489166,192.168747 433.271515,192.421234 435.534576,192.426041 
M420.748138,186.110123 
	C418.198395,187.219086 415.687408,188.360977 416.097961,192.034821 
	C416.766632,189.155975 422.742340,191.531006 420.748138,186.110123 
M513.124573,207.654282 
	C513.256104,207.381516 513.413818,207.116623 513.499695,206.830154 
	C513.519836,206.763062 513.308899,206.547974 513.183655,206.527542 
	C510.138458,206.030640 508.339233,208.666962 505.738617,209.329742 
	C508.310242,209.984604 510.638245,209.727371 513.124573,207.654282 
M320.995453,347.509857 
	C320.442383,350.765686 319.889282,354.021545 319.336212,357.277374 
	C321.404358,353.925171 322.108398,350.351471 321.870239,346.617615 
	C321.837738,346.108032 321.528320,346.075806 321.288574,346.514893 
	C321.211853,346.655426 321.185425,346.823364 320.995453,347.509857 
z"/>
<path fill="#000000" opacity="1.000000" stroke="none" 
	d="
M359.244995,550.897949 
	C354.471497,568.648804 341.967712,577.937805 325.772766,583.169128 
	C303.062103,590.505127 279.439026,591.230530 256.242188,588.690979 
	C232.790970,586.123596 213.132919,575.411438 204.288528,551.193848 
	C197.990433,545.678223 202.896362,541.579651 206.230408,537.581421 
	C219.418213,521.766724 233.838577,507.388855 252.782730,498.358276 
	C260.700867,494.583801 268.723022,494.867828 276.898895,497.100342 
	C278.352325,497.497253 279.832825,497.952942 281.298035,497.307312 
	C295.177887,491.191345 307.265961,496.635315 319.104004,503.253723 
	C330.175018,509.443268 340.041931,517.418152 350.374969,524.701660 
	C355.088318,528.024048 360.124664,530.720093 363.515808,535.858643 
	C365.837006,539.375793 365.723053,541.622681 362.472046,543.706421 
	C359.859436,545.380981 359.090118,547.639404 359.244995,550.897949 
M240.164200,545.177734 
	C238.478561,544.839905 237.140533,543.052246 235.059052,544.336365 
	C227.363617,549.084167 219.206741,552.335815 209.278687,550.759399 
	C217.705292,569.075012 231.649658,579.412720 250.052734,582.348572 
	C275.239929,586.366699 300.498749,585.392456 325.118042,577.845032 
	C337.527954,574.040527 347.555664,567.037964 352.730042,554.495361 
	C353.536133,552.541443 354.641876,550.601074 353.265472,548.143921 
	C346.025909,548.142273 338.622406,548.663818 331.782959,545.424683 
	C326.555786,542.949158 321.644196,542.926208 315.984070,544.880615 
	C312.042480,546.241577 307.893066,547.728394 303.525543,548.179321 
	C293.729004,549.190552 283.927979,549.462708 274.102142,549.178955 
	C262.940338,548.856689 251.984390,546.721069 240.164200,545.177734 
M346.518158,527.999573 
	C343.532898,525.890137 340.620544,523.667297 337.548889,521.692261 
	C327.811676,515.431274 318.699402,508.126038 307.995941,503.466400 
	C301.573334,500.670410 295.256317,498.707794 287.892578,501.554504 
	C283.782379,503.143433 278.864838,504.652649 274.012726,502.119110 
	C267.112366,498.516174 260.153412,500.691833 253.812683,503.518066 
	C234.731094,512.023193 220.929581,526.849609 208.302704,542.925049 
	C208.180786,543.080261 208.423676,543.522034 208.596802,544.256592 
	C213.863449,545.121094 219.381943,546.162048 224.522308,543.714905 
	C231.265808,540.504456 237.892136,536.960815 244.234741,533.022400 
	C249.477554,529.766846 254.820297,528.722168 260.861847,529.348511 
	C272.774506,530.583435 284.681458,531.349854 296.717804,530.373596 
	C303.247986,529.843933 310.058472,530.176331 316.198303,533.323059 
	C329.047516,539.908325 342.849426,540.955017 356.925751,540.432129 
	C357.313416,540.417786 357.681519,539.876221 358.430206,539.289368 
	C355.596436,534.600647 351.339142,531.511047 346.518158,527.999573 
M250.880722,541.630005 
	C251.710251,541.688965 252.555939,541.663696 253.366943,541.819214 
	C270.488068,545.102173 287.665588,545.170837 304.874939,542.669495 
	C308.050446,542.207947 311.009308,541.014038 314.612091,538.950195 
	C305.751617,535.457520 297.566071,534.234009 289.113647,536.177307 
	C284.973907,537.129028 280.829468,537.618225 276.776611,536.605652 
	C270.860413,535.127441 264.856689,534.860046 258.941803,535.464844 
	C253.894028,535.981018 248.689407,536.880676 243.395767,540.144531 
	C246.240219,540.735901 248.144684,541.131836 250.880722,541.630005 
z"/>
</svg>