<svg version="1.1" id="Layer_1" xmlns="http://www.w3.org/2000/svg" xmlns:xlink="http://www.w3.org/1999/xlink" x="0px" y="0px"
	 width="100%" viewBox="0 0 768 576" enable-background="new 0 0 768 576" xml:space="preserve">
<path fill="#000000" opacity="1.000000" stroke="none" 
	d="
M598.655640,349.050171 
	C604.137207,352.163025 606.347412,356.740479 606.347351,362.505524 
	C606.346619,406.337524 606.777283,450.176117 606.126221,493.998596 
	C605.822876,514.413452 596.619568,530.491577 577.339600,539.514526 
	C571.647156,542.178528 565.515442,542.941833 559.312927,542.942688 
	C402.817200,542.963318 246.321472,542.984558 89.825768,542.927856 
	C64.089508,542.918518 44.202190,522.909302 42.804489,496.027313 
	C42.718010,494.364044 42.709080,492.695343 42.709034,491.029175 
	C42.705551,363.865967 42.706627,236.702789 42.707256,109.539597 
	C42.707336,93.620209 47.767982,79.760452 59.620720,68.805740 
	C67.262978,61.742496 76.427742,57.899418 86.830032,57.891598 
	C194.660370,57.810558 302.490753,57.824757 410.321136,57.836506 
	C418.356598,57.837383 423.936127,61.542656 425.890015,67.922729 
	C427.810547,74.193871 425.736725,80.391434 420.463837,84.384308 
	C417.043457,86.974380 413.112183,87.153290 409.056885,87.150986 
	C351.558472,87.118347 294.060028,87.119164 236.561615,87.112434 
	C188.229599,87.106781 139.897583,87.097794 91.565567,87.099609 
	C80.517906,87.100029 73.691574,92.836372 72.448250,103.882065 
	C71.780487,109.814384 72.111176,115.859879 72.008209,121.854599 
	C71.968597,124.160835 72.746857,125.782127 75.421524,125.699699 
	C78.348457,125.609497 79.084145,127.408005 79.067398,129.893509 
	C79.020241,136.892975 78.966827,143.892548 78.963203,150.892090 
	C78.961876,153.448517 78.026825,155.054779 75.242615,155.126343 
	C72.595451,155.194366 71.938690,156.908508 71.944672,159.168533 
	C71.952171,162.001633 71.933617,164.834808 71.933716,167.667953 
	C71.936798,257.665497 71.935051,347.663025 71.964752,437.660553 
	C71.965996,441.425659 70.622063,446.110260 77.175423,446.043854 
	C78.711411,446.028290 78.996544,447.849274 78.999931,449.197296 
	C79.018356,456.529633 78.962311,463.862183 78.954330,471.194641 
	C78.951706,473.603241 77.852707,474.963226 75.395012,475.059418 
	C72.454048,475.174530 71.910309,477.095703 71.961029,479.508575 
	C72.076546,485.003815 71.901360,490.522369 72.350273,495.989868 
	C73.284889,507.372833 80.361824,513.695129 91.727135,513.695496 
	C246.556244,513.700806 401.385376,513.704041 556.214478,513.704102 
	C569.491638,513.704102 576.441772,506.976929 576.862427,493.614410 
	C577.014404,488.785980 576.943298,483.949677 576.924805,479.117188 
	C576.917480,477.212250 576.719421,475.215576 574.191467,475.156342 
	C570.765503,475.076080 570.167419,473.153442 570.264465,470.210358 
	C570.489319,463.388367 570.479797,456.558838 570.600098,449.733002 
	C570.629272,448.075623 570.528809,445.991913 572.821289,445.938782 
	C577.045837,445.840851 576.952148,443.094391 576.947998,440.108368 
	C576.913269,415.109131 576.938538,390.109741 576.892456,365.110504 
	C576.884277,360.672424 577.465881,356.448792 580.298157,352.850586 
	C584.630432,347.346771 590.709351,346.028656 598.655640,349.050171 
z"/>
<path fill="#000000" opacity="1.000000" stroke="none" 
	d="
M270.650635,405.640015 
	C261.880035,400.825653 258.005066,393.436127 257.994812,384.086700 
	C257.932068,326.929932 257.884949,269.772858 258.036835,212.616425 
	C258.091095,192.202393 276.533691,181.445236 294.397339,191.605804 
	C332.047180,213.020508 369.460724,234.850632 406.972504,256.508148 
	C418.659058,263.255432 430.405060,269.901947 442.025635,276.760986 
	C460.236572,287.510040 459.922729,308.978302 441.516846,319.606689 
	C393.476654,347.347382 345.416779,375.054413 297.453552,402.927612 
	C288.902008,407.897217 280.427704,410.485992 270.650635,405.640015 
M407.434601,284.131622 
	C365.843811,260.102325 324.253052,236.073044 281.819397,211.556793 
	C281.819397,269.626984 281.819397,326.420807 281.819397,384.436310 
	C332.115204,355.408295 381.525543,326.891388 431.542603,298.024292 
	C423.063782,293.132080 415.569824,288.808105 407.434601,284.131622 
z"/>
<path fill="#000000" opacity="1.000000" stroke="none" 
	d="
M457.531342,214.533340 
	C448.033386,211.975845 438.917450,209.536865 429.567322,207.035233 
	C430.891815,204.975708 432.657379,205.071121 434.180084,204.717194 
	C444.403595,202.340881 454.446228,199.345718 464.503326,196.344727 
	C494.112885,187.509399 511.379242,167.171463 519.521179,138.164444 
	C521.904419,129.673630 523.992676,121.100342 526.301331,112.587975 
	C526.717529,111.053345 526.492004,109.196182 528.388184,107.887543 
	C529.835632,109.367851 529.884888,111.365990 530.307434,113.169914 
	C533.309631,125.986252 536.842651,138.624939 541.608948,150.930145 
	C549.686279,171.783234 564.321777,185.762207 585.063354,193.746033 
	C597.074036,198.369156 609.456177,201.631470 621.932068,204.627945 
	C623.650574,205.040710 625.605591,204.872787 627.139771,206.714798 
	C621.976501,209.095139 616.473389,209.656784 611.244385,211.112717 
	C603.219299,213.347137 595.256653,215.730957 587.388123,218.488083 
	C563.969482,226.693893 548.257996,242.430267 540.087341,265.868286 
	C536.188477,277.052551 532.989746,288.416412 530.272095,299.930450 
	C529.860046,301.676056 529.365662,303.402191 528.916077,305.111877 
	C526.686218,304.779663 527.030823,303.177917 526.747131,301.996979 
	C523.635315,289.042053 520.286377,276.177734 515.620667,263.651459 
	C507.121368,240.832764 491.096191,226.050293 468.324341,218.186600 
	C464.860229,216.990341 461.384003,215.829239 457.531342,214.533340 
z"/>
<path fill="#000000" opacity="1.000000" stroke="none" 
	d="
M627.280640,159.801865 
	C624.930725,149.392868 622.255249,139.446335 618.276611,129.880402 
	C612.643921,116.337265 602.796265,107.283691 589.169922,102.102669 
	C580.592407,98.841301 571.768433,96.455452 562.871887,94.293297 
	C561.789551,94.030266 560.453979,94.229797 560.007568,92.187187 
	C563.135681,91.385872 566.265930,90.545303 569.415527,89.785286 
	C575.896362,88.221428 582.215454,86.165131 588.469727,83.859772 
	C604.018555,78.128471 614.299133,67.365166 619.797241,51.787056 
	C622.404175,44.400814 624.537903,36.893147 626.497498,29.323296 
	C626.901917,27.761053 626.834229,25.965279 628.861694,24.692642 
	C630.621948,31.044397 632.506531,37.202679 634.028076,43.449398 
	C639.853882,67.366898 655.042175,81.695953 678.691895,87.535690 
	C684.614136,88.998055 690.487488,90.658592 696.380798,92.227386 
	C695.888184,94.396355 694.309021,94.081688 693.103516,94.393326 
	C682.955505,97.016609 672.795837,99.540756 663.194031,103.942589 
	C651.204773,109.438904 643.099731,118.448196 638.158691,130.519073 
	C634.617737,139.169617 632.009644,148.099518 630.034607,157.226120 
	C629.480225,159.787628 629.436707,159.778198 627.280640,159.801865 
z"/>
<path fill="#000000" opacity="1.000000" stroke="none" 
	d="
M674.676025,216.398712 
	C676.442078,221.851089 677.859131,227.001724 679.755615,231.969315 
	C685.194214,246.215256 695.315613,255.710739 709.621887,260.890137 
	C717.151001,263.615936 724.843323,265.743195 732.612305,267.628998 
	C733.538818,267.853882 734.664978,267.681427 735.334717,269.563477 
	C719.805847,274.250336 703.089539,276.495270 690.887329,288.635040 
	C678.547974,300.911346 676.092407,317.616180 671.060303,333.521942 
	C665.679932,317.958435 663.467896,301.024414 651.188110,288.814728 
	C638.933289,276.629852 622.211304,274.184296 606.459595,269.072052 
	C622.053833,263.906158 638.775818,261.516235 650.958069,249.401047 
	C663.263794,237.163025 665.859009,220.461517 670.469360,203.777298 
	C673.392090,207.980682 673.189941,212.274078 674.676025,216.398712 
z"/>
<path fill="#000000" opacity="1.000000" stroke="none" 
	d="
M401.043671,445.721558 
	C411.534271,445.719025 421.537628,445.898010 431.529175,445.632172 
	C435.983887,445.513641 437.399963,447.130005 437.201843,451.446777 
	C436.911774,457.766083 437.032776,464.109589 437.144165,470.439880 
	C437.204163,473.848907 435.808075,475.179626 432.381439,475.144562 
	C420.217743,475.019836 408.051544,475.001099 395.887726,475.107269 
	C392.184143,475.139587 390.842651,473.575073 390.930450,470.006561 
	C391.073853,464.177551 390.981262,458.342590 390.981293,452.510162 
	C390.981354,445.776215 390.978088,445.775452 397.552032,445.727448 
	C398.551880,445.720154 399.551758,445.723511 401.043671,445.721558 
z"/>
<path fill="#000000" opacity="1.000000" stroke="none" 
	d="
M211.932251,459.007690 
	C211.930618,445.739807 211.930618,445.736694 224.461731,445.731262 
	C233.937119,445.727173 243.413956,445.828094 252.887115,445.683472 
	C256.373413,445.630280 258.174713,446.651520 258.095337,450.439850 
	C257.956085,457.086212 257.979370,463.738892 258.087341,470.386414 
	C258.143036,473.814575 256.625122,475.119781 253.279724,475.096924 
	C241.145218,475.013947 229.009430,475.002350 216.875015,475.089386 
	C213.230316,475.115509 211.769348,473.558105 211.921951,469.975250 
	C212.070343,466.490936 211.941132,462.994812 211.932251,459.007690 
z"/>
<path fill="#000000" opacity="1.000000" stroke="none" 
	d="
M526.207153,447.466736 
	C526.333435,455.358276 526.252441,462.838684 526.420471,470.313446 
	C526.496216,473.682922 525.283997,475.160187 521.829651,475.132202 
	C509.695831,475.033966 497.560577,475.020203 485.426636,475.096985 
	C482.092560,475.118073 480.589020,473.933563 480.670624,470.434784 
	C480.829498,463.623260 480.743011,456.805206 480.704620,449.990173 
	C480.690826,447.542297 481.199249,445.739960 484.203461,445.748657 
	C497.334625,445.786774 510.465973,445.763611 523.597229,445.786682 
	C524.598145,445.788422 525.597717,445.978882 526.207153,447.466736 
z"/>
<path fill="#000000" opacity="1.000000" stroke="none" 
	d="
M157.965500,445.738281 
	C169.557602,445.820038 168.231750,444.598724 168.320419,455.610626 
	C168.361954,460.767731 168.259079,465.926697 168.353470,471.082428 
	C168.403595,473.821320 167.223694,475.064636 164.519623,475.059357 
	C151.875900,475.034729 139.232117,475.030518 126.588364,475.028900 
	C123.958038,475.028564 122.636780,473.907104 122.667084,471.113525 
	C122.744698,463.960602 122.768852,456.804810 122.648125,449.652985 
	C122.586922,446.027069 124.762016,445.715851 127.525223,445.727081 
	C137.507309,445.767639 147.489670,445.740570 157.965500,445.738281 
z"/>
<path fill="#000000" opacity="1.000000" stroke="none" 
	d="
M306.177063,445.744141 
	C318.315582,445.730896 329.975861,445.864044 341.629578,445.646698 
	C345.847870,445.568054 347.691711,446.702484 347.444733,451.260651 
	C347.102844,457.570465 347.248871,463.915771 347.410797,470.240112 
	C347.495270,473.540741 346.486542,475.158112 342.919006,475.124359 
	C330.596283,475.007599 318.271759,475.024902 305.948273,475.073944 
	C302.697693,475.086853 301.587769,473.580505 301.643005,470.466003 
	C301.764099,463.640167 301.739716,456.809845 301.649445,449.983002 
	C301.611298,447.098663 302.643402,445.534851 306.177063,445.744141 
z"/>
<path fill="#000000" opacity="1.000000" stroke="none" 
	d="
M346.120209,125.726501 
	C355.103363,125.725189 363.605469,125.881813 372.097290,125.654442 
	C376.090729,125.547516 377.966248,126.835518 377.886871,130.976868 
	C377.762390,137.472275 377.810883,143.972488 377.884644,150.469559 
	C377.923065,153.855606 376.422455,155.189438 373.031677,155.146408 
	C363.369019,155.023682 353.702362,155.001083 344.040375,155.146240 
	C340.285919,155.202637 339.020294,153.521362 339.077209,150.025970 
	C339.172150,144.195801 339.090790,138.362793 339.086090,132.530975 
	C339.080688,125.845848 339.081848,125.845848 346.120209,125.726501 
z"/>
<path fill="#000000" opacity="1.000000" stroke="none" 
	d="
M189.816833,129.266693 
	C189.986343,126.026917 191.922333,125.747528 194.065979,125.746567 
	C204.064545,125.742081 214.063904,125.805183 224.061203,125.689125 
	C227.391113,125.650467 228.386032,127.148331 228.328491,130.246490 
	C228.201645,137.076508 228.192947,143.912323 228.327087,150.742020 
	C228.390991,153.995972 227.012619,155.192719 223.868683,155.163239 
	C214.037552,155.070984 204.204468,155.036331 194.373688,155.134003 
	C190.833817,155.169174 189.730362,153.514984 189.780426,150.236420 
	C189.884735,143.405792 189.800537,136.572281 189.816833,129.266693 
z"/>
<path fill="#000000" opacity="1.000000" stroke="none" 
	d="
M277.016968,125.717667 
	C284.509003,125.717331 291.506775,125.819595 298.499390,125.673546 
	C301.929138,125.601913 303.300568,126.936768 303.223206,130.371918 
	C303.073242,137.031311 303.076843,143.697250 303.180145,150.357941 
	C303.231415,153.664185 302.086243,155.232986 298.553497,155.182724 
	C288.728180,155.042923 278.899536,155.068924 269.072815,155.127853 
	C265.920044,155.146744 264.575531,153.880920 264.640961,150.655212 
	C264.772675,144.162018 264.857697,137.657013 264.604126,131.170868 
	C264.444122,127.077454 265.865784,125.303963 270.028137,125.698761 
	C272.173615,125.902252 274.355316,125.723824 277.016968,125.717667 
z"/>
<path fill="#000000" opacity="1.000000" stroke="none" 
	d="
M119.370544,125.755547 
	C129.164536,125.741676 138.498779,125.865616 147.826599,125.675117 
	C151.769409,125.594589 153.625961,126.671181 153.424164,131.004425 
	C153.129929,137.322647 153.216599,143.669449 153.414200,149.995529 
	C153.525421,153.556168 152.393921,155.184799 148.621246,155.126007 
	C139.125244,154.977966 129.624725,154.997650 120.127693,155.101822 
	C116.753403,155.138824 115.367935,153.969009 115.455009,150.420609 
	C115.618210,143.769852 115.352730,137.109238 115.309570,130.452423 
	C115.293694,128.003952 115.474632,125.610367 119.370544,125.755547 
z"/>
<path fill="#000000" opacity="1.000000" stroke="none" 
	d="
M423.051758,155.143906 
	C421.065094,155.133743 419.564941,155.074997 418.068420,155.125015 
	C415.195160,155.221069 413.762909,154.009933 413.788361,151.000183 
	C413.848877,143.841125 413.828613,136.680679 413.759583,129.521576 
	C413.732391,126.703186 415.128754,125.697357 417.768829,125.727760 
	C422.430328,125.781456 427.095703,125.826233 431.754181,125.691620 
	C434.904419,125.600578 436.307526,126.808067 436.253693,130.056305 
	C436.140625,136.881134 436.110382,143.712067 436.277222,150.534821 
	C436.362885,154.039322 434.908447,155.351898 431.530579,155.165405 
	C428.874695,155.018784 426.204010,155.141418 423.051758,155.143906 
z"/>
</svg>