<svg version="1.1" id="Layer_1" xmlns="http://www.w3.org/2000/svg" xmlns:xlink="http://www.w3.org/1999/xlink" x="0px" y="0px"
	 width="100%" viewBox="0 0 912 1024" enable-background="new 0 0 912 1024" xml:space="preserve">
<path fill="#000000" opacity="1.000000" stroke="none" 
	d="
M550.698120,694.079712 
	C563.805603,696.887085 576.487915,699.620605 588.509827,704.757996 
	C594.834717,707.460815 600.834167,710.675659 606.047058,715.187744 
	C616.185913,723.963684 618.757629,735.225891 615.892273,747.805847 
	C613.204956,759.604065 604.840393,766.245422 593.639832,769.119812 
	C576.427429,773.537109 558.961182,773.436401 541.619202,769.924194 
	C522.715454,766.095642 503.909149,761.727844 484.707825,759.637451 
	C464.710052,757.460388 444.899902,759.252136 425.134308,762.706543 
	C409.235748,765.485168 393.644440,769.939880 377.556763,771.592163 
	C363.898346,772.995056 350.219269,772.833435 336.856873,769.316772 
	C324.447021,766.050842 314.858826,759.351135 312.942139,745.565796 
	C310.968323,731.369202 315.164032,719.620850 327.718262,711.526367 
	C342.158600,702.215881 358.421600,698.106934 374.939087,694.733887 
	C383.899994,692.903870 392.935699,691.443176 401.915741,689.702759 
	C410.419464,688.054749 413.160706,685.174377 413.524506,676.659485 
	C414.079041,663.681458 414.279388,650.688171 414.621887,637.701233 
	C414.680023,635.496399 414.651031,633.460693 412.133240,632.267151 
	C391.615936,622.541016 382.699768,604.680481 378.693207,583.669006 
	C375.063416,564.633484 376.312775,545.551697 379.110443,526.510864 
	C382.009674,506.778320 384.830444,487.034210 387.656982,467.291046 
	C391.189209,442.618225 394.760803,417.950775 398.188171,393.263306 
	C401.457153,369.717072 404.504791,346.140106 407.761902,322.592163 
	C409.673706,308.770447 411.373688,294.897888 413.953339,281.195862 
	C416.736023,266.415527 423.212402,253.296951 435.451111,243.931259 
	C460.077637,225.085815 495.585022,234.314209 509.348938,262.847107 
	C514.262573,273.033264 516.643738,283.846954 518.126587,294.959564 
	C520.609741,313.568420 523.223022,332.159973 525.792664,350.757233 
	C529.295288,376.106140 532.766968,401.459442 536.328430,426.800079 
	C540.051270,453.288910 543.961609,479.751709 547.602722,506.251587 
	C549.796448,522.216614 552.752991,538.166077 552.747070,554.304871 
	C552.739136,575.812866 550.291199,596.925476 536.911743,615.050415 
	C532.098022,621.571533 526.243408,626.944458 519.050415,630.761658 
	C516.894104,631.905884 515.123474,633.124695 515.154846,635.975891 
	C515.314026,650.452026 514.545898,664.940186 516.191833,679.393921 
	C516.760620,684.387939 519.326050,687.148621 523.892029,688.694275 
	C532.474731,691.599731 541.587036,691.745300 550.698120,694.079712 
M390.271973,552.557556 
	C389.653198,567.483887 390.635529,582.224487 396.447876,596.196960 
	C403.464478,613.064331 415.108368,623.443604 434.540192,622.871948 
	C440.513428,622.696289 446.511536,623.437622 452.500671,623.705139 
	C456.538116,623.885559 459.247955,625.479980 459.353851,629.916992 
	C459.450439,633.964844 456.989990,636.223938 452.181580,636.296204 
	C445.855835,636.391296 439.531769,636.401489 433.244049,635.393799 
	C429.071014,634.725159 427.218475,636.354675 427.317871,640.904419 
	C427.586761,653.214661 427.619904,665.531677 426.746948,677.836304 
	C425.818756,690.920166 420.882019,697.890442 408.133881,701.177246 
	C395.432404,704.452026 382.426422,706.527222 369.609741,709.378967 
	C356.875092,712.212402 344.564575,716.175415 333.619598,723.663757 
	C326.361603,728.629578 325.346588,735.729309 326.259949,743.545166 
	C327.052704,750.329102 331.784485,753.814209 337.526703,756.387817 
	C342.831360,758.765381 348.548737,758.681030 354.134247,759.473328 
	C357.430237,759.940735 359.217163,759.023865 359.705292,755.608948 
	C360.107880,752.792664 361.067505,750.108521 362.547089,747.654846 
	C363.432861,746.185974 364.503906,744.657166 366.499146,745.700867 
	C368.376892,746.683105 368.191772,748.344116 367.320190,750.008301 
	C366.779480,751.040710 366.196808,752.058105 365.747559,753.130249 
	C363.344360,758.865601 363.984802,759.883423 370.093933,759.730408 
	C380.460724,759.470764 390.591583,757.446838 400.632294,755.116577 
	C420.587158,750.485535 440.626251,746.325073 461.170990,745.826965 
	C485.305542,745.241760 508.789276,750.225281 532.249695,755.076599 
	C541.863342,757.064575 551.390869,759.424500 561.340027,759.087891 
	C565.128296,758.959717 566.039124,757.598022 564.710449,754.123169 
	C562.630310,748.683228 558.939514,744.852112 553.729370,742.405029 
	C547.508179,739.483215 540.894043,737.750000 534.221985,736.328735 
	C514.906555,732.214111 495.239471,731.821289 475.618622,731.357178 
	C457.634033,730.931702 439.641754,731.162415 421.706604,732.996948 
	C419.534637,733.219055 416.210510,733.817932 415.980560,730.708069 
	C415.735168,727.389771 419.196564,727.981445 421.316254,727.836487 
	C428.786041,727.325684 436.268768,726.778259 443.750641,726.713684 
	C464.398651,726.535278 485.054626,726.222961 505.678802,727.705200 
	C521.494080,728.841797 537.178406,730.737915 552.152222,736.329102 
	C561.207764,739.710388 568.048645,745.383301 570.344910,755.293823 
	C570.980530,758.037048 572.570374,759.046753 575.343018,759.032532 
	C582.105164,758.997864 588.637817,757.875854 594.758484,755.011108 
	C601.368774,751.917358 604.857971,746.875793 604.852356,739.231995 
	C604.847290,732.257202 602.224792,727.039062 596.612732,723.103760 
	C587.315186,716.584045 576.755554,713.100647 565.949280,710.148071 
	C551.973816,706.329468 537.570312,704.560974 523.504883,701.181458 
	C512.439331,698.522766 505.945129,692.029114 504.517273,680.302185 
	C502.334503,662.375366 502.885468,644.406311 502.763275,626.437500 
	C502.745667,623.846802 503.843323,622.408447 506.392456,621.923096 
	C516.272034,620.042053 522.899048,613.578125 528.339661,605.772644 
	C537.454529,592.695984 539.887146,577.575317 540.624634,562.146240 
	C541.552612,542.732056 537.621460,523.709473 535.159485,504.590942 
	C532.570923,484.489624 529.497070,464.451050 526.664429,444.380920 
	C523.853088,424.461914 521.083618,404.536957 518.285767,384.615997 
	C514.771912,359.596802 511.283539,334.573944 507.714264,309.562622 
	C505.745850,295.769348 505.206085,281.666412 498.651947,268.864594 
	C492.488007,256.824890 483.490082,248.633118 469.535400,247.340256 
	C454.342041,245.932648 442.515259,251.685715 434.584045,264.845581 
	C430.238617,272.055695 427.502380,279.913177 426.306000,288.252563 
	C423.732910,306.188751 421.257965,324.139008 418.709442,342.078766 
	C414.618195,370.877869 410.451874,399.666443 406.407135,428.472076 
	C402.707977,454.816803 398.942993,481.154602 395.568085,507.541626 
	C393.692871,522.203430 390.564087,536.724121 390.271973,552.557556 
z"/>
<path fill="#000000" opacity="1.000000" stroke="none" 
	d="
M426.704590,402.547760 
	C422.245667,433.749847 417.575806,464.470642 413.586609,495.279602 
	C410.812866,516.701355 406.670959,538.012207 406.451141,559.692322 
	C406.356873,568.988831 407.620972,578.274658 410.694733,587.176453 
	C413.214539,594.473877 416.760498,600.924561 424.623566,603.741821 
	C426.255981,604.326660 427.204346,605.461731 426.534668,607.189026 
	C425.840424,608.979553 424.280396,608.892944 422.731567,608.400208 
	C416.299164,606.354004 411.971130,601.840698 408.919922,596.093140 
	C404.478119,587.726074 402.405121,578.575256 401.867706,569.248352 
	C401.053070,555.109314 401.899384,541.004089 403.951141,526.947449 
	C408.031158,498.994965 411.816498,470.999634 415.755249,443.026428 
	C419.276337,418.019318 422.872711,393.022827 426.369934,368.012390 
	C427.912079,356.983612 429.282043,345.930786 430.752045,334.891815 
	C431.033417,332.778961 431.032349,329.925354 433.987244,330.229034 
	C437.063873,330.545258 436.317230,333.372070 436.032196,335.444824 
	C432.975983,357.668213 429.873749,379.885284 426.704590,402.547760 
z"/>
<path fill="#000000" opacity="1.000000" stroke="none" 
	d="
M487.482056,684.802979 
	C484.727509,666.142212 484.831299,647.705994 484.958160,629.270630 
	C484.971283,627.363647 485.399017,625.252136 487.721985,625.248169 
	C490.187012,625.243958 490.262604,627.476990 490.273224,629.329651 
	C490.320892,637.644958 490.334595,645.960632 490.330688,654.276123 
	C490.326447,663.250671 491.034088,672.176941 492.091522,681.080200 
	C492.620850,685.536926 491.465637,686.614868 487.482056,684.802979 
z"/>
<path fill="#000000" opacity="1.000000" stroke="none" 
	d="
M393.490082,736.555481 
	C387.712646,738.360657 382.337128,740.066589 376.959290,741.765259 
	C375.361420,742.270020 373.490570,742.997009 372.517151,741.101746 
	C371.380676,738.888916 373.220795,737.670593 374.875427,736.919983 
	C384.646027,732.487854 395.051788,730.427856 405.603546,729.007019 
	C407.150116,728.798706 408.786591,729.296570 409.113770,731.071045 
	C409.511322,733.227356 407.855225,733.930176 406.121948,734.256653 
	C402.051483,735.023315 397.968811,735.725342 393.490082,736.555481 
z"/>
<path fill="#000000" opacity="1.000000" stroke="none" 
	d="
M441.374481,299.330872 
	C440.773468,304.060486 440.294098,308.355377 439.632874,312.622131 
	C439.384369,314.225616 438.992096,316.200256 436.703796,315.906067 
	C434.787170,315.659668 434.590729,313.911896 434.727539,312.406769 
	C435.584381,302.981537 436.768494,293.596588 438.621124,284.309296 
	C438.928894,282.766571 439.676636,281.296417 441.582275,281.615753 
	C443.922821,282.007965 443.601318,283.958984 443.385834,285.579041 
	C442.794769,290.022736 442.085999,294.450775 441.374481,299.330872 
z"/>
<path fill="#000000" opacity="1.000000" stroke="none" 
	d="
M501.314331,709.269653 
	C496.218719,706.368652 493.274689,702.015625 491.030975,697.109253 
	C490.301636,695.514404 489.928650,693.802307 491.867676,692.766724 
	C493.851349,691.707153 495.027374,693.062134 495.867554,694.573547 
	C497.899109,698.228149 500.423492,701.481445 503.178925,704.621643 
	C504.940552,706.629272 504.859344,708.623474 501.314331,709.269653 
z"/>
<path fill="#000000" opacity="1.000000" stroke="none" 
	d="
M517.807800,717.703369 
	C515.543701,717.120789 513.583618,716.673401 511.780945,715.872192 
	C510.104095,715.126770 508.315338,714.027222 509.341034,711.728577 
	C510.200134,709.803162 511.936279,709.992371 513.638245,710.567871 
	C515.053894,711.046570 516.520447,711.405090 517.884705,711.999634 
	C521.695190,713.660278 521.738464,714.882446 517.807800,717.703369 
z"/>
<path fill="#000000" opacity="1.000000" stroke="none" 
	d="
M445.097778,269.393677 
	C447.158936,267.470490 448.497925,263.422913 451.387177,265.627625 
	C454.419983,267.941833 450.830200,270.228149 449.517059,272.263214 
	C448.508057,273.826935 447.583221,276.495697 445.136566,275.274445 
	C442.465454,273.941162 443.821869,271.638977 445.097778,269.393677 
z"/>
</svg>