<svg version="1.1" id="Layer_1" xmlns="http://www.w3.org/2000/svg" xmlns:xlink="http://www.w3.org/1999/xlink" x="0px" y="0px"
	 width="100%" viewBox="0 0 640 704" enable-background="new 0 0 640 704" xml:space="preserve">
<path fill="#000000" opacity="1.000000" stroke="none" 
	d="
M211.468658,705.000000 
	C214.240860,703.265442 217.924545,704.556458 221.233139,703.547241 
	C222.394424,702.318176 220.148499,701.014526 221.405197,699.839722 
	C229.198837,697.178894 244.387558,697.517456 252.136597,700.533508 
	C251.508072,701.996521 249.335052,701.561890 248.665024,703.787170 
	C252.419968,703.787170 256.004089,703.801880 259.587952,703.776001 
	C260.404816,703.770081 261.716309,703.761658 261.727905,702.931763 
	C261.791565,698.367249 265.497406,698.658447 268.150513,698.411560 
	C278.929352,697.408569 289.747070,697.474792 300.553436,698.136353 
	C301.327057,698.183716 302.075775,698.638367 302.513489,698.791016 
	C303.973999,700.637695 301.273071,701.677734 302.461670,703.654846 
	C312.940491,704.445007 323.638062,704.189880 334.351776,703.749573 
	C334.644196,701.377075 331.712860,701.342651 332.174316,698.028992 
	C360.999115,697.649841 390.023132,698.362549 419.071472,697.943787 
	C419.075897,701.828796 416.576508,701.615601 415.600250,703.457703 
	C418.594330,703.862671 421.447632,704.248596 424.650482,704.817261 
	C353.979095,705.000000 282.958221,705.000000 211.468658,705.000000 
M380.503723,700.965637 
	C376.148712,701.076721 371.679535,700.507019 366.323395,703.517090 
	C377.387421,703.517090 387.032898,703.517090 396.678345,703.517090 
	C391.725800,701.538513 386.662323,700.772400 380.503723,700.965637 
z"/>
<path fill="#000000" opacity="1.000000" stroke="none" 
	d="
M24.468658,705.000000 
	C27.542353,703.847839 31.891674,704.318359 33.276184,699.218811 
	C33.712265,697.612610 36.464371,697.753784 38.270348,697.766479 
	C48.216343,697.836304 58.166420,697.846619 68.104965,698.179688 
	C71.734512,698.301331 75.138977,699.384216 77.906754,702.301697 
	C80.994789,705.556763 85.642906,702.981140 89.637810,704.817627 
	C68.312439,705.000000 46.624878,705.000000 24.468658,705.000000 
z"/>
<path fill="#000000" opacity="1.000000" stroke="none" 
	d="
M170.872803,416.819885 
	C170.553162,407.365845 169.460175,398.474396 167.277649,389.728943 
	C166.726151,387.519073 166.234406,385.261230 169.362595,384.652252 
	C172.376862,384.065430 173.827866,385.305603 174.451859,388.484161 
	C176.571060,399.279297 177.910889,410.150055 178.261536,421.133911 
	C178.358994,424.186890 178.969513,427.049866 179.966965,429.901428 
	C184.180618,441.947968 184.149780,453.098785 177.834763,465.182770 
	C172.215485,475.935486 166.723282,487.163879 163.857300,499.270050 
	C162.347580,505.647186 163.407120,511.528259 166.569260,517.075195 
	C175.005249,531.873352 182.910324,546.936096 186.941483,563.609131 
	C191.717438,583.362549 194.063599,603.238159 190.803879,623.663086 
	C189.250229,633.398132 188.216278,643.262756 186.706543,653.034180 
	C186.078568,657.098572 185.172302,661.122559 184.311615,665.147583 
	C183.609848,668.429443 180.550247,668.352478 178.325851,668.558289 
	C164.955811,669.795166 151.688782,672.033691 138.214844,672.309021 
	C118.748253,672.706909 99.418205,671.606018 80.080528,669.205811 
	C71.532013,668.144714 66.499458,666.909668 65.754562,656.147583 
	C64.724762,641.269104 61.037724,626.594971 60.486298,611.505554 
	C59.967587,597.311584 60.656372,583.268494 63.538227,569.432007 
	C66.818871,553.680847 72.238991,538.411743 81.267639,525.159668 
	C90.643814,511.397522 90.499138,498.292084 82.953445,484.406586 
	C78.582787,476.363739 76.143692,467.511993 71.787666,459.400085 
	C66.667274,449.864777 68.341141,439.660339 72.203194,429.903015 
	C73.210670,427.357697 73.582420,424.849243 73.708580,422.152130 
	C74.221352,411.190552 75.444725,400.299927 77.553612,389.521851 
	C78.597435,384.187103 79.624092,383.617615 85.288025,385.394623 
	C84.162048,392.532745 83.027985,399.731079 81.888870,406.928589 
	C81.784737,407.586517 81.617989,408.235352 81.531136,408.895081 
	C79.889709,421.364441 79.995659,421.958862 91.106674,427.343292 
	C97.233665,430.312408 103.465973,433.188080 108.935127,437.126343 
	C113.857582,440.670929 118.199135,445.190979 122.188553,449.806580 
	C125.133186,453.213440 126.976898,453.623932 130.006317,450.065094 
	C139.651489,438.734283 151.504974,430.457062 165.594818,425.548920 
	C169.675766,424.127350 171.643951,421.644592 170.872803,416.819885 
M154.226578,480.148895 
	C152.168854,480.641632 151.164352,482.256012 150.735809,484.040100 
	C147.490219,497.552002 145.237015,511.322205 148.945282,524.935669 
	C159.718170,564.484070 163.173965,604.639954 160.431564,645.435852 
	C160.150345,649.619202 162.829926,651.927002 167.024063,651.342651 
	C168.173737,651.182495 169.303772,650.886292 170.449203,650.689819 
	C186.839478,647.879150 184.540024,647.190796 186.329865,635.058472 
	C188.965729,617.191650 189.294418,599.289612 187.315552,581.343811 
	C184.950806,559.898499 176.656174,540.564087 165.854599,522.211792 
	C159.868866,512.041748 158.877365,501.857147 163.174393,490.790741 
	C167.316849,480.122437 166.981461,479.959442 154.226578,480.148895 
M79.539604,650.424194 
	C80.204559,650.459412 80.882744,650.422241 81.532471,650.540833 
	C89.238724,651.947632 90.821136,650.705139 90.710083,643.004272 
	C90.597328,635.184875 90.064133,627.361267 90.230553,619.550537 
	C90.474983,608.078369 90.938858,596.599121 91.746574,585.153748 
	C92.705658,571.563538 94.700829,558.095276 98.077324,544.867188 
	C102.599953,527.148865 106.780632,509.515625 102.755409,490.927002 
	C100.684998,481.365753 99.601852,479.600861 89.775299,479.402191 
	C85.142143,479.308472 84.415047,480.273743 85.955452,484.645538 
	C86.563568,486.371399 87.316200,488.047852 88.036270,489.732574 
	C92.868614,501.038452 92.395424,511.722565 85.976479,522.606812 
	C78.715317,534.919189 72.125305,547.741272 68.494514,561.676514 
	C62.105991,586.196045 62.563709,611.080444 65.837784,635.976440 
	C67.390747,647.785034 67.620056,647.754883 79.539604,650.424194 
M89.044823,471.606598 
	C95.096962,473.626892 100.548286,472.619141 105.993729,467.931488 
	C90.940353,463.436829 79.948967,454.583344 74.109085,439.595093 
	C67.876976,449.145996 75.642647,467.715851 89.044823,471.606598 
M175.285690,462.713928 
	C179.410248,456.406097 181.702805,449.713348 179.768326,441.970093 
	C177.174606,442.288971 175.782425,443.940704 174.829391,445.885864 
	C169.732422,456.288696 161.252365,462.423767 150.367447,465.662933 
	C148.805359,466.127777 146.932739,466.829102 146.890991,468.787750 
	C146.845688,470.913635 148.898224,471.326080 150.444275,471.663177 
	C160.239731,473.799133 168.511475,471.307007 175.285690,462.713928 
z"/>
<path fill="#000000" opacity="1.000000" stroke="none" 
	d="
M561.603027,699.322449 
	C551.052551,697.880005 540.908447,699.430237 530.761353,699.251587 
	C525.880188,699.165710 524.046265,697.336792 523.559814,692.609863 
	C522.318787,680.551086 520.794312,668.516907 519.107361,656.511597 
	C518.601868,652.914307 519.558411,651.211426 523.151978,650.619385 
	C529.702026,649.540283 536.138428,647.871521 542.850586,647.707336 
	C548.519409,647.568726 550.260681,644.873413 548.344116,639.694214 
	C547.709473,637.979004 548.109802,636.555298 548.454773,634.892212 
	C549.756897,628.614258 551.389709,622.409668 546.463745,616.520569 
	C544.633850,614.332825 543.829834,611.015137 542.683899,608.197144 
	C541.455383,605.176147 543.242249,602.524475 546.623047,600.585266 
	C542.080933,598.026672 538.731812,599.389221 535.858154,602.047241 
	C530.677734,606.839050 526.892578,612.749695 523.315186,618.771790 
	C519.797241,624.693787 511.114868,625.009399 507.377136,619.231628 
	C503.393890,613.074341 499.242035,607.078247 494.405273,601.519104 
	C492.043213,598.804321 489.222076,598.147644 486.100616,597.646667 
	C484.299255,597.357544 483.217224,598.339539 482.771393,599.953125 
	C482.321289,601.582153 483.319794,602.343201 484.741882,602.866577 
	C489.266541,604.531860 488.556641,607.008606 486.534790,610.618286 
	C482.148743,618.448792 478.841248,626.677795 482.721802,635.854675 
	C483.284607,637.185547 482.930267,638.408752 482.632874,639.734619 
	C481.299225,645.679749 483.739197,648.360840 489.961182,648.272888 
	C496.276764,648.183655 502.454102,649.242737 508.532806,650.964294 
	C511.076019,651.684570 511.831268,652.968323 511.462372,655.714661 
	C509.867798,667.584229 508.553345,679.491333 507.119812,691.382690 
	C506.223236,698.819885 505.771423,699.363647 498.496918,698.968018 
	C488.164215,698.406189 477.881226,698.863708 467.600952,699.824585 
	C464.534637,700.111206 462.560913,699.074768 461.876373,695.734619 
	C459.080658,682.093872 456.141815,668.482422 453.263245,654.858582 
	C452.774628,652.545959 453.312927,651.001770 456.024323,650.629761 
	C460.296967,650.043335 464.520477,649.043884 468.804321,648.609741 
	C472.894440,648.195190 475.275085,646.007324 474.778351,642.185059 
	C474.229126,637.958984 474.692047,633.859924 475.154846,629.785583 
	C475.962311,622.677734 473.547974,616.510681 470.648590,610.343384 
	C469.094635,607.037842 468.296021,603.827637 473.378357,602.858643 
	C474.862335,602.575684 475.744476,601.757568 475.856018,600.183533 
	C476.029358,597.737061 474.882538,595.788025 472.895386,594.786865 
	C468.325867,592.484619 463.568298,590.558716 458.921204,588.406372 
	C455.029755,586.603943 451.240448,584.630066 447.791382,582.017090 
	C445.823425,580.526184 445.414948,579.066040 446.747284,576.940735 
	C452.137054,568.343140 457.362335,559.647156 461.839600,550.527710 
	C462.824188,548.522278 464.032410,547.949097 466.221313,549.035950 
	C482.023682,556.882202 498.647400,559.588135 516.376160,559.518066 
	C534.152283,559.447693 550.608276,555.896362 566.205688,548.303711 
	C567.706421,548.758240 568.375427,549.775940 568.776489,550.849121 
	C572.247253,560.136780 578.247437,568.035522 582.985840,576.622803 
	C584.435791,579.250427 584.357361,580.457886 581.919067,582.272705 
	C575.343628,587.166626 568.116821,590.689575 560.449951,593.400757 
	C558.529480,594.079834 556.555176,594.712280 555.526489,596.561707 
	C553.982178,599.338318 553.310364,601.851013 557.654724,602.950439 
	C561.781677,603.994812 562.830444,606.341187 560.682922,609.825256 
	C555.665588,617.965271 553.931213,626.556763 556.178101,635.927307 
	C556.645081,637.874817 556.278625,639.874329 555.785461,641.854004 
	C554.862732,645.557556 556.384338,647.411804 560.237122,647.928589 
	C564.823303,648.543823 569.363098,649.545837 573.894409,650.514282 
	C576.785828,651.132263 577.824219,652.525940 577.020569,655.894043 
	C573.900818,668.970215 570.996216,682.106689 568.446655,695.304810 
	C567.616699,699.601379 565.878235,700.723083 561.603027,699.322449 
M526.738403,608.207153 
	C527.916931,606.293091 530.431946,604.773926 529.511536,602.167175 
	C528.416077,599.064941 525.164795,599.884705 522.971130,599.861572 
	C516.399292,599.792358 509.806885,599.111938 503.235046,600.007019 
	C499.726135,600.484985 498.887695,602.047119 500.969177,605.016663 
	C503.732208,608.958618 506.476532,612.913635 509.221100,616.868469 
	C512.394287,621.440918 517.912781,621.327576 521.018372,616.637573 
	C522.759399,614.008362 524.540100,611.405518 526.738403,608.207153 
z"/>
<path fill="#000000" opacity="1.000000" stroke="none" 
	d="
M167.272263,164.520782 
	C166.872711,155.551132 166.568253,146.936081 166.174225,138.325150 
	C166.064224,135.921692 165.829620,133.048676 168.923462,133.041489 
	C171.784943,133.034836 175.172607,133.051224 175.414749,137.922974 
	C175.983017,149.356415 176.971848,160.777206 178.118179,172.170135 
	C178.684937,177.802856 181.750092,182.824875 182.722977,188.460754 
	C184.420456,198.294220 183.246170,206.909760 177.630798,215.826523 
	C170.606888,226.979950 164.440018,239.005585 163.107529,252.591507 
	C162.587860,257.890015 164.575989,262.775421 167.325073,267.247742 
	C175.459488,280.481049 180.960526,294.962830 187.288864,309.053436 
	C188.381866,311.487061 187.156647,313.305847 185.582443,314.848419 
	C174.923279,325.293335 164.283920,335.760681 153.477463,346.052032 
	C148.963989,350.350342 143.922089,354.090607 139.359390,358.341095 
	C130.905228,366.216797 119.340355,364.322540 112.003448,357.835632 
	C96.953491,344.529144 82.450211,330.670349 68.096489,316.633209 
	C64.731644,313.342590 63.941921,310.908691 66.306747,306.011108 
	C70.696648,296.919647 73.568581,287.084869 78.522896,278.182739 
	C80.706261,274.259521 82.999695,270.397675 85.196053,266.481537 
	C89.644608,258.549652 90.078796,250.291672 86.680588,241.945480 
	C82.547363,231.794022 78.572891,221.611053 72.631699,212.235748 
	C66.005981,201.780212 67.377182,190.465698 71.792473,179.631226 
	C74.579819,172.791489 74.959267,165.686523 75.483162,158.638840 
	C75.986992,151.861099 77.343384,145.077744 76.626556,138.243698 
	C76.065170,132.891678 80.307457,133.080307 83.175682,133.119247 
	C86.117416,133.159134 86.518494,136.060989 86.307358,138.810715 
	C85.626816,147.673782 85.122055,156.550171 84.495552,165.417603 
	C84.203682,169.548523 86.282806,172.280090 89.930016,173.351456 
	C102.511490,177.047318 113.139252,183.810883 121.780907,193.535034 
	C125.206871,197.390152 127.582222,196.873032 130.613998,193.354553 
	C138.845200,183.802078 149.248474,177.523468 161.144165,173.570496 
	C165.285995,172.194168 167.113724,169.087509 167.272263,164.520782 
M105.491493,224.060638 
	C101.448586,225.675018 101.960945,228.960022 102.843567,232.061996 
	C104.806839,238.961868 105.540092,246.044174 105.436577,253.114853 
	C105.162331,271.848328 100.164368,289.542755 92.610573,306.565094 
	C91.066078,310.045563 90.989807,313.178406 93.156403,316.457397 
	C101.688576,329.370270 110.084007,342.373505 118.611809,355.289276 
	C123.364334,362.487183 129.042099,362.316376 133.723343,355.062439 
	C140.668777,344.299896 147.138596,333.167633 154.861740,322.990234 
	C160.703705,315.291779 160.566772,308.689697 156.930328,300.105499 
	C149.296829,282.085846 144.133087,263.333313 146.956177,243.345627 
	C147.607269,238.735931 148.268509,234.120773 149.164810,229.555191 
	C149.711685,226.769531 148.868057,225.074844 146.271912,224.057724 
	C139.350327,221.345993 134.392441,216.259979 129.939606,210.536560 
	C126.631874,206.284973 125.327545,206.273880 122.096260,210.586655 
	C117.836082,216.272690 113.036400,221.243607 105.491493,224.060638 
M175.818848,192.283691 
	C164.406631,197.088928 155.179504,204.861923 146.956146,213.884857 
	C143.129425,218.083664 143.922867,220.198822 149.554077,221.771744 
	C154.993866,223.291214 160.410004,223.081955 165.643311,220.854126 
	C174.942719,216.895340 182.032532,205.761353 181.228928,196.220032 
	C181.009033,193.609253 179.498322,191.939651 175.818848,192.283691 
M72.141464,194.032715 
	C71.300880,195.367523 71.286926,196.854507 71.272560,198.366653 
	C71.130127,213.355148 84.085457,223.914825 100.333229,222.042923 
	C102.491173,221.794312 104.898682,221.795212 105.689560,219.251236 
	C106.408821,216.937653 105.162392,214.986084 103.602173,213.423569 
	C95.822144,205.631973 87.666718,198.322983 77.543671,193.590149 
	C75.853668,192.800034 74.292503,191.710419 72.141464,194.032715 
z"/>
<path fill="#000000" opacity="1.000000" stroke="none" 
	d="
M315.233521,444.789246 
	C317.989624,448.488007 320.358490,448.235291 323.144958,445.148987 
	C331.298676,436.117706 340.520172,428.503906 352.895294,426.253296 
	C360.720947,424.830048 368.476715,425.032471 374.841431,431.050262 
	C377.292999,433.368225 377.817535,436.172791 377.157898,439.281372 
	C373.554810,456.261078 368.312195,472.715729 360.653290,488.308685 
	C355.003174,499.811920 354.593262,510.717163 362.011230,521.765625 
	C370.138336,533.870422 375.051117,547.546387 379.816803,561.223206 
	C381.099548,564.904541 381.049713,567.426147 375.913574,568.767822 
	C367.891724,570.863159 362.003479,576.898315 355.939087,582.321594 
	C349.033661,588.496887 342.931915,595.781799 334.576294,600.041931 
	C320.641113,607.146790 308.067566,604.248474 296.549500,594.072327 
	C289.349365,587.710938 283.053619,580.370605 275.275604,574.650269 
	C271.066620,571.554749 266.365692,569.476257 261.385437,568.074280 
	C258.473999,567.254700 257.885468,565.773315 258.648438,562.932495 
	C262.385010,549.019897 267.767303,535.835205 275.277161,523.513672 
	C279.184937,517.102295 282.928406,510.594910 282.234680,502.598206 
	C281.750092,497.012390 279.556610,491.926910 277.270447,487.004028 
	C270.372528,472.150452 265.033020,456.827332 261.742798,440.774994 
	C260.472961,434.579529 263.745911,428.854095 269.853302,426.932770 
	C280.282104,423.652039 289.731049,426.720825 298.898804,431.381317 
	C305.193695,434.581390 310.060211,439.612030 315.233521,444.789246 
M308.647400,539.709961 
	C309.869324,545.042297 309.828735,550.632263 311.921265,555.786255 
	C312.703888,557.713928 312.843109,560.767456 315.578033,560.410828 
	C318.745789,559.997742 317.867035,556.799072 317.939453,554.639771 
	C318.116974,549.343628 318.036041,544.039185 318.090027,538.738464 
	C318.262604,521.798706 318.316742,504.855988 318.712372,487.921326 
	C318.828857,482.936310 317.875519,479.544037 312.287842,478.685150 
	C309.658875,478.281067 307.293091,476.804321 308.729340,473.506897 
	C310.627411,469.149200 309.295868,466.731049 304.985748,465.005096 
	C302.035461,463.823700 303.079926,460.714386 303.108521,458.332642 
	C303.132751,456.314911 304.210449,455.111176 306.392212,454.602448 
	C311.205688,453.480164 311.861145,451.829742 308.671661,448.022064 
	C301.112610,438.997986 291.262634,433.742950 279.741913,431.788635 
	C276.493469,431.237610 274.350647,433.284912 274.087738,436.672363 
	C273.881134,439.333954 274.418823,441.931122 275.065460,444.546875 
	C277.229095,453.299011 282.415985,460.075623 288.686615,466.218445 
	C292.463531,469.918365 295.120758,474.345337 296.185059,479.521271 
	C300.258636,499.331970 303.313599,519.352356 308.647400,539.709961 
M320.563904,514.901489 
	C324.278198,519.129272 326.202637,523.067566 321.298157,528.203735 
	C319.330017,530.264771 319.371307,534.332642 322.620300,536.601929 
	C324.477600,537.899109 325.170105,539.537537 325.255493,541.652466 
	C325.317841,543.196838 325.560760,544.684082 328.031158,545.059998 
	C329.211487,543.555420 330.145721,541.750793 330.577148,539.590637 
	C334.368347,520.607971 338.412537,501.672241 341.906555,482.635406 
	C343.394836,474.526428 347.078522,467.962891 353.001862,462.568573 
	C359.901794,456.284882 363.244873,448.422028 364.252747,439.329773 
	C364.887177,433.606171 361.890350,431.043823 356.317719,432.323456 
	C347.301666,434.393768 339.751373,439.103790 332.888428,445.022217 
	C330.444519,447.129761 327.993866,449.485229 327.729645,452.939484 
	C328.986542,454.226196 330.394775,454.195618 331.678009,454.363159 
	C334.795776,454.770142 335.871643,456.811096 335.922729,459.575378 
	C335.971497,462.215851 336.315491,464.988464 332.400452,465.563507 
	C328.781097,466.095123 328.905365,468.930969 329.214813,471.754364 
	C329.390991,473.361725 330.874756,475.776093 329.485413,476.449097 
	C324.858673,478.690460 325.524048,483.908081 322.813263,487.015625 
	C319.361847,490.972290 319.193420,494.573914 322.764526,498.374542 
	C325.179230,500.944519 325.556549,503.744415 323.113556,506.366882 
	C320.986847,508.649872 320.540192,511.296478 320.563904,514.901489 
M337.071991,582.230469 
	C337.003418,583.826599 335.925446,585.458435 337.314850,587.124756 
	C340.246857,587.887329 341.725220,585.473572 343.554688,583.976196 
	C351.766144,577.255127 358.598053,568.827820 368.553925,564.266296 
	C375.642609,561.018372 376.384583,558.549744 373.396057,551.292236 
	C369.075653,540.800354 363.905975,530.732239 358.427429,520.813904 
	C357.577026,519.274353 357.293793,516.836731 355.073547,516.909302 
	C352.428558,516.995728 352.570007,519.616028 352.085571,521.458496 
	C346.845581,541.385925 341.579285,561.307251 337.071991,582.230469 
M298.031158,565.953674 
	C297.463440,564.039551 296.819000,562.144470 296.340454,560.208313 
	C293.109650,547.137268 289.920502,534.055908 286.699951,520.982361 
	C286.196655,518.939209 286.038086,516.633118 283.504974,515.900574 
	C283.118744,516.091187 282.686340,516.156677 282.551239,516.392517 
	C275.603973,528.518433 268.880615,540.772095 264.373199,554.053040 
	C263.306305,557.196533 263.049652,560.683044 267.423981,562.322937 
	C276.689117,565.796265 283.914459,572.146790 290.848572,578.984375 
	C293.349304,581.450195 295.864014,584.263794 300.482971,585.325134 
	C301.313354,578.639893 299.131714,572.684631 298.031158,565.953674 
z"/>
<path fill="#000000" opacity="1.000000" stroke="none" 
	d="
M461.511597,469.313324 
	C457.130646,460.481262 456.356903,451.447754 459.721130,442.817566 
	C462.918335,434.615906 462.436829,426.166290 463.585999,417.830383 
	C464.558350,410.777466 465.111420,403.677368 466.515076,396.668671 
	C467.106781,393.714233 468.426941,392.469635 471.166687,392.859375 
	C474.674408,393.358368 473.233307,395.884918 473.001648,397.912994 
	C472.039612,406.336243 470.448517,414.675049 470.075409,423.181976 
	C469.696503,431.821289 470.882843,431.975494 477.645294,434.818878 
	C490.901306,440.392639 502.195984,448.344879 511.969452,458.644043 
	C514.468750,461.277802 516.033020,461.810730 518.645813,458.701385 
	C527.998108,447.571686 539.771851,439.793854 553.215271,434.365173 
	C560.624939,431.373016 561.579590,429.488281 560.385071,421.342377 
	C559.202820,413.280243 558.708435,405.116547 556.815918,397.156158 
	C556.555054,396.059082 556.643250,394.878998 556.573120,393.787781 
	C561.847412,392.061493 563.294067,393.108521 564.281616,398.611328 
	C566.370483,410.251373 566.694458,422.074036 568.057495,433.788879 
	C568.731384,439.580719 571.223572,444.872101 571.800659,450.762238 
	C572.392578,456.804779 571.922974,462.461945 569.239685,467.661987 
	C563.650818,478.493103 559.950867,490.112457 554.718445,501.088043 
	C550.573242,509.783020 550.862549,518.544373 556.258179,526.718201 
	C558.786377,530.548218 558.052429,532.522766 553.767395,534.010925 
	C546.376465,536.577698 539.070862,539.403198 531.801331,542.300476 
	C528.748047,543.517395 526.096375,543.572571 523.407959,541.476868 
	C518.051331,537.301270 512.606812,537.731201 507.334991,541.633606 
	C504.942932,543.404358 502.652832,543.640198 499.880524,542.535034 
	C491.840363,539.329712 483.726746,536.308411 475.638672,533.223450 
	C473.044861,532.234192 471.704742,530.803711 473.417236,527.945557 
	C479.091522,518.475037 479.329010,508.662598 474.753815,498.777710 
	C470.283081,489.118591 467.135437,478.868652 461.511597,469.313324 
M530.899536,524.800232 
	C533.914734,513.958130 536.872986,503.099609 539.977478,492.283112 
	C541.002136,488.713257 539.823914,486.472107 536.515686,485.183105 
	C532.187195,483.496613 527.887756,481.712646 523.483093,480.250000 
	C518.244690,478.510559 516.403381,479.898346 516.388306,485.422913 
	C516.348267,500.033142 516.383484,514.643616 516.385132,529.253967 
	C516.385620,533.952087 519.526672,537.967712 524.158447,538.187317 
	C528.213928,538.379700 527.957825,534.268860 529.088135,531.784729 
	C529.963684,529.860474 530.226013,527.657227 530.899536,524.800232 
M512.039734,479.853455 
	C505.875305,479.277985 501.139008,483.363953 495.631378,484.959717 
	C490.324982,486.497162 489.377167,488.591522 490.895325,493.943207 
	C494.697021,507.344666 498.570557,520.726868 502.582794,534.066345 
	C503.169739,536.017761 503.532684,539.648621 506.792938,538.204956 
	C509.781342,536.881714 514.770996,536.812012 514.453613,531.767700 
	C513.523682,516.984436 514.470093,502.195770 514.016663,487.417938 
	C513.942566,485.000824 514.589722,482.376373 512.039734,479.853455 
M490.921082,468.566650 
	C486.890686,465.971985 483.872955,462.000336 479.390350,460.029755 
	C475.263397,458.215576 472.457275,460.075958 473.369629,464.370911 
	C474.806274,471.134094 478.644562,476.486847 484.618011,480.039520 
	C487.230743,481.593414 495.619659,480.161957 496.747925,477.906250 
	C498.888336,473.626709 494.080170,472.634888 492.502716,470.091125 
	C492.248749,469.681519 491.806213,469.388885 490.921082,468.566650 
M551.485352,459.913391 
	C545.274231,462.990540 540.283997,467.671631 535.375000,472.406891 
	C533.526733,474.189758 532.021240,476.439026 535.097412,478.657715 
	C538.839478,481.356720 544.544128,481.288940 548.140320,478.293732 
	C552.505005,474.658417 555.283020,469.921967 556.540833,464.436066 
	C557.292786,461.156738 556.506409,458.607544 551.485352,459.913391 
M508.953125,474.111969 
	C508.079865,476.066833 509.145752,476.613403 510.769897,476.304779 
	C513.607910,475.765564 516.405701,475.014526 519.347046,474.322418 
	C516.246643,468.960815 513.806152,468.886353 508.953125,474.111969 
z"/>
<path fill="#000000" opacity="1.000000" stroke="none" 
	d="
M286.840454,234.379089 
	C273.997284,236.794830 267.139038,231.378693 264.815704,219.350479 
	C264.606201,218.265747 263.888245,217.192322 263.169037,216.306305 
	C255.465164,206.815399 254.996231,196.193344 258.868713,185.263046 
	C264.351654,169.787125 267.861084,154.020996 267.660309,137.537415 
	C267.633759,135.358170 268.052338,133.285995 270.454407,132.904053 
	C273.490295,132.421356 276.627411,130.863327 279.653137,132.482071 
	C280.861786,133.128677 280.591919,134.889282 280.408234,136.202438 
	C278.663208,148.677414 280.784454,160.611893 286.793091,171.510651 
	C292.276428,181.456543 301.054962,188.424957 310.748657,194.166275 
	C313.656464,195.888489 316.280975,194.485458 318.680786,192.945938 
	C334.572449,182.751068 344.995300,169.190964 346.095520,149.510864 
	C346.354919,144.870651 346.968170,140.285477 346.331055,135.650803 
	C345.894440,132.474701 347.291412,131.445267 350.351562,131.826172 
	C359.315308,132.941956 359.413879,132.899399 359.315643,142.062592 
	C359.167053,155.916626 362.933960,168.941666 367.329376,181.876221 
	C370.952515,192.538284 372.908539,203.306595 366.121765,213.489410 
	C363.600098,217.272949 361.440002,221.127365 359.936829,225.384140 
	C359.881470,225.540802 359.750122,225.690826 359.750122,225.843948 
	C359.750488,234.226349 353.965027,234.228256 347.863831,234.406723 
	C338.008331,234.695007 328.386475,232.575974 318.698425,231.542572 
	C311.393890,230.763412 304.674652,232.629272 297.678589,233.002808 
	C294.211090,233.187973 290.772278,233.909866 286.840454,234.379089 
M260.320251,205.988403 
	C264.842285,217.035416 274.058777,223.577911 283.741394,222.487854 
	C286.000336,222.233551 288.786865,222.128036 289.514252,219.468689 
	C290.242676,216.805649 287.628021,215.927322 285.880096,214.780457 
	C277.025665,208.971054 269.364899,202.044693 264.543701,192.384430 
	C263.914642,191.123993 263.365234,189.498001 260.905212,190.021317 
	C259.172028,194.895050 258.427094,199.959625 260.320251,205.988403 
M365.246155,208.659378 
	C367.120911,204.634811 367.764343,200.456985 366.964752,196.052887 
	C366.724243,194.728226 366.749176,193.248978 365.315002,192.672287 
	C363.708679,192.026367 362.925293,193.355957 362.152771,194.430252 
	C355.687225,203.421829 348.379730,211.467026 338.095459,216.270523 
	C336.735687,216.905624 335.495850,218.084579 335.786987,219.770462 
	C336.058136,221.340546 337.638062,221.405289 338.926636,221.734543 
	C349.808044,224.514969 359.263153,220.021973 365.246155,208.659378 
M324.063629,217.453094 
	C322.739716,216.194397 321.475433,214.864822 320.079865,213.691299 
	C316.893036,211.011536 312.763763,209.606888 309.448364,211.872299 
	C304.533997,215.230286 300.440216,219.789185 294.877289,224.856964 
	C310.866974,224.088898 325.212402,223.772797 339.591125,226.148621 
	C333.271698,225.570145 328.924377,221.780594 324.063629,217.453094 
M356.861542,148.771667 
	C356.298279,146.301285 355.735016,143.830902 355.171753,141.360504 
	C354.309875,142.180557 354.108551,142.933609 353.966797,143.697708 
	C352.342468,152.453354 352.260101,161.524704 348.509308,169.852509 
	C348.060303,170.849457 348.149048,172.138672 348.176392,173.287933 
	C348.214050,174.871384 349.160004,175.538864 350.738892,175.699539 
	C356.362762,176.271805 360.196625,172.123413 359.287445,166.689102 
	C358.340271,161.028000 357.725067,155.311356 356.861542,148.771667 
M270.005768,152.492126 
	C269.085968,157.531143 268.229980,162.583099 267.210754,167.601944 
	C266.866882,169.295273 267.048004,170.660950 268.648041,171.398697 
	C271.433533,172.682983 274.172180,174.355789 277.791656,173.716492 
	C277.996368,170.918777 278.096710,168.474136 277.167816,166.081863 
	C275.436096,161.621902 272.940826,157.343018 274.298981,152.211365 
	C274.553802,151.248611 274.063385,150.042786 273.061737,149.702240 
	C271.285034,149.098175 270.899628,150.721024 270.005768,152.492126 
z"/>
<path fill="#000000" opacity="1.000000" stroke="none" 
	d="
M566.230347,194.029800 
	C566.429688,201.162750 564.669678,207.275620 561.441772,213.110825 
	C559.599609,216.440918 558.085815,220.010056 556.891785,223.625977 
	C555.568970,227.631836 552.986511,229.411682 548.961670,230.115723 
	C540.857910,231.533310 532.820801,231.344513 525.501953,227.631836 
	C514.871155,222.239075 504.378876,222.344421 493.715118,226.840546 
	C486.460907,229.899139 478.996582,230.688828 471.233917,230.041214 
	C467.059814,229.692978 464.064453,228.360962 462.547211,223.994400 
	C459.405304,214.952087 453.589508,206.913879 452.893829,196.919785 
	C452.554169,192.040024 451.928680,187.522781 456.292755,183.806595 
	C458.264801,182.127350 457.862183,179.153137 457.832275,176.670639 
	C457.679535,163.991043 458.522217,151.390030 460.630066,138.881470 
	C460.822021,137.742172 460.931122,136.506302 461.463135,135.523361 
	C462.747986,133.149445 465.234863,132.643402 467.464569,133.127869 
	C469.670166,133.607101 468.824982,135.750458 468.595123,137.361786 
	C466.808594,149.885605 466.143158,162.504501 465.333160,175.114105 
	C465.030579,179.824265 466.754089,181.959183 471.694763,182.429199 
	C484.004913,183.600327 495.773315,186.709824 506.085022,194.003891 
	C508.787842,195.915787 511.333527,195.221817 513.951721,193.525314 
	C524.148804,186.917755 535.126221,182.560654 547.488647,182.690262 
	C551.319336,182.730423 553.076172,180.975327 553.044434,177.311600 
	C552.954041,166.862488 552.715820,156.437134 551.756714,146.000229 
	C551.378418,141.883163 549.422363,137.617126 551.239868,133.180038 
	C555.099365,132.312195 557.545776,133.810730 557.990784,137.611252 
	C558.855286,144.994507 560.392395,152.290802 560.445679,159.787750 
	C560.494141,166.600113 561.061707,173.408386 561.375122,180.219635 
	C561.438477,181.597275 561.586548,183.048248 562.775269,183.811691 
	C566.502258,186.205292 566.488464,189.818481 566.230347,194.029800 
M549.237549,220.849548 
	C556.825989,216.976791 560.203003,210.065765 562.414795,202.384277 
	C563.668274,198.031204 561.560242,195.937790 557.353027,195.184814 
	C550.875061,194.025421 549.014465,194.683899 548.373535,199.510147 
	C547.596741,205.359314 545.545715,210.733414 543.244202,216.075668 
	C542.417542,217.994583 541.266418,219.931549 542.312378,222.171280 
	C544.667908,223.054947 546.583984,221.854630 549.237549,220.849548 
M471.967255,206.385193 
	C471.640320,205.098679 471.263428,203.822525 470.994720,202.523956 
	C469.403748,194.836563 466.321838,193.218674 458.840973,195.879974 
	C456.741760,196.626755 455.759155,197.763260 456.070892,199.889633 
	C457.428802,209.151657 461.880493,216.387100 470.181610,220.998764 
	C471.644592,221.811523 473.408386,222.456802 474.868683,221.213257 
	C476.302826,219.991928 476.032410,218.066803 475.571320,216.523697 
	C474.622375,213.347931 473.354340,210.267548 471.967255,206.385193 
z"/>
<path fill="#000000" opacity="1.000000" stroke="none" 
	d="
M374.073090,309.932678 
	C377.120667,319.868469 377.207214,320.315857 367.520905,322.189331 
	C345.956787,326.360138 333.137634,341.287231 322.189453,358.433197 
	C319.140137,363.208740 315.674713,364.390198 310.527191,363.367493 
	C307.618683,362.789581 306.497437,360.768433 305.184204,358.630402 
	C297.052765,345.391815 287.048767,334.023621 273.082794,326.626495 
	C267.411652,323.622742 261.284668,322.105042 254.989883,321.412262 
	C251.849518,321.066681 250.411255,320.349091 251.326279,316.815216 
	C254.167236,305.843384 257.870819,295.207275 262.784454,284.985779 
	C264.226074,281.986816 265.994354,281.324280 269.135895,282.773773 
	C285.003540,290.095093 301.786133,291.693481 319.077942,291.144501 
	C331.129700,290.761871 342.742096,288.972748 353.991791,284.703827 
	C354.605347,284.471039 355.316559,284.496368 355.931396,284.265778 
	C363.508575,281.423981 363.593567,281.384033 366.481964,288.940674 
	C369.091827,295.768646 372.381653,302.354126 374.073090,309.932678 
M308.030579,318.446198 
	C307.571228,314.500458 305.217377,312.677155 301.387482,312.317200 
	C290.102112,311.256592 278.923676,309.611053 268.340820,305.287201 
	C258.423798,301.235443 257.817322,301.520721 255.866089,312.038910 
	C255.775024,312.529877 255.642395,313.013000 255.544189,313.502777 
	C254.954926,316.441284 255.894302,318.227631 259.045288,318.915955 
	C263.584656,319.907593 268.114532,320.950714 272.356628,323.022095 
	C287.064697,330.203949 297.694641,341.686890 306.535797,355.101410 
	C311.257629,362.265778 316.160950,362.076691 320.935608,354.799591 
	C332.095917,337.790253 345.673828,323.885529 366.560730,319.242828 
	C372.060486,318.020355 372.792572,315.552063 370.581451,308.765350 
	C369.035309,304.019745 366.976990,303.138947 361.712585,305.213226 
	C352.512909,308.838104 342.954224,310.586945 333.135284,311.561371 
	C328.444550,312.026855 322.956696,311.255768 319.963928,316.827759 
	C317.083527,322.190613 313.653564,322.734497 308.030579,318.446198 
z"/>
<path fill="#000000" opacity="1.000000" stroke="none" 
	d="
M475.076599,315.993286 
	C487.807861,322.231964 501.137543,322.229279 514.447571,321.898499 
	C521.216431,321.730255 527.947144,321.388123 534.663025,319.619751 
	C545.527039,316.759064 553.568420,310.283356 560.626770,302.034851 
	C561.947205,300.491760 562.935425,297.087128 565.890137,299.248230 
	C568.921387,301.465332 567.819519,304.028503 565.542847,306.431946 
	C550.219482,322.608276 537.634338,341.085541 522.639221,357.544800 
	C515.620300,365.249084 504.057190,365.933777 497.184937,358.200897 
	C488.162079,348.048157 479.710754,337.387939 470.999939,326.957397 
	C465.370056,320.216034 460.393188,312.916809 453.977661,306.847504 
	C450.981110,304.012665 450.726013,301.293243 454.306885,297.970490 
	C460.926056,304.219971 466.361176,311.790771 475.076599,315.993286 
z"/>
<path fill="#000000" opacity="1.000000" stroke="none" 
	d="
M606.689209,197.064972 
	C609.696289,203.233826 612.433655,209.250153 613.020996,216.018585 
	C613.413025,220.536240 612.087830,224.072891 608.596130,227.026871 
	C605.192932,229.905991 603.440613,229.637253 602.684814,225.085205 
	C601.511230,218.016830 601.239685,210.824783 603.262817,203.833542 
	C603.952576,201.449814 603.512268,198.386658 606.689209,197.064972 
z"/>
</svg>