<svg version="1.1" id="Layer_1" xmlns="http://www.w3.org/2000/svg" xmlns:xlink="http://www.w3.org/1999/xlink" x="0px" y="0px"
	 width="100%" viewBox="0 0 262 230" enable-background="new 0 0 262 230" xml:space="preserve">
<path fill="#F0F7FC" opacity="1.000000" stroke="none" 
	d="
M263.000000,3.000000 
	C263.000000,78.953667 263.000000,154.907333 263.000000,230.930496 
	C175.766296,230.930496 88.532524,230.930496 1.000000,230.930496 
	C1.000000,155.312698 1.000000,79.625008 1.468657,3.468932 
	C88.958206,3.000366 175.979111,3.000183 263.000000,3.000000 
M65.203415,157.441910 
	C65.805870,157.959488 66.408318,158.477081 67.154106,159.352646 
	C67.154106,159.352646 67.228050,159.731110 67.138809,160.491531 
	C69.101097,163.656265 71.063393,166.821014 73.182060,170.327316 
	C73.182060,170.327316 73.269699,170.692627 73.164268,171.442978 
	C74.430199,173.301926 75.696129,175.160858 77.315224,177.574371 
	C77.976013,178.940628 78.636795,180.306885 79.172150,182.411575 
	C79.110443,184.939575 79.048737,187.467560 78.942039,190.636047 
	C78.858986,191.055573 78.775932,191.475098 78.059486,192.134476 
	C78.266869,193.792282 78.474251,195.450073 78.853554,197.784592 
	C79.318665,199.094025 79.783775,200.403458 80.155800,202.452621 
	C81.185104,203.234192 82.214401,204.015778 83.619301,204.899078 
	C83.619301,204.899078 83.975258,205.056305 84.081902,205.691345 
	C85.061440,206.448135 86.040977,207.204926 87.008430,208.813477 
	C87.014153,209.812607 86.872353,210.838470 87.047867,211.806839 
	C89.485588,225.256531 100.618874,230.049866 109.535271,225.907944 
	C118.443092,221.770020 122.548393,214.818222 120.734497,203.792770 
	C119.950447,199.027008 121.184486,195.452271 125.665100,193.098129 
	C128.886475,191.405579 132.051147,189.538467 135.006699,187.421890 
	C139.749817,184.025177 144.808334,183.781952 149.577103,187.124664 
	C150.934799,188.076385 152.210022,189.150284 153.596680,190.055374 
	C159.017365,193.593506 166.007050,193.154892 171.193054,189.371277 
	C177.889374,184.485733 180.166733,177.702240 179.964706,169.848282 
	C179.802689,163.548828 182.095764,158.909378 187.218552,154.955551 
	C191.027252,152.015945 194.160980,147.960449 196.861984,143.912598 
	C198.635696,141.254440 199.103317,137.724762 200.882355,134.678040 
	C201.591019,134.859680 202.299667,135.041336 203.228653,135.676163 
	C203.484955,136.117035 203.741257,136.557907 203.443069,137.541306 
	C202.441788,144.609314 206.927856,152.365250 213.548874,155.013184 
	C220.224274,157.682861 228.319382,155.327408 232.727814,149.492264 
	C237.585236,143.062866 238.899078,135.958115 234.719437,129.039352 
	C230.827316,122.596565 224.853546,118.380531 216.364395,117.668243 
	C215.589417,116.443947 214.814423,115.219658 214.682068,113.900002 
	C214.791168,112.946419 215.290024,111.809296 214.942261,111.070854 
	C213.387405,107.769073 211.628281,104.560669 209.875259,101.355545 
	C204.058685,90.720863 196.270554,81.115227 197.765869,67.478546 
	C198.912277,57.023930 190.846405,49.634506 179.427963,48.626492 
	C178.310242,47.406208 177.192505,46.185928 175.634277,44.490089 
	C174.087173,43.328636 172.540085,42.167183 170.829727,40.248211 
	C167.119247,38.365490 163.608414,37.626972 160.616379,42.463528 
	C159.705536,43.288269 158.794678,44.113010 157.195953,45.057270 
	C156.413101,46.595345 155.630234,48.133415 153.941177,49.812984 
	C139.658279,49.785999 125.375381,49.759014 110.806252,49.040184 
	C106.863731,47.699593 102.921211,46.359001 98.488228,44.721512 
	C97.988167,44.151958 97.488098,43.582405 96.889565,42.294117 
	C90.965012,36.695347 82.512650,38.197506 80.041840,45.890171 
	C79.637207,46.904736 79.232582,47.919296 78.151688,49.153709 
	C78.328140,51.138218 78.504593,53.122726 78.851143,55.814610 
	C79.363640,57.417831 79.876137,59.021053 80.159302,61.497929 
	C80.194702,62.095837 80.230103,62.693748 80.078979,63.937244 
	C79.355698,65.275406 78.632416,66.613564 77.241249,68.094185 
	C76.247940,70.159691 75.254631,72.225197 74.184944,74.669128 
	C74.184944,74.669128 74.035912,75.025269 73.342041,75.111343 
	C71.637711,78.495300 69.933380,81.879265 68.150581,85.645477 
	C68.150581,85.645477 68.004799,86.007454 67.317413,86.105919 
	C65.966492,88.836052 64.615570,91.566177 63.083534,94.926559 
	C62.380955,96.281609 61.678375,97.636665 60.289852,99.109413 
	C59.626461,100.514717 58.963066,101.920021 58.098373,103.972328 
	C57.045277,105.970177 55.992180,107.968033 54.070782,109.979233 
	C50.704357,110.963860 47.337933,111.948494 43.487507,113.364769 
	C42.295914,114.896957 41.104317,116.429138 39.357807,118.040901 
	C39.224251,118.690536 39.090694,119.340172 38.925842,120.866264 
	C38.951653,122.911613 38.977467,124.956963 38.561646,127.338303 
	C39.030781,127.896187 39.499916,128.454071 40.293903,129.551712 
	C41.195171,130.704407 42.096439,131.857086 43.078934,133.662811 
	C44.399364,134.753464 45.719795,135.844131 47.012039,137.806595 
	C46.999371,148.802414 54.603466,156.766968 65.246811,156.754257 
	C65.246811,156.754257 65.353554,156.777145 65.203415,157.441910 
z"/>
<path fill="#FCFEFE" opacity="1.000000" stroke="none" 
	d="
M263.000000,2.500000 
	C175.979111,3.000183 88.958206,3.000366 1.468657,3.000274 
	C1.166667,2.333333 1.229735,1.149261 1.518317,1.091479 
	C2.640014,0.866886 3.833333,1.000000 5.000000,1.000000 
	C89.666664,1.000000 174.333328,0.995416 258.999969,1.041571 
	C260.333496,1.042298 261.666656,1.666666 263.000000,2.500000 
z"/>
<path fill="#61B3F8" opacity="1.000000" stroke="none" 
	d="
M111.092484,49.732025 
	C125.375381,49.759014 139.658279,49.785999 154.727936,49.713394 
	C156.304413,48.055119 157.094131,46.496441 157.883820,44.937759 
	C158.794678,44.113010 159.705536,43.288269 161.208313,42.183853 
	C164.864502,41.604694 167.928741,41.305214 170.992981,41.005733 
	C172.540085,42.167183 174.087173,43.328636 175.875824,45.109085 
	C176.887375,48.503601 177.657379,51.279118 178.299042,54.429596 
	C174.989487,60.176117 176.332092,64.879128 179.357224,70.057152 
	C186.237579,81.834106 192.680374,93.878448 198.936401,106.002266 
	C201.244736,110.475677 204.420517,111.793739 209.275909,111.239624 
	C211.055969,112.270538 212.547699,113.132950 214.039444,113.995361 
	C214.814423,115.219658 215.589417,116.443947 216.624420,118.204025 
	C217.214981,119.818901 217.545532,120.897995 217.836365,122.296883 
	C217.792450,123.044983 217.788269,123.473297 217.582733,124.193207 
	C215.597672,132.535294 212.643738,134.742188 203.008331,135.222977 
	C202.299667,135.041336 201.591019,134.859680 200.340195,134.372070 
	C197.688995,130.395905 195.579956,126.725693 193.625870,122.748161 
	C194.477692,120.762131 195.373230,119.133934 195.816498,117.390724 
	C196.274551,115.589386 197.095947,113.255020 196.374451,111.879982 
	C191.445328,102.486031 186.151749,93.283302 180.963287,83.684952 
	C180.283508,82.240738 179.616119,81.130478 178.939056,79.692780 
	C178.259262,78.250732 177.589142,77.136131 176.906631,75.660675 
	C174.354141,69.140991 172.010239,62.778538 163.373520,63.648174 
	C162.604889,63.725567 161.782303,63.267128 160.743301,62.833923 
	C159.020920,61.372253 157.540024,60.134220 156.062607,58.468369 
	C154.905396,57.216576 153.760971,55.702370 152.581528,55.674591 
	C139.730316,55.371922 126.873627,55.301907 113.586182,55.092316 
	C111.109528,55.050125 109.065125,55.084171 106.604187,55.052757 
	C100.300659,55.011707 97.327087,58.721146 99.001190,64.369423 
	C100.357758,66.812012 101.650986,68.916336 102.986908,71.392883 
	C104.619316,77.889244 110.152275,75.637032 114.247398,77.096786 
	C114.977722,77.524109 115.474197,77.790527 116.115700,78.357086 
	C117.597374,80.748772 118.934021,82.840309 120.228111,85.302773 
	C120.046516,87.912445 120.361137,90.300491 119.682762,92.361725 
	C117.705467,98.369667 112.663315,100.115700 106.726746,100.655624 
	C106.487442,100.653740 106.024254,100.774254 105.733849,100.620331 
	C103.334885,98.892418 101.226334,97.318413 99.087952,95.382034 
	C98.652618,93.361565 98.247093,91.703468 97.903397,89.635605 
	C98.226944,87.610519 97.989960,85.641930 98.839333,84.442886 
	C102.005165,79.973717 100.543053,76.094002 97.980179,72.138489 
	C96.814049,70.338715 95.840897,68.414673 94.694664,66.601067 
	C93.312218,64.413750 91.586876,63.123795 88.708618,64.841919 
	C88.253700,64.811348 88.070930,64.813927 87.703262,64.786484 
	C87.518364,64.756454 87.152313,64.836258 86.840553,64.904602 
	C86.223381,65.261368 85.917969,65.549789 85.336182,66.026276 
	C77.018829,80.652061 69.103416,95.162148 60.851578,109.478325 
	C58.697010,113.216301 58.397617,116.153175 61.633999,119.544708 
	C61.771111,120.953438 61.866863,121.979584 61.922493,123.338715 
	C61.904850,124.117645 61.927330,124.563614 61.895535,125.322342 
	C61.784668,126.054588 61.728077,126.474083 61.433285,127.086662 
	C60.804409,128.191223 60.413731,129.102676 59.747528,130.254501 
	C59.793148,132.520050 59.597298,134.824539 60.516735,136.526535 
	C68.296738,150.928268 76.359505,165.177292 84.133331,179.582291 
	C85.624336,182.345123 87.215614,183.206711 90.374718,182.015610 
	C91.984024,181.095001 93.222862,180.127441 94.764633,179.035004 
	C95.785423,177.347733 96.503281,175.785324 97.167480,174.230560 
	C97.113823,174.238220 97.211182,174.195419 97.510788,174.118805 
	C98.181129,173.357437 98.551872,172.672668 99.030182,171.750000 
	C99.188858,171.169846 99.239975,170.827560 99.547470,170.352585 
	C99.890999,169.473083 99.978149,168.726288 100.007050,167.628723 
	C99.233299,165.527405 98.517807,163.776825 97.872864,161.622742 
	C97.865402,160.134659 97.787407,159.050095 97.809021,157.647934 
	C97.949387,156.889557 97.990143,156.448807 98.283333,155.803894 
	C99.025658,154.401657 99.515541,153.203552 100.265945,151.869690 
	C101.010017,151.135162 101.493584,150.536407 102.296387,149.921371 
	C103.197792,149.334824 103.779961,148.764557 104.639389,148.183624 
	C105.272285,148.073669 105.627922,147.974380 106.408707,147.925659 
	C109.554993,148.318054 112.276138,148.659851 115.228157,149.215240 
	C116.635040,150.621841 117.811043,151.814865 119.032715,153.394806 
	C121.272644,159.755630 126.241714,156.326874 130.372299,157.049194 
	C131.495926,157.067261 132.246216,157.040588 133.204926,157.237045 
	C134.342163,157.050476 135.270966,156.640762 136.111557,156.141388 
	C136.023346,156.051697 136.219681,156.208893 136.535217,156.154800 
	C137.264999,155.409286 137.679230,154.717850 138.161804,153.876740 
	C138.230133,153.727051 138.216431,153.398239 138.503326,153.256195 
	C139.220978,152.423172 139.651718,151.732162 140.297073,150.941498 
	C140.780167,150.649338 140.955124,150.393005 141.410156,150.007874 
	C145.230408,149.126770 148.677048,148.310669 152.446259,147.370865 
	C153.913742,145.623566 155.058655,143.999954 156.517059,142.222534 
	C157.868591,140.388916 159.349609,138.819351 159.803986,136.994217 
	C160.164719,135.545258 159.268814,133.783447 158.822952,131.885559 
	C158.162628,131.064072 157.610229,130.517563 157.005096,129.565750 
	C156.955902,125.105583 156.959442,121.050735 157.142700,116.759010 
	C157.902557,115.722847 158.482697,114.923553 159.435638,114.035950 
	C163.095047,113.307228 166.561920,111.718445 169.616409,112.299065 
	C172.541672,112.855118 175.038635,115.664352 177.716507,117.743637 
	C177.801819,118.337334 177.894485,118.670700 177.977325,119.334625 
	C178.279053,120.453323 178.590637,121.241478 178.871338,122.423248 
	C178.836502,123.869301 178.832535,124.921745 178.583038,126.205559 
	C177.174088,131.538559 173.424347,134.051971 168.579163,135.854858 
	C166.445984,137.913254 164.672318,139.945755 162.723587,142.273041 
	C160.201630,147.113098 155.595108,151.269012 159.997574,157.401840 
	C159.965210,159.209061 159.999191,160.602997 159.784210,162.215027 
	C159.378296,163.291016 159.221359,164.148895 158.899673,165.259094 
	C158.443588,166.249695 158.152267,166.987930 157.527237,167.841522 
	C154.122910,169.345230 151.052292,170.733612 147.654510,172.063721 
	C146.884857,172.004425 146.442368,172.003372 145.827454,171.761841 
	C145.095062,171.398682 144.535110,171.276016 143.673676,171.028259 
	C142.288361,170.208450 141.204514,169.513733 140.025192,168.488571 
	C137.866837,165.478531 136.830276,161.366898 131.691162,162.366409 
	C130.218918,162.457397 129.090408,162.681900 127.565407,162.877975 
	C126.110222,162.881592 125.051521,162.913620 123.612328,162.906372 
	C121.807930,164.239304 120.384018,165.611496 118.674568,167.121613 
	C117.529282,168.390350 116.669533,169.521164 115.459305,170.689728 
	C114.070709,171.149826 113.032593,171.572189 111.593750,171.969299 
	C110.125237,172.005142 109.057426,172.066238 107.620117,172.055084 
	C100.930443,174.432587 97.423882,184.378052 100.903908,190.418915 
	C101.108170,191.522171 101.291382,192.249878 101.381721,193.299957 
	C101.314003,194.066528 101.339157,194.510712 101.244217,195.326401 
	C100.475426,200.807693 97.419823,204.045837 92.539658,206.150696 
	C89.403091,205.757141 86.689178,205.406723 83.975258,205.056305 
	C83.975258,205.056305 83.619301,204.899078 83.340134,204.539124 
	C82.123596,203.357086 81.186241,202.534988 80.248886,201.712891 
	C79.783775,200.403458 79.318665,199.094025 78.860222,197.017487 
	C78.808884,194.798462 78.750877,193.346542 78.692879,191.894623 
	C78.775932,191.475098 78.858986,191.055573 79.231979,190.112503 
	C81.058601,186.904678 83.452286,184.196121 79.297585,181.673141 
	C78.636795,180.306885 77.976013,178.940628 77.124931,176.943359 
	C75.712990,174.439102 74.491341,172.565872 73.269699,170.692627 
	C73.269699,170.692627 73.182060,170.327316 73.079208,169.796021 
	C71.060249,166.086853 69.144150,162.908981 67.228050,159.731110 
	C67.228050,159.731110 67.154106,159.352646 67.069183,158.864075 
	C66.440681,157.842712 65.897118,157.309921 65.353554,156.777145 
	C65.353554,156.777145 65.246811,156.754257 65.231079,156.493500 
	C65.123558,155.829697 65.031769,155.426620 64.923660,154.666245 
	C61.723156,148.476440 58.593121,142.612991 55.295052,136.845627 
	C54.813194,136.002975 53.604080,135.331482 52.604599,135.074814 
	C49.434616,134.260651 46.204548,133.680435 42.997707,133.009781 
	C42.096439,131.857086 41.195171,130.704407 40.137020,128.981750 
	C39.654518,127.941963 39.328896,127.472137 39.003273,127.002312 
	C38.977467,124.956963 38.951653,122.911613 39.196304,120.263824 
	C39.615417,119.094696 39.764069,118.528008 39.912720,117.961319 
	C41.104317,116.429138 42.295914,114.896957 44.134586,113.128044 
	C46.519272,112.565117 48.293095,112.364616 49.984318,111.877403 
	C51.678829,111.389229 53.290882,110.614822 54.939079,109.965881 
	C55.992180,107.968033 57.045277,105.970177 58.496799,103.508881 
	C59.588749,101.694191 60.282272,100.342949 60.975796,98.991714 
	C61.678375,97.636665 62.380955,96.281609 63.481743,94.473251 
	C65.254898,91.349106 66.629845,88.678276 68.004799,86.007454 
	C68.004799,86.007454 68.150581,85.645477 68.500610,85.319763 
	C70.579063,81.671120 72.307487,78.348190 74.035912,75.025269 
	C74.035912,75.025269 74.184944,74.669128 74.526291,74.338638 
	C75.881477,71.989342 76.895309,69.970535 77.909134,67.951721 
	C78.632416,66.613564 79.355698,65.275406 80.428558,63.503929 
	C80.648308,62.255169 80.518463,61.439724 80.388626,60.624275 
	C79.876137,59.021053 79.363640,57.417831 78.856781,55.025959 
	C78.850929,52.469494 78.839439,50.701675 78.827950,48.933861 
	C79.232582,47.919296 79.637207,46.904736 80.458344,45.459793 
	C85.703056,40.019547 91.165611,40.078495 96.988029,43.012856 
	C97.488098,43.582405 97.988167,44.151958 98.782089,45.244026 
	C101.236137,52.680202 106.747620,49.438515 111.092484,49.732025 
M202.972656,117.781357 
	C198.927109,118.932632 199.283066,122.477127 200.067535,125.021820 
	C200.674911,126.992020 203.292908,128.342377 205.447784,130.482956 
	C209.713943,130.980515 212.260300,128.350006 212.566589,124.837982 
	C212.779221,122.399879 211.126770,119.378258 209.414368,117.384514 
	C208.647842,116.492050 205.691483,117.480408 202.972656,117.781357 
M103.723152,84.597534 
	C101.596291,87.558983 101.679733,90.851128 104.185394,93.074219 
	C105.746239,94.459045 108.664299,94.314140 111.685608,94.870682 
	C113.072479,92.315979 115.463951,89.782104 115.517471,87.199768 
	C115.557793,85.253792 112.924202,82.205521 110.885582,81.576248 
	C109.074036,81.017067 106.443832,83.110039 103.723152,84.597534 
M86.207306,188.914642 
	C81.427475,193.429764 82.008141,197.986694 87.980034,201.011536 
	C91.965324,203.187744 94.185814,200.642426 95.948303,197.746994 
	C97.837105,194.644058 97.024605,191.522675 94.454315,189.248993 
	C92.293106,187.337173 89.674225,185.445145 86.207306,188.914642 
M85.531425,47.031101 
	C82.265266,50.507221 82.052185,54.135944 85.283676,57.680115 
	C87.871971,60.518848 91.182304,60.401764 93.794746,58.149593 
	C96.827827,55.534767 97.685928,52.013294 95.161766,48.327629 
	C92.733971,44.782669 89.690697,44.330227 85.531425,47.031101 
M173.468018,54.801029 
	C174.091522,49.648926 172.380814,46.334095 168.391388,45.436909 
	C164.750595,44.618122 161.515427,46.294987 161.031662,49.617092 
	C160.626465,52.399704 161.550659,56.785812 163.510208,58.181034 
	C166.654434,60.419739 170.909821,60.011063 173.468018,54.801029 
M164.453873,116.776756 
	C160.357529,119.116165 158.947449,122.452408 161.046341,126.809181 
	C162.861496,130.576950 166.212311,130.725662 169.586853,129.599457 
	C173.144989,128.411987 174.383942,125.226646 173.638626,121.991714 
	C172.682526,117.841949 169.821533,115.471161 164.453873,116.776756 
M56.277798,120.501076 
	C54.521194,117.298126 52.043125,115.255241 48.241306,116.560936 
	C44.501198,117.845436 42.464321,120.833038 43.395962,124.667854 
	C44.280113,128.307220 46.971081,130.572693 51.120304,130.032745 
	C55.346558,129.482788 57.050091,126.667458 56.277798,120.501076 
M105.136909,165.458771 
	C109.905907,167.647812 113.559166,166.507019 115.350250,162.269470 
	C116.840736,158.743134 115.400970,154.984711 111.989975,153.497635 
	C108.221771,151.854843 103.691917,153.579865 102.896805,157.684387 
	C102.464012,159.918549 103.943222,162.523087 105.136909,165.458771 
M153.907410,155.763702 
	C152.023407,152.657639 148.926224,152.108032 146.120789,153.355148 
	C144.334763,154.149109 142.137756,156.678009 142.199020,158.353104 
	C142.294067,160.951767 143.585678,164.133362 145.482208,165.808990 
	C146.656326,166.846344 150.246124,166.199875 152.120209,165.165466 
	C155.515152,163.291595 155.724167,159.920975 153.907410,155.763702 
z"/>
<path fill="#E7EEF4" opacity="1.000000" stroke="none" 
	d="
M193.470917,123.055489 
	C195.579956,126.725693 197.688995,130.395905 199.976944,134.325745 
	C199.103317,137.724762 198.635696,141.254440 196.861984,143.912598 
	C194.160980,147.960449 191.027252,152.015945 187.218552,154.955551 
	C182.095764,158.909378 179.802689,163.548828 179.964706,169.848282 
	C180.166733,177.702240 177.889374,184.485733 171.193054,189.371277 
	C166.007050,193.154892 159.017365,193.593506 153.596680,190.055374 
	C152.210022,189.150284 150.934799,188.076385 149.577103,187.124664 
	C144.808334,183.781952 139.749817,184.025177 135.006699,187.421890 
	C132.051147,189.538467 128.886475,191.405579 125.665100,193.098129 
	C121.184486,195.452271 119.950447,199.027008 120.734497,203.792770 
	C122.548393,214.818222 118.443092,221.770020 109.535271,225.907944 
	C100.618874,230.049866 89.485588,225.256531 87.047867,211.806839 
	C86.872353,210.838470 87.014153,209.812607 87.411667,208.391785 
	C88.875877,207.977417 89.936852,207.984741 90.999283,208.388641 
	C92.084167,215.973755 95.830933,221.092484 100.624786,221.933334 
	C106.717209,223.001953 112.656944,220.707642 114.686165,215.081284 
	C116.071693,211.239639 115.783562,206.637207 115.558823,202.411362 
	C115.271767,197.013596 117.553200,191.935989 121.991508,189.482254 
	C126.613518,186.926971 131.123764,184.170151 135.732254,181.589615 
	C140.252945,179.058289 144.852341,179.035919 149.348038,181.653778 
	C151.355179,182.822510 153.239334,184.204636 155.163727,185.512817 
	C163.348175,191.076660 174.705414,185.191254 174.748337,175.998260 
	C174.787796,167.546982 176.276489,159.955017 181.263824,152.893677 
	C182.013519,152.521973 182.506149,152.259796 183.347443,151.960632 
	C192.938950,146.810364 195.413406,141.250961 191.966080,131.581451 
	C190.394516,127.173378 184.623077,124.390839 179.704361,125.978828 
	C179.217819,125.975105 179.023209,125.974648 178.828583,125.974182 
	C178.832535,124.921745 178.836502,123.869301 179.143219,122.316536 
	C179.958069,121.544151 180.470154,121.272095 181.415161,120.999619 
	C185.722336,121.684631 189.596634,122.370064 193.470917,123.055489 
z"/>
<path fill="#E7EEF4" opacity="1.000000" stroke="none" 
	d="
M214.360748,113.947678 
	C212.547699,113.132950 211.055969,112.270538 209.248077,110.873596 
	C207.874374,108.292564 206.808304,106.250397 205.760651,104.198830 
	C199.829117,92.583290 191.159317,82.117004 192.832047,67.577232 
	C193.750839,59.590839 188.284851,54.598412 179.970200,53.579559 
	C179.961411,51.790237 179.948013,50.414539 179.934601,49.038841 
	C190.846405,49.634506 198.912277,57.023930 197.765869,67.478546 
	C196.270554,81.115227 204.058685,90.720863 209.875259,101.355545 
	C211.628281,104.560669 213.387405,107.769073 214.942261,111.070854 
	C215.290024,111.809296 214.791168,112.946419 214.360748,113.947678 
z"/>
<path fill="#E7EEF4" opacity="1.000000" stroke="none" 
	d="
M217.876068,121.977089 
	C217.545532,120.897995 217.214981,119.818901 216.865311,118.400642 
	C224.853546,118.380531 230.827316,122.596565 234.719437,129.039352 
	C238.899078,135.958115 237.585236,143.062866 232.727814,149.492264 
	C228.319382,155.327408 220.224274,157.682861 213.548874,155.013184 
	C206.927856,152.365250 202.441788,144.609314 204.095001,137.268921 
	C205.496201,137.001205 206.245438,137.005875 206.996780,137.408173 
	C207.515259,139.884644 207.780838,142.068420 208.597870,144.021484 
	C210.573776,148.744705 216.746765,152.559982 220.849136,151.863022 
	C226.257065,150.944229 231.214310,146.151550 231.958664,141.122299 
	C233.047165,133.767700 230.771637,128.588623 225.025604,125.528809 
	C222.677750,124.278557 220.261322,123.157127 217.876068,121.977089 
z"/>
<path fill="#D4DFE8" opacity="1.000000" stroke="none" 
	d="
M206.994690,137.010559 
	C206.245438,137.005875 205.496201,137.001205 204.372253,136.997650 
	C203.741257,136.557907 203.484955,136.117035 203.118500,135.449570 
	C212.643738,134.742188 215.597672,132.535294 217.918365,124.339226 
	C221.097855,125.868683 223.862381,127.381599 226.353958,129.257141 
	C229.999969,132.001678 231.009995,137.422394 229.024246,142.366440 
	C227.297470,146.665680 223.858368,148.727142 219.435684,148.922623 
	C215.117386,149.113525 211.470505,145.672211 209.921356,141.000015 
	C209.427475,139.510483 207.996750,138.331573 206.994690,137.010559 
M221.298279,133.312164 
	C220.237350,133.721664 218.653152,133.836197 218.222137,134.600784 
	C217.262619,136.302872 216.278091,138.406815 216.506027,140.193604 
	C216.627014,141.141937 219.697983,142.754623 220.661743,142.325516 
	C222.363098,141.568024 224.108871,139.652527 224.593628,137.881668 
	C224.895020,136.780640 222.911102,135.054047 221.298279,133.312164 
z"/>
<path fill="#C2DEF5" opacity="1.000000" stroke="none" 
	d="
M43.038322,133.336304 
	C46.204548,133.680435 49.434616,134.260651 52.604599,135.074814 
	C53.604080,135.331482 54.813194,136.002975 55.295052,136.845627 
	C58.593121,142.612991 61.723156,148.476440 64.589050,154.606537 
	C62.328918,153.465683 60.253639,152.173843 58.475628,150.555420 
	C55.610825,147.947708 51.934731,145.974380 51.814960,141.202225 
	C51.748295,138.546082 50.402061,136.371811 47.040226,136.934784 
	C45.719795,135.844131 44.399364,134.753464 43.038322,133.336304 
z"/>
<path fill="#E9EFF5" opacity="1.000000" stroke="none" 
	d="
M47.026131,137.370697 
	C50.402061,136.371811 51.748295,138.546082 51.814960,141.202225 
	C51.934731,145.974380 55.610825,147.947708 58.475628,150.555420 
	C60.253639,152.173843 62.328918,153.465683 64.605370,154.963837 
	C65.031769,155.426620 65.123558,155.829697 65.204041,156.540924 
	C54.603466,156.766968 46.999371,148.802414 47.026131,137.370697 
z"/>
<path fill="#C2DEF5" opacity="1.000000" stroke="none" 
	d="
M96.938797,42.653488 
	C91.165611,40.078495 85.703056,40.019547 80.546486,45.143196 
	C82.512650,38.197506 90.965012,36.695347 96.938797,42.653488 
z"/>
<path fill="#C2DEF5" opacity="1.000000" stroke="none" 
	d="
M110.949371,49.386105 
	C106.747620,49.438515 101.236137,52.680202 99.027313,45.392471 
	C102.921211,46.359001 106.863731,47.699593 110.949371,49.386105 
z"/>
<path fill="#C2DEF5" opacity="1.000000" stroke="none" 
	d="
M170.911346,40.626972 
	C167.928741,41.305214 164.864502,41.604694 161.391953,41.935234 
	C163.608414,37.626972 167.119247,38.365490 170.911346,40.626972 
z"/>
<path fill="#C2DEF5" opacity="1.000000" stroke="none" 
	d="
M67.183426,160.111328 
	C69.144150,162.908981 71.060249,166.086853 73.001022,169.625244 
	C71.063393,166.821014 69.101097,163.656265 67.183426,160.111328 
z"/>
<path fill="#C2DEF5" opacity="1.000000" stroke="none" 
	d="
M54.504929,109.972557 
	C53.290882,110.614822 51.678829,111.389229 49.984318,111.877403 
	C48.293095,112.364616 46.519272,112.565117 44.376587,112.912224 
	C47.337933,111.948494 50.704357,110.963860 54.504929,109.972557 
z"/>
<path fill="#C2DEF5" opacity="1.000000" stroke="none" 
	d="
M73.688980,75.068306 
	C72.307487,78.348190 70.579063,81.671120 68.539841,85.128632 
	C69.933380,81.879265 71.637711,78.495300 73.688980,75.068306 
z"/>
<path fill="#C2DEF5" opacity="1.000000" stroke="none" 
	d="
M179.681274,48.832664 
	C179.948013,50.414539 179.961411,51.790237 179.712204,53.584934 
	C179.108841,54.020832 178.768112,54.037735 178.427368,54.054638 
	C177.657379,51.279118 176.887375,48.503601 176.096085,45.346863 
	C177.192505,46.185928 178.310242,47.406208 179.681274,48.832664 
z"/>
<path fill="#C2DEF5" opacity="1.000000" stroke="none" 
	d="
M79.234863,182.042358 
	C83.452286,184.196121 81.058601,186.904678 79.254471,189.792267 
	C79.048737,187.467560 79.110443,184.939575 79.234863,182.042358 
z"/>
<path fill="#C2DEF5" opacity="1.000000" stroke="none" 
	d="
M90.997826,207.992065 
	C89.936852,207.984741 88.875877,207.977417 87.417709,207.965912 
	C86.040977,207.204926 85.061440,206.448135 84.028580,205.373825 
	C86.689178,205.406723 89.403091,205.757141 92.428246,206.374237 
	C92.491890,207.081955 92.244308,207.523010 91.746964,207.969879 
	C91.497208,207.975677 90.997826,207.992065 90.997826,207.992065 
z"/>
<path fill="#C2DEF5" opacity="1.000000" stroke="none" 
	d="
M67.661102,86.056686 
	C66.629845,88.678276 65.254898,91.349106 63.572296,94.158127 
	C64.615570,91.566177 65.966492,88.836052 67.661102,86.056686 
z"/>
<path fill="#C2DEF5" opacity="1.000000" stroke="none" 
	d="
M78.489822,49.043785 
	C78.839439,50.701675 78.850929,52.469494 78.771729,54.672272 
	C78.504593,53.122726 78.328140,51.138218 78.489822,49.043785 
z"/>
<path fill="#C2DEF5" opacity="1.000000" stroke="none" 
	d="
M77.575195,68.022949 
	C76.895309,69.970535 75.881477,71.989342 74.564484,74.149422 
	C75.254631,72.225197 76.247940,70.159691 77.575195,68.022949 
z"/>
<path fill="#C2DEF5" opacity="1.000000" stroke="none" 
	d="
M73.216980,171.067810 
	C74.491341,172.565872 75.712990,174.439102 76.948349,176.666077 
	C75.696129,175.160858 74.430199,173.301926 73.216980,171.067810 
z"/>
<path fill="#C2DEF5" opacity="1.000000" stroke="none" 
	d="
M157.539886,44.997517 
	C157.094131,46.496441 156.304413,48.055119 155.181030,49.642643 
	C155.630234,48.133415 156.413101,46.595345 157.539886,44.997517 
z"/>
<path fill="#C2DEF5" opacity="1.000000" stroke="none" 
	d="
M78.376183,192.014557 
	C78.750877,193.346542 78.808884,194.798462 78.774261,196.679138 
	C78.474251,195.450073 78.266869,193.792282 78.376183,192.014557 
z"/>
<path fill="#C2DEF5" opacity="1.000000" stroke="none" 
	d="
M60.632824,99.050568 
	C60.282272,100.342949 59.588749,101.694191 58.597450,103.185379 
	C58.963066,101.920021 59.626461,100.514717 60.632824,99.050568 
z"/>
<path fill="#C2DEF5" opacity="1.000000" stroke="none" 
	d="
M80.202347,202.082764 
	C81.186241,202.534988 82.123596,203.357086 83.152328,204.488281 
	C82.214401,204.015778 81.185104,203.234192 80.202347,202.082764 
z"/>
<path fill="#C2DEF5" opacity="1.000000" stroke="none" 
	d="
M65.278488,157.109528 
	C65.897118,157.309921 66.440681,157.842712 66.997513,158.685074 
	C66.408318,158.477081 65.805870,157.959488 65.278488,157.109528 
z"/>
<path fill="#C2DEF5" opacity="1.000000" stroke="none" 
	d="
M80.273956,61.061104 
	C80.518463,61.439724 80.648308,62.255169 80.521820,63.181137 
	C80.230103,62.693748 80.194702,62.095837 80.273956,61.061104 
z"/>
<path fill="#C2DEF5" opacity="1.000000" stroke="none" 
	d="
M39.635262,118.001114 
	C39.764069,118.528008 39.615417,119.094696 39.211952,119.825592 
	C39.090694,119.340172 39.224251,118.690536 39.635262,118.001114 
z"/>
<path fill="#C2DEF5" opacity="1.000000" stroke="none" 
	d="
M38.782459,127.170303 
	C39.328896,127.472137 39.654518,127.941963 39.974594,128.711884 
	C39.499916,128.454071 39.030781,127.896187 38.782459,127.170303 
z"/>
<path fill="#EFF6FC" opacity="1.000000" stroke="none" 
	d="
M193.625854,122.748169 
	C189.596634,122.370064 185.722336,121.684631 181.360626,120.657745 
	C179.911194,119.878876 178.949158,119.441467 177.987152,119.004066 
	C177.894485,118.670700 177.801819,118.337334 177.777954,117.353706 
	C176.714844,115.143066 175.855728,113.238525 174.400986,112.085495 
	C169.634598,108.307678 161.259476,109.545341 159.062836,114.124268 
	C158.482697,114.923553 157.902557,115.722847 156.779175,116.830444 
	C152.820404,122.509865 153.091644,126.744705 157.057831,129.971069 
	C157.610229,130.517563 158.162628,131.064072 158.837036,132.263397 
	C158.040558,136.069611 157.122070,139.222977 156.203583,142.376343 
	C155.058655,143.999954 153.913742,145.623566 152.233765,147.004807 
	C147.408234,145.493988 143.570160,145.682693 141.036575,150.072861 
	C140.955124,150.393005 140.780167,150.649338 139.940369,150.977478 
	C138.984818,151.874817 138.600632,152.636520 138.216431,153.398239 
	C138.216431,153.398239 138.230133,153.727051 137.819000,153.911957 
	C137.011795,154.800873 136.615738,155.504883 136.219681,156.208893 
	C136.219681,156.208893 136.023346,156.051697 135.755127,156.065125 
	C134.656784,156.390335 133.826645,156.702118 132.996506,157.013901 
	C132.246216,157.040588 131.495926,157.067261 130.285583,156.665100 
	C126.212685,155.160156 122.599861,154.084030 118.987038,153.007904 
	C117.811043,151.814865 116.635040,150.621841 115.163513,148.852203 
	C111.989616,146.298340 109.120888,144.107422 105.983566,147.875092 
	C105.627922,147.974380 105.272285,148.073669 104.285828,148.149658 
	C103.095726,148.730118 102.536438,149.333893 101.977142,149.937653 
	C101.493584,150.536407 101.010017,151.135162 99.940895,151.910355 
	C98.913857,153.393875 98.472382,154.700958 98.030899,156.008041 
	C97.990143,156.448807 97.949387,156.889557 97.500778,157.738464 
	C97.329384,159.439819 97.565857,160.733032 97.802322,162.026260 
	C98.517807,163.776825 99.233299,165.527405 99.727768,167.848572 
	C99.434875,169.107880 99.362984,169.796585 99.291092,170.485291 
	C99.239975,170.827560 99.188858,171.169846 98.707718,171.803574 
	C97.922195,172.795151 97.566681,173.495285 97.211182,174.195419 
	C97.211182,174.195419 97.113823,174.238220 96.782257,174.154053 
	C95.368767,173.202255 93.925423,172.546906 93.269035,171.429337 
	C90.758095,167.154144 89.126884,162.211090 86.023262,158.465240 
	C78.525124,149.415482 80.638832,138.333603 81.828178,129.081345 
	C83.413841,116.746063 90.818390,105.579178 99.117775,95.744415 
	C101.226334,97.318413 103.334885,98.892418 105.725319,101.074478 
	C105.646500,108.041092 107.793907,113.497177 112.518456,117.662918 
	C119.562759,123.874069 131.766174,121.541031 136.649261,113.197433 
	C142.126404,103.838806 140.494781,93.042587 131.811951,87.926720 
	C129.523819,86.578575 126.957779,85.560020 125.001839,83.841110 
	C123.741394,82.733406 123.360344,80.625061 122.585159,78.965179 
	C124.126404,78.309959 125.654930,77.125801 127.211021,77.088387 
	C135.198410,76.896324 143.200516,77.216583 151.182632,76.935753 
	C158.629547,76.673752 165.757614,76.756630 171.495453,82.614578 
	C172.707947,83.852455 174.633713,84.735535 176.357391,85.022774 
	C177.800980,85.263329 179.429214,84.395798 180.975693,84.018913 
	C186.151749,93.283302 191.445328,102.486031 196.374451,111.879982 
	C197.095947,113.255020 196.274551,115.589386 195.816498,117.390724 
	C195.373230,119.133934 194.477692,120.762131 193.625854,122.748169 
z"/>
<path fill="#DEE3E8" opacity="1.000000" stroke="none" 
	d="
M90.999283,208.388641 
	C90.997826,207.992065 91.497208,207.975677 92.112724,207.986237 
	C95.028412,208.632385 96.812775,208.753967 98.759865,206.453003 
	C101.504623,203.209427 104.989868,202.830536 108.103561,206.534927 
	C108.591988,207.116013 109.392601,207.434662 111.548935,208.880386 
	C112.115097,204.454880 112.778137,201.076920 112.918442,197.677399 
	C113.064270,194.143829 111.004898,193.678131 107.911888,194.492828 
	C105.833023,195.040405 103.553856,194.827545 101.364304,194.954895 
	C101.339157,194.510712 101.314003,194.066528 101.736115,193.304138 
	C107.479759,192.497849 110.693687,188.626450 111.023262,182.590927 
	C111.198135,179.388443 111.644379,176.200775 112.288162,173.170868 
	C112.739281,176.983994 112.942108,180.631805 112.985565,184.281509 
	C113.061256,190.639984 114.143723,191.293381 119.779778,188.082077 
	C126.204620,184.421356 132.592438,180.695633 139.434189,176.998856 
	C141.914490,176.999710 143.956940,176.999847 146.257812,176.891083 
	C147.011490,176.520844 147.506729,176.259537 148.114136,176.213989 
	C148.426224,176.698746 148.684479,176.888229 149.052231,177.333298 
	C151.068726,179.112671 153.034058,180.556946 155.168762,182.313995 
	C165.017990,188.335693 172.785858,184.100632 172.998840,172.546570 
	C173.002121,170.301132 172.776093,168.471298 173.050949,166.720093 
	C173.924667,161.153229 174.179062,155.145493 181.006744,153.003189 
	C176.276489,159.955017 174.787796,167.546982 174.748337,175.998260 
	C174.705414,185.191254 163.348175,191.076660 155.163727,185.512817 
	C153.239334,184.204636 151.355179,182.822510 149.348038,181.653778 
	C144.852341,179.035919 140.252945,179.058289 135.732254,181.589615 
	C131.123764,184.170151 126.613518,186.926971 121.991508,189.482254 
	C117.553200,191.935989 115.271767,197.013596 115.558823,202.411362 
	C115.783562,206.637207 116.071693,211.239639 114.686165,215.081284 
	C112.656944,220.707642 106.717209,223.001953 100.624786,221.933334 
	C95.830933,221.092484 92.084167,215.973755 90.999283,208.388641 
z"/>
<path fill="#D8E0E7" opacity="1.000000" stroke="none" 
	d="
M181.263824,152.893677 
	C174.179062,155.145493 173.924667,161.153229 173.050949,166.720093 
	C172.776093,168.471298 173.002121,170.301132 172.653442,172.609406 
	C171.586121,174.313004 170.864258,175.502182 170.004486,176.918533 
	C164.617233,169.067917 164.539215,169.020889 157.984558,168.683044 
	C157.926651,168.150192 157.893784,167.938187 157.860931,167.726181 
	C158.152267,166.987930 158.443588,166.249695 159.235535,165.197617 
	C160.156982,163.915207 160.577789,162.946609 161.220062,161.718201 
	C170.392120,157.483643 172.447159,152.923309 169.841827,143.673431 
	C169.137329,141.172241 169.218246,138.449814 168.938660,135.828934 
	C173.424347,134.051971 177.174088,131.538559 178.583038,126.205559 
	C179.023209,125.974648 179.217819,125.975105 179.913910,126.258049 
	C180.840286,126.798439 181.240158,127.116508 181.693802,127.305428 
	C192.464294,131.790909 194.002136,139.229797 185.968246,147.593460 
	C184.759796,148.851517 183.977951,150.519348 182.998779,151.997635 
	C182.506149,152.259796 182.013519,152.521973 181.263824,152.893677 
z"/>
<path fill="#DBE4EB" opacity="1.000000" stroke="none" 
	d="
M176.919006,76.021538 
	C177.589142,77.136131 178.259262,78.250732 178.555145,79.690292 
	C175.982758,79.037933 173.818390,77.973946 171.579376,77.101532 
	C167.072739,75.345528 162.603302,72.543770 157.979202,72.230591 
	C147.246323,71.503670 136.428452,72.126579 125.649544,71.940742 
	C120.885284,71.858604 117.673645,73.604576 115.970673,78.056946 
	C115.474197,77.790527 114.977722,77.524109 114.252518,76.738388 
	C116.232544,73.110329 118.441284,70.001572 121.252335,66.045074 
	C117.561584,63.751728 113.806580,61.607140 110.282654,59.133377 
	C108.924896,58.180244 108.092484,56.478748 107.020721,55.118217 
	C109.065125,55.084171 111.109528,55.050125 113.593399,55.440758 
	C116.963257,57.908115 119.777100,61.477989 122.845528,61.712173 
	C132.747742,62.467918 142.746017,62.095753 152.700226,61.860661 
	C153.842560,61.833679 154.940567,59.929817 156.059128,58.896187 
	C157.540024,60.134220 159.020920,61.372253 160.805328,63.171303 
	C166.378891,67.828720 171.648941,71.925133 176.919006,76.021538 
z"/>
<path fill="#E9EFF5" opacity="1.000000" stroke="none" 
	d="
M116.115700,78.357086 
	C117.673645,73.604576 120.885284,71.858604 125.649544,71.940742 
	C136.428452,72.126579 147.246323,71.503670 157.979202,72.230591 
	C162.603302,72.543770 167.072739,75.345528 171.579376,77.101532 
	C173.818390,77.973946 175.982758,79.037933 178.564819,80.017738 
	C179.616119,81.130478 180.283508,82.240738 180.963287,83.684952 
	C179.429214,84.395798 177.800980,85.263329 176.357391,85.022774 
	C174.633713,84.735535 172.707947,83.852455 171.495453,82.614578 
	C165.757614,76.756630 158.629547,76.673752 151.182632,76.935753 
	C143.200516,77.216583 135.198410,76.896324 127.211021,77.088387 
	C125.654930,77.125801 124.126404,78.309959 122.585159,78.965179 
	C123.360344,80.625061 123.741394,82.733406 125.001839,83.841110 
	C126.957779,85.560020 129.523819,86.578575 131.811951,87.926720 
	C140.494781,93.042587 142.126404,103.838806 136.649261,113.197433 
	C131.766174,121.541031 119.562759,123.874069 112.518456,117.662918 
	C107.793907,113.497177 105.646500,108.041092 106.015724,101.228401 
	C106.024254,100.774254 106.487442,100.653740 106.861534,100.960648 
	C107.823448,101.512581 108.411263,101.757614 108.999222,102.420418 
	C109.146912,111.633408 115.249512,118.112198 123.280251,117.999435 
	C131.020126,117.890747 137.031342,111.219696 137.000000,102.773720 
	C136.970291,94.768829 132.085739,89.307999 121.851814,85.773682 
	C121.228127,85.341911 120.749397,85.136879 120.270676,84.931847 
	C118.934021,82.840309 117.597374,80.748772 116.115700,78.357086 
z"/>
<path fill="#D4DFE8" opacity="1.000000" stroke="none" 
	d="
M178.299042,54.429596 
	C178.768112,54.037735 179.108841,54.020832 179.707581,53.998558 
	C188.284851,54.598412 193.750839,59.590839 192.832047,67.577232 
	C191.159317,82.117004 199.829117,92.583290 205.760651,104.198830 
	C206.808304,106.250397 207.874374,108.292564 208.959763,110.705093 
	C204.420517,111.793739 201.244736,110.475677 198.936401,106.002266 
	C192.680374,93.878448 186.237579,81.834106 179.357224,70.057152 
	C176.332092,64.879128 174.989487,60.176117 178.299042,54.429596 
z"/>
<path fill="#E8F2FA" opacity="1.000000" stroke="none" 
	d="
M61.592636,119.162140 
	C58.397617,116.153175 58.697010,113.216301 60.851578,109.478325 
	C69.103416,95.162148 77.018829,80.652061 85.696045,66.074745 
	C86.572266,65.946198 86.812256,65.957245 87.287094,65.964859 
	C87.521935,65.961411 87.991638,65.966751 87.945816,66.362610 
	C87.665459,68.540527 87.440582,70.323906 87.194321,72.104340 
	C86.712242,75.589790 87.070923,79.501656 85.575317,82.480835 
	C80.289970,93.008995 74.557350,103.329765 68.549843,113.465729 
	C67.114128,115.888084 63.957664,117.290581 61.592636,119.162140 
z"/>
<path fill="#DAEAF6" opacity="1.000000" stroke="none" 
	d="
M99.087952,95.382034 
	C90.818390,105.579178 83.413841,116.746063 81.828178,129.081345 
	C80.638832,138.333603 78.525124,149.415482 86.023262,158.465240 
	C89.126884,162.211090 90.758095,167.154144 93.269035,171.429337 
	C93.925423,172.546906 95.368767,173.202255 96.835915,174.146393 
	C96.503281,175.785324 95.785423,177.347733 94.370613,178.966949 
	C92.872314,178.495682 91.701920,178.154510 91.325523,177.411255 
	C86.436798,167.757767 81.677887,158.038589 76.815926,148.371338 
	C76.508728,147.760544 75.620064,147.442200 75.001938,146.573059 
	C75.001999,144.775879 75.002037,143.393417 75.384705,141.918182 
	C77.272980,138.727081 78.571358,135.646713 75.002037,132.572998 
	C75.002167,130.776352 75.002304,129.394592 75.358032,127.943253 
	C77.027977,125.114914 78.218468,122.288651 79.678795,119.609444 
	C85.080765,109.698677 90.571823,99.836456 96.331635,89.972404 
	C97.036446,90.007668 97.439003,90.026520 97.841568,90.045380 
	C98.247093,91.703468 98.652618,93.361565 99.087952,95.382034 
z"/>
<path fill="#DFE4E9" opacity="1.000000" stroke="none" 
	d="
M96.029396,89.955994 
	C90.571823,99.836456 85.080765,109.698677 79.678795,119.609444 
	C78.218468,122.288651 77.027977,125.114914 75.355621,127.506607 
	C75.492569,123.287804 75.987518,119.436066 76.482475,115.584320 
	C76.164825,115.448242 75.847183,115.312164 75.529541,115.176086 
	C73.356285,118.118820 71.183029,121.061554 68.676208,124.005844 
	C67.898026,124.011650 67.453407,124.015892 66.640594,124.055649 
	C64.831543,124.397285 63.390675,124.703423 61.949810,125.009567 
	C61.927330,124.563614 61.904850,124.117645 62.297134,123.330849 
	C65.672935,120.598785 69.317665,118.694023 71.442467,115.707794 
	C75.065163,110.616371 77.944260,104.951462 80.756973,99.337692 
	C86.025307,88.822815 93.385330,78.894547 91.327103,66.169296 
	C92.297050,68.503998 93.189957,70.641273 93.514702,72.861641 
	C93.884644,75.391045 92.772507,78.735207 94.041489,80.406113 
	C96.418045,83.535416 96.394196,86.569016 96.029396,89.955994 
M77.453987,112.713577 
	C77.716095,112.988716 77.978203,113.263855 78.240311,113.538986 
	C78.354233,113.430382 78.468155,113.321770 78.582069,113.213158 
	C78.319649,112.937981 78.057220,112.662804 77.453987,112.713577 
z"/>
<path fill="#D3DEE7" opacity="1.000000" stroke="none" 
	d="
M69.009766,124.004288 
	C71.183029,121.061554 73.356285,118.118820 75.529541,115.176086 
	C75.847183,115.312164 76.164825,115.448242 76.482475,115.584320 
	C75.987518,119.436066 75.492569,123.287804 75.000031,127.576180 
	C75.002304,129.394592 75.002167,130.776352 74.949890,132.967621 
	C74.932526,136.521729 74.967300,139.266342 75.002075,142.010956 
	C75.002037,143.393417 75.001999,144.775879 74.999527,147.006256 
	C75.023796,154.103470 76.847870,159.703201 80.278824,164.997345 
	C83.819473,170.460770 86.786346,176.296051 90.004242,181.968643 
	C87.215614,183.206711 85.624336,182.345123 84.133331,179.582291 
	C76.359505,165.177292 68.296738,150.928268 60.516735,136.526535 
	C59.597298,134.824539 59.793148,132.520050 60.072258,130.396729 
	C63.015766,131.475388 65.287125,132.846069 67.730789,133.751999 
	C69.071548,134.249054 71.244003,134.617355 72.102943,133.907745 
	C74.812553,131.669159 72.542580,124.874069 69.009766,124.004288 
z"/>
<path fill="#D3DEE7" opacity="1.000000" stroke="none" 
	d="
M138.996338,176.998169 
	C132.592438,180.695633 126.204620,184.421356 119.779778,188.082077 
	C114.143723,191.293381 113.061256,190.639984 112.985565,184.281509 
	C112.942108,180.631805 112.739281,176.983994 112.293030,172.917786 
	C111.983398,172.331696 111.988937,172.163132 111.994469,171.994553 
	C113.032593,171.572189 114.070709,171.149826 115.518341,171.104813 
	C116.695892,173.231842 117.003548,175.617188 118.338554,176.584091 
	C120.404701,178.080536 123.172371,178.608398 125.642570,179.546997 
	C126.371544,177.016800 127.311577,174.522110 127.745377,171.942291 
	C127.981873,170.535889 127.359940,168.985153 127.003738,166.731232 
	C129.997574,167.702606 131.998779,168.351913 134.248169,169.002136 
	C134.496338,169.003052 134.992676,169.004547 135.050781,169.348053 
	C136.404709,172.127090 137.700516,174.562622 138.996338,176.998169 
z"/>
<path fill="#E9EFF5" opacity="1.000000" stroke="none" 
	d="
M156.062607,58.468369 
	C154.940567,59.929817 153.842560,61.833679 152.700226,61.860661 
	C142.746017,62.095753 132.747742,62.467918 122.845528,61.712173 
	C119.777100,61.477989 116.963257,57.908115 114.025642,55.516991 
	C126.873627,55.301907 139.730316,55.371922 152.581528,55.674591 
	C153.760971,55.702370 154.905396,57.216576 156.062607,58.468369 
z"/>
<path fill="#E4ECF3" opacity="1.000000" stroke="none" 
	d="
M90.999107,66.008568 
	C93.385330,78.894547 86.025307,88.822815 80.756973,99.337692 
	C77.944260,104.951462 75.065163,110.616371 71.442467,115.707794 
	C69.317665,118.694023 65.672935,120.598785 62.337254,122.997879 
	C61.866863,121.979584 61.771111,120.953438 61.633999,119.544708 
	C63.957664,117.290581 67.114128,115.888084 68.549843,113.465729 
	C74.557350,103.329765 80.289970,93.008995 85.575317,82.480835 
	C87.070923,79.501656 86.712242,75.589790 87.194321,72.104340 
	C87.440582,70.323906 87.665459,68.540527 87.931763,66.074188 
	C87.938400,65.198761 87.913284,65.007629 87.888168,64.816505 
	C88.070930,64.813927 88.253700,64.811348 88.864670,65.110107 
	C89.861618,65.610481 90.430367,65.809525 90.999107,66.008568 
z"/>
<path fill="#CBDBE6" opacity="1.000000" stroke="none" 
	d="
M106.604187,55.052761 
	C108.092484,56.478748 108.924896,58.180244 110.282654,59.133377 
	C113.806580,61.607140 117.561584,63.751728 121.252335,66.045074 
	C118.441284,70.001572 116.232544,73.110329 114.018677,76.577484 
	C110.152275,75.637032 104.619316,77.889244 103.383339,71.377853 
	C106.264107,70.747162 108.610130,69.821007 107.873695,66.877373 
	C107.290726,64.547157 105.602455,62.493462 104.405006,60.316978 
	C102.582626,61.555038 100.760246,62.793098 98.937866,64.031158 
	C97.327087,58.721146 100.300659,55.011707 106.604187,55.052761 
z"/>
<path fill="#DDE3E8" opacity="1.000000" stroke="none" 
	d="
M134.000000,169.001221 
	C131.998779,168.351913 129.997574,167.702606 127.003738,166.731232 
	C127.359940,168.985153 127.981873,170.535889 127.745377,171.942291 
	C127.311577,174.522110 126.371544,177.016800 125.642570,179.546997 
	C123.172371,178.608398 120.404701,178.080536 118.338554,176.584091 
	C117.003548,175.617188 116.695892,173.231842 115.868820,171.067078 
	C116.669533,169.521164 117.529282,168.390350 119.070602,167.128693 
	C122.660095,167.210968 124.229660,166.023514 123.992821,162.945648 
	C125.051521,162.913620 126.110222,162.881592 127.769669,163.153778 
	C129.246323,163.639572 130.122253,163.821167 131.050903,164.335449 
	C132.069107,166.112518 133.034546,167.556870 134.000000,169.001221 
z"/>
<path fill="#CBDBE6" opacity="1.000000" stroke="none" 
	d="
M101.244217,195.326401 
	C103.553856,194.827545 105.833023,195.040405 107.911888,194.492828 
	C111.004898,193.678131 113.064270,194.143829 112.918442,197.677399 
	C112.778137,201.076920 112.115097,204.454880 111.548935,208.880386 
	C109.392601,207.434662 108.591988,207.116013 108.103561,206.534927 
	C104.989868,202.830536 101.504623,203.209427 98.759865,206.453003 
	C96.812775,208.753967 95.028412,208.632385 92.362480,207.980438 
	C92.244308,207.523010 92.491890,207.081955 92.850891,206.417358 
	C97.419823,204.045837 100.475426,200.807693 101.244217,195.326401 
z"/>
<path fill="#DCEDFA" opacity="1.000000" stroke="none" 
	d="
M85.827820,46.788368 
	C89.690697,44.330227 92.733971,44.782669 95.161766,48.327629 
	C97.685928,52.013294 96.827827,55.534767 93.794746,58.149593 
	C91.182304,60.401764 87.871971,60.518848 85.283676,57.680115 
	C82.052185,54.135944 82.265266,50.507221 85.827820,46.788368 
z"/>
<path fill="#DCEDFA" opacity="1.000000" stroke="none" 
	d="
M173.296539,55.156258 
	C170.909821,60.011063 166.654434,60.419739 163.510208,58.181034 
	C161.550659,56.785812 160.626465,52.399704 161.031662,49.617092 
	C161.515427,46.294987 164.750595,44.618122 168.391388,45.436909 
	C172.380814,46.334095 174.091522,49.648926 173.296539,55.156258 
z"/>
<path fill="#DCEDFA" opacity="1.000000" stroke="none" 
	d="
M164.799622,116.622429 
	C169.821533,115.471161 172.682526,117.841949 173.638626,121.991714 
	C174.383942,125.226646 173.144989,128.411987 169.586853,129.599457 
	C166.212311,130.725662 162.861496,130.576950 161.046341,126.809181 
	C158.947449,122.452408 160.357529,119.116165 164.799622,116.622429 
z"/>
<path fill="#DCEDFA" opacity="1.000000" stroke="none" 
	d="
M56.426315,120.859222 
	C57.050091,126.667458 55.346558,129.482788 51.120304,130.032745 
	C46.971081,130.572693 44.280113,128.307220 43.395962,124.667854 
	C42.464321,120.833038 44.501198,117.845436 48.241306,116.560936 
	C52.043125,115.255241 54.521194,117.298126 56.426315,120.859222 
z"/>
<path fill="#DCEDFA" opacity="1.000000" stroke="none" 
	d="
M104.848488,165.209686 
	C103.943222,162.523087 102.464012,159.918549 102.896805,157.684387 
	C103.691917,153.579865 108.221771,151.854843 111.989975,153.497635 
	C115.400970,154.984711 116.840736,158.743134 115.350250,162.269470 
	C113.559166,166.507019 109.905907,167.647812 104.848488,165.209686 
z"/>
<path fill="#DCEDFA" opacity="1.000000" stroke="none" 
	d="
M154.097687,156.117569 
	C155.724167,159.920975 155.515152,163.291595 152.120209,165.165466 
	C150.246124,166.199875 146.656326,166.846344 145.482208,165.808990 
	C143.585678,164.133362 142.294067,160.951767 142.199020,158.353104 
	C142.137756,156.678009 144.334763,154.149109 146.120789,153.355148 
	C148.926224,152.108032 152.023407,152.657639 154.097687,156.117569 
z"/>
<path fill="#DFE4E9" opacity="1.000000" stroke="none" 
	d="
M206.996780,137.408173 
	C207.996750,138.331573 209.427475,139.510483 209.921356,141.000015 
	C211.470505,145.672211 215.117386,149.113525 219.435684,148.922623 
	C223.858368,148.727142 227.297470,146.665680 229.024246,142.366440 
	C231.009995,137.422394 229.999969,132.001678 226.353958,129.257141 
	C223.862381,127.381599 221.097855,125.868683 218.119720,124.047623 
	C217.788269,123.473297 217.792450,123.044983 217.836365,122.296883 
	C220.261322,123.157127 222.677750,124.278557 225.025604,125.528809 
	C230.771637,128.588623 233.047165,133.767700 231.958664,141.122299 
	C231.214310,146.151550 226.257065,150.944229 220.849136,151.863022 
	C216.746765,152.559982 210.573776,148.744705 208.597870,144.021484 
	C207.780838,142.068420 207.515259,139.884644 206.996780,137.408173 
z"/>
<path fill="#DFE4E9" opacity="1.000000" stroke="none" 
	d="
M90.374718,182.015610 
	C86.786346,176.296051 83.819473,170.460770 80.278824,164.997345 
	C76.847870,159.703201 75.023796,154.103470 74.999504,147.420975 
	C75.620064,147.442200 76.508728,147.760544 76.815926,148.371338 
	C81.677887,158.038589 86.436798,167.757767 91.325523,177.411255 
	C91.701920,178.154510 92.872314,178.495682 94.067673,179.091797 
	C93.222862,180.127441 91.984024,181.095001 90.374718,182.015610 
z"/>
<path fill="#E8F2FA" opacity="1.000000" stroke="none" 
	d="
M100.882858,190.043335 
	C97.423882,184.378052 100.930443,174.432587 107.621910,172.491455 
	C108.100258,175.485886 107.981094,178.006790 108.359634,180.450592 
	C109.251465,186.207977 106.758659,189.532379 100.882858,190.043335 
z"/>
<path fill="#C2DAEC" opacity="1.000000" stroke="none" 
	d="
M91.327103,66.169296 
	C90.430367,65.809525 89.861618,65.610481 89.136826,65.143257 
	C91.586876,63.123795 93.312218,64.413750 94.694664,66.601067 
	C95.840897,68.414673 96.814049,70.338715 97.980179,72.138489 
	C100.543053,76.094002 102.005165,79.973717 98.839333,84.442886 
	C97.989960,85.641930 98.226944,87.610519 97.903397,89.635605 
	C97.439003,90.026520 97.036446,90.007668 96.331635,89.972404 
	C96.394196,86.569016 96.418045,83.535416 94.041489,80.406113 
	C92.772507,78.735207 93.884644,75.391045 93.514702,72.861641 
	C93.189957,70.641273 92.297050,68.503998 91.327103,66.169296 
z"/>
<path fill="#DAEAF6" opacity="1.000000" stroke="none" 
	d="
M168.579147,135.854858 
	C169.218246,138.449814 169.137329,141.172241 169.841827,143.673431 
	C172.447159,152.923309 170.392120,157.483643 160.978668,161.721619 
	C160.515839,161.984848 160.033188,161.996918 160.033173,161.996918 
	C159.999191,160.602997 159.965210,159.209061 160.377747,157.407166 
	C165.346497,156.958435 167.837753,153.837875 167.661423,150.176453 
	C167.522766,147.297455 168.499084,142.290756 162.898666,141.978241 
	C164.672318,139.945755 166.445984,137.913254 168.579147,135.854858 
z"/>
<path fill="#E8F2FA" opacity="1.000000" stroke="none" 
	d="
M162.723587,142.273041 
	C168.499084,142.290756 167.522766,147.297455 167.661423,150.176453 
	C167.837753,153.837875 165.346497,156.958435 160.444122,156.993866 
	C155.595108,151.269012 160.201630,147.113098 162.723587,142.273041 
z"/>
<path fill="#CBDBE6" opacity="1.000000" stroke="none" 
	d="
M68.676208,124.005844 
	C72.542580,124.874069 74.812553,131.669159 72.102943,133.907745 
	C71.244003,134.617355 69.071548,134.249054 67.730789,133.751999 
	C65.287125,132.846069 63.015766,131.475388 60.347786,130.156372 
	C60.413731,129.102676 60.804409,128.191223 61.831390,127.116440 
	C63.981396,125.975464 65.495094,124.997803 67.008789,124.020142 
	C67.453407,124.015892 67.898026,124.011650 68.676208,124.005844 
z"/>
<path fill="#C2DAEC" opacity="1.000000" stroke="none" 
	d="
M86.889847,188.633347 
	C89.674225,185.445145 92.293106,187.337173 94.454315,189.248993 
	C97.024605,191.522675 97.837105,194.644058 95.948303,197.746994 
	C94.185814,200.642426 91.965324,203.187744 88.244949,200.574524 
	C89.346931,199.137817 91.086983,197.823471 90.866974,197.192184 
	C89.836853,194.236237 88.266930,191.468384 86.889847,188.633347 
z"/>
<path fill="#CBDBE6" opacity="1.000000" stroke="none" 
	d="
M104.174965,84.032379 
	C106.443832,83.110039 109.074036,81.017067 110.885582,81.576248 
	C112.924202,82.205521 115.557793,85.253792 115.517471,87.199768 
	C115.463951,89.782104 113.072479,92.315979 111.336197,94.484085 
	C109.830467,89.988327 109.909599,85.043045 104.174965,84.032379 
z"/>
<path fill="#C2DAEC" opacity="1.000000" stroke="none" 
	d="
M203.728897,117.615234 
	C205.691483,117.480408 208.647842,116.492050 209.414368,117.384514 
	C211.126770,119.378258 212.779221,122.399879 212.566589,124.837982 
	C212.260300,128.350006 209.713943,130.980515 205.456116,129.959686 
	C206.145462,128.271881 207.625549,126.867065 207.360886,125.986824 
	C206.491058,123.093819 204.988419,120.391083 203.728897,117.615234 
z"/>
<path fill="#CBDBE6" opacity="1.000000" stroke="none" 
	d="
M120.228111,85.302773 
	C120.749397,85.136879 121.228127,85.341911 121.850296,86.147385 
	C122.001381,87.495224 122.009010,88.242622 122.018250,89.354340 
	C123.288658,91.614655 124.557457,93.510666 125.954437,95.598221 
	C123.003403,97.135887 120.504929,98.686111 117.817383,99.765602 
	C115.319633,100.768867 112.620270,101.270164 109.757004,101.992706 
	C109.335915,101.996193 109.167503,101.999413 108.999084,102.002640 
	C108.411263,101.757614 107.823448,101.512581 107.100838,100.962524 
	C112.663315,100.115700 117.705467,98.369667 119.682762,92.361725 
	C120.361137,90.300491 120.046516,87.912445 120.228111,85.302773 
z"/>
<path fill="#DAEAF6" opacity="1.000000" stroke="none" 
	d="
M103.949059,84.314957 
	C109.909599,85.043045 109.830467,89.988327 110.980026,94.476624 
	C108.664299,94.314140 105.746239,94.459045 104.185394,93.074219 
	C101.679733,90.851128 101.596291,87.558983 103.949059,84.314957 
z"/>
<path fill="#C2DAEC" opacity="1.000000" stroke="none" 
	d="
M176.906631,75.660675 
	C171.648941,71.925133 166.378891,67.828720 161.046814,63.394936 
	C161.782303,63.267128 162.604889,63.725567 163.373520,63.648174 
	C172.010239,62.778538 174.354141,69.140991 176.906631,75.660675 
z"/>
<path fill="#E4ECF3" opacity="1.000000" stroke="none" 
	d="
M203.350769,117.698303 
	C204.988419,120.391083 206.491058,123.093819 207.360886,125.986824 
	C207.625549,126.867065 206.145462,128.271881 205.240784,129.702362 
	C203.292908,128.342377 200.674911,126.992020 200.067535,125.021820 
	C199.283066,122.477127 198.927109,118.932632 203.350769,117.698303 
z"/>
<path fill="#DDE3E8" opacity="1.000000" stroke="none" 
	d="
M99.001190,64.369423 
	C100.760246,62.793098 102.582626,61.555038 104.405006,60.316978 
	C105.602455,62.493462 107.290726,64.547157 107.873695,66.877373 
	C108.610130,69.821007 106.264107,70.747162 103.340652,71.005638 
	C101.650986,68.916336 100.357758,66.812012 99.001190,64.369423 
z"/>
<path fill="#E4ECF3" opacity="1.000000" stroke="none" 
	d="
M86.548584,188.773987 
	C88.266930,191.468384 89.836853,194.236237 90.866974,197.192184 
	C91.086983,197.823471 89.346931,199.137817 88.089142,200.259369 
	C82.008141,197.986694 81.427475,193.429764 86.548584,188.773987 
z"/>
<path fill="#E4ECF3" opacity="1.000000" stroke="none" 
	d="
M100.903908,190.418915 
	C106.758659,189.532379 109.251465,186.207977 108.359634,180.450592 
	C107.981094,178.006790 108.100258,175.485886 107.991425,172.563675 
	C109.057426,172.066238 110.125237,172.005142 111.593750,171.969299 
	C111.988937,172.163132 111.983398,172.331696 111.972992,172.753326 
	C111.644379,176.200775 111.198135,179.388443 111.023262,182.590927 
	C110.693687,188.626450 107.479759,192.497849 101.828979,192.981750 
	C101.291382,192.249878 101.108170,191.522171 100.903908,190.418915 
z"/>
<path fill="#CBDBE6" opacity="1.000000" stroke="none" 
	d="
M157.527237,167.841522 
	C157.893784,167.938187 157.926651,168.150192 157.839600,169.000763 
	C157.476685,170.758652 157.233673,171.877960 156.718933,173.257278 
	C156.268860,179.605515 152.499695,178.012512 149.001068,176.998199 
	C148.684479,176.888229 148.426224,176.698746 148.114960,175.824829 
	C147.996292,174.187286 147.988983,173.154633 147.981659,172.121979 
	C151.052292,170.733612 154.122910,169.345230 157.527237,167.841522 
z"/>
<path fill="#DDE3E8" opacity="1.000000" stroke="none" 
	d="
M139.434189,176.998871 
	C137.700516,174.562622 136.404709,172.127090 135.405930,169.384705 
	C137.175537,168.991577 138.648102,168.905289 140.120667,168.819000 
	C141.204514,169.513733 142.288361,170.208450 143.707962,171.328629 
	C144.362274,172.503113 144.680832,173.252151 145.026230,174.319733 
	C145.368500,175.425522 145.683945,176.212769 145.999390,177.000000 
	C143.956940,176.999847 141.914490,176.999710 139.434189,176.998871 
z"/>
<path fill="#DAEAF6" opacity="1.000000" stroke="none" 
	d="
M159.435638,114.035950 
	C161.259476,109.545341 169.634598,108.307678 174.400986,112.085495 
	C175.855728,113.238525 176.714844,115.143066 177.785278,117.093369 
	C175.038635,115.664352 172.541672,112.855118 169.616409,112.299065 
	C166.561920,111.718445 163.095047,113.307228 159.435638,114.035950 
z"/>
<path fill="#DFE4E9" opacity="1.000000" stroke="none" 
	d="
M140.025192,168.488586 
	C138.648102,168.905289 137.175537,168.991577 135.347824,169.041199 
	C134.992676,169.004547 134.496338,169.003052 134.248169,169.002136 
	C133.034546,167.556870 132.069107,166.112518 131.261536,164.212341 
	C131.624573,163.337631 131.829727,162.918777 132.034882,162.499908 
	C136.830276,161.366898 137.866837,165.478531 140.025192,168.488586 
z"/>
<path fill="#DAEAF6" opacity="1.000000" stroke="none" 
	d="
M157.005096,129.565750 
	C153.091644,126.744705 152.820404,122.509865 156.599457,117.067322 
	C156.959442,121.050735 156.955902,125.105583 157.005096,129.565750 
z"/>
<path fill="#DAEAF6" opacity="1.000000" stroke="none" 
	d="
M119.032715,153.394806 
	C122.599861,154.084030 126.212685,155.160156 129.912231,156.620377 
	C126.241714,156.326874 121.272644,159.755630 119.032715,153.394806 
z"/>
<path fill="#DAEAF6" opacity="1.000000" stroke="none" 
	d="
M141.410156,150.007874 
	C143.570160,145.682693 147.408234,145.493988 151.911209,147.128494 
	C148.677048,148.310669 145.230408,149.126770 141.410156,150.007874 
z"/>
<path fill="#DAEAF6" opacity="1.000000" stroke="none" 
	d="
M156.517059,142.222534 
	C157.122070,139.222977 158.040558,136.069611 158.944962,132.538391 
	C159.268814,133.783447 160.164719,135.545258 159.803986,136.994217 
	C159.349609,138.819351 157.868591,140.388916 156.517059,142.222534 
z"/>
<path fill="#DAEAF6" opacity="1.000000" stroke="none" 
	d="
M106.408707,147.925659 
	C109.120888,144.107422 111.989616,146.298340 114.932632,148.638611 
	C112.276138,148.659851 109.554993,148.318054 106.408707,147.925659 
z"/>
<path fill="#D3DEE7" opacity="1.000000" stroke="none" 
	d="
M123.612328,162.906372 
	C124.229660,166.023514 122.660095,167.210968 119.356148,166.990753 
	C120.384018,165.611496 121.807930,164.239304 123.612328,162.906372 
z"/>
<path fill="#D8E0E7" opacity="1.000000" stroke="none" 
	d="
M146.257812,176.891083 
	C145.683945,176.212769 145.368500,175.425522 145.268707,174.149597 
	C145.656189,173.108047 145.828033,172.555176 145.999878,172.002319 
	C146.442368,172.003372 146.884857,172.004425 147.654510,172.063721 
	C147.988983,173.154633 147.996292,174.187286 148.002792,175.609085 
	C147.506729,176.259537 147.011490,176.520844 146.257812,176.891083 
z"/>
<path fill="#D3DEE7" opacity="1.000000" stroke="none" 
	d="
M66.640594,124.055649 
	C65.495094,124.997803 63.981396,125.975464 62.069592,126.923347 
	C61.728077,126.474083 61.784668,126.054588 61.895535,125.322334 
	C63.390675,124.703423 64.831543,124.397285 66.640594,124.055649 
z"/>
<path fill="#DAEAF6" opacity="1.000000" stroke="none" 
	d="
M177.977310,119.334625 
	C178.949158,119.441467 179.911194,119.878876 180.927734,120.658157 
	C180.470154,121.272095 179.958069,121.544151 179.174103,121.922913 
	C178.590637,121.241478 178.279053,120.453323 177.977310,119.334625 
z"/>
<path fill="#DAEAF6" opacity="1.000000" stroke="none" 
	d="
M97.872864,161.622742 
	C97.565857,160.733032 97.329384,159.439819 97.401161,158.056061 
	C97.787407,159.050095 97.865402,160.134659 97.872864,161.622742 
z"/>
<path fill="#D3DEE7" opacity="1.000000" stroke="none" 
	d="
M131.691162,162.366409 
	C131.829727,162.918777 131.624573,163.337631 131.208801,163.879623 
	C130.122253,163.821167 129.246323,163.639572 128.166153,163.182190 
	C129.090408,162.681900 130.218918,162.457397 131.691162,162.366409 
z"/>
<path fill="#DAEAF6" opacity="1.000000" stroke="none" 
	d="
M98.283340,155.803894 
	C98.472382,154.700958 98.913857,153.393875 99.680389,152.046127 
	C99.515541,153.203552 99.025658,154.401657 98.283340,155.803894 
z"/>
<path fill="#CBDBE6" opacity="1.000000" stroke="none" 
	d="
M159.784210,162.215027 
	C160.033188,161.996918 160.515839,161.984848 160.757217,161.981445 
	C160.577789,162.946609 160.156982,163.915207 159.400299,164.945282 
	C159.221359,164.148895 159.378296,163.291016 159.784210,162.215027 
z"/>
<path fill="#DAEAF6" opacity="1.000000" stroke="none" 
	d="
M133.204926,157.237045 
	C133.826645,156.702118 134.656784,156.390335 135.843353,156.154800 
	C135.270966,156.640762 134.342163,157.050476 133.204926,157.237045 
z"/>
<path fill="#CBDBE6" opacity="1.000000" stroke="none" 
	d="
M145.827454,171.761841 
	C145.828033,172.555176 145.656189,173.108047 145.241867,173.831055 
	C144.680832,173.252151 144.362274,172.503113 144.009430,171.453705 
	C144.535110,171.276016 145.095062,171.398682 145.827454,171.761841 
z"/>
<path fill="#DAEAF6" opacity="1.000000" stroke="none" 
	d="
M136.535217,156.154800 
	C136.615738,155.504883 137.011795,154.800873 137.750671,154.061646 
	C137.679230,154.717850 137.264999,155.409286 136.535217,156.154800 
z"/>
<path fill="#DAEAF6" opacity="1.000000" stroke="none" 
	d="
M102.296387,149.921371 
	C102.536438,149.333893 103.095726,148.730118 104.008575,148.160309 
	C103.779961,148.764557 103.197792,149.334824 102.296387,149.921371 
z"/>
<path fill="#DAEAF6" opacity="1.000000" stroke="none" 
	d="
M97.510780,174.118805 
	C97.566681,173.495285 97.922195,172.795151 98.600159,172.041473 
	C98.551872,172.672668 98.181129,173.357437 97.510780,174.118805 
z"/>
<path fill="#DAEAF6" opacity="1.000000" stroke="none" 
	d="
M138.503326,153.256195 
	C138.600632,152.636520 138.984818,151.874817 139.725739,151.077118 
	C139.651718,151.732162 139.220978,152.423172 138.503326,153.256195 
z"/>
<path fill="#DAEAF6" opacity="1.000000" stroke="none" 
	d="
M99.547470,170.352585 
	C99.362984,169.796585 99.434875,169.107880 99.786034,168.199341 
	C99.978149,168.726288 99.890999,169.473083 99.547470,170.352585 
z"/>
<path fill="#C2DAEC" opacity="1.000000" stroke="none" 
	d="
M87.703262,64.786484 
	C87.913284,65.007629 87.938400,65.198761 87.977577,65.678322 
	C87.991638,65.966751 87.521935,65.961411 87.293198,65.680359 
	C87.093742,65.211632 87.123024,65.023949 87.152313,64.836258 
	C87.152313,64.836258 87.518364,64.756454 87.703262,64.786484 
z"/>
<path fill="#E4ECF3" opacity="1.000000" stroke="none" 
	d="
M86.840553,64.904602 
	C87.123024,65.023949 87.093742,65.211632 87.058357,65.683807 
	C86.812256,65.957245 86.572266,65.946198 85.972412,65.886681 
	C85.917969,65.549789 86.223381,65.261368 86.840553,64.904602 
z"/>
<path fill="#DEE3E8" opacity="1.000000" stroke="none" 
	d="
M183.347443,151.960632 
	C183.977951,150.519348 184.759796,148.851517 185.968246,147.593460 
	C194.002136,139.229797 192.464294,131.790909 181.693802,127.305428 
	C181.240158,127.116508 180.840286,126.798439 180.205811,126.261307 
	C184.623077,124.390839 190.394516,127.173378 191.966080,131.581451 
	C195.413406,141.250961 192.938950,146.810364 183.347443,151.960632 
z"/>
<path fill="#DEE3E8" opacity="1.000000" stroke="none" 
	d="
M221.625580,133.460190 
	C222.911102,135.054047 224.895020,136.780640 224.593628,137.881668 
	C224.108871,139.652527 222.363098,141.568024 220.661743,142.325516 
	C219.697983,142.754623 216.627014,141.141937 216.506027,140.193604 
	C216.278091,138.406815 217.262619,136.302872 218.222137,134.600784 
	C218.653152,133.836197 220.237350,133.721664 221.625580,133.460190 
z"/>
<path fill="#DDE3E8" opacity="1.000000" stroke="none" 
	d="
M156.990662,172.997269 
	C157.233673,171.877960 157.476685,170.758652 157.864655,169.321609 
	C164.539215,169.020889 164.617233,169.067917 170.004486,176.918533 
	C170.864258,175.502182 171.586121,174.313004 172.653381,173.061005 
	C172.785858,184.100632 165.017990,188.335693 155.564224,182.313538 
	C157.032394,181.870483 158.274490,181.740692 159.841721,181.576935 
	C158.803452,178.452499 157.897064,175.724884 156.990662,172.997269 
z"/>
<path fill="#D8E0E7" opacity="1.000000" stroke="none" 
	d="
M156.718933,173.257278 
	C157.897064,175.724884 158.803452,178.452499 159.841721,181.576935 
	C158.274490,181.740692 157.032394,181.870483 155.394836,182.000748 
	C153.034058,180.556946 151.068726,179.112671 149.052231,177.333298 
	C152.499695,178.012512 156.268860,179.605515 156.718933,173.257278 
z"/>
<path fill="#E4ECF3" opacity="1.000000" stroke="none" 
	d="
M108.999222,102.420418 
	C109.167503,101.999413 109.335915,101.996193 109.900711,102.331451 
	C110.583443,103.784042 110.821541,104.913216 111.163910,106.009834 
	C113.581795,113.754593 120.926735,117.827927 127.187149,114.915627 
	C133.430679,112.011185 135.032089,108.155190 133.991241,98.532272 
	C133.529388,94.262337 128.337128,90.124763 122.016632,88.990028 
	C122.009010,88.242622 122.001381,87.495224 121.995270,86.374115 
	C132.085739,89.307999 136.970291,94.768829 137.000000,102.773720 
	C137.031342,111.219696 131.020126,117.890747 123.280251,117.999435 
	C115.249512,118.112198 109.146912,111.633408 108.999222,102.420418 
z"/>
<path fill="#DFE4E9" opacity="1.000000" stroke="none" 
	d="
M75.384705,141.918182 
	C74.967300,139.266342 74.932526,136.521729 74.949898,133.382477 
	C78.571358,135.646713 77.272980,138.727081 75.384705,141.918182 
z"/>
<path fill="#D3DEE7" opacity="1.000000" stroke="none" 
	d="
M77.624390,112.550598 
	C78.057220,112.662804 78.319649,112.937981 78.582069,113.213158 
	C78.468155,113.321770 78.354233,113.430382 78.240311,113.538986 
	C77.978203,113.263855 77.716095,112.988716 77.624390,112.550598 
z"/>
<path fill="#DDE3E8" opacity="1.000000" stroke="none" 
	d="
M122.018250,89.354340 
	C128.337128,90.124763 133.529388,94.262337 133.991241,98.532272 
	C135.032089,108.155190 133.430679,112.011185 127.187149,114.915627 
	C120.926735,117.827927 113.581795,113.754593 111.163910,106.009834 
	C110.821541,104.913216 110.583443,103.784042 110.153381,102.331192 
	C112.620270,101.270164 115.319633,100.768867 117.817383,99.765602 
	C120.504929,98.686111 123.003403,97.135887 125.954437,95.598221 
	C124.557457,93.510666 123.288658,91.614655 122.018250,89.354340 
z"/>
</svg>