<svg version="1.1" id="Layer_1" xmlns="http://www.w3.org/2000/svg" xmlns:xlink="http://www.w3.org/1999/xlink" x="0px" y="0px"
	 width="100%" viewBox="0 0 912 1024" enable-background="new 0 0 912 1024" xml:space="preserve">
<path fill="#000000" opacity="1.000000" stroke="none" 
	d="
M284.655426,527.677429 
	C291.577820,519.213074 299.231628,512.066833 308.304718,506.590118 
	C311.213470,504.834351 311.465668,503.165710 310.189819,500.121796 
	C305.565430,489.089233 303.837036,477.469696 303.625854,465.534546 
	C303.549744,461.232330 305.367310,459.946320 309.259247,460.100067 
	C312.746063,460.237823 316.244415,460.052856 319.736084,460.108673 
	C322.708771,460.156128 323.913818,458.744446 323.881653,455.832092 
	C323.811737,449.500153 323.837677,443.166595 323.887817,436.834198 
	C323.904907,434.675934 322.790192,433.075043 321.682068,431.391724 
	C312.699066,417.746063 312.833679,404.216156 322.241058,390.957886 
	C323.734192,388.853577 323.922485,386.705627 323.921478,384.364471 
	C323.917053,374.031738 323.910645,363.698975 323.924011,353.366241 
	C323.927246,350.866302 323.733826,348.526917 327.097534,347.469238 
	C330.017517,346.551086 328.900879,343.479431 328.905762,341.321198 
	C328.989105,304.489899 328.935364,267.658325 329.027588,230.827072 
	C329.083466,208.505417 328.327942,186.161148 329.740173,163.867844 
	C333.180267,109.563683 367.642242,66.971870 423.737518,56.697208 
	C453.828247,51.185646 482.571808,55.361603 508.791443,71.774788 
	C533.929688,87.511024 548.266235,110.310349 551.394531,139.960739 
	C552.091797,146.569901 552.248535,146.691391 559.098083,146.669449 
	C561.931030,146.660370 564.812256,146.927902 567.585938,146.506378 
	C572.347717,145.782684 573.336487,148.022003 573.134521,152.167297 
	C572.574219,163.668076 571.337830,175.020508 566.440002,186.192795 
	C575.518860,188.093781 584.101746,189.779907 592.631958,191.699936 
	C610.913452,195.814819 628.887817,200.788284 643.933716,212.748779 
	C655.715454,222.114517 661.926758,234.452164 662.225220,249.485077 
	C662.757690,276.304810 662.764832,303.136841 663.485046,329.950470 
	C664.214539,357.107880 663.914856,384.272247 664.482300,411.422516 
	C665.369995,453.898438 665.739563,496.380157 666.488220,538.855347 
	C667.204590,579.498413 667.650940,620.146118 668.467834,660.785095 
	C669.398743,707.096191 670.056641,753.406616 670.411072,799.724243 
	C670.551331,818.050415 671.064453,836.373535 671.269104,854.699585 
	C671.301941,857.639404 672.147156,859.649170 674.585449,861.417053 
	C681.703003,866.577637 684.833557,873.909607 685.139771,882.515076 
	C685.299683,887.009338 684.966064,891.525513 685.220276,896.011169 
	C685.846985,907.068359 680.756470,915.256897 672.431030,921.728027 
	C661.468445,930.249023 648.766541,935.277954 635.598633,939.149536 
	C593.715027,951.463928 550.729736,953.985901 507.496918,951.960571 
	C477.232941,950.542725 447.169128,946.560425 418.375244,936.216187 
	C408.468964,932.657410 398.904816,928.341858 390.629730,921.642273 
	C382.695435,915.218628 377.798737,907.379883 378.566132,896.660217 
	C378.910339,891.852051 378.666168,886.999329 378.632599,882.167236 
	C378.573944,873.727295 382.046021,867.010986 388.656769,861.930298 
	C390.634857,860.409912 391.902435,858.875427 391.935150,856.202881 
	C392.159607,837.878357 392.506958,819.555359 392.792969,801.231567 
	C392.807953,800.271118 393.009552,799.219055 391.772980,798.056702 
	C387.175598,800.559814 382.376801,803.079529 377.679199,805.775574 
	C375.770264,806.871155 376.224396,809.003662 376.217194,810.786316 
	C376.180725,819.785706 376.082489,828.787964 376.271484,837.783691 
	C376.356171,841.813843 375.020721,843.403687 370.805511,843.349426 
	C355.808563,843.156494 340.806519,843.164734 325.809143,843.336975 
	C321.877136,843.382019 320.519012,842.065308 320.607849,838.144348 
	C320.815460,828.982788 320.645294,819.813171 320.688782,810.647034 
	C320.699585,808.369995 320.486572,806.475403 318.060760,805.276489 
	C289.281036,791.053223 272.620392,766.433472 260.988495,737.796448 
	C245.766037,700.319824 242.628250,661.269348 247.396210,621.447815 
	C250.758698,593.364563 258.949219,566.765564 273.990601,542.582214 
	C277.148468,537.505005 280.929962,532.815735 284.655426,527.677429 
M472.562439,894.731384 
	C483.231628,896.628723 494.010071,897.396362 504.814941,898.001831 
	C539.171326,899.927002 573.351379,899.155884 607.124268,891.687439 
	C622.828430,888.214722 637.996460,883.426697 651.455200,874.216064 
	C656.649231,870.661438 659.163574,866.365784 659.020935,859.651672 
	C658.104797,816.515198 657.444214,773.371765 656.982605,730.227600 
	C656.508484,685.915466 655.739990,641.609863 654.979919,597.302307 
	C654.257080,555.162598 653.858459,513.018127 652.970398,470.878815 
	C652.026306,426.077667 651.559448,381.266235 650.958069,336.458282 
	C650.589111,308.971497 650.073181,281.481873 650.172852,253.995499 
	C650.233337,237.329758 642.590576,225.824768 628.628418,217.855484 
	C617.975952,211.775330 606.433533,207.961136 594.539917,205.280640 
	C583.517334,202.796463 572.347900,200.956436 561.344360,198.397797 
	C553.209961,196.506317 550.668091,190.678802 554.302856,183.279129 
	C557.343933,177.087906 559.138000,170.583160 560.376770,163.811340 
	C561.181030,159.414871 559.790771,158.213455 555.575745,158.255051 
	C539.579773,158.412933 523.579346,158.473312 507.585083,158.247726 
	C502.966248,158.182571 501.750366,159.948853 502.226990,164.166046 
	C503.530762,175.701721 505.389313,186.945114 514.205444,195.652451 
	C516.736877,198.152603 517.271912,201.314178 514.661926,204.150604 
	C512.001587,207.041779 508.819153,207.103210 505.699005,204.790207 
	C504.370026,203.805038 503.103851,202.663620 502.052826,201.391846 
	C500.483398,199.492752 498.583832,198.932053 496.274872,199.374878 
	C477.139679,203.044876 458.014771,206.774414 440.222687,215.182755 
	C422.855164,223.390442 413.925964,236.761230 414.231873,256.363068 
	C414.476074,272.011597 413.912506,287.671692 413.555817,303.328064 
	C412.474396,350.793762 412.107544,398.275513 411.414459,445.750336 
	C411.071503,469.239594 411.693878,492.746216 410.408752,516.214844 
	C410.089600,522.043274 411.607910,526.518433 415.419159,531.112061 
	C422.876617,540.100464 428.688904,550.263855 433.361725,561.015686 
	C443.198151,583.648682 449.083466,607.123108 450.600739,631.904724 
	C452.045563,655.502869 451.042145,678.806824 446.256439,701.900330 
	C440.367065,730.319702 429.996490,756.873779 410.923279,779.206299 
	C406.728424,784.118042 405.314423,789.004150 405.312073,795.020813 
	C405.304352,814.683716 406.119812,834.421509 404.646088,853.981873 
	C403.734924,866.075012 408.344177,872.879944 418.154266,877.803284 
	C421.574158,879.519531 424.975647,881.287048 428.475372,882.827026 
	C442.289825,888.905701 456.939392,891.981445 472.562439,894.731384 
M390.268585,114.765381 
	C379.822601,125.812080 373.104095,138.730804 370.012421,153.674423 
	C368.211945,162.377014 367.534271,171.156586 367.441589,179.949707 
	C367.206238,202.279327 367.361176,224.613113 367.363586,246.945221 
	C367.366974,278.610016 367.358734,310.274872 367.414246,341.939575 
	C367.417786,343.959381 366.539642,346.705902 369.362030,347.529419 
	C372.511475,348.448364 372.264648,350.705963 372.264618,353.050964 
	C372.264435,362.717102 372.409210,372.386078 372.210693,382.048065 
	C372.124756,386.230377 373.245392,389.623444 375.560608,393.169403 
	C382.799225,404.255646 383.973358,416.369690 376.963257,427.609314 
	C373.021790,433.928833 372.125793,439.966766 372.220764,446.847168 
	C372.392792,459.309479 372.275269,459.406433 384.394867,460.086548 
	C387.947784,460.285889 389.406677,461.530426 389.323669,465.216248 
	C389.064240,476.731628 388.529114,488.188599 385.232971,499.332794 
	C384.779755,500.865204 383.567841,502.705719 385.392639,503.910004 
	C389.178070,506.408356 392.683105,509.431824 398.588562,511.843079 
	C398.588562,497.675018 398.519958,484.558350 398.602448,471.442657 
	C398.791077,441.454620 398.921631,411.469269 399.565033,381.481659 
	C400.401367,342.500702 400.472015,303.503693 400.989502,264.515198 
	C401.084412,257.367249 401.115814,250.125977 402.251404,243.101547 
	C405.705383,221.735687 420.172546,209.792572 438.860870,201.669083 
	C454.707123,194.780945 471.517456,191.371902 488.270569,187.745895 
	C490.954559,187.164993 493.085419,186.800034 491.966705,183.011322 
	C488.871246,172.528000 488.643158,161.704269 488.491455,150.860748 
	C488.437958,147.037811 489.887451,145.860321 493.447540,145.963715 
	C498.442291,146.108780 503.446533,145.892471 508.444641,145.968262 
	C511.874634,146.020279 513.327698,144.664871 512.832581,141.122131 
	C512.226929,136.788849 510.909271,132.692490 509.212677,128.702148 
	C497.132599,100.290321 465.219696,91.416985 442.194000,92.700676 
	C422.649475,93.790283 405.185120,100.582085 390.268585,114.765381 
M266.661713,609.056335 
	C265.478455,608.566711 264.490417,607.427673 262.594543,608.057434 
	C260.275726,617.064819 259.455811,626.440491 258.777374,635.878052 
	C256.861633,662.526794 258.996857,688.717651 266.585602,714.426636 
	C267.698120,718.195557 269.734406,720.269775 273.167419,721.815186 
	C292.232971,730.397949 312.641571,732.426819 333.071320,733.524780 
	C350.506073,734.461731 368.024261,734.203979 385.398895,731.686890 
	C397.935699,729.870605 410.360809,727.646545 422.152649,722.717041 
	C426.724060,720.805969 429.405853,718.047363 430.900879,712.918152 
	C438.909485,685.441162 439.227753,657.427063 437.483765,629.254944 
	C437.037415,622.044922 436.553955,614.699158 433.639191,607.788940 
	C430.407196,608.052490 428.231415,610.068481 425.685059,611.154602 
	C405.900055,619.594238 384.887421,622.012390 363.774261,623.106262 
	C346.337921,624.009705 328.822968,623.834717 311.445160,621.269104 
	C296.265564,619.028015 281.157471,616.565308 266.661713,609.056335 
M414.438629,609.877380 
	C419.042114,608.387878 423.511597,606.593689 427.739838,604.212463 
	C431.041809,602.352722 432.220917,600.058716 431.215820,596.007446 
	C427.498810,581.024902 421.824829,566.899170 414.008575,553.605225 
	C403.232086,535.276489 389.813080,519.722534 369.554077,511.425598 
	C366.314087,510.098663 366.113434,508.494171 367.901764,505.754608 
	C373.337128,497.428009 375.258453,488.068542 375.861603,478.288483 
	C376.092041,474.552307 374.794769,473.282745 371.076324,473.314331 
	C354.922485,473.451630 338.766754,473.350159 322.611938,473.399017 
	C317.450287,473.414642 316.729218,474.511780 317.623108,479.857178 
	C319.629150,491.852936 323.409698,502.754425 334.475647,509.705719 
	C336.823212,511.180328 337.826019,513.830383 336.508881,516.757568 
	C335.134094,519.812927 332.629608,520.632507 329.526001,520.322144 
	C327.250092,520.094421 325.356018,518.921936 323.805298,517.466919 
	C320.930237,514.769348 318.365173,515.235352 315.341095,517.245789 
	C310.466553,520.486389 305.814789,523.982605 301.720276,528.150940 
	C283.613007,546.584595 272.886139,569.068237 266.128723,593.661194 
	C263.923340,601.687439 264.274139,602.116394 271.876282,605.864807 
	C273.069305,606.453125 274.287598,606.996094 275.518524,607.500610 
	C292.230469,614.350403 309.917206,616.224487 327.680664,617.715088 
	C341.142975,618.844727 354.598297,618.777100 368.066284,617.737549 
	C383.504883,616.545898 398.862732,614.937805 414.438629,609.877380 
M520.823853,939.586365 
	C551.853027,939.970032 582.704712,938.017151 613.114929,931.578369 
	C630.247803,927.950806 647.109985,923.257263 661.985291,913.431458 
	C669.092163,908.737000 673.669800,902.673401 672.702576,893.502991 
	C672.337646,890.043274 672.787537,886.505432 672.617249,883.015381 
	C672.397217,878.506104 670.743896,874.596252 667.037781,871.767456 
	C664.889587,870.127808 663.071594,869.964844 661.016113,872.269836 
	C655.954285,877.946533 649.579590,881.891602 642.797852,885.200806 
	C627.841248,892.498962 611.873291,896.606506 595.579773,899.197937 
	C566.906006,903.758362 538.074463,905.306824 509.004944,903.491760 
	C486.338654,902.076599 463.916412,899.635498 442.107208,893.144043 
	C427.496521,888.795288 413.382050,883.310730 402.486511,871.946045 
	C400.623016,870.002441 398.749084,870.018982 396.727234,871.501343 
	C393.461273,873.895752 391.460480,877.068176 391.336517,881.172607 
	C391.210815,885.333984 391.680176,889.548096 391.193298,893.656677 
	C390.104675,902.842224 394.469391,908.861572 401.660156,913.619751 
	C406.408539,916.761780 411.442322,919.302917 416.666870,921.516968 
	C430.541351,927.396667 445.122101,930.856628 459.848694,933.568970 
	C479.673676,937.220215 499.780823,938.458679 520.823853,939.586365 
M404.971436,732.781555 
	C380.576660,737.849609 355.904602,739.583008 331.072754,738.146240 
	C311.968597,737.040955 293.004425,734.693604 274.856781,728.029541 
	C273.562500,727.554199 272.258759,726.454651 270.688721,727.563477 
	C271.085602,731.159424 272.742676,734.277344 274.183563,737.425842 
	C285.990265,763.225281 301.734222,785.373291 329.455048,796.191833 
	C332.317322,797.308899 333.028564,799.280396 333.017059,802.022217 
	C332.983521,810.013733 333.137482,818.006958 333.015869,825.996521 
	C332.963745,829.421265 334.266266,830.826660 337.708466,830.697998 
	C342.197662,830.530151 346.697968,830.688232 351.192444,830.628235 
	C364.349823,830.452576 362.680054,832.594238 362.794556,818.927856 
	C362.863312,810.723389 362.814758,810.741272 354.841064,810.981750 
	C351.726074,811.075806 349.204315,809.895081 348.127594,806.846497 
	C347.057190,803.815613 348.079315,801.262207 350.766998,799.491333 
	C352.476959,798.364624 354.467407,798.021118 356.471466,797.860107 
	C367.853455,796.945801 377.779144,792.339417 386.215973,784.973633 
	C403.605652,769.791382 416.109253,751.151489 423.908142,729.396484 
	C424.166412,728.676025 424.729492,727.861511 423.708160,726.980835 
	C417.795349,728.814697 411.785767,730.678528 404.971436,732.781555 
M521.403748,115.113838 
	C516.371521,106.280739 509.662018,98.899323 501.388184,93.083717 
	C480.156281,78.160065 456.452545,73.215309 431.087219,77.435997 
	C400.601471,82.508713 376.753204,97.598549 362.261261,125.740990 
	C361.729004,126.774582 361.190796,127.825325 360.499329,128.751602 
	C359.644012,129.897400 358.486725,130.609558 357.059631,129.714966 
	C355.910339,128.994507 355.732544,127.822525 356.186005,126.630287 
	C356.658417,125.388321 357.223389,124.174240 357.837372,122.994545 
	C369.010132,101.527679 385.945526,86.496475 408.498169,77.799980 
	C430.354889,69.371826 452.769592,67.923058 475.157898,74.598755 
	C508.263641,84.470154 529.841431,105.385506 535.145386,140.767685 
	C535.370544,142.269745 534.896179,144.645996 537.429565,144.405075 
	C540.092346,144.151871 538.966797,141.886139 538.823608,140.427521 
	C536.842712,120.245163 528.018188,103.510086 512.824158,90.237221 
	C497.820068,77.130310 480.117889,69.815140 460.411011,67.674835 
	C433.308441,64.731308 407.862793,69.773651 385.286499,85.584702 
	C356.003998,106.092415 342.488617,135.223969 342.169617,170.274719 
	C341.647949,227.600250 342.071899,284.934082 341.940460,342.264069 
	C341.930023,346.809662 343.562714,348.002502 347.798309,347.861023 
	C351.949707,347.722412 355.104126,347.922394 354.980164,342.004608 
	C354.631195,325.345856 354.728943,308.673553 354.893982,292.009033 
	C355.321320,248.860809 353.470184,205.679962 355.892181,162.571579 
	C356.939240,143.936005 363.094482,126.484604 375.484802,112.165192 
	C400.186859,83.617111 431.819885,75.255287 468.026062,82.539124 
	C485.815430,86.117935 501.202209,94.452324 512.632507,109.022659 
	C519.332214,117.562881 523.539917,127.229858 525.526062,137.942230 
	C525.937012,140.158371 525.069946,143.470428 529.685730,144.800629 
	C530.371216,133.810226 526.245544,124.744453 521.403748,115.113838 
M359.683350,389.244019 
	C359.680878,381.079834 359.587585,372.914154 359.721497,364.752197 
	C359.773712,361.569550 358.682495,360.188568 355.391327,360.304077 
	C350.565308,360.473358 345.729248,360.353485 340.897491,360.364746 
	C338.910614,360.369354 337.255249,360.773254 336.994965,363.223267 
	C336.436615,368.479736 336.234894,373.716156 337.161621,379.148804 
	C338.822693,378.912140 340.132141,378.762573 341.427765,378.534424 
	C346.423401,377.654877 349.552063,379.219879 350.449585,383.077789 
	C351.339539,386.903137 349.252167,389.482452 344.104156,390.918762 
	C327.885590,395.443787 322.465363,412.707153 333.455292,425.475281 
	C335.731445,428.119629 336.522766,430.697784 336.514801,434.020905 
	C336.497650,441.179138 336.908234,448.338043 336.909241,455.496735 
	C336.909760,459.194366 338.330780,460.513336 342.042480,460.229248 
	C346.351318,459.899536 350.703308,459.976410 355.030609,460.095367 
	C358.464386,460.189697 359.793762,458.763275 359.722229,455.337799 
	C359.576080,448.343018 359.820465,441.339081 359.623138,434.346832 
	C359.527466,430.956329 360.516022,428.476685 362.864380,425.920807 
	C370.973083,417.095612 370.801331,405.843292 362.612427,397.200012 
	C360.650482,395.129181 359.306091,393.079590 359.683350,389.244019 
z"/>
<path fill="#000000" opacity="1.000000" stroke="none" 
	d="
M599.711731,364.000458 
	C599.377625,337.368378 599.183350,311.233551 598.672302,285.104950 
	C598.197998,260.850891 580.526794,239.934464 556.805298,235.068970 
	C556.153320,234.935257 555.501831,234.793457 554.859009,234.622040 
	C552.985901,234.122574 550.237183,234.046570 550.863770,231.294113 
	C551.491882,228.535065 554.108643,229.765762 555.901672,230.057236 
	C586.064209,234.960388 603.387939,261.980530 603.561768,283.979218 
	C603.617920,291.093201 604.242249,298.263580 604.212463,305.407043 
	C604.057007,342.698914 605.880249,379.969360 605.375244,417.264557 
	C605.337036,420.082642 605.790710,422.904144 605.867065,425.728088 
	C605.921387,427.734436 605.950806,430.137421 603.098145,430.075226 
	C600.498413,430.018524 600.745422,427.692261 600.711243,425.910950 
	C600.366882,407.938751 600.054932,389.965942 599.745361,371.993103 
	C599.702332,369.496094 599.722473,366.998016 599.711731,364.000458 
z"/>
<path fill="#000000" opacity="1.000000" stroke="none" 
	d="
M608.378296,602.036804 
	C609.478394,614.594116 609.011230,626.763245 609.163879,638.918884 
	C609.626221,675.731750 610.012146,712.545471 610.428223,749.358887 
	C610.430115,749.525513 610.456970,749.693909 610.440552,749.858276 
	C610.241943,751.854248 611.458130,754.936890 608.349487,755.130432 
	C604.834351,755.349121 605.605042,751.911316 605.479248,749.835876 
	C605.147095,744.356750 605.088806,738.858032 605.026062,733.365967 
	C604.542969,691.050232 604.083923,648.734314 603.621521,606.418335 
	C603.606995,605.085571 603.616455,603.751770 603.652100,602.419373 
	C603.689148,601.032898 603.897522,599.613342 605.544800,599.328857 
	C607.197510,599.043274 607.884277,600.240356 608.378296,602.036804 
z"/>
<path fill="#000000" opacity="1.000000" stroke="none" 
	d="
M611.205933,773.173340 
	C611.243530,780.779480 611.302307,787.909363 611.293213,795.039124 
	C611.290955,796.806702 611.633362,799.124756 609.078857,799.314209 
	C606.245239,799.524353 606.104553,797.067871 606.069092,795.117004 
	C605.921326,786.994324 605.873596,778.869019 605.882751,770.744873 
	C605.884827,768.857300 605.410583,766.180908 608.171082,766.003113 
	C611.303162,765.801453 610.898376,768.655090 611.152100,770.708984 
	C611.232971,771.363708 611.188904,772.033875 611.205933,773.173340 
z"/>
<path fill="#000000" opacity="1.000000" stroke="none" 
	d="
M600.934448,454.956879 
	C600.906250,450.989075 600.802246,447.505371 600.911072,444.028290 
	C600.966187,442.267517 601.689819,440.657837 603.852173,440.782440 
	C605.769775,440.892914 606.209045,442.440369 606.218872,444.008148 
	C606.276062,453.126678 606.288635,462.245605 606.286499,471.364380 
	C606.286133,472.749847 606.025574,474.117889 604.247437,474.222565 
	C602.246765,474.340363 601.747314,472.989655 601.670776,471.334229 
	C601.425903,466.037537 601.187561,460.740570 600.934448,454.956879 
z"/>
<path fill="#000000" opacity="1.000000" stroke="none" 
	d="
M602.531494,485.852722 
	C605.839111,484.072205 606.908691,486.030182 607.008423,488.378021 
	C607.128052,491.193665 608.421692,494.669006 605.190369,496.507416 
	C603.383240,497.535553 602.038269,495.859161 601.873352,494.016510 
	C601.639954,491.408875 601.311340,488.747467 602.531494,485.852722 
z"/>
<path fill="#000000" opacity="1.000000" stroke="none" 
	d="
M611.315796,815.886902 
	C611.080872,818.338867 612.002930,821.419189 608.936707,821.460510 
	C605.723022,821.503845 606.205566,818.337708 605.997192,816.105286 
	C605.920532,815.283447 605.957336,814.437195 606.055847,813.615723 
	C606.258911,811.922607 606.570312,810.053345 608.688171,809.963013 
	C610.932556,809.867249 611.199280,811.700623 611.278137,813.452332 
	C611.308044,814.116577 611.304077,814.782349 611.315796,815.886902 
z"/>
<path fill="#000000" opacity="1.000000" stroke="none" 
	d="
M419.517944,703.376343 
	C418.034729,708.568298 416.713776,713.375549 415.208923,718.124573 
	C414.624512,719.968994 413.901489,722.437134 411.252899,721.518250 
	C408.779083,720.659973 409.964203,718.486572 410.495087,716.809631 
	C413.257538,708.083130 415.634216,699.268066 416.925446,690.185486 
	C417.064331,689.208313 417.426697,688.254089 417.759277,687.315369 
	C418.239441,685.960144 419.083893,684.889099 420.674957,685.195190 
	C422.343689,685.516174 422.503571,686.920288 422.441803,688.317444 
	C422.219757,693.339661 420.648041,698.103149 419.517944,703.376343 
z"/>
<path fill="#000000" opacity="1.000000" stroke="none" 
	d="
M271.574036,643.558105 
	C271.921112,638.981750 271.341492,634.800720 272.495178,630.741455 
	C272.930634,629.209229 273.609375,627.754822 275.477295,628.099976 
	C277.414124,628.457886 277.334442,630.249878 277.274719,631.707581 
	C276.990204,638.649292 276.629700,645.588074 276.273376,652.526672 
	C276.199860,653.958618 275.719238,655.172119 274.031311,655.283325 
	C272.376770,655.392395 271.646973,654.267578 271.332031,652.897644 
	C270.650269,649.932312 271.058167,646.968018 271.574036,643.558105 
z"/>
<path fill="#000000" opacity="1.000000" stroke="none" 
	d="
M424.810364,647.403320 
	C422.619659,650.088257 420.990479,649.054504 420.260773,646.846008 
	C419.665619,645.044861 419.819366,642.963623 419.828033,641.007446 
	C419.833435,639.788269 420.490540,638.766357 421.825745,638.550720 
	C423.453308,638.287781 424.235565,639.378906 424.691223,640.684631 
	C425.412262,642.751038 425.314423,644.885925 424.810364,647.403320 
z"/>
<path fill="#000000" opacity="1.000000" stroke="none" 
	d="
M424.293732,676.118408 
	C423.445801,678.188599 422.228210,679.567200 420.411133,678.280151 
	C418.391479,676.849609 419.614807,674.606323 419.915619,672.735535 
	C420.119843,671.465271 421.183411,670.651672 422.483551,670.963074 
	C425.245178,671.624390 424.786896,673.736755 424.293732,676.118408 
z"/>
<path fill="#000000" opacity="1.000000" stroke="none" 
	d="
M321.015869,528.923828 
	C323.776642,527.328796 326.207550,525.882690 328.687622,524.526550 
	C330.124634,523.740723 331.597748,523.585144 332.628143,525.200256 
	C333.697174,526.875977 332.847809,528.185486 331.411438,528.925598 
	C319.875793,534.869080 311.015839,543.714417 303.593750,554.186401 
	C302.611969,555.571655 301.066467,556.747131 299.372345,555.227173 
	C297.851562,553.862793 298.412689,552.217957 299.469757,550.733704 
	C305.403900,542.401367 312.325165,535.039062 321.015869,528.923828 
z"/>
<path fill="#000000" opacity="1.000000" stroke="none" 
	d="
M289.996338,580.916077 
	C288.734039,584.217224 287.645630,587.172302 286.481598,590.097351 
	C285.861633,591.655273 284.691315,592.602417 282.969147,592.048462 
	C281.051971,591.431763 281.196625,589.797119 281.695404,588.332825 
	C285.015747,578.585388 288.815704,569.040649 294.086823,560.151794 
	C294.955597,558.686768 296.179718,557.132019 298.053253,558.214966 
	C300.169434,559.438171 299.266693,561.386414 298.392426,563.016357 
	C295.332886,568.720215 292.422455,574.490295 289.996338,580.916077 
z"/>
<path fill="#000000" opacity="1.000000" stroke="none" 
	d="
M282.581421,601.135010 
	C282.564728,602.161133 282.522369,602.817871 282.397278,603.458496 
	C282.059265,605.189636 281.287476,606.653809 279.311371,606.703735 
	C277.974182,606.737488 277.267822,605.687622 277.153320,604.445251 
	C276.966431,602.417603 277.238983,600.375061 279.110291,599.224365 
	C280.707733,598.242065 281.894806,599.096069 282.581421,601.135010 
z"/>
<path fill="#000000" opacity="1.000000" stroke="none" 
	d="
M385.200500,761.195557 
	C391.183533,754.624023 395.846924,747.568176 399.851868,740.057800 
	C400.399292,739.031128 400.952850,738.007812 401.499603,736.980835 
	C402.444153,735.206604 403.805023,733.759216 405.836456,734.942017 
	C407.721924,736.039856 406.806396,737.844421 406.054688,739.365234 
	C401.389618,748.803223 395.736481,757.571289 388.552002,765.315491 
	C382.624359,771.704956 376.093445,777.297791 368.129395,781.025879 
	C366.778076,781.658447 365.374146,782.184631 363.974762,782.707031 
	C362.395599,783.296509 360.880463,783.139954 360.167419,781.468445 
	C359.379730,779.622009 360.841644,778.774414 362.192139,778.051453 
	C365.409546,776.328918 368.732910,774.786011 371.853485,772.905151 
	C376.881042,769.874756 380.962219,765.698975 385.200500,761.195557 
z"/>
<path fill="#000000" opacity="1.000000" stroke="none" 
	d="
M350.910187,167.327011 
	C350.792053,169.566086 350.791901,171.394714 350.663879,173.214310 
	C350.555847,174.749832 350.270020,176.444687 348.342468,176.524445 
	C346.426056,176.603760 345.807861,175.050934 345.854462,173.443527 
	C346.153900,163.112701 346.759216,152.812653 349.854950,142.847565 
	C350.383423,141.146393 351.358734,139.582886 353.395721,140.176483 
	C355.500977,140.789948 355.283478,142.587296 354.780609,144.319916 
	C352.637970,151.702560 351.306946,159.224152 350.910187,167.327011 
z"/>
<path fill="#000000" opacity="1.000000" stroke="none" 
	d="
M345.801697,187.303192 
	C346.071106,185.336258 346.460419,183.798172 348.454041,184.039917 
	C350.368439,184.272064 350.539856,185.920197 350.586487,187.414017 
	C350.632446,188.886246 350.518188,190.367523 350.405670,191.839615 
	C350.282928,193.446869 350.434967,195.511612 348.078461,195.397278 
	C345.906494,195.291885 345.849976,193.339691 345.786285,191.674149 
	C345.736176,190.362656 345.777466,189.047668 345.801697,187.303192 
z"/>
<path fill="#000000" opacity="1.000000" stroke="none" 
	d="
M348.974426,426.737549 
	C341.148895,425.948242 335.772888,422.409760 333.337616,415.122467 
	C332.876526,413.742615 332.773651,412.196472 332.764709,410.725494 
	C332.756042,409.301758 333.404266,408.067627 335.061554,408.013641 
	C336.474518,407.967560 337.052521,408.989929 337.283997,410.236298 
	C337.745850,412.722656 338.657104,415.020691 340.194336,417.039551 
	C344.227997,422.337036 350.110504,422.900513 356.476654,418.612518 
	C357.930878,417.632965 359.422211,415.745148 361.134644,417.880463 
	C362.942108,420.134399 360.873444,421.517548 359.418304,422.791321 
	C356.560028,425.293457 353.043854,426.246094 348.974426,426.737549 
z"/>
<path fill="#000000" opacity="1.000000" stroke="none" 
	d="
M365.264679,407.102539 
	C365.296173,409.111084 364.987305,410.614258 363.076721,410.805511 
	C361.181122,410.995300 360.575287,409.470673 360.114838,408.028198 
	C358.567535,403.181030 355.412201,400.182587 350.342682,399.259460 
	C348.389801,398.903870 346.677460,398.048035 347.236847,395.682007 
	C347.726685,393.610260 349.614532,393.696259 351.301483,393.774750 
	C357.637573,394.069550 362.985382,399.035217 365.264679,407.102539 
z"/>
</svg>