<svg version="1.1" id="Layer_1" xmlns="http://www.w3.org/2000/svg" xmlns:xlink="http://www.w3.org/1999/xlink" x="0px" y="0px"
	 width="100%" viewBox="0 0 896 1024" enable-background="new 0 0 896 1024" xml:space="preserve">
<path fill="#000000" opacity="1.000000" stroke="none" 
	d="
M570.016235,747.129089 
	C584.652161,782.036865 599.143250,816.588013 613.631714,851.140198 
	C619.234375,864.501404 625.052185,877.777405 630.385986,891.245117 
	C642.484924,921.794678 622.020935,954.260437 589.252258,956.123596 
	C569.919617,957.222778 551.848633,946.882263 543.572266,927.504944 
	C535.591919,908.820801 527.785889,890.062317 519.913025,871.332336 
	C503.331085,831.883179 486.381927,792.581299 470.437164,752.876221 
	C466.396851,742.815063 460.230377,737.453186 450.655853,733.242432 
	C403.238983,712.389221 356.146912,690.798889 308.855042,669.659241 
	C294.719360,663.340576 280.425110,657.542542 267.704926,648.379333 
	C240.712143,628.934570 230.679245,603.648376 238.111649,571.239807 
	C242.877411,550.458923 252.607224,531.581055 261.652710,512.484314 
	C285.149902,462.877350 319.613892,421.663544 360.150146,385.294952 
	C379.315887,368.099762 401.859772,358.564697 428.068359,359.753143 
	C443.194885,360.439056 457.109161,364.998352 469.374664,374.237152 
	C479.707031,382.019867 485.403839,392.495239 487.015900,405.023346 
	C489.376495,423.368866 493.618988,441.355621 496.874634,459.525848 
	C498.003387,465.825562 497.061005,470.467010 492.759277,475.255035 
	C485.976715,482.804321 479.874054,490.963715 473.462769,498.847961 
	C472.246613,500.343506 471.306763,502.212646 468.906586,502.703033 
	C466.593109,498.622559 467.589020,494.127899 467.081757,489.975189 
	C464.985992,472.817261 463.142639,455.616455 461.756989,438.387146 
	C460.324890,420.580261 449.055298,406.137207 432.882141,402.437256 
	C415.922241,398.557343 399.810974,405.479370 391.151062,420.671783 
	C386.999359,427.955261 385.709442,435.900543 386.618439,444.297729 
	C388.622772,462.813812 390.417450,481.352539 392.315552,499.880219 
	C393.840973,514.770081 395.237427,529.675720 397.005402,544.536926 
	C397.765228,550.923767 397.124084,556.389221 392.923615,561.788086 
	C386.280945,570.325928 380.822723,579.736145 375.418335,589.124573 
	C372.499542,594.195007 372.777405,594.955933 378.004303,597.330933 
	C385.283295,600.638550 392.541382,603.998840 399.899628,607.121704 
	C402.547180,608.245178 404.164764,609.820374 405.248718,612.531555 
	C413.195557,632.408020 433.358185,641.507935 453.563049,634.332764 
	C456.139343,633.417908 458.251892,633.494141 460.705017,634.607544 
	C480.270599,643.488037 499.842163,652.357727 519.494812,661.043091 
	C533.962646,667.436951 541.838379,679.212830 547.478516,693.325073 
	C554.646179,711.259399 562.380432,728.967346 570.016235,747.129089 
z"/>
<path fill="#000000" opacity="1.000000" stroke="none" 
	d="
M207.845154,874.095093 
	C212.152802,848.247620 216.383682,822.831665 220.636612,797.419495 
	C226.534027,762.181030 232.418594,726.940308 238.393616,691.715027 
	C239.107864,687.504211 238.011139,685.276123 233.432205,685.381348 
	C229.768600,685.465576 226.098175,685.454163 222.435577,685.336243 
	C215.287003,685.105957 209.597885,680.010803 208.719055,673.177246 
	C207.819351,666.181396 211.833069,659.881897 218.676666,657.781189 
	C220.406952,657.250061 222.266693,656.894348 224.069305,656.884399 
	C237.233078,656.811523 250.397430,656.848572 263.561615,656.847717 
	C265.241669,656.847656 266.904388,656.928162 268.378204,657.871521 
	C283.766205,667.721313 300.952667,673.784607 317.482941,681.231873 
	C319.259277,682.032166 321.323944,682.438599 322.596558,684.291382 
	C321.552460,686.377075 319.673035,685.370728 318.236450,685.375244 
	C301.239929,685.428772 284.241882,685.495300 267.247162,685.301147 
	C262.789917,685.250305 260.862061,686.525818 260.097778,691.275879 
	C253.336823,733.297913 246.308350,775.276978 239.308960,817.260498 
	C236.110977,836.442627 232.793411,855.604797 229.546738,874.778870 
	C228.649353,880.078674 229.424393,881.047913 234.732468,881.049866 
	C287.555847,881.069580 340.379242,881.079285 393.202637,881.058228 
	C399.926819,881.055603 400.198364,880.571289 399.056763,873.745850 
	C391.322876,827.506775 383.608185,781.264404 375.897339,735.021484 
	C374.346954,725.723694 372.839661,716.418701 371.264679,706.825867 
	C374.809601,706.120117 377.017548,708.246521 379.544250,709.183777 
	C380.320557,709.471802 381.000885,710.105774 381.788635,710.262573 
	C393.478027,712.589233 396.362457,720.824280 397.522797,731.463013 
	C399.052002,745.483459 402.007019,759.347961 404.329742,773.282776 
	C404.525757,774.458923 404.748718,775.557068 406.806885,776.588318 
	C412.755249,760.979797 414.966766,744.501038 420.105316,729.058777 
	C422.088898,727.980774 423.531677,729.102234 424.992828,729.758423 
	C435.172302,734.329834 445.315674,738.982178 455.513184,743.512695 
	C457.771027,744.515808 459.355682,745.889221 460.332367,748.220459 
	C470.626740,772.791931 480.976532,797.340210 491.338531,821.883301 
	C492.151581,823.809021 492.303680,825.629089 491.730621,827.690002 
	C489.859589,834.418640 488.285339,841.230652 486.371918,847.946472 
	C479.069427,873.577026 453.063873,887.819641 427.497925,880.289246 
	C426.104248,879.878723 424.729553,878.968140 422.977295,879.944946 
	C421.355011,883.127441 423.170349,886.356995 423.660736,889.478577 
	C426.472168,907.373962 429.524628,925.233032 432.692627,943.069397 
	C433.277466,946.362122 432.242920,947.751282 429.171631,948.229431 
	C425.066284,948.868774 420.939240,949.437195 416.888123,950.336243 
	C413.079102,951.181641 411.406677,949.717163 410.845276,946.038513 
	C409.189178,935.186218 407.409668,924.352661 405.658905,913.514893 
	C404.996674,909.415649 404.178558,905.338928 403.620819,901.226196 
	C403.139404,897.676208 401.602997,896.187500 397.731293,896.233337 
	C380.570221,896.436218 363.405334,896.320251 346.241852,896.319641 
	C308.415527,896.318359 270.588867,896.392578 232.763306,896.222290 
	C227.906067,896.200439 225.773727,897.304993 225.070740,902.592346 
	C223.143417,917.088562 220.390213,931.473083 218.151352,945.930847 
	C217.535736,949.906372 215.942734,951.359253 211.876434,950.333740 
	C208.019745,949.361084 204.042572,948.843689 200.101639,948.234436 
	C196.908203,947.740723 195.694565,946.559021 196.338013,942.880432 
	C200.318298,920.125610 203.998398,897.318176 207.845154,874.095093 
z"/>
<path fill="#000000" opacity="1.000000" stroke="none" 
	d="
M400.961212,514.809082 
	C398.579498,491.533173 396.391998,468.691223 393.898499,445.882751 
	C392.199982,430.346161 397.853333,418.115479 410.194855,411.812714 
	C429.296967,402.057373 452.153809,414.856750 454.285217,436.425201 
	C456.900513,462.890625 459.618103,489.345917 462.288330,515.805908 
	C462.437683,517.285950 462.283508,519.103210 464.196289,519.420471 
	C466.143311,519.743347 467.031097,517.970825 468.055573,516.706909 
	C481.797241,499.753662 495.508881,482.776062 509.259735,465.830261 
	C520.280029,452.249420 531.277588,438.649170 542.408081,425.158905 
	C551.829651,413.739899 566.007629,412.043579 577.814331,416.736664 
	C590.252747,421.680847 597.492432,434.695679 596.061462,448.188904 
	C595.389893,454.521606 592.667114,459.966888 588.692322,464.856171 
	C547.296448,515.775879 505.915771,566.707886 464.503113,617.614014 
	C455.897156,628.192871 443.170898,632.127014 430.986267,628.141296 
	C418.591522,624.086853 410.836700,613.476746 409.649139,600.105408 
	C407.958069,581.063904 405.813904,562.062744 403.865204,543.044067 
	C402.916229,533.782043 401.971649,524.519653 400.961212,514.809082 
z"/>
<path fill="#000000" opacity="1.000000" stroke="none" 
	d="
M580.693726,410.272339 
	C564.172607,403.945923 548.886353,407.536499 537.275696,420.454071 
	C533.604675,424.538269 530.218994,428.884674 526.806519,433.193298 
	C524.759827,435.777435 523.083557,435.904114 520.856995,433.270020 
	C483.653503,389.256500 499.038208,321.348022 553.690125,299.646027 
	C594.631042,283.388580 640.906433,302.247467 660.085449,340.117096 
	C684.086243,387.507660 657.928101,446.151978 606.472168,459.505768 
	C604.736389,459.956207 603.009155,460.820496 600.725464,459.542938 
	C607.476868,438.008362 601.541931,421.233368 580.693726,410.272339 
z"/>
<path fill="#000000" opacity="1.000000" stroke="none" 
	d="
M620.384216,134.425491 
	C612.249268,135.579651 604.554077,136.678207 596.858887,137.776779 
	C603.571167,139.585159 610.431213,139.707825 617.272034,140.053558 
	C620.428040,140.213058 623.575867,140.531952 626.728027,140.770370 
	C630.446716,141.051651 632.696289,143.123764 632.902283,146.744034 
	C633.118103,150.537796 630.589539,152.403809 627.129578,153.123199 
	C617.360657,155.154404 607.608215,157.274017 597.807800,159.141296 
	C589.533081,160.717880 588.375793,161.888702 588.353699,170.227310 
	C588.278625,198.547882 588.228882,226.868515 588.131226,255.189011 
	C588.114868,259.927582 587.786743,264.648743 586.646301,270.228485 
	C584.069458,267.778168 583.990112,265.439484 583.833496,263.306641 
	C582.309143,242.549255 581.158569,221.774429 580.600586,200.962296 
	C580.310913,190.157181 579.445862,179.366455 578.783569,168.572739 
	C578.398621,162.298615 579.559937,156.616913 585.431213,151.808548 
	C576.890320,150.575607 569.130859,149.503113 561.388489,148.319443 
	C556.954224,147.641525 552.546143,146.791687 548.129028,146.003342 
	C543.524109,145.181473 540.228760,142.721634 540.204346,137.829575 
	C540.181213,133.196136 543.294067,130.795883 547.656372,129.742188 
	C554.268921,128.144989 560.845215,126.397537 567.456848,123.642448 
	C559.385742,122.552010 551.326172,121.365257 543.240967,120.392136 
	C528.560303,118.625198 513.862183,117.003792 499.175690,115.284111 
	C492.569885,114.510628 487.422058,109.016327 486.783478,102.178123 
	C486.191925,95.843475 490.598145,89.335281 497.336761,87.616280 
	C510.390228,84.286369 523.461731,80.988869 536.752075,78.681320 
	C538.155762,78.437592 539.800110,78.732979 540.833862,76.857651 
	C538.669617,74.636299 535.496826,74.502655 532.933594,73.178726 
	C526.098572,69.648338 525.690063,64.596207 532.164856,60.376602 
	C539.316711,55.715763 547.580750,54.124290 555.782349,52.818695 
	C582.969727,48.490757 610.152466,49.891869 637.308655,53.415344 
	C649.178467,54.955441 661.064148,56.374104 672.823547,58.651360 
	C683.813171,60.779568 689.011169,67.766983 688.314697,79.421112 
	C687.792969,88.152283 680.210754,94.526779 670.174133,95.368401 
	C645.823181,97.410378 621.493652,99.708328 597.149902,102.352661 
	C613.033508,106.005623 629.050659,108.271645 645.276550,109.050209 
	C647.601318,109.161758 649.941711,109.290817 652.234436,109.661598 
	C658.368164,110.653526 662.109192,114.763771 662.132751,120.336212 
	C662.154907,125.598648 658.586182,129.795898 652.527161,130.730759 
	C645.304993,131.845016 638.005066,132.455750 630.737976,133.277237 
	C627.434326,133.650681 624.128723,134.006226 620.384216,134.425491 
z"/>
<path fill="#000000" opacity="1.000000" stroke="none" 
	d="
M618.773071,462.756042 
	C636.250000,455.673126 649.837708,444.282471 660.757751,428.621063 
	C666.196716,434.463776 667.285156,441.103607 666.925293,447.817230 
	C666.513367,455.501740 663.039734,462.064758 657.883240,467.905365 
	C629.455933,500.104034 601.153687,532.413147 572.809204,564.685059 
	C561.052124,578.071228 549.379028,591.532837 537.474976,604.786926 
	C534.950073,607.598145 534.669922,609.863892 536.312988,613.181030 
	C544.276978,629.259460 539.800842,644.845764 534.275574,660.896484 
	C511.711121,648.769409 488.108307,639.836182 465.436676,628.714539 
	C466.274536,625.131653 469.002502,623.480103 470.822449,621.232605 
	C500.896942,584.093750 531.043213,547.013062 561.161194,509.909454 
	C571.444336,497.241272 581.727722,484.572968 591.925476,471.836304 
	C593.624573,469.714203 595.640015,468.666504 598.254395,468.366241 
	C605.247314,467.563080 611.937500,465.609344 618.773071,462.756042 
z"/>
<path fill="#000000" opacity="1.000000" stroke="none" 
	d="
M400.610779,581.617310 
	C401.135742,587.610962 402.694641,593.108032 401.943115,599.535339 
	C395.388214,597.730286 389.670441,594.993469 384.130951,591.932190 
	C382.431000,590.992737 383.483459,589.265625 384.282471,587.979492 
	C386.209534,584.877319 388.317749,581.877380 390.077423,578.684448 
	C391.778412,575.598145 394.314758,575.399414 397.307526,575.851685 
	C400.609253,576.350647 400.200806,578.958618 400.610779,581.617310 
z"/>
</svg>