<svg version="1.1" id="Layer_1" xmlns="http://www.w3.org/2000/svg" xmlns:xlink="http://www.w3.org/1999/xlink" x="0px" y="0px"
	 width="100%" viewBox="0 0 768 576" enable-background="new 0 0 768 576" xml:space="preserve">
<path fill="#000000" opacity="1.000000" stroke="none" 
	d="
M368.000061,51.685898 
	C379.999176,51.684391 391.498291,51.659859 402.997284,51.688858 
	C413.036591,51.714176 419.402771,57.522633 419.358948,66.541435 
	C419.316162,75.337326 412.737274,81.306328 402.814087,81.310677 
	C328.320129,81.343330 253.826157,81.337166 179.332184,81.343864 
	C153.334290,81.346207 127.336372,81.332825 101.338501,81.358940 
	C74.866776,81.385529 55.557281,100.449051 55.414734,126.964523 
	C55.266911,154.461517 55.379730,181.959900 55.378738,209.457672 
	C55.375595,296.617279 55.364380,383.776886 55.375092,470.936493 
	C55.377823,493.177216 69.631828,511.506317 90.440460,516.193726 
	C94.064690,517.010132 97.732132,516.879211 101.386841,516.879883 
	C239.708984,516.905029 378.031952,516.670532 516.352478,517.144897 
	C539.488342,517.224182 562.366516,500.294403 562.602173,470.631775 
	C562.828552,442.135895 562.644775,413.636780 562.657898,385.139099 
	C562.662659,374.776031 568.077148,368.696442 577.235413,368.699677 
	C586.184204,368.702820 592.145996,375.154755 592.160461,385.116699 
	C592.203247,414.614227 592.338501,444.113098 592.123413,473.609131 
	C591.827332,514.215881 558.906006,546.929932 518.258301,546.953796 
	C378.602966,547.036011 238.947571,547.038635 99.292236,546.986267 
	C59.164288,546.971191 26.193390,514.131348 25.786180,473.757782 
	C25.534077,448.762360 25.742418,423.762299 25.741123,398.764343 
	C25.736427,308.105011 25.702942,217.445663 25.739943,126.786346 
	C25.752922,94.981377 43.989510,67.661674 72.662918,56.441158 
	C80.617050,53.328537 88.884605,51.633106 97.525452,51.638725 
	C187.516953,51.697247 277.508514,51.681370 368.000061,51.685898 
z"/>
<path fill="#000000" opacity="1.000000" stroke="none" 
	d="
M120.928268,225.000000 
	C120.923950,200.672028 120.859772,176.843872 120.938217,153.016174 
	C120.984802,138.865005 127.811935,129.621155 139.778488,127.247704 
	C141.721741,126.862274 143.750244,126.771553 145.739288,126.771912 
	C195.061081,126.780769 244.382874,126.846237 293.704620,126.811867 
	C298.346741,126.808640 302.025635,128.312775 305.294006,131.594803 
	C331.866302,158.278229 358.488037,184.912521 385.147003,211.509369 
	C388.049225,214.404861 389.381622,217.655319 389.378967,221.757965 
	C389.329926,297.407623 389.361603,373.057312 389.321320,448.707001 
	C389.314545,461.460114 379.599609,471.324280 366.917267,471.333679 
	C292.600677,471.388641 218.283981,471.383514 143.967361,471.333923 
	C130.623749,471.325043 121.742661,461.797699 120.955109,446.948853 
	C120.814102,444.290161 120.925644,441.617920 120.925667,438.951935 
	C120.926163,367.801300 120.927330,296.650635 120.928268,225.000000 
M267.499939,447.680817 
	C297.819519,447.678955 328.139069,447.678070 358.458649,447.674561 
	C365.582977,447.673737 365.605194,447.669678 365.605774,440.538025 
	C365.611053,373.400787 365.563568,306.263489 365.701599,239.126541 
	C365.711456,234.328964 364.340576,232.807388 359.497986,232.885269 
	C342.842834,233.153168 326.179871,233.114868 309.521851,232.968170 
	C293.730530,232.829117 283.691772,222.559601 283.667389,206.823608 
	C283.642090,190.497482 283.669037,174.171249 283.649872,157.845093 
	C283.641846,151.024277 283.614563,151.001419 276.626892,151.000854 
	C234.978500,150.997528 193.329788,151.081619 151.682129,150.910141 
	C146.684570,150.889557 145.114471,152.285629 145.122086,157.385605 
	C145.263260,252.010559 145.266647,346.635834 145.138702,441.260834 
	C145.131973,446.227081 146.394363,447.815674 151.550919,447.787476 
	C189.866302,447.578094 228.183365,447.677612 267.499939,447.680817 
M307.328949,197.451416 
	C307.342102,200.113220 307.353455,202.775024 307.369049,205.436813 
	C307.380585,207.407318 308.282440,208.661118 310.332031,208.666321 
	C322.406830,208.696960 334.481720,208.681396 345.480469,208.681396 
	C333.020447,195.889984 320.306000,182.837448 307.327454,169.513733 
	C307.327454,178.559723 307.327454,187.512054 307.328949,197.451416 
z"/>
<path fill="#000000" opacity="1.000000" stroke="none" 
	d="
M476.978790,196.995270 
	C497.948334,186.937653 508.618164,169.113434 515.384460,148.402588 
	C518.531250,138.770737 520.876770,128.877151 523.585815,119.102272 
	C524.064697,117.374344 524.544495,115.646667 525.067566,113.761230 
	C527.089722,114.877968 526.983948,116.656540 527.364197,118.170715 
	C530.200867,129.467712 533.255798,140.688034 536.868530,151.780090 
	C545.938721,179.628006 565.151978,196.511993 592.734924,204.771149 
	C602.465637,207.684830 612.200439,210.545471 622.137573,212.675156 
	C623.549133,212.977676 625.119568,212.936554 626.317322,214.398163 
	C623.872314,216.362289 620.967407,216.422806 618.333923,217.081696 
	C606.703186,219.991730 595.182861,223.203232 583.912415,227.357529 
	C559.218994,236.459503 544.119873,254.260788 536.220703,278.889526 
	C532.862488,289.360046 529.907898,299.927399 527.385925,310.623810 
	C527.021973,312.167206 527.116028,313.957977 525.085632,315.147369 
	C522.611206,305.876221 520.356262,296.708832 517.684387,287.664642 
	C515.848572,281.450500 513.685425,275.304504 511.231384,269.306946 
	C503.547302,250.527695 490.339233,237.163940 471.586090,229.206787 
	C459.270172,223.981018 446.457733,220.459412 433.517761,217.283661 
	C430.652954,216.580566 427.811829,215.780945 424.905304,214.471115 
	C442.413513,209.222977 460.326721,205.546097 476.978790,196.995270 
z"/>
<path fill="#000000" opacity="1.000000" stroke="none" 
	d="
M629.705078,33.599274 
	C631.203003,41.020660 633.530334,47.795635 635.703735,54.613373 
	C641.895203,74.036064 655.395569,85.785484 674.590576,91.459755 
	C680.495117,93.205193 686.482056,94.670570 692.417969,96.312080 
	C694.098938,96.776932 696.089417,96.626724 697.634338,98.765770 
	C680.347595,103.806519 662.243225,106.328621 648.962830,119.626205 
	C635.830627,132.775360 633.263306,150.671417 628.178040,168.073410 
	C626.197998,166.088287 626.140625,164.073074 625.693054,162.280807 
	C623.351074,152.903351 620.838440,143.593262 616.941467,134.700424 
	C610.625183,120.286484 599.322815,111.541252 584.823608,106.638588 
	C576.181641,103.716461 567.340942,101.382202 558.536499,98.767891 
	C559.005920,96.640663 560.772034,96.959579 562.079956,96.629723 
	C570.641479,94.470345 579.133972,92.122757 587.434631,89.055496 
	C604.768555,82.650269 615.052734,69.902275 620.416321,52.729603 
	C622.878174,44.847435 625.009827,36.862125 627.309326,28.860497 
	C629.586487,29.768684 629.026184,31.765310 629.705078,33.599274 
z"/>
<path fill="#000000" opacity="1.000000" stroke="none" 
	d="
M689.490112,318.482574 
	C688.068481,323.917755 686.749878,328.962952 685.431274,334.008148 
	C685.058899,334.003571 684.686523,333.998993 684.314148,333.994415 
	C682.798889,328.328674 681.418518,322.622620 679.739258,317.005920 
	C676.575378,306.423157 672.862305,296.139496 664.732239,288.056580 
	C656.870178,280.240112 646.961121,276.474945 636.721802,273.330566 
	C630.790710,271.509186 624.750183,270.043976 618.522217,268.354218 
	C619.865173,266.094055 621.723511,266.347015 623.209290,265.931152 
	C627.856018,264.630615 632.524780,263.395416 637.221130,262.288147 
	C663.956665,255.984619 676.220947,236.975021 681.634033,211.886978 
	C682.359985,208.522232 683.311096,205.206055 684.727356,201.755112 
	C690.129456,217.737320 692.510864,234.980179 705.063721,247.574310 
	C717.572144,260.123901 734.639526,262.533447 751.077759,268.172882 
	C721.283569,273.738770 696.346313,284.939362 689.490112,318.482574 
z"/>
<path fill="#000000" opacity="1.000000" stroke="none" 
	d="
M205.000046,323.723389 
	C246.150192,323.726929 286.800323,323.718689 327.450470,323.744476 
	C335.846008,323.749817 340.881592,327.885742 341.295074,334.945160 
	C341.659485,341.166412 337.660828,346.401764 331.533112,347.524017 
	C329.747467,347.851074 327.888641,347.874237 326.063293,347.874878 
	C279.248993,347.891937 232.434692,347.888916 185.620392,347.880920 
	C183.955780,347.880615 182.280624,347.897522 180.628403,347.729370 
	C173.795013,347.033783 168.947479,341.868652 169.124268,335.557495 
	C169.311417,328.876312 174.440933,323.869629 181.509949,323.753876 
	C189.171417,323.628357 196.836533,323.724335 205.000046,323.723389 
z"/>
<path fill="#000000" opacity="1.000000" stroke="none" 
	d="
M273.000000,296.929565 
	C243.358292,296.934631 214.216583,296.944763 185.074875,296.934784 
	C183.081329,296.934113 181.050262,296.999359 179.101425,296.660889 
	C173.360626,295.663940 168.955795,290.210724 169.139969,284.579254 
	C169.330139,278.764496 173.815643,273.746216 179.626694,272.925018 
	C180.773132,272.763031 181.952377,272.801056 183.116501,272.801025 
	C231.075424,272.799683 279.034332,272.799347 326.993256,272.828827 
	C328.810486,272.829926 330.683685,272.898895 332.434265,273.329102 
	C337.941071,274.682373 341.391663,279.377563 341.317078,285.111450 
	C341.245056,290.644531 337.416290,295.396759 331.912781,296.466644 
	C329.810150,296.875397 327.611023,296.902405 325.455475,296.906677 
	C308.137024,296.940979 290.818512,296.928253 273.000000,296.929565 
z"/>
<path fill="#000000" opacity="1.000000" stroke="none" 
	d="
M215.000061,374.714294 
	C245.635193,374.713531 275.770355,374.689209 305.905426,374.728119 
	C314.209076,374.738831 319.165161,379.001862 319.487579,386.157806 
	C319.766754,392.353912 316.156586,397.159790 310.053680,398.401367 
	C307.955811,398.828156 305.756134,398.887115 303.602814,398.888702 
	C264.310608,398.917908 225.018402,398.915405 185.726196,398.906342 
	C183.897186,398.905914 182.051224,398.917358 180.242279,398.690765 
	C173.860352,397.891357 169.041656,392.558594 169.172379,386.568176 
	C169.315628,380.003448 174.140747,374.926544 181.036713,374.788818 
	C192.187195,374.566162 203.345215,374.719849 215.000061,374.714294 
z"/>
</svg>