<svg version="1.1" id="Layer_1" xmlns="http://www.w3.org/2000/svg" xmlns:xlink="http://www.w3.org/1999/xlink" x="0px" y="0px"
	 width="100%" viewBox="0 0 746 904" enable-background="new 0 0 746 904" xml:space="preserve">
<path fill="none" opacity="1.000000" stroke="#000000" stroke-linecap="round" stroke-linejoin="round" stroke-width="3.000000"
	d="
M688.000000,277.000000 
	C685.907837,267.745148 689.869812,258.751221 689.070923,249.493881 
	C687.519653,231.518204 682.948181,214.841095 672.140686,199.898270 
	C664.703491,189.615387 654.556824,182.800247 645.206482,174.759888 
	C633.257751,164.485153 621.852356,153.385437 614.880920,138.555969 
	C609.366638,126.826065 603.315369,115.199745 594.418335,105.575478 
	C588.680847,99.368935 581.818359,94.482910 574.633240,89.795753 
	C559.095703,79.659996 541.827881,74.012100 524.451477,68.657494 
	C514.338623,65.541199 503.607941,64.044342 493.017853,65.168243 
	C482.762299,66.256638 473.110199,69.982590 463.983002,74.968903 
	C453.110687,80.908569 441.843597,85.905464 429.500000,88.000000 
"/>
<path fill="none" opacity="1.000000" stroke="#000000" stroke-linecap="round" stroke-linejoin="round" stroke-width="3.000000"
	d="
M689.000000,278.500000 
	C689.333313,279.166656 689.904297,279.812469 689.965027,280.503082 
	C691.310364,295.811371 691.973511,311.254578 690.568909,326.460175 
	C689.869141,334.035034 689.329956,341.904724 687.367432,349.593781 
	C685.556641,356.687775 684.616394,364.135162 681.856750,370.941925 
	C679.509399,376.731720 677.597717,382.641327 675.504700,388.501678 
	C672.848450,395.938995 671.446228,403.784302 671.239014,411.506409 
	C670.988220,420.851654 670.390747,430.189636 669.825684,439.489410 
	C668.655762,458.744781 664.737610,477.521942 654.921021,494.454224 
	C649.238586,504.255798 641.032104,511.855804 631.504700,518.007324 
	C621.187683,524.668579 609.734314,529.143860 598.990417,534.982361 
	C598.733093,535.122192 598.330933,534.973877 598.000366,535.003784 
	C585.893372,536.098267 578.857910,545.604309 570.072205,552.097717 
	C565.170349,555.720642 561.000000,560.333313 556.500000,564.500000 
"/>
<path fill="none" opacity="1.000000" stroke="#000000" stroke-linecap="round" stroke-linejoin="round" stroke-width="3.000000"
	d="
M123.000000,368.500000 
	C119.886154,377.231995 118.459839,386.297638 118.077057,395.503204 
	C117.936493,398.883728 116.894302,402.264557 117.139977,405.489349 
	C118.177452,419.107605 119.449806,432.537933 124.687317,445.625122 
	C129.176102,456.841492 135.039597,467.048370 141.607300,476.928680 
	C146.391983,484.126709 151.681427,491.123505 157.597992,497.407745 
	C171.177811,511.831482 185.123672,525.980957 200.594330,538.382324 
	C211.053421,546.766418 221.996780,554.946167 234.575974,559.803223 
	C246.292023,564.326965 258.498016,568.233215 271.505524,565.022339 
	C273.068939,564.636414 274.288422,565.675293 275.500000,566.500000 
"/>
<path fill="none" opacity="1.000000" stroke="#000000" stroke-linecap="round" stroke-linejoin="round" stroke-width="3.000000"
	d="
M400.500000,184.000000 
	C388.491882,187.360245 378.108887,193.517288 369.555786,202.552811 
	C366.637329,205.635895 364.784180,209.522980 365.027802,213.998489 
	C365.139496,216.050735 364.603882,217.676819 363.007629,219.009125 
	C358.782013,222.536026 357.178345,227.528168 355.475342,232.491531 
	C354.279175,235.977661 355.300995,239.107742 357.596619,241.403381 
	C359.892273,243.699020 363.064972,244.842438 366.498413,243.495987 
	C372.837311,241.010101 379.400818,238.963181 385.451569,235.904175 
	C398.292694,229.412247 411.935944,227.229584 425.992523,228.118240 
	C441.470886,229.096741 447.118988,238.343994 446.879639,249.997528 
	C446.647339,261.309174 441.572998,270.727722 432.391235,277.349182 
	C429.505554,279.430176 425.399078,280.739166 421.514130,278.969025 
	C416.577728,276.719818 416.224701,271.902069 416.122772,267.497162 
	C416.018768,263.001709 414.246216,259.743164 410.997162,257.003387 
	C409.458313,255.705780 407.790253,255.653046 405.995300,256.489899 
	C403.840485,257.494507 402.421143,259.210571 403.067505,261.480774 
	C405.161591,268.835297 402.206757,273.342560 395.500000,276.000000 
"/>
<path fill="none" opacity="1.000000" stroke="#000000" stroke-linecap="round" stroke-linejoin="round" stroke-width="3.000000"
	d="
M609.000000,218.000000 
	C610.075562,211.370453 611.931763,204.945541 610.192444,197.952148 
	C609.008545,193.192169 609.855774,188.018570 609.162842,182.977615 
	C607.866638,173.547455 604.861389,164.705521 600.349182,156.583801 
	C594.911438,146.796402 586.627808,139.457367 576.468201,134.566055 
	C573.170837,132.978546 569.491394,132.191727 566.001831,130.994644 
	C559.378906,128.722641 553.322205,125.581932 547.353455,121.726860 
	C538.837830,116.226768 533.256348,107.634308 524.567505,102.388176 
	C513.468323,95.686768 501.980255,90.877327 489.032959,88.794991 
	C477.664459,86.966599 466.937256,89.193756 455.990906,90.943054 
	C453.947235,91.269638 452.913330,92.266647 452.250000,94.000000 
"/>
<path fill="none" opacity="1.000000" stroke="#000000" stroke-linecap="round" stroke-linejoin="round" stroke-width="3.000000"
	d="
M427.500000,92.000000 
	C428.962128,93.687469 430.861450,94.111237 433.000732,94.016724 
	C434.830505,93.935890 436.672363,94.095108 438.499115,93.985329 
	C457.108826,92.867073 469.635315,102.317802 479.589661,116.938957 
	C484.694458,124.436996 491.954895,129.560455 500.470459,133.071625 
	C511.947449,137.803848 524.043457,140.105591 536.000793,142.996811 
	C545.698669,145.341705 555.258728,148.404755 563.409912,154.128326 
	C573.723450,161.370255 581.896301,170.593674 586.108521,182.963058 
	C588.015198,188.562103 589.023315,194.339691 589.775085,200.029709 
	C590.683411,206.903763 594.662659,210.884598 600.062439,213.364029 
	C609.144348,217.534210 616.875305,223.421967 622.860718,231.108444 
	C629.655090,239.833755 633.669495,250.026810 636.133728,260.969879 
	C638.934998,273.409821 639.009949,285.916321 639.020447,298.499969 
	C639.023926,302.704041 637.427185,306.732971 637.937500,311.007446 
	C638.171814,312.969513 638.006775,314.937531 639.500000,316.500000 
"/>
<path fill="none" opacity="1.000000" stroke="#000000" stroke-linecap="round" stroke-linejoin="round" stroke-width="3.000000"
	d="
M175.500000,293.000000 
	C173.968979,293.574921 172.313385,294.267334 172.043610,296.006775 
	C170.649139,304.997040 168.624878,313.876648 167.924103,322.994171 
	C167.281509,331.354980 165.854309,339.652771 165.058624,348.005585 
	C164.631302,352.491638 164.398148,357.045654 164.235107,361.508575 
	C163.930527,369.845917 163.263000,378.187164 162.742416,386.483826 
	C162.081589,397.015533 164.176208,407.512085 162.372299,418.020996 
	C161.873505,420.926819 164.880447,423.262268 165.673447,426.022003 
	C167.721405,433.149017 168.376068,440.674683 171.520859,447.490387 
	C177.179031,459.753418 180.792648,472.773651 184.728836,485.583313 
	C188.345474,497.353088 194.949005,506.430664 204.075150,513.908264 
	C210.202789,518.929077 217.979874,521.207092 225.543198,522.794128 
	C233.015717,524.362122 240.844025,526.083069 248.473022,524.835083 
	C257.958344,523.283325 267.663971,523.891052 277.054901,521.190918 
	C280.592712,520.173706 284.671783,520.511658 288.510925,520.102356 
	C298.800049,519.005615 309.051086,519.211670 319.011902,522.716125 
	C323.198212,524.189026 327.480347,522.487488 331.462433,521.786621 
	C343.666168,519.638489 355.224854,515.366699 366.587158,510.191376 
	C378.070862,504.960724 390.144653,500.718262 402.534271,498.166443 
	C413.821747,495.841614 425.161835,497.516968 435.982849,501.546082 
	C442.910950,504.125732 449.980072,506.410828 456.500000,510.000000 
"/>
<path fill="none" opacity="1.000000" stroke="#000000" stroke-linecap="round" stroke-linejoin="round" stroke-width="3.000000"
	d="
M258.000000,331.500000 
	C260.842834,337.353485 257.816437,342.998291 256.790100,348.460571 
	C254.293350,361.748352 253.641205,375.035583 257.266663,387.924988 
	C259.479980,395.793854 263.558136,403.187897 269.369507,409.617950 
	C277.854767,419.006500 288.012115,425.226929 300.020752,428.421997 
	C309.082520,430.832977 318.253204,430.346405 327.525513,428.638489 
	C334.866455,427.286285 340.964478,423.403290 347.426392,420.344513 
	C352.711700,417.842682 356.939423,420.027954 361.487793,421.536743 
	C364.088379,422.399384 366.335846,421.936005 368.462494,420.446442 
	C368.585632,420.360229 368.166656,419.500000 368.000000,419.000000 
"/>
<path fill="none" opacity="1.000000" stroke="#000000" stroke-linecap="round" stroke-linejoin="round" stroke-width="3.000000"
	d="
M204.000000,162.500000 
	C199.932602,160.397079 197.360229,164.304596 194.042923,165.165436 
	C187.019501,166.988007 179.891037,168.966934 173.540314,172.571045 
	C162.642776,178.755539 154.004761,187.281601 146.261276,197.315765 
	C137.997498,208.024124 133.353073,220.018005 129.609146,232.532654 
	C126.510635,242.889893 125.258224,253.687103 125.060837,264.501099 
	C124.832596,277.004333 124.275848,289.593933 126.274246,301.955658 
	C126.824654,305.360413 124.996284,309.858215 129.000000,312.500000 
"/>
<path fill="none" opacity="1.000000" stroke="#000000" stroke-linecap="round" stroke-linejoin="round" stroke-width="3.000000"
	d="
M498.000000,165.000000 
	C505.866211,167.272171 513.999512,165.564377 522.028748,166.815384 
	C538.986389,169.457474 549.181519,178.979706 554.001892,194.999435 
	C555.970032,201.540283 556.749695,208.322968 558.143127,214.969986 
	C560.572327,226.557678 564.950134,237.387131 571.330200,247.606003 
	C578.225098,258.649445 586.327942,269.152496 590.061035,281.982239 
	C590.439087,283.281372 592.094971,284.229980 592.406921,285.522461 
	C592.978455,287.890656 593.692200,289.685699 590.717041,292.251648 
	C583.660461,298.337646 575.483032,303.057312 569.336487,310.362396 
	C565.935181,314.404846 566.201294,318.940308 567.346924,322.384613 
	C568.960876,327.237152 570.083008,332.375519 572.457703,337.021606 
	C573.554749,339.167877 573.037720,340.316864 570.664246,342.206299 
	C562.935242,348.358917 555.572205,354.988983 548.927124,362.434998 
	C535.473206,377.510529 531.748474,396.627289 525.905212,414.969788 
	C521.978577,427.295868 517.050415,439.327271 507.968018,448.969879 
	C499.349976,458.119385 488.990814,463.310089 475.998291,463.114014 
	C467.334442,462.983215 458.861969,462.043243 450.517059,459.932617 
	C447.936707,459.279968 446.662354,459.954041 444.912720,461.922424 
	C438.437897,469.206787 430.550446,474.249481 421.051605,477.167938 
	C415.205780,478.963989 409.412170,481.441803 404.464386,485.456116 
	C400.141266,488.963623 399.702972,493.544617 400.000000,498.500000 
"/>
<path fill="none" opacity="1.000000" stroke="#000000" stroke-linecap="round" stroke-linejoin="round" stroke-width="3.000000"
	d="
M494.500000,190.000000 
	C494.458374,185.068970 495.706940,180.318619 496.458344,175.493515 
	C497.259064,170.351395 497.791473,165.423203 494.629883,160.417953 
	C490.011810,153.106964 486.262238,145.195480 478.957886,140.059891 
	C476.290192,138.184265 472.956726,137.306885 470.499084,135.000320 
	C466.000000,136.058289 461.627258,135.713379 456.975403,135.243301 
	C444.536896,133.986298 432.824921,135.938934 424.421967,146.940399 
	C421.655853,150.561951 419.053345,154.439056 415.034302,157.052750 
	C411.204895,159.543121 406.530945,159.950470 403.034363,156.959839 
	C392.335449,147.809097 380.960999,148.734009 368.980652,153.955612 
	C359.089142,158.266830 351.124451,165.210617 342.976776,171.972031 
	C341.470490,173.222031 340.819580,174.879730 340.000000,176.500000 
"/>
<path fill="none" opacity="1.000000" stroke="#000000" stroke-linecap="round" stroke-linejoin="round" stroke-width="3.000000"
	d="
M499.500000,675.000000 
	C496.875916,675.436218 495.637299,677.763794 494.604004,679.559814 
	C486.436310,693.756775 475.478180,705.642761 463.384491,716.369751 
	C454.912048,723.884827 444.089966,726.939575 433.013916,729.072266 
	C420.098511,731.558960 408.020233,728.374451 396.010376,724.468140 
	C382.650848,720.122803 371.212677,712.630615 360.930786,703.074463 
	C355.214417,697.761536 349.248901,692.760315 344.469757,686.523193 
	C343.400452,685.127686 342.131317,683.696960 340.000000,684.000000 
"/>
<path fill="none" opacity="1.000000" stroke="#000000" stroke-linecap="round" stroke-linejoin="round" stroke-width="3.000000"
	d="
M612.500000,500.000000 
	C606.951355,500.974640 603.756226,505.566772 599.535095,508.549683 
	C592.241760,513.703735 585.126160,519.113342 578.009949,524.513123 
	C568.635925,531.626160 559.319397,538.815308 550.004272,546.005493 
	C542.230469,552.005920 533.838928,556.573975 524.649597,560.362854 
	C517.218445,563.426880 510.056885,563.706909 502.503448,564.071655 
	C494.760559,564.445496 488.319702,561.923584 482.456238,557.052673 
	C479.552307,554.640320 475.702820,555.705566 472.522858,556.159912 
	C465.117828,557.218079 457.874939,557.484375 450.487854,556.063049 
	C443.612701,554.740173 437.608826,557.711792 431.464661,560.419800 
	C417.589935,566.534851 403.523041,572.497009 388.462585,574.749939 
	C382.370331,575.661316 375.833801,574.760864 369.477661,574.328247 
	C358.308380,573.567932 348.993042,568.947937 339.449005,564.100403 
	C336.254669,562.477905 333.558014,560.239014 330.556885,558.406799 
	C315.912354,549.466431 309.851196,548.330688 296.599365,555.679138 
	C291.007751,558.779846 285.322662,561.511536 279.476837,563.944336 
	C273.750488,566.327271 272.631683,571.888794 271.209106,576.563660 
	C268.361084,585.922913 271.639923,593.010254 280.025085,598.461365 
	C281.942017,599.707581 283.992981,600.717957 285.500000,602.500000 
"/>
<path fill="none" opacity="1.000000" stroke="#000000" stroke-linecap="round" stroke-linejoin="round" stroke-width="3.000000"
	d="
M329.000000,160.500000 
	C328.906799,165.242325 324.702728,166.777603 322.008972,169.508850 
	C314.754272,176.864548 307.381775,184.515457 305.698395,195.031754 
	C303.881836,206.380157 300.532410,217.897858 304.893646,229.539841 
	C305.482361,231.111313 305.227051,232.782379 302.632080,234.235825 
	C297.450165,237.138153 291.519012,237.761169 286.434723,240.894058 
	C278.556061,245.748840 270.977081,250.527924 264.779114,257.812042 
	C259.436096,264.091339 258.273285,271.236328 257.235016,278.533447 
	C256.843811,281.283020 254.483566,281.890472 254.002853,284.000641 
	C251.029922,297.050934 243.781021,308.196503 238.020660,320.010071 
	C234.284714,327.671906 229.216782,334.507751 224.376770,341.413635 
	C217.129959,351.753662 210.021820,362.104797 204.474319,373.487488 
	C198.516022,385.713135 203.385635,402.774780 215.477692,412.029144 
	C221.287796,416.475769 227.738846,418.876740 235.000519,418.941071 
	C237.041656,418.959167 238.876251,420.818359 241.000000,419.500000 
"/>
<path fill="none" opacity="1.000000" stroke="#000000" stroke-linecap="round" stroke-linejoin="round" stroke-width="3.000000"
	d="
M274.000000,169.000000 
	C276.718048,171.126450 279.664520,169.948761 282.490753,169.447769 
	C284.285187,169.129684 285.972473,167.978928 286.600586,170.978943 
	C286.769318,171.784760 288.170715,172.328339 288.999298,173.000885 
	C292.654968,175.968124 293.958344,179.723846 294.118408,184.496033 
	C294.490753,195.597488 294.079346,206.440964 290.111511,217.041733 
	C288.246521,222.024384 285.828522,226.737167 282.817017,230.866547 
	C279.505798,235.406860 276.924530,240.839447 271.961823,243.938843 
	C266.390686,247.418213 261.941010,252.341690 255.109634,254.369354 
	C250.964569,255.599686 246.867813,258.271820 242.475388,259.404572 
	C237.584702,260.665771 232.631027,261.954163 227.499985,261.998749 
	C226.500061,262.007446 225.205872,262.408264 224.547562,261.933990 
	C220.153778,258.768555 216.642990,261.128754 212.434464,262.838715 
	C200.945404,267.506836 190.190414,273.274475 180.510864,281.013580 
	C177.347244,283.542969 175.976288,287.196960 176.074234,290.998077 
	C176.675903,314.350708 174.377411,337.656311 175.036942,360.998962 
	C175.311554,370.718140 177.891525,379.981232 182.571472,388.460541 
	C187.511200,397.410553 189.883942,406.720947 190.193710,416.994171 
	C190.471298,426.200195 191.595490,435.528809 195.994263,444.002991 
	C199.691269,451.125214 203.698441,457.980835 208.285065,464.647858 
	C215.467346,475.087921 223.589676,484.658203 232.075714,493.930725 
	C240.532013,503.170746 251.656555,506.654785 263.997803,507.066010 
	C269.896118,507.262573 275.664795,506.299713 281.497986,505.964874 
	C284.855194,505.772125 287.911285,504.887482 289.680695,509.429626 
	C290.875793,512.497498 295.313538,512.704956 297.680725,515.337463 
	C298.589264,516.347900 299.158752,517.506592 300.000000,518.500000 
"/>
<path fill="none" opacity="1.000000" stroke="#000000" stroke-linecap="round" stroke-linejoin="round" stroke-width="3.000000"
	d="
M637.500000,457.000000 
	C629.945557,454.699799 627.120544,455.786255 621.955566,461.962830 
	C617.221191,467.624542 610.346191,470.193909 604.011292,473.521454 
	C596.603088,477.412750 588.354126,478.754395 580.441467,480.770233 
	C569.769714,483.489014 560.348022,488.124756 552.579651,495.582947 
	C538.300415,509.292053 524.271790,523.281982 510.600372,537.595886 
	C504.174957,544.323242 496.619446,549.042603 488.409546,552.802490 
	C486.482758,553.684937 485.481873,555.525330 483.500000,556.000000 
"/>
<path fill="none" opacity="1.000000" stroke="#000000" stroke-linecap="round" stroke-linejoin="round" stroke-width="3.000000"
	d="
M406.500000,287.000000 
	C410.748779,286.306854 414.781494,288.040527 418.999756,288.059021 
	C428.454742,288.100464 437.121948,286.005676 445.085938,280.627228 
	C447.385254,279.074402 447.248505,276.650330 448.894226,274.900513 
	C453.974243,269.499298 456.729309,262.787384 457.988373,255.497986 
	C459.028748,249.474915 455.989655,244.595398 452.366119,240.622086 
	C447.508881,235.295929 447.159515,228.901047 445.939941,222.511459 
	C444.649323,215.749466 443.713898,208.600708 436.003937,205.490219 
	C434.022949,204.691010 432.441071,204.641998 431.487671,206.995010 
	C427.732910,216.261490 414.901398,216.956757 407.495667,215.522369 
	C401.252869,214.313232 395.349457,211.928772 389.035400,210.801666 
	C383.205902,209.761063 378.174561,210.118378 372.913635,212.832626 
	C371.125031,213.755447 368.295532,214.812286 366.013916,212.982651 
	C364.605408,211.853165 363.333344,212.196609 362.000000,213.000000 
"/>
<path fill="none" opacity="1.000000" stroke="#000000" stroke-linecap="round" stroke-linejoin="round" stroke-width="3.000000"
	d="
M590.500000,536.000000 
	C589.570984,531.785522 592.801880,529.382507 595.101257,527.102112 
	C601.402039,520.853455 605.448792,512.907898 611.409546,506.416962 
	C613.394775,504.255188 612.474915,500.517853 614.472595,497.978455 
	C616.902954,494.889008 619.131409,491.560333 621.633179,488.613037 
	C629.453552,479.399902 633.493225,468.334503 637.883972,457.453186 
	C639.418640,453.649933 641.005554,450.552673 644.377502,447.847321 
	C649.462952,443.767181 651.552673,437.383881 653.954773,431.481598 
	C656.975952,424.058044 659.685669,416.507111 662.494812,408.998077 
	C665.435547,401.137207 667.830261,393.114655 670.092041,385.025757 
	C672.667725,375.814484 673.825073,366.445465 675.164246,357.023346 
	C676.947327,344.478729 675.282104,332.469940 671.963135,320.510223 
	C671.241333,317.909454 670.291016,315.272888 667.500000,314.000000 
"/>
<path fill="none" opacity="1.000000" stroke="#000000" stroke-linecap="round" stroke-linejoin="round" stroke-width="3.000000"
	d="
M470.000000,239.000000 
	C469.190186,236.503357 468.865234,234.628174 470.737305,231.824585 
	C473.149719,228.211807 473.410309,223.232407 475.066345,219.026123 
	C477.038544,214.016769 475.963104,207.807602 480.992493,203.990112 
	C485.237854,200.767746 487.965027,196.280746 491.138306,192.105103 
	C493.682373,188.757401 497.349915,189.144455 500.456879,192.539459 
	C506.154633,198.765457 511.109589,205.497055 513.028381,213.993591 
	C513.448608,215.854202 514.707886,217.898117 516.499207,217.885559 
	C525.611084,217.821686 530.283691,224.726654 534.241150,230.672287 
	C542.447754,243.001831 548.338867,256.662964 552.562256,270.981628 
	C554.357727,277.068787 555.981079,283.389893 555.733276,289.489166 
	C555.315186,299.777679 554.655396,310.324280 547.549622,319.040466 
	C541.212891,326.813324 533.010498,329.139191 523.498352,328.525513 
	C523.011108,328.494110 522.500000,328.833344 522.000000,329.000000 
"/>
<path fill="none" opacity="1.000000" stroke="#000000" stroke-linecap="round" stroke-linejoin="round" stroke-width="3.000000"
	d="
M481.750000,202.000000 
	C479.512573,196.961319 481.910675,191.933884 482.269836,187.019730 
	C482.831299,179.337753 481.534485,172.136963 479.428925,165.021027 
	C475.514160,151.790375 465.602051,144.654739 452.962402,141.134964 
	C448.127197,139.788498 443.133820,141.465286 438.496979,143.493073 
	C431.999756,146.334427 428.337677,152.259720 426.352417,158.119400 
	C424.280060,164.236221 426.142395,170.982956 430.470978,176.522690 
	C433.470856,180.362030 436.425049,184.278305 438.000000,189.000000 
"/>
<path fill="none" opacity="1.000000" stroke="#000000" stroke-linecap="round" stroke-linejoin="round" stroke-width="3.000000"
	d="
M573.000000,342.500000 
	C575.958130,351.363434 575.259766,360.434723 574.490845,369.499237 
	C573.686523,378.981689 571.482788,388.141785 568.004700,397.001831 
	C564.393616,406.200531 559.852478,414.822937 553.543945,422.535950 
	C546.579224,431.051208 538.472168,438.331879 529.403870,444.355225 
	C524.097595,447.879761 519.422729,451.646362 517.117310,457.545837 
	C515.988159,460.435364 514.031616,463.591034 516.000000,467.000000 
"/>
<path fill="none" opacity="1.000000" stroke="#000000" stroke-linecap="round" stroke-linejoin="round" stroke-width="3.000000"
	d="
M469.000000,134.000000 
	C468.103943,129.995056 464.198120,129.352783 461.434906,128.149475 
	C448.425964,122.484428 434.653473,119.714432 420.514832,121.146416 
	C408.340973,122.379395 396.446472,125.179482 384.945953,129.867416 
	C372.786346,134.824020 361.315826,140.928955 349.940491,147.395294 
	C343.712158,150.935791 336.105743,152.197296 331.969482,158.981400 
	C331.879150,159.129562 331.327972,158.960846 331.000763,159.005676 
	C319.830841,160.535446 309.706116,166.868027 297.996002,166.057709 
	C294.418518,165.810165 290.890076,166.756165 287.500000,168.000000 
"/>
<path fill="none" opacity="1.000000" stroke="#000000" stroke-linecap="round" stroke-linejoin="round" stroke-width="3.000000"
	d="
M344.000000,89.000000 
	C345.007599,86.032158 342.621033,87.109451 341.497681,87.034790 
	C333.903900,86.530113 326.500610,88.357903 319.006744,89.070854 
	C311.499573,89.785072 304.523468,93.068146 297.025940,94.175606 
	C294.752350,94.511444 292.311218,95.643616 290.021851,96.554924 
	C274.740723,102.637749 260.230072,110.277367 245.977264,118.460388 
	C237.052460,123.584419 231.058990,130.932846 227.403564,140.463013 
	C226.854126,141.895432 227.662872,142.833328 227.500000,144.000000 
"/>
<path fill="none" opacity="1.000000" stroke="#000000" stroke-linecap="round" stroke-linejoin="round" stroke-width="3.000000"
	d="
M412.000000,469.500000 
	C410.218658,474.069336 405.726471,475.082947 401.984619,476.969482 
	C384.041077,486.016235 365.015717,491.989685 345.497192,496.487793 
	C330.492432,499.945709 315.307220,502.285309 300.028381,504.223633 
	C296.581451,504.660919 292.738190,503.958832 289.500000,506.000000 
"/>
<path fill="none" opacity="1.000000" stroke="#000000" stroke-linecap="round" stroke-linejoin="round" stroke-width="3.000000"
	d="
M342.500000,90.000000 
	C335.500000,93.500000 328.357758,96.746300 321.539032,100.569588 
	C314.364807,104.592194 307.592682,109.326027 300.478638,113.463295 
	C289.321350,119.951973 278.362732,126.802673 266.020599,131.059677 
	C254.756790,134.944748 243.796127,139.747681 232.436493,143.296707 
	C227.872406,144.722656 224.065475,146.480942 221.002121,150.001846 
	C218.458145,152.925797 214.974106,154.996552 211.845337,156.719086 
	C206.690918,159.556824 205.120621,164.776169 201.521729,168.520889 
	C201.191910,168.864075 201.016068,169.501892 201.022339,169.999725 
	C201.136826,179.091446 193.500290,182.498108 187.883698,186.849899 
	C178.470245,194.143555 171.853210,202.700089 168.769196,214.439362 
	C167.280472,220.106140 166.091934,225.776825 164.757446,231.442871 
	C161.544891,245.082886 159.537888,259.057495 153.714905,272.095978 
	C151.499222,277.057220 149.328262,282.080505 146.929520,286.965393 
	C145.569305,289.735382 144.658508,292.403137 144.966782,295.503296 
	C145.120590,297.050171 144.844513,298.485901 144.081131,300.039856 
	C140.538605,307.251099 139.283386,315.344696 135.561630,322.531921 
	C134.439850,324.698242 135.145950,327.635468 133.000000,329.500000 
"/>
<path fill="none" opacity="1.000000" stroke="#000000" stroke-linecap="round" stroke-linejoin="round" stroke-width="3.000000"
	d="
M541.500000,566.000000 
	C538.373413,565.361633 535.784668,567.217590 533.586121,568.633667 
	C526.375061,573.278259 519.081665,574.723145 510.464996,573.197754 
	C500.238464,571.387207 489.877350,571.537170 479.451660,573.774780 
	C472.896851,575.181580 466.119568,574.028870 459.923645,570.121094 
	C454.412384,566.645081 448.330048,563.937622 441.500031,564.004456 
	C434.011261,564.077698 430.400146,568.089966 429.889587,575.492371 
	C429.455231,581.789734 431.976776,587.308716 433.666229,592.950195 
	C436.217773,601.470398 434.275421,608.887390 429.946381,615.967224 
	C426.224060,622.054810 413.642517,622.979858 409.092712,617.424072 
	C406.770081,614.587891 403.863892,612.316345 402.286316,608.590454 
	C400.569580,604.535889 395.010437,604.140442 391.474396,606.460999 
	C382.556488,612.313416 385.251923,625.774170 394.500000,628.500000 
"/>
<path fill="none" opacity="1.000000" stroke="#000000" stroke-linecap="round" stroke-linejoin="round" stroke-width="5.000000"
	d="
M444.500000,460.000000 
	C438.333344,457.203369 431.918243,455.808594 426.093628,460.126312 
	C422.625580,462.697113 419.386017,465.521057 415.526459,467.550354 
	C414.529846,468.074310 413.845764,469.613556 412.518677,468.961975 
	C407.639923,466.566437 403.557648,469.720551 400.140778,471.738403 
	C394.217316,475.236481 387.527313,474.705597 381.503265,477.008545 
	C376.820190,478.798950 372.300079,481.414642 367.460388,482.278015 
	C363.101685,483.055542 359.054657,484.993286 354.502075,485.093933 
	C348.975281,485.216125 343.709229,488.059540 338.000000,487.000000 
	C324.333344,493.638763 310.638062,489.350800 297.009705,486.945038 
	C287.363678,485.242249 279.085022,480.254730 271.011658,474.982147 
	C270.064667,474.363617 269.162781,473.844971 268.000000,474.000000 
"/>
<path fill="none" opacity="1.000000" stroke="#000000" stroke-linecap="round" stroke-linejoin="round" stroke-width="3.000000"
	d="
M387.250000,88.000000 
	C386.563751,90.762268 384.024536,90.857880 381.988831,91.462433 
	C375.498718,93.389786 368.864075,94.498238 362.829926,98.224571 
	C360.267883,99.806709 355.898560,98.579865 352.490784,99.977531 
	C344.414490,103.289917 337.482178,108.366875 330.450012,113.430580 
	C313.168182,125.874817 301.736694,144.053009 286.114227,158.126801 
	C282.436371,161.440079 276.798981,162.612198 275.000000,168.000000 
"/>
<path fill="none" opacity="1.000000" stroke="#000000" stroke-linecap="round" stroke-linejoin="round" stroke-width="3.000000"
	d="
M631.000000,360.500000 
	C626.636780,367.721649 623.912476,375.795837 618.587036,382.568420 
	C611.141113,392.037628 601.498474,397.382416 590.006531,400.028259 
	C584.862976,401.212463 579.661743,402.214752 574.980591,404.967041 
	C568.499207,408.777771 566.604736,415.016876 567.118042,421.991302 
	C567.538208,427.700653 569.129822,433.314209 569.967590,439.004791 
	C571.043762,446.315033 565.439941,455.350037 558.035095,459.561707 
	C552.222717,462.867645 545.683167,463.541077 539.456787,464.783539 
	C528.852600,466.899597 521.090637,472.120361 516.034058,481.518311 
	C515.315979,482.852905 514.390076,483.634735 513.000000,484.000000 
"/>
<path fill="none" opacity="1.000000" stroke="#000000" stroke-linecap="round" stroke-linejoin="round" stroke-width="3.000000"
	d="
M525.000000,330.000000 
	C529.704834,341.541779 529.896545,353.415985 525.854675,364.949066 
	C521.479187,377.434143 513.145752,387.068817 502.098816,394.644104 
	C496.231873,398.667236 489.988586,401.923828 483.432312,403.757996 
	C473.928192,406.416840 464.188995,409.047089 453.987823,407.585022 
	C451.234924,407.190430 448.316559,407.694733 445.504303,408.035492 
	C442.066925,408.451996 441.145020,410.897827 442.480652,415.006287 
	C444.062073,419.870636 446.815002,424.347870 447.476532,429.503021 
	C448.272675,435.706604 447.245300,441.748718 442.381989,445.860413 
	C438.746307,448.934174 436.273224,452.546570 434.000000,456.500000 
"/>
<path fill="none" opacity="1.000000" stroke="#000000" stroke-linecap="round" stroke-linejoin="round" stroke-width="3.000000"
	d="
M324.000000,523.500000 
	C324.531494,526.365295 327.144806,528.013245 329.073608,528.825134 
	C343.167969,534.758179 357.247620,540.797546 372.001709,544.994019 
	C385.642365,548.873840 399.469421,552.040894 413.520721,553.838013 
	C418.932129,554.530029 424.429504,555.681885 430.003845,555.032898 
	C431.544495,554.853577 433.219086,554.680786 434.500000,556.000000 
"/>
<path fill="none" opacity="1.000000" stroke="#000000" stroke-linecap="round" stroke-linejoin="round" stroke-width="3.000000"
	d="
M572.000000,793.500000 
	C579.370605,797.586487 586.748108,801.602417 594.446960,805.116211 
	C608.425354,811.496216 622.653625,817.022095 637.492737,821.026794 
	C649.308411,824.215576 661.246643,826.462463 673.496582,827.068604 
	C675.984924,827.191650 678.402893,828.395142 681.000000,828.000000 
"/>
<path fill="none" opacity="1.000000" stroke="#000000" stroke-linecap="round" stroke-linejoin="round" stroke-width="3.000000"
	d="
M289.000000,340.500000 
	C286.615204,346.913574 288.252411,352.610260 291.988037,358.008270 
	C298.056244,366.776855 307.701904,371.595490 315.006226,378.993835 
	C316.576019,380.583832 319.025665,379.233734 320.419983,380.125153 
	C323.495087,382.091217 326.184570,384.539612 328.090912,387.949158 
	C331.217773,393.541626 335.811523,397.775909 342.000519,399.998535 
	C342.496429,400.176605 343.079346,400.223022 343.487854,400.516907 
	C347.998291,403.762238 352.474670,406.269714 358.479309,406.755768 
	C365.733337,407.342987 372.769012,410.232727 380.016113,411.399902 
	C389.293671,412.894043 398.395691,415.775665 408.005310,415.072601 
	C411.659698,414.805206 415.034912,413.734711 417.920532,411.876587 
	C420.691223,410.092407 423.586761,407.702789 421.476776,402.984772 
	C432.817200,407.209381 440.027557,401.724792 446.410553,394.916168 
	C449.869720,391.226318 453.904602,387.975037 456.500000,383.500000 
	C464.772003,381.821014 466.897705,373.153412 472.989227,368.984253 
	C474.703003,367.811340 475.275055,366.043365 475.000000,364.000000 
"/>
<path fill="none" opacity="1.000000" stroke="#000000" stroke-linecap="round" stroke-linejoin="round" stroke-width="3.000000"
	d="
M394.000000,277.000000 
	C389.773743,276.103394 385.944458,274.091980 381.929749,272.703033 
	C377.891022,271.305756 373.256775,271.180481 369.005890,273.013641 
	C366.815918,273.958038 365.660400,277.115326 362.482574,276.052063 
	C362.283112,275.985291 361.645416,276.611542 361.528992,277.008484 
	C360.322418,281.122375 357.253937,284.582031 357.030304,289.001526 
	C356.491699,299.644470 357.869293,309.874939 362.915802,319.543945 
	C366.030121,325.510925 369.620422,331.405670 375.135681,334.778107 
	C383.647461,339.982727 394.184998,342.425964 402.511383,331.008301 
	C402.923004,330.443848 403.500000,330.000000 404.000000,329.500000 
"/>
<path fill="none" opacity="1.000000" stroke="#000000" stroke-linecap="round" stroke-linejoin="round" stroke-width="3.000000"
	d="
M273.500000,170.500015 
	C273.000000,171.000015 272.544525,171.879105 271.993408,171.943817 
	C261.793060,173.141571 257.084717,181.461685 250.997635,187.997803 
	C242.788605,196.812378 234.978241,205.993866 226.854660,214.866943 
	C219.368210,223.044098 212.122635,231.460434 204.711792,239.690704 
	C196.141129,249.209076 187.996994,259.332947 181.630829,270.574097 
	C179.951981,273.538513 178.092743,277.156097 180.000000,281.000000 
"/>
<path fill="none" opacity="1.000000" stroke="#000000" stroke-linecap="round" stroke-linejoin="round" stroke-width="3.000000"
	d="
M275.500000,782.000000 
	C270.365173,781.246216 266.801361,785.088318 263.163696,787.272644 
	C255.155670,792.081360 246.575577,795.286682 237.960510,798.390381 
	C227.306564,802.228516 216.633469,806.183044 205.492569,808.463684 
	C195.465790,810.516296 185.697327,813.732666 175.502869,815.022705 
	C173.401718,815.288696 171.775146,817.158813 169.500000,817.000000 
"/>
<path fill="none" opacity="1.000000" stroke="#000000" stroke-linecap="round" stroke-linejoin="round" stroke-width="3.000000"
	d="
M242.500000,420.000000 
	C249.721939,421.395905 253.890167,426.346893 256.995697,432.502167 
	C262.500458,443.412750 268.114655,454.236389 277.495972,462.504547 
	C290.465942,473.935486 305.001556,481.826935 322.464966,484.252258 
	C326.436554,484.803864 330.781555,483.643982 334.500000,486.000000 
"/>
<path fill="none" opacity="1.000000" stroke="#000000" stroke-linecap="round" stroke-linejoin="round" stroke-width="3.000000"
	d="
M519.000000,636.000000 
	C514.193848,640.710449 513.597778,647.641602 510.020844,653.013916 
	C507.579315,656.680908 506.117737,660.865356 503.704803,664.631226 
	C501.179535,668.572266 499.872375,673.119690 500.730560,678.542664 
	C501.837006,685.534241 500.856354,692.836792 501.028717,699.999329 
	C501.438751,717.039917 504.894714,733.094849 513.735779,748.155090 
	C518.140259,755.657898 523.364807,761.732239 529.940002,767.073853 
	C531.438049,768.290771 532.814697,767.745850 534.250000,768.000000 
"/>
<path fill="none" opacity="1.000000" stroke="#000000" stroke-linecap="round" stroke-linejoin="round" stroke-width="3.000000"
	d="
M271.000000,173.000000 
	C271.543732,177.349243 268.953613,180.520355 267.041229,184.022522 
	C262.106415,193.059708 260.700470,203.238922 257.985840,212.996063 
	C255.788132,220.895111 252.958008,228.605713 248.426254,235.451187 
	C244.228256,241.792511 236.691132,243.563919 230.401535,246.809174 
	C226.616333,248.762238 224.572540,252.083832 221.542389,254.552048 
	C219.634399,256.106232 222.900558,258.166656 221.500000,260.000000 
"/>
<path fill="none" opacity="1.000000" stroke="#000000" stroke-linecap="round" stroke-linejoin="round" stroke-width="5.000000"
	d="
M291.000000,293.000000 
	C291.647186,296.750244 289.713928,300.051392 288.864410,303.466278 
	C286.258453,313.941772 289.166595,322.799744 295.461426,331.029510 
	C296.379486,332.229736 297.423218,331.935303 298.500397,331.992340 
	C304.045715,332.286163 308.978729,334.111816 312.989044,338.011261 
	C321.806030,346.584595 332.080627,353.271393 342.672302,359.191772 
	C346.437347,361.296265 349.160278,364.199188 352.549927,366.423950 
	C360.221649,371.459198 368.273224,375.669800 377.998474,372.994476 
	C382.007660,371.891571 386.000000,373.106140 390.000000,373.000000 
"/>
<path fill="none" opacity="1.000000" stroke="#000000" stroke-linecap="round" stroke-linejoin="round" stroke-width="3.000000"
	d="
M523.000000,328.000000 
	C522.462097,323.931793 524.394653,320.938995 526.286316,317.386230 
	C535.669861,299.762756 535.632629,278.937500 514.444763,268.613373 
	C508.931152,265.926788 502.405762,266.230286 496.534546,267.207520 
	C489.566650,268.367340 481.668488,267.020142 476.000000,273.000000 
"/>
<path fill="none" opacity="1.000000" stroke="#000000" stroke-linecap="round" stroke-linejoin="round" stroke-width="3.000000"
	d="
M313.000000,252.000000 
	C312.166656,253.000000 310.879150,253.877121 310.570251,255.019012 
	C307.477539,266.451019 301.689514,276.556366 295.546173,286.528442 
	C293.819061,289.331970 293.873260,293.548035 288.449890,292.201935 
	C286.563385,291.733673 285.528717,295.029602 284.033203,296.533051 
	C280.070953,300.516327 274.808350,302.789856 270.942474,306.946503 
	C267.412659,310.741852 265.281708,314.978180 263.861298,319.960449 
	C262.500977,324.731934 260.661621,329.325989 255.607315,332.189423 
	C252.227264,334.104370 250.708481,338.475494 249.097366,342.043945 
	C243.511017,354.417053 240.253494,367.316986 238.677399,380.962738 
	C237.317551,392.736359 238.398010,404.206238 240.364410,415.436188 
	C241.957901,424.536560 244.620377,433.682007 247.421082,442.680176 
	C249.953857,450.817535 256.142944,455.546875 259.570374,462.465118 
	C261.157898,465.669495 263.083252,468.927246 265.607635,471.389648 
	C268.626251,474.334076 267.435028,478.280090 269.212433,481.651611 
	C273.153320,489.127075 277.759857,496.078827 282.484558,503.010529 
	C282.770111,503.429474 282.833344,504.000000 283.000000,504.500000 
"/>
<path fill="none" opacity="1.000000" stroke="#000000" stroke-linecap="round" stroke-linejoin="round" stroke-width="5.000000"
	d="
M537.500000,667.000000 
	C527.774780,670.392334 524.266602,677.995789 524.055298,687.501221 
	C523.869690,695.845215 522.971191,704.140137 522.785034,712.495239 
	C522.635315,719.211548 525.902954,725.247620 525.192444,732.020203 
	C524.855164,735.234924 531.041443,738.930725 536.499084,738.886108 
	C541.822083,738.842651 547.119568,739.373901 552.552734,738.256470 
	C556.641235,737.415649 560.244812,741.208191 563.398438,743.632141 
	C571.574219,749.916565 575.289368,758.394592 575.170166,769.001892 
	C575.076416,777.340271 573.927002,785.265625 571.000000,793.000000 
"/>
<path fill="none" opacity="1.000000" stroke="#000000" stroke-linecap="round" stroke-linejoin="round" stroke-width="3.000000"
	d="
M325.000000,262.000000 
	C318.025940,273.887695 314.440491,286.596985 314.932465,300.502380 
	C315.279236,310.304016 318.925018,318.513794 326.075531,324.915649 
	C331.227661,329.528381 336.482391,334.434235 343.049194,336.867249 
	C349.882690,339.399048 355.165497,344.286743 361.486084,347.527130 
	C367.373932,350.545715 373.175842,353.161987 379.958740,354.255859 
	C388.293060,355.599945 395.850128,359.876953 402.973022,364.541199 
	C403.511871,364.894043 403.666687,365.833344 404.000000,366.500000 
"/>
<path fill="none" opacity="1.000000" stroke="#000000" stroke-linecap="round" stroke-linejoin="round" stroke-width="3.000000"
	d="
M421.500000,404.000000 
	C417.160187,402.487244 413.790131,400.356445 413.394775,395.007782 
	C413.131165,391.441528 409.249695,391.546143 406.972839,391.160126 
	C398.373474,389.702240 390.001953,387.322479 381.507416,385.466125 
	C369.145233,382.764648 356.895599,379.506653 344.473450,377.139374 
	C338.363647,375.975037 332.063965,376.584137 327.500000,382.000000 
"/>
<path fill="none" opacity="1.000000" stroke="#000000" stroke-linecap="round" stroke-linejoin="round" stroke-width="3.000000"
	d="
M296.000000,604.500000 
	C296.100769,610.934998 298.668823,616.929260 301.322235,622.342041 
	C304.003754,627.812073 304.702484,634.727905 310.490448,638.514587 
	C310.566803,638.564575 310.490265,638.833984 310.501373,638.999878 
	C311.116425,648.190308 319.626404,652.371582 323.511414,659.493774 
	C327.309692,666.456909 332.779907,672.206543 337.514709,678.488953 
	C339.130768,680.633118 339.185730,682.805786 339.161591,685.501465 
	C339.040405,699.025391 331.608826,709.835083 326.456390,721.480713 
	C324.559998,725.766968 322.485748,730.049988 319.865112,733.908386 
	C318.560059,735.829834 317.321045,738.301208 314.511658,739.044128 
	C311.315399,739.889465 311.498718,742.443909 312.000000,745.000000 
"/>
<path fill="none" opacity="1.000000" stroke="#000000" stroke-linecap="round" stroke-linejoin="round" stroke-width="3.000000"
	d="
M281.000000,668.500000 
	C280.666687,669.000000 280.448364,669.745239 279.982910,669.963501 
	C272.072632,673.673279 272.418304,681.039673 272.021637,688.001221 
	C271.277191,701.065430 273.316376,714.001526 274.047333,726.997314 
	C274.509583,735.215576 278.362640,741.252991 286.500000,744.000000 
"/>
<path fill="none" opacity="1.000000" stroke="#000000" stroke-linecap="round" stroke-linejoin="round" stroke-width="3.000000"
	d="
M303.000000,662.500000 
	C307.155273,666.495850 311.652069,670.256653 312.507111,676.499023 
	C312.622192,677.339417 312.921417,678.159790 312.987000,679.001038 
	C314.311157,695.980530 314.010223,712.994446 313.951538,729.999817 
	C313.941193,733.001038 311.927551,736.000000 314.000000,739.000000 
"/>
<path fill="none" opacity="1.000000" stroke="#000000" stroke-linecap="round" stroke-linejoin="round" stroke-width="3.000000"
	d="
M543.000000,596.000000 
	C545.880676,598.508789 549.643738,596.533142 553.189026,598.689148 
	C560.721130,603.269653 562.333740,610.469299 562.754150,617.514648 
	C563.678284,632.999878 558.940857,647.167419 550.180908,660.122314 
	C548.536682,662.554016 546.767883,664.223633 544.460999,665.425110 
	C542.329285,666.535522 539.373291,665.803711 538.695068,663.929443 
	C537.516296,660.671814 534.566772,658.466614 534.000000,655.000000 
"/>
<path fill="none" opacity="1.000000" stroke="#000000" stroke-linecap="round" stroke-linejoin="round" stroke-width="3.000000"
	d="
M549.000000,664.000000 
	C557.279785,668.866028 559.295349,676.398804 559.132202,685.502380 
	C558.937805,696.347168 557.781738,707.134399 557.764893,717.999634 
	C557.757263,722.931152 556.917053,727.983643 557.057190,732.998413 
	C557.115967,735.102234 555.315674,736.192932 555.000000,738.000000 
"/>
<path fill="none" opacity="1.000000" stroke="#000000" stroke-linecap="round" stroke-linejoin="round" stroke-width="5.000000"
	d="
M454.500000,666.000000 
	C448.666656,666.000000 442.827332,666.158447 437.002411,665.936951 
	C433.826538,665.816162 430.542725,666.108276 428.074615,667.621704 
	C418.262756,673.638489 408.626495,671.343079 398.438202,668.742065 
	C392.385162,667.196655 385.578766,666.275330 379.500000,670.000000 
"/>
<path fill="none" opacity="1.000000" stroke="#000000" stroke-linecap="round" stroke-linejoin="round" stroke-width="5.000000"
	d="
M539.000000,665.500000 
	C537.538574,675.279480 536.776123,685.080200 536.923767,695.001160 
	C537.129211,708.802917 537.016541,722.572205 540.952454,736.013916 
	C542.620422,741.710510 539.735352,746.917175 537.852783,751.944885 
	C535.301575,758.758118 535.106873,765.258301 535.540222,772.527405 
	C535.971252,779.757263 538.209839,785.847839 541.077393,791.963684 
	C544.076172,798.359497 549.477478,802.841370 555.044983,806.938843 
	C557.576050,808.801453 564.868530,806.772095 566.343994,803.431091 
	C567.878967,799.955200 571.231873,797.242249 571.000000,793.000000 
"/>
<path fill="none" opacity="1.000000" stroke="#000000" stroke-linecap="round" stroke-linejoin="round" stroke-width="5.000000"
	d="
M310.999969,646.500000 
	C309.166626,649.833313 307.365906,653.185059 305.491821,656.495361 
	C303.048218,660.811768 299.549255,664.323486 294.957092,665.872803 
	C288.543396,668.036865 287.615326,673.613342 287.224731,678.517883 
	C286.459747,688.123657 286.145935,697.929504 287.220886,707.475098 
	C288.502289,718.854309 290.151917,730.354248 295.000000,741.000000 
"/>
<path fill="none" opacity="1.000000" stroke="#000000" stroke-linecap="round" stroke-linejoin="round" stroke-width="3.000000"
	d="
M313.000000,746.500000 
	C318.156311,753.425171 316.331421,761.171204 314.847473,768.468994 
	C312.769623,778.687256 310.055084,788.825500 305.966400,798.485779 
	C304.193268,802.675171 302.759552,807.112976 299.486908,810.487305 
	C295.847717,814.239319 288.996765,814.204834 286.076447,809.947571 
	C280.330505,801.571045 277.556763,791.991394 276.409607,781.981689 
	C276.323090,781.226929 276.553711,779.341431 277.984985,778.475220 
	C287.098694,772.959900 294.509125,765.457520 302.086395,758.088806 
	C305.678680,754.595398 307.552155,749.982849 311.000000,746.500000 
"/>
<path fill="none" opacity="1.000000" stroke="#000000" stroke-linecap="round" stroke-linejoin="round" stroke-width="3.000000"
	d="
M436.500000,188.000000 
	C430.412170,188.484497 424.790924,185.940765 419.071655,184.675995 
	C414.222565,183.603653 409.651398,184.989960 404.974335,184.141510 
	C403.102661,183.801987 401.884003,183.164474 400.456482,182.056046 
	C394.907135,177.747116 388.306915,176.166794 381.514069,174.923096 
	C376.341064,173.975967 371.149963,173.644943 366.009125,174.102524 
	C359.824249,174.653015 353.549133,174.795120 347.499756,176.499100 
	C345.201904,177.146378 343.128479,178.238647 340.440399,177.146744 
	C338.715729,176.446167 336.886749,178.044128 335.484558,179.484970 
	C333.730743,181.287155 332.297821,183.280273 328.932098,182.214386 
	C327.505737,181.762665 324.888550,183.234146 323.580994,184.578766 
	C319.140991,189.144608 312.174286,191.130081 309.931396,197.977524 
	C309.581818,199.044815 308.300812,199.784546 307.000000,200.000000 
"/>
<path fill="none" opacity="1.000000" stroke="#000000" stroke-linecap="round" stroke-linejoin="round" stroke-width="3.000000"
	d="
M496.000000,326.000000 
	C510.642487,325.204681 514.124817,305.368500 507.401642,295.567474 
	C504.111969,290.771820 498.347107,289.077026 493.050629,290.232117 
	C486.853455,291.583710 480.246490,292.955841 475.500000,298.000000 
"/>
<path fill="none" opacity="1.000000" stroke="#000000" stroke-linecap="round" stroke-linejoin="round" stroke-width="3.000000"
	d="
M611.000000,220.500000 
	C609.689514,224.221375 609.141296,228.048935 608.964783,231.998428 
	C608.193054,249.264847 605.570312,266.078552 597.128418,281.569977 
	C596.122864,283.415253 595.146606,284.873260 593.500000,286.000000 
"/>
<path fill="none" opacity="1.000000" stroke="#000000" stroke-linecap="round" stroke-linejoin="round" stroke-width="3.000000"
	d="
M311.000000,637.500000 
	C313.416443,634.819397 313.518036,631.748047 312.497192,628.500854 
	C311.415192,625.059143 311.347565,621.466675 310.267761,617.918518 
	C307.667236,609.373474 302.272339,605.188599 294.045441,602.840759 
	C288.308075,601.203491 284.681671,603.169739 280.956940,606.957642 
	C276.461395,611.529480 271.543274,615.521667 268.381195,621.436462 
	C262.800964,631.874573 264.158600,641.832581 269.623199,651.429871 
	C272.599213,656.656494 276.833313,661.166687 280.500000,666.000000 
"/>
<path fill="none" opacity="1.000000" stroke="#000000" stroke-linecap="round" stroke-linejoin="round" stroke-width="3.000000"
	d="
M475.000000,274.000000 
	C471.212616,279.232300 465.137756,281.213898 459.974152,284.458862 
	C453.078796,288.792053 445.963104,292.773132 439.017426,297.028442 
	C436.072815,298.832428 434.792175,302.015808 433.554291,305.022369 
	C432.255585,308.176666 437.432373,313.393280 441.995209,314.034180 
	C446.765961,314.704254 451.409546,313.448242 456.007599,313.347748 
	C461.740051,313.222443 467.373169,312.814056 472.993896,311.959839 
	C477.317444,311.302734 481.619659,310.722260 486.000000,311.000000 
"/>
<path fill="none" opacity="1.000000" stroke="#000000" stroke-linecap="round" stroke-linejoin="round" stroke-width="3.000000"
	d="
M510.500000,485.500000 
	C510.394867,488.242737 509.469910,490.754059 507.975555,492.983612 
	C504.232239,498.568573 503.161255,505.366821 499.534546,511.022156 
	C494.504211,518.866150 488.534027,525.941528 481.940735,532.439880 
	C476.590424,537.713074 470.921783,542.579468 464.125854,546.234009 
	C460.961853,547.935547 457.541870,549.266052 454.355896,550.673889 
	C451.677826,551.857300 450.657410,553.434143 449.500000,555.500000 
"/>
<path fill="none" opacity="1.000000" stroke="#000000" stroke-linecap="round" stroke-linejoin="round" stroke-width="3.000000"
	d="
M292.000000,603.500000 
	C288.565704,609.746460 288.543762,616.610901 287.824738,623.481689 
	C286.969696,631.652832 286.622986,639.887085 285.146698,648.026611 
	C284.293030,652.733276 285.327118,657.735535 283.998901,662.499695 
	C283.673065,663.668457 283.333344,664.833313 283.000031,666.000000 
"/>
<path fill="none" opacity="1.000000" stroke="#000000" stroke-linecap="round" stroke-linejoin="round" stroke-width="5.000000"
	d="
M262.000000,175.000000 
	C257.545349,172.849319 252.627960,173.867355 247.967819,173.238373 
	C233.934036,171.344254 219.813278,171.742752 206.018829,175.567917 
	C204.126266,176.092712 202.326797,175.761398 200.500000,176.000000 
"/>
<path fill="none" opacity="1.000000" stroke="#000000" stroke-linecap="round" stroke-linejoin="round" stroke-width="3.000000"
	d="
M331.000000,183.000000 
	C330.833313,184.500000 331.240326,186.559326 330.409332,187.411606 
	C323.695465,194.297775 322.729980,203.302826 321.047241,212.009125 
	C319.892151,217.985565 325.019958,227.532883 330.520294,229.953873 
	C332.693573,230.910446 335.141998,231.925217 337.474152,230.458878 
	C339.270721,229.329269 340.495758,230.871399 342.000000,231.000000 
"/>
<path fill="none" opacity="1.000000" stroke="#000000" stroke-linecap="round" stroke-linejoin="round" stroke-width="3.000000"
	d="
M400.000000,499.500000 
	C403.996277,509.752747 412.926971,512.922974 422.506683,514.968750 
	C433.055115,517.221375 443.529144,515.429749 454.008179,514.062561 
	C455.559113,513.860229 455.998749,512.664795 457.000000,512.000000 
"/>
<path fill="none" opacity="1.000000" stroke="#000000" stroke-linecap="round" stroke-linejoin="round" stroke-width="3.000000"
	d="
M379.000000,271.250000 
	C373.810577,260.385071 367.175415,250.713669 354.958405,247.142334 
	C348.944092,245.384186 342.933868,248.109146 337.586304,250.679550 
	C333.527832,252.630341 329.529236,255.367462 327.000000,259.500000 
"/>
<path fill="none" opacity="1.000000" stroke="#000000" stroke-linecap="round" stroke-linejoin="round" stroke-width="3.000000"
	d="
M637.000000,370.000000 
	C641.516968,376.531647 644.531616,383.750763 645.936401,391.511505 
	C647.617065,400.796021 647.541748,410.139374 646.102783,419.515778 
	C645.640320,422.529327 644.678833,425.087891 643.000000,427.500000 
"/>
<path fill="none" opacity="1.000000" stroke="#000000" stroke-linecap="round" stroke-linejoin="round" stroke-width="3.000000"
	d="
M635.000000,370.500000 
	C633.539612,371.941254 633.832825,373.820526 634.044250,375.494415 
	C635.241699,384.975555 635.661987,394.530548 636.720276,404.031158 
	C637.460266,410.673950 639.766479,417.202209 638.964355,423.995789 
	C638.737183,425.920105 639.787537,426.939575 641.000000,428.000000 
"/>
<path fill="none" opacity="1.000000" stroke="#000000" stroke-linecap="round" stroke-linejoin="round" stroke-width="3.000000"
	d="
M539.000000,598.000000 
	C536.712769,610.901001 537.683838,624.047119 536.072083,637.008972 
	C535.602722,640.783936 536.030090,644.667053 535.986328,648.499817 
	C535.966797,650.214050 536.460388,652.058716 535.000000,653.500000 
"/>
<path fill="none" opacity="1.000000" stroke="#000000" stroke-linecap="round" stroke-linejoin="round" stroke-width="3.000000"
	d="
M568.500000,452.000000 
	C573.995667,454.120300 579.884399,453.188263 585.526978,453.705475 
	C594.892273,454.563965 604.222839,455.464539 613.502014,456.987823 
	C616.480530,457.476837 619.684326,456.007538 622.500000,458.000000 
"/>
<path fill="none" opacity="1.000000" stroke="#000000" stroke-linecap="round" stroke-linejoin="round" stroke-width="3.000000"
	d="
M516.000000,218.500000 
	C515.395325,224.819046 516.423157,231.109283 515.191162,237.536652 
	C513.286560,247.472870 506.824982,253.340485 498.894897,257.813690 
	C495.349030,259.813843 492.324188,263.612335 487.500000,263.000000 
"/>
<path fill="none" opacity="1.000000" stroke="#000000" stroke-linecap="round" stroke-linejoin="round" stroke-width="3.000000"
	d="
M489.000000,270.000000 
	C494.009521,276.990479 500.198090,282.886322 507.062958,287.914062 
	C514.382019,293.274384 518.347046,300.471558 519.861816,309.024475 
	C520.515076,312.713104 521.854614,316.041534 523.000000,319.500000 
"/>
<path fill="none" opacity="1.000000" stroke="#000000" stroke-linecap="round" stroke-linejoin="round" stroke-width="3.000000"
	d="
M124.999992,368.000000 
	C129.333328,375.000000 133.926331,381.858307 137.863617,389.074402 
	C139.303177,391.712769 141.545044,393.474518 143.154816,395.897125 
	C147.887207,403.019043 153.322510,409.674896 158.512497,416.490479 
	C159.233231,417.436981 160.224304,418.051392 161.500000,418.000000 
"/>
<path fill="none" opacity="1.000000" stroke="#000000" stroke-linecap="round" stroke-linejoin="round" stroke-width="3.000000"
	d="
M361.000000,100.000000 
	C359.207947,105.155617 354.615875,108.452354 352.369598,113.441292 
	C349.309296,120.238266 347.280853,127.207138 345.928650,134.486740 
	C345.356598,137.566238 344.029938,140.510422 342.989807,143.496445 
	C342.253113,145.611282 341.753540,147.744125 342.000000,150.000000 
"/>
<path fill="none" opacity="1.000000" stroke="#000000" stroke-linecap="round" stroke-linejoin="round" stroke-width="3.000000"
	d="
M456.000000,409.000000 
	C455.491364,414.967651 458.747406,420.463043 458.041565,426.504852 
	C456.915222,436.146698 455.740875,445.745483 449.960144,453.971985 
	C448.921509,455.450043 449.037018,456.934143 449.000000,458.500000 
"/>
<path fill="none" opacity="1.000000" stroke="#000000" stroke-linecap="round" stroke-linejoin="round" stroke-width="3.000000"
	d="
M367.000000,276.500000 
	C369.128723,280.023499 373.780487,281.997589 373.484497,286.999084 
	C373.424957,288.005432 373.207458,289.008911 372.991638,289.998169 
	C372.517700,292.170532 369.407654,293.993134 371.563446,296.444183 
	C373.853516,299.047913 377.005249,300.612823 380.503662,300.963470 
	C385.618927,301.476227 390.252167,303.132233 394.505096,305.992401 
	C400.734558,310.181824 403.687531,316.250458 403.925659,323.502441 
	C404.157990,330.578583 406.051239,336.876312 411.556519,341.431702 
	C416.317352,345.371155 419.181061,350.283661 421.000000,356.000000 
"/>
<path fill="none" opacity="1.000000" stroke="#000000" stroke-linecap="round" stroke-linejoin="round" stroke-width="3.000000"
	d="
M249.000000,450.000000 
	C247.833328,450.333344 246.461273,451.239685 245.533310,450.907074 
	C239.468567,448.733276 233.404373,450.054169 227.523499,451.128632 
	C219.664169,452.564606 211.939804,454.048157 203.991409,452.033875 
	C203.373444,451.877258 202.502838,451.678009 202.000000,452.500000 
"/>
<path fill="none" opacity="1.000000" stroke="#000000" stroke-linecap="round" stroke-linejoin="round" stroke-width="3.000000"
	d="
M562.500000,454.000000 
	C555.205444,452.126465 547.855164,453.316956 540.498840,453.404755 
	C529.834717,453.532104 522.845215,460.259827 516.783813,467.246216 
	C513.036255,471.565613 509.644196,477.368866 510.000000,484.000000 
"/>
<path fill="none" opacity="1.000000" stroke="#000000" stroke-linecap="round" stroke-linejoin="round" stroke-width="3.000000"
	d="
M407.000000,185.000000 
	C406.623962,186.963425 408.454071,187.946335 408.783844,189.995346 
	C403.734100,193.323990 397.142029,194.029984 391.483337,196.967880 
	C386.060547,199.783264 380.282623,201.978226 375.094452,205.154297 
	C372.612122,206.673950 370.217957,207.544876 367.500000,208.000000 
"/>
<path fill="none" opacity="1.000000" stroke="#000000" stroke-linecap="round" stroke-linejoin="round" stroke-width="3.000000"
	d="
M593.000000,292.500000 
	C595.418640,299.631042 594.279297,306.825592 591.830261,313.437134 
	C588.191528,323.260559 582.028381,331.616669 573.500000,338.000000 
"/>
<path fill="none" opacity="1.000000" stroke="#000000" stroke-linecap="round" stroke-linejoin="round" stroke-width="5.000000"
	d="
M369.000000,421.000000 
	C377.126465,423.861938 385.535889,426.606537 394.000214,426.611542 
	C399.304504,426.614655 405.467896,427.017212 410.531281,423.545624 
	C411.795349,422.678986 413.431641,422.856079 415.006042,423.224091 
	C420.790009,424.576019 428.086975,420.762268 430.457916,414.982727 
	C431.854980,411.577240 432.833374,408.000000 434.000031,404.500000 
"/>
<path fill="none" opacity="1.000000" stroke="#000000" stroke-linecap="round" stroke-linejoin="round" stroke-width="3.000000"
	d="
M437.000000,626.500000 
	C435.109650,629.978394 431.501160,631.348145 428.536499,633.549194 
	C423.055817,637.618225 419.792725,643.418762 417.130615,649.916443 
	C418.153473,652.036255 419.964600,652.584900 422.510345,651.524841 
	C424.794586,650.573608 427.107300,649.438477 429.511597,649.077087 
	C435.693634,648.147766 441.468414,649.069214 446.013641,653.987366 
	C447.931854,656.062988 449.829132,658.220703 452.047729,659.938354 
	C454.300690,661.682739 454.885956,664.035767 455.500000,666.500000 
"/>
<path fill="none" opacity="1.000000" stroke="#000000" stroke-linecap="round" stroke-linejoin="round" stroke-width="3.000000"
	d="
M433.000000,287.500000 
	C432.281372,290.891022 429.484985,293.042572 427.858521,295.920044 
	C423.116852,304.308899 425.709717,311.576569 430.611145,318.420380 
	C432.576416,321.164490 433.910004,324.130188 435.432037,327.035614 
	C436.016022,328.150330 436.447327,330.043854 435.898315,330.937531 
	C432.803833,335.975098 432.861023,342.380280 428.959320,346.965393 
	C426.584473,349.756134 426.070984,353.713989 423.000000,356.000000 
"/>
<path fill="none" opacity="1.000000" stroke="#000000" stroke-linecap="round" stroke-linejoin="round" stroke-width="3.000000"
	d="
M290.000000,561.000000 
	C291.575470,572.137756 291.018677,583.512085 293.903809,594.525208 
	C294.557526,597.020630 294.000000,599.833313 294.000000,602.500000 
"/>
<path fill="none" opacity="1.000000" stroke="#000000" stroke-linecap="round" stroke-linejoin="round" stroke-width="3.000000"
	d="
M321.000000,380.000000 
	C321.174072,375.147491 317.376953,372.280426 314.861267,369.110077 
	C307.770630,360.174316 300.103516,351.700439 293.961212,342.024628 
	C293.420227,341.172394 292.333344,340.666656 291.500000,340.000000 
"/>
<path fill="none" opacity="1.000000" stroke="#000000" stroke-linecap="round" stroke-linejoin="round" stroke-width="3.000000"
	d="
M435.000000,622.000000 
	C429.647247,623.710022 426.261688,627.578735 422.812775,631.848755 
	C420.638062,634.541321 416.555908,635.210510 413.008362,632.986633 
	C409.979156,631.087769 407.221649,628.831360 404.428864,626.588562 
	C400.429871,623.377197 397.138184,624.772400 395.000000,630.000000 
"/>
<path fill="none" opacity="1.000000" stroke="#000000" stroke-linecap="round" stroke-linejoin="round" stroke-width="3.000000"
	d="
M424.500000,460.000000 
	C422.476746,457.545563 419.541016,457.493652 417.022369,458.093842 
	C406.480804,460.605896 397.087158,465.750122 387.990417,471.484802 
	C386.644409,472.333344 386.510956,473.744354 386.000000,475.000000 
"/>
<path fill="none" opacity="1.000000" stroke="#000000" stroke-linecap="round" stroke-linejoin="round" stroke-width="5.000000"
	d="
M384.500000,86.000000 
	C376.810211,82.293320 368.784943,84.252693 361.023926,85.196777 
	C355.613220,85.854958 350.104523,86.262733 344.750000,87.500000 
"/>
<path fill="none" opacity="1.000000" stroke="#000000" stroke-linecap="round" stroke-linejoin="round" stroke-width="3.000000"
	d="
M311.000000,742.000000 
	C306.000000,741.833374 300.765839,740.700317 296.081268,741.835388 
	C292.891357,742.608398 289.100677,743.338562 286.305145,746.844666 
	C280.879181,753.649658 278.188904,761.256470 276.469879,769.493713 
	C275.892853,772.258606 275.390717,774.923523 277.000000,777.500000 
"/>
<path fill="none" opacity="1.000000" stroke="#000000" stroke-linecap="round" stroke-linejoin="round" stroke-width="3.000000"
	d="
M512.000000,485.000000 
	C509.436554,484.215088 506.815704,482.832855 504.503204,485.502777 
	C494.887878,496.604279 482.320404,503.481537 469.500000,510.000000 
"/>
<path fill="none" opacity="1.000000" stroke="#000000" stroke-linecap="round" stroke-linejoin="round" stroke-width="3.000000"
	d="
M471.500000,240.000000 
	C483.370209,248.589966 478.512695,264.297791 469.047455,270.077728 
	C463.084137,273.719208 457.212891,277.349884 450.537506,279.610748 
	C449.113464,280.093079 448.166656,279.337128 447.000000,279.500000 
"/>
<path fill="none" opacity="1.000000" stroke="#000000" stroke-linecap="round" stroke-linejoin="round" stroke-width="5.000000"
	d="
M257.500000,281.500000 
	C263.757904,288.756073 271.492493,289.507019 279.994446,286.484406 
	C288.029602,283.627808 288.009338,283.570831 289.500000,291.500000 
"/>
<path fill="none" opacity="1.000000" stroke="#000000" stroke-linecap="round" stroke-linejoin="round" stroke-width="3.000000"
	d="
M127.000000,321.500000 
	C125.724304,321.448608 124.664673,322.027344 124.023628,323.015320 
	C119.683716,329.703979 116.697540,336.767609 118.508362,344.998169 
	C119.499214,349.501831 118.844856,354.585754 123.000000,358.000000 
"/>
<path fill="none" opacity="1.000000" stroke="#000000" stroke-linecap="round" stroke-linejoin="round" stroke-width="9.000000"
	d="
M388.000000,89.000000 
	C389.166656,89.333336 390.326996,89.930832 391.500977,89.959061 
	C403.002960,90.235649 414.538818,89.327888 426.000000,91.000000 
"/>
<path fill="none" opacity="1.000000" stroke="#000000" stroke-linecap="round" stroke-linejoin="round" stroke-width="3.000000"
	d="
M490.000000,315.000000 
	C497.053009,323.700531 496.905975,329.197815 490.565582,337.549774 
	C487.100433,342.114258 483.863983,346.740967 479.020264,350.029846 
	C473.984528,353.449097 471.544067,359.181519 467.495209,363.495514 
	C459.444366,372.073547 449.195312,377.661072 439.500000,384.000000 
"/>
<path fill="none" opacity="1.000000" stroke="#000000" stroke-linecap="round" stroke-linejoin="round" stroke-width="3.000000"
	d="
M536.000000,596.500000 
	C533.662964,593.201538 535.675232,590.048523 536.572876,587.021606 
	C538.324585,581.114685 540.254883,575.230774 542.630066,569.554443 
	C543.486694,567.507202 540.640686,564.838989 543.991577,563.479309 
	C546.294128,562.544983 549.020264,559.845093 550.832581,561.220581 
	C553.639160,563.350708 558.316162,564.431091 558.022888,569.501343 
	C557.847412,572.536804 559.678040,575.394043 558.995850,578.499084 
	C557.679260,584.491028 554.580688,589.175232 548.470093,590.893616 
	C545.831360,591.635620 544.136902,593.247681 542.559021,595.051636 
	C541.108521,596.709900 539.912537,597.687012 537.481995,597.071045 
	C533.533020,596.070374 532.395508,599.969666 531.156616,602.091431 
	C526.178467,610.617249 522.294922,619.620239 520.315063,629.462830 
	C519.614746,632.944580 520.947693,635.174194 521.615662,638.088074 
	C522.722656,642.917175 526.489563,645.724609 528.139282,649.945557 
	C528.790039,651.610779 531.000000,652.666687 532.500000,654.000000 
"/>
<path fill="none" opacity="1.000000" stroke="#000000" stroke-linecap="round" stroke-linejoin="round" stroke-width="3.000000"
	d="
M357.000000,306.000000 
	C352.027985,308.476227 347.618805,311.375488 345.422974,316.969757 
	C343.534058,321.782227 343.013763,326.463562 345.596893,330.944153 
	C346.856567,333.129120 346.981506,335.222229 347.000000,337.500000 
"/>
<path fill="none" opacity="1.000000" stroke="#000000" stroke-linecap="round" stroke-linejoin="round" stroke-width="3.000000"
	d="
M494.000000,191.500000 
	C496.390808,194.333328 493.965576,197.166245 493.988251,200.000092 
	C494.029602,205.166428 493.974243,210.333481 494.005890,215.499969 
	C494.055756,223.634476 492.780334,231.453217 489.634796,239.055771 
	C488.557129,241.660416 487.583618,244.361816 486.544952,247.017578 
	C485.247650,250.334579 483.355347,252.603760 479.500000,252.500000 
"/>
<path fill="none" opacity="1.000000" stroke="#000000" stroke-linecap="round" stroke-linejoin="round" stroke-width="3.000000"
	d="
M327.000000,262.500000 
	C330.685883,267.290741 336.382172,268.772369 341.547882,270.882782 
	C346.248352,272.803070 351.288544,274.099335 356.499512,273.978973 
	C358.255981,273.938385 359.121307,275.424042 360.500000,276.000000 
"/>
<path fill="none" opacity="1.000000" stroke="#000000" stroke-linecap="round" stroke-linejoin="round" stroke-width="3.000000"
	d="
M570.000000,792.500000 
	C560.997986,787.895874 552.539368,782.371582 544.046387,776.927612 
	C541.615479,775.369324 539.085449,774.173157 536.500000,773.000000 
"/>
<path fill="none" opacity="1.000000" stroke="#000000" stroke-linecap="round" stroke-linejoin="round" stroke-width="3.000000"
	d="
M686.500000,278.000000 
	C685.226624,278.852325 684.354858,279.676544 683.886230,281.470276 
	C681.024292,292.425293 675.836731,302.142334 667.500000,310.000000 
"/>
<path fill="none" opacity="1.000000" stroke="#000000" stroke-linecap="round" stroke-linejoin="round" stroke-width="3.000000"
	d="
M502.500000,502.000000 
	C498.918915,501.559082 497.692505,504.784271 495.502167,506.502747 
	C487.733063,512.598206 479.134521,514.742004 469.500000,512.000000 
"/>
<path fill="none" opacity="1.000000" stroke="#000000" stroke-linecap="round" stroke-linejoin="round" stroke-width="3.000000"
	d="
M665.000000,313.999969 
	C658.333313,320.999969 651.553955,327.897797 645.062988,335.057068 
	C642.882935,337.461578 640.968201,340.279755 640.036865,343.510620 
	C639.629028,344.925415 638.388733,345.222076 637.500000,346.000000 
"/>
<path fill="none" opacity="1.000000" stroke="#000000" stroke-linecap="round" stroke-linejoin="round" stroke-width="5.000000"
	d="
M376.000000,354.500000 
	C375.993591,357.238464 377.789337,358.481384 379.990509,359.520111 
	C383.359985,361.110199 386.655731,362.855713 390.004150,364.491516 
	C391.972717,365.453186 393.807587,366.485870 393.960724,368.486694 
	C399.182953,369.080902 404.629425,364.469238 409.552979,369.952454 
	C410.165039,370.634125 411.500000,370.666687 412.500000,371.000000 
"/>
<path fill="none" opacity="1.000000" stroke="#000000" stroke-linecap="round" stroke-linejoin="round" stroke-width="3.000000"
	d="
M253.750000,254.000000 
	C251.596939,250.809921 248.225143,250.370728 242.484787,251.416504 
	C235.625595,252.666138 229.404434,255.546616 223.000000,258.000000 
"/>
<path fill="none" opacity="1.000000" stroke="#000000" stroke-linecap="round" stroke-linejoin="round" stroke-width="5.000000"
	d="
M399.000000,307.500000 
	C399.885681,306.529480 400.346130,305.421051 401.964539,304.891632 
	C408.260529,302.832214 409.525940,299.530182 408.088287,292.980621 
	C406.879456,287.473724 403.587921,283.469177 398.492767,283.369263 
	C395.050720,283.301697 391.131531,283.552673 387.485016,284.438324 
	C382.963074,285.536560 378.831940,288.113708 374.000000,288.000000 
"/>
<path fill="none" opacity="1.000000" stroke="#000000" stroke-linecap="round" stroke-linejoin="round" stroke-width="3.000000"
	d="
M360.500000,214.000000 
	C354.002625,220.502640 346.690094,226.190018 340.999786,233.499847 
	C339.084656,235.960052 336.153442,236.256287 333.495026,236.418549 
	C325.104462,236.930679 318.944366,240.979172 313.922333,247.439621 
	C312.852905,248.815369 312.445129,249.979645 313.545013,250.948914 
	C317.546631,254.475388 320.302063,259.580750 326.000000,261.000000 
"/>
<path fill="none" opacity="1.000000" stroke="#000000" stroke-linecap="round" stroke-linejoin="round" stroke-width="3.000000"
	d="
M378.000000,372.500000 
	C377.425079,370.968964 376.700623,369.547302 374.998535,369.004578 
	C368.168701,366.826874 361.293152,364.781738 354.528351,362.418884 
	C352.843018,361.830200 351.781311,362.417267 350.500000,363.000000 
"/>
<path fill="none" opacity="1.000000" stroke="#000000" stroke-linecap="round" stroke-linejoin="round" stroke-width="3.000000"
	d="
M664.500000,310.000000 
	C654.888855,304.101990 650.879883,306.942963 644.032166,312.043213 
	C638.619446,316.074615 636.732361,322.039490 635.979858,328.497650 
	C635.415283,333.342896 634.593140,338.158600 634.062988,343.006897 
	C633.958862,343.959045 634.666687,345.000000 635.000000,346.000000 
"/>
<path fill="none" opacity="1.000000" stroke="#000000" stroke-linecap="round" stroke-linejoin="round" stroke-width="3.000000"
	d="
M196.000000,447.500000 
	C190.529480,449.598877 188.175674,444.247650 184.632919,442.262756 
	C179.772400,439.539551 175.156250,435.970673 171.492340,431.506287 
	C170.607086,430.427704 169.465866,429.801880 168.000000,430.000000 
"/>
<path fill="none" opacity="1.000000" stroke="#000000" stroke-linecap="round" stroke-linejoin="round" stroke-width="5.000000"
	d="
M423.000000,424.000000 
	C424.877625,427.310364 428.888367,427.135498 431.663239,429.289734 
	C436.410034,432.974854 439.671112,436.686340 439.066132,443.006317 
	C438.942688,444.295959 439.666656,445.666656 440.000000,447.000000 
"/>
<path fill="none" opacity="1.000000" stroke="#000000" stroke-linecap="round" stroke-linejoin="round" stroke-width="3.000000"
	d="
M446.000031,606.500000 
	C446.833344,609.166687 447.613678,611.851318 448.512390,614.495789 
	C449.889954,618.549316 448.770386,622.030396 445.974426,624.975708 
	C442.766876,628.354431 438.794769,627.718628 435.500000,623.500000 
"/>
<path fill="none" opacity="1.000000" stroke="#000000" stroke-linecap="round" stroke-linejoin="round" stroke-width="3.000000"
	d="
M132.000000,331.000000 
	C130.492111,335.216125 130.832718,339.797119 129.096298,344.039429 
	C127.327393,348.361145 126.333336,353.000000 125.000000,357.500000 
"/>
<path fill="none" opacity="1.000000" stroke="#000000" stroke-linecap="round" stroke-linejoin="round" stroke-width="3.000000"
	d="
M264.000000,323.500000 
	C274.521790,323.050629 281.626251,329.299225 288.500000,336.000000 
"/>
<path fill="none" opacity="1.000000" stroke="#000000" stroke-linecap="round" stroke-linejoin="round" stroke-width="3.000000"
	d="
M144.500000,292.500000 
	C143.421371,293.740875 141.236603,293.205322 140.499023,294.999603 
	C137.459152,302.394562 132.688934,308.782806 128.443726,315.464233 
	C126.821594,318.017303 126.178192,319.964874 128.424438,322.565277 
	C130.152557,324.565857 127.651688,328.338318 131.000000,330.000000 
"/>
<path fill="none" opacity="1.000000" stroke="#000000" stroke-linecap="round" stroke-linejoin="round" stroke-width="3.000000"
	d="
M439.500000,190.000000 
	C440.709015,191.308746 442.623474,191.527359 443.653229,193.416489 
	C444.448334,194.875183 446.384399,195.822464 448.493774,196.056122 
	C455.931152,196.880020 461.900208,205.687347 460.500000,213.500000 
"/>
<path fill="none" opacity="1.000000" stroke="#000000" stroke-linecap="round" stroke-linejoin="round" stroke-width="3.000000"
	d="
M447.000000,196.500000 
	C449.809204,204.756516 453.682617,212.144897 462.500000,215.500000 
"/>
<path fill="none" opacity="1.000000" stroke="#000000" stroke-linecap="round" stroke-linejoin="round" stroke-width="3.000000"
	d="
M411.000000,382.000000 
	C404.702057,378.840820 397.574921,377.702759 391.500000,374.000000 
"/>
<path fill="none" opacity="1.000000" stroke="#000000" stroke-linecap="round" stroke-linejoin="round" stroke-width="5.000000"
	d="
M469.000000,240.500000 
	C466.270905,249.271530 469.423218,254.000000 478.000000,254.000000 
"/>
<path fill="none" opacity="1.000000" stroke="#000000" stroke-linecap="round" stroke-linejoin="round" stroke-width="3.000000"
	d="
M513.000000,216.000000 
	C506.787415,217.929016 500.753937,220.136765 496.443756,225.454407 
	C496.031830,225.962646 494.833344,225.833344 494.000000,226.000015 
"/>
<path fill="none" opacity="1.000000" stroke="#000000" stroke-linecap="round" stroke-linejoin="round" stroke-width="5.000000"
	d="
M508.000000,340.500000 
	C506.674652,345.443604 502.915466,348.645721 498.467804,349.270935 
	C491.892761,350.195221 487.814911,354.527039 483.002655,358.003693 
	C481.651886,358.979553 480.152679,359.832123 479.036194,361.033630 
	C476.397400,363.873383 473.603760,363.965302 470.500000,362.000000 
"/>
<path fill="none" opacity="1.000000" stroke="#000000" stroke-linecap="round" stroke-linejoin="round" stroke-width="3.000000"
	d="
M430.500000,412.000000 
	C423.645416,413.371368 418.250336,417.036224 414.000000,422.500000 
"/>
<path fill="none" opacity="1.000000" stroke="#000000" stroke-linecap="round" stroke-linejoin="round" stroke-width="3.000000"
	d="
M417.000000,372.000000 
	C421.699310,373.865662 425.706970,376.931641 429.990326,379.516052 
	C431.695831,380.545074 433.439056,381.639984 433.500000,384.000000 
"/>
<path fill="none" opacity="1.000000" stroke="#000000" stroke-linecap="round" stroke-linejoin="round" stroke-width="3.000000"
	d="
M475.500000,212.000000 
	C471.007812,211.856796 467.609711,214.974930 463.518768,216.070114 
	C462.412384,216.366302 461.686249,217.739212 462.032684,218.990952 
	C463.497284,224.283096 463.783936,230.104736 468.500000,234.000000 
"/>
<path fill="none" opacity="1.000000" stroke="#000000" stroke-linecap="round" stroke-linejoin="round" stroke-width="3.000000"
	d="
M468.500000,281.000000 
	C469.605347,282.500000 468.872559,283.989044 468.508331,285.502014 
	C467.313416,290.465240 467.698792,294.943054 472.500000,298.000000 
"/>
<path fill="none" opacity="1.000000" stroke="#000000" stroke-linecap="round" stroke-linejoin="round" stroke-width="3.000000"
	d="
M409.000000,328.000000 
	C415.323242,335.102539 422.566376,339.502899 432.500000,336.000000 
"/>
<path fill="none" opacity="1.000000" stroke="#000000" stroke-linecap="round" stroke-linejoin="round" stroke-width="3.000000"
	d="
M472.500000,300.000000 
	C468.779053,303.753113 464.258087,306.458527 459.971313,309.459015 
	C458.809082,310.272552 458.711029,311.529572 458.000000,312.500000 
"/>
<path fill="none" opacity="1.000000" stroke="#000000" stroke-linecap="round" stroke-linejoin="round" stroke-width="5.000000"
	d="
M417.500000,384.000000 
	C420.125916,383.389038 422.642517,384.439148 424.951904,385.155121 
	C428.082153,386.125671 430.617126,386.479736 433.564178,384.600677 
	C435.345642,383.464813 437.466705,383.190704 439.120178,385.927399 
	C440.540253,388.277771 443.000000,390.000000 445.000000,392.000000 
"/>
<path fill="none" opacity="1.000000" stroke="#000000" stroke-linecap="round" stroke-linejoin="round" stroke-width="3.000000"
	d="
M489.000000,314.000000 
	C488.333344,313.333344 487.067322,312.644592 487.090912,312.003357 
	C487.388824,303.906525 481.093567,302.313110 475.500000,300.000000 
"/>
<path fill="none" opacity="1.000000" stroke="#000000" stroke-linecap="round" stroke-linejoin="round" stroke-width="3.000000"
	d="
M447.000000,316.000000 
	C442.862274,319.818237 441.583801,325.945892 436.500000,329.000000 
"/>
<path fill="none" opacity="1.000000" stroke="#000000" stroke-linecap="round" stroke-linejoin="round" stroke-width="7.000000"
	d="
M422.000000,357.000000 
	C419.500000,360.666687 416.791168,364.211182 414.555542,368.032501 
	C412.051086,372.313293 412.678925,376.944885 414.000000,381.500000 
"/>
<path fill="none" opacity="1.000000" stroke="#000000" stroke-linecap="round" stroke-linejoin="round" stroke-width="5.000000"
	d="
M642.000000,429.000000 
	C640.959167,435.666656 638.661438,442.333344 642.000000,449.000000 
"/>
<path fill="none" opacity="1.000000" stroke="#000000" stroke-linecap="round" stroke-linejoin="round" stroke-width="5.000000"
	d="
M639.500000,443.000000 
	C635.450623,446.239563 631.247681,449.372528 631.000000,455.250000 
"/>
<path fill="none" opacity="1.000000" stroke="#000000" stroke-linecap="round" stroke-linejoin="round" stroke-width="3.000000"
	d="
M514.000000,335.000000 
	C511.259949,338.262573 508.320618,340.235657 503.501984,340.271057 
	C499.414001,340.301086 497.105469,344.559967 495.000000,348.000000 
"/>
<path fill="none" opacity="1.000000" stroke="#000000" stroke-linecap="round" stroke-linejoin="round" stroke-width="3.000000"
	d="
M355.000000,408.000000 
	C356.011475,411.590210 359.647400,412.371552 362.063782,414.424957 
	C363.583069,415.715973 365.645874,416.386841 367.000000,418.000000 
"/>
<path fill="none" opacity="1.000000" stroke="#000000" stroke-linecap="round" stroke-linejoin="round" stroke-width="3.000000"
	d="
M305.000000,234.500000 
	C306.879059,239.191559 309.103333,243.683975 312.500000,247.500000 
"/>
<path fill="none" opacity="1.000000" stroke="#000000" stroke-linecap="round" stroke-linejoin="round" stroke-width="3.000000"
	d="
M370.500000,296.000000 
	C366.855286,298.937775 363.691620,302.567108 359.000000,304.000000 
"/>
<path fill="none" opacity="1.000000" stroke="#000000" stroke-linecap="round" stroke-linejoin="round" stroke-width="3.000000"
	d="
M449.000000,396.500000 
	C450.862030,399.886597 453.540833,402.969299 453.000000,407.250000 
"/>
<path fill="none" opacity="1.000000" stroke="#000000" stroke-linecap="round" stroke-linejoin="round" stroke-width="5.000000"
	d="
M414.000000,394.500000 
	C416.067139,392.901642 419.357178,395.583405 421.055847,392.296631 
	C420.806274,389.130371 416.092834,388.006805 416.837524,383.970032 
	C416.976593,383.216217 415.037750,381.585876 413.530823,382.091797 
	C412.455780,382.452667 412.000214,383.830109 411.399689,384.946014 
	C410.319427,386.953430 411.935394,389.183685 410.500000,391.000000 
"/>
<path fill="none" opacity="1.000000" stroke="#000000" stroke-linecap="round" stroke-linejoin="round" stroke-width="5.000000"
	d="
M632.000000,359.000000 
	C635.200867,361.439850 635.387634,361.906891 636.000000,369.000000 
"/>
<path fill="none" opacity="1.000000" stroke="#000000" stroke-linecap="round" stroke-linejoin="round" stroke-width="3.000000"
	d="
M485.000000,252.500000 
	C485.776184,257.479675 488.370819,262.398743 485.500000,267.500000 
"/>
<path fill="none" opacity="1.000000" stroke="#000000" stroke-linecap="round" stroke-linejoin="round" stroke-width="5.000000"
	d="
M468.000000,511.000000 
	C464.666656,512.388123 461.333344,512.388123 458.000000,511.000000 
"/>
<path fill="none" opacity="1.000000" stroke="#000000" stroke-linecap="round" stroke-linejoin="round" stroke-width="5.000000"
	d="
M433.000000,402.000000 
	C431.652618,397.894897 428.161133,396.827301 424.500122,395.999725 
	C421.846619,397.871887 423.429626,400.651581 423.000000,403.000000 
"/>
<path fill="none" opacity="1.000000" stroke="#000000" stroke-linecap="round" stroke-linejoin="round" stroke-width="3.000000"
	d="
M459.000000,372.500000 
	C459.024902,375.971649 456.551544,378.943634 457.000000,382.500000 
"/>
<path fill="none" opacity="1.000000" stroke="#000000" stroke-linecap="round" stroke-linejoin="round" stroke-width="3.000000"
	d="
M288.500000,670.000000 
	C286.536682,668.559448 284.375488,667.547546 282.000000,667.000000 
"/>
<path fill="none" opacity="1.000000" stroke="#000000" stroke-linecap="round" stroke-linejoin="round" stroke-width="3.000000"
	d="
M520.500000,330.000000 
	C518.666687,331.333313 516.833313,332.666656 515.000000,334.000000 
"/>
<path fill="none" opacity="1.000000" stroke="#000000" stroke-linecap="round" stroke-linejoin="round" stroke-width="3.000000"
	d="
M257.000000,254.500000 
	C258.333344,256.333344 259.666656,258.166656 261.000000,260.000000 
"/>
</svg>