<svg version="1.1" id="Layer_1" xmlns="http://www.w3.org/2000/svg" xmlns:xlink="http://www.w3.org/1999/xlink" x="0px" y="0px"
	 width="100%" viewBox="0 0 640 704" enable-background="new 0 0 640 704" xml:space="preserve">
<path fill="#000000" opacity="1.000000" stroke="none" 
	d="
M373.931610,614.916992 
	C362.700287,632.187439 353.623840,650.135437 346.875397,669.228882 
	C345.846863,672.138794 344.249420,673.446899 341.028870,673.411133 
	C328.364227,673.270569 315.694153,673.199768 303.032593,673.441528 
	C299.042572,673.517639 297.923798,671.251892 296.868347,668.286560 
	C289.508362,647.608948 279.525879,628.278320 266.953339,610.288513 
	C246.965012,581.687561 222.519287,557.710205 192.973114,539.031738 
	C185.227264,534.134888 185.248901,534.158386 189.725601,526.320862 
	C203.863373,501.569183 212.482468,475.092773 215.850784,446.713501 
	C221.014069,403.211304 213.169586,362.255341 193.113388,323.530457 
	C190.908447,319.273102 190.480042,315.837433 193.704132,312.202209 
	C196.722382,308.799103 197.148834,304.710876 196.557388,300.459625 
	C194.289124,284.155365 197.748260,268.695801 203.615799,253.660599 
	C208.140488,242.066391 214.634552,231.608246 223.303421,222.625900 
	C226.252121,219.570572 226.947220,216.473465 226.188843,212.244934 
	C222.586304,192.158203 219.508362,171.985764 217.628967,151.647232 
	C216.850052,143.217972 215.804886,134.813339 215.022720,126.384338 
	C214.812943,124.123665 213.578156,120.992279 217.736725,120.792793 
	C221.564392,120.609200 221.190750,123.496262 221.392105,125.983917 
	C223.480881,151.790024 227.069534,177.398621 230.676727,203.031647 
	C232.177597,213.696945 236.906601,219.386322 245.771606,224.678238 
	C272.980286,240.920395 292.671204,264.288483 306.019623,292.946350 
	C307.975647,297.145691 310.283508,299.168335 315.072937,298.751678 
	C319.869934,298.334320 324.746307,298.421570 329.559875,298.727844 
	C333.644928,298.987793 335.898041,297.469757 337.612854,293.735962 
	C343.756165,280.359558 351.518982,268.001495 361.048767,256.698822 
	C373.441864,242.000259 387.962982,229.956940 404.727142,220.665619 
	C409.079681,218.253265 411.051971,215.182831 411.904388,210.259094 
	C416.210754,185.384995 419.707764,160.422974 421.754364,135.255753 
	C422.036621,131.784485 422.758850,128.349686 422.661316,124.835121 
	C422.592072,122.339493 423.379395,120.603256 426.359161,120.759872 
	C429.297821,120.914337 429.395264,122.949562 429.181152,125.013176 
	C427.775726,138.558685 426.434082,152.112900 424.818512,165.634033 
	C422.850464,182.105072 420.451416,198.519241 417.428162,214.835052 
	C416.914795,217.605682 418.179077,219.569427 419.954865,221.506836 
	C432.944855,235.678909 441.801239,252.082535 445.763428,270.922668 
	C447.781586,280.518951 449.266632,290.252045 447.454041,300.115387 
	C446.515198,305.224243 448.065613,309.652710 451.130585,313.645538 
	C453.318237,316.495392 453.256927,319.159576 451.513062,322.357208 
	C438.178711,346.807648 430.404968,373.063232 427.539886,400.662384 
	C424.243469,432.416351 428.391846,463.377197 439.124298,493.459229 
	C443.561096,505.895111 449.178680,517.771606 455.897675,529.114624 
	C458.086243,532.809448 457.378815,535.201538 453.782562,537.315918 
	C435.858856,547.853943 420.028351,561.122864 405.395782,575.742249 
	C393.600800,587.526550 383.451691,600.771790 373.931610,614.916992 
M422.964050,406.572571 
	C423.003235,405.407349 422.977295,404.235718 423.091156,403.077850 
	C425.859406,374.931763 433.520630,348.201752 446.598877,323.105621 
	C448.880249,318.727875 448.931244,315.366364 444.514008,312.340240 
	C441.689941,314.104736 439.998474,316.814362 437.995544,319.194885 
	C428.333191,330.678833 416.350861,338.341125 401.509613,341.133850 
	C393.358582,342.667633 393.064972,342.870667 392.086182,351.055359 
	C391.434784,356.502258 390.618561,361.931152 389.787445,367.354523 
	C387.141907,384.617523 385.121063,401.959717 384.373352,419.402374 
	C383.521423,439.277222 385.585663,458.925781 390.394653,478.252808 
	C396.677124,503.501404 408.306488,526.168335 423.687408,547.016724 
	C425.720520,549.772583 427.871704,550.364868 430.856689,548.143372 
	C436.999878,543.571350 443.218597,539.084473 449.604675,534.862793 
	C452.362213,533.039795 452.450256,531.537720 450.921112,528.808350 
	C429.802063,491.113922 419.845703,450.818207 422.964050,406.572571 
M214.655167,327.887573 
	C208.960663,323.537476 205.202560,317.224121 199.782761,312.683197 
	C194.884827,316.269775 194.534393,317.745514 197.663193,323.804382 
	C206.260696,340.453339 212.719604,357.850250 216.718384,376.180450 
	C222.202652,401.320038 223.193710,426.586029 219.533279,452.062164 
	C215.676788,478.903076 207.077484,504.126648 193.818573,527.742920 
	C191.677536,531.556458 192.596832,533.808289 195.958588,535.998901 
	C201.676483,539.724915 207.300812,543.598022 212.896790,547.506287 
	C215.956451,549.643127 218.557465,549.241455 220.669495,546.317688 
	C223.493408,542.408447 226.233154,538.432617 228.866928,534.392700 
	C249.434433,502.844238 259.241058,468.097656 259.661041,430.564453 
	C259.838257,414.730072 258.414276,398.996399 256.534149,383.309082 
	C255.169876,371.926270 253.409912,360.589050 251.699753,349.250580 
	C251.170883,345.744263 250.279694,341.884125 245.955322,341.493042 
	C234.225769,340.432159 224.297791,335.429199 214.655167,327.887573 
M406.786835,290.024933 
	C406.629456,289.038513 406.446777,288.055328 406.320068,287.065002 
	C406.066803,285.085846 406.313721,283.258575 408.655212,282.807312 
	C410.943756,282.366272 411.972443,283.864197 412.504913,285.815887 
	C412.723389,286.616699 412.893616,287.433350 413.038269,288.251221 
	C415.477936,302.045624 412.316071,314.641022 404.971802,326.382111 
	C403.697418,328.419434 401.598358,330.104492 401.651031,332.828949 
	C403.501434,334.522461 405.212433,333.302216 406.837402,332.738434 
	C415.629120,329.688202 423.019196,324.544556 429.933197,318.305817 
	C438.745850,310.353790 442.830658,301.130615 441.820831,289.127716 
	C441.303833,282.982635 440.747925,276.887299 439.369263,270.919739 
	C435.465363,254.021973 427.539032,239.225784 415.637634,226.560303 
	C413.588318,224.379395 411.685699,224.104980 409.058563,225.553024 
	C379.156677,242.034271 357.368591,265.963348 343.137329,296.921021 
	C341.844971,299.732300 342.204468,302.060730 344.019501,304.326172 
	C346.514465,307.440186 349.006409,310.559204 351.592499,313.597076 
	C359.614044,323.019806 369.117493,330.318420 381.005524,334.306763 
	C385.008972,335.649902 388.166443,335.204376 391.455292,332.255066 
	C403.870819,321.121094 408.499115,307.230988 406.786835,290.024933 
M237.131622,302.219269 
	C237.733765,311.154358 241.034576,319.103790 246.667511,325.914185 
	C256.191742,337.429321 257.797607,337.247314 271.099731,330.842651 
	C282.825104,325.197083 290.986542,315.509338 299.018921,305.647186 
	C301.962891,302.032562 302.188141,299.020050 300.165955,294.881653 
	C286.029633,265.952209 265.389343,243.111755 237.440414,226.981155 
	C231.514267,223.560898 230.838989,223.634079 226.183334,229.017273 
	C211.403900,246.106293 203.053940,265.846771 202.601562,288.528564 
	C202.471664,295.041168 201.241440,302.115051 205.329910,307.964233 
	C212.923309,318.827759 222.702667,327.194397 235.164368,332.122314 
	C237.121246,332.896179 239.158524,333.822357 241.324142,332.830414 
	C242.385223,330.418671 240.642593,328.986542 239.617035,327.370605 
	C231.824661,315.092346 228.388809,301.889832 231.076813,287.383057 
	C231.507095,285.060822 231.917633,282.352020 235.143982,282.819061 
	C238.483322,283.302429 237.688797,285.954681 237.535202,288.319153 
	C237.255005,292.632324 237.234772,296.962433 237.131622,302.219269 
M345.145935,661.681519 
	C347.316742,656.457031 349.568817,651.264343 351.633636,645.998291 
	C353.407257,641.474854 352.636932,640.176025 347.751404,640.140991 
	C330.429565,640.016663 313.106171,640.009766 295.784027,640.094666 
	C291.371155,640.116333 290.516541,641.586731 292.197662,645.809448 
	C294.721771,652.149597 297.672546,658.332031 299.929932,664.761292 
	C301.204620,668.391724 303.208954,669.759949 306.885956,669.712402 
	C316.045807,669.593994 325.221313,669.365112 334.364563,669.768921 
	C340.146698,670.024353 343.630707,668.079163 345.145935,661.681519 
M321.688599,330.796997 
	C318.491394,333.418427 315.176392,335.910645 312.125885,338.692932 
	C308.003632,342.452698 307.527466,347.492401 307.254028,353.245850 
	C314.212311,350.621216 320.037018,347.798248 322.410522,340.333923 
	C324.125214,348.366760 329.769714,350.706543 335.971436,352.670105 
	C337.256622,350.248291 336.657349,348.465027 336.381317,346.684204 
	C335.094269,338.380310 327.960815,335.258057 321.688599,330.796997 
M330.785675,466.751251 
	C330.501251,464.109741 330.192078,461.470612 329.937805,458.826202 
	C329.465973,453.920441 327.180786,452.345001 319.729950,452.631744 
	C315.970703,452.776428 314.311798,455.555603 314.197083,459.056519 
	C314.055450,463.377686 314.094299,467.685913 313.285400,471.974243 
	C312.963348,473.681580 312.839783,475.673737 315.280823,477.299469 
	C319.479218,472.930267 324.395416,472.707733 329.176483,476.894775 
	C331.629761,473.628662 330.560455,470.538269 330.785675,466.751251 
M314.163971,623.672119 
	C318.524414,622.132690 320.330109,618.254211 321.937256,613.741333 
	C326.025879,621.245728 327.133240,622.408447 331.868073,624.868103 
	C333.073486,625.494324 334.241577,626.224731 335.584625,625.449768 
	C337.020508,624.621094 336.709564,623.151733 336.600098,621.863953 
	C336.113983,616.143250 328.470306,606.878113 322.942047,605.171875 
	C322.088593,604.908569 321.242065,604.748779 320.607025,605.377991 
	C316.021851,609.920959 308.989105,612.388550 308.171448,620.149841 
	C307.987244,621.898499 306.611023,623.830017 308.531158,625.182007 
	C310.374237,626.479675 311.934906,624.762878 314.163971,623.672119 
M329.478699,545.963989 
	C323.972778,541.503723 318.764618,542.744202 313.665009,546.748169 
	C311.768341,548.237305 308.586609,549.250427 309.667633,552.269470 
	C310.789703,555.403015 313.753510,556.639587 317.074615,555.710632 
	C320.739746,554.685364 324.186401,554.679504 327.783264,556.152954 
	C331.354401,557.615967 333.599213,554.823792 335.146088,552.476562 
	C336.874268,549.854309 333.762360,548.954224 332.232147,547.659363 
	C331.603943,547.127808 330.829437,546.769226 329.478699,545.963989 
M354.299774,563.195557 
	C350.581177,563.132996 347.710571,564.717346 346.517700,568.219849 
	C345.185364,572.131836 348.669983,573.250916 351.081146,574.873962 
	C351.769867,575.337708 352.531769,575.714722 353.150482,576.256592 
	C355.744629,578.528748 357.719788,576.708618 359.784332,575.330322 
	C362.137817,573.759094 362.449646,571.568970 361.373810,569.213745 
	C360.099518,566.424072 358.195831,564.156067 354.299774,563.195557 
M283.863403,567.388855 
	C281.905212,572.146790 282.887268,575.116943 286.887146,576.533936 
	C289.441620,577.438843 298.099884,573.255371 298.659210,570.832458 
	C298.941650,569.609131 298.436829,568.587219 297.804260,567.577881 
	C294.344330,562.057312 289.548035,561.767212 283.863403,567.388855 
M399.999512,552.399597 
	C396.100128,548.745544 389.244995,549.243164 386.254242,553.419983 
	C385.194672,554.899780 384.813782,556.706543 386.069611,558.026794 
	C388.458588,560.538452 391.267914,563.172852 394.792480,563.136963 
	C398.161499,563.102539 398.571899,559.407288 399.628296,556.872375 
	C400.124573,555.681519 400.782562,554.437500 399.999512,552.399597 
M357.147369,426.614807 
	C357.639374,425.220520 358.493683,423.839172 358.544220,422.429077 
	C358.635315,419.886963 355.336609,417.773865 353.910370,419.389313 
	C351.364380,422.272980 348.363647,423.150330 344.712250,423.539185 
	C341.732361,423.856537 339.847412,426.478363 340.521271,429.297729 
	C341.222839,432.233124 343.872162,433.170715 346.896912,432.043243 
	C350.329468,430.763794 353.709656,429.383209 357.147369,426.614807 
M293.767822,384.378998 
	C297.489227,385.794312 304.007080,382.140625 304.390015,378.000061 
	C304.653320,375.153137 305.934967,371.248444 301.384277,370.236603 
	C297.370117,369.343994 294.474152,370.460663 292.984253,374.952759 
	C291.922028,378.155396 293.218811,380.806030 293.767822,384.378998 
M287.471344,427.007965 
	C290.385223,428.573486 293.265594,430.205963 296.222473,431.685516 
	C299.096313,433.123474 302.263855,433.036957 303.419037,429.886475 
	C304.692993,426.412231 302.057709,424.121155 298.832367,423.569275 
	C295.770050,423.045319 293.017242,422.451538 291.037720,419.839935 
	C290.034821,418.516785 288.711243,418.738647 287.487091,419.525238 
	C286.343872,420.259796 285.287903,421.175018 285.698578,422.744751 
	C286.031952,424.019073 286.551056,425.244812 287.471344,427.007965 
M245.311096,558.479797 
	C246.104187,562.620605 248.692841,563.506897 252.307617,562.183533 
	C257.287018,560.360596 259.826874,556.965515 258.574646,554.027344 
	C257.563263,551.654236 250.138046,548.791016 247.587570,549.851501 
	C243.636444,551.494385 242.912811,554.182007 245.311096,558.479797 
M340.037201,376.349792 
	C339.628204,381.219543 343.238129,382.888672 346.708160,384.575134 
	C347.884430,385.146851 349.429657,385.599976 350.230988,384.006195 
	C351.860809,380.764618 352.262299,377.460724 350.902252,373.892456 
	C349.541016,370.321167 346.943024,369.837585 343.694305,370.125122 
	C340.213776,370.433167 339.950897,372.831604 340.037201,376.349792 
M338.844635,536.347595 
	C334.805023,541.807312 338.722443,548.524658 347.377960,550.980042 
	C351.649292,542.261597 349.164551,537.537170 338.844635,536.347595 
M334.733521,474.791840 
	C338.127838,476.162659 340.896149,474.352997 341.681885,470.276001 
	C342.591339,465.557007 341.091278,461.466339 338.403870,457.697784 
	C337.611786,456.587067 336.601379,455.602173 335.091187,456.092163 
	C333.292999,456.675659 333.279236,458.243347 333.396271,459.783661 
	C333.759033,464.557373 334.132080,469.330261 334.733521,474.791840 
M309.841675,471.837891 
	C310.177673,467.568146 310.612823,463.303040 310.811401,459.026917 
	C310.925293,456.575409 309.995667,454.972717 307.232178,456.593536 
	C302.527527,459.352936 300.671936,469.410095 304.134644,473.541229 
	C306.387695,476.229126 308.462585,476.658051 309.841675,471.837891 
M306.639587,538.175964 
	C303.155670,534.121521 299.593658,536.847717 297.138794,538.944031 
	C292.954926,542.516663 296.078827,546.676025 296.960175,550.735046 
	C304.124939,548.278564 306.988373,544.692566 306.639587,538.175964 
M352.063019,550.546692 
	C352.059052,551.374573 352.065338,552.202576 352.049164,553.030212 
	C352.004730,555.303162 352.926331,556.603394 355.273560,557.296265 
	C358.648468,558.292419 360.231598,556.442749 361.596619,553.998901 
	C362.594604,552.212280 364.705200,550.303284 362.537079,548.275574 
	C359.955200,545.860840 357.181091,543.458801 353.433258,543.239746 
	C351.636383,545.338318 352.350403,547.598938 352.063019,550.546692 
M341.775635,385.741455 
	C338.841064,383.394806 336.147003,385.160034 333.395386,386.209167 
	C331.426331,386.959961 330.254028,388.083221 331.177124,390.354889 
	C331.987457,392.349182 332.777802,395.236969 335.304138,394.493774 
	C339.521667,393.253082 343.949402,393.242981 348.298920,392.395233 
	C347.650604,388.417053 344.478790,387.815063 341.775635,385.741455 
M282.727661,553.907898 
	C284.461212,557.710815 287.325806,558.352722 290.850159,556.641968 
	C292.819489,555.686096 293.217438,548.034668 291.466461,545.074463 
	C289.905518,542.435669 287.920502,544.064453 286.369965,544.974426 
	C283.261322,546.798767 278.678040,548.146667 282.727661,553.907898 
M297.531158,389.094910 
	C296.009796,390.923645 295.800262,392.737488 298.660492,392.790283 
	C301.873810,392.849579 304.827057,393.460602 307.852600,394.456940 
	C311.141632,395.540070 312.017517,392.766724 313.076721,390.486481 
	C314.314575,387.821625 312.403931,387.088348 310.626648,386.022614 
	C305.587952,383.001099 301.869202,385.920807 297.531158,389.094910 
M331.209534,355.717560 
	C324.870239,349.539001 318.938599,349.646576 312.986755,356.048096 
	C319.621582,361.921814 323.565125,361.987274 331.209534,355.717560 
M307.431610,379.040009 
	C308.558594,382.366791 310.941406,383.263000 313.945129,381.912506 
	C315.599243,381.168854 319.191010,371.423798 318.481689,370.597992 
	C318.273438,370.355530 317.966217,370.194458 317.694427,370.010742 
	C313.800720,367.378723 308.831879,369.341003 308.027496,373.849701 
	C307.766785,375.311096 307.613861,376.791687 307.431610,379.040009 
M371.046997,567.306702 
	C372.051239,566.217346 373.225922,565.239441 374.025665,564.016418 
	C375.937439,561.092957 374.056274,558.928345 372.115051,557.100037 
	C370.559814,555.635254 369.449432,552.398376 366.733612,553.785950 
	C364.490234,554.932190 361.901001,557.834717 363.319946,560.161926 
	C365.052826,563.004089 364.634979,568.667236 371.046997,567.306702 
M274.709534,554.236877 
	C273.612000,555.464844 272.525818,556.703186 271.414490,557.918518 
	C269.418823,560.100952 268.487152,562.366028 270.932526,564.829712 
	C272.528229,566.437378 274.368958,569.031616 276.655975,567.092224 
	C278.998383,565.105774 282.077209,562.497803 280.975922,558.917603 
	C280.254333,556.571838 279.709351,552.596497 274.709534,554.236877 
M336.651398,376.453156 
	C336.650787,376.122192 336.656586,375.791107 336.648529,375.460327 
	C336.587067,372.935303 336.605103,370.240173 333.532562,369.418549 
	C331.098541,368.767670 328.434753,368.602203 326.614624,370.782623 
	C324.610168,373.183838 326.981903,375.040436 327.840546,377.054810 
	C328.099915,377.663177 328.334534,378.284760 328.635406,378.872162 
	C329.477875,380.516876 329.529266,382.913696 332.531250,382.319031 
	C335.425293,381.745789 337.011169,380.370361 336.651398,376.453156 
M344.063416,558.108032 
	C342.482178,555.483032 340.480957,554.085388 337.551575,556.161316 
	C334.564697,558.277954 331.200439,560.321777 332.509796,564.859314 
	C333.158142,567.106018 335.162201,568.162048 337.214966,568.946777 
	C338.290100,569.357788 339.371460,568.937927 339.719147,567.937622 
	C340.855316,564.669067 344.228638,562.529663 344.063416,558.108032 
M275.784241,516.004395 
	C275.343170,518.588806 275.231018,521.286682 274.387634,523.732300 
	C272.950104,527.900940 276.398804,528.835144 278.517395,530.611511 
	C279.781586,531.671509 281.329346,531.812134 282.372589,530.155518 
	C283.945801,527.657532 286.198456,525.071655 283.655548,522.080139 
	C281.563263,519.618896 279.594177,516.891296 275.784241,516.004395 
M303.683929,554.593689 
	C298.718811,558.192505 298.796875,558.221313 303.164886,565.351929 
	C304.760986,567.957581 306.284790,569.711182 309.426361,567.635986 
	C312.236267,565.779846 312.981323,561.942932 310.602814,559.458008 
	C308.800598,557.575134 306.449524,556.217651 303.683929,554.593689 
M359.372925,524.573853 
	C359.448944,526.151428 360.259064,527.410767 361.213623,528.565063 
	C362.291718,529.868774 363.548340,531.217468 365.419159,530.365417 
	C367.515350,529.410767 370.247650,528.243286 370.174408,525.791260 
	C370.065674,522.151062 368.906677,518.542236 368.013458,513.998108 
	C365.178284,518.107788 361.431458,520.153137 359.372925,524.573853 
M297.023376,439.810425 
	C298.656586,433.703583 292.910248,434.208191 290.120697,432.879791 
	C286.004730,430.919769 285.292542,435.761292 283.444489,437.883331 
	C281.631744,439.964935 282.683075,441.654572 285.369110,441.888763 
	C289.177429,442.220764 292.987396,442.226715 297.023376,439.810425 
M403.056885,546.690613 
	C404.415405,546.091248 405.762787,545.465027 407.134491,544.897583 
	C411.157135,543.233521 411.775940,541.360779 409.421997,537.886719 
	C407.059235,534.399658 405.557800,534.669556 400.153564,539.003296 
	C398.334045,540.462402 397.818146,542.157959 398.199554,544.216675 
	C398.608765,546.425354 400.230591,547.046021 403.056885,546.690613 
M246.566360,543.259827 
	C245.327133,538.751709 239.560089,534.589172 236.800064,536.290344 
	C234.912125,537.453979 233.122635,539.239563 233.541901,541.453491 
	C234.349136,545.715881 238.911926,545.145203 241.738007,546.761414 
	C244.088684,548.105835 245.674973,546.219788 246.566360,543.259827 
M329.133209,628.211853 
	C323.085846,623.654968 317.212769,624.407837 313.875641,630.238281 
	C315.643188,632.322388 318.168060,633.229736 320.605347,634.076538 
	C323.929688,635.231445 328.373596,632.452576 329.133209,628.211853 
M269.100494,495.513885 
	C269.942993,492.351349 269.656494,489.436981 266.410614,487.877808 
	C263.492340,486.476013 260.804535,487.261078 259.073181,490.065216 
	C257.761993,492.188751 257.309265,494.894562 259.670319,496.268341 
	C262.446411,497.883606 265.802124,500.553833 269.100494,495.513885 
M356.797180,432.752533 
	C354.640717,431.864929 352.995178,433.230988 351.241699,434.043945 
	C349.134003,435.021179 346.545135,436.028137 346.817596,438.742004 
	C347.125519,441.809357 350.318939,441.359100 352.363831,441.697296 
	C354.987091,442.131165 358.417236,443.665588 360.215424,440.877930 
	C362.241211,437.737640 358.894836,435.569153 356.797180,432.752533 
M317.502533,324.476898 
	C314.623505,324.725006 310.507904,322.381439 309.156525,324.832672 
	C307.477936,327.877472 306.909149,332.112671 308.126740,336.677216 
	C312.720825,334.025940 316.067047,330.887268 319.412201,327.811890 
	C321.056122,326.300568 319.942261,325.207855 317.502533,324.476898 
M313.696014,580.738098 
	C314.630280,582.499512 316.104279,583.863403 318.035156,583.027893 
	C319.796570,582.265625 319.525757,580.272644 319.070038,578.637573 
	C318.596069,576.937012 319.378357,575.393066 319.481689,573.773193 
	C319.613708,571.703308 318.489655,570.400452 316.621979,569.629700 
	C314.632935,568.808960 313.131744,569.561829 311.760834,570.971924 
	C310.361572,572.411194 309.715363,573.900146 310.944092,575.809387 
	C311.830505,577.186829 312.568817,578.659424 313.696014,580.738098 
M381.411133,497.709534 
	C383.626160,496.672760 386.622650,496.008209 386.278564,492.889313 
	C385.922424,489.661346 383.740845,487.437012 380.270294,487.463654 
	C376.582336,487.491974 374.775879,490.028687 374.989197,493.337555 
	C375.191895,496.482147 376.724426,499.082916 381.411133,497.709534 
M357.777405,386.674133 
	C360.226318,386.247223 362.696228,385.913055 365.117920,385.365662 
	C367.269745,384.879242 368.754883,383.569946 368.545654,381.163239 
	C368.344238,378.846649 366.260193,379.144745 364.740875,378.743164 
	C362.397430,378.123688 360.117981,378.799683 357.831482,379.182220 
	C355.592102,379.556915 355.089996,381.371002 354.657288,383.180725 
	C354.185150,385.155518 354.803528,386.453064 357.777405,386.674133 
M280.851776,385.823730 
	C282.476929,386.095886 284.093140,386.479767 285.729584,386.610382 
	C287.552032,386.755768 289.669525,386.900146 289.658813,384.201935 
	C289.650238,382.028442 289.293121,379.719360 286.624390,379.193085 
	C284.865692,378.846252 283.017761,378.938324 281.208496,378.864960 
	C278.927002,378.772369 276.114380,378.212067 275.630066,381.344299 
	C275.170685,384.314880 277.785583,385.023590 280.851776,385.823730 
M332.773071,576.549744 
	C334.450348,574.886414 334.802307,573.211426 332.916809,571.421692 
	C331.568085,570.141418 330.294800,568.783813 328.160217,569.663330 
	C326.053345,570.531372 325.190735,572.062622 325.289490,574.358521 
	C325.415436,577.285950 325.320038,580.222900 325.320038,583.284058 
	C330.599091,584.362366 330.204315,579.305115 332.773071,576.549744 
M319.182465,489.189850 
	C320.464355,491.867584 322.505707,492.497711 324.769531,490.685394 
	C326.926331,488.958801 326.750244,481.574005 324.790588,479.793945 
	C323.066864,478.228241 321.406250,478.189453 319.461670,479.572632 
	C315.481201,482.403961 318.394043,485.474457 319.182465,489.189850 
M336.540924,331.943573 
	C335.836853,323.486725 332.024170,321.613770 324.452209,326.324371 
	C326.253204,330.063538 329.661682,332.101166 332.936829,334.190033 
	C334.523621,335.202057 335.772949,334.399719 336.540924,331.943573 
M335.245392,502.787903 
	C334.272247,505.065643 333.477966,507.495453 336.742767,508.413422 
	C339.664520,509.234955 343.120392,509.517609 344.828644,506.523010 
	C346.254303,504.023712 343.914246,501.728546 342.125305,500.231384 
	C339.399353,497.950012 337.261719,499.682770 335.245392,502.787903 
M307.881134,607.621216 
	C311.557159,608.725037 316.469574,605.371643 319.001465,600.030151 
	C311.151794,596.288696 309.265778,597.208313 307.854614,605.474548 
	C307.771332,605.962341 307.747223,606.460266 307.881134,607.621216 
M301.455536,500.837250 
	C300.614197,502.940369 297.466614,504.839478 299.911774,507.282990 
	C302.192169,509.561798 305.523346,509.418976 308.295502,508.087311 
	C310.513214,507.021942 310.161896,504.631287 309.114197,502.860077 
	C307.517761,500.161285 305.479156,497.899506 301.455536,500.837250 
M336.496399,603.645264 
	C334.693298,596.864746 330.816467,595.801941 324.673065,600.792969 
	C327.864899,603.750122 330.552490,607.198730 334.916046,608.253174 
	C336.253235,606.956726 336.529236,605.702698 336.496399,603.645264 
M260.462799,546.112122 
	C261.748505,544.025024 263.894806,541.826355 261.832733,539.399780 
	C259.559906,536.725281 257.800262,540.068970 255.772507,540.558655 
	C255.293732,540.674316 254.857925,540.970581 254.378677,541.081177 
	C252.642563,541.481689 250.369217,541.395142 250.538834,543.993347 
	C250.699921,546.460815 252.961182,546.953918 254.839951,547.479309 
	C256.596985,547.970764 258.465424,548.226135 260.462799,546.112122 
M392.839874,545.582825 
	C394.773376,543.512329 395.304382,541.673767 391.651520,541.360107 
	C389.366119,541.163879 387.567078,540.157349 385.721069,539.037354 
	C384.684082,538.408142 383.520691,538.047791 382.500427,538.996399 
	C381.439240,539.983032 381.250763,541.238586 381.662415,542.650269 
	C383.127808,547.675415 386.644806,548.804443 392.839874,545.582825 
M318.751343,415.882538 
	C320.096924,417.208801 321.145111,419.596802 323.571808,417.765350 
	C324.973877,416.707184 326.973724,415.433105 326.210083,413.385010 
	C325.309326,410.969177 325.741272,407.913452 323.178802,406.215759 
	C321.955109,405.404999 320.592621,405.825989 320.210236,406.950439 
	C319.287598,409.663605 317.306305,412.204529 318.751343,415.882538 
M319.247650,566.475159 
	C320.561218,566.554749 321.939575,566.924377 323.173798,566.648682 
	C325.238403,566.187500 327.563171,565.713013 327.731689,562.860291 
	C327.885071,560.264404 325.930176,559.483704 324.029175,558.825806 
	C321.067657,557.800842 318.750916,559.159851 317.101715,561.420227 
	C315.688416,563.357300 316.087616,565.205200 319.247650,566.475159 
M307.974335,427.718079 
	C309.319122,430.924530 311.233276,431.210571 313.667114,428.827454 
	C314.737488,427.779419 315.817993,426.741486 316.875092,425.680206 
	C320.554657,421.986176 320.369293,421.152344 314.996887,418.761047 
	C313.747162,421.024597 312.042328,422.957367 309.337982,423.839233 
	C308.024506,424.267456 307.302979,425.527039 307.974335,427.718079 
M362.691467,390.926025 
	C360.328461,389.508820 357.865753,390.016266 355.472717,390.706177 
	C353.275208,391.339752 352.348419,393.028198 352.359222,395.274261 
	C352.371063,397.742401 354.271179,398.238281 356.053040,398.584717 
	C361.814636,399.704956 361.710236,394.924225 362.691467,390.926025 
M323.618073,501.232697 
	C325.571381,502.584625 326.885681,505.434479 330.912201,503.981079 
	C327.519501,501.172974 327.832184,495.692963 322.218933,495.814148 
	C316.911621,495.928772 316.724731,500.399170 314.839050,503.810516 
	C318.544312,504.604187 319.751007,499.954437 323.618073,501.232697 
M336.000427,428.475891 
	C336.391968,425.496979 330.459137,419.014130 327.773132,419.764557 
	C325.423492,420.421021 323.783356,421.960205 326.095215,424.449677 
	C327.783051,426.267090 329.645813,427.926819 331.483246,429.598969 
	C333.034241,431.010468 334.459351,430.785156 336.000427,428.475891 
M359.738220,458.472687 
	C357.187683,459.765900 355.522491,461.784149 355.603363,464.683441 
	C355.650818,466.384064 357.340637,467.203217 358.777863,467.378510 
	C360.922882,467.640137 363.503998,469.542389 365.213196,467.093689 
	C366.902374,464.673584 364.540527,462.816833 363.336700,460.951935 
	C362.635132,459.865112 361.858002,458.722717 359.738220,458.472687 
M323.120575,426.524597 
	C319.473785,426.812103 317.133606,429.013855 317.431427,432.412292 
	C317.662659,435.050812 320.295654,436.170410 323.159058,435.942444 
	C325.119873,435.786316 326.234558,434.605988 326.795929,433.018127 
	C327.855988,430.019745 325.302704,428.635376 323.120575,426.524597 
M281.700287,393.022400 
	C282.424622,394.491699 282.966583,396.092834 283.912689,397.401855 
	C285.677124,399.843079 288.013794,398.933624 290.129364,397.947235 
	C292.257080,396.955170 292.046112,394.945343 291.462433,393.223267 
	C290.278473,389.730164 284.193329,389.234497 281.700287,393.022400 
M378.657135,586.139526 
	C377.958740,587.235291 376.952850,588.247681 376.628235,589.444763 
	C376.016632,591.699768 377.574860,593.187744 379.245789,594.268127 
	C380.629547,595.162842 382.080811,594.842834 383.150726,593.448242 
	C385.030548,590.997864 384.040161,584.328979 381.323853,581.940308 
	C379.967316,582.752686 379.721497,584.298218 378.657135,586.139526 
M281.104065,467.898590 
	C282.901215,467.642639 284.729309,467.514465 286.485565,467.089539 
	C287.842407,466.761230 288.919647,465.880859 288.630768,464.220123 
	C288.207153,461.784760 286.942535,459.777985 284.698547,458.795929 
	C282.661530,457.904449 281.549072,459.757111 280.900085,461.145172 
	C279.944672,463.188660 276.512970,465.272583 281.104065,467.898590 
M265.520844,594.175659 
	C268.587189,589.573181 267.864716,587.018982 262.086945,582.503357 
	C259.082001,585.404724 260.184998,588.911804 260.762695,592.218811 
	C261.138397,594.369690 262.698547,595.199402 265.520844,594.175659 
M345.216888,344.220398 
	C343.373077,343.730743 342.107910,341.650085 339.608246,342.251587 
	C338.847992,344.532684 339.374268,346.733704 340.085968,348.941895 
	C340.659332,350.720856 341.246155,352.631653 343.503265,352.624542 
	C345.577118,352.618042 346.641785,350.916412 347.472626,349.281250 
	C348.523376,347.213287 348.308807,345.424927 345.216888,344.220398 
M304.578644,347.335419 
	C304.482941,345.544006 306.291718,343.561859 304.091370,341.945068 
	C301.792450,342.117279 300.182190,343.686035 298.307007,344.624969 
	C295.460693,346.050171 295.933746,348.224030 297.517609,350.338623 
	C300.162964,353.870392 301.995544,353.247955 304.578644,347.335419 
M275.854309,533.630371 
	C274.877411,532.781006 274.024902,531.477600 272.899750,531.169312 
	C269.794342,530.318604 267.719482,532.573364 265.805603,534.450928 
	C264.949280,535.291077 265.057068,537.005005 266.080139,538.077942 
	C267.897461,539.983643 275.353455,537.101990 275.854309,533.630371 
M334.280304,319.086578 
	C335.156372,317.055878 334.179047,315.593628 332.735779,314.352661 
	C330.455872,312.392273 328.441803,313.925629 326.425323,314.958405 
	C324.737701,315.822815 324.018341,317.322815 324.546326,319.064087 
	C325.358063,321.741028 327.704681,320.890564 329.532593,320.740540 
	C330.963745,320.623077 332.354004,320.006714 334.280304,319.086578 
M271.167419,570.329956 
	C270.201904,569.452271 269.313995,568.462585 268.250549,567.726379 
	C267.023376,566.876770 265.651031,567.091919 264.686859,568.179321 
	C263.096436,569.972900 262.409882,572.214966 262.819061,574.541992 
	C263.061920,575.923157 264.597870,576.954163 265.813049,576.467957 
	C268.366577,575.446472 271.759277,574.957458 271.167419,570.329956 
M317.162231,314.432159 
	C314.802704,313.404510 312.346100,312.404266 310.719757,315.408722 
	C309.792450,317.121796 309.730896,319.139832 311.850311,320.070435 
	C314.115265,321.064911 316.878784,321.904846 318.864075,320.071014 
	C320.725555,318.351471 320.177826,316.164917 317.162231,314.432159 
M379.891663,576.234436 
	C382.203674,573.053406 381.866058,569.461243 378.999817,567.897400 
	C376.118195,566.325195 374.663666,568.716309 373.371216,570.438293 
	C371.483948,572.952698 373.715820,575.199646 379.891663,576.234436 
M332.372955,534.247009 
	C330.861938,532.865967 328.920441,532.400085 327.062897,531.762146 
	C325.911011,531.366516 324.768402,531.198669 324.076477,532.527710 
	C323.525330,533.586304 324.074463,534.466858 324.774109,535.182373 
	C327.137085,537.599121 329.456543,540.102234 332.908905,541.278076 
	C334.021240,538.807007 333.922913,536.799683 332.372955,534.247009 
M269.923309,358.928528 
	C266.622498,357.713043 265.659027,359.608887 266.708130,362.077148 
	C267.973358,365.054016 271.379517,364.859924 274.072754,365.241669 
	C276.521271,365.588715 278.055176,364.272919 278.284088,361.310364 
	C275.639709,360.571533 273.139587,359.872986 269.923309,358.928528 
M347.326263,494.824493 
	C346.259857,497.264496 345.805878,499.609070 348.267029,501.569153 
	C348.959076,502.120300 349.712524,502.580658 350.512268,502.035156 
	C352.980896,500.351166 352.685913,497.729797 352.593872,495.249847 
	C352.516357,493.160919 351.893921,491.338837 349.575562,490.799530 
	C347.978546,491.439270 347.990326,492.934967 347.326263,494.824493 
M303.972595,622.166382 
	C304.273438,620.116333 305.542694,618.078979 304.106537,615.942627 
	C302.007172,615.691589 300.761871,617.307922 299.166534,618.064331 
	C297.555542,618.828186 296.290405,619.938477 297.086151,621.972900 
	C297.760132,623.695923 298.617981,625.481323 300.575745,625.938477 
	C302.970490,626.497803 302.923798,624.144897 303.972595,622.166382 
M372.083435,530.282471 
	C370.372345,531.733704 367.308167,533.226807 368.725281,535.562988 
	C370.423584,538.362610 374.123352,537.950256 377.467621,538.109680 
	C378.794067,533.425659 375.565155,531.857300 372.083435,530.282471 
M359.531586,471.675598 
	C358.893219,471.514069 358.263336,471.286499 357.614899,471.203339 
	C355.649292,470.951233 353.855621,471.246002 353.429504,473.560852 
	C353.051331,475.615082 353.284729,477.808624 355.627045,478.441528 
	C358.039093,479.093231 360.271393,477.826691 361.799591,476.087341 
	C363.481384,474.173279 362.163330,472.803894 359.531586,471.675598 
M292.043884,499.390961 
	C293.443848,502.609100 295.437469,502.223602 297.356628,500.044861 
	C299.660095,497.429718 296.578552,495.136505 296.572968,492.598907 
	C296.570557,491.497498 295.323029,491.036469 294.266327,491.388611 
	C291.942993,492.162781 291.944397,494.413513 291.500305,496.284424 
	C291.322510,497.033478 291.653687,497.903320 292.043884,499.390961 
M374.100983,358.950806 
	C372.188843,359.461487 370.258759,359.914154 368.369843,360.499756 
	C366.613434,361.044281 365.746765,362.268188 367.103912,363.819397 
	C368.594269,365.522766 370.777527,365.132446 372.708618,364.735352 
	C374.599548,364.346497 376.893890,364.157104 377.476898,361.812500 
	C377.971985,359.821289 377.707947,357.990845 374.100983,358.950806 
M318.052643,536.541504 
	C319.177979,535.201782 321.024658,534.210205 320.217468,531.680359 
	C317.273621,531.053711 314.689636,532.446716 312.498322,533.980286 
	C310.715454,535.228027 309.772858,537.993408 311.181152,539.746094 
	C312.990387,541.997803 314.610168,539.567566 316.078888,538.395569 
	C316.597839,537.981506 317.049896,537.483643 318.052643,536.541504 
M271.349945,455.772064 
	C269.567383,459.159607 271.357788,461.566986 273.861053,464.737183 
	C275.290680,461.444946 279.234070,459.870575 278.021515,456.352753 
	C277.132263,453.772705 274.188965,454.440765 271.349945,455.772064 
M373.455780,505.079742 
	C374.973389,503.346985 376.160858,501.643707 373.778900,499.622894 
	C372.504822,498.542023 371.109680,497.744049 369.898743,499.234497 
	C367.588165,502.078369 367.831940,505.168243 369.412201,508.211639 
	C371.590790,508.309082 372.155731,506.748779 373.455780,505.079742 
M344.721436,617.969177 
	C343.289307,617.469604 341.553070,615.707947 340.480194,617.901184 
	C339.350189,620.211060 339.706055,622.859253 341.637360,624.754639 
	C343.476349,626.559326 345.404541,625.632996 346.710632,623.928223 
	C348.450928,621.656616 347.981964,619.644165 344.721436,617.969177 
M290.570221,476.777710 
	C290.646118,476.121002 290.795288,475.463135 290.784760,474.807800 
	C290.746246,472.403107 289.571259,471.040314 287.083832,471.174316 
	C285.025604,471.285187 282.854553,471.687988 282.523743,474.146271 
	C282.187775,476.642548 284.277161,477.480530 286.187439,478.177094 
	C287.647614,478.709564 289.121918,478.922882 290.570221,476.777710 
M361.896820,364.474854 
	C360.397888,363.062195 358.863373,362.974884 357.716217,364.761230 
	C356.336700,366.909393 353.092438,368.457184 354.942810,371.898621 
	C361.161835,370.892029 363.343689,368.800751 361.896820,364.474854 
M288.827820,367.392853 
	C287.134735,366.106384 286.747528,362.821381 283.695679,363.698822 
	C282.275055,364.107239 280.835449,365.567841 281.424194,367.060242 
	C282.728882,370.367218 285.833710,371.517181 288.929321,372.429871 
	C290.574310,370.833466 290.415588,369.384735 288.827820,367.392853 
M397.714417,567.123657 
	C395.071289,569.803101 396.702301,572.402344 398.665527,573.963074 
	C401.060699,575.867126 402.309875,572.887573 403.746490,571.530151 
	C404.632874,570.692627 405.015350,569.441833 404.091980,568.394653 
	C402.557892,566.655029 400.643066,565.871033 397.714417,567.123657 
M265.378601,373.177521 
	C269.179108,374.164612 271.721924,373.306030 272.070892,368.749390 
	C270.082031,368.260498 268.360107,367.750763 266.603607,367.431122 
	C265.015930,367.142242 263.568848,367.686768 262.841492,369.155670 
	C261.893951,371.069153 262.907715,372.253784 265.378601,373.177521 
M380.674072,367.846436 
	C378.487488,366.637848 376.464874,367.479889 374.513977,368.437805 
	C371.686676,369.825958 372.575836,371.691437 374.373871,373.027985 
	C376.105713,374.315338 378.228516,373.733124 380.074402,372.906708 
	C382.263855,371.926422 382.233612,370.224396 380.674072,367.846436 
M372.211853,462.288879 
	C373.247101,459.937012 375.049225,457.459015 371.923584,455.404266 
	C370.528259,454.486938 368.797058,454.431488 367.261230,455.414551 
	C366.081909,456.169434 365.942291,457.442535 366.523682,458.443939 
	C367.717651,460.500549 368.089264,463.747284 372.211853,462.288879 
M246.257446,573.270508 
	C246.437668,572.814331 246.629837,572.362488 246.796005,571.901245 
	C247.492294,569.968567 248.059540,568.088562 245.582230,566.893677 
	C243.588791,565.932251 242.100296,566.912415 240.705368,568.110657 
	C239.534470,569.116516 239.259094,570.588379 240.427277,571.535217 
	C241.991898,572.803406 242.753922,576.542297 246.257446,573.270508 
M333.677002,590.639526 
	C332.966797,587.680237 330.698242,587.911621 328.603027,588.412476 
	C326.234406,588.978760 324.494965,590.307373 325.039154,593.467041 
	C328.225342,593.621460 331.593903,595.567017 333.677002,590.639526 
M274.699341,506.475983 
	C275.773132,505.223969 275.621399,503.706116 275.632660,502.219208 
	C275.643738,500.763794 275.156677,499.636139 273.694763,499.096130 
	C272.186340,498.538940 271.157471,499.246887 270.262207,500.357544 
	C269.325226,501.519989 269.041321,502.775757 270.074341,503.962250 
	C271.193695,505.247894 271.784637,507.375244 274.699341,506.475983 
M364.993805,485.499695 
	C366.367096,484.024231 367.169373,482.397400 365.265137,480.864838 
	C364.011566,479.855957 362.444611,480.045624 361.122314,480.954163 
	C360.010345,481.718170 358.879700,482.818665 359.623047,484.210846 
	C360.619019,486.076202 362.197845,487.233246 364.993805,485.499695 
M261.004883,361.791901 
	C264.640320,359.215485 264.387299,354.864838 260.250610,351.970245 
	C257.929016,355.201294 259.816620,358.239655 261.004883,361.791901 
M370.331573,486.840698 
	C367.123199,487.519562 366.162415,489.797119 366.447876,492.694275 
	C366.573395,493.968445 367.794250,494.949219 368.995514,494.353607 
	C371.885834,492.920593 372.103485,490.362946 371.189667,487.566711 
	C371.141632,487.419647 370.985352,487.307983 370.331573,486.840698 
M281.391266,487.028259 
	C283.906036,485.945160 286.633850,484.768707 283.714020,481.598389 
	C282.555908,480.340912 280.338562,479.379669 278.977570,481.234192 
	C277.265137,483.567596 278.666229,485.483734 281.391266,487.028259 
M272.805542,488.599609 
	C272.787354,489.394531 272.554169,490.262085 272.793365,490.970032 
	C273.388733,492.731964 273.647827,495.243378 276.472321,494.383118 
	C278.246246,493.842804 278.271881,491.997009 277.607422,490.667877 
	C276.749878,488.952423 276.457153,485.631073 272.805542,488.599609 
M276.511414,375.451263 
	C278.689362,375.589142 280.974823,376.237946 283.198273,374.165894 
	C280.848511,372.471100 279.321869,369.668274 276.280731,371.245056 
	C274.995178,371.911560 273.664764,373.651459 276.511414,375.451263 
M314.100586,397.218719 
	C313.452332,400.304993 316.234924,400.942902 317.879181,402.280884 
	C318.682098,402.934174 319.919800,402.512329 320.243408,401.369751 
	C320.776947,399.485931 319.249512,398.369080 318.262543,397.135803 
	C317.188416,395.793610 315.939606,394.527832 314.100586,397.218719 
M315.724121,593.683044 
	C317.520660,593.751526 319.184265,593.381348 319.217194,591.226135 
	C319.244904,589.411316 317.540985,588.952576 316.165253,588.509216 
	C314.789825,588.065918 313.468231,588.375427 312.914337,589.868469 
	C312.178558,591.851807 313.295410,592.933105 315.724121,593.683044 
M368.968597,372.303864 
	C365.065186,367.887909 364.251801,372.030762 362.238464,374.277771 
	C367.178192,376.237488 367.309937,376.204376 368.968597,372.303864 
M381.653015,360.664459 
	C385.084473,359.928711 386.005890,354.896912 383.243713,351.062531 
	C380.814117,353.765167 381.993317,357.090454 381.653015,360.664459 
M263.425873,462.873901 
	C263.224243,464.639557 263.290253,466.316681 265.561462,466.581696 
	C266.973358,466.746429 267.725433,465.847778 267.779022,464.509094 
	C267.851532,462.697601 268.044403,460.559113 266.006714,459.786163 
	C264.196381,459.099487 264.107330,461.064636 263.425873,462.873901 
M274.540344,340.015747 
	C275.136688,343.449371 277.017700,344.765869 281.675232,344.317566 
	C278.974915,341.615784 278.727112,338.025085 274.540344,340.015747 
M269.790100,476.723267 
	C268.452850,474.486420 267.128052,475.585968 265.906464,476.803650 
	C265.105316,477.602203 264.268616,478.560303 264.985443,479.795807 
	C265.652069,480.944763 266.882172,480.955353 268.021790,480.818237 
	C270.179840,480.558502 270.683167,479.262970 269.790100,476.723267 
M355.065887,346.651031 
	C354.110138,348.013794 353.606567,349.539642 355.462646,350.357361 
	C356.994324,351.032166 358.265778,349.785370 359.409180,348.827301 
	C360.096100,348.251740 360.469635,347.444366 359.981262,346.625885 
	C358.723053,344.517334 357.144775,345.760437 355.065887,346.651031 
M327.650604,400.857117 
	C329.074066,399.312225 330.756744,397.798950 328.481049,395.665009 
	C326.016663,396.258850 325.536316,398.370605 324.485474,399.940552 
	C324.000793,400.664703 323.874146,401.539673 324.725830,402.099030 
	C325.801666,402.805695 326.537109,402.058167 327.650604,400.857117 
M366.356171,344.368652 
	C368.295654,342.860474 371.048401,341.648254 368.730072,338.344360 
	C364.271423,341.306122 363.738892,342.496246 366.356171,344.368652 
M288.907410,349.999939 
	C290.835663,347.426270 288.998840,346.500183 286.990356,345.719238 
	C285.782104,345.249420 284.544403,345.352905 284.075745,346.728302 
	C283.218323,349.244659 285.696960,349.122711 286.898254,349.965149 
	C287.263550,350.221344 287.846863,350.166687 288.907410,349.999939 
M377.664642,466.366669 
	C380.964050,464.782074 381.029327,464.228088 378.128448,460.332062 
	C376.366882,462.063873 375.705688,463.805450 377.664642,466.366669 
M328.987427,309.495239 
	C330.085266,307.883148 329.986633,306.396301 327.811768,306.388641 
	C325.291138,306.379730 324.129395,307.998993 324.292725,310.468933 
	C326.062164,311.119019 327.241486,310.508240 328.987427,309.495239 
M315.107910,309.001434 
	C316.482727,310.212708 317.892853,311.261139 319.891998,310.220581 
	C319.685730,308.351959 319.608612,306.387726 317.805298,305.863342 
	C316.087921,305.363922 315.115326,306.701874 315.107910,309.001434 
M372.127472,605.691284 
	C375.405914,606.516357 376.673004,604.877502 375.709900,600.774719 
	C373.714233,601.609680 372.411407,602.887878 372.127472,605.691284 
M270.688934,602.109314 
	C268.503326,601.289734 267.915497,602.370972 268.449799,604.224182 
	C268.821228,605.512512 269.954468,606.806213 271.322906,606.168945 
	C273.578278,605.118652 272.627350,603.651062 270.688934,602.109314 
M374.497345,478.534027 
	C374.834259,480.427185 376.066406,481.115692 377.703430,480.375061 
	C379.105652,479.740692 378.711731,478.409454 377.942932,477.459076 
	C376.680695,475.898834 375.478546,476.035095 374.497345,478.534027 
z"/>
</svg>