<svg version="1.1" id="Layer_1" xmlns="http://www.w3.org/2000/svg" xmlns:xlink="http://www.w3.org/1999/xlink" x="0px" y="0px"
	 width="100%" viewBox="0 0 896 1024" enable-background="new 0 0 896 1024" xml:space="preserve">
<path fill="#000000" opacity="1.000000" stroke="none" 
	d="
M498.999939,947.283203 
	C441.338409,947.284729 384.174530,946.989319 327.016815,947.455139 
	C307.992554,947.610168 303.909973,939.037415 305.882233,923.332886 
	C309.846466,891.767639 326.027069,868.493225 354.473785,854.028015 
	C364.991669,848.679749 376.327515,845.991943 388.056519,845.143494 
	C391.653473,844.883301 392.912292,843.491760 392.901520,839.898071 
	C392.809967,809.401123 392.826538,778.903748 392.907806,748.406677 
	C392.915985,745.331848 391.790771,743.618225 389.033356,742.217224 
	C348.155060,721.449097 324.477356,687.811218 319.176697,642.764099 
	C313.874542,597.704651 329.511902,559.643250 363.953796,529.670044 
	C364.954865,528.798889 365.983063,527.957764 366.957184,527.057861 
	C367.174225,526.857422 367.216034,526.467224 367.291931,526.279541 
	C335.567108,478.748138 339.097900,433.881470 377.227203,391.129883 
	C371.671387,385.602661 366.392914,379.626038 362.046753,372.900116 
	C335.420563,331.694611 342.299194,278.995148 378.888580,245.676880 
	C382.344910,242.529526 382.442200,240.650848 379.956390,236.814774 
	C368.510071,219.150528 362.639496,199.622971 360.554932,178.666229 
	C357.669952,149.662567 368.093964,125.460762 386.083405,103.772537 
	C399.149963,88.019402 414.567871,74.853561 431.405548,63.263378 
	C438.800934,58.172768 445.638855,58.239742 453.043518,63.416431 
	C472.017914,76.681755 489.081787,91.863434 503.146637,110.382362 
	C523.893250,137.699036 528.788574,167.781143 519.960999,200.600189 
	C516.381165,213.909271 511.528961,226.598404 503.549225,237.883728 
	C501.239471,241.150314 502.026367,242.900345 504.721405,245.266403 
	C521.996338,260.432648 532.626892,279.356354 536.475037,302.080170 
	C541.836365,333.739746 533.166321,361.304810 512.373718,385.377136 
	C511.720978,386.132843 511.070984,386.923035 510.289856,387.530121 
	C506.863403,390.193207 507.007721,392.438477 510.179413,395.559479 
	C519.686951,404.915161 526.856201,415.970825 531.409729,428.492645 
	C543.550354,461.878662 539.426392,493.254120 519.109009,522.453186 
	C518.269470,523.659790 517.028809,524.661987 516.989624,526.663330 
	C522.671570,532.153076 529.068726,537.207031 534.395264,543.420044 
	C550.869202,562.635559 561.165283,584.543030 564.543396,609.726501 
	C569.525391,646.866150 560.409546,680.085205 536.953674,709.221191 
	C525.742981,723.146667 512.002808,734.192749 495.847534,741.994751 
	C492.570221,743.577454 491.180298,745.394348 491.197937,749.150391 
	C491.338654,779.146973 491.353760,809.145020 491.174988,839.141235 
	C491.149597,843.407654 492.430237,844.951172 496.686737,845.292175 
	C519.852905,847.148193 539.891052,855.995605 555.742859,873.217773 
	C570.395264,889.136841 578.180176,908.111206 578.980347,929.755310 
	C579.395569,940.986511 573.168762,947.233887 561.993164,947.270264 
	C541.162292,947.338196 520.331055,947.285645 498.999939,947.283203 
M406.512787,407.032776 
	C403.521759,409.418945 400.327545,411.592316 397.570953,414.224060 
	C367.989258,442.466461 368.846252,487.996735 399.410522,515.783142 
	C409.986816,525.398193 408.899445,536.132446 396.595947,543.301392 
	C389.073792,547.684387 382.102753,552.800842 375.950745,558.965698 
	C341.940735,593.046021 338.589447,649.229919 368.362823,687.990784 
	C394.846893,722.469421 437.153046,733.376282 474.235291,718.997986 
	C536.385071,694.899963 556.127502,616.270264 513.506226,565.021912 
	C505.849060,555.814819 496.698273,548.494141 486.322205,542.535706 
	C475.903961,536.553162 474.714752,525.529602 483.315643,517.155029 
	C484.747772,515.760498 486.278961,514.466980 487.695923,513.057922 
	C501.640289,499.191193 508.868683,482.421936 508.221252,462.754364 
	C507.377472,437.118622 495.483856,417.746429 473.588806,404.446655 
	C468.946320,401.626648 466.753662,397.418701 466.638245,391.963348 
	C466.487366,384.834137 470.645721,380.826935 476.210388,377.365997 
	C506.144440,358.748260 516.957581,319.807129 501.079468,288.323181 
	C494.658051,275.590393 485.175323,265.878510 472.656372,259.030548 
	C461.684113,253.028656 459.918915,241.817291 468.683899,233.440109 
	C481.554474,221.138977 488.896667,205.987350 492.505096,188.765518 
	C496.169312,171.277710 495.624176,154.450500 486.208740,138.528336 
	C475.574738,120.545425 460.878448,106.483521 444.564636,93.845154 
	C442.213470,92.023689 440.664917,93.160713 438.860474,94.511230 
	C429.898132,101.219124 421.596344,108.670967 414.042084,116.918434 
	C395.884827,136.741745 384.667603,158.745499 391.270813,186.801926 
	C395.194519,203.473389 400.530579,219.626801 413.642944,231.097488 
	C423.290558,239.537201 423.219452,253.496063 410.113190,260.253967 
	C385.037109,273.183777 371.646851,303.900970 377.100250,331.464752 
	C381.157196,351.970276 392.005798,367.471741 409.666412,378.375763 
	C413.499420,380.742340 416.345673,383.771332 417.457336,388.298309 
	C419.290527,395.763489 416.363678,401.052155 406.512787,407.032776 
M489.470245,875.062805 
	C456.490784,875.086487 423.509674,874.917847 390.532532,875.205688 
	C370.691589,875.378845 355.589203,884.882080 344.466858,900.886780 
	C341.128235,905.691101 338.303589,910.950256 337.562531,916.861511 
	C339.846680,918.044373 341.713409,917.677673 343.510712,917.678284 
	C409.303619,917.701965 475.096558,917.703064 540.889465,917.697510 
	C547.250000,917.697021 547.609497,917.103699 545.293762,911.187134 
	C537.823303,892.100220 517.482544,874.187134 489.470245,875.062805 
M461.712433,792.500000 
	C461.705902,781.018005 461.610107,769.534912 461.744507,758.054565 
	C461.787598,754.374207 460.785187,752.923279 456.817413,753.618835 
	C447.257690,755.294678 437.623199,755.487122 428.057281,753.621887 
	C424.151306,752.860229 423.038239,754.372620 423.047089,758.049011 
	C423.112854,785.339050 423.101746,812.629395 423.022034,839.919373 
	C423.011627,843.483276 424.258148,845.021606 427.971771,844.962158 
	C437.454407,844.810242 446.944702,844.765076 456.424622,844.988525 
	C460.626953,845.087646 461.831055,843.455017 461.784790,839.427124 
	C461.609009,824.119812 461.712616,808.809326 461.712433,792.500000 
z"/>
</svg>