<?xml version="1.0" encoding="utf-8"?>
<!-- Uploaded to: SVG Repo, www.svgrepo.com, Generator: SVG Repo Mixer Tools -->
<svg version="1.1" id="Uploaded to svgrepo.com" xmlns="http://www.w3.org/2000/svg" xmlns:xlink="http://www.w3.org/1999/xlink" 
	 width="800px" height="800px" viewBox="0 0 32 32" xml:space="preserve">
<style type="text/css">
	.flatshadows_een{fill:#FDFFFF;}
	.flatshadows_twee{fill:#E1E5E5;}
	.flatshadows_vier{fill:#A3AFAF;}
	.flatshadows_vijf{fill:#8D9999;}
	.st0{fill:none;}
	.st1{fill:#C4CCCC;}
	.st2{fill:#737F7F;}
	.st3{fill:#FDFFFF;}
	.st4{fill:#E1E5E5;}
	.st5{fill:#A3AFAF;}
	.st6{fill:#FFFFFF;}
</style>
<g>
	<path class="flatshadows_een" d="M12,2c5.514,0,10,4.486,10,10s-4.486,10-10,10S2,17.514,2,12S6.486,2,12,2"/>
	<path class="flatshadows_twee" d="M12,2C9.243,2,6.743,3.122,4.932,4.932l14.135,14.135C20.878,17.257,22,14.757,22,12
		C22,6.486,17.514,2,12,2z"/>
	<path class="flatshadows_vier" d="M12,2c5.514,0,10,4.486,10,10s-4.486,10-10,10S2,17.514,2,12S6.486,2,12,2 M12,0
		C5.373,0,0,5.373,0,12s5.373,12,12,12s12-5.373,12-12S18.627,0,12,0L12,0z M29,32l3-3l-8-8l-3,3L29,32z M15,12H9v-1h6V12z M15,13H9
		v1h6V13z M15,9H9v1h6V9z"/>
	<path class="flatshadows_vijf" d="M15,10h-5L9,9h6V10z M15,11h-4l1,1h3V11z M15,13h-2l1,1h1V13z M19.961,20.961L22,23l1-1
		l-2.039-2.039C20.648,20.314,20.314,20.648,19.961,20.961z"/>
</g>
</svg>