<?xml version="1.0" encoding="iso-8859-1"?>
<!-- Uploaded to: SVG Repo, www.svgrepo.com, Generator: SVG Repo Mixer Tools -->
<svg fill="#000000" version="1.1" id="Layer_1" xmlns="http://www.w3.org/2000/svg" xmlns:xlink="http://www.w3.org/1999/xlink" 
	 viewBox="0 0 490.16 490.16" xml:space="preserve">
<g>
	<g>
		<g>
			<path d="M201.268,203.356c-12.126-0.25-23.619-7.341-34.164-20.892c-13.499-17.351-28.649-26.522-45.026-26.876
				c-12.352-0.321-23.289,4.405-31.786,9.972c-1.076,6.932-1.94,13.89-2.616,20.852c5.819-6.324,18.54-18.252,33.416-18.252
				c0.216,0,0.436,0,0.656,0c11.556,0,22.761,6.503,33.303,20.054c13.536,17.395,29.014,25.946,46.007,25.946
				c0.302,0,0.597,0,0.899,0c14.702,0,27.524-6.017,36.689-12.058c-0.304-5.148-0.706-10.304-1.211-15.458
				C230.784,192.85,216.96,203.61,201.268,203.356z"/>
			<path d="M325.736,228.014c0,1.629,0.127,2.748,0.171,3.099l15.21-0.977c0-0.917-0.03-1.808-0.09-2.674
				c0.082-2.178,0.612-5.944,3.114-8.826c2.651-3.054,7.193-4.71,13.499-4.915l-0.5-15.266c-10.672,0.35-18.887,3.733-24.432,10.053
				c-7.667-7.543-18.872-10.027-26.143-10.057l-0.06,15.274C308.393,213.733,324.278,214.218,325.736,228.014z"/>
			<path d="M395.563,282.322c0,1.633,0.127,2.752,0.172,3.106l15.21-0.977c0-0.94-0.03-1.857-0.093-2.748
				c0.086-2.137,0.619-5.813,3.05-8.67c2.64-3.11,7.208-4.792,13.57-5l-0.5-15.266c-10.672,0.351-18.887,3.733-24.435,10.057
				c-7.663-7.547-18.868-10.031-26.14-10.061l-0.101,15.273C379.38,268.081,394.161,268.999,395.563,282.322z"/>
			<rect x="149.58" y="307.16" width="14" height="24"/>
			<path d="M353.831,429.161v-0.001c2.419-9.689,3.653-19.657,3.653-29.759c0-60.817-45.559-112.705-105.013-121.279
				c-0.501,5.13-1.064,10.194-1.681,15.186c51.795,7.72,91.421,53.022,91.421,106.093c0,10.146-1.424,20.127-4.2,29.759H218.976
				c7.271-20.217,23.931-72.061,31.814-135.852c0.617-4.993,1.18-10.056,1.681-15.186c0.063-0.65,0.133-1.293,0.194-1.944
				c11.231-119.283-18.219-213.116-85.171-271.901L162.456,0l-5.038,4.496c-66.956,58.79-96.295,152.37-84.84,271.661
				c6.865,71.527,26.026,131.004,33.991,153.004H50.58v15h389v-15H353.831z M163.58,429.159V345.16h-14v84h-26.745
				c-8.002-19.371-45.952-131.471-35.16-242.749c0.675-6.962,1.54-13.92,2.616-20.852c8.361-53.865,29.4-106.154,72.166-146.118
				c48.333,45.163,68.989,106.068,74.978,167.202c0.505,5.154,0.907,10.31,1.211,15.458
				c6.257,105.922-28.332,208.598-35.922,227.058H163.58z"/>
			<rect x="118.58" y="474.16" width="200" height="16"/>
			<rect x="340.58" y="474.16" width="46" height="16"/>
		</g>
	</g>
</g>
</svg>