<svg version="1.1" id="Layer_1" xmlns="http://www.w3.org/2000/svg" xmlns:xlink="http://www.w3.org/1999/xlink" x="0px" y="0px"
	 width="100%" viewBox="0 0 1276 784" enable-background="new 0 0 1276 784" xml:space="preserve">
<path fill="#000000" opacity="1.000000" stroke="none" 
	d="
M796.000000,785.000000 
	C530.698730,785.000000 265.897491,785.000000 1.048114,785.000000 
	C1.048114,523.730408 1.048114,262.460785 1.048114,1.095591 
	C426.218079,1.095591 851.436218,1.095591 1276.827148,1.095591 
	C1276.827148,262.333252 1276.827148,523.666626 1276.827148,785.000000 
	C1116.793823,785.000000 956.646912,785.000000 796.000000,785.000000 
M695.833008,618.834595 
	C695.833008,618.834595 695.532532,618.550232 695.374634,617.683289 
	C695.435242,614.685120 695.547729,611.687012 695.548584,608.688843 
	C695.560486,568.525696 695.556763,528.362610 695.556946,488.199463 
	C695.556946,485.912750 695.557007,483.626038 695.557007,481.192535 
	C676.575134,481.192535 657.987366,481.192535 639.322388,481.192535 
	C639.322388,562.088745 639.322388,642.788818 639.322388,723.333008 
	C658.197815,723.333008 676.745544,723.333008 695.657837,723.333008 
	C695.657837,697.682129 695.657837,672.413940 695.657837,646.291565 
	C711.979065,671.416199 727.866882,695.693787 743.478882,720.147461 
	C745.311890,723.018616 747.145691,723.754456 750.219727,723.738770 
	C769.217529,723.641724 788.216125,723.700195 807.214417,723.694031 
	C808.418640,723.693665 809.622925,723.584778 810.905090,723.522644 
	C810.729431,722.768860 810.740601,722.399414 810.572144,722.152649 
	C790.454712,692.685181 770.363159,663.199707 750.122681,633.816956 
	C748.416992,631.340820 748.905334,629.994507 750.466797,627.805847 
	C764.041748,608.778259 777.480835,589.653503 790.925415,570.533142 
	C796.067444,563.220398 801.119019,555.844055 806.558167,547.996887 
	C785.928345,547.996887 766.118286,547.922058 746.311340,548.136658 
	C744.697998,548.154114 742.591736,549.799377 741.586243,551.280212 
	C734.095703,562.311218 726.880920,573.528809 719.470520,584.614990 
	C711.752197,596.161865 703.911743,607.627075 695.833008,618.834595 
M266.048004,605.500000 
	C266.048004,644.764587 266.048004,684.029175 266.048004,723.452271 
	C284.977448,723.452271 303.374573,723.452271 322.001343,723.452271 
	C322.001343,710.870422 321.894073,698.559021 322.025360,686.250183 
	C322.247223,665.452698 322.152222,644.636108 323.068115,623.866272 
	C323.894409,605.127380 340.098541,595.410583 358.724670,599.831970 
	C366.710571,601.727661 372.714691,606.292480 375.441833,613.847778 
	C377.474121,619.478027 378.775024,625.687439 378.845459,631.657227 
	C379.185577,660.480347 378.998657,689.309631 378.998657,718.136780 
	C378.998657,719.905579 378.998657,721.674316 378.998657,723.428894 
	C397.978851,723.428894 416.377899,723.428894 435.001343,723.428894 
	C435.001343,695.328979 435.104279,667.513550 434.956207,639.699463 
	C434.886322,626.574341 434.973419,613.395996 433.830902,600.343079 
	C432.569519,585.932312 426.537506,573.183350 416.821198,562.334229 
	C398.274384,541.625061 363.388611,538.753113 340.248688,550.494263 
	C333.804810,553.763855 328.202759,558.692566 321.940491,563.050842 
	C321.940491,535.853760 321.940491,508.512115 321.940491,481.293884 
	C303.040527,481.293884 284.632477,481.293884 266.048004,481.293884 
	C266.048004,522.559204 266.048004,563.529602 266.048004,605.500000 
M508.959930,681.500000 
	C508.974030,662.676025 508.746948,643.847473 509.105560,625.030029 
	C509.280640,615.844971 513.119934,607.865723 521.218018,603.013000 
	C531.233643,597.010986 541.932983,596.891968 552.026367,602.625854 
	C561.490540,608.002258 564.962524,617.168396 564.980103,627.704285 
	C565.030396,657.856079 564.997864,688.007935 564.997864,718.159790 
	C564.997864,719.921021 564.997864,721.682190 564.997864,723.401489 
	C584.195740,723.401489 602.757690,723.401489 621.715759,723.401489 
	C621.715759,721.631836 621.715759,720.166443 621.715698,718.701050 
	C621.714478,686.217041 621.824402,653.732361 621.633606,621.249512 
	C621.586060,613.148621 621.208130,604.944458 619.849976,596.980835 
	C617.726196,584.528198 612.672607,573.181213 604.119568,563.614685 
	C591.540405,549.545044 575.545959,543.741882 556.985779,543.774414 
	C543.133057,543.798767 530.238831,546.854492 518.864319,555.018372 
	C515.511353,557.424866 512.477966,560.276428 508.736511,563.391663 
	C508.736511,557.783569 508.736511,553.013550 508.736511,548.231018 
	C490.048035,548.231018 471.636841,548.231018 453.304199,548.231018 
	C453.304199,606.812500 453.304199,665.160339 453.304199,723.343140 
	C472.022583,723.343140 490.404083,723.343140 508.959930,723.343140 
	C508.959930,709.473145 508.959930,695.986572 508.959930,681.500000 
M141.070221,660.500000 
	C141.070221,681.434937 141.070221,702.369812 141.070221,723.512512 
	C161.039825,723.512512 180.451538,723.512512 200.328217,723.512512 
	C200.328217,661.298462 200.328217,599.265686 200.328217,536.838928 
	C219.551819,536.838928 238.313934,536.838928 257.013489,536.838928 
	C257.013489,518.049133 257.013489,499.655884 257.013489,481.233154 
	C199.337265,481.233154 141.915421,481.233154 84.418053,481.233154 
	C84.418053,499.862885 84.418053,518.257019 84.418053,537.108093 
	C103.432312,537.108093 122.170624,537.108093 141.070221,537.108093 
	C141.070221,578.211243 141.070221,618.855652 141.070221,660.500000 
M1136.466919,416.967102 
	C1141.655640,411.141235 1147.097656,405.519806 1151.991333,399.455780 
	C1180.098633,364.625671 1194.730469,324.595886 1196.900146,280.064484 
	C1197.960815,258.295593 1195.205200,236.837677 1189.029297,215.869034 
	C1173.755127,164.009247 1142.850464,124.130409 1096.583618,96.381676 
	C1063.437866,76.502266 1027.163452,67.890678 988.608215,67.946266 
	C904.111267,68.068100 819.613953,68.003891 735.116821,67.969818 
	C714.354553,67.961449 693.954102,70.219414 673.896729,75.913750 
	C629.572144,88.497589 593.649048,113.387573 566.133423,150.053268 
	C540.666443,183.989090 527.174377,222.344498 525.830322,265.003052 
	C524.966003,292.435150 529.070129,318.878021 539.001282,344.399658 
	C540.317139,347.781189 539.656799,349.080750 536.731445,351.015411 
	C510.709900,368.224609 498.700195,398.959076 506.044495,428.849762 
	C518.294617,478.706696 577.716980,500.154175 619.089600,469.441223 
	C625.366821,464.781372 630.622192,458.744995 636.451172,453.250122 
	C637.666687,453.917603 639.204468,454.863312 640.824524,455.636688 
	C669.377014,469.266968 699.547729,475.908447 731.117981,475.943909 
	C817.948242,476.041504 904.779480,476.157532 991.608398,475.794556 
	C1005.619995,475.735962 1019.856934,474.434387 1033.582886,471.679871 
	C1072.937012,463.782379 1107.088013,445.457916 1136.466919,416.967102 
M851.500000,665.999939 
	C859.264648,665.999939 867.029297,665.999939 874.712524,665.999939 
	C874.712524,650.687683 874.712524,635.950989 874.712524,621.286987 
	C856.021240,621.286987 837.618774,621.286987 819.287476,621.286987 
	C819.287476,636.312195 819.287476,651.048889 819.287476,665.999939 
	C829.882324,665.999939 840.191162,665.999939 851.500000,665.999939 
M869.392700,592.942627 
	C871.166504,592.942627 872.940308,592.942627 874.740234,592.942627 
	C874.740234,577.729614 874.740234,562.999268 874.740234,548.253113 
	C856.079834,548.253113 837.681213,548.253113 819.265625,548.253113 
	C819.265625,563.238525 819.265625,577.968262 819.265625,592.942200 
	C835.826416,592.942200 852.121826,592.942200 869.392700,592.942627 
M495.284180,459.993927 
	C481.128326,455.500793 468.344879,457.868988 457.966278,468.661774 
	C448.276855,478.737823 445.602234,490.821228 449.975800,504.298798 
	C454.873169,519.390747 471.570984,530.051147 486.975189,527.847229 
	C504.902008,525.282471 517.955872,510.932678 518.019592,493.733521 
	C518.078918,477.712982 510.029755,467.005646 495.284180,459.993927 
z"/>
<path fill="#FEFEFE" opacity="1.000000" stroke="none" 
	d="
M266.048004,605.000000 
	C266.048004,563.529602 266.048004,522.559204 266.048004,481.293884 
	C284.632477,481.293884 303.040527,481.293884 321.940491,481.293884 
	C321.940491,508.512115 321.940491,535.853760 321.940491,563.050842 
	C328.202759,558.692566 333.804810,553.763855 340.248688,550.494263 
	C363.388611,538.753113 398.274384,541.625061 416.821198,562.334229 
	C426.537506,573.183350 432.569519,585.932312 433.830902,600.343079 
	C434.973419,613.395996 434.886322,626.574341 434.956207,639.699463 
	C435.104279,667.513550 435.001343,695.328979 435.001343,723.428894 
	C416.377899,723.428894 397.978851,723.428894 378.998657,723.428894 
	C378.998657,721.674316 378.998657,719.905579 378.998657,718.136780 
	C378.998657,689.309631 379.185577,660.480347 378.845459,631.657227 
	C378.775024,625.687439 377.474121,619.478027 375.441833,613.847778 
	C372.714691,606.292480 366.710571,601.727661 358.724670,599.831970 
	C340.098541,595.410583 323.894409,605.127380 323.068115,623.866272 
	C322.152222,644.636108 322.247223,665.452698 322.025360,686.250183 
	C321.894073,698.559021 322.001343,710.870422 322.001343,723.452271 
	C303.374573,723.452271 284.977448,723.452271 266.048004,723.452271 
	C266.048004,684.029175 266.048004,644.764587 266.048004,605.000000 
z"/>
<path fill="#FDFDFD" opacity="1.000000" stroke="none" 
	d="
M696.124756,619.128052 
	C703.911743,607.627075 711.752197,596.161865 719.470520,584.614990 
	C726.880920,573.528809 734.095703,562.311218 741.586243,551.280212 
	C742.591736,549.799377 744.697998,548.154114 746.311340,548.136658 
	C766.118286,547.922058 785.928345,547.996887 806.558167,547.996887 
	C801.119019,555.844055 796.067444,563.220398 790.925415,570.533142 
	C777.480835,589.653503 764.041748,608.778259 750.466797,627.805847 
	C748.905334,629.994507 748.416992,631.340820 750.122681,633.816956 
	C770.363159,663.199707 790.454712,692.685181 810.572144,722.152649 
	C810.740601,722.399414 810.729431,722.768860 810.905090,723.522644 
	C809.622925,723.584778 808.418640,723.693665 807.214417,723.694031 
	C788.216125,723.700195 769.217529,723.641724 750.219727,723.738770 
	C747.145691,723.754456 745.311890,723.018616 743.478882,720.147461 
	C727.866882,695.693787 711.979065,671.416199 695.657837,646.291565 
	C695.657837,672.413940 695.657837,697.682129 695.657837,723.333008 
	C676.745544,723.333008 658.197815,723.333008 639.322388,723.333008 
	C639.322388,642.788818 639.322388,562.088745 639.322388,481.192535 
	C657.987366,481.192535 676.575134,481.192535 695.557007,481.192535 
	C695.557007,483.626038 695.556946,485.912750 695.556946,488.199463 
	C695.556763,528.362610 695.560486,568.525696 695.548584,608.688843 
	C695.547729,611.687012 695.435242,614.685120 695.300659,618.319458 
	C695.279053,619.197510 695.331482,619.439270 695.383911,619.681152 
	C695.630859,619.496765 695.877808,619.312378 696.124756,619.128052 
z"/>
<path fill="#FEFEFE" opacity="1.000000" stroke="none" 
	d="
M508.959930,682.000000 
	C508.959930,695.986572 508.959930,709.473145 508.959930,723.343140 
	C490.404083,723.343140 472.022583,723.343140 453.304199,723.343140 
	C453.304199,665.160339 453.304199,606.812500 453.304199,548.231018 
	C471.636841,548.231018 490.048035,548.231018 508.736511,548.231018 
	C508.736511,553.013550 508.736511,557.783569 508.736511,563.391663 
	C512.477966,560.276428 515.511353,557.424866 518.864319,555.018372 
	C530.238831,546.854492 543.133057,543.798767 556.985779,543.774414 
	C575.545959,543.741882 591.540405,549.545044 604.119568,563.614685 
	C612.672607,573.181213 617.726196,584.528198 619.849976,596.980835 
	C621.208130,604.944458 621.586060,613.148621 621.633606,621.249512 
	C621.824402,653.732361 621.714478,686.217041 621.715698,718.701050 
	C621.715759,720.166443 621.715759,721.631836 621.715759,723.401489 
	C602.757690,723.401489 584.195740,723.401489 564.997864,723.401489 
	C564.997864,721.682190 564.997864,719.921021 564.997864,718.159790 
	C564.997864,688.007935 565.030396,657.856079 564.980103,627.704285 
	C564.962524,617.168396 561.490540,608.002258 552.026367,602.625854 
	C541.932983,596.891968 531.233643,597.010986 521.218018,603.013000 
	C513.119934,607.865723 509.280640,615.844971 509.105560,625.030029 
	C508.746948,643.847473 508.974030,662.676025 508.959930,682.000000 
z"/>
<path fill="#FEFEFE" opacity="1.000000" stroke="none" 
	d="
M141.070221,660.000000 
	C141.070221,618.855652 141.070221,578.211243 141.070221,537.108093 
	C122.170624,537.108093 103.432312,537.108093 84.418053,537.108093 
	C84.418053,518.257019 84.418053,499.862885 84.418053,481.233154 
	C141.915421,481.233154 199.337265,481.233154 257.013489,481.233154 
	C257.013489,499.655884 257.013489,518.049133 257.013489,536.838928 
	C238.313934,536.838928 219.551819,536.838928 200.328217,536.838928 
	C200.328217,599.265686 200.328217,661.298462 200.328217,723.512512 
	C180.451538,723.512512 161.039825,723.512512 141.070221,723.512512 
	C141.070221,702.369812 141.070221,681.434937 141.070221,660.000000 
z"/>
<path fill="#F6F5F8" opacity="1.000000" stroke="none" 
	d="
M1136.210083,417.210815 
	C1107.088013,445.457916 1072.937012,463.782379 1033.582886,471.679871 
	C1019.856934,474.434387 1005.619995,475.735962 991.608398,475.794556 
	C904.779480,476.157532 817.948242,476.041504 731.117981,475.943909 
	C699.547729,475.908447 669.377014,469.266968 640.824524,455.636688 
	C639.204468,454.863312 637.666687,453.917603 636.451172,453.250122 
	C630.622192,458.744995 625.366821,464.781372 619.089600,469.441223 
	C577.716980,500.154175 518.294617,478.706696 506.044495,428.849762 
	C498.700195,398.959076 510.709900,368.224609 536.731445,351.015411 
	C539.656799,349.080750 540.317139,347.781189 539.001282,344.399658 
	C529.070129,318.878021 524.966003,292.435150 525.830322,265.003052 
	C527.174377,222.344498 540.666443,183.989090 566.133423,150.053268 
	C593.649048,113.387573 629.572144,88.497589 673.896729,75.913750 
	C693.954102,70.219414 714.354553,67.961449 735.116821,67.969818 
	C819.613953,68.003891 904.111267,68.068100 988.608215,67.946266 
	C1027.163452,67.890678 1063.437866,76.502266 1096.583618,96.381676 
	C1142.850464,124.130409 1173.755127,164.009247 1189.029297,215.869034 
	C1195.205200,236.837677 1197.960815,258.295593 1196.900146,280.064484 
	C1194.730469,324.595886 1180.098633,364.625671 1151.991333,399.455780 
	C1147.097656,405.519806 1141.655640,411.141235 1136.210083,417.210815 
M1147.162720,143.330841 
	C1140.725464,136.669342 1134.543945,129.735794 1127.800659,123.400070 
	C1111.173096,107.777412 1092.099365,95.879387 1071.080566,87.009575 
	C1045.847900,76.361526 1019.533020,71.054268 992.199524,71.029396 
	C905.036377,70.950073 817.872742,70.888245 730.710205,71.132729 
	C719.005432,71.165550 707.244446,72.539078 695.617371,74.096840 
	C676.708679,76.630173 658.824951,83.029327 641.769958,91.280556 
	C626.066833,98.877769 611.601501,108.561188 598.266907,120.019234 
	C579.497742,136.147064 564.353882,155.079025 552.705994,176.769760 
	C541.553101,197.538788 533.195740,219.452087 530.984985,243.075424 
	C529.518799,258.741699 528.543274,274.614929 529.356384,290.291351 
	C530.301636,308.516418 534.979919,326.279938 541.721252,343.332001 
	C543.631531,348.164032 541.912903,351.006927 538.275879,353.952057 
	C533.037537,358.193726 527.700867,362.467834 523.218689,367.457916 
	C513.485962,378.293640 508.085724,391.428192 507.159332,405.813568 
	C505.687408,428.670074 513.538147,448.226013 530.963623,463.388702 
	C545.919983,476.402802 563.232910,482.185272 583.283630,480.134064 
	C601.630432,478.257111 616.432373,470.074860 628.650330,456.760071 
	C635.367615,449.439667 635.410889,449.283142 644.501465,453.753296 
	C669.929749,466.257172 697.072754,472.731689 725.161011,472.793640 
	C819.279907,473.001251 913.401306,472.427612 1007.519897,471.850677 
	C1016.703369,471.794403 1026.034668,470.366425 1035.021362,468.346771 
	C1065.233643,461.556824 1092.789429,449.031128 1117.172974,429.584045 
	C1138.626465,412.473877 1156.346191,392.250458 1169.307861,368.147217 
	C1188.048218,333.298340 1196.466919,296.198944 1193.191895,256.409973 
	C1191.527710,236.192780 1187.194092,216.792435 1179.807861,198.065857 
	C1172.017090,178.313736 1161.316406,160.179123 1147.162720,143.330841 
z"/>
<path fill="#FFFFFF" opacity="1.000000" stroke="none" 
	d="
M851.000000,665.999939 
	C840.191162,665.999939 829.882324,665.999939 819.287476,665.999939 
	C819.287476,651.048889 819.287476,636.312195 819.287476,621.286987 
	C837.618774,621.286987 856.021240,621.286987 874.712524,621.286987 
	C874.712524,635.950989 874.712524,650.687683 874.712524,665.999939 
	C867.029297,665.999939 859.264648,665.999939 851.000000,665.999939 
z"/>
<path fill="#FEFEFE" opacity="1.000000" stroke="none" 
	d="
M868.905029,592.942383 
	C852.121826,592.942200 835.826416,592.942200 819.265625,592.942200 
	C819.265625,577.968262 819.265625,563.238525 819.265625,548.253113 
	C837.681213,548.253113 856.079834,548.253113 874.740234,548.253113 
	C874.740234,562.999268 874.740234,577.729614 874.740234,592.942627 
	C872.940308,592.942627 871.166504,592.942627 868.905029,592.942383 
z"/>
<path fill="#F5F4F7" opacity="1.000000" stroke="none" 
	d="
M495.669830,460.083374 
	C510.029755,467.005646 518.078918,477.712982 518.019592,493.733521 
	C517.955872,510.932678 504.902008,525.282471 486.975189,527.847229 
	C471.570984,530.051147 454.873169,519.390747 449.975800,504.298798 
	C445.602234,490.821228 448.276855,478.737823 457.966278,468.661774 
	C468.344879,457.868988 481.128326,455.500793 495.669830,460.083374 
M514.877563,498.863800 
	C514.740784,494.563202 515.298096,490.100830 514.340332,485.991608 
	C511.160187,472.347778 502.198425,463.594055 488.624542,461.328186 
	C474.742920,459.010956 463.270569,464.082550 455.598419,476.609283 
	C449.829163,486.029114 449.135986,495.983185 453.608215,505.616394 
	C458.862091,516.933411 467.977264,524.021851 480.955933,524.989624 
	C494.855682,526.026062 510.100098,517.172058 514.877563,498.863800 
z"/>
<path fill="#000000" opacity="1.000000" stroke="none" 
	d="
M695.978882,618.981323 
	C695.877808,619.312378 695.630859,619.496765 695.383911,619.681152 
	C695.331482,619.439270 695.279053,619.197510 695.379578,618.752930 
	C695.532532,618.550232 695.833008,618.834595 695.978882,618.981323 
z"/>
<path fill="#F3F2F9" opacity="1.000000" stroke="none" 
	d="
M1147.355103,143.631134 
	C1161.316406,160.179123 1172.017090,178.313736 1179.807861,198.065857 
	C1187.194092,216.792435 1191.527710,236.192780 1193.191895,256.409973 
	C1196.466919,296.198944 1188.048218,333.298340 1169.307861,368.147217 
	C1156.346191,392.250458 1138.626465,412.473877 1117.172974,429.584045 
	C1092.789429,449.031128 1065.233643,461.556824 1035.021362,468.346771 
	C1026.034668,470.366425 1016.703369,471.794403 1007.519897,471.850677 
	C913.401306,472.427612 819.279907,473.001251 725.161011,472.793640 
	C697.072754,472.731689 669.929749,466.257172 644.501465,453.753296 
	C635.410889,449.283142 635.367615,449.439667 628.650330,456.760071 
	C616.432373,470.074860 601.630432,478.257111 583.283630,480.134064 
	C563.232910,482.185272 545.919983,476.402802 530.963623,463.388702 
	C513.538147,448.226013 505.687408,428.670074 507.159332,405.813568 
	C508.085724,391.428192 513.485962,378.293640 523.218689,367.457916 
	C527.700867,362.467834 533.037537,358.193726 538.275879,353.952057 
	C541.912903,351.006927 543.631531,348.164032 541.721252,343.332001 
	C534.979919,326.279938 530.301636,308.516418 529.356384,290.291351 
	C528.543274,274.614929 529.518799,258.741699 530.984985,243.075424 
	C533.195740,219.452087 541.553101,197.538788 552.705994,176.769760 
	C564.353882,155.079025 579.497742,136.147064 598.266907,120.019234 
	C611.601501,108.561188 626.066833,98.877769 641.769958,91.280556 
	C658.824951,83.029327 676.708679,76.630173 695.617371,74.096840 
	C707.244446,72.539078 719.005432,71.165550 730.710205,71.132729 
	C817.872742,70.888245 905.036377,70.950073 992.199524,71.029396 
	C1019.533020,71.054268 1045.847900,76.361526 1071.080566,87.009575 
	C1092.099365,95.879387 1111.173096,107.777412 1127.800659,123.400070 
	C1134.543945,129.735794 1140.725464,136.669342 1147.355103,143.631134 
M745.001831,324.022369 
	C745.001831,324.022369 745.040833,324.080597 745.702393,323.978882 
	C746.850464,323.000000 747.998535,322.021118 749.556091,320.869354 
	C749.813171,320.691498 749.974121,320.449646 750.716248,319.980591 
	C752.859802,317.667023 755.003418,315.353455 757.628235,312.827911 
	C758.116577,312.329651 758.604919,311.831360 759.631470,310.927399 
	C760.123596,309.976257 760.615662,309.025116 761.092346,308.009338 
	C761.092346,308.009338 761.069763,308.071686 761.685425,307.762421 
	C769.234497,296.509705 771.213257,283.905365 768.325439,271.103668 
	C762.169373,243.814362 740.402954,228.036301 712.386902,230.197128 
	C702.956055,230.924515 693.917419,233.818481 686.996521,240.913513 
	C686.996521,240.913513 686.923157,240.892517 686.235962,240.965454 
	C683.454407,243.950043 680.672852,246.934647 677.901489,249.983780 
	C677.901489,249.983780 677.927551,249.924042 677.296509,250.184692 
	C670.618774,258.258118 666.849365,267.410645 666.863586,278.599426 
	C666.821960,278.998383 666.780334,279.397369 666.269409,280.408661 
	C666.800659,284.620758 666.967651,288.918365 667.932800,293.028564 
	C670.624207,304.489471 676.597900,314.067719 685.898132,321.313477 
	C695.629822,328.895416 706.623779,333.044739 719.783630,332.183533 
	C720.185730,332.134216 720.587830,332.084869 721.863403,332.052917 
	C727.617493,330.380341 733.371643,328.707794 739.579895,327.000458 
	C739.579895,327.000458 740.030212,326.932068 740.530945,326.833801 
	C740.733398,326.563751 740.935852,326.293732 741.591614,325.990082 
	C741.591614,325.990082 742.039185,325.910461 742.531555,325.810547 
	C742.736755,325.548981 742.941956,325.287445 743.598755,324.989716 
	C743.598755,324.989716 744.042664,324.898987 744.519043,324.802765 
	C744.805603,324.615326 744.989929,324.355377 745.001831,324.022369 
M827.037048,318.490051 
	C838.513000,328.684540 851.695312,333.598450 867.216858,332.117340 
	C884.761902,330.443176 897.859802,321.836426 906.858398,307.018158 
	C919.612549,286.015533 914.583435,258.062897 895.725098,241.992661 
	C871.245728,221.132492 832.313293,228.100174 817.313293,256.489899 
	C806.250366,277.428192 809.675720,300.340759 827.037048,318.490051 
M957.795166,271.421051 
	C957.499939,275.724670 956.752136,280.052612 956.981934,284.328003 
	C958.655823,315.467773 988.020325,338.048981 1019.323669,331.282593 
	C1043.975464,325.953949 1062.562744,302.162354 1059.174072,275.458832 
	C1056.589233,255.090134 1045.694214,240.625214 1026.934082,233.391510 
	C996.465271,221.643051 965.664185,238.714340 957.795166,271.421051 
z"/>
<path fill="#F3F2F9" opacity="1.000000" stroke="none" 
	d="
M514.745972,499.273132 
	C510.100098,517.172058 494.855682,526.026062 480.955933,524.989624 
	C467.977264,524.021851 458.862091,516.933411 453.608215,505.616394 
	C449.135986,495.983185 449.829163,486.029114 455.598419,476.609283 
	C463.270569,464.082550 474.742920,459.010956 488.624542,461.328186 
	C502.198425,463.594055 511.160187,472.347778 514.340332,485.991608 
	C515.298096,490.100830 514.740784,494.563202 514.745972,499.273132 
z"/>
<path fill="#B2B0B7" opacity="1.000000" stroke="none" 
	d="
M826.773193,318.246887 
	C809.675720,300.340759 806.250366,277.428192 817.313293,256.489899 
	C832.313293,228.100174 871.245728,221.132492 895.725098,241.992661 
	C914.583435,258.062897 919.612549,286.015533 906.858398,307.018158 
	C897.859802,321.836426 884.761902,330.443176 867.216858,332.117340 
	C851.695312,333.598450 838.513000,328.684540 826.773193,318.246887 
z"/>
<path fill="#B3B1B8" opacity="1.000000" stroke="none" 
	d="
M720.989929,332.035522 
	C720.587830,332.084869 720.185730,332.134216 719.225098,331.886200 
	C716.592285,331.063171 714.537292,330.180634 712.440735,330.067230 
	C692.568420,328.992584 674.072388,311.539642 669.941956,293.556915 
	C668.887695,288.966949 667.807190,284.383026 666.738770,279.796326 
	C666.780334,279.397369 666.821960,278.998383 667.306458,278.222778 
	C668.156799,277.200043 668.901672,276.563568 668.920410,275.906342 
	C669.153198,267.763000 672.236084,260.660583 676.574158,253.947098 
	C677.318359,252.795425 677.490906,251.274414 677.927551,249.924042 
	C677.927551,249.924042 677.901489,249.983780 678.251709,249.950623 
	C681.375610,246.909134 684.149353,243.900818 686.923157,240.892517 
	C686.923157,240.892517 686.996521,240.913513 687.337158,240.942352 
	C688.463440,240.761978 689.385437,240.749619 690.014160,240.313980 
	C699.207581,233.943863 709.315002,231.736298 720.510132,231.838852 
	C739.348083,232.011444 758.096802,246.754105 764.221252,263.455658 
	C769.239563,277.140594 768.482178,290.638519 762.128662,303.813568 
	C761.506714,305.103210 761.410156,306.646271 761.069763,308.071686 
	C761.069763,308.071686 761.092346,308.009338 760.723633,308.072327 
	C759.934387,309.201233 759.513855,310.267151 759.093262,311.333069 
	C758.604919,311.831360 758.116577,312.329651 757.028564,312.947327 
	C754.299011,315.425751 752.169067,317.784790 750.039062,320.143799 
	C749.974121,320.449646 749.813171,320.691498 748.970947,320.943420 
	C747.270813,322.038483 746.155823,323.059540 745.040833,324.080566 
	C745.040833,324.080597 745.001831,324.022369 744.814331,324.102966 
	C744.337891,324.345154 744.143188,324.583618 744.042664,324.898987 
	C744.042664,324.898987 743.598755,324.989716 743.135376,325.082916 
	C742.361633,325.335266 742.150696,325.580048 742.039185,325.910461 
	C742.039185,325.910461 741.591614,325.990082 741.126099,326.085846 
	C740.350037,326.347443 740.139893,326.597595 740.030212,326.932068 
	C740.030212,326.932068 739.579895,327.000458 738.936157,327.005219 
	C732.970886,328.053131 727.639221,329.049835 722.342834,330.208038 
	C721.785278,330.329956 721.435852,331.403503 720.989929,332.035522 
z"/>
<path fill="#66646C" opacity="1.000000" stroke="none" 
	d="
M957.853027,270.995544 
	C965.664185,238.714340 996.465271,221.643051 1026.934082,233.391510 
	C1045.694214,240.625214 1056.589233,255.090134 1059.174072,275.458832 
	C1062.562744,302.162354 1043.975464,325.953949 1019.323669,331.282593 
	C988.020325,338.048981 958.655823,315.467773 956.981934,284.328003 
	C956.752136,280.052612 957.499939,275.724670 957.853027,270.995544 
M1055.253662,294.613251 
	C1060.512695,277.600281 1054.820801,255.009415 1038.702515,242.930573 
	C1022.676086,230.920441 1005.817139,229.016815 987.788391,236.675873 
	C970.663452,243.950989 956.276062,264.831787 959.737244,288.377136 
	C962.910645,309.964172 981.973694,328.853424 1004.507751,329.944000 
	C1028.807373,331.119995 1047.353394,318.230560 1055.253662,294.613251 
z"/>
<path fill="#A9A7AE" opacity="1.000000" stroke="none" 
	d="
M761.377563,307.917053 
	C761.410156,306.646271 761.506714,305.103210 762.128662,303.813568 
	C768.482178,290.638519 769.239563,277.140594 764.221252,263.455658 
	C758.096802,246.754105 739.348083,232.011444 720.510132,231.838852 
	C709.315002,231.736298 699.207581,233.943863 690.014160,240.313980 
	C689.385437,240.749619 688.463440,240.761978 687.299927,240.950623 
	C693.917419,233.818481 702.956055,230.924515 712.386902,230.197128 
	C740.402954,228.036301 762.169373,243.814362 768.325439,271.103668 
	C771.213257,283.905365 769.234497,296.509705 761.377563,307.917053 
z"/>
<path fill="#A9A7AE" opacity="1.000000" stroke="none" 
	d="
M666.504089,280.102478 
	C667.807190,284.383026 668.887695,288.966949 669.941956,293.556915 
	C674.072388,311.539642 692.568420,328.992584 712.440735,330.067230 
	C714.537292,330.180634 716.592285,331.063171 718.921875,331.908508 
	C706.623779,333.044739 695.629822,328.895416 685.898132,321.313477 
	C676.597900,314.067719 670.624207,304.489471 667.932800,293.028564 
	C666.967651,288.918365 666.800659,284.620758 666.504089,280.102478 
z"/>
<path fill="#A9A7AE" opacity="1.000000" stroke="none" 
	d="
M677.612061,250.054352 
	C677.490906,251.274414 677.318359,252.795425 676.574158,253.947098 
	C672.236084,260.660583 669.153198,267.763000 668.920410,275.906342 
	C668.901672,276.563568 668.156799,277.200043 667.361206,277.926941 
	C666.849365,267.410645 670.618774,258.258118 677.612061,250.054352 
z"/>
<path fill="#A9A7AE" opacity="1.000000" stroke="none" 
	d="
M721.426636,332.044220 
	C721.435852,331.403503 721.785278,330.329956 722.342834,330.208038 
	C727.639221,329.049835 732.970886,328.053131 738.709106,327.022583 
	C733.371643,328.707794 727.617493,330.380341 721.426636,332.044220 
z"/>
<path fill="#A9A7AE" opacity="1.000000" stroke="none" 
	d="
M686.579590,240.928986 
	C684.149353,243.900818 681.375610,246.909134 678.246582,249.918335 
	C680.672852,246.934647 683.454407,243.950043 686.579590,240.928986 
z"/>
<path fill="#A9A7AE" opacity="1.000000" stroke="none" 
	d="
M750.377686,320.062195 
	C752.169067,317.784790 754.299011,315.425751 756.787964,313.053284 
	C755.003418,315.353455 752.859802,317.667023 750.377686,320.062195 
z"/>
<path fill="#A9A7AE" opacity="1.000000" stroke="none" 
	d="
M745.371582,324.029724 
	C746.155823,323.059540 747.270813,322.038483 748.766235,321.029846 
	C747.998535,322.021118 746.850464,323.000000 745.371582,324.029724 
z"/>
<path fill="#A9A7AE" opacity="1.000000" stroke="none" 
	d="
M759.362366,311.130249 
	C759.513855,310.267151 759.934387,309.201233 760.731323,308.104614 
	C760.615662,309.025116 760.123596,309.976257 759.362366,311.130249 
z"/>
<path fill="#A9A7AE" opacity="1.000000" stroke="none" 
	d="
M740.280579,326.882935 
	C740.139893,326.597595 740.350037,326.347443 740.899414,326.102661 
	C740.935852,326.293732 740.733398,326.563751 740.280579,326.882935 
z"/>
<path fill="#A9A7AE" opacity="1.000000" stroke="none" 
	d="
M742.285400,325.860504 
	C742.150696,325.580048 742.361633,325.335266 742.909546,325.101013 
	C742.941956,325.287445 742.736755,325.548981 742.285400,325.860504 
z"/>
<path fill="#A9A7AE" opacity="1.000000" stroke="none" 
	d="
M744.280884,324.850891 
	C744.143188,324.583618 744.337891,324.345154 744.849365,324.103210 
	C744.989929,324.355377 744.805603,324.615326 744.280884,324.850891 
z"/>
<path fill="#7E7C84" opacity="1.000000" stroke="none" 
	d="
M1055.148438,295.003479 
	C1047.353394,318.230560 1028.807373,331.119995 1004.507751,329.944000 
	C981.973694,328.853424 962.910645,309.964172 959.737244,288.377136 
	C956.276062,264.831787 970.663452,243.950989 987.788391,236.675873 
	C1005.817139,229.016815 1022.676086,230.920441 1038.702515,242.930573 
	C1054.820801,255.009415 1060.512695,277.600281 1055.148438,295.003479 
z"/>
</svg>