<svg version="1.1" id="Layer_1" xmlns="http://www.w3.org/2000/svg" xmlns:xlink="http://www.w3.org/1999/xlink" x="0px" y="0px"
	 width="100%" viewBox="0 0 1763 600" enable-background="new 0 0 1763 600" xml:space="preserve">
<path fill="#FEFEFE" opacity="1.000000" stroke="none" 
	d="
M1159.000000,601.000000 
	C772.666687,601.000000 386.833344,601.000000 1.000000,601.000000 
	C1.000000,401.000000 1.000000,201.000000 1.000000,1.000000 
	C588.666687,1.000000 1176.333374,1.000000 1764.000000,1.000000 
	C1764.000000,201.000000 1764.000000,401.000000 1764.000000,601.000000 
	C1562.500000,601.000000 1361.000000,601.000000 1159.000000,601.000000 
M678.234192,326.262360 
	C688.846558,337.216217 693.831604,350.319916 693.786987,365.567078 
	C693.616150,423.891846 693.572510,482.217041 693.481873,540.542053 
	C693.478821,542.493286 693.481445,544.444519 693.481445,546.612183 
	C729.642639,546.612183 765.203308,546.612183 801.055908,546.612183 
	C801.055908,545.166382 801.054749,544.022949 801.056091,542.879517 
	C801.135681,474.222565 801.423096,405.564636 801.102356,336.909576 
	C801.045288,324.684845 799.543396,312.227570 796.843506,300.299866 
	C789.138245,266.259277 771.951355,238.337189 741.037048,220.370407 
	C721.980713,209.295212 701.099060,205.407654 679.230530,204.865738 
	C647.228333,204.072693 619.294006,213.833633 595.422913,235.167709 
	C592.912964,237.410904 590.486328,239.747284 587.404053,242.614410 
	C587.404053,189.744553 587.404053,137.868301 587.404053,85.628311 
	C551.741455,85.628311 516.351807,85.628311 480.365784,85.628311 
	C480.365784,239.197540 480.365784,392.572235 480.365784,546.227722 
	C515.744629,546.227722 551.166687,546.227722 586.729675,546.227722 
	C586.806213,545.160461 586.914368,544.350647 586.915283,543.540710 
	C586.979675,484.882355 587.026306,426.223999 587.112610,367.565674 
	C587.118530,363.580536 586.946777,359.509552 587.658813,355.625366 
	C591.457886,334.899689 603.190186,320.284668 623.142090,313.533447 
	C643.458130,306.658966 661.897644,311.134003 678.234192,326.262360 
M1295.595459,206.499908 
	C1295.595459,166.725143 1295.595459,126.950378 1295.595459,86.904152 
	C1259.753174,86.904152 1224.215698,86.904152 1188.222656,86.904152 
	C1188.222656,240.559799 1188.222656,393.815094 1188.222656,547.410828 
	C1223.683716,547.410828 1259.103882,547.410828 1295.227661,547.410828 
	C1295.227661,499.139740 1295.227661,451.007874 1295.227661,401.433411 
	C1297.071045,404.072845 1298.049927,405.381470 1298.932739,406.751892 
	C1328.327759,452.375641 1357.724976,497.998047 1387.071167,543.653137 
	C1388.766113,546.290100 1390.286011,548.036133 1394.020264,548.021484 
	C1433.013672,547.868530 1472.008179,547.979126 1511.002319,547.995605 
	C1512.198242,547.996155 1513.394165,547.767273 1514.918823,547.611816 
	C1513.785034,545.889343 1512.982666,544.634460 1512.145386,543.403198 
	C1474.235596,487.652557 1436.353882,431.882660 1398.327515,376.211670 
	C1396.189453,373.081696 1396.128906,371.133026 1398.338501,368.024994 
	C1430.765015,322.412415 1463.046265,276.696625 1495.358887,231.003036 
	C1499.155884,225.633636 1502.933594,220.250534 1507.331665,214.005646 
	C1504.697876,214.005646 1503.106201,214.007004 1501.514526,214.005432 
	C1465.020020,213.969528 1428.524902,214.007309 1392.031494,213.789352 
	C1388.133911,213.766083 1386.129517,215.151138 1384.093018,218.230057 
	C1355.881592,260.882660 1327.544312,303.452118 1299.231812,346.037781 
	C1298.292236,347.450989 1297.285522,348.819580 1295.593506,351.229980 
	C1295.593506,302.337433 1295.593506,254.918686 1295.595459,206.499908 
M959.999817,323.474609 
	C972.295654,313.501678 986.361511,309.165344 1001.981140,311.649658 
	C1029.261963,315.988678 1047.739014,338.030701 1047.730591,365.795807 
	C1047.713013,424.124878 1047.577148,482.453949 1047.490479,540.783020 
	C1047.487549,542.753052 1047.490234,544.723022 1047.490234,547.037781 
	C1083.459961,547.037781 1119.007080,547.037781 1154.805176,547.037781 
	C1154.850464,546.009460 1154.916382,545.203247 1154.917236,544.396912 
	C1154.992065,474.235382 1155.435913,404.071289 1154.960327,333.913452 
	C1154.749756,302.876495 1146.048340,273.975342 1126.767456,249.077988 
	C1105.213013,221.245010 1076.104004,208.075745 1041.372925,205.658005 
	C1003.899475,203.049377 971.339722,213.469772 944.521484,240.312347 
	C943.697998,241.136566 942.668335,241.754761 940.918945,243.093231 
	C940.918945,232.484711 940.918945,222.929901 940.918945,213.376831 
	C905.049133,213.376831 869.681213,213.376831 834.038452,213.376831 
	C834.038452,324.721680 834.038452,435.645935 834.038452,546.679138 
	C869.627930,546.679138 904.997620,546.679138 940.652466,546.679138 
	C940.652466,544.670105 940.650757,543.024719 940.652771,541.379333 
	C940.724731,482.716949 940.832031,424.054596 940.846802,365.392212 
	C940.850952,348.732635 947.088684,334.990326 959.999817,323.474609 
M464.662262,97.531029 
	C464.662262,93.579185 464.662262,89.627350 464.662262,85.276810 
	C354.594330,85.276810 245.061966,85.276810 135.463654,85.276810 
	C135.463654,120.919273 135.463654,156.285004 135.463654,192.206802 
	C171.638702,192.206802 207.367676,192.206802 242.998627,192.206802 
	C242.998627,310.367340 242.998627,427.968689 242.998627,545.796143 
	C280.457672,545.796143 317.697296,545.796143 355.766479,545.796143 
	C355.766479,427.817322 355.766479,310.112946 355.766479,191.958679 
	C392.489349,191.958679 428.385132,191.958679 464.659363,191.958679 
	C464.659363,160.510864 464.659363,129.515839 464.662262,97.531029 
M867.500000,171.987259 
	C891.919678,171.987259 916.339294,171.987259 941.001648,171.987259 
	C941.001648,143.143570 941.001648,114.794273 941.001648,86.324326 
	C905.364990,86.324326 870.037720,86.324326 834.661865,86.324326 
	C834.661865,115.051582 834.661865,143.407562 834.661865,171.986893 
	C845.538391,171.986893 856.019165,171.986893 867.500000,171.987259 
M1628.430420,438.918915 
	C1630.873047,438.918915 1633.315552,438.918915 1635.869385,438.918915 
	C1635.869385,410.033325 1635.869385,381.698639 1635.869385,353.297546 
	C1600.243530,353.297546 1565.021851,353.297546 1529.663818,353.297546 
	C1529.663818,381.912994 1529.663818,410.257141 1529.663818,438.917633 
	C1562.524414,438.917633 1594.986816,438.917633 1628.430420,438.918915 
M1529.546265,288.032227 
	C1529.546265,291.955811 1529.546265,295.879395 1529.546265,299.756775 
	C1565.528809,299.756775 1600.891724,299.756775 1636.288086,299.756775 
	C1636.288086,271.108246 1636.288086,242.844284 1636.288086,214.357880 
	C1600.646729,214.357880 1565.277466,214.357880 1529.550293,214.357880 
	C1529.550293,238.820511 1529.550293,262.959869 1529.546265,288.032227 
z"/>
<path fill="#010101" opacity="1.000000" stroke="none" 
	d="
M677.983398,326.011749 
	C661.897644,311.134003 643.458130,306.658966 623.142090,313.533447 
	C603.190186,320.284668 591.457886,334.899689 587.658813,355.625366 
	C586.946777,359.509552 587.118530,363.580536 587.112610,367.565674 
	C587.026306,426.223999 586.979675,484.882355 586.915283,543.540710 
	C586.914368,544.350647 586.806213,545.160461 586.729675,546.227722 
	C551.166687,546.227722 515.744629,546.227722 480.365784,546.227722 
	C480.365784,392.572235 480.365784,239.197540 480.365784,85.628311 
	C516.351807,85.628311 551.741455,85.628311 587.404053,85.628311 
	C587.404053,137.868301 587.404053,189.744553 587.404053,242.614410 
	C590.486328,239.747284 592.912964,237.410904 595.422913,235.167709 
	C619.294006,213.833633 647.228333,204.072693 679.230530,204.865738 
	C701.099060,205.407654 721.980713,209.295212 741.037048,220.370407 
	C771.951355,238.337189 789.138245,266.259277 796.843506,300.299866 
	C799.543396,312.227570 801.045288,324.684845 801.102356,336.909576 
	C801.423096,405.564636 801.135681,474.222565 801.056091,542.879517 
	C801.054749,544.022949 801.055908,545.166382 801.055908,546.612183 
	C765.203308,546.612183 729.642639,546.612183 693.481445,546.612183 
	C693.481445,544.444519 693.478821,542.493286 693.481873,540.542053 
	C693.572510,482.217041 693.616150,423.891846 693.786987,365.567078 
	C693.831604,350.319916 688.846558,337.216217 677.983398,326.011749 
z"/>
<path fill="#010101" opacity="1.000000" stroke="none" 
	d="
M1295.594482,206.999908 
	C1295.593506,254.918686 1295.593506,302.337433 1295.593506,351.229980 
	C1297.285522,348.819580 1298.292236,347.450989 1299.231812,346.037781 
	C1327.544312,303.452118 1355.881592,260.882660 1384.093018,218.230057 
	C1386.129517,215.151138 1388.133911,213.766083 1392.031494,213.789352 
	C1428.524902,214.007309 1465.020020,213.969528 1501.514526,214.005432 
	C1503.106201,214.007004 1504.697876,214.005646 1507.331665,214.005646 
	C1502.933594,220.250534 1499.155884,225.633636 1495.358887,231.003036 
	C1463.046265,276.696625 1430.765015,322.412415 1398.338501,368.024994 
	C1396.128906,371.133026 1396.189453,373.081696 1398.327515,376.211670 
	C1436.353882,431.882660 1474.235596,487.652557 1512.145386,543.403198 
	C1512.982666,544.634460 1513.785034,545.889343 1514.918823,547.611816 
	C1513.394165,547.767273 1512.198242,547.996155 1511.002319,547.995605 
	C1472.008179,547.979126 1433.013672,547.868530 1394.020264,548.021484 
	C1390.286011,548.036133 1388.766113,546.290100 1387.071167,543.653137 
	C1357.724976,497.998047 1328.327759,452.375641 1298.932739,406.751892 
	C1298.049927,405.381470 1297.071045,404.072845 1295.227661,401.433411 
	C1295.227661,451.007874 1295.227661,499.139740 1295.227661,547.410828 
	C1259.103882,547.410828 1223.683716,547.410828 1188.222656,547.410828 
	C1188.222656,393.815094 1188.222656,240.559799 1188.222656,86.904152 
	C1224.215698,86.904152 1259.753174,86.904152 1295.595459,86.904152 
	C1295.595459,126.950378 1295.595459,166.725143 1295.594482,206.999908 
z"/>
<path fill="#010101" opacity="1.000000" stroke="none" 
	d="
M959.731201,323.709961 
	C947.088684,334.990326 940.850952,348.732635 940.846802,365.392212 
	C940.832031,424.054596 940.724731,482.716949 940.652771,541.379333 
	C940.650757,543.024719 940.652466,544.670105 940.652466,546.679138 
	C904.997620,546.679138 869.627930,546.679138 834.038452,546.679138 
	C834.038452,435.645935 834.038452,324.721680 834.038452,213.376831 
	C869.681213,213.376831 905.049133,213.376831 940.918945,213.376831 
	C940.918945,222.929901 940.918945,232.484711 940.918945,243.093231 
	C942.668335,241.754761 943.697998,241.136566 944.521484,240.312347 
	C971.339722,213.469772 1003.899475,203.049377 1041.372925,205.658005 
	C1076.104004,208.075745 1105.213013,221.245010 1126.767456,249.077988 
	C1146.048340,273.975342 1154.749756,302.876495 1154.960327,333.913452 
	C1155.435913,404.071289 1154.992065,474.235382 1154.917236,544.396912 
	C1154.916382,545.203247 1154.850464,546.009460 1154.805176,547.037781 
	C1119.007080,547.037781 1083.459961,547.037781 1047.490234,547.037781 
	C1047.490234,544.723022 1047.487549,542.753052 1047.490479,540.783020 
	C1047.577148,482.453949 1047.713013,424.124878 1047.730591,365.795807 
	C1047.739014,338.030701 1029.261963,315.988678 1001.981140,311.649658 
	C986.361511,309.165344 972.295654,313.501678 959.731201,323.709961 
z"/>
<path fill="#010101" opacity="1.000000" stroke="none" 
	d="
M464.660828,98.025925 
	C464.659363,129.515839 464.659363,160.510864 464.659363,191.958679 
	C428.385132,191.958679 392.489349,191.958679 355.766479,191.958679 
	C355.766479,310.112946 355.766479,427.817322 355.766479,545.796143 
	C317.697296,545.796143 280.457672,545.796143 242.998627,545.796143 
	C242.998627,427.968689 242.998627,310.367340 242.998627,192.206802 
	C207.367676,192.206802 171.638702,192.206802 135.463654,192.206802 
	C135.463654,156.285004 135.463654,120.919273 135.463654,85.276810 
	C245.061966,85.276810 354.594330,85.276810 464.662262,85.276810 
	C464.662262,89.627350 464.662262,93.579185 464.660828,98.025925 
z"/>
<path fill="#020202" opacity="1.000000" stroke="none" 
	d="
M867.000000,171.987076 
	C856.019165,171.986893 845.538391,171.986893 834.661865,171.986893 
	C834.661865,143.407562 834.661865,115.051582 834.661865,86.324326 
	C870.037720,86.324326 905.364990,86.324326 941.001648,86.324326 
	C941.001648,114.794273 941.001648,143.143570 941.001648,171.987259 
	C916.339294,171.987259 891.919678,171.987259 867.000000,171.987076 
z"/>
<path fill="#020202" opacity="1.000000" stroke="none" 
	d="
M1627.939697,438.918274 
	C1594.986816,438.917633 1562.524414,438.917633 1529.663818,438.917633 
	C1529.663818,410.257141 1529.663818,381.912994 1529.663818,353.297546 
	C1565.021851,353.297546 1600.243530,353.297546 1635.869385,353.297546 
	C1635.869385,381.698639 1635.869385,410.033325 1635.869385,438.918915 
	C1633.315552,438.918915 1630.873047,438.918915 1627.939697,438.918274 
z"/>
<path fill="#010101" opacity="1.000000" stroke="none" 
	d="
M1529.548340,287.565735 
	C1529.550293,262.959869 1529.550293,238.820511 1529.550293,214.357880 
	C1565.277466,214.357880 1600.646729,214.357880 1636.288086,214.357880 
	C1636.288086,242.844284 1636.288086,271.108246 1636.288086,299.756775 
	C1600.891724,299.756775 1565.528809,299.756775 1529.546265,299.756775 
	C1529.546265,295.879395 1529.546265,291.955811 1529.548340,287.565735 
z"/>
</svg>