<svg version="1.1" id="Layer_1" xmlns="http://www.w3.org/2000/svg" xmlns:xlink="http://www.w3.org/1999/xlink" x="0px" y="0px"
	 width="100%" viewBox="0 0 400 136" enable-background="new 0 0 400 136" xml:space="preserve">
<path fill="#FCFCFC" opacity="1.000000" stroke="none" 
	d="
M261.000000,137.000000 
	C174.000015,137.000000 87.500038,137.000000 1.000046,137.000000 
	C1.000031,91.666695 1.000031,46.333397 1.000015,1.000071 
	C134.333267,1.000047 267.666534,1.000047 400.999878,1.000024 
	C400.999908,46.333256 400.999908,91.666512 400.999939,136.999878 
	C354.500000,137.000000 308.000000,137.000000 261.000000,137.000000 
M313.654541,52.302799 
	C313.654541,52.302799 313.550842,52.774105 313.029633,53.177269 
	C307.119843,62.027622 301.210052,70.877983 295.300262,79.728333 
	C295.018280,79.596741 294.736328,79.465149 294.454346,79.333557 
	C294.454346,59.931561 294.454346,40.529560 294.454346,20.939663 
	C286.449982,20.939663 278.721558,20.939663 270.739563,20.939663 
	C270.739563,55.612751 270.739563,90.014984 270.739563,124.441254 
	C278.720520,124.441254 286.422394,124.441254 294.524078,124.441254 
	C294.524078,113.699074 294.524078,103.291435 294.524078,91.632927 
	C302.160767,103.105469 309.091431,113.517357 316.425354,124.696907 
	C325.254730,124.715584 334.084106,124.734261 343.483215,124.987129 
	C343.421417,124.558563 343.359589,124.129997 343.067505,123.108070 
	C342.418518,122.306519 341.769562,121.504959 340.969177,120.045418 
	C333.103424,108.429810 325.237701,96.814201 317.306976,85.102646 
	C318.634918,83.201019 319.866333,81.457283 321.077637,79.699661 
	C327.624298,70.200668 334.165955,60.698223 340.616455,51.159916 
	C340.616455,51.159916 340.659637,51.076794 341.355469,51.084225 
	C341.498840,50.820446 341.778503,50.538696 341.746735,50.298012 
	C341.715881,50.064011 341.367920,49.690327 341.155670,49.687950 
	C333.009338,49.596661 324.861267,49.461483 316.717651,49.592239 
	C315.808868,49.606827 314.924774,51.159351 313.654541,52.302799 
M347.965759,99.517685 
	C348.969971,99.655098 349.974152,99.792503 351.899048,100.129372 
	C357.935333,100.067688 363.971649,100.006004 370.888702,100.063065 
	C371.373199,93.736122 371.857666,87.409180 372.353088,80.939362 
	C365.505768,80.939362 359.697327,80.853027 353.894012,80.987640 
	C351.944000,81.032875 350.006989,81.640274 347.871338,82.895264 
	C347.936096,88.222656 348.000824,93.550041 347.965759,99.517685 
M372.007690,66.498528 
	C371.959778,66.327812 371.911865,66.157089 372.037750,65.066780 
	C372.037750,59.992161 372.037750,54.917542 372.037750,49.601871 
	C364.456543,49.601871 357.485291,49.717304 350.520966,49.547131 
	C347.585358,49.475399 347.701904,51.000885 347.892090,53.895500 
	C347.949951,57.601490 348.007782,61.307484 347.920593,65.843758 
	C348.864410,66.742531 349.777710,68.379578 350.757019,68.420074 
	C357.037537,68.679771 363.333435,68.643524 369.621674,68.542793 
	C370.379730,68.530647 371.122253,67.546516 372.007690,66.498528 
M35.905659,44.125946 
	C42.567947,44.159496 49.230236,44.193047 55.978924,45.131950 
	C55.978924,71.364456 55.978924,97.596970 55.978924,123.927475 
	C64.551926,123.927475 72.737778,123.927475 81.360016,123.927475 
	C81.360016,97.255051 81.360016,70.885246 81.360016,44.130379 
	C88.409752,44.130379 95.026199,44.194687 101.639519,44.079399 
	C103.065674,44.054535 104.480545,43.382282 106.082275,42.088020 
	C106.022652,35.626163 105.963020,29.164303 106.044701,21.885340 
	C104.768219,21.347578 103.497772,20.360605 102.214287,20.343351 
	C92.236168,20.209213 82.255524,20.259378 72.275665,20.257502 
	C58.848808,20.254974 45.421947,20.256874 31.670353,20.256874 
	C31.670353,27.437405 31.773367,34.394554 31.619390,41.346012 
	C31.558243,44.106609 32.857197,44.381008 35.905659,44.125946 
M190.217728,123.931717 
	C197.468201,124.109718 204.718628,124.351685 211.969223,124.356873 
	C212.622650,124.357338 213.277176,122.829041 214.122528,121.089157 
	C214.061935,111.056404 214.001358,101.023643 214.076584,90.085526 
	C214.081985,88.087654 214.063980,86.089386 214.096954,84.091972 
	C214.219086,76.692894 219.514099,71.094978 226.360596,71.106598 
	C233.209808,71.118225 238.572098,76.618629 238.714859,84.074081 
	C238.851883,91.230499 238.734039,98.391754 238.731277,105.550888 
	C238.728882,111.809540 238.730789,118.068184 238.730789,124.493561 
	C246.900772,124.493561 254.484512,124.493561 262.272461,124.493561 
	C262.272461,107.024902 262.284302,89.760452 262.229614,72.496223 
	C262.227417,71.801071 261.596344,71.107925 261.188782,70.427612 
	C261.188782,70.427612 261.155243,70.365234 261.848267,70.278030 
	C260.055450,52.121830 236.843552,38.051361 214.320190,55.132580 
	C214.158279,53.130272 214.005371,51.239281 213.862381,49.470894 
	C205.846344,49.470894 198.082993,49.470894 190.168793,49.470894 
	C190.168793,73.798698 190.168793,97.887474 190.001892,122.493317 
	C190.046463,122.668861 190.091049,122.844398 190.217728,123.931717 
M109.859703,121.922256 
	C110.576714,122.721436 111.277100,124.196770 112.013313,124.214867 
	C119.127876,124.389755 126.248444,124.319794 133.750702,124.319794 
	C133.750702,122.483971 133.747864,121.017868 133.751175,119.551781 
	C133.777771,107.733475 133.729935,95.914337 133.859711,84.097160 
	C133.945175,76.311966 138.872635,71.131767 145.932556,71.070274 
	C153.202911,71.006935 158.170685,76.314621 158.311081,84.342812 
	C158.357635,87.005226 158.307755,89.669281 158.307404,92.332581 
	C158.306061,102.933083 158.306854,113.533585 158.306854,124.129227 
	C166.496857,124.129227 174.224564,124.129227 182.025635,124.129227 
	C182.025635,107.218994 182.025635,90.605751 182.221573,73.330536 
	C182.127823,72.883881 182.034073,72.437225 182.000153,71.218018 
	C177.770142,54.479935 168.561386,46.914284 153.162674,47.356369 
	C145.948822,47.563480 139.874161,50.462330 133.914154,55.731995 
	C133.914154,43.418304 133.914154,32.057827 133.914154,20.275257 
	C126.238503,20.275257 118.956070,20.238201 111.675888,20.349363 
	C111.125259,20.357771 110.590714,21.420118 109.855934,22.913469 
	C109.839539,36.858719 109.789307,50.804031 109.815041,64.749207 
	C109.849648,83.500710 109.942871,102.252113 109.859703,121.922256 
M192.875671,39.571774 
	C199.821609,39.571774 206.767563,39.571774 213.919281,39.571774 
	C213.919281,33.030407 213.919281,26.834423 213.919281,20.716433 
	C205.852585,20.716433 198.105927,20.716433 190.061325,20.716433 
	C190.061325,26.454317 189.989365,31.917660 190.145157,37.374496 
	C190.166550,38.123749 191.319977,38.840687 192.875671,39.571774 
z"/>
<path fill="#040404" opacity="1.000000" stroke="none" 
	d="
M182.025635,73.992500 
	C182.025635,90.605751 182.025635,107.218994 182.025635,124.129227 
	C174.224564,124.129227 166.496857,124.129227 158.306854,124.129227 
	C158.306854,113.533585 158.306061,102.933083 158.307404,92.332581 
	C158.307755,89.669281 158.357635,87.005226 158.311081,84.342812 
	C158.170685,76.314621 153.202911,71.006935 145.932556,71.070274 
	C138.872635,71.131767 133.945175,76.311966 133.859711,84.097160 
	C133.729935,95.914337 133.777771,107.733475 133.751175,119.551781 
	C133.747864,121.017868 133.750702,122.483971 133.750702,124.319794 
	C126.248444,124.319794 119.127876,124.389755 112.013313,124.214867 
	C111.277100,124.196770 110.576714,122.721436 110.251755,121.692589 
	C117.756218,121.647720 124.868637,121.832512 131.987030,121.546944 
	C131.993011,108.448318 131.993011,95.820045 131.993011,83.191780 
	C131.656708,83.194084 131.320389,83.196388 130.984085,83.198692 
	C130.984085,96.126411 130.984085,109.054123 130.516708,121.991837 
	C126.558319,122.003281 123.067085,122.030380 119.576332,122.001137 
	C111.096367,121.930099 112.015427,122.934731 112.006584,114.668854 
	C111.975433,85.577065 112.023140,56.485096 111.902275,27.393763 
	C111.894783,25.590820 110.694183,23.792835 110.048691,21.992546 
	C110.590714,21.420118 111.125259,20.357771 111.675888,20.349363 
	C118.956070,20.238201 126.238503,20.275257 133.914154,20.275257 
	C133.914154,32.057827 133.914154,43.418304 133.914154,55.731995 
	C139.874161,50.462330 145.948822,47.563480 153.162674,47.356369 
	C168.561386,46.914284 177.770142,54.479935 181.580765,71.712593 
	C180.776932,73.875328 180.070679,75.541229 180.058960,77.212006 
	C179.965683,90.508774 179.847412,103.809395 180.096573,117.102097 
	C180.172668,121.161560 178.833603,122.327042 174.976349,122.080963 
	C170.340546,121.785217 165.672668,121.992264 161.009232,121.514877 
	C160.999786,108.104431 160.999786,95.160713 160.999786,82.217003 
	C160.677048,82.219643 160.354324,82.222282 160.031586,82.224922 
	C160.031586,95.491173 160.031586,108.757423 160.316788,122.326073 
	C167.186569,122.628471 173.771149,122.628471 180.996613,122.628471 
	C180.996613,120.622368 180.996780,118.841446 180.996582,117.060524 
	C180.995132,104.419991 180.954575,91.779190 181.037994,79.139221 
	C181.049347,77.421547 181.681122,75.707970 182.025635,73.992500 
z"/>
<path fill="#030303" opacity="1.000000" stroke="none" 
	d="
M340.709351,51.196968 
	C334.165955,60.698223 327.624298,70.200668 321.077637,79.699661 
	C319.866333,81.457283 318.634918,83.201019 317.306976,85.102646 
	C325.237701,96.814201 333.103424,108.429810 341.008057,120.691254 
	C341.033386,121.549309 341.019806,121.761513 340.536865,121.978607 
	C337.584015,121.992180 335.095184,121.900566 332.618042,122.030853 
	C327.751129,122.286827 322.890747,122.666183 317.733643,123.012375 
	C316.967102,123.329910 316.494598,123.629578 316.022095,123.929245 
	C309.091431,113.517357 302.160767,103.105469 294.524078,91.632927 
	C294.524078,103.291435 294.524078,113.699074 294.524078,124.441254 
	C286.422394,124.441254 278.720520,124.441254 270.739563,124.441254 
	C270.739563,90.014984 270.739563,55.612751 270.739563,20.939663 
	C278.721558,20.939663 286.449982,20.939663 294.454346,20.939663 
	C294.454346,40.529560 294.454346,59.931561 294.454346,79.333557 
	C294.736328,79.465149 295.018280,79.596741 295.300262,79.728333 
	C301.210052,70.877983 307.119843,62.027622 313.659668,53.055248 
	C314.540192,52.959927 314.790680,52.986629 315.249847,52.906487 
	C315.719025,52.605640 315.895294,52.352879 316.457153,52.024109 
	C324.854431,51.736900 332.781891,51.466934 340.709351,51.196968 
M272.004883,76.500000 
	C272.004883,91.578415 272.004883,106.656837 272.004883,121.735252 
	C272.333038,121.732872 272.661224,121.730492 272.989380,121.728111 
	C272.989380,120.087494 272.989258,118.446877 272.989410,116.806259 
	C272.991455,90.326630 272.992767,63.846992 272.995880,37.367359 
	C272.997620,22.665956 272.997864,22.779079 287.566864,22.919367 
	C291.087982,22.953276 292.115082,24.056034 292.081055,27.507296 
	C291.926636,43.160427 292.009033,58.815895 292.006287,74.470520 
	C292.006012,75.903481 292.006226,77.336441 292.006226,78.769402 
	C292.211609,78.746910 292.417023,78.724419 292.622406,78.701927 
	C292.622406,59.976223 292.622406,41.250523 292.622406,22.341278 
	C285.690155,22.341278 279.132599,22.341278 272.004883,22.341278 
	C272.004883,40.285671 272.004883,57.892838 272.004883,76.500000 
M292.009796,98.730423 
	C292.009796,106.645142 292.009796,114.559868 292.009796,122.474586 
	C292.189545,122.478470 292.369263,122.482353 292.549011,122.486229 
	C292.549011,112.686752 292.549011,102.887276 292.549011,93.087799 
	C292.369263,93.083107 292.189514,93.078415 292.009766,93.073723 
	C292.009766,94.653824 292.009766,96.233925 292.009796,98.730423 
z"/>
<path fill="#030303" opacity="1.000000" stroke="none" 
	d="
M190.168793,121.976257 
	C190.168793,97.887474 190.168793,73.798698 190.168793,49.470894 
	C198.082993,49.470894 205.846344,49.470894 213.862381,49.470894 
	C214.005371,51.239281 214.158279,53.130272 214.320190,55.132580 
	C236.843552,38.051361 260.055450,52.121830 261.219971,70.695358 
	C260.399750,72.908371 260.050110,74.703323 260.041626,76.499886 
	C259.988373,87.808060 260.010071,99.116592 260.008820,110.425003 
	C260.007568,122.017532 260.008392,122.038612 248.182571,122.007477 
	C240.189423,121.986435 241.034607,122.791122 241.012589,114.761894 
	C240.981781,103.528564 241.004807,92.295090 241.004807,81.061676 
	C240.812424,81.065941 240.620026,81.070206 240.427643,81.074471 
	C240.427643,94.910683 240.427643,108.746895 240.427643,122.985077 
	C245.823303,122.985077 250.806503,122.730385 255.750061,123.063652 
	C259.889435,123.342705 261.128143,121.983269 261.087769,117.797447 
	C260.935364,102.004936 261.169098,86.208687 261.258270,70.413841 
	C261.596344,71.107925 262.227417,71.801071 262.229614,72.496223 
	C262.284302,89.760452 262.272461,107.024902 262.272461,124.493561 
	C254.484512,124.493561 246.900772,124.493561 238.730789,124.493561 
	C238.730789,118.068184 238.728882,111.809540 238.731277,105.550888 
	C238.734039,98.391754 238.851883,91.230499 238.714859,84.074081 
	C238.572098,76.618629 233.209808,71.118225 226.360596,71.106598 
	C219.514099,71.094978 214.219086,76.692894 214.096954,84.091972 
	C214.063980,86.089386 214.081985,88.087654 213.622101,90.651550 
	C212.807114,91.723114 212.136780,92.225868 212.132187,92.734619 
	C212.051498,101.679329 212.002625,110.625412 212.117813,119.568985 
	C212.128403,120.390541 213.299149,121.197151 213.931183,122.010704 
	C213.277176,122.829041 212.622650,124.357338 211.969223,124.356873 
	C204.718628,124.351685 197.468201,124.109718 190.413727,123.453415 
	C190.860886,122.820412 191.112076,122.665703 191.363251,122.511002 
	C190.965103,122.332748 190.566940,122.154503 190.168793,121.976257 
M192.002762,67.501984 
	C192.002762,83.589874 192.002762,99.677773 192.002762,115.765663 
	C192.333542,115.764313 192.664337,115.762962 192.995117,115.761612 
	C192.995117,114.130348 192.995041,112.499077 192.995148,110.867813 
	C192.996307,92.756142 193.068451,74.643944 192.935593,56.533253 
	C192.910629,53.131592 193.840897,51.727436 197.417679,51.939201 
	C201.861267,52.202282 206.332275,52.002266 210.791443,52.002266 
	C205.815933,51.000160 200.854828,51.145054 195.907410,50.947544 
	C192.781540,50.822754 191.819885,52.081490 191.958984,55.040474 
	C192.138260,58.853779 192.002838,62.681881 192.002762,67.501984 
z"/>
<path fill="#020202" opacity="1.000000" stroke="none" 
	d="
M105.900620,43.008240 
	C104.480545,43.382282 103.065674,44.054535 101.639519,44.079399 
	C95.026199,44.194687 88.409752,44.130379 81.360016,44.130379 
	C81.360016,70.885246 81.360016,97.255051 81.360016,123.927475 
	C72.737778,123.927475 64.551926,123.927475 55.978924,123.927475 
	C55.978924,97.596970 55.978924,71.364456 55.877731,44.267906 
	C54.331661,42.937767 52.900364,42.127338 51.439384,42.069733 
	C46.950375,41.892735 42.443611,41.857735 37.956261,42.053867 
	C34.879498,42.188347 33.837353,41.032509 33.951908,38.007690 
	C34.140839,33.019146 34.014301,28.018656 34.487984,23.012894 
	C56.362469,23.001272 77.770187,23.072172 99.176445,22.927845 
	C102.761314,22.903675 104.372063,23.738409 104.060646,27.616148 
	C103.756104,31.408386 103.833771,35.255154 104.085030,39.055416 
	C104.174400,40.407127 105.266335,41.692554 105.900620,43.008240 
M79.994919,107.496429 
	C79.994919,86.751678 79.994919,66.006927 79.994919,45.262173 
	C79.665558,45.263271 79.336189,45.264374 79.006828,45.265476 
	C79.006828,46.902367 79.006889,48.539257 79.006828,50.176147 
	C79.005959,72.474937 78.907501,94.774551 79.094109,117.071770 
	C79.127716,121.087776 77.901573,122.302139 73.996918,122.077896 
	C68.744438,121.776237 63.461601,122.003075 58.191792,122.003075 
	C58.202816,122.223274 58.213840,122.443481 58.224865,122.663681 
	C65.292091,122.663681 72.359322,122.663681 79.994911,122.663681 
	C79.994911,117.724815 79.994911,113.109802 79.994919,107.496429 
z"/>
<path fill="#030303" opacity="1.000000" stroke="none" 
	d="
M348.064056,81.990723 
	C350.006989,81.640274 351.944000,81.032875 353.894012,80.987640 
	C359.697327,80.853027 365.505768,80.939362 372.353088,80.939362 
	C371.857666,87.409180 371.373199,93.736122 370.346313,99.610847 
	C366.973328,98.774147 364.145996,98.089561 361.311462,98.058029 
	C350.069092,97.932907 350.146118,98.006912 349.910034,86.904640 
	C349.874939,85.254326 348.707581,83.628090 348.064056,81.990723 
z"/>
<path fill="#080808" opacity="1.000000" stroke="none" 
	d="
M348.068726,52.986290 
	C347.701904,51.000885 347.585358,49.475399 350.520966,49.547131 
	C357.485291,49.717304 364.456543,49.601871 372.037750,49.601871 
	C372.037750,54.917542 372.037750,59.992161 371.490967,65.533875 
	C367.111938,66.004906 363.278229,66.077957 359.447632,65.999626 
	C348.571747,65.777245 350.254242,67.958855 349.927399,56.509773 
	C349.828735,53.054367 350.890594,51.750706 354.439362,51.927628 
	C359.535980,52.181717 364.654724,51.992466 369.764008,51.992466 
	C363.769226,51.010471 357.793365,50.898266 351.828125,51.100178 
	C350.555176,51.143261 349.320831,52.327679 348.068726,52.986290 
z"/>
<path fill="#202020" opacity="1.000000" stroke="none" 
	d="
M131.981049,122.017303 
	C124.868637,121.832512 117.756218,121.647720 110.327362,121.233238 
	C109.942871,102.252113 109.849648,83.500710 109.815041,64.749207 
	C109.789307,50.804031 109.839539,36.858719 109.952316,22.453007 
	C110.694183,23.792835 111.894783,25.590820 111.902275,27.393763 
	C112.023140,56.485096 111.975433,85.577065 112.006584,114.668854 
	C112.015427,122.934731 111.096367,121.930099 119.576332,122.001137 
	C123.067085,122.030380 126.558319,122.003281 130.766113,121.998940 
	C131.482880,121.996056 131.981049,122.017303 131.981049,122.017303 
z"/>
<path fill="#252525" opacity="1.000000" stroke="none" 
	d="
M192.412476,39.572182 
	C191.319977,38.840687 190.166550,38.123749 190.145157,37.374496 
	C189.989365,31.917660 190.061325,26.454317 190.061325,20.716433 
	C198.105927,20.716433 205.852585,20.716433 213.919281,20.716433 
	C213.919281,26.834423 213.919281,33.030407 213.919281,39.571774 
	C206.767563,39.571774 199.821609,39.571774 192.412476,39.572182 
M192.944992,23.910538 
	C192.934738,37.051731 192.934738,37.052444 206.109985,37.020382 
	C207.267776,37.017563 208.505310,37.246502 209.558990,36.909168 
	C210.462677,36.619854 211.845596,35.656513 211.830017,35.020306 
	C211.731323,30.989246 211.302658,26.966267 210.383392,22.371321 
	C204.576340,22.572681 198.769272,22.774042 192.944992,23.910538 
z"/>
<path fill="#020202" opacity="1.000000" stroke="none" 
	d="
M34.984066,43.932457 
	C32.857197,44.381008 31.558243,44.106609 31.619390,41.346012 
	C31.773367,34.394554 31.670353,27.437405 31.670353,20.256874 
	C45.421947,20.256874 58.848808,20.254974 72.275665,20.257502 
	C82.255524,20.259378 92.236168,20.209213 102.214287,20.343351 
	C103.497772,20.360605 104.768219,21.347578 105.472290,22.100449 
	C102.909950,22.210970 100.920097,22.017357 98.930069,22.015463 
	C77.285332,21.994862 55.640560,22.004301 33.690334,22.290970 
	C33.258560,28.469210 33.017197,34.363636 33.099300,40.253559 
	C33.116512,41.488377 34.324692,42.706593 34.984066,43.932457 
z"/>
<path fill="#1C1C1C" opacity="1.000000" stroke="none" 
	d="
M261.223511,70.420731 
	C261.169098,86.208687 260.935364,102.004936 261.087769,117.797447 
	C261.128143,121.983269 259.889435,123.342705 255.750061,123.063652 
	C250.806503,122.730385 245.823303,122.985077 240.427643,122.985077 
	C240.427643,108.746895 240.427643,94.910683 240.427643,81.074471 
	C240.620026,81.070206 240.812424,81.065941 241.004807,81.061676 
	C241.004807,92.295090 240.981781,103.528564 241.012589,114.761894 
	C241.034607,122.791122 240.189423,121.986435 248.182571,122.007477 
	C260.008392,122.038612 260.007568,122.017532 260.008820,110.425003 
	C260.010071,99.116592 259.988373,87.808060 260.041626,76.499886 
	C260.050110,74.703323 260.399750,72.908371 260.873474,70.738953 
	C261.155243,70.365234 261.188782,70.427612 261.223511,70.420731 
z"/>
<path fill="#121212" opacity="1.000000" stroke="none" 
	d="
M33.995800,22.005556 
	C55.640560,22.004301 77.285332,21.994862 98.930069,22.015463 
	C100.920097,22.017357 102.909950,22.210970 105.401634,22.508999 
	C105.963020,29.164303 106.022652,35.626163 105.991447,42.548130 
	C105.266335,41.692554 104.174400,40.407127 104.085030,39.055416 
	C103.833771,35.255154 103.756104,31.408386 104.060646,27.616148 
	C104.372063,23.738409 102.761314,22.903675 99.176445,22.927845 
	C77.770187,23.072172 56.362469,23.001272 34.480225,22.758392 
	C34.002071,22.344650 33.998936,22.175102 33.995800,22.005556 
z"/>
<path fill="#212121" opacity="1.000000" stroke="none" 
	d="
M161.018677,121.981613 
	C165.672668,121.992264 170.340546,121.785217 174.976349,122.080963 
	C178.833603,122.327042 180.172668,121.161560 180.096573,117.102097 
	C179.847412,103.809395 179.965683,90.508774 180.058960,77.212006 
	C180.070679,75.541229 180.776932,73.875328 181.550842,72.098869 
	C182.034073,72.437225 182.127823,72.883881 182.123596,73.661514 
	C181.681122,75.707970 181.049347,77.421547 181.037994,79.139221 
	C180.954575,91.779190 180.995132,104.419991 180.996582,117.060524 
	C180.996780,118.841446 180.996613,120.622368 180.996613,122.628471 
	C173.771149,122.628471 167.186569,122.628471 160.563324,122.313919 
	C160.524673,121.999374 161.018677,121.981613 161.018677,121.981613 
z"/>
<path fill="#1B1B1B" opacity="1.000000" stroke="none" 
	d="
M347.980408,53.440895 
	C349.320831,52.327679 350.555176,51.143261 351.828125,51.100178 
	C357.793365,50.898266 363.769226,51.010471 369.764008,51.992466 
	C364.654724,51.992466 359.535980,52.181717 354.439362,51.927628 
	C350.890594,51.750706 349.828735,53.054367 349.927399,56.509773 
	C350.254242,67.958855 348.571747,65.777245 359.447632,65.999626 
	C363.278229,66.077957 367.111938,66.004906 371.404083,65.993668 
	C371.911865,66.157089 371.959778,66.327812 371.479462,66.747154 
	C365.045288,66.993988 359.133392,67.139488 353.237122,66.899742 
	C351.490601,66.828720 349.788208,65.672447 348.065613,65.013474 
	C348.007782,61.307484 347.949951,57.601490 347.980408,53.440895 
z"/>
<path fill="#1D1D1D" opacity="1.000000" stroke="none" 
	d="
M347.967712,82.442993 
	C348.707581,83.628090 349.874939,85.254326 349.910034,86.904640 
	C350.146118,98.006912 350.069092,97.932907 361.311462,98.058029 
	C364.145996,98.089561 366.973328,98.774147 369.905945,99.551483 
	C363.971649,100.006004 357.935333,100.067688 351.156616,99.743317 
	C349.631317,99.197311 348.848450,99.037369 348.065582,98.877434 
	C348.000824,93.550041 347.936096,88.222656 347.967712,82.442993 
z"/>
<path fill="#1D1D1D" opacity="1.000000" stroke="none" 
	d="
M33.690334,22.290970 
	C33.998936,22.175102 34.002071,22.344650 34.012970,22.768700 
	C34.014301,28.018656 34.140839,33.019146 33.951908,38.007690 
	C33.837353,41.032509 34.879498,42.188347 37.956261,42.053867 
	C42.443611,41.857735 46.950375,41.892735 51.439384,42.069733 
	C52.900364,42.127338 54.331661,42.937767 55.834530,43.815231 
	C49.230236,44.193047 42.567947,44.159496 35.444862,44.029202 
	C34.324692,42.706593 33.116512,41.488377 33.099300,40.253559 
	C33.017197,34.363636 33.258560,28.469210 33.690334,22.290970 
z"/>
<path fill="#202020" opacity="1.000000" stroke="none" 
	d="
M214.026855,121.549927 
	C213.299149,121.197151 212.128403,120.390541 212.117813,119.568985 
	C212.002625,110.625412 212.051498,101.679329 212.132187,92.734619 
	C212.136780,92.225868 212.807114,91.723114 213.554199,91.104233 
	C214.001358,101.023643 214.061935,111.056404 214.026855,121.549927 
z"/>
<path fill="#080808" opacity="1.000000" stroke="none" 
	d="
M341.006195,121.973724 
	C341.019806,121.761513 341.033386,121.549309 341.083771,121.020248 
	C341.769562,121.504959 342.418518,122.306519 343.025421,123.645340 
	C342.960022,124.372726 342.936737,124.562836 342.913483,124.752945 
	C334.084106,124.734261 325.254730,124.715584 316.223724,124.313080 
	C316.494598,123.629578 316.967102,123.329910 318.199036,123.010147 
	C321.776367,122.989143 324.600433,123.107132 327.410675,122.960236 
	C331.947296,122.723106 336.474823,122.311584 341.006195,121.973724 
z"/>
<path fill="#080808" opacity="1.000000" stroke="none" 
	d="
M315.987366,52.041351 
	C315.895294,52.352879 315.719025,52.605640 315.128052,52.693405 
	C314.600006,52.314602 314.343872,52.118427 314.029236,51.998653 
	C314.924774,51.159351 315.808868,49.606827 316.717651,49.592239 
	C324.861267,49.461483 333.009338,49.596661 341.155670,49.687950 
	C341.367920,49.690327 341.715881,50.064011 341.746735,50.298012 
	C341.778503,50.538696 341.498840,50.820446 340.490295,51.081348 
	C336.129242,51.055637 332.627045,50.890785 329.139099,51.045807 
	C324.749115,51.240921 320.370758,51.697556 315.987366,52.041351 
z"/>
<path fill="#080808" opacity="1.000000" stroke="none" 
	d="
M347.993103,65.428619 
	C349.788208,65.672447 351.490601,66.828720 353.237122,66.899742 
	C359.133392,67.139488 365.045288,66.993988 371.411621,67.004333 
	C371.122253,67.546516 370.379730,68.530647 369.621674,68.542793 
	C363.333435,68.643524 357.037537,68.679771 350.757019,68.420074 
	C349.777710,68.379578 348.864410,66.742531 347.993103,65.428619 
z"/>
<path fill="#1D1D1D" opacity="1.000000" stroke="none" 
	d="
M316.457153,52.024109 
	C320.370758,51.697556 324.749115,51.240921 329.139099,51.045807 
	C332.627045,50.890785 336.129242,51.055637 340.142365,51.077633 
	C340.659637,51.076794 340.616455,51.159916 340.662903,51.178444 
	C332.781891,51.466934 324.854431,51.736900 316.457153,52.024109 
z"/>
<path fill="#030303" opacity="1.000000" stroke="none" 
	d="
M348.015686,99.197556 
	C348.848450,99.037369 349.631317,99.197311 350.696289,99.643585 
	C349.974152,99.792503 348.969971,99.655098 348.015686,99.197556 
z"/>
<path fill="#202020" opacity="1.000000" stroke="none" 
	d="
M190.085342,122.234787 
	C190.566940,122.154503 190.965103,122.332748 191.363251,122.511002 
	C191.112076,122.665703 190.860886,122.820412 190.372665,122.997528 
	C190.091049,122.844398 190.046463,122.668861 190.085342,122.234787 
z"/>
<path fill="#1D1D1D" opacity="1.000000" stroke="none" 
	d="
M313.841888,52.150726 
	C314.343872,52.118427 314.600006,52.314602 314.919373,52.800251 
	C314.790680,52.986629 314.540192,52.959927 313.920258,52.853668 
	C313.550842,52.774105 313.654541,52.302799 313.841888,52.150726 
z"/>
<path fill="#4E4E4E" opacity="1.000000" stroke="none" 
	d="
M343.198364,124.870041 
	C342.936737,124.562836 342.960022,124.372726 343.140564,123.942017 
	C343.359589,124.129997 343.421417,124.558563 343.198364,124.870041 
z"/>
<path fill="#141414" opacity="1.000000" stroke="none" 
	d="
M161.009232,121.514877 
	C161.018677,121.981613 160.524673,121.999374 160.278137,122.011520 
	C160.031586,108.757423 160.031586,95.491173 160.031586,82.224922 
	C160.354324,82.222282 160.677048,82.219643 160.999786,82.217003 
	C160.999786,95.160713 160.999786,108.104431 161.009232,121.514877 
z"/>
<path fill="#111111" opacity="1.000000" stroke="none" 
	d="
M131.987030,121.546944 
	C131.981049,122.017303 131.482880,121.996056 131.233490,121.988953 
	C130.984085,109.054123 130.984085,96.126411 130.984085,83.198692 
	C131.320389,83.196388 131.656708,83.194084 131.993011,83.191780 
	C131.993011,95.820045 131.993011,108.448318 131.987030,121.546944 
z"/>
<path fill="#1D1D1D" opacity="1.000000" stroke="none" 
	d="
M272.004883,76.000000 
	C272.004883,57.892838 272.004883,40.285671 272.004883,22.341278 
	C279.132599,22.341278 285.690155,22.341278 292.622406,22.341278 
	C292.622406,41.250523 292.622406,59.976223 292.622406,78.701927 
	C292.417023,78.724419 292.211609,78.746910 292.006226,78.769402 
	C292.006226,77.336441 292.006012,75.903481 292.006287,74.470520 
	C292.009033,58.815895 291.926636,43.160427 292.081055,27.507296 
	C292.115082,24.056034 291.087982,22.953276 287.566864,22.919367 
	C272.997864,22.779079 272.997620,22.665956 272.995880,37.367359 
	C272.992767,63.846992 272.991455,90.326630 272.989410,116.806259 
	C272.989258,118.446877 272.989380,120.087494 272.989380,121.728111 
	C272.661224,121.730492 272.333038,121.732872 272.004883,121.735252 
	C272.004883,106.656837 272.004883,91.578415 272.004883,76.000000 
z"/>
<path fill="#202020" opacity="1.000000" stroke="none" 
	d="
M292.009766,98.272224 
	C292.009766,96.233925 292.009766,94.653824 292.009766,93.073723 
	C292.189514,93.078415 292.369263,93.083107 292.549011,93.087799 
	C292.549011,102.887276 292.549011,112.686752 292.549011,122.486229 
	C292.369263,122.482353 292.189545,122.478470 292.009796,122.474586 
	C292.009796,114.559868 292.009796,106.645142 292.009766,98.272224 
z"/>
<path fill="#151515" opacity="1.000000" stroke="none" 
	d="
M340.536865,121.978607 
	C336.474823,122.311584 331.947296,122.723106 327.410675,122.960236 
	C324.600433,123.107132 321.776367,122.989143 318.493073,122.992279 
	C322.890747,122.666183 327.751129,122.286827 332.618042,122.030853 
	C335.095184,121.900566 337.584015,121.992180 340.536865,121.978607 
z"/>
<path fill="#0D0D0D" opacity="1.000000" stroke="none" 
	d="
M192.002838,67.002792 
	C192.002838,62.681881 192.138260,58.853779 191.958984,55.040474 
	C191.819885,52.081490 192.781540,50.822754 195.907410,50.947544 
	C200.854828,51.145054 205.815933,51.000160 210.791443,52.002266 
	C206.332275,52.002266 201.861267,52.202282 197.417679,51.939201 
	C193.840897,51.727436 192.910629,53.131592 192.935593,56.533253 
	C193.068451,74.643944 192.996307,92.756142 192.995148,110.867813 
	C192.995041,112.499077 192.995117,114.130348 192.995117,115.761612 
	C192.664337,115.762962 192.333542,115.764313 192.002762,115.765663 
	C192.002762,99.677773 192.002762,83.589874 192.002838,67.002792 
z"/>
<path fill="#232323" opacity="1.000000" stroke="none" 
	d="
M79.994919,107.995605 
	C79.994911,113.109802 79.994911,117.724815 79.994911,122.663681 
	C72.359322,122.663681 65.292091,122.663681 58.224865,122.663681 
	C58.213840,122.443481 58.202816,122.223274 58.191792,122.003075 
	C63.461601,122.003075 68.744438,121.776237 73.996918,122.077896 
	C77.901573,122.302139 79.127716,121.087776 79.094109,117.071770 
	C78.907501,94.774551 79.005959,72.474937 79.006828,50.176147 
	C79.006889,48.539257 79.006828,46.902367 79.006828,45.265476 
	C79.336189,45.264374 79.665558,45.263271 79.994919,45.262173 
	C79.994919,66.006927 79.994919,86.751678 79.994919,107.995605 
z"/>
<path fill="#000000" opacity="1.000000" stroke="none" 
	d="
M210.982849,22.940622 
	C211.302658,26.966267 211.731323,30.989246 211.830017,35.020306 
	C211.845596,35.656513 210.462677,36.619854 209.558990,36.909168 
	C208.505310,37.246502 207.267776,37.017563 206.109985,37.020382 
	C192.934738,37.052444 192.934738,37.051731 193.425262,23.451519 
	C199.597977,22.975208 205.290405,22.957916 210.982849,22.940622 
z"/>
<path fill="#202020" opacity="1.000000" stroke="none" 
	d="
M210.683105,22.655972 
	C205.290405,22.957916 199.597977,22.975208 193.433884,22.983952 
	C198.769272,22.774042 204.576340,22.572681 210.683105,22.655972 
z"/>
</svg>