<svg version="1.1" id="Layer_1" xmlns="http://www.w3.org/2000/svg" xmlns:xlink="http://www.w3.org/1999/xlink" x="0px" y="0px"
	 width="100%" viewBox="0 0 400 136" enable-background="new 0 0 400 136" xml:space="preserve">
<path fill="#FCFCFC" opacity="1.000000" stroke="none" 
	d="
M261.000000,137.000000 
	C174.000015,137.000000 87.500038,137.000000 1.000046,137.000000 
	C1.000031,91.666695 1.000031,46.333397 1.000015,1.000071 
	C134.333267,1.000047 267.666534,1.000047 400.999878,1.000024 
	C400.999908,46.333256 400.999908,91.666512 400.999939,136.999878 
	C354.500000,137.000000 308.000000,137.000000 261.000000,137.000000 
M340.764923,51.986149 
	C342.952423,49.180096 340.616608,49.617550 339.029541,49.605904 
	C332.078461,49.554905 325.117859,49.330696 318.183228,49.653522 
	C316.641388,49.725304 315.190887,51.759380 313.084045,53.146782 
	C308.744049,59.653465 304.463196,66.200775 300.034485,72.646507 
	C298.303497,75.165886 296.240295,77.457016 294.416382,79.238464 
	C294.323456,78.841751 294.230530,78.445030 294.388428,77.148636 
	C294.388428,58.420712 294.388428,39.692787 294.388428,20.896883 
	C286.290009,20.896883 278.691101,20.896883 270.938660,20.896883 
	C270.938660,55.589733 270.938660,90.076279 270.938660,124.345886 
	C278.927826,124.345886 286.500549,124.345886 294.524780,124.345886 
	C294.524780,113.617737 294.524780,103.223267 294.524780,91.661751 
	C296.067871,93.843330 296.942932,94.989624 297.722656,96.197510 
	C303.129669,104.573708 308.462646,112.998634 313.964447,121.311897 
	C314.870758,122.681374 316.458160,124.499832 317.784515,124.545372 
	C326.312164,124.838165 334.854736,124.694962 344.125122,124.694962 
	C334.860992,111.040230 326.117310,98.152618 317.268127,85.109512 
	C320.773010,80.133804 324.225189,75.265144 327.642731,70.372299 
	C331.156891,65.341080 334.637238,60.286224 338.692993,54.982357 
	C339.169983,54.087391 339.646973,53.192425 340.764923,51.986149 
M133.799194,82.402267 
	C133.806976,81.929672 133.814758,81.457069 134.110199,80.327675 
	C137.150131,73.116272 142.180862,69.972343 148.667099,71.230423 
	C154.632614,72.387520 158.304642,77.586220 158.328629,85.012276 
	C158.350647,91.823822 158.307098,98.635544 158.300507,105.447205 
	C158.294479,111.683319 158.299225,117.919456 158.299225,124.085388 
	C166.605698,124.085388 174.310944,124.085388 182.020462,124.085388 
	C182.020462,107.168770 182.020462,90.581413 182.218414,73.324898 
	C182.114029,72.878281 182.009659,72.431671 181.947098,71.214577 
	C180.058716,61.640251 175.888992,53.512974 166.326218,49.753262 
	C155.996307,45.691944 145.951675,46.292767 136.819885,53.371651 
	C135.908661,54.078022 134.645584,57.008610 133.693375,53.307407 
	C133.693375,53.307407 133.649063,53.203472 133.827423,52.532852 
	C133.769424,50.724018 133.711426,48.915188 133.895844,46.311401 
	C133.853622,38.201885 133.811401,30.092367 133.905701,21.268137 
	C132.614624,21.051779 131.323563,20.835423 129.367096,20.328085 
	C128.902252,20.421965 128.437408,20.515842 127.149910,20.364437 
	C125.443932,20.440605 123.737953,20.516773 121.210770,20.305096 
	C118.436630,20.390335 115.662498,20.475573 112.079567,20.347456 
	C111.409531,20.896126 110.739494,21.444796 109.878258,22.910868 
	C109.926643,27.940182 109.975021,32.969494 109.848679,38.922028 
	C109.902390,66.948540 109.956108,94.975060 110.158043,123.908142 
	C117.872993,123.908142 125.587936,123.908142 133.482971,123.908142 
	C133.482971,110.211227 133.482971,96.626991 133.799194,82.402267 
M371.566650,98.582809 
	C371.566650,98.582809 371.524841,98.437515 371.773315,98.058678 
	C371.870148,97.736855 371.802094,97.454880 371.772705,96.362312 
	C371.789642,92.112892 371.901917,87.859879 371.741486,83.617172 
	C371.710205,82.789101 370.620270,82.001068 369.096527,81.003685 
	C362.389160,81.052200 355.681793,81.100708 348.420441,81.030899 
	C348.306274,81.348579 348.192108,81.666260 347.886322,82.902596 
	C347.952057,87.937904 348.017792,92.973206 347.951630,98.895370 
	C348.537384,99.287590 349.122742,100.019638 349.708923,100.020287 
	C356.801208,100.028191 363.893646,99.928200 371.473724,99.975212 
	C371.507629,99.561386 371.541565,99.147560 371.566650,98.582809 
M81.317711,50.146385 
	C81.248810,48.440331 81.179916,46.734276 81.662086,44.400814 
	C89.733635,44.400814 97.805176,44.400814 105.824127,44.400814 
	C105.824127,35.886501 105.824127,28.288490 105.824127,20.377804 
	C81.037117,20.377804 56.474621,20.377804 31.967442,20.377804 
	C31.967442,28.310028 31.967442,36.053013 31.967442,44.296623 
	C40.129921,44.296623 48.036480,44.296623 56.245125,44.296623 
	C56.245125,71.222404 56.245125,97.642525 56.245125,124.070427 
	C62.390511,124.070427 68.208366,124.070427 74.740692,124.321686 
	C75.485168,124.237000 76.229652,124.152321 77.829124,124.226379 
	C80.389420,124.625931 81.769531,123.862595 81.229637,120.079597 
	C81.175804,98.395142 81.121979,76.710686 81.219589,54.223003 
	C81.170517,53.137901 81.121452,52.052803 81.317711,50.146385 
M214.186356,36.137535 
	C214.136963,34.095802 214.087570,32.054073 214.217209,29.265593 
	C214.217209,26.363064 214.217209,23.460537 214.217209,20.835217 
	C205.732666,20.835217 198.001129,20.835217 190.261322,20.835217 
	C190.261322,27.161087 190.261322,33.106693 190.261322,39.623417 
	C197.711746,39.623417 204.994385,39.685596 212.271301,39.509811 
	C212.878098,39.495155 213.446152,37.875557 214.186356,36.137535 
M214.611298,79.564850 
	C216.208221,77.495071 217.426315,74.835350 219.498047,73.504982 
	C222.082169,71.845604 225.605194,70.003815 228.306213,70.501556 
	C234.595078,71.660439 238.719971,78.047729 238.741699,84.807320 
	C238.776398,95.605942 238.727768,106.404823 238.715591,117.203598 
	C238.712875,119.610168 238.715195,122.016747 238.715195,124.386002 
	C247.013779,124.386002 254.576721,124.386002 262.601288,124.386002 
	C262.601288,114.362366 262.663483,104.596382 262.580841,94.831619 
	C262.519196,87.543221 262.270508,80.256401 262.281250,72.308281 
	C262.174286,71.870499 262.067291,71.432716 262.012054,70.228096 
	C257.637238,53.939854 248.204239,46.344189 232.207352,47.915501 
	C225.992096,48.526005 220.052979,51.947929 214.189880,54.017933 
	C214.157211,53.358624 214.068359,51.565823 213.968384,49.548409 
	C206.049561,49.548409 198.292206,49.548409 190.378098,49.548409 
	C190.378098,62.733303 190.378098,75.855698 190.145752,89.721176 
	C190.221741,90.487907 190.297714,91.254631 190.167618,92.935211 
	C190.210342,102.611130 190.253052,112.287048 190.058899,122.756256 
	C191.133438,123.350327 192.189331,124.414291 193.285721,124.457809 
	C198.252701,124.654968 203.248123,124.314087 208.200378,124.650993 
	C212.659332,124.954330 214.251877,123.468903 214.173050,118.878006 
	C213.951080,105.951172 214.154175,93.017052 214.611298,79.564850 
M351.527435,49.623085 
	C350.328308,50.260052 348.124512,50.845726 348.088959,51.542091 
	C347.804474,57.114563 347.930023,62.707970 347.930023,68.264900 
	C356.241150,68.264900 363.983398,68.264900 371.715149,68.264900 
	C371.715149,61.889843 371.715149,55.816063 371.715149,49.624889 
	C365.131134,49.624889 358.826202,49.624889 351.527435,49.623085 
z"/>
<path fill="#040404" opacity="1.000000" stroke="none" 
	d="
M338.132355,55.241714 
	C334.637238,60.286224 331.156891,65.341080 327.642731,70.372299 
	C324.225189,75.265144 320.773010,80.133804 317.268127,85.109512 
	C326.117310,98.152618 334.860992,111.040230 344.125122,124.694962 
	C334.854736,124.694962 326.312164,124.838165 317.784515,124.545372 
	C316.458160,124.499832 314.870758,122.681374 313.964447,121.311897 
	C308.462646,112.998634 303.129669,104.573708 297.722656,96.197510 
	C296.942932,94.989624 296.067871,93.843330 294.524780,91.661751 
	C294.524780,103.223267 294.524780,113.617737 294.524780,124.345886 
	C286.500549,124.345886 278.927826,124.345886 270.938660,124.345886 
	C270.938660,90.076279 270.938660,55.589733 270.938660,20.896883 
	C278.691101,20.896883 286.290009,20.896883 294.388428,20.896883 
	C294.388428,39.692787 294.388428,58.420712 293.936462,77.324982 
	C293.321747,75.710739 293.022430,73.920525 293.017426,72.129494 
	C292.971649,55.748081 292.977051,39.366528 292.684387,22.682205 
	C285.809662,22.379396 279.217957,22.379396 272.330383,22.379396 
	C272.330383,55.689697 272.330383,88.734070 272.330383,121.778450 
	C272.989349,116.981903 272.989044,112.178116 272.989380,107.374336 
	C272.991302,80.892159 273.076324,54.409458 272.906830,27.928381 
	C272.881165,23.917501 274.088959,22.651770 278.005432,22.912046 
	C282.648895,23.220631 287.327637,22.997992 291.996826,23.473862 
	C292.002838,41.080006 291.945160,58.218407 292.104431,75.354797 
	C292.118408,76.860657 293.553406,78.353310 294.328400,79.852097 
	C296.240295,77.457016 298.303497,75.165886 300.034485,72.646507 
	C304.463196,66.200775 308.744049,59.653465 313.722382,53.046722 
	C314.905640,52.634766 315.450562,52.322868 316.464508,52.003136 
	C322.580750,51.994312 328.240479,52.215496 333.869904,51.898476 
	C336.678314,51.740318 337.632599,52.954159 338.132355,55.241714 
M292.990662,118.961243 
	C292.990662,110.672722 292.990662,102.384201 292.990662,94.095680 
	C292.707367,94.095505 292.424103,94.095322 292.140808,94.095146 
	C292.140808,103.548454 292.140808,113.001755 292.140808,122.455063 
	C292.279846,122.476791 292.418854,122.498528 292.557892,122.520256 
	C292.701996,121.614883 292.846100,120.709518 292.990662,118.961243 
M321.207520,122.007172 
	C320.712280,122.024918 320.215546,122.025887 319.722778,122.070717 
	C319.576263,122.084053 319.426147,122.203377 319.306000,122.306976 
	C319.233917,122.369118 319.216583,122.494797 319.138855,122.674759 
	C326.056091,122.674759 332.934235,122.674759 339.812378,122.674759 
	C339.812042,122.452080 339.811676,122.229393 339.811340,122.006714 
	C333.892120,122.006714 327.972900,122.006714 321.207520,122.007172 
z"/>
<path fill="#020202" opacity="1.000000" stroke="none" 
	d="
M133.649368,53.340343 
	C134.645584,57.008610 135.908661,54.078022 136.819885,53.371651 
	C145.951675,46.292767 155.996307,45.691944 166.326218,49.753262 
	C175.888992,53.512974 180.058716,61.640251 181.538879,71.708672 
	C180.754166,73.880219 180.062485,75.555542 180.051132,77.235458 
	C179.961365,90.527138 179.843735,103.822670 180.095657,117.110176 
	C180.172791,121.178337 178.813843,122.323112 174.969025,122.080704 
	C170.334641,121.788506 165.668808,121.995049 161.009003,121.518524 
	C161.001434,108.103989 161.001434,95.156624 161.001434,82.209251 
	C160.679520,82.211914 160.357620,82.214577 160.035706,82.217239 
	C160.035706,95.485939 160.035706,108.754639 160.322174,122.323906 
	C167.311569,122.624474 174.014465,122.624474 180.998947,122.624474 
	C180.998947,107.728439 180.964554,93.435974 181.043991,79.144150 
	C181.053528,77.425697 181.679962,75.710670 182.020477,73.994049 
	C182.020462,90.581413 182.020462,107.168770 182.020462,124.085388 
	C174.310944,124.085388 166.605698,124.085388 158.299225,124.085388 
	C158.299225,117.919456 158.294479,111.683319 158.300507,105.447205 
	C158.307098,98.635544 158.350647,91.823822 158.328629,85.012276 
	C158.304642,77.586220 154.632614,72.387520 148.667099,71.230423 
	C142.180862,69.972343 137.150131,73.116272 133.586395,80.720840 
	C132.376389,82.620117 131.232651,84.086433 131.097473,85.640480 
	C130.799118,89.070557 131.008820,92.544830 131.006989,96.449448 
	C131.004852,99.598244 131.006943,102.298660 131.005798,105.466705 
	C130.996735,111.267868 130.990906,116.601395 130.517975,121.955437 
	C125.735374,121.983917 121.396820,121.717117 117.110855,122.076904 
	C112.797188,122.439018 111.891479,120.685501 111.914658,116.687866 
	C112.066666,90.463524 111.982979,64.237816 111.986801,37.544144 
	C112.000137,33.755737 112.127106,30.429783 111.967918,27.117577 
	C111.830711,24.262552 112.605133,22.768951 115.823380,22.946903 
	C119.629776,23.157375 123.461304,23.112751 127.273109,22.959387 
	C130.058716,22.847313 131.117355,23.893681 131.051819,26.705912 
	C130.912643,32.678654 131.010406,38.656918 131.010788,44.632915 
	C131.011032,48.184849 131.010818,51.736782 131.010818,55.288715 
	C131.407776,55.350040 131.804733,55.411366 132.201675,55.472691 
	C132.684235,54.761906 133.166809,54.051125 133.649368,53.340343 
z"/>
<path fill="#040404" opacity="1.000000" stroke="none" 
	d="
M262.105103,72.968880 
	C262.270508,80.256401 262.519196,87.543221 262.580841,94.831619 
	C262.663483,104.596382 262.601288,114.362366 262.601288,124.386002 
	C254.576721,124.386002 247.013779,124.386002 238.715195,124.386002 
	C238.715195,122.016747 238.712875,119.610168 238.715591,117.203598 
	C238.727768,106.404823 238.776398,95.605942 238.741699,84.807320 
	C238.719971,78.047729 234.595078,71.660439 228.306213,70.501556 
	C225.605194,70.003815 222.082169,71.845604 219.498047,73.504982 
	C217.426315,74.835350 216.208221,77.495071 213.989685,79.886185 
	C212.918945,81.819351 212.098450,83.427139 212.080902,85.043640 
	C211.967529,95.493866 211.769455,105.955467 212.149857,116.393272 
	C212.324432,121.183098 210.638596,122.380356 206.216232,122.087685 
	C200.929810,121.737839 195.604340,121.978226 190.295776,121.962967 
	C190.253052,112.287048 190.210342,102.611130 190.662842,92.451843 
	C191.767319,91.139168 192.899353,90.314819 192.907257,89.479843 
	C193.021835,77.356216 192.985825,65.231163 192.985825,53.106453 
	C192.657974,53.105022 192.330109,53.103592 192.002258,53.102165 
	C192.002258,54.667625 192.002228,56.233089 192.002274,57.798550 
	C192.002518,66.631180 192.081268,75.465149 191.929886,84.295181 
	C191.902985,85.864548 190.919739,87.417534 190.378082,88.978088 
	C190.378098,75.855698 190.378098,62.733303 190.378098,49.548409 
	C198.292206,49.548409 206.049561,49.548409 213.968384,49.548409 
	C214.068359,51.565823 214.157211,53.358624 214.189880,54.017933 
	C220.052979,51.947929 225.992096,48.526005 232.207352,47.915501 
	C248.204239,46.344189 257.637238,53.939854 261.592773,70.710526 
	C260.788422,72.694572 260.083344,74.193275 260.069641,75.698273 
	C259.972626,86.347893 260.016235,96.998810 260.017365,107.649307 
	C260.018921,122.634430 260.022430,122.548630 244.953247,122.080490 
	C241.896713,121.985550 240.917114,121.016335 240.958466,118.008507 
	C241.095764,108.025558 241.009338,98.039536 241.008789,88.054688 
	C241.008667,85.773888 241.008774,83.493095 241.008774,81.212296 
	C240.785767,81.229622 240.562775,81.246948 240.339767,81.264275 
	C240.339767,94.983734 240.339767,108.703186 240.339767,122.665405 
	C247.245743,122.665405 253.799149,122.665405 260.984070,122.665405 
	C260.984070,120.570930 260.984222,118.793297 260.984039,117.015671 
	C260.982727,104.035370 260.940186,91.054787 261.029877,78.075111 
	C261.041626,76.370644 261.730072,74.670845 262.105103,72.968880 
z"/>
<path fill="#030303" opacity="1.000000" stroke="none" 
	d="
M74.026222,124.070427 
	C68.208366,124.070427 62.390511,124.070427 56.245125,124.070427 
	C56.245125,97.642525 56.245125,71.222404 56.245125,44.296623 
	C48.036480,44.296623 40.129921,44.296623 31.967442,44.296623 
	C31.967442,36.053013 31.967442,28.310028 31.967442,20.377804 
	C56.474621,20.377804 81.037117,20.377804 105.824127,20.377804 
	C105.824127,28.288490 105.824127,35.886501 105.824127,44.400814 
	C97.805176,44.400814 89.733635,44.400814 80.987915,44.810631 
	C79.888313,47.021400 79.099823,48.820915 79.092697,50.623528 
	C79.005890,72.552910 78.886810,94.484489 79.148315,116.411064 
	C79.205132,121.174683 77.665916,122.440109 73.217674,122.108078 
	C68.525703,121.757858 63.787312,122.029564 59.069202,122.029564 
	C60.855225,122.971100 62.661270,122.847496 64.444138,122.998161 
	C67.645515,123.268700 70.832954,123.703979 74.026222,124.070427 
z"/>
<path fill="#030303" opacity="1.000000" stroke="none" 
	d="
M352.024353,49.623985 
	C358.826202,49.624889 365.131134,49.624889 371.715149,49.624889 
	C371.715149,55.816063 371.715149,61.889843 371.715149,68.264900 
	C363.983398,68.264900 356.241150,68.264900 347.930023,68.264900 
	C347.930023,62.707970 347.804474,57.114563 348.088959,51.542091 
	C348.124512,50.845726 350.328308,50.260052 352.024353,49.623985 
M367.477905,51.790115 
	C367.918335,51.720470 368.358795,51.650822 370.029907,51.386578 
	C362.619415,51.386578 356.452515,51.386578 350.285614,51.386578 
	C350.285461,51.520725 350.285309,51.654873 350.285126,51.789021 
	C355.754303,51.789021 361.223450,51.789021 367.477905,51.790115 
z"/>
<path fill="#010101" opacity="1.000000" stroke="none" 
	d="
M370.986023,99.856277 
	C363.893646,99.928200 356.801208,100.028191 349.708923,100.020287 
	C349.122742,100.019638 348.537384,99.287590 348.405212,98.346786 
	C349.239624,94.463120 349.510345,91.109840 350.056793,87.802101 
	C350.268311,86.521889 351.065430,84.305298 351.661926,84.282974 
	C357.114227,84.078835 362.700378,83.703003 367.941681,84.816612 
	C368.971954,85.035515 368.690521,91.445755 369.005249,95.001343 
	C369.078217,95.825607 368.830750,96.866516 369.246613,97.420464 
	C369.683136,98.001900 370.739410,98.118027 371.524841,98.437515 
	C371.524841,98.437515 371.566650,98.582809 371.372833,98.912277 
	C371.114685,99.446579 371.050354,99.651428 370.986023,99.856277 
z"/>
<path fill="#1C1C1C" opacity="1.000000" stroke="none" 
	d="
M111.976234,38.012558 
	C111.982979,64.237816 112.066666,90.463524 111.914658,116.687866 
	C111.891479,120.685501 112.797188,122.439018 117.110855,122.076904 
	C121.396820,121.717117 125.735374,121.983917 130.526703,122.222626 
	C131.002396,122.647079 131.002274,122.824837 130.533478,123.002457 
	C123.379822,123.002075 116.694824,123.001823 110.009827,123.001572 
	C109.956108,94.975060 109.902390,66.948540 110.261612,38.467834 
	C111.108444,38.013275 111.542343,38.012917 111.976234,38.012558 
z"/>
<path fill="#252525" opacity="1.000000" stroke="none" 
	d="
M214.032211,37.001633 
	C213.446152,37.875557 212.878098,39.495155 212.271301,39.509811 
	C204.994385,39.685596 197.711746,39.623417 190.261322,39.623417 
	C190.261322,33.106693 190.261322,27.161087 190.261322,20.835217 
	C198.001129,20.835217 205.732666,20.835217 214.217209,20.835217 
	C214.217209,23.460537 214.217209,26.363064 213.799072,29.628578 
	C212.942612,29.988394 212.504288,29.985224 212.047577,29.563164 
	C211.681778,27.074360 211.334381,25.004442 210.714264,22.663021 
	C207.966507,22.568220 205.491470,22.744921 202.557343,22.936945 
	C192.939545,23.011333 192.936966,23.011335 192.945892,32.072701 
	C192.947510,33.718994 192.980042,35.365253 193.293304,37.307259 
	C199.387543,37.424133 205.186798,37.245270 211.232803,37.049126 
	C211.479538,37.031841 211.972015,36.985100 212.315338,36.992401 
	C213.116516,37.000351 213.574371,37.000992 214.032211,37.001633 
z"/>
<path fill="#292929" opacity="1.000000" stroke="none" 
	d="
M74.383453,124.196060 
	C70.832954,123.703979 67.645515,123.268700 64.444138,122.998161 
	C62.661270,122.847496 60.855225,122.971100 59.069202,122.029564 
	C63.787312,122.029564 68.525703,121.757858 73.217674,122.108078 
	C77.665916,122.440109 79.205132,121.174683 79.148315,116.411064 
	C78.886810,94.484489 79.005890,72.552910 79.092697,50.623528 
	C79.099823,48.820915 79.888313,47.021400 80.712387,45.124336 
	C81.179916,46.734276 81.248810,48.440331 80.897545,50.744537 
	C80.674301,52.570538 80.871223,53.798386 81.068146,55.026230 
	C81.121979,76.710686 81.175804,98.395142 80.833870,120.701683 
	C79.283447,122.238396 78.128784,123.153015 76.974121,124.067642 
	C76.229652,124.152321 75.485168,124.237000 74.383453,124.196060 
z"/>
<path fill="#131313" opacity="1.000000" stroke="none" 
	d="
M111.986801,37.544144 
	C111.542343,38.012917 111.108444,38.013275 110.348984,38.006226 
	C109.975021,32.969494 109.926643,27.940182 110.330307,22.449558 
	C111.484360,21.512436 112.186363,21.036623 112.888359,20.560810 
	C115.662498,20.475573 118.436630,20.390335 121.750191,20.749533 
	C124.183929,20.999220 126.078247,20.804470 127.972565,20.609720 
	C128.437408,20.515842 128.902252,20.421965 129.816406,20.759165 
	C131.433533,21.454447 132.601364,21.718649 133.769196,21.982849 
	C133.811401,30.092367 133.853622,38.201885 133.386688,46.851891 
	C133.134720,49.329407 133.391891,51.266438 133.649063,53.203472 
	C133.649063,53.203472 133.693375,53.307407 133.671371,53.323875 
	C133.166809,54.051125 132.684235,54.761906 132.201675,55.472691 
	C131.804733,55.411366 131.407776,55.350040 131.010818,55.288715 
	C131.010818,51.736782 131.011032,48.184849 131.010788,44.632915 
	C131.010406,38.656918 130.912643,32.678654 131.051819,26.705912 
	C131.117355,23.893681 130.058716,22.847313 127.273109,22.959387 
	C123.461304,23.112751 119.629776,23.157375 115.823380,22.946903 
	C112.605133,22.768951 111.830711,24.262552 111.967918,27.117577 
	C112.127106,30.429783 112.000137,33.755737 111.986801,37.544144 
z"/>
<path fill="#1E1E1E" opacity="1.000000" stroke="none" 
	d="
M190.177338,122.359604 
	C195.604340,121.978226 200.929810,121.737839 206.216232,122.087685 
	C210.638596,122.380356 212.324432,121.183098 212.149857,116.393272 
	C211.769455,105.955467 211.967529,95.493866 212.080902,85.043640 
	C212.098450,83.427139 212.918945,81.819351 213.778900,80.146667 
	C214.154175,93.017052 213.951080,105.951172 214.173050,118.878006 
	C214.251877,123.468903 212.659332,124.954330 208.200378,124.650993 
	C203.248123,124.314087 198.252701,124.654968 193.285721,124.457809 
	C192.189331,124.414291 191.133438,123.350327 190.177338,122.359604 
z"/>
<path fill="#1B1B1B" opacity="1.000000" stroke="none" 
	d="
M262.193176,72.638580 
	C261.730072,74.670845 261.041626,76.370644 261.029877,78.075111 
	C260.940186,91.054787 260.982727,104.035370 260.984039,117.015671 
	C260.984222,118.793297 260.984070,120.570930 260.984070,122.665405 
	C253.799149,122.665405 247.245743,122.665405 240.339767,122.665405 
	C240.339767,108.703186 240.339767,94.983734 240.339767,81.264275 
	C240.562775,81.246948 240.785767,81.229622 241.008774,81.212296 
	C241.008774,83.493095 241.008667,85.773888 241.008789,88.054688 
	C241.009338,98.039536 241.095764,108.025558 240.958466,118.008507 
	C240.917114,121.016335 241.896713,121.985550 244.953247,122.080490 
	C260.022430,122.548630 260.018921,122.634430 260.017365,107.649307 
	C260.016235,96.998810 259.972626,86.347893 260.069641,75.698273 
	C260.083344,74.193275 260.788422,72.694572 261.566895,71.093948 
	C262.067291,71.432716 262.174286,71.870499 262.193176,72.638580 
z"/>
<path fill="#151515" opacity="1.000000" stroke="none" 
	d="
M371.649078,98.248100 
	C370.739410,98.118027 369.683136,98.001900 369.246613,97.420464 
	C368.830750,96.866516 369.078217,95.825607 369.005249,95.001343 
	C368.690521,91.445755 368.971954,85.035515 367.941681,84.816612 
	C362.700378,83.703003 357.114227,84.078835 351.661926,84.282974 
	C351.065430,84.305298 350.268311,86.521889 350.056793,87.802101 
	C349.510345,91.109840 349.239624,94.463120 348.471130,97.903366 
	C348.017792,92.973206 347.952057,87.937904 348.175964,82.358459 
	C348.700745,81.642754 348.870361,81.421051 348.974426,81.149223 
	C355.681793,81.100708 362.389160,81.052200 369.561432,81.553749 
	C370.014709,84.234451 369.801483,86.387985 370.040161,88.490204 
	C370.372589,91.417847 371.043274,94.307076 371.569153,97.212746 
	C371.802094,97.454880 371.870148,97.736855 371.649078,98.248100 
z"/>
<path fill="#020202" opacity="1.000000" stroke="none" 
	d="
M110.083939,123.454857 
	C116.694824,123.001823 123.379822,123.002075 130.837494,122.714783 
	C131.737320,116.617889 131.864456,110.808548 131.994934,104.550766 
	C131.995255,101.401909 131.992233,98.701477 131.992218,95.540588 
	C132.491135,91.067665 132.987045,87.055214 133.482971,83.042755 
	C133.482971,96.626991 133.482971,110.211227 133.482971,123.908142 
	C125.587936,123.908142 117.872993,123.908142 110.083939,123.454857 
z"/>
<path fill="#212121" opacity="1.000000" stroke="none" 
	d="
M161.016586,121.985703 
	C165.668808,121.995049 170.334641,121.788506 174.969025,122.080704 
	C178.813843,122.323112 180.172791,121.178337 180.095657,117.110176 
	C179.843735,103.822670 179.961365,90.527138 180.051132,77.235458 
	C180.062485,75.555542 180.754166,73.880219 181.517960,72.093910 
	C182.009659,72.431671 182.114029,72.878281 182.119446,73.659470 
	C181.679962,75.710670 181.053528,77.425697 181.043991,79.144150 
	C180.964554,93.435974 180.998947,107.728439 180.998947,122.624474 
	C174.014465,122.624474 167.311569,122.624474 160.567169,122.313179 
	C160.525665,122.001884 161.016586,121.985703 161.016586,121.985703 
z"/>
<path fill="#191919" opacity="1.000000" stroke="none" 
	d="
M294.372375,79.545273 
	C293.553406,78.353310 292.118408,76.860657 292.104431,75.354797 
	C291.945160,58.218407 292.002838,41.080006 292.240997,23.470459 
	C292.479431,22.998775 292.967499,22.985012 292.967468,22.985012 
	C292.977051,39.366528 292.971649,55.748081 293.017426,72.129494 
	C293.022430,73.920525 293.321747,75.710739 293.811035,77.774818 
	C294.230530,78.445030 294.323456,78.841751 294.372375,79.545273 
z"/>
<path fill="#090909" opacity="1.000000" stroke="none" 
	d="
M315.995483,52.010979 
	C315.450562,52.322868 314.905640,52.634766 314.029541,52.918312 
	C315.190887,51.759380 316.641388,49.725304 318.183228,49.653522 
	C325.117859,49.330696 332.078461,49.554905 339.029541,49.605904 
	C340.616608,49.617550 342.952423,49.180096 340.184509,51.791832 
	C331.734558,51.735336 323.865021,51.873158 315.995483,52.010979 
z"/>
<path fill="#0E0E0E" opacity="1.000000" stroke="none" 
	d="
M190.261917,89.349632 
	C190.919739,87.417534 191.902985,85.864548 191.929886,84.295181 
	C192.081268,75.465149 192.002518,66.631180 192.002274,57.798550 
	C192.002228,56.233089 192.002258,54.667625 192.002258,53.102165 
	C192.330109,53.103592 192.657974,53.105022 192.985825,53.106453 
	C192.985825,65.231163 193.021835,77.356216 192.907257,89.479843 
	C192.899353,90.314819 191.767319,91.139168 190.765884,91.994919 
	C190.297714,91.254631 190.221741,90.487907 190.261917,89.349632 
z"/>
<path fill="#212121" opacity="1.000000" stroke="none" 
	d="
M316.464508,52.003139 
	C323.865021,51.873158 331.734558,51.735336 339.864014,51.947487 
	C339.646973,53.192425 339.169983,54.087391 338.412659,55.112034 
	C337.632599,52.954159 336.678314,51.740318 333.869904,51.898476 
	C328.240479,52.215496 322.580750,51.994312 316.464508,52.003139 
z"/>
<path fill="#010101" opacity="1.000000" stroke="none" 
	d="
M371.670929,96.787529 
	C371.043274,94.307076 370.372589,91.417847 370.040161,88.490204 
	C369.801483,86.387985 370.014709,84.234451 370.022491,81.649185 
	C370.620270,82.001068 371.710205,82.789101 371.741486,83.617172 
	C371.901917,87.859879 371.789642,92.112892 371.670929,96.787529 
z"/>
<path fill="#131313" opacity="1.000000" stroke="none" 
	d="
M133.641083,82.722511 
	C132.987045,87.055214 132.491135,91.067665 131.747864,95.540222 
	C131.500488,96.000320 131.011246,96.001068 131.011230,96.001068 
	C131.008820,92.544830 130.799118,89.070557 131.097473,85.640480 
	C131.232651,84.086433 132.376389,82.620117 133.442566,81.049240 
	C133.814758,81.457069 133.806976,81.929672 133.641083,82.722511 
z"/>
<path fill="#1E1E1E" opacity="1.000000" stroke="none" 
	d="
M214.109283,36.569584 
	C213.574371,37.000992 213.116516,37.000351 212.324158,36.555904 
	C212.015060,34.068752 212.040512,32.025402 212.065948,29.982052 
	C212.504288,29.985224 212.942612,29.988394 213.709564,30.001953 
	C214.087570,32.054073 214.136963,34.095802 214.109283,36.569584 
z"/>
<path fill="#020202" opacity="1.000000" stroke="none" 
	d="
M127.561234,20.487080 
	C126.078247,20.804470 124.183929,20.999220 122.160797,20.893456 
	C123.737953,20.516773 125.443932,20.440605 127.561234,20.487080 
z"/>
<path fill="#020202" opacity="1.000000" stroke="none" 
	d="
M133.738251,52.868164 
	C133.391891,51.266438 133.134720,49.329407 133.265472,47.249367 
	C133.711426,48.915188 133.769424,50.724018 133.738251,52.868164 
z"/>
<path fill="#020202" opacity="1.000000" stroke="none" 
	d="
M133.837448,21.625492 
	C132.601364,21.718649 131.433533,21.454447 130.149094,20.904655 
	C131.323563,20.835423 132.614624,21.051779 133.837448,21.625492 
z"/>
<path fill="#030303" opacity="1.000000" stroke="none" 
	d="
M77.401627,124.147003 
	C78.128784,123.153015 79.283447,122.238396 80.725876,121.159149 
	C81.769531,123.862595 80.389420,124.625931 77.401627,124.147003 
z"/>
<path fill="#030303" opacity="1.000000" stroke="none" 
	d="
M81.143867,54.624619 
	C80.871223,53.798386 80.674301,52.570538 80.774879,51.155197 
	C81.121452,52.052803 81.170517,53.137901 81.143867,54.624619 
z"/>
<path fill="#020202" opacity="1.000000" stroke="none" 
	d="
M112.483963,20.454132 
	C112.186363,21.036623 111.484360,21.512436 110.425911,21.990856 
	C110.739494,21.444796 111.409531,20.896126 112.483963,20.454132 
z"/>
<path fill="#010101" opacity="1.000000" stroke="none" 
	d="
M348.697449,81.090057 
	C348.870361,81.421051 348.700745,81.642754 348.271759,81.899132 
	C348.192108,81.666260 348.306274,81.348579 348.697449,81.090057 
z"/>
<path fill="#151515" opacity="1.000000" stroke="none" 
	d="
M371.229858,99.915741 
	C371.050354,99.651428 371.114685,99.446579 371.377258,98.987732 
	C371.541565,99.147560 371.507629,99.561386 371.229858,99.915741 
z"/>
<path fill="#212121" opacity="1.000000" stroke="none" 
	d="
M292.684418,22.682205 
	C292.967499,22.985012 292.479431,22.998775 292.235260,23.002180 
	C287.327637,22.997992 282.648895,23.220631 278.005432,22.912046 
	C274.088959,22.651770 272.881165,23.917501 272.906830,27.928381 
	C273.076324,54.409458 272.991302,80.892159 272.989380,107.374336 
	C272.989044,112.178116 272.989349,116.981903 272.330383,121.778450 
	C272.330383,88.734070 272.330383,55.689697 272.330383,22.379396 
	C279.217957,22.379396 285.809662,22.379396 292.684418,22.682205 
z"/>
<path fill="#1E1E1E" opacity="1.000000" stroke="none" 
	d="
M292.990417,119.382690 
	C292.846100,120.709518 292.701996,121.614883 292.557892,122.520256 
	C292.418854,122.498528 292.279846,122.476791 292.140808,122.455063 
	C292.140808,113.001755 292.140808,103.548454 292.140808,94.095146 
	C292.424103,94.095322 292.707367,94.095505 292.990662,94.095680 
	C292.990662,102.384201 292.990662,110.672722 292.990417,119.382690 
z"/>
<path fill="#151515" opacity="1.000000" stroke="none" 
	d="
M321.630615,122.006943 
	C327.972900,122.006714 333.892120,122.006714 339.811340,122.006714 
	C339.811676,122.229393 339.812042,122.452080 339.812378,122.674759 
	C332.934235,122.674759 326.056091,122.674759 319.138855,122.674759 
	C319.216583,122.494797 319.233917,122.369118 319.306000,122.306976 
	C319.426147,122.203377 319.576263,122.084053 319.722778,122.070717 
	C320.215546,122.025887 320.712280,122.024918 321.630615,122.006943 
z"/>
<path fill="#151515" opacity="1.000000" stroke="none" 
	d="
M161.009003,121.518524 
	C161.016586,121.985703 160.525665,122.001884 160.280685,122.012611 
	C160.035706,108.754639 160.035706,95.485939 160.035706,82.217239 
	C160.357620,82.214577 160.679520,82.211914 161.001434,82.209251 
	C161.001434,95.156624 161.001434,108.103989 161.009003,121.518524 
z"/>
<path fill="#131313" opacity="1.000000" stroke="none" 
	d="
M131.991577,104.999207 
	C131.864456,110.808548 131.737320,116.617889 131.306168,122.714905 
	C131.002274,122.824837 131.002396,122.647079 130.993805,122.202118 
	C130.990906,116.601395 130.996735,111.267868 131.251328,105.467079 
	C131.500092,104.999825 131.991592,104.999207 131.991577,104.999207 
z"/>
<path fill="#151515" opacity="1.000000" stroke="none" 
	d="
M131.994934,104.550766 
	C131.991592,104.999207 131.500092,104.999825 131.254562,104.999451 
	C131.006943,102.298660 131.004852,99.598244 131.007004,96.449448 
	C131.011246,96.001068 131.500488,96.000320 131.744843,96.000687 
	C131.992233,98.701477 131.995255,101.401909 131.994934,104.550766 
z"/>
<path fill="#4A4A4A" opacity="1.000000" stroke="none" 
	d="
M367.085266,51.789566 
	C361.223450,51.789021 355.754303,51.789021 350.285126,51.789021 
	C350.285309,51.654873 350.285461,51.520725 350.285614,51.386578 
	C356.452515,51.386578 362.619415,51.386578 370.029907,51.386578 
	C368.358795,51.650822 367.918335,51.720470 367.085266,51.789566 
z"/>
<path fill="#000000" opacity="1.000000" stroke="none" 
	d="
M212.047577,29.563164 
	C212.040512,32.025402 212.015060,34.068752 211.980820,36.548599 
	C211.972015,36.985100 211.479538,37.031841 210.767456,37.024727 
	C204.369675,37.015587 198.684006,37.013557 192.998322,37.011528 
	C192.980042,35.365253 192.947510,33.718994 192.945892,32.072701 
	C192.936966,23.011335 192.939545,23.011333 202.998352,22.963753 
	C206.261322,22.961662 208.624146,22.948093 210.986984,22.934525 
	C211.334381,25.004442 211.681778,27.074360 212.047577,29.563164 
z"/>
<path fill="#1E1E1E" opacity="1.000000" stroke="none" 
	d="
M193.293304,37.307259 
	C198.684006,37.013557 204.369675,37.015587 210.520721,37.042015 
	C205.186798,37.245270 199.387543,37.424133 193.293304,37.307259 
z"/>
<path fill="#1E1E1E" opacity="1.000000" stroke="none" 
	d="
M210.714264,22.663021 
	C208.624146,22.948093 206.261322,22.961662 203.457458,22.948425 
	C205.491470,22.744921 207.966507,22.568220 210.714264,22.663021 
z"/>
</svg>