<svg version="1.1" id="Layer_1" xmlns="http://www.w3.org/2000/svg" xmlns:xlink="http://www.w3.org/1999/xlink" x="0px" y="0px"
	 width="100%" viewBox="0 0 3000 1200" enable-background="new 0 0 3000 1200" xml:space="preserve">
<path fill="#FFFFFF" opacity="1.000000" stroke="none" 
	d="
M1865.000000,1201.000000 
	C1243.333374,1201.000000 622.166687,1201.000000 1.000000,1201.000000 
	C1.000000,801.000000 1.000000,401.000000 1.000000,1.000000 
	C1001.000000,1.000000 2001.000000,1.000000 3001.000000,1.000000 
	C3001.000000,401.000000 3001.000000,801.000000 3001.000000,1201.000000 
	C2622.500000,1201.000000 2244.000000,1201.000000 1865.000000,1201.000000 
M1154.000000,684.506531 
	C1154.000000,792.262634 1154.000000,900.018738 1154.000000,1007.684448 
	C1219.003296,1007.684448 1283.403564,1007.684448 1348.000000,1007.684448 
	C1348.000000,1005.886719 1348.000000,1004.403625 1348.000000,1002.920471 
	C1348.000000,881.424133 1348.059448,759.927673 1347.912476,638.431519 
	C1347.896973,625.587952 1347.098755,612.704712 1345.874756,599.915344 
	C1344.777222,588.445374 1343.410522,576.882324 1340.719727,565.707764 
	C1334.741089,540.880249 1326.122559,516.952332 1312.982666,494.867401 
	C1301.652588,475.824158 1288.426270,458.416687 1271.499268,443.812531 
	C1256.018555,430.456390 1239.248657,419.394470 1220.562988,411.141510 
	C1195.494507,400.069458 1169.060059,394.638611 1141.904907,393.198242 
	C1127.209595,392.418823 1112.400146,393.488800 1097.654541,394.048859 
	C1083.468384,394.587646 1069.717529,397.777344 1056.230713,402.037781 
	C1025.644653,411.699829 998.229980,426.839142 975.128174,449.360138 
	C971.248047,453.142792 967.255920,456.810577 962.789551,461.028107 
	C962.789551,366.666016 962.789551,272.939331 962.789551,179.321472 
	C897.984924,179.321472 833.584595,179.321472 769.329102,179.321472 
	C769.329102,455.705292 769.329102,731.767517 769.329102,1007.656616 
	C834.059021,1007.656616 898.459473,1007.656616 963.000000,1007.656616 
	C963.000000,1005.490601 963.000000,1003.666138 963.000000,1001.841736 
	C963.000000,892.511658 962.988464,783.181641 963.043457,673.851562 
	C963.045593,669.601501 963.167480,665.232056 964.115112,661.121582 
	C969.303833,638.614685 980.119446,619.535950 998.474548,604.953430 
	C1022.800354,585.627502 1050.418457,579.542419 1080.208984,586.320312 
	C1109.054443,592.883240 1130.213501,610.720642 1143.851807,636.850098 
	C1151.399780,651.311035 1154.684937,667.071533 1154.000000,684.506531 
M2281.544678,815.042175 
	C2289.569092,827.734070 2297.524902,840.469971 2305.633301,853.108032 
	C2319.502930,874.725647 2333.425293,896.309570 2347.403320,917.857483 
	C2366.224121,946.871460 2385.162354,975.809326 2403.901123,1004.875916 
	C2405.496094,1007.349731 2407.169922,1008.042236 2409.877441,1008.040344 
	C2482.871826,1007.989685 2555.866455,1008.001709 2628.860840,1007.982727 
	C2629.892334,1007.982422 2630.923584,1007.724548 2632.537842,1007.509094 
	C2613.064941,979.097717 2593.960205,951.232056 2574.864990,923.359802 
	C2560.324219,902.135376 2545.750488,880.933289 2531.272949,859.665833 
	C2511.798584,831.058777 2492.414795,802.390381 2472.969482,773.763672 
	C2455.061768,747.401001 2437.182129,721.018982 2419.105469,694.772705 
	C2417.409180,692.309937 2417.598877,690.641052 2419.052734,688.611694 
	C2431.892090,670.691406 2444.878418,652.875000 2457.574707,634.854187 
	C2479.391846,603.887207 2500.977539,572.757202 2522.762939,541.767700 
	C2540.460449,516.593323 2558.303467,491.521362 2576.090820,466.410339 
	C2584.236328,454.911102 2592.451660,443.460876 2600.543457,431.923920 
	C2606.162109,423.913696 2611.624512,415.793854 2617.340332,407.455170 
	C2616.312012,407.216492 2615.867432,407.022919 2615.422607,407.022797 
	C2544.594727,407.006165 2473.766846,406.989288 2402.939209,407.104706 
	C2401.563232,407.106995 2399.721680,408.352203 2398.893555,409.562378 
	C2394.333252,416.227631 2390.081299,423.102478 2385.613281,429.832275 
	C2367.729492,456.769684 2349.773193,483.658936 2331.903320,510.605499 
	C2303.851807,552.904968 2275.860352,595.244019 2247.808838,637.543396 
	C2244.586670,642.402283 2241.144043,647.114807 2237.803467,651.895203 
	C2237.444336,651.721436 2237.085205,651.547668 2236.726074,651.373962 
	C2236.726074,493.974762 2236.726074,336.575562 2236.726074,179.336761 
	C2171.616455,179.336761 2106.885010,179.336761 2042.330811,179.336761 
	C2042.330811,455.726807 2042.330811,731.780029 2042.330811,1007.658081 
	C2107.393799,1007.658081 2172.125488,1007.658081 2237.087402,1007.658081 
	C2237.087402,921.062256 2237.087402,834.807983 2237.087402,748.553772 
	C2237.374268,748.415161 2237.661377,748.276550 2237.948242,748.137939 
	C2252.302490,770.264648 2266.656982,792.391418 2281.544678,815.042175 
M1599.000000,945.500000 
	C1599.000000,855.168274 1598.986328,764.836609 1599.046387,674.504944 
	C1599.048950,670.590210 1599.318481,666.584961 1600.161133,662.776245 
	C1605.520264,638.556396 1616.988037,618.084839 1637.328491,603.159546 
	C1663.010010,584.315247 1691.155396,578.939819 1721.773071,587.994324 
	C1745.342163,594.964294 1763.846436,608.910400 1776.435425,630.065796 
	C1784.815430,644.147949 1790.009766,659.387695 1790.007568,676.071228 
	C1789.992920,784.735474 1790.000000,893.399780 1790.000000,1002.064026 
	C1790.000000,1003.987732 1790.000000,1005.911377 1790.000000,1007.658813 
	C1855.053955,1007.658813 1919.454712,1007.658813 1984.000000,1007.658813 
	C1984.000000,1005.494812 1984.000000,1003.671387 1984.000000,1001.847961 
	C1984.000000,889.017090 1984.086060,776.186157 1983.926880,663.355530 
	C1983.895386,641.008850 1985.523071,618.581421 1981.985107,596.331360 
	C1980.278687,585.599182 1978.950317,574.768127 1976.509766,564.199097 
	C1970.825806,539.583313 1961.607910,516.287903 1948.844604,494.425385 
	C1936.692505,473.609894 1921.684448,455.100403 1903.098022,439.800049 
	C1889.359131,428.490112 1874.223511,419.265076 1857.882446,411.851501 
	C1832.081543,400.146240 1804.914673,394.662262 1776.935913,393.193024 
	C1762.405762,392.429993 1747.738770,393.192169 1733.194214,394.168365 
	C1723.684326,394.806610 1714.155273,396.521118 1704.860352,398.710907 
	C1686.288696,403.086273 1668.638428,409.993042 1651.984497,419.454498 
	C1637.053833,427.936859 1623.201538,437.814514 1610.815796,449.711334 
	C1607.040039,453.338074 1603.426636,457.133942 1598.937256,461.660614 
	C1598.937256,442.754486 1598.937256,425.041260 1598.937256,407.261353 
	C1534.439697,407.261353 1470.372681,407.261353 1406.272949,407.261353 
	C1406.272949,607.587708 1406.272949,807.652588 1406.272949,1007.712158 
	C1470.613647,1007.712158 1534.680786,1007.712158 1599.000000,1007.712158 
	C1599.000000,987.116882 1599.000000,966.808411 1599.000000,945.500000 
M241.500000,371.000000 
	C275.257080,371.000000 309.014191,371.000000 343.169495,371.000000 
	C343.169495,583.645264 343.169495,795.694153 343.169495,1007.707458 
	C411.300079,1007.707458 479.028687,1007.707458 547.157898,1007.707458 
	C547.157898,795.366394 547.157898,583.317505 547.157898,370.847473 
	C611.954895,370.847473 676.351562,370.847473 740.705200,370.847473 
	C740.705200,306.696136 740.705200,242.967148 740.705200,179.283997 
	C543.360352,179.283997 346.310394,179.283997 149.291565,179.283997 
	C149.291565,243.297409 149.291565,307.026398 149.291565,371.000000 
	C179.888336,371.000000 210.194168,371.000000 241.500000,371.000000 
M1599.000000,240.500000 
	C1599.000000,220.075714 1599.000000,199.651443 1599.000000,179.296143 
	C1534.347534,179.296143 1470.291382,179.296143 1406.297852,179.296143 
	C1406.297852,230.984680 1406.297852,282.376556 1406.297852,333.703918 
	C1470.652344,333.703918 1534.708496,333.703918 1599.000000,333.703918 
	C1599.000000,302.772278 1599.000000,272.136139 1599.000000,240.500000 
M2841.454102,407.000000 
	C2780.042236,407.000000 2718.630127,407.000000 2657.307129,407.000000 
	C2657.307129,459.001770 2657.307129,510.394653 2657.307129,561.692749 
	C2721.672363,561.692749 2785.729736,561.692749 2849.689453,561.692749 
	C2849.689453,509.992310 2849.689453,458.599640 2849.689453,407.000000 
	C2847.065918,407.000000 2844.751221,407.000000 2841.454102,407.000000 
M2702.500000,812.000000 
	C2751.584473,812.000000 2800.668945,812.000000 2849.708496,812.000000 
	C2849.708496,760.027954 2849.708496,708.636108 2849.708496,657.289795 
	C2785.360107,657.289795 2721.304199,657.289795 2657.291504,657.289795 
	C2657.291504,708.971924 2657.291504,760.363770 2657.291504,812.000000 
	C2672.221191,812.000000 2686.860596,812.000000 2702.500000,812.000000 
z"/>
<path fill="#252525" opacity="1.000000" stroke="none" 
	d="
M1154.000000,684.008423 
	C1154.684937,667.071533 1151.399780,651.311035 1143.851807,636.850098 
	C1130.213501,610.720642 1109.054443,592.883240 1080.208984,586.320312 
	C1050.418457,579.542419 1022.800354,585.627502 998.474548,604.953430 
	C980.119446,619.535950 969.303833,638.614685 964.115112,661.121582 
	C963.167480,665.232056 963.045593,669.601501 963.043457,673.851562 
	C962.988464,783.181641 963.000000,892.511658 963.000000,1001.841736 
	C963.000000,1003.666138 963.000000,1005.490601 963.000000,1007.656616 
	C898.459473,1007.656616 834.059021,1007.656616 769.329102,1007.656616 
	C769.329102,731.767517 769.329102,455.705292 769.329102,179.321472 
	C833.584595,179.321472 897.984924,179.321472 962.789551,179.321472 
	C962.789551,272.939331 962.789551,366.666016 962.789551,461.028107 
	C967.255920,456.810577 971.248047,453.142792 975.128174,449.360138 
	C998.229980,426.839142 1025.644653,411.699829 1056.230713,402.037781 
	C1069.717529,397.777344 1083.468384,394.587646 1097.654541,394.048859 
	C1112.400146,393.488800 1127.209595,392.418823 1141.904907,393.198242 
	C1169.060059,394.638611 1195.494507,400.069458 1220.562988,411.141510 
	C1239.248657,419.394470 1256.018555,430.456390 1271.499268,443.812531 
	C1288.426270,458.416687 1301.652588,475.824158 1312.982666,494.867401 
	C1326.122559,516.952332 1334.741089,540.880249 1340.719727,565.707764 
	C1343.410522,576.882324 1344.777222,588.445374 1345.874756,599.915344 
	C1347.098755,612.704712 1347.896973,625.587952 1347.912476,638.431519 
	C1348.059448,759.927673 1348.000000,881.424133 1348.000000,1002.920471 
	C1348.000000,1004.403625 1348.000000,1005.886719 1348.000000,1007.684448 
	C1283.403564,1007.684448 1219.003296,1007.684448 1154.000000,1007.684448 
	C1154.000000,900.018738 1154.000000,792.262634 1154.000000,684.008423 
z"/>
<path fill="#252525" opacity="1.000000" stroke="none" 
	d="
M2281.277832,814.780151 
	C2266.656982,792.391418 2252.302490,770.264648 2237.948242,748.137939 
	C2237.661377,748.276550 2237.374268,748.415161 2237.087402,748.553772 
	C2237.087402,834.807983 2237.087402,921.062256 2237.087402,1007.658081 
	C2172.125488,1007.658081 2107.393799,1007.658081 2042.330811,1007.658081 
	C2042.330811,731.780029 2042.330811,455.726807 2042.330811,179.336761 
	C2106.885010,179.336761 2171.616455,179.336761 2236.726074,179.336761 
	C2236.726074,336.575562 2236.726074,493.974762 2236.726074,651.373962 
	C2237.085205,651.547668 2237.444336,651.721436 2237.803467,651.895203 
	C2241.144043,647.114807 2244.586670,642.402283 2247.808838,637.543396 
	C2275.860352,595.244019 2303.851807,552.904968 2331.903320,510.605499 
	C2349.773193,483.658936 2367.729492,456.769684 2385.613281,429.832275 
	C2390.081299,423.102478 2394.333252,416.227631 2398.893555,409.562378 
	C2399.721680,408.352203 2401.563232,407.106995 2402.939209,407.104706 
	C2473.766846,406.989288 2544.594727,407.006165 2615.422607,407.022797 
	C2615.867432,407.022919 2616.312012,407.216492 2617.340332,407.455170 
	C2611.624512,415.793854 2606.162109,423.913696 2600.543457,431.923920 
	C2592.451660,443.460876 2584.236328,454.911102 2576.090820,466.410339 
	C2558.303467,491.521362 2540.460449,516.593323 2522.762939,541.767700 
	C2500.977539,572.757202 2479.391846,603.887207 2457.574707,634.854187 
	C2444.878418,652.875000 2431.892090,670.691406 2419.052734,688.611694 
	C2417.598877,690.641052 2417.409180,692.309937 2419.105469,694.772705 
	C2437.182129,721.018982 2455.061768,747.401001 2472.969482,773.763672 
	C2492.414795,802.390381 2511.798584,831.058777 2531.272949,859.665833 
	C2545.750488,880.933289 2560.324219,902.135376 2574.864990,923.359802 
	C2593.960205,951.232056 2613.064941,979.097717 2632.537842,1007.509094 
	C2630.923584,1007.724548 2629.892334,1007.982422 2628.860840,1007.982727 
	C2555.866455,1008.001709 2482.871826,1007.989685 2409.877441,1008.040344 
	C2407.169922,1008.042236 2405.496094,1007.349731 2403.901123,1004.875916 
	C2385.162354,975.809326 2366.224121,946.871460 2347.403320,917.857483 
	C2333.425293,896.309570 2319.502930,874.725647 2305.633301,853.108032 
	C2297.524902,840.469971 2289.569092,827.734070 2281.277832,814.780151 
z"/>
<path fill="#252525" opacity="1.000000" stroke="none" 
	d="
M1599.000000,946.000000 
	C1599.000000,966.808411 1599.000000,987.116882 1599.000000,1007.712158 
	C1534.680786,1007.712158 1470.613647,1007.712158 1406.272949,1007.712158 
	C1406.272949,807.652588 1406.272949,607.587708 1406.272949,407.261353 
	C1470.372681,407.261353 1534.439697,407.261353 1598.937256,407.261353 
	C1598.937256,425.041260 1598.937256,442.754486 1598.937256,461.660614 
	C1603.426636,457.133942 1607.040039,453.338074 1610.815796,449.711334 
	C1623.201538,437.814514 1637.053833,427.936859 1651.984497,419.454498 
	C1668.638428,409.993042 1686.288696,403.086273 1704.860352,398.710907 
	C1714.155273,396.521118 1723.684326,394.806610 1733.194214,394.168365 
	C1747.738770,393.192169 1762.405762,392.429993 1776.935913,393.193024 
	C1804.914673,394.662262 1832.081543,400.146240 1857.882446,411.851501 
	C1874.223511,419.265076 1889.359131,428.490112 1903.098022,439.800049 
	C1921.684448,455.100403 1936.692505,473.609894 1948.844604,494.425385 
	C1961.607910,516.287903 1970.825806,539.583313 1976.509766,564.199097 
	C1978.950317,574.768127 1980.278687,585.599182 1981.985107,596.331360 
	C1985.523071,618.581421 1983.895386,641.008850 1983.926880,663.355530 
	C1984.086060,776.186157 1984.000000,889.017090 1984.000000,1001.847961 
	C1984.000000,1003.671387 1984.000000,1005.494812 1984.000000,1007.658813 
	C1919.454712,1007.658813 1855.053955,1007.658813 1790.000000,1007.658813 
	C1790.000000,1005.911377 1790.000000,1003.987732 1790.000000,1002.064026 
	C1790.000000,893.399780 1789.992920,784.735474 1790.007568,676.071228 
	C1790.009766,659.387695 1784.815430,644.147949 1776.435425,630.065796 
	C1763.846436,608.910400 1745.342163,594.964294 1721.773071,587.994324 
	C1691.155396,578.939819 1663.010010,584.315247 1637.328491,603.159546 
	C1616.988037,618.084839 1605.520264,638.556396 1600.161133,662.776245 
	C1599.318481,666.584961 1599.048950,670.590210 1599.046387,674.504944 
	C1598.986328,764.836609 1599.000000,855.168274 1599.000000,946.000000 
z"/>
<path fill="#252525" opacity="1.000000" stroke="none" 
	d="
M241.000000,371.000000 
	C210.194168,371.000000 179.888336,371.000000 149.291565,371.000000 
	C149.291565,307.026398 149.291565,243.297409 149.291565,179.283997 
	C346.310394,179.283997 543.360352,179.283997 740.705200,179.283997 
	C740.705200,242.967148 740.705200,306.696136 740.705200,370.847473 
	C676.351562,370.847473 611.954895,370.847473 547.157898,370.847473 
	C547.157898,583.317505 547.157898,795.366394 547.157898,1007.707458 
	C479.028687,1007.707458 411.300079,1007.707458 343.169495,1007.707458 
	C343.169495,795.694153 343.169495,583.645264 343.169495,371.000000 
	C309.014191,371.000000 275.257080,371.000000 241.000000,371.000000 
z"/>
<path fill="#252525" opacity="1.000000" stroke="none" 
	d="
M1599.000000,241.000000 
	C1599.000000,272.136139 1599.000000,302.772278 1599.000000,333.703918 
	C1534.708496,333.703918 1470.652344,333.703918 1406.297852,333.703918 
	C1406.297852,282.376556 1406.297852,230.984680 1406.297852,179.296143 
	C1470.291382,179.296143 1534.347534,179.296143 1599.000000,179.296143 
	C1599.000000,199.651443 1599.000000,220.075714 1599.000000,241.000000 
z"/>
<path fill="#252525" opacity="1.000000" stroke="none" 
	d="
M2841.945312,407.000000 
	C2844.751221,407.000000 2847.065918,407.000000 2849.689453,407.000000 
	C2849.689453,458.599640 2849.689453,509.992310 2849.689453,561.692749 
	C2785.729736,561.692749 2721.672363,561.692749 2657.307129,561.692749 
	C2657.307129,510.394653 2657.307129,459.001770 2657.307129,407.000000 
	C2718.630127,407.000000 2780.042236,407.000000 2841.945312,407.000000 
z"/>
<path fill="#252525" opacity="1.000000" stroke="none" 
	d="
M2702.000000,812.000000 
	C2686.860596,812.000000 2672.221191,812.000000 2657.291504,812.000000 
	C2657.291504,760.363770 2657.291504,708.971924 2657.291504,657.289795 
	C2721.304199,657.289795 2785.360107,657.289795 2849.708496,657.289795 
	C2849.708496,708.636108 2849.708496,760.027954 2849.708496,812.000000 
	C2800.668945,812.000000 2751.584473,812.000000 2702.000000,812.000000 
z"/>
</svg>