<svg version="1.1" id="Layer_1" xmlns="http://www.w3.org/2000/svg" xmlns:xlink="http://www.w3.org/1999/xlink" x="0px" y="0px"
	 width="100%" viewBox="0 0 3364 436" enable-background="new 0 0 3364 436" xml:space="preserve">
<path fill="#000000" opacity="1.000000" stroke="none"
	d="
M139.437500,305.000000
	C124.393456,268.178558 109.790779,231.355591 95.179222,194.536163
	C81.979912,161.275421 68.794930,128.008942 55.552715,94.765274
	C51.113560,83.621094 46.345535,72.624748 40.051323,62.358692
	C33.219009,51.214977 23.687342,43.637619 10.967694,40.292252
	C8.176538,39.558159 6.029675,38.752026 6.426757,35.055618
	C6.838868,31.219316 9.436164,31.710812 11.878625,31.709953
	C50.867733,31.696253 89.856857,31.694664 128.845947,31.727068
	C130.595367,31.728521 132.610352,31.253876 133.789291,33.239540
	C135.372284,35.905769 133.741623,38.909702 130.529175,39.304943
	C124.932579,39.993519 119.285210,40.417419 113.753716,41.456036
	C102.719139,43.527927 96.725899,49.263256 95.751114,59.258591
	C95.203423,64.874580 96.701088,70.493088 98.697540,75.795212
	C107.199699,98.374947 115.771637,120.928604 124.385353,143.466064
	C135.734848,173.161606 147.134338,202.838058 158.565155,232.502365
	C159.254761,234.291962 159.377274,236.445984 161.830078,238.139923
	C164.476166,230.995712 167.093048,224.087799 169.598938,217.139862
	C191.335724,156.871353 213.053558,96.596008 234.771606,36.320740
	C235.628159,33.943565 236.269882,31.681974 239.671631,31.652548
	C243.057327,31.623260 243.797882,33.887642 244.692093,36.215153
	C256.210968,66.196770 267.713593,96.184624 279.222748,126.169968
	C293.234589,162.675751 307.248169,199.180893 321.267792,235.683701
	C321.496582,236.279449 321.811584,236.842102 322.342102,237.958191
	C326.054535,231.903168 327.918518,225.566177 330.327240,219.522263
	C345.856598,180.556000 361.327026,141.565292 376.563080,102.483704
	C380.547058,92.264519 383.847931,81.750488 382.004120,70.425438
	C380.541443,61.441628 375.614594,54.860413 368.198578,49.946575
	C360.879333,45.096874 352.728607,42.287258 344.236023,40.349289
	C343.102692,40.090668 341.976562,39.776741 340.829590,39.606297
	C337.978394,39.182610 337.642609,37.257839 337.691406,34.857559
	C337.749298,32.006714 339.549805,31.717833 341.724304,31.717932
	C373.881927,31.719404 406.039551,31.708103 438.197174,31.726549
	C440.001251,31.727585 442.029541,31.571032 442.254883,34.252930
	C442.458771,36.679245 442.462738,38.951839 439.626129,40.015045
	C434.296936,42.012524 429.377930,44.786510 424.693909,48.002354
	C410.942749,57.443279 402.042297,70.834160 394.473541,85.266335
	C383.850922,105.521645 376.392639,127.127457 367.917877,148.289810
	C347.622253,198.970367 327.542816,249.737488 307.388123,300.474457
	C306.898651,301.706604 306.549683,302.994598 306.067566,304.628265
	C303.629425,305.000000 301.258881,305.000000 298.354187,304.633667
	C297.706085,303.781128 297.646149,303.274414 297.470490,302.811615
	C273.451721,239.533371 249.440933,176.252060 225.357941,112.998253
	C223.882172,109.122147 222.947647,104.947121 220.062561,100.822807
	C195.202347,169.357941 170.601181,237.178970 146.000000,305.000000
	C143.958328,305.000000 141.916672,305.000000 139.437500,305.000000
M85.391685,93.039986
	C82.002457,84.883049 78.987946,76.590805 77.205986,67.924255
	C75.290344,58.607525 77.157570,50.404732 84.797539,44.042614
	C85.834961,43.178707 87.484200,42.641068 87.455162,40.693367
	C69.307343,40.693367 51.259182,40.693367 32.301178,40.693367
	C36.187149,44.967842 39.662010,48.454346 42.753185,52.253071
	C52.150143,63.800896 57.552223,77.512535 62.963623,91.114410
	C86.592705,150.507507 109.964302,210.003036 133.577728,269.402405
	C136.293335,276.233490 138.260742,283.461029 142.939758,290.760773
	C145.555405,283.383392 147.675552,276.945679 150.141006,270.643036
	C151.372849,267.493927 151.353592,264.754242 150.123611,261.563812
	C128.570206,205.656281 107.125572,149.706818 85.391685,93.039986
M265.790100,141.532349
	C255.755585,115.014809 245.721054,88.497269 235.686523,61.979733
	C231.813431,69.512611 229.157654,76.971672 226.372635,84.382172
	C225.311859,87.204758 225.523880,89.768715 226.648193,92.552521
	C229.699249,100.106987 232.533966,107.749084 235.434433,115.364067
	C255.560196,168.203049 275.673187,221.046890 295.814972,273.879761
	C297.863220,279.252472 300.074890,284.562897 302.210693,289.902222
	C306.136566,283.101379 308.788177,276.193909 311.586395,269.346405
	C312.666046,266.704468 312.545959,264.276184 311.509491,261.657745
	C308.387085,253.769363 305.381134,245.834564 302.366699,237.903824
	C290.250946,206.028107 278.149109,174.147095 265.790100,141.532349
M402.969879,50.504894
	C405.967194,47.379128 408.964478,44.253365 412.429047,40.640305
	C397.794495,40.640305 384.083069,40.640305 368.901611,40.640305
	C380.298187,47.282722 388.251923,55.110329 389.934540,68.735001
	C394.454895,61.926533 398.016205,56.140522 402.969879,50.504894
z"/>
<path fill="#000000" opacity="1.000000" stroke="none"
	d="
M577.000000,300.555847
	C574.593323,300.042877 572.066650,300.343964 569.581482,300.342712
	C534.415344,300.325134 499.249176,300.329620 464.083008,300.326782
	C462.583160,300.326691 461.082581,300.274384 459.583588,300.305359
	C457.385010,300.350800 456.101288,299.417664 456.002136,297.124847
	C455.909729,294.987183 456.152527,293.126526 458.805023,292.619232
	C460.760925,292.245178 462.679443,291.664062 464.602417,291.131165
	C483.201385,285.977051 492.857788,273.894592 493.639069,254.654388
	C495.877686,199.522385 494.129486,144.365234 494.578583,89.221474
	C494.625885,83.417198 493.996094,77.575241 493.267822,71.802811
	C491.017151,53.962563 479.272186,45.080498 463.174103,40.461590
	C461.738586,40.049713 460.283997,39.665913 458.812714,39.425301
	C456.113403,38.983845 455.926025,37.078297 456.028259,34.945786
	C456.136810,32.681629 457.364288,31.661283 459.584015,31.729317
	C459.916626,31.739510 460.250275,31.706942 460.583466,31.707241
	C499.081512,31.741987 537.579529,31.777971 576.538818,31.906944
	C577.000000,34.370556 577.000000,36.741116 576.681641,39.495380
	C555.284302,42.571484 541.661194,56.556740 541.398865,76.713593
	C540.623291,136.321167 540.624023,195.934464 541.453491,255.540497
	C541.655945,270.091736 548.413452,281.263611 561.914551,287.892975
	C566.753418,290.268982 571.948853,291.370575 577.000000,293.000000
	C577.000000,295.370575 577.000000,297.741119 577.000000,300.555847
M503.032135,74.599899
	C503.028473,129.892456 503.050842,185.185043 502.996460,240.477539
	C502.986969,250.125626 503.323364,259.771423 502.473877,269.428314
	C502.028870,274.486938 500.190521,278.314178 496.193634,281.293243
	C493.033783,283.648468 489.965363,286.126404 486.034088,289.190735
	C504.102448,289.190735 521.053528,289.190735 539.265930,289.190735
	C536.620972,287.100372 535.066772,285.627869 533.289551,284.509766
	C525.570618,279.653503 522.453552,273.065582 522.500610,263.652161
	C522.825439,198.701660 522.846558,133.747772 522.479675,68.797714
	C522.425232,59.165031 525.653259,52.539459 533.393799,47.475376
	C536.301575,45.573002 538.954224,43.280704 542.328674,40.703793
	C522.011902,40.703793 502.811279,40.703793 482.744141,40.703793
	C487.978607,44.654774 492.480621,48.048443 496.977600,51.448795
	C500.051514,53.773102 501.979584,56.801651 502.279541,60.679531
	C502.613037,64.990433 502.787628,69.313622 503.032135,74.599899
z"/>
</svg>
