<svg version="1.1" id="Layer_1" xmlns="http://www.w3.org/2000/svg" xmlns:xlink="http://www.w3.org/1999/xlink" x="0px" y="0px"
	 width="100%" viewBox="0 0 1412 846" enable-background="new 0 0 1412 846" xml:space="preserve">
<path fill="" opacity="1.000000" stroke="#000000" stroke-linecap="round" stroke-linejoin="round" stroke-width="3.000000"
	d="
M618.500000,782.000000
	C611.238220,777.441833 603.091797,779.259583 595.526489,779.843506
	C590.003052,780.269775 584.354980,780.915405 579.039612,780.203918
	C574.418701,779.585327 569.999207,780.026428 565.500000,780.024292
	C493.500000,779.989807 421.500000,780.000000 349.500000,780.000000
	C233.500000,780.000000 117.500000,780.000000 1.500000,780.000000
"/>
<path fill="none" opacity="1.000000" stroke="#000000" stroke-linecap="round" stroke-linejoin="round" stroke-width="4.000000"
	d="
M1141.000000,445.000000
	C1135.794556,439.451080 1135.041504,432.197723 1135.744507,425.525787
	C1137.143921,412.248505 1144.520386,401.509705 1152.965942,391.471375
	C1160.961792,381.967682 1169.654053,373.072021 1177.076416,363.056671
	C1181.760620,356.736176 1186.060913,350.361237 1187.479248,342.496277
	C1189.322144,332.276337 1189.516235,322.193665 1186.602417,311.970825
	C1181.726440,294.863617 1171.020874,282.677032 1155.953125,274.082184
	C1149.642700,270.482635 1147.327637,265.766205 1147.367676,258.499268
	C1147.626465,211.667374 1147.491699,164.833328 1147.534180,118.000031
	C1147.535645,116.343468 1147.284180,114.707520 1147.940430,112.977409
	C1150.724854,105.635544 1150.026489,102.580421 1143.448242,98.585197
	C1134.436890,93.112297 1124.400269,91.631477 1114.006836,93.049728
	C1110.294067,93.556343 1106.574463,93.768074 1102.927368,95.330421
	C1099.799316,96.670418 1097.476196,97.976921 1097.002808,101.500374
	C1096.980835,101.664085 1097.066650,101.935844 1096.990479,101.985359
	C1090.775757,106.025681 1093.259155,111.720741 1093.301025,117.501442
	C1093.651367,165.832230 1093.453125,214.166779 1093.565918,262.499847
	C1093.578491,267.889618 1090.589600,270.751221 1086.487305,272.976532
	C1073.864868,279.823853 1064.235596,289.557312 1058.035400,302.516907
	C1054.500977,309.904449 1052.807739,317.694366 1052.375977,325.993561
	C1051.275024,347.161621 1050.973877,368.348480 1051.638550,389.495636
	C1052.707642,423.499603 1051.627075,457.522552 1052.776611,491.490631
	C1053.437134,511.010590 1052.264404,530.553528 1053.691528,549.985962
	C1055.099731,569.160706 1053.316528,588.374207 1055.402710,607.510620
	C1056.031250,613.275391 1055.683594,619.173584 1055.465698,624.998718
	C1054.791260,643.022583 1056.130737,661.014587 1056.772339,678.990295
	C1057.236206,691.986023 1058.343140,705.054565 1060.292969,718.031128
	C1061.739014,727.654236 1067.866577,732.370361 1075.561890,735.339478
	C1086.378784,739.513000 1097.757324,741.489319 1109.497803,741.655640
	C1115.139038,741.735596 1120.831909,743.004211 1126.494141,742.441650
	C1141.613770,740.939331 1156.934082,741.082092 1171.558228,735.656921
	C1177.726318,733.368652 1181.074219,730.577148 1181.700562,723.517822
	C1182.706299,712.184631 1184.032349,700.904907 1184.624634,689.506470
	C1186.555786,652.339844 1184.882446,615.164185 1185.495117,577.999939
	C1185.533569,575.667236 1185.334351,573.319031 1185.533691,571.002869
	C1185.985596,565.750732 1189.136108,563.866394 1194.508301,564.418762
	C1203.315430,565.324402 1211.995972,567.214966 1221.008301,566.627014
	C1230.867310,565.983826 1240.049561,563.027832 1248.958130,559.397339
	C1273.386230,549.442322 1292.656128,533.298279 1305.469604,509.983307
	C1310.925537,500.056091 1313.751831,489.386993 1314.619507,478.009125
	C1315.487061,466.634277 1315.502686,455.384430 1314.720215,443.984894
	C1314.012329,433.671021 1312.272827,423.560272 1310.298340,413.539734
	C1308.194458,402.863159 1304.871338,392.374939 1301.390137,382.036987
	C1298.244263,372.694946 1294.205811,363.650543 1290.450684,354.520294
	C1289.978271,353.371796 1288.833374,352.500000 1288.000000,351.500000
"/>
<path fill="none" opacity="1.000000" stroke="#000000" stroke-linecap="round" stroke-linejoin="round" stroke-width="3.000000"
	d="
M1142.000000,448.000000
	C1150.793213,458.768463 1162.914429,462.886719 1175.977417,465.608185
	C1184.770630,467.440063 1193.696655,468.221191 1202.500488,468.238708
	C1212.822388,468.259277 1223.188843,466.978943 1233.528442,465.736542
	C1249.848999,463.775482 1265.037720,458.981323 1279.485229,451.471680
	C1286.632446,447.756714 1293.118286,443.257019 1298.584473,437.074646
	C1310.795898,423.263062 1302.052002,409.629395 1288.997192,405.508942
	C1274.684814,400.991577 1260.064209,401.681641 1245.508057,403.562012
	C1218.778320,407.014954 1193.221802,414.602234 1169.005371,426.510956
	C1152.856934,434.452148 1139.274658,445.520691 1128.440430,459.955292
	C1127.348999,461.409485 1126.214722,463.252258 1124.000000,463.500000
"/>
<path fill="none" opacity="1.000000" stroke="#000000" stroke-linecap="round" stroke-linejoin="round" stroke-width="4.000000"
	d="
M1224.500000,556.750000
	C1218.052002,559.822388 1219.729980,566.184448 1219.697266,571.001343
	C1219.371582,618.832458 1219.073120,666.672607 1219.739502,714.496643
	C1219.962158,730.473145 1220.289062,746.521423 1221.475708,762.501831
	C1221.802979,766.910889 1225.857666,770.878479 1230.500000,771.000000
"/>
<path fill="none" opacity="1.000000" stroke="#000000" stroke-linecap="round" stroke-linejoin="round" stroke-width="3.000000"
	d="
M1186.000000,331.000000
	C1181.761841,334.402283 1176.265259,334.489990 1171.431030,336.317535
	C1161.693237,339.998901 1153.209961,344.965942 1146.978516,353.484283
	C1142.150513,360.084106 1140.720093,367.996124 1138.635864,375.537537
	C1135.171021,388.074432 1131.621826,400.609039 1129.405029,413.483643
	C1128.084717,421.151672 1126.273315,428.721039 1125.434570,436.492950
	C1124.643921,443.820190 1124.015259,451.156067 1123.289307,458.479126
	C1123.037720,461.016449 1123.477051,463.504700 1123.279053,466.021942
	C1122.875244,471.154388 1119.080933,474.202301 1117.327759,478.428528
	C1114.095581,486.219940 1112.607300,494.238739 1111.425415,502.489319
	C1109.009155,519.358276 1111.731323,536.164856 1111.548584,553.000549
	C1111.375366,568.947937 1107.343384,583.372070 1096.514282,595.512695
	C1088.291260,604.731567 1077.834229,610.056091 1065.973511,612.363831
	C1059.125366,613.696167 1052.147217,615.560303 1045.000000,614.000000
"/>
<path fill="none" opacity="1.000000" stroke="#000000" stroke-linecap="round" stroke-linejoin="round" stroke-width="3.000000"
	d="
M1017.500000,725.000000
	C1025.183472,725.118408 1031.722046,727.568542 1037.044189,733.460022
	C1048.046753,745.639526 1045.779541,761.730835 1034.508179,772.508545
	C1029.034546,777.742554 1022.227661,780.618408 1015.009216,780.294739
	C1002.994934,779.756226 992.882202,774.907776 988.567566,760.479797
	C985.333008,749.663025 988.696838,740.138916 996.085327,732.078186
	C998.482361,729.463135 1000.878479,727.123413 1001.521179,723.503784
	C1001.580811,723.167969 1001.388062,722.885132 1001.938477,722.426208
	C1006.672852,718.478882 1006.983765,716.926147 1004.499939,712.000000
	C1002.165771,707.370483 997.817261,704.678528 994.000000,705.500000
	C989.758606,706.412781 985.508179,711.106750 985.564148,715.499207
	C985.640686,721.502441 986.736938,727.535583 986.365295,733.491577
	C985.818359,742.255676 980.550476,754.010681 969.478943,756.919922
	C953.282104,761.175964 940.470703,750.179932 939.332092,735.012634
	C938.316895,721.488708 950.794617,712.264282 962.500916,712.440918
	C968.023926,712.524353 973.378601,712.751587 977.457703,717.040222
	C978.826538,718.479370 980.966614,720.162170 978.498840,722.498779
	C976.504578,724.387146 974.499573,723.824097 972.500183,722.499756
	C969.968933,720.823181 967.968872,719.170593 969.390747,715.458130
	C970.340637,712.977844 972.020996,709.723633 968.947815,707.574646
	C965.607300,705.238708 961.434937,703.308472 957.559937,704.670471
	C950.873718,707.020691 944.223938,709.853516 939.004761,715.004822
	C932.031372,721.887451 924.718811,728.210632 915.009338,731.032166
	C911.492676,732.054077 909.305603,735.701965 904.997681,735.586975
	C894.908936,735.317749 884.899658,736.886719 876.703064,727.766846
	C873.022095,723.671265 867.934998,720.240295 863.408691,716.614014
	C859.643250,713.597168 858.301697,709.863464 857.465271,705.506653
	C856.648315,701.251221 857.695618,695.878174 851.500000,694.500000
"/>
<path fill="none" opacity="1.000000" stroke="#000000" stroke-linecap="round" stroke-linejoin="round" stroke-width="3.000000"
	d="
M911.000000,734.500000
	C914.874939,737.369263 919.748779,736.316528 924.043213,737.881470
	C934.588318,741.724243 939.771606,749.637207 941.414612,760.013550
	C943.987183,776.260254 933.621094,787.415222 919.976257,789.330933
	C905.068787,791.423889 892.362549,784.035278 888.708130,767.454102
	C886.841553,758.985168 889.442871,750.716919 895.506592,744.005981
	C897.568665,741.723877 900.161682,739.900513 901.500000,737.000000
"/>
<path fill="none" opacity="1.000000" stroke="#000000" stroke-linecap="round" stroke-linejoin="round" stroke-width="3.000000"
	d="
M1121.500000,473.000000
	C1124.585571,478.075226 1123.958862,484.058899 1125.253784,489.557983
	C1128.311157,502.541107 1134.859009,513.648682 1142.647949,523.887451
	C1155.560913,540.862000 1172.938354,551.661255 1193.477173,557.579041
	C1202.206421,560.094177 1210.940308,561.547241 1220.000000,561.000000
"/>
<path fill="none" opacity="1.000000" stroke="#000000" stroke-linecap="round" stroke-linejoin="round" stroke-width="3.000000"
	d="
M943.500000,532.500000
	C943.462952,542.192322 948.385132,551.106201 947.671997,561.012390
	C947.340515,565.615906 949.970886,570.027649 954.068726,572.380249
	C958.803955,575.098877 963.008606,578.494873 967.456238,581.563477
	C971.839600,584.587708 975.661560,588.279114 976.498840,594.000183
	C977.205750,598.830505 973.695679,603.739136 969.000000,604.500000
	C965.829041,605.013916 961.410095,601.078491 960.489502,597.002380
	C959.776245,593.844727 959.168518,590.615479 958.696533,587.470520
	C957.985840,582.735046 955.287659,580.482361 951.525696,578.452393
	C946.361023,575.665588 940.945679,573.074219 938.000000,567.500000
"/>
<path fill="none" opacity="1.000000" stroke="#000000" stroke-linecap="round" stroke-linejoin="round" stroke-width="3.000000"
	d="
M760.000000,747.000000
	C758.137878,748.819702 755.763916,748.652344 753.502502,748.468933
	C745.805847,747.844727 734.434021,755.916382 733.492554,767.499390
	C732.449890,780.327209 742.303467,788.453552 751.487305,789.601746
	C765.121277,791.306335 773.173401,784.251465 774.878723,775.975037
	C776.487122,768.169006 776.626892,760.189575 770.939270,753.552063
	C769.848999,752.279602 769.487549,750.922913 769.000000,749.500000
"/>
<path fill="none" opacity="1.000000" stroke="#000000" stroke-linecap="round" stroke-linejoin="round" stroke-width="3.000000"
	d="
M855.000000,696.000000
	C862.580811,691.107239 861.523010,683.110229 856.359314,676.103699
	C850.584167,668.267578 841.588379,666.413818 832.522583,667.663696
	C822.565186,669.036377 815.341492,674.471924 812.983154,684.996216
	C809.828491,699.074097 818.475220,713.533997 833.999939,713.558228
	C840.638123,713.568604 844.963867,709.594421 849.500000,705.750000
"/>
<path fill="none" opacity="1.000000" stroke="#000000" stroke-linecap="round" stroke-linejoin="round" stroke-width="3.000000"
	d="
M813.000000,765.000000
	C810.721069,766.292847 808.565796,765.082153 806.514648,764.452209
	C791.502258,759.841064 778.337097,770.320862 779.585815,785.492920
	C780.255615,793.631409 784.815430,799.231323 792.469666,802.569580
	C800.122314,805.907166 806.858337,804.716370 812.976257,799.472290
	C819.873169,793.560425 822.591003,786.054993 821.031372,776.994568
	C820.200745,772.169006 819.955505,767.128540 814.000000,765.500000
"/>
<path fill="none" opacity="1.000000" stroke="#000000" stroke-linecap="round" stroke-linejoin="round" stroke-width="3.000000"
	d="
M877.500000,728.000000
	C878.621521,726.819458 879.687439,726.602356 881.517883,726.883301
	C895.751953,729.068542 907.974060,717.715881 905.423096,701.512085
	C903.301025,688.032410 891.160767,681.484070 882.008240,682.569519
	C873.095276,683.626587 865.223938,690.475708 863.537842,700.006714
	C862.825195,704.034790 862.880920,708.051941 864.386963,712.042664
	C864.844727,713.255493 865.115540,715.105408 864.000000,716.500000
"/>
<path fill="none" opacity="1.000000" stroke="#000000" stroke-linecap="round" stroke-linejoin="round" stroke-width="3.000000"
	d="
M857.500000,743.500000
	C858.817627,746.610779 862.267212,746.116699 864.599487,747.304688
	C876.504578,753.369446 883.202820,762.564392 883.456604,776.000793
	C883.657837,786.652771 874.616211,796.598267 863.996094,797.451721
	C855.807800,798.109680 848.051331,796.961365 841.985352,790.513794
	C837.436951,785.679565 836.135498,779.877747 836.500000,773.500000
"/>
<path fill="none" opacity="1.000000" stroke="#000000" stroke-linecap="round" stroke-linejoin="round" stroke-width="4.000000"
	d="
M1244.500000,328.000000
	C1245.436890,326.963745 1246.532593,326.314117 1248.000244,326.498047
	C1259.677002,327.961456 1271.504272,328.682098 1282.499512,333.501160
	C1284.002930,334.160034 1285.654175,334.612976 1286.974365,335.536621
	C1294.240723,340.620209 1293.342041,347.756927 1285.009399,352.516418
	C1278.309082,356.343536 1270.906982,357.878052 1263.503540,359.515839
	C1242.537842,364.153931 1221.253052,363.775055 1200.001953,363.389740
	C1193.488525,363.271667 1186.858398,362.938232 1180.500000,361.000000
"/>
<path fill="none" opacity="1.000000" stroke="#000000" stroke-linecap="round" stroke-linejoin="round" stroke-width="4.000000"
	d="
M1042.000000,616.000000
	C1033.819702,614.503601 1025.939697,616.531799 1017.995178,617.973511
	C1013.651550,618.761780 1009.123169,618.789429 1005.021240,620.549500
	C1000.987549,622.280518 997.296143,624.381531 996.439697,629.489868
	C995.232605,636.689880 1003.527100,641.226990 1009.501404,641.465271
	C1027.206055,642.171570 1036.538452,634.446228 1042.684570,616.563416
	C1046.987793,604.042603 1042.463379,574.625305 1037.975830,564.510681
	C1037.725464,563.946228 1037.126587,563.536438 1036.446167,562.785767
	C1032.970459,564.595825 1031.578003,569.435120 1027.011108,570.078979
	C1026.006226,570.220703 1026.546997,571.663513 1026.523193,572.500671
	C1026.456543,574.832092 1026.425415,577.169739 1026.520752,579.499146
	C1026.618408,581.884460 1025.639648,584.057617 1023.479004,584.338501
	C1021.224792,584.631592 1018.442932,585.600037 1016.476746,583.017700
	C1014.978210,581.049561 1015.181885,578.997070 1016.043335,577.018860
	C1017.022522,574.770508 1018.368042,572.684448 1019.489868,570.494812
	C1020.541443,568.442322 1021.883850,566.378357 1018.529907,564.930725
	C1017.584351,564.522644 1017.377258,563.166016 1017.493164,561.999329
	C1017.721863,559.697998 1017.003601,558.255798 1014.524292,557.427246
	C1010.080994,555.942200 1009.741699,550.723999 1006.618530,547.870239
	C1005.858948,547.176208 1006.180786,544.780945 1007.500000,543.500000
"/>
<path fill="none" opacity="1.000000" stroke="#000000" stroke-linecap="round" stroke-linejoin="round" stroke-width="3.000000"
	d="
M788.500000,748.000000
	C791.251770,744.624695 795.666382,744.018311 799.128052,741.690369
	C807.565247,736.016418 809.444031,724.629578 805.958679,717.520264
	C802.328613,710.116028 791.837097,705.029602 781.472473,708.926758
	C765.873657,714.791809 766.939941,732.196411 775.935059,741.065857
	C782.673706,747.710327 791.784119,749.791870 799.519104,754.468445
	C802.965149,756.552002 806.631287,758.246826 810.100647,760.332581
	C812.197754,761.593323 813.042053,762.948792 813.500000,765.000000
"/>
<path fill="none" opacity="1.000000" stroke="#000000" stroke-linecap="round" stroke-linejoin="round" stroke-width="3.000000"
	d="
M1095.500000,104.500000
	C1099.492188,113.692154 1107.899170,115.915863 1116.512939,117.426537
	C1123.171631,118.594337 1129.867065,118.689217 1136.539917,116.629234
	C1138.742065,115.949394 1140.473511,114.840843 1141.937500,113.434883
	C1144.427002,111.044037 1144.168335,107.328583 1141.476685,105.027275
	C1136.613403,100.869308 1130.509644,99.947899 1124.494385,99.595703
	C1116.049438,99.101234 1107.592285,99.447624 1099.482422,102.452614
	C1098.950562,102.649689 1098.166626,102.166656 1097.500000,101.999992
"/>
<path fill="none" opacity="1.000000" stroke="#000000" stroke-linecap="round" stroke-linejoin="round" stroke-width="3.000000"
	d="
M1287.000000,348.000000
	C1282.063843,337.708282 1271.869141,336.245361 1262.489136,333.537750
	C1256.001587,331.665070 1249.020630,331.901215 1242.896484,328.170013
	C1240.715576,326.841370 1237.292114,327.688965 1234.497925,327.649170
	C1219.477173,327.434998 1204.423462,327.110382 1189.500000,329.500000
"/>
<path fill="none" opacity="1.000000" stroke="#000000" stroke-linecap="round" stroke-linejoin="round" stroke-width="3.000000"
	d="
M1013.000000,708.500000
	C1015.333313,709.500000 1017.595825,710.738281 1020.012817,711.456848
	C1028.377563,713.943359 1036.201172,712.578552 1042.417725,706.416992
	C1048.290894,700.595642 1049.505615,693.351501 1046.513184,685.494995
	C1043.932007,678.717957 1033.220337,672.650391 1026.511963,674.542480
	C1019.647095,676.478760 1013.338196,679.289124 1010.949219,686.984253
	C1010.654663,687.933105 1009.666626,688.666626 1008.999939,689.499939
"/>
<path fill="none" opacity="1.000000" stroke="#000000" stroke-linecap="round" stroke-linejoin="round" stroke-width="3.000000"
	d="
M929.500000,677.000000
	C930.875854,671.772827 935.020630,669.464233 939.498596,667.496826
	C941.618835,666.565308 943.598999,665.414307 944.993408,663.495239
	C946.081970,661.997009 947.398376,660.532104 946.006531,658.495544
	C944.791504,656.717651 942.975952,655.832031 941.008911,656.072632
	C938.102783,656.428162 935.595337,657.683716 933.449463,659.952209
	C929.042236,664.611145 923.930969,668.356689 918.018188,671.040100
	C911.604492,673.950867 905.335388,673.678284 898.999329,671.001587
	C893.661377,668.746460 888.255188,667.192749 882.500000,669.500000
"/>
<path fill="none" opacity="1.000000" stroke="#000000" stroke-linecap="round" stroke-linejoin="round" stroke-width="3.000000"
	d="
M782.250000,747.000000
	C775.000000,749.738342 767.378967,749.911072 760.595337,746.792603
	C752.392151,743.021606 742.989014,743.008179 735.987366,748.483826
	C729.112305,753.860413 725.818542,761.112549 724.494080,769.499084
	C722.343201,783.118042 715.431885,790.879150 702.999695,793.998779
	C699.141357,794.966980 698.878967,794.876709 696.750000,792.000000
"/>
<path fill="none" opacity="1.000000" stroke="#000000" stroke-linecap="round" stroke-linejoin="round" stroke-width="3.000000"
	d="
M698.000000,791.000000
	C703.243958,787.856384 707.915649,784.189392 708.468628,777.497437
	C709.032715,770.671143 703.660461,762.530151 697.500000,760.500061
	C691.620789,758.562622 682.428284,761.992126 678.490723,767.493347
	C672.662781,775.635559 675.853027,781.295898 680.510925,787.992432
	C684.356628,793.521240 689.845337,794.417053 696.000000,793.250000
"/>
<path fill="none" opacity="1.000000" stroke="#000000" stroke-linecap="round" stroke-linejoin="round" stroke-width="3.000000"
	d="
M943.000000,711.000000
	C941.545654,709.019287 943.143860,707.250977 943.569519,705.517090
	C946.011169,695.570251 937.940491,686.829834 928.983093,685.625916
	C914.748291,683.712708 905.661072,696.380066 911.536194,709.483765
	C914.381348,715.829407 919.457153,719.241516 926.500244,719.492371
	C928.311096,719.556885 930.226562,719.189270 931.500000,721.000000
"/>
<path fill="none" opacity="1.000000" stroke="#000000" stroke-linecap="round" stroke-linejoin="round" stroke-width="3.000000"
	d="
M841.000000,719.500000
	C840.247864,723.314697 841.671448,726.159729 845.013000,727.976013
	C847.515137,729.335999 849.643677,728.344910 851.584595,726.420959
	C850.111816,718.724365 843.531677,718.353821 837.994385,718.190186
	C827.607666,717.883240 816.507874,723.770569 814.317322,733.960754
	C812.543823,742.210571 814.788513,749.495483 823.524780,755.463745
	C833.510620,762.285889 848.804749,759.280884 854.519165,749.010681
	C855.211853,747.765747 856.166626,746.666626 856.999939,745.500000
"/>
<path fill="none" opacity="1.000000" stroke="#000000" stroke-linecap="round" stroke-linejoin="round" stroke-width="4.000000"
	d="
M1221.000000,765.000000
	C1217.166626,764.833313 1213.227173,765.176514 1209.520020,764.403992
	C1198.596558,762.127869 1187.888306,763.549744 1177.563354,766.707214
	C1171.283936,768.627441 1164.780884,771.613586 1162.516724,779.005127
	C1161.003540,783.945374 1162.881226,787.841797 1168.507446,791.488586
	C1176.719238,796.811218 1186.052002,798.760315 1195.490967,800.547424
	C1208.259521,802.964905 1221.164673,803.022522 1233.991821,802.345520
	C1247.822021,801.615540 1261.570923,799.606995 1273.499146,791.498779
	C1278.295288,788.238831 1281.524658,783.984680 1282.000000,778.000000
"/>
<path fill="none" opacity="1.000000" stroke="#000000" stroke-linecap="round" stroke-linejoin="round" stroke-width="3.000000"
	d="
M925.500000,677.500000
	C931.513977,677.446228 937.230286,679.090271 943.006470,680.473022
	C948.947693,681.895203 949.769470,686.737122 950.422852,691.510559
	C950.804260,694.296448 950.758667,697.101990 952.262451,699.446899
	C955.988770,698.771240 959.555664,698.363892 962.984741,697.443054
	C967.432190,696.248901 971.886780,694.783752 974.471008,690.482605
	C975.341553,689.033630 976.187012,687.745972 978.000000,687.500000
"/>
<path fill="none" opacity="1.000000" stroke="#000000" stroke-linecap="round" stroke-linejoin="round" stroke-width="3.000000"
	d="
M1188.500000,330.000000
	C1173.761108,326.964752 1160.123657,330.538513 1147.027222,337.054810
	C1145.493164,337.818146 1144.243530,339.246552 1143.016968,340.516418
	C1139.473511,344.184998 1139.500977,346.841248 1143.002686,350.497437
	C1143.817627,351.348297 1144.666626,352.166687 1145.500000,353.000031
"/>
<path fill="none" opacity="1.000000" stroke="#000000" stroke-linecap="round" stroke-linejoin="round" stroke-width="4.000000"
	d="
M897.500000,630.500000
	C901.492920,628.578918 904.313721,632.350891 907.973450,632.746033
	C913.637573,633.357422 919.328308,633.944397 925.007507,634.408325
	C927.978577,634.651123 930.835693,634.559082 933.044800,637.411194
	C931.342590,642.143127 926.960693,643.078796 922.494751,643.433655
	C918.519836,643.749512 914.484619,643.723633 910.503418,643.450134
	C903.681641,642.981567 898.230164,644.982361 894.481079,650.988220
	C890.997131,656.569458 885.745483,661.105164 884.500000,668.000000
"/>
<path fill="none" opacity="1.000000" stroke="#000000" stroke-linecap="round" stroke-linejoin="round" stroke-width="4.000000"
	d="
M986.500000,641.500000
	C993.062378,644.115723 995.882690,649.276672 997.075684,655.986572
	C998.591125,664.509583 999.286438,672.931213 997.543579,681.508850
	C996.163696,688.300598 992.597534,693.293884 986.493896,696.488342
	C984.769165,697.390991 983.068848,698.278992 982.000000,700.000000
"/>
<path fill="none" opacity="1.000000" stroke="#000000" stroke-linecap="round" stroke-linejoin="round" stroke-width="3.000000"
	d="
M1007.000000,689.500000
	C1004.698730,685.333313 1006.485657,681.068665 1007.137634,677.022156
	C1008.209900,670.367065 1010.865356,663.953613 1009.510315,656.997986
	C1008.107788,649.798645 1002.751404,645.886353 995.000000,646.500000
"/>
<path fill="none" opacity="1.000000" stroke="#000000" stroke-linecap="round" stroke-linejoin="round" stroke-width="3.000000"
	d="
M1282.500000,777.500000
	C1279.197144,769.277649 1270.946167,765.709656 1264.000000,769.500061
	C1260.678467,771.312561 1260.260376,774.739929 1263.551880,776.396851
	C1267.527710,778.398132 1271.598022,780.921326 1276.545776,778.597534
	C1277.911255,777.956299 1279.833374,778.500000 1281.500000,778.500000
"/>
<path fill="none" opacity="1.000000" stroke="#000000" stroke-linecap="round" stroke-linejoin="round" stroke-width="3.000000"
	d="
M658.500000,779.500000
	C658.338257,781.365173 658.643616,783.132202 660.014221,784.485596
	C661.923950,786.371033 662.913330,788.565918 661.444580,790.966064
	C659.821777,793.617981 654.586975,795.210205 652.014160,793.970581
	C647.553650,791.821289 643.495667,789.064453 639.982849,785.516968
	C637.910156,783.423889 635.851013,781.238403 633.461609,779.554504
	C628.504700,776.061096 624.766602,776.727844 620.000000,781.500000
"/>
<path fill="none" opacity="1.000000" stroke="#000000" stroke-linecap="round" stroke-linejoin="round" stroke-width="3.000000"
	d="
M1003.000000,564.500000
	C1001.303101,557.283997 1001.271790,549.323914 993.521912,544.961060
	C989.616699,542.762512 986.496094,539.244507 982.166382,537.888000
	C980.279663,541.426025 983.315552,545.078491 981.333984,548.769226
	C974.549500,543.202820 966.254089,542.488037 958.006836,541.445862
	C954.410095,540.991333 950.890381,539.828918 948.046021,537.445068
	C947.041931,536.603516 946.133423,536.433105 945.000000,536.500000
"/>
<path fill="none" opacity="1.000000" stroke="#000000" stroke-linecap="round" stroke-linejoin="round" stroke-width="3.000000"
	d="
M1148.000000,353.500000
	C1155.658813,357.611023 1164.127197,358.960449 1172.522461,360.365509
	C1174.389893,360.678101 1175.777954,361.364471 1177.250000,362.250000
"/>
<path fill="none" opacity="1.000000" stroke="#000000" stroke-linecap="round" stroke-linejoin="round" stroke-width="3.000000"
	d="
M892.500000,563.000000
	C892.382996,567.630798 895.427917,571.243103 896.523193,575.494019
	C898.535156,583.302429 897.745117,585.600342 891.000000,590.500000
"/>
<path fill="none" opacity="1.000000" stroke="#000000" stroke-linecap="round" stroke-linejoin="round" stroke-width="3.000000"
	d="
M888.000000,557.500000
	C889.858765,563.005127 895.702393,562.834290 899.624573,565.302002
	C902.121155,566.872864 905.526367,567.564758 908.540222,568.344421
	C912.707886,569.422546 916.822754,568.322449 920.000000,565.000000
"/>
<path fill="none" opacity="1.000000" stroke="#000000" stroke-linecap="round" stroke-linejoin="round" stroke-width="3.000000"
	d="
M886.500000,591.000000
	C894.900940,593.018494 901.741638,597.423889 894.313354,610.324158
	C895.908936,611.833618 897.975403,612.561829 899.969116,613.561523
	C906.917664,617.045776 907.566711,620.840820 902.482971,626.985901
	C901.727966,627.898560 900.948608,628.724304 901.000000,630.000000
"/>
<path fill="none" opacity="1.000000" stroke="#000000" stroke-linecap="round" stroke-linejoin="round" stroke-width="3.000000"
	d="
M663.000000,789.000000
	C667.758423,791.305176 672.734619,792.842102 677.995422,793.534729
	C680.319336,793.840698 682.460815,793.662048 684.500000,792.500000
"/>
<path fill="none" opacity="1.000000" stroke="#000000" stroke-linecap="round" stroke-linejoin="round" stroke-width="4.000000"
	d="
M1008.500000,690.750000
	C1006.555298,695.713196 1008.603821,700.193604 1010.574341,704.465698
	C1013.395386,710.582153 1014.549316,717.154785 1016.639099,723.453857
	C1017.276123,725.373962 1015.961792,725.531616 1015.518555,726.508423
	C1014.470032,728.819519 1012.365662,730.680542 1012.500000,733.500000
"/>
<path fill="none" opacity="1.000000" stroke="#000000" stroke-linecap="round" stroke-linejoin="round" stroke-width="3.000000"
	d="
M919.500000,559.500000
	C919.781677,564.279663 923.035706,569.511475 927.022827,570.397400
	C930.627502,571.198364 933.733765,569.726135 936.626282,567.141296
	C938.050964,565.868225 936.579956,564.272339 938.000000,563.500000
"/>
<path fill="none" opacity="1.000000" stroke="#000000" stroke-linecap="round" stroke-linejoin="round" stroke-width="4.000000"
	d="
M844.000000,770.250000
	C836.532776,773.927612 829.238892,772.682678 821.981995,769.541565
	C821.621704,769.385559 821.000000,769.833313 820.500000,770.000000
"/>
<path fill="none" opacity="1.000000" stroke="#000000" stroke-linecap="round" stroke-linejoin="round" stroke-width="3.000000"
	d="
M858.000000,742.500000
	C860.956604,736.747864 860.841309,735.979065 856.500000,732.500000
	C851.812622,736.670471 851.812622,738.289734 856.500000,743.000000
"/>
<path fill="none" opacity="1.000000" stroke="#000000" stroke-linecap="round" stroke-linejoin="round" stroke-width="3.000000"
	d="
M1006.000000,549.500000
	C1004.539612,550.941284 1004.604492,552.953003 1005.110596,554.462952
	C1005.974060,557.038696 1005.090088,558.772522 1003.500000,560.500000
"/>
<path fill="none" opacity="1.000000" stroke="#000000" stroke-linecap="round" stroke-linejoin="round" stroke-width="3.000000"
	d="
M980.500000,677.500000
	C980.500000,678.000000 980.682312,678.598633 980.473022,678.985413
	C976.618225,686.108948 979.869568,692.185303 983.250000,698.250000
"/>
</svg>
