<svg version="1.1" id="Layer_1" xmlns="http://www.w3.org/2000/svg" xmlns:xlink="http://www.w3.org/1999/xlink" x="0px" y="0px"
	 width="100%" fill="black" viewBox="0 0 1988 186" enable-background="new 0 0 1988 186" xml:space="preserve">
<path fill="black" opacity="1.000000" stroke="none"
	d="
M818.997009,94.000000
	C818.995544,78.001503 819.028625,62.502907 818.982239,47.004547
	C818.941711,33.478142 814.809937,27.624882 802.263611,22.937256
	C800.682373,22.346464 799.209167,21.466665 797.685974,20.720758
	C797.723816,20.241669 797.761658,19.762577 797.799561,19.283487
	C799.387207,18.863966 800.973450,18.085829 802.562805,18.079359
	C822.560364,17.997959 842.558533,17.991386 862.555847,18.107960
	C863.961548,18.116154 865.360657,19.244642 866.762878,19.852203
	C865.596375,20.825245 864.574585,22.318775 863.240540,22.689762
	C851.519531,25.949459 845.862793,33.474648 845.864746,45.697350
	C845.866821,58.349739 845.465027,71.004349 845.090332,83.653557
	C844.948181,88.450195 847.111633,90.067314 851.729248,90.041016
	C873.559753,89.916710 895.391418,90.015350 917.222473,89.967064
	C923.255493,89.953712 924.131104,89.068245 924.139282,82.913322
	C924.156311,70.082047 924.120361,57.249649 923.960571,44.419521
	C923.822876,33.365002 919.233643,27.138575 908.822754,23.446133
	C907.880920,23.112080 906.828430,22.965137 906.007812,22.446007
	C904.982300,21.797283 904.143738,20.852921 903.224487,20.036152
	C904.405579,19.375921 905.583435,18.146908 906.768311,18.140076
	C927.265137,18.021936 947.762939,18.022398 968.259827,18.132008
	C969.496094,18.138620 970.726257,19.276852 971.959229,19.888548
	C970.930115,20.790785 970.047546,22.053312 968.849609,22.540482
	C954.061951,28.554205 951.017151,32.926788 951.006287,48.784950
	C950.985046,79.615280 950.984680,110.445633 951.006287,141.275970
	C951.017578,157.474960 954.445740,162.325363 969.631592,167.959457
	C970.496216,168.280258 971.252747,168.892197 973.367004,170.140549
	C970.697693,171.002167 969.203552,171.898544 967.705200,171.905563
	C947.541077,171.999985 927.376343,171.988220 907.211975,171.931305
	C905.888733,171.927567 904.567017,171.343552 903.244568,171.029449
	C903.170654,170.556183 903.096741,170.082916 903.022827,169.609650
	C904.484802,168.847229 905.883850,167.913223 907.418823,167.349564
	C919.621033,162.868683 923.789246,157.249176 923.964172,144.221512
	C924.152100,130.225342 924.155029,116.226006 924.142212,102.228142
	C924.136353,95.827538 923.318176,95.038284 916.864075,95.026497
	C895.199585,94.986946 873.534912,94.984985 851.870483,95.031784
	C846.017029,95.044426 845.087769,95.878647 845.158203,101.703300
	C845.337646,116.523422 845.557251,131.346222 846.049561,146.158356
	C846.421631,157.354797 850.927612,163.123032 861.521851,166.962601
	C862.148315,167.189636 862.859497,167.279770 863.396729,167.636246
	C864.533936,168.390900 865.582214,169.279587 866.666931,170.113312
	C865.292603,170.733536 863.923950,171.877930 862.543152,171.892700
	C849.045959,172.037231 835.546753,171.996429 822.048157,172.001511
	C815.715454,172.003876 809.381714,172.054306 803.050842,171.943497
	C801.361938,171.913925 799.682007,171.370148 797.997986,171.062454
	C797.905823,170.597061 797.813660,170.131668 797.721497,169.666290
	C798.999084,168.972839 800.209717,168.086517 801.564636,167.615952
	C814.420105,163.151337 818.847168,157.214127 818.953003,143.494583
	C819.078918,127.163910 818.991821,110.831596 818.997009,94.000000
M940.993286,119.500000
	C940.993408,94.344078 941.192932,69.185638 940.875427,44.033722
	C940.776917,36.234131 941.500977,29.431814 949.115723,25.292648
	C949.558655,25.051876 949.722290,24.297329 950.122437,23.594852
	C939.735291,23.594852 929.766724,23.594852 919.041626,23.594852
	C920.020386,24.829260 920.311707,25.503933 920.821777,25.793680
	C927.856018,29.789541 929.168884,36.082855 929.110901,43.652893
	C928.858582,76.636848 928.922974,109.624168 929.057983,142.609497
	C929.092468,151.025269 929.761169,159.421509 921.253723,164.719559
	C921.188293,164.760300 921.262146,165.024689 921.285950,165.456848
	C930.209595,165.456848 939.141357,165.456848 948.073120,165.456848
	C948.393188,165.145782 948.713257,164.834717 949.033325,164.523636
	C941.521057,160.805832 940.627197,154.555954 940.907837,147.485016
	C941.264343,138.503036 940.993530,129.496155 940.993286,119.500000
M836.891785,158.216766
	C836.325195,154.449020 835.280457,150.683014 835.266724,146.913254
	C835.140564,112.293404 835.165955,77.672852 835.216003,43.052601
	C835.226257,35.987896 836.505432,29.419672 843.632996,25.714325
	C844.238098,25.399775 844.554993,24.530678 845.367981,23.427797
	C834.556519,23.427797 824.405945,23.427797 814.254761,23.427797
	C814.254761,24.012959 814.192932,24.212946 814.265747,24.326441
	C814.530457,24.738607 814.754700,25.273729 815.145447,25.493614
	C822.929749,29.874367 824.133179,36.993919 824.082092,45.138275
	C823.884827,76.595329 824.078552,108.054642 823.955688,139.512451
	C823.919617,148.747253 826.160950,158.842133 816.226807,165.474701
	C825.149292,165.474701 834.071838,165.474701 844.522156,165.474701
	C841.385132,162.627319 839.323975,160.756439 836.891785,158.216766
z"/>
<path fill="black" opacity="1.000000" stroke="none"
	d="
M1678.000000,61.002510
	C1677.710327,54.190586 1677.502686,47.872993 1677.112061,41.566727
	C1676.533691,32.227413 1670.946899,26.874891 1662.656982,23.708597
	C1660.587158,22.918015 1658.605591,21.895884 1656.583496,20.980204
	C1656.615967,20.476837 1656.648560,19.973471 1656.681152,19.470104
	C1658.057983,19.124266 1659.461548,18.395893 1660.807739,18.489679
	C1682.818970,20.023235 1704.694580,18.300222 1726.614258,16.431032
	C1743.587158,14.983666 1760.368896,16.507591 1775.339722,25.786779
	C1792.909912,36.677116 1797.497559,60.516701 1785.087524,75.766953
	C1779.083130,83.145714 1770.515625,85.994781 1761.594238,87.931046
	C1758.898926,88.516045 1756.163452,88.916389 1752.560547,89.559418
	C1755.353027,91.109268 1757.339844,92.227371 1759.340576,93.319824
	C1770.348022,99.330666 1777.983521,108.707764 1784.904785,118.823212
	C1794.302979,132.558487 1803.382324,146.536987 1813.375732,159.826630
	C1817.040405,164.700027 1822.942993,167.881516 1827.779907,171.888992
	C1828.963257,172.869446 1829.969727,174.063171 1831.057617,175.158844
	C1829.468506,175.630478 1827.866577,176.552094 1826.292358,176.506958
	C1797.941528,175.694229 1778.885620,159.968796 1764.749390,137.146851
	C1758.893677,127.693230 1754.481812,117.354500 1749.190063,107.538643
	C1746.370239,102.308136 1743.970703,96.421219 1737.885010,94.047966
	C1728.006836,90.195633 1717.609375,90.749962 1707.308838,91.411728
	C1706.169800,91.484909 1704.265991,93.855011 1704.257080,95.170326
	C1704.137939,112.659088 1703.908203,130.163422 1704.527832,147.634735
	C1704.895264,157.997940 1711.494141,164.131866 1721.223511,167.076340
	C1722.977905,167.607269 1724.612305,168.534546 1726.628418,169.422577
	C1722.715454,172.727753 1661.386719,173.021896 1656.599365,169.995865
	C1657.505737,169.223587 1658.192871,168.166138 1659.085083,167.948196
	C1674.172119,164.263138 1677.936768,153.088974 1677.969360,139.492035
	C1678.022217,117.495056 1677.994019,95.497887 1677.999756,73.500793
	C1678.000732,69.501167 1678.000000,65.501534 1678.000000,61.002510
M1723.915649,21.094410
	C1711.479736,22.883734 1705.678711,27.291119 1704.761353,39.036076
	C1703.623291,53.606930 1704.134033,68.318169 1704.339844,82.963097
	C1704.358765,84.309395 1707.334229,86.766228 1708.919067,86.751839
	C1719.388794,86.656815 1729.885742,86.386887 1740.309692,85.455940
	C1748.561890,84.718941 1755.188110,80.392517 1759.191650,73.031166
	C1764.843262,62.639713 1765.678101,51.677071 1760.790283,40.805561
	C1753.833862,25.332968 1740.785645,20.405535 1723.915649,21.094410
M1694.000000,121.500000
	C1694.000000,95.518562 1694.182495,69.535049 1693.885376,43.557007
	C1693.799683,36.057648 1694.748413,29.660727 1701.908203,25.681091
	C1702.492554,25.356356 1702.801270,24.535782 1703.557861,23.513615
	C1692.906982,23.513615 1682.924927,23.513615 1672.051758,23.513615
	C1673.258301,24.806322 1673.689209,25.565458 1674.340454,25.920067
	C1680.961060,29.524628 1682.165894,35.290508 1682.114868,42.357899
	C1681.862671,77.331123 1681.864014,112.308144 1682.115479,147.281387
	C1682.165527,154.230133 1681.223877,160.133423 1675.000732,164.152878
	C1674.841553,164.255661 1674.937744,164.753891 1674.889282,165.420990
	C1683.685913,165.420990 1692.437866,165.420990 1701.189819,165.420990
	C1701.538452,165.091324 1701.887085,164.761642 1702.235718,164.431976
	C1694.166138,160.532181 1693.665649,153.776794 1693.933350,146.480453
	C1694.226318,138.496902 1694.000000,130.494293 1694.000000,121.500000
M1796.926758,154.585083
	C1790.407837,144.971115 1783.794312,135.419662 1777.394775,125.726883
	C1769.876099,114.339180 1762.758911,102.630287 1750.416748,95.589134
	C1749.179077,94.882996 1747.793823,94.435448 1745.906372,93.621964
	C1750.168213,101.198097 1753.881226,107.836517 1757.630249,114.454536
	C1762.540649,123.122704 1766.979736,132.110275 1772.519287,140.357544
	C1781.516479,153.752930 1793.359253,164.001801 1808.884277,169.420563
	C1810.458008,169.969849 1812.102905,170.314987 1814.417358,170.946625
	C1808.226562,165.203445 1802.800415,160.169601 1796.926758,154.585083
M1762.192871,34.382938
	C1772.815186,51.356865 1769.572266,69.596970 1753.175415,85.102386
	C1769.320557,81.711792 1781.309570,68.484337 1780.090942,52.658920
	C1779.054199,39.196106 1766.047974,24.897047 1752.573608,23.937748
	C1755.746460,27.313864 1758.779297,30.541048 1762.192871,34.382938
z"/>
<path fill="black" opacity="1.000000" stroke="none"
	d="
M103.260231,69.745064
	C111.852280,92.138824 120.301208,114.172119 128.750137,136.205414
	C129.164917,136.236755 129.579681,136.268082 129.994446,136.299423
	C130.668091,134.747437 131.428787,133.226913 132.002609,131.638870
	C144.911072,95.915085 157.799042,60.183907 170.689621,24.453665
	C170.802658,24.140341 170.823547,23.763708 171.014404,23.513424
	C172.233627,21.914497 173.488449,20.342722 174.731552,18.762012
	C175.887680,20.259319 177.470886,21.589302 178.133286,23.280039
	C184.210770,38.792267 190.131012,54.366116 196.092270,69.923843
	C204.020569,90.615196 211.938477,111.310539 219.886093,131.994476
	C220.344940,133.188629 221.030365,134.295746 222.104080,136.420242
	C223.197357,134.452042 223.999588,133.319763 224.496872,132.066513
	C234.266937,107.442947 244.003387,82.806030 253.736282,58.167736
	C254.102936,57.239574 254.384476,56.275936 254.672623,55.318882
	C260.021759,37.552292 255.215302,28.716467 237.457901,23.259077
	C235.483215,22.652197 233.815323,21.047129 232.005142,19.904984
	C234.071503,19.271334 236.132507,18.109343 238.205063,18.088385
	C253.535675,17.933353 268.869171,17.943094 284.200073,18.083826
	C286.156647,18.101788 288.103546,19.175598 290.054932,19.760269
	C288.666229,21.174156 287.527191,23.092207 285.849701,23.922977
	C271.098358,31.228497 264.149872,44.814289 258.396088,58.901962
	C243.971039,94.220520 230.111435,129.770020 216.025421,165.227051
	C215.348724,166.930389 214.872620,168.752213 213.948242,170.308029
	C212.918488,172.041214 211.482452,173.533035 210.223267,175.129929
	C209.035355,173.451935 207.432297,171.932693 206.721054,170.072449
	C193.452866,135.370026 180.293213,100.626106 167.101242,65.894516
	C166.111572,63.288925 165.050110,60.710598 163.503174,56.811920
	C162.168045,60.134167 161.264099,62.198128 160.499969,64.312607
	C148.383545,97.840134 136.285812,131.374405 124.180672,164.906021
	C123.388809,167.099503 122.739632,169.367523 121.706390,171.442688
	C121.024490,172.812210 119.773262,173.898254 118.776939,175.111221
	C117.754730,173.936554 116.328568,172.926239 115.773392,171.561569
	C110.750999,159.216232 105.903282,146.800018 100.961876,134.421539
	C89.164604,104.868767 77.419693,75.294708 65.491997,45.794598
	C61.341145,35.528530 55.764271,26.369688 44.244041,22.710592
	C43.275711,22.403028 42.689037,20.893887 41.925049,19.942982
	C43.159805,19.315470 44.380756,18.178488 45.631596,18.144604
	C52.792732,17.950617 59.960964,18.005026 67.126801,18.000902
	C80.459129,17.993227 93.791718,17.965412 107.123566,18.047436
	C109.089447,18.059530 111.051918,18.626896 113.015968,18.937355
	C113.058052,19.500427 113.100136,20.063499 113.142227,20.626574
	C111.610550,21.115999 110.111900,21.824427 108.542122,22.061092
	C92.237450,24.519239 88.574402,30.543861 94.223816,46.031391
	C97.078018,53.856003 100.145866,61.602680 103.260231,69.745064
M112.027824,151.486191
	C114.043129,156.471832 116.058441,161.457474 118.073746,166.443130
	C118.550125,166.341721 119.026512,166.240311 119.502892,166.138916
	C121.903152,159.502731 125.009148,153.458984 121.835732,145.492432
	C109.024536,113.331108 96.799759,80.935493 84.455589,48.589314
	C81.327461,40.392490 78.365547,32.046906 86.168251,24.539314
	C86.273293,24.438251 86.012970,23.957466 85.873680,23.486582
	C76.226097,23.486582 66.547989,23.486582 56.185322,23.486582
	C57.072968,24.932384 57.556274,25.730911 58.050423,26.522676
	C62.075325,32.971729 67.118309,39.003548 69.957222,45.937851
	C84.209084,80.749397 97.884811,115.796814 112.027824,151.486191
M176.041092,44.465195
	C174.872147,41.683277 173.703201,38.901356 172.534256,36.119438
	C172.047546,36.213306 171.560837,36.307171 171.074142,36.401039
	C169.241821,42.335899 164.778214,47.659073 167.442123,54.639706
	C181.202576,90.698196 194.959366,126.758080 208.744232,162.807236
	C209.218155,164.046600 209.976379,165.177246 210.869492,166.863388
	C215.610138,158.388611 216.978958,151.198029 213.345551,142.160217
	C200.441162,110.061729 188.566910,77.549095 176.041092,44.465195
M259.195740,34.104988
	C259.822113,35.295162 260.448456,36.485336 261.330170,38.160698
	C265.400269,33.076683 268.934570,28.661926 273.021088,23.557407
	C265.127472,23.557407 258.127899,23.557407 251.099594,23.557407
	C253.905228,27.102474 256.422424,30.283104 259.195740,34.104988
z"/>
<path fill="black" opacity="1.000000" stroke="none"
	d="
M1515.317017,164.449478
	C1524.695435,158.841736 1525.737671,149.633209 1525.830688,140.637985
	C1526.147339,109.981750 1525.998535,79.320023 1525.915527,48.660694
	C1525.881348,36.006386 1521.560181,26.173658 1507.990845,22.704376
	C1506.829590,22.407480 1505.980591,20.889811 1504.986572,19.939198
	C1506.211792,19.312384 1507.398926,18.256218 1508.669800,18.143602
	C1511.812500,17.865103 1514.993530,18.001438 1518.159180,18.001131
	C1553.318115,17.997715 1588.476929,17.992569 1623.635864,18.006636
	C1631.316895,18.009708 1631.917114,18.442389 1632.759521,25.898952
	C1633.861450,35.653130 1634.790161,45.427883 1635.672974,55.204655
	C1635.790161,56.502110 1635.200195,57.863403 1634.937744,59.195137
	C1634.433350,59.305099 1633.928955,59.415062 1633.424561,59.525024
	C1632.462036,57.807152 1631.300171,56.169769 1630.569214,54.358456
	C1625.407593,41.568146 1618.088745,30.665348 1604.427124,25.820244
	C1591.837036,21.355253 1578.784912,21.852776 1565.955933,24.241903
	C1557.383789,25.838280 1552.540527,32.721546 1552.199097,42.797649
	C1551.781982,55.113937 1552.065918,67.454056 1552.052002,79.783867
	C1552.048828,82.623421 1553.023926,84.945724 1556.236450,84.836578
	C1565.191162,84.532349 1574.225708,84.614647 1583.062378,83.366089
	C1591.656250,82.151863 1597.056885,76.180405 1600.083252,68.136292
	C1600.552368,66.889328 1600.782593,65.496727 1601.491699,64.412407
	C1602.128296,63.438900 1603.272095,62.797028 1604.192017,62.008842
	C1604.768311,63.104465 1605.470459,64.155907 1605.876099,65.311493
	C1606.138916,66.060219 1605.989502,66.961037 1605.989746,67.793732
	C1605.993652,82.290504 1605.996582,96.787292 1605.983887,111.284050
	C1605.982788,112.447647 1606.063599,113.670479 1605.738159,114.755356
	C1605.490601,115.580948 1604.658569,116.231277 1604.086548,116.959625
	C1603.369995,116.388733 1602.346069,115.961143 1601.999268,115.217728
	C1601.231079,113.570358 1600.691895,111.791824 1600.253540,110.018784
	C1597.095825,97.247429 1588.423950,91.139671 1575.821899,90.231506
	C1569.522095,89.777512 1563.147705,89.820198 1556.849121,90.252411
	C1555.193115,90.366043 1552.329102,92.767433 1552.328735,94.118858
	C1552.323730,113.251915 1552.425781,132.396240 1553.160034,151.512558
	C1553.445190,158.935547 1558.273682,164.082260 1565.728760,165.044708
	C1584.208252,167.430389 1602.658081,167.818069 1617.903198,154.662643
	C1626.682129,147.087128 1634.524048,138.427109 1642.808960,130.276779
	C1644.324951,128.785507 1645.942871,127.398155 1647.513672,125.962860
	C1647.993774,126.260696 1648.473877,126.558525 1648.953979,126.856361
	C1648.770020,128.374496 1648.782471,129.948212 1648.370972,131.401947
	C1645.059814,143.101471 1641.569092,154.751099 1638.356567,166.477158
	C1637.238281,170.558441 1634.953247,172.045547 1630.809448,172.036804
	C1590.651978,171.952042 1550.494141,172.000214 1510.336426,171.944443
	C1508.526367,171.941925 1506.716919,171.307343 1504.907227,170.967163
	C1504.808716,170.417816 1504.710205,169.868469 1504.611694,169.319122
	C1508.075806,167.760727 1511.539917,166.202332 1515.317017,164.449478
M1530.000000,82.500000
	C1530.000000,103.652771 1529.814087,124.808067 1530.101440,145.956940
	C1530.201172,153.293289 1529.691895,159.918518 1522.887451,164.340790
	C1522.774048,164.414444 1522.957520,164.944870 1523.009888,165.314178
	C1531.751465,165.314178 1540.469238,165.314178 1549.187134,165.314178
	C1549.565430,164.943695 1549.943726,164.573196 1550.322021,164.202713
	C1540.994629,160.319336 1541.966919,152.669098 1541.978149,145.272125
	C1542.028442,112.293892 1542.149536,79.314392 1541.898682,46.337990
	C1541.832886,37.684101 1541.838501,29.582081 1550.790894,24.893145
	C1550.981812,24.793205 1550.972290,24.310793 1551.171875,23.587944
	C1540.997070,23.587944 1530.955933,23.587944 1519.885132,23.587944
	C1521.428711,25.042646 1522.033936,25.880590 1522.851562,26.340778
	C1528.857910,29.721100 1530.276855,34.965492 1530.104248,41.529041
	C1529.754150,54.844398 1529.999878,68.175430 1530.000000,82.500000
M1632.805786,152.668625
	C1632.983643,151.357285 1633.161621,150.045929 1633.391357,148.352234
	C1625.643799,154.292282 1618.510132,159.761703 1610.999023,165.520447
	C1612.536011,165.701660 1613.776611,165.982697 1615.015137,165.973602
	C1631.086792,165.855652 1627.959351,167.633362 1632.805786,152.668625
M1597.770508,91.209229
	C1597.770508,88.291054 1597.770508,85.372887 1597.770508,81.278046
	C1593.291992,83.986427 1590.449219,85.705589 1587.168091,87.689835
	C1589.997437,89.537315 1592.227295,91.191544 1594.659424,92.457230
	C1595.363403,92.823563 1596.647583,92.074913 1597.770508,91.209229
M1619.271118,22.921412
	C1616.914307,22.921412 1614.557373,22.921412 1612.200562,22.921412
	C1612.162476,23.300560 1612.124512,23.679710 1612.086426,24.058859
	C1616.016968,27.230509 1619.947388,30.402159 1623.877930,33.573807
	C1624.045288,29.205414 1625.694580,24.588875 1619.271118,22.921412
M1625.460449,36.494267
	C1625.460449,36.494267 1625.519165,36.468502 1625.460449,36.494267
z"/>
<path fill="black" opacity="1.000000" stroke="none"
	d="
M630.009827,84.998459
	C636.936401,84.385147 643.472595,84.291443 649.776184,83.032646
	C658.505554,81.289421 663.000366,74.702621 665.892212,66.795776
	C666.532349,65.045555 667.449341,63.396557 668.361084,61.438354
	C671.671814,65.092171 672.080811,112.359245 669.055176,117.367973
	C668.290039,116.418907 667.451599,115.708084 667.049683,114.803322
	C666.446228,113.444778 666.167175,111.944557 665.718323,110.514534
	C661.340454,96.564278 655.112183,91.331436 640.674927,90.213692
	C634.546448,89.739220 628.354919,90.085754 622.192017,90.049179
	C619.014099,90.030312 617.029724,91.376266 617.085449,94.758736
	C617.389648,113.226799 617.378540,131.710510 618.221497,150.154770
	C618.636108,159.228149 623.017700,164.078018 631.569214,165.184235
	C650.988037,167.696259 670.078979,167.187469 685.620972,152.807053
	C693.540833,145.479156 700.865845,137.507889 708.444824,129.812744
	C709.142639,129.104233 709.594849,128.042007 710.408752,127.589706
	C711.295410,127.097031 712.538574,126.836823 713.488342,127.060669
	C713.889893,127.155296 714.314819,128.851517 714.092102,129.639801
	C710.425232,142.618668 706.817688,155.620300 702.708801,168.460632
	C702.190613,170.080109 698.964844,171.694107 696.911072,171.806870
	C689.436157,172.217255 681.926086,171.999069 674.429321,171.999786
	C641.942749,172.002914 609.456177,172.013824 576.969666,171.968918
	C574.636780,171.965683 572.304443,171.537521 569.971802,171.306931
	C569.881836,170.744583 569.791870,170.182251 569.701843,169.619919
	C570.842041,168.974030 571.917358,168.148132 573.132446,167.710007
	C585.845337,163.126221 590.720642,157.405716 590.839294,144.254166
	C591.138489,111.104309 591.084534,77.948997 590.861084,44.797962
	C590.785950,33.651726 585.310120,26.942274 574.783203,23.175919
	C573.022461,22.545973 571.360474,21.640387 569.652832,20.862167
	C569.669434,20.339533 569.686035,19.816900 569.702576,19.294266
	C571.424377,18.868856 573.145569,18.075161 574.868164,18.072130
	C613.685242,18.003811 652.502502,18.047291 691.319580,17.987608
	C695.430237,17.981289 697.487183,19.733862 697.879272,23.771730
	C698.843994,33.706375 699.941284,43.628704 700.820801,53.570534
	C700.978027,55.347874 700.346252,57.195015 700.078857,59.009926
	C699.499817,59.123672 698.920837,59.237419 698.341797,59.351170
	C697.262146,57.118603 696.053833,54.938210 695.123596,52.645039
	C688.977112,37.493889 679.012268,26.234760 662.201111,23.856474
	C652.910339,22.542107 643.201660,22.636652 633.855042,23.668758
	C623.134338,24.852589 617.993958,31.471123 617.293457,44.095680
	C616.629944,56.054165 617.090576,68.075180 617.063110,80.068710
	C617.055542,83.369926 618.757690,84.943909 622.019409,84.945602
	C624.518188,84.946899 627.016968,84.979683 630.009827,84.998459
M698.249634,148.118652
	C691.231201,153.798874 684.212769,159.479111 677.268494,165.099380
	C688.842346,168.875580 694.080322,166.365677 697.297485,155.282272
	C697.990234,152.895416 698.462830,150.444656 699.147827,147.905731
	C699.147827,147.905731 699.129578,147.558182 699.129578,147.558182
	C699.129578,147.558182 698.883240,147.884979 698.249634,148.118652
M607.000000,121.500000
	C607.000061,95.839493 607.142822,70.177719 606.914001,44.519260
	C606.844666,36.735508 607.768066,29.869583 615.334778,25.697210
	C615.807861,25.436331 616.013672,24.690662 616.690552,23.624271
	C606.131287,23.624271 596.144775,23.624271 586.158264,23.624271
	C585.812866,23.963461 585.467468,24.302649 585.122070,24.641838
	C596.861877,29.139927 595.040222,38.735348 595.031982,47.698898
	C595.002502,79.857841 595.034119,112.016838 595.010376,144.175797
	C595.004700,151.884842 596.769653,160.235703 587.966187,165.494232
	C596.896790,165.494232 605.827332,165.494232 615.457703,165.494232
	C614.491577,164.319977 614.111389,163.511551 613.475830,163.139725
	C607.982117,159.925934 606.872803,154.830551 606.967224,148.993042
	C607.109985,140.164154 607.001648,131.331223 607.000000,121.500000
M690.055969,30.773726
	C688.688110,22.036047 684.652649,19.938417 675.726196,23.098116
	C680.312500,26.813702 685.001648,30.612598 690.127136,34.764965
	C690.127136,33.306896 690.127136,32.379360 690.055969,30.773726
M653.619080,86.813194
	C656.165833,89.210632 658.712646,91.608078 661.259399,94.005516
	C661.671814,93.718689 662.084167,93.431854 662.496582,93.145027
	C662.496582,89.707718 662.496582,86.270416 662.496582,82.007034
	C659.210144,83.755356 656.629700,85.128128 653.619080,86.813194
z"/>
<path fill="black" opacity="1.000000" stroke="none"
	d="
M1310.000000,114.999557
	C1309.999268,96.502029 1310.086548,78.503654 1309.938721,60.507214
	C1309.899292,55.701008 1309.512207,50.831886 1308.637939,46.111454
	C1306.560425,34.894459 1300.469482,26.954741 1289.045044,23.828150
	C1287.599609,23.432562 1286.074341,23.171572 1284.759155,22.506033
	C1283.695679,21.967930 1282.893188,20.914463 1281.974854,20.089611
	C1283.155884,19.415344 1284.331665,18.165136 1285.518799,18.154318
	C1300.181641,18.020721 1314.846436,18.020981 1329.509155,18.155499
	C1330.715820,18.166569 1331.911011,19.406612 1333.111572,20.075649
	C1332.461914,20.946609 1331.985107,22.323803 1331.136963,22.613426
	C1315.527466,27.943844 1314.452393,41.285999 1314.142090,54.453922
	C1313.667114,74.606895 1314.005127,94.779045 1314.000244,114.943054
	C1313.995850,133.107346 1314.038696,151.271912 1313.922119,169.435471
	C1313.910522,171.253525 1312.938110,173.065430 1312.411621,174.880219
	C1310.777710,173.923386 1308.808105,173.283630 1307.560303,171.962219
	C1288.128174,151.384079 1268.794678,130.712997 1249.427368,110.073692
	C1238.261597,98.174614 1227.090210,86.280708 1215.895142,74.409187
	C1207.326904,65.323090 1198.720703,56.272888 1190.119629,47.217728
	C1189.576050,46.645470 1188.931763,46.168823 1187.519409,44.936756
	C1187.298950,47.503281 1187.025757,49.216133 1187.023804,50.929298
	C1186.997559,74.092903 1186.736206,97.261497 1187.156982,120.417519
	C1187.306885,128.668518 1188.422363,137.061707 1190.369507,145.081055
	C1192.984863,155.852249 1200.386475,162.861420 1210.919434,166.473709
	C1213.040527,167.201096 1215.100464,168.106628 1217.188599,168.930023
	C1217.214722,169.428558 1217.240967,169.927094 1217.267212,170.425629
	C1215.795044,170.937988 1214.325684,171.885910 1212.850098,171.895874
	C1196.686523,172.005127 1180.521484,172.014114 1164.358154,171.888123
	C1162.979248,171.877365 1161.609497,170.702942 1160.235474,170.069107
	C1161.181641,169.037323 1161.935791,167.634552 1163.103394,167.030853
	C1175.484375,160.628571 1181.441406,149.769470 1181.815063,136.597092
	C1182.697876,105.472504 1182.689941,74.321182 1182.816895,43.179760
	C1182.825928,40.973686 1181.564941,38.105553 1179.915527,36.670368
	C1174.559326,32.009735 1168.722900,27.903872 1163.130249,23.509508
	C1161.908569,22.549526 1160.930542,21.279449 1159.840210,20.152201
	C1161.356812,19.445053 1162.864014,18.149216 1164.391357,18.125059
	C1175.386963,17.951168 1186.392334,17.849382 1197.380371,18.188274
	C1199.678467,18.259153 1202.505127,19.719555 1204.089355,21.452707
	C1215.874146,34.344746 1227.217773,47.641731 1239.060059,60.479309
	C1261.183838,84.462425 1283.547852,108.224060 1305.830688,132.060318
	C1306.677490,132.966248 1307.719238,133.689972 1310.000000,135.629547
	C1310.000000,127.961594 1310.000000,121.730515 1310.000000,114.999557
M1293.865723,133.641113
	C1278.293091,116.978546 1262.622437,100.406128 1247.173462,83.629730
	C1229.482178,64.418358 1211.995361,45.018726 1194.384644,25.732946
	C1193.522217,24.788479 1192.347412,23.513712 1191.278931,23.474997
	C1185.253662,23.256676 1179.216309,23.369587 1173.686279,23.369587
	C1218.644043,71.219032 1263.527222,118.989197 1308.410400,166.759354
	C1310.227295,158.158859 1311.474487,150.363434 1303.952148,144.298660
	C1300.358521,141.401398 1297.500854,137.591049 1293.865723,133.641113
M1185.340698,152.753052
	C1184.402222,152.370239 1182.731201,151.518082 1182.631958,151.672958
	C1179.832764,156.042145 1177.192261,160.512955 1174.257446,165.415222
	C1180.726562,165.415222 1186.485474,165.415222 1192.878662,165.415222
	C1190.186279,160.902802 1187.919434,157.103424 1185.340698,152.753052
M1315.043579,25.386824
	C1314.502930,24.630392 1313.988647,23.241798 1313.417480,23.217966
	C1309.034424,23.035097 1304.640381,23.117483 1299.506714,23.117483
	C1303.275024,27.323675 1306.380371,30.789850 1309.859375,34.673180
	C1311.586182,31.602530 1313.180664,28.767082 1315.043579,25.386824
z"/>
<path fill="black" opacity="1.000000" stroke="none"
	d="
M537.001221,120.000000
	C537.000854,136.164291 537.071838,151.829224 536.926453,167.492172
	C536.903564,169.962173 535.902283,172.423096 535.353333,174.888199
	C533.251099,173.441666 530.809692,172.314789 529.098633,170.499542
	C510.484833,150.752228 491.997498,130.885788 473.450378,111.075539
	C462.412231,99.285652 451.341003,87.526634 440.262329,75.774803
	C431.239197,66.203400 422.186584,56.659775 413.132233,47.117889
	C412.594727,46.551460 411.925262,46.110233 410.512695,44.949871
	C410.297668,47.488472 410.027313,49.207260 410.025330,50.926361
	C409.999481,73.422905 409.866638,95.920998 410.100433,118.415161
	C410.172821,125.377800 410.951660,132.376144 411.961761,139.276947
	C414.006500,153.246216 421.699707,162.683594 435.366211,166.960251
	C436.632721,167.356583 437.873840,167.858521 439.077515,168.417419
	C439.475372,168.602173 439.718262,169.120697 440.615509,170.167099
	C439.163544,170.840942 438.011047,171.836792 436.852264,171.844208
	C420.356384,171.949570 403.859467,171.953049 387.363525,171.855789
	C386.221924,171.849045 385.086151,170.851624 383.947662,170.314896
	C384.564453,169.267166 384.922882,167.713074 385.836426,167.247009
	C401.566589,159.221695 405.495178,144.680511 405.807800,129.031403
	C406.373444,100.713760 406.060883,72.376007 405.824585,44.049084
	C405.802399,41.388950 404.391327,37.993874 402.450226,36.240925
	C397.312256,31.600801 391.499084,27.713436 386.026672,23.434359
	C384.823730,22.493738 383.919617,21.171005 382.877869,20.024239
	C384.260834,19.363001 385.636200,18.147249 387.027985,18.128094
	C398.357208,17.972162 409.694244,17.871696 421.016602,18.190851
	C423.120514,18.250154 425.673370,19.818670 427.156189,21.466896
	C433.716827,28.759197 439.696777,36.581676 446.368622,43.764812
	C474.126801,73.650215 502.058044,103.374863 529.936768,133.148239
	C530.371277,133.612274 530.944824,133.946075 532.291199,134.990509
	C532.581238,132.682861 532.964111,131.044434 532.966553,129.405441
	C533.002502,105.242523 533.107849,81.078430 532.885803,56.917469
	C532.840393,51.979912 531.929993,46.949459 530.700195,42.145664
	C528.481995,33.480438 522.831177,27.641897 514.390869,24.603802
	C512.356445,23.871489 510.175323,23.507557 508.208344,22.641176
	C506.989716,22.104403 506.047546,20.939915 504.981293,20.057196
	C506.171295,19.393101 507.356262,18.161839 508.552094,18.151180
	C523.214600,18.020485 537.878967,18.033695 552.541931,18.137554
	C553.696228,18.145731 554.843750,19.106806 555.994446,19.625023
	C555.520874,20.570980 555.259399,22.123341 554.542664,22.374044
	C537.546997,28.318722 537.398010,42.941788 537.112732,57.012146
	C536.690674,77.833626 537.002075,98.669975 537.001221,120.000000
M477.494324,109.022530
	C495.423767,128.301941 513.353210,147.581345 531.282654,166.860764
	C531.742188,166.563522 532.201660,166.266296 532.661133,165.969070
	C532.914185,158.465775 535.065308,150.635239 527.370483,144.760681
	C524.617004,142.658524 522.355103,139.890793 519.966370,137.335602
	C497.000610,112.769386 474.012451,88.223869 451.124481,63.585304
	C440.817719,52.490246 430.589264,41.315372 420.611023,29.926399
	C417.518921,26.397156 415.438446,22.277369 409.610626,22.913471
	C405.183899,23.396645 400.662170,23.009312 398.131287,23.009312
	C401.466766,27.137529 404.865021,31.921520 408.839111,36.166393
	C431.482666,60.352791 454.263550,84.410599 477.494324,109.022530
M405.184692,152.491913
	C402.651062,156.644272 400.117401,160.796631 397.271515,165.460724
	C403.701965,165.460724 409.458252,165.460724 416.050964,165.460724
	C412.871338,160.251892 410.170410,155.790115 407.364655,151.395294
	C407.272034,151.250214 406.114105,151.785233 405.184692,152.491913
M530.514160,22.999470
	C528.056274,23.138622 525.598389,23.277775 522.635437,23.445520
	C526.427124,27.446606 529.524048,30.714542 533.054443,34.439930
	C535.141113,30.659328 536.917969,27.440088 539.131775,23.429235
	C535.901062,23.249872 533.648254,23.124796 530.514160,22.999470
z"/>
<path fill="black" opacity="1.000000" stroke="none"
	d="
M1931.372681,46.585457
	C1931.797241,48.977730 1932.365845,50.944172 1932.395508,52.918701
	C1932.420288,54.571346 1931.815186,56.233444 1931.489014,57.891373
	C1930.387939,56.689419 1928.929199,55.659576 1928.252197,54.253437
	C1926.161011,49.908993 1924.672852,45.257805 1922.404175,41.018162
	C1914.094971,25.490238 1894.940186,16.842789 1878.278809,20.944595
	C1868.706787,23.301065 1861.328857,28.472715 1859.352051,38.626709
	C1857.230103,49.526447 1861.017578,58.680134 1870.702393,64.230194
	C1879.772827,69.428230 1889.462646,73.546013 1898.884888,78.129143
	C1908.154663,82.638069 1917.910278,86.363159 1926.616211,91.777191
	C1955.730347,109.882553 1952.470947,151.085571 1922.400635,167.313278
	C1905.272095,176.556778 1887.252808,176.714584 1868.940430,172.623428
	C1860.680908,170.778183 1852.630005,167.921112 1844.602661,165.177521
	C1842.829590,164.571548 1840.398926,162.625732 1840.236206,161.088776
	C1838.941772,148.866837 1838.103638,136.595993 1837.204834,124.334328
	C1837.154907,123.653610 1837.807129,122.921417 1838.710205,120.956757
	C1840.115601,123.645439 1841.163574,125.327415 1841.911743,127.133553
	C1847.130737,139.732285 1853.685303,151.361145 1864.567139,160.100555
	C1877.543091,170.522064 1895.972290,171.974594 1910.604492,164.211868
	C1929.223633,154.334015 1929.922852,126.916824 1914.167969,116.307884
	C1904.299805,109.662994 1893.257690,104.755104 1882.711914,99.124840
	C1873.923462,94.432800 1864.554810,90.608757 1856.378906,85.029259
	C1832.636353,68.827118 1837.162476,34.650612 1861.115723,21.465294
	C1873.769897,14.499698 1887.037476,13.835179 1900.828979,17.253466
	C1908.089722,19.053070 1915.433472,20.557487 1922.794556,21.893145
	C1925.915527,22.459457 1927.487671,23.902334 1927.980469,26.961220
	C1929.013672,33.372787 1930.174805,39.763714 1931.372681,46.585457
M1924.250244,156.945602
	C1924.386475,156.769928 1924.522705,156.594269 1924.658936,156.418579
	C1924.443481,156.616058 1924.228027,156.813538 1923.965942,157.021317
	C1923.965942,157.021317 1923.982056,156.982422 1924.250244,156.945602
M1927.779419,152.926895
	C1928.947998,151.774536 1930.327271,150.769577 1931.252808,149.447113
	C1941.164551,135.284714 1938.215698,113.123405 1924.032471,103.252190
	C1914.829712,96.847183 1904.360718,92.239372 1894.371338,86.993095
	C1883.798828,81.440491 1872.599487,76.892288 1862.631470,70.428444
	C1851.549316,63.242016 1848.444458,48.733852 1853.631592,36.598083
	C1854.210083,35.244884 1854.631714,33.824749 1855.535645,31.284643
	C1842.526978,41.530670 1841.580444,64.141731 1852.373413,75.886932
	C1859.331909,83.459282 1868.269165,87.800888 1877.370605,92.001381
	C1887.942627,96.880547 1898.609253,101.594971 1908.933960,106.960007
	C1923.372559,114.462868 1935.320801,131.197357 1926.896484,153.025345
	C1926.896484,153.025345 1927.146973,153.177109 1927.779419,152.926895
M1853.976685,158.473755
	C1850.318848,154.032898 1846.660889,149.592041 1842.889038,145.012894
	C1842.599609,158.503265 1846.203125,162.869171 1859.232300,164.008820
	C1857.326660,161.992752 1855.894775,160.477753 1853.976685,158.473755
M1857.978882,28.563234
	C1857.978882,28.563234 1857.953857,28.490242 1857.978882,28.563234
z"/>
<path fill="black" opacity="1.000000" stroke="none"
	d="
M1094.279053,164.433655
	C1112.046143,156.659943 1120.728027,142.520721 1121.732788,124.353210
	C1122.981934,101.766586 1122.997803,79.088440 1122.835083,56.454945
	C1122.719727,40.415173 1117.172363,27.314714 1099.768555,22.693491
	C1098.990234,22.486818 1098.255005,21.990747 1097.600464,21.496122
	C1097.246826,21.228937 1097.106812,20.679085 1096.441406,19.490585
	C1098.253784,18.954777 1099.812744,18.104343 1101.378418,18.091993
	C1115.038818,17.984262 1128.700928,17.964773 1142.360718,18.108114
	C1143.938843,18.124676 1145.504761,19.294239 1147.076416,19.929268
	C1145.865845,21.081209 1144.853516,22.719374 1143.412842,23.306770
	C1133.432129,27.375990 1128.482788,35.263294 1128.167603,45.435719
	C1127.404663,70.058487 1127.382202,94.703621 1126.980469,119.338432
	C1126.798096,130.518280 1124.386963,141.083038 1118.218140,150.654709
	C1111.406982,161.222778 1101.712280,168.035202 1090.062256,171.928360
	C1074.628052,177.086014 1058.953247,177.320343 1043.471680,171.968384
	C1022.465515,164.706619 1010.160522,149.931641 1007.161377,127.920258
	C1006.065674,119.878326 1006.088501,111.662582 1005.922668,103.519585
	C1005.515869,83.542580 1005.393005,63.559689 1004.961670,43.583355
	C1004.738525,33.244789 1000.169373,27.267719 990.529236,23.655880
	C988.489197,22.891558 986.557190,21.838720 984.575439,20.918800
	C984.624878,20.360931 984.674316,19.803064 984.723755,19.245195
	C986.466431,18.835789 988.207520,18.077858 989.951904,18.070337
	C1009.610474,17.985575 1029.269531,18.010704 1048.928467,18.028952
	C1050.087402,18.030027 1051.302856,18.048107 1052.383667,18.395393
	C1053.036011,18.605015 1053.853149,19.431683 1053.909424,20.044262
	C1053.964111,20.639599 1053.281494,21.636606 1052.680054,21.897106
	C1050.702393,22.753531 1048.587769,23.286028 1046.574097,24.067593
	C1037.620972,27.542587 1032.224365,33.977718 1032.145020,43.674931
	C1031.920044,71.161919 1031.567749,98.663536 1032.212769,126.137161
	C1032.760010,149.442581 1050.435547,166.448090 1073.735229,166.907074
	C1080.443115,167.039230 1087.186035,165.400101 1094.279053,164.433655
M1022.000000,117.458755
	C1022.000549,91.971313 1022.149048,66.482422 1021.898254,40.997456
	C1021.835022,34.568867 1023.368225,29.585888 1029.146729,26.302893
	C1030.007446,25.813848 1030.557495,24.777617 1031.598145,23.602945
	C1020.674011,23.602945 1010.453247,23.602945 1000.232483,23.602945
	C999.827515,23.974012 999.422607,24.345078 999.017639,24.716145
	C1011.335754,28.768505 1010.094116,38.376118 1010.039368,47.670280
	C1009.915649,68.659210 1009.698303,89.655411 1010.113525,110.636887
	C1010.381042,124.154442 1011.882080,137.570389 1019.710571,149.367752
	C1028.471069,162.569550 1046.614868,172.458771 1060.846191,171.225998
	C1057.957642,170.114578 1055.482178,169.203384 1053.038086,168.214462
	C1042.877441,164.103287 1034.465576,157.850601 1028.825317,148.258698
	C1023.406982,139.044479 1022.092285,128.880463 1022.000000,117.458755
M1120.590698,22.999737
	C1118.430298,23.110348 1116.269897,23.220959 1113.384033,23.368715
	C1116.937866,27.230610 1119.745361,30.281441 1122.856567,33.662277
	C1124.943726,30.204029 1126.756836,27.200001 1129.041382,23.414900
	C1125.907349,23.243509 1123.679565,23.121672 1120.590698,22.999737
z"/>
<path fill="black" opacity="1.000000" stroke="none"
	d="
M1399.000000,17.998478
	C1427.649902,17.999538 1455.799927,17.989513 1483.949829,18.009235
	C1491.250610,18.014349 1491.604248,18.079189 1492.436646,25.282068
	C1493.543213,34.858120 1494.208618,44.487915 1494.900513,54.106358
	C1495.016357,55.718597 1494.304810,57.390350 1493.975586,59.034599
	C1493.491577,59.111408 1493.007446,59.188213 1492.523315,59.265022
	C1491.571533,57.513668 1490.451904,55.831516 1489.696411,53.999207
	C1486.235107,45.605030 1481.920776,37.820446 1475.101929,31.590071
	C1467.160522,24.334044 1457.819702,21.771898 1447.379761,23.327677
	C1438.155518,24.702291 1432.404053,32.255589 1432.093750,43.308983
	C1431.846191,52.130417 1432.004272,60.963551 1432.002197,69.791496
	C1431.996704,93.110962 1431.983398,116.430450 1432.008911,139.749893
	C1432.027100,156.323441 1437.061646,162.944489 1452.940308,167.416229
	C1453.901489,167.686905 1454.976074,167.736450 1455.812744,168.213394
	C1456.559082,168.638809 1457.048950,169.513931 1457.652100,170.190582
	C1456.921143,170.743088 1456.259399,171.585999 1455.443115,171.781082
	C1454.172852,172.084579 1452.797485,171.990555 1451.466675,171.991104
	C1429.812866,171.999969 1408.159058,172.018890 1386.505371,171.963455
	C1384.340942,171.957916 1382.177856,171.484634 1380.014160,171.228424
	C1379.942993,170.783890 1379.871826,170.339371 1379.800659,169.894836
	C1380.617554,169.284821 1381.355347,168.478455 1382.269653,168.110794
	C1383.648804,167.556229 1385.164551,167.352875 1386.598999,166.922470
	C1400.042358,162.888733 1405.640747,156.564194 1405.802734,142.500320
	C1406.179077,109.858139 1406.321045,77.202072 1405.782715,44.564419
	C1405.420288,22.596060 1388.011475,19.402788 1372.995239,25.259171
	C1360.827759,30.004570 1353.831543,40.258080 1348.877075,51.968349
	C1347.766846,54.592731 1346.477783,57.141529 1345.270996,59.725128
	C1344.550659,59.582565 1343.830322,59.440006 1343.109985,59.297443
	C1343.109985,56.176903 1342.932129,53.044182 1343.144653,49.938194
	C1343.701050,41.810314 1344.425659,33.693920 1345.087646,25.573305
	C1345.606689,19.204437 1346.758057,18.039469 1353.027222,18.020502
	C1368.184692,17.974646 1383.342407,18.001148 1399.000000,17.998478
M1422.000000,92.500000
	C1422.000366,75.344193 1422.197266,58.184978 1421.899902,41.034336
	C1421.788452,34.604343 1423.341797,29.614281 1429.198730,26.400991
	C1430.069458,25.923344 1430.640625,24.899973 1431.812500,23.627033
	C1421.588013,23.627033 1412.170532,23.627033 1402.354980,23.627033
	C1410.000000,35.197922 1410.000000,35.197922 1410.000000,49.807114
	C1410.000000,82.286613 1409.862305,114.767174 1410.109863,147.244781
	C1410.162842,154.192612 1409.119751,160.090820 1402.996582,164.177246
	C1402.839722,164.281891 1402.944702,164.778610 1402.910278,165.407745
	C1411.698975,165.407745 1420.450195,165.407745 1429.665649,165.407745
	C1422.000000,155.807419 1422.000000,155.807419 1422.000000,143.468460
	C1422.000000,126.812309 1422.000000,110.156151 1422.000000,92.500000
M1360.901733,22.252432
	C1349.420654,22.060759 1346.297974,25.853586 1349.286621,35.870113
	C1353.386108,32.097702 1357.625488,28.240953 1361.768921,24.283333
	C1362.043457,24.021116 1361.585693,22.991974 1360.901733,22.252432
M1473.683716,25.901691
	C1477.174683,28.669327 1480.665527,31.436962 1484.277710,34.300663
	C1485.197021,22.939714 1480.741577,19.656729 1469.136353,23.195187
	C1470.594971,24.067497 1471.842773,24.813702 1473.683716,25.901691
z"/>
<path fill="black" opacity="1.000000" stroke="none"
	d="
M344.000000,172.000504
	C329.026398,171.949677 314.552765,171.898834 300.079163,171.848007
	C299.956116,171.119904 299.833069,170.391785 299.710022,169.663681
	C300.985352,168.958267 302.191010,168.054321 303.546875,167.578415
	C315.887573,163.246872 320.707642,157.565277 320.830414,144.371353
	C321.140289,111.071243 321.034882,77.765747 320.864380,44.463593
	C320.810699,33.973087 315.163208,27.064356 305.444489,23.363018
	C303.519745,22.629992 301.650726,21.750717 299.756012,20.938890
	C299.750366,20.454662 299.744720,19.970436 299.739105,19.486208
	C301.253387,19.002367 302.765686,18.104574 304.282257,18.097357
	C324.097260,18.003054 343.913055,17.997944 363.727844,18.112040
	C365.153229,18.120247 366.572205,19.229998 367.994171,19.827576
	C367.044403,20.805004 366.247131,22.382572 365.121674,22.668476
	C351.534546,26.120079 347.183350,36.065113 347.115448,48.623360
	C346.947083,79.760925 346.939484,110.900658 347.112976,142.038147
	C347.182404,154.500961 352.024048,164.024887 365.084900,167.602158
	C366.225555,167.914566 367.212677,168.787476 368.177399,170.205048
	C360.380768,173.089569 352.346222,171.495758 344.000000,172.000504
M325.033844,110.500000
	C325.032867,122.828796 324.785583,135.164429 325.127502,147.483704
	C325.318634,154.370880 324.562561,160.432800 318.093323,164.357620
	C317.954590,164.441772 318.075897,164.954514 318.075897,165.418030
	C327.003021,165.418030 335.909027,165.418030 344.815063,165.418030
	C339.023438,160.979263 336.891418,155.611435 336.926361,148.673813
	C337.106750,112.854530 337.087982,77.033531 336.938171,41.213963
	C336.912018,34.960773 339.099487,30.274260 344.079559,26.693506
	C345.149933,25.923908 346.060364,24.931894 347.597565,23.542381
	C336.393066,23.542381 326.252838,23.542381 315.276215,23.542381
	C316.510986,24.839924 316.966492,25.607763 317.640533,25.981804
	C323.826477,29.414663 325.235199,34.764748 325.144379,41.526482
	C324.840149,64.180733 325.032074,86.841644 325.033844,110.500000
z"/>
<path fill="#0D1117" opacity="0" stroke="none"
	d="
M940.993286,120.000000
	C940.993530,129.496155 941.264343,138.503036 940.907837,147.485016
	C940.627197,154.555954 941.521057,160.805832 949.033325,164.523636
	C948.713257,164.834717 948.393188,165.145782 948.073120,165.456848
	C939.141357,165.456848 930.209595,165.456848 921.285950,165.456848
	C921.262146,165.024689 921.188293,164.760300 921.253723,164.719559
	C929.761169,159.421509 929.092468,151.025269 929.057983,142.609497
	C928.922974,109.624168 928.858582,76.636848 929.110901,43.652893
	C929.168884,36.082855 927.856018,29.789541 920.821777,25.793680
	C920.311707,25.503933 920.020386,24.829260 919.041626,23.594852
	C929.766724,23.594852 939.735291,23.594852 950.122437,23.594852
	C949.722290,24.297329 949.558655,25.051876 949.115723,25.292648
	C941.500977,29.431814 940.776917,36.234131 940.875427,44.033722
	C941.192932,69.185638 940.993408,94.344078 940.993286,120.000000
z"/>
<path fill="#0D1117" opacity="0" stroke="none"
	d="
M837.077271,158.551163
	C839.323975,160.756439 841.385132,162.627319 844.522156,165.474701
	C834.071838,165.474701 825.149292,165.474701 816.226807,165.474701
	C826.160950,158.842133 823.919617,148.747253 823.955688,139.512451
	C824.078552,108.054642 823.884827,76.595329 824.082092,45.138275
	C824.133179,36.993919 822.929749,29.874367 815.145447,25.493614
	C814.754700,25.273729 814.530457,24.738607 814.265747,24.326441
	C814.192932,24.212946 814.254761,24.012959 814.254761,23.427797
	C824.405945,23.427797 834.556519,23.427797 845.367981,23.427797
	C844.554993,24.530678 844.238098,25.399775 843.632996,25.714325
	C836.505432,29.419672 835.226257,35.987896 835.216003,43.052601
	C835.165955,77.672852 835.140564,112.293404 835.266724,146.913254
	C835.280457,150.683014 836.325195,154.449020 837.077271,158.551163
z"/>
<path fill="#0D1117" opacity="0" stroke="none"
	d="
M1724.368652,21.073816
	C1740.785645,20.405535 1753.833862,25.332968 1760.790283,40.805561
	C1765.678101,51.677071 1764.843262,62.639713 1759.191650,73.031166
	C1755.188110,80.392517 1748.561890,84.718941 1740.309692,85.455940
	C1729.885742,86.386887 1719.388794,86.656815 1708.919067,86.751839
	C1707.334229,86.766228 1704.358765,84.309395 1704.339844,82.963097
	C1704.134033,68.318169 1703.623291,53.606930 1704.761353,39.036076
	C1705.678711,27.291119 1711.479736,22.883734 1724.368652,21.073816
z"/>
<path fill="#0D1117" opacity="0" stroke="none"
	d="
M1694.000000,122.000000
	C1694.000000,130.494293 1694.226318,138.496902 1693.933350,146.480453
	C1693.665649,153.776794 1694.166138,160.532181 1702.235718,164.431976
	C1701.887085,164.761642 1701.538452,165.091324 1701.189819,165.420990
	C1692.437866,165.420990 1683.685913,165.420990 1674.889282,165.420990
	C1674.937744,164.753891 1674.841553,164.255661 1675.000732,164.152878
	C1681.223877,160.133423 1682.165527,154.230133 1682.115479,147.281387
	C1681.864014,112.308144 1681.862671,77.331123 1682.114868,42.357899
	C1682.165894,35.290508 1680.961060,29.524628 1674.340454,25.920067
	C1673.689209,25.565458 1673.258301,24.806322 1672.051758,23.513615
	C1682.924927,23.513615 1692.906982,23.513615 1703.557861,23.513615
	C1702.801270,24.535782 1702.492554,25.356356 1701.908203,25.681091
	C1694.748413,29.660727 1693.799683,36.057648 1693.885376,43.557007
	C1694.182495,69.535049 1694.000000,95.518562 1694.000000,122.000000
z"/>
<path fill="#0D1117" opacity="0" stroke="none"
	d="
M1797.150513,154.860413
	C1802.800415,160.169601 1808.226562,165.203445 1814.417358,170.946625
	C1812.102905,170.314987 1810.458008,169.969849 1808.884277,169.420563
	C1793.359253,164.001801 1781.516479,153.752930 1772.519287,140.357544
	C1766.979736,132.110275 1762.540649,123.122704 1757.630249,114.454536
	C1753.881226,107.836517 1750.168213,101.198097 1745.906372,93.621964
	C1747.793823,94.435448 1749.179077,94.882996 1750.416748,95.589134
	C1762.758911,102.630287 1769.876099,114.339180 1777.394775,125.726883
	C1783.794312,135.419662 1790.407837,144.971115 1797.150513,154.860413
z"/>
<path fill="#0D1117" opacity="0" stroke="none"
	d="
M1762.002441,34.075584
	C1758.779297,30.541048 1755.746460,27.313864 1752.573608,23.937748
	C1766.047974,24.897047 1779.054199,39.196106 1780.090942,52.658920
	C1781.309570,68.484337 1769.320557,81.711792 1753.175415,85.102386
	C1769.572266,69.596970 1772.815186,51.356865 1762.002441,34.075584
z"/>
<path fill="#0D1117" opacity="0" stroke="none"
	d="
M111.895386,151.123779
	C97.884811,115.796814 84.209084,80.749397 69.957222,45.937851
	C67.118309,39.003548 62.075325,32.971729 58.050423,26.522676
	C57.556274,25.730911 57.072968,24.932384 56.185322,23.486582
	C66.547989,23.486582 76.226097,23.486582 85.873680,23.486582
	C86.012970,23.957466 86.273293,24.438251 86.168251,24.539314
	C78.365547,32.046906 81.327461,40.392490 84.455589,48.589314
	C96.799759,80.935493 109.024536,113.331108 121.835732,145.492432
	C125.009148,153.458984 121.903152,159.502731 119.502892,166.138916
	C119.026512,166.240311 118.550125,166.341721 118.073746,166.443130
	C116.058441,161.457474 114.043129,156.471832 111.895386,151.123779
z"/>
<path fill="#0D1117" opacity="0" stroke="none"
	d="
M176.171783,44.829266
	C188.566910,77.549095 200.441162,110.061729 213.345551,142.160217
	C216.978958,151.198029 215.610138,158.388611 210.869492,166.863388
	C209.976379,165.177246 209.218155,164.046600 208.744232,162.807236
	C194.959366,126.758080 181.202576,90.698196 167.442123,54.639706
	C164.778214,47.659073 169.241821,42.335899 171.074142,36.401039
	C171.560837,36.307171 172.047546,36.213306 172.534256,36.119438
	C173.703201,38.901356 174.872147,41.683277 176.171783,44.829266
z"/>
<path fill="#0D1117" opacity="0" stroke="none"
	d="
M259.067688,33.784363
	C256.422424,30.283104 253.905228,27.102474 251.099594,23.557407
	C258.127899,23.557407 265.127472,23.557407 273.021088,23.557407
	C268.934570,28.661926 265.400269,33.076683 261.330170,38.160698
	C260.448456,36.485336 259.822113,35.295162 259.067688,33.784363
z"/>
<path fill="#0D1117" opacity="0" stroke="none"
	d="
M1530.000000,82.000000
	C1529.999878,68.175430 1529.754150,54.844398 1530.104248,41.529041
	C1530.276855,34.965492 1528.857910,29.721100 1522.851562,26.340778
	C1522.033936,25.880590 1521.428711,25.042646 1519.885132,23.587944
	C1530.955933,23.587944 1540.997070,23.587944 1551.171875,23.587944
	C1550.972290,24.310793 1550.981812,24.793205 1550.790894,24.893145
	C1541.838501,29.582081 1541.832886,37.684101 1541.898682,46.337990
	C1542.149536,79.314392 1542.028442,112.293892 1541.978149,145.272125
	C1541.966919,152.669098 1540.994629,160.319336 1550.322021,164.202713
	C1549.943726,164.573196 1549.565430,164.943695 1549.187134,165.314178
	C1540.469238,165.314178 1531.751465,165.314178 1523.009888,165.314178
	C1522.957520,164.944870 1522.774048,164.414444 1522.887451,164.340790
	C1529.691895,159.918518 1530.201172,153.293289 1530.101440,145.956940
	C1529.814087,124.808067 1530.000000,103.652771 1530.000000,82.000000
z"/>
<path fill="#0D1117" opacity="0" stroke="none"
	d="
M1632.705078,153.016251
	C1627.959351,167.633362 1631.086792,165.855652 1615.015137,165.973602
	C1613.776611,165.982697 1612.536011,165.701660 1610.999023,165.520447
	C1618.510132,159.761703 1625.643799,154.292282 1633.391357,148.352234
	C1633.161621,150.045929 1632.983643,151.357285 1632.705078,153.016251
z"/>
<path fill="#0D1117" opacity="0" stroke="none"
	d="
M1597.718140,91.523308
	C1596.647583,92.074913 1595.363403,92.823563 1594.659424,92.457230
	C1592.227295,91.191544 1589.997437,89.537315 1587.168091,87.689835
	C1590.449219,85.705589 1593.291992,83.986427 1597.770508,81.278046
	C1597.770508,85.372887 1597.770508,88.291054 1597.718140,91.523308
z"/>
<path fill="#0D1117" opacity="0" stroke="none"
	d="
M1619.685059,22.963140
	C1625.694580,24.588875 1624.045288,29.205414 1623.877930,33.573807
	C1619.947388,30.402159 1616.016968,27.230509 1612.086426,24.058859
	C1612.124512,23.679710 1612.162476,23.300560 1612.200562,22.921412
	C1614.557373,22.921412 1616.914307,22.921412 1619.685059,22.963140
z"/>
<path fill="#0D1117" opacity="0" stroke="none"
	d="
M1625.489746,36.481384
	C1625.519165,36.468502 1625.460449,36.494267 1625.489746,36.481384
z"/>
<path fill="#0D1117" opacity="0" stroke="none"
	d="
M607.000000,122.000000
	C607.001648,131.331223 607.109985,140.164154 606.967224,148.993042
	C606.872803,154.830551 607.982117,159.925934 613.475830,163.139725
	C614.111389,163.511551 614.491577,164.319977 615.457703,165.494232
	C605.827332,165.494232 596.896790,165.494232 587.966187,165.494232
	C596.769653,160.235703 595.004700,151.884842 595.010376,144.175797
	C595.034119,112.016838 595.002502,79.857841 595.031982,47.698898
	C595.040222,38.735348 596.861877,29.139927 585.122070,24.641838
	C585.467468,24.302649 585.812866,23.963461 586.158264,23.624271
	C596.144775,23.624271 606.131287,23.624271 616.690552,23.624271
	C616.013672,24.690662 615.807861,25.436331 615.334778,25.697210
	C607.768066,29.869583 606.844666,36.735508 606.914001,44.519260
	C607.142822,70.177719 607.000061,95.839493 607.000000,122.000000
z"/>
<path fill="#0D1117" opacity="0" stroke="none"
	d="
M699.036865,148.023346
	C698.462830,150.444656 697.990234,152.895416 697.297485,155.282272
	C694.080322,166.365677 688.842346,168.875580 677.268494,165.099380
	C684.212769,159.479111 691.231201,153.798874 698.604614,148.036606
	C698.959656,147.954559 699.036804,148.023331 699.036865,148.023346
z"/>
<path fill="#0D1117" opacity="0" stroke="none"
	d="
M690.091553,31.112776
	C690.127136,32.379360 690.127136,33.306896 690.127136,34.764965
	C685.001648,30.612598 680.312500,26.813702 675.726196,23.098116
	C684.652649,19.938417 688.688110,22.036047 690.091553,31.112776
z"/>
<path fill="#0D1117" opacity="0" stroke="none"
	d="
M653.834106,86.657043
	C656.629700,85.128128 659.210144,83.755356 662.496582,82.007034
	C662.496582,86.270416 662.496582,89.707718 662.496582,93.145027
	C662.084167,93.431854 661.671814,93.718689 661.259399,94.005516
	C658.712646,91.608078 656.165833,89.210632 653.834106,86.657043
z"/>
<path fill="#0D1117" opacity="0" stroke="none"
	d="
M698.921448,147.919769
	C698.883240,147.884979 699.129578,147.558182 699.129578,147.558182
	C699.129578,147.558182 699.147827,147.905731 699.092285,147.964539
	C699.036804,148.023331 698.959656,147.954559 698.921448,147.919769
z"/>
<path fill="#0D1117" opacity="0" stroke="none"
	d="
M1294.087891,133.917694
	C1297.500854,137.591049 1300.358521,141.401398 1303.952148,144.298660
	C1311.474487,150.363434 1310.227295,158.158859 1308.410400,166.759354
	C1263.527222,118.989197 1218.644043,71.219032 1173.686279,23.369587
	C1179.216309,23.369587 1185.253662,23.256676 1191.278931,23.474997
	C1192.347412,23.513712 1193.522217,24.788479 1194.384644,25.732946
	C1211.995361,45.018726 1229.482178,64.418358 1247.173462,83.629730
	C1262.622437,100.406128 1278.293091,116.978546 1294.087891,133.917694
z"/>
<path fill="#0D1117" opacity="0" stroke="none"
	d="
M1185.496582,153.028549
	C1187.919434,157.103424 1190.186279,160.902802 1192.878662,165.415222
	C1186.485474,165.415222 1180.726562,165.415222 1174.257446,165.415222
	C1177.192261,160.512955 1179.832764,156.042145 1182.631958,151.672958
	C1182.731201,151.518082 1184.402222,152.370239 1185.496582,153.028549
z"/>
<path fill="#0D1117" opacity="0" stroke="none"
	d="
M1314.909424,25.659229
	C1313.180664,28.767082 1311.586182,31.602530 1309.859375,34.673180
	C1306.380371,30.789850 1303.275024,27.323675 1299.506714,23.117483
	C1304.640381,23.117483 1309.034424,23.035097 1313.417480,23.217966
	C1313.988647,23.241798 1314.502930,24.630392 1314.909424,25.659229
z"/>
<path fill="#0D1117" opacity="0" stroke="none"
	d="
M477.246033,108.767326
	C454.263550,84.410599 431.482666,60.352791 408.839111,36.166393
	C404.865021,31.921520 401.466766,27.137529 398.131287,23.009312
	C400.662170,23.009312 405.183899,23.396645 409.610626,22.913471
	C415.438446,22.277369 417.518921,26.397156 420.611023,29.926399
	C430.589264,41.315372 440.817719,52.490246 451.124481,63.585304
	C474.012451,88.223869 497.000610,112.769386 519.966370,137.335602
	C522.355103,139.890793 524.617004,142.658524 527.370483,144.760681
	C535.065308,150.635239 532.914185,158.465775 532.661133,165.969070
	C532.201660,166.266296 531.742188,166.563522 531.282654,166.860764
	C513.353210,147.581345 495.423767,128.301941 477.246033,108.767326
z"/>
<path fill="#0D1117" opacity="0" stroke="none"
	d="
M405.318726,152.247589
	C406.114105,151.785233 407.272034,151.250214 407.364655,151.395294
	C410.170410,155.790115 412.871338,160.251892 416.050964,165.460724
	C409.458252,165.460724 403.701965,165.460724 397.271515,165.460724
	C400.117401,160.796631 402.651062,156.644272 405.318726,152.247589
z"/>
<path fill="#0D1117" opacity="0" stroke="none"
	d="
M530.954773,22.999596
	C533.648254,23.124796 535.901062,23.249872 539.131775,23.429235
	C536.917969,27.440088 535.141113,30.659328 533.054443,34.439930
	C529.524048,30.714542 526.427124,27.446606 522.635437,23.445520
	C525.598389,23.277775 528.056274,23.138622 530.954773,22.999596
z"/>
<path fill="#0D1117" opacity="0" stroke="none"
	d="
M1926.935303,152.948608
	C1935.320801,131.197357 1923.372559,114.462868 1908.933960,106.960007
	C1898.609253,101.594971 1887.942627,96.880547 1877.370605,92.001381
	C1868.269165,87.800888 1859.331909,83.459282 1852.373413,75.886932
	C1841.580444,64.141731 1842.526978,41.530670 1855.535645,31.284643
	C1854.631714,33.824749 1854.210083,35.244884 1853.631592,36.598083
	C1848.444458,48.733852 1851.549316,63.242016 1862.631470,70.428444
	C1872.599487,76.892288 1883.798828,81.440491 1894.371338,86.993095
	C1904.360718,92.239372 1914.829712,96.847183 1924.032471,103.252190
	C1938.215698,113.123405 1941.164551,135.284714 1931.252808,149.447113
	C1930.327271,150.769577 1928.947998,151.774536 1927.410156,152.995087
	C1927.040771,153.063263 1926.935303,152.948608 1926.935303,152.948608
z"/>
<path fill="#0D1117" opacity="0" stroke="none"
	d="
M1854.219727,158.718262
	C1855.894775,160.477753 1857.326660,161.992752 1859.232300,164.008820
	C1846.203125,162.869171 1842.599609,158.503265 1842.889038,145.012894
	C1846.660889,149.592041 1850.318848,154.032898 1854.219727,158.718262
z"/>
<path fill="#0D1117" opacity="0" stroke="none"
	d="
M1924.012451,157.011017
	C1924.228027,156.813538 1924.443481,156.616058 1924.658936,156.418579
	C1924.522705,156.594269 1924.386475,156.769928 1924.124146,156.971375
	C1923.998047,156.997162 1924.012451,157.011002 1924.012451,157.011017
z"/>
<path fill="#0D1117" opacity="0" stroke="none"
	d="
M1857.966309,28.526737
	C1857.953857,28.490242 1857.978882,28.563234 1857.966309,28.526737
z"/>
<path fill="#0D1117" opacity="0" stroke="none"
	d="
M1927.093872,153.120178
	C1927.146973,153.177109 1926.896484,153.025345 1926.915894,152.986969
	C1926.935303,152.948608 1927.040771,153.063263 1927.093872,153.120178
z"/>
<path fill="#0D1117" opacity="0" stroke="none"
	d="
M1923.989990,156.989792
	C1923.982056,156.982422 1923.965942,157.021317 1923.989258,157.016159
	C1924.012451,157.011002 1923.998047,156.997162 1923.989990,156.989792
z"/>
<path fill="#0D1117" opacity="0" stroke="none"
	d="
M1022.000122,117.950195
	C1022.092285,128.880463 1023.406982,139.044479 1028.825317,148.258698
	C1034.465576,157.850601 1042.877441,164.103287 1053.038086,168.214462
	C1055.482178,169.203384 1057.957642,170.114578 1060.846191,171.225998
	C1046.614868,172.458771 1028.471069,162.569550 1019.710571,149.367752
	C1011.882080,137.570389 1010.381042,124.154442 1010.113525,110.636887
	C1009.698303,89.655411 1009.915649,68.659210 1010.039368,47.670280
	C1010.094116,38.376118 1011.335754,28.768505 999.017639,24.716145
	C999.422607,24.345078 999.827515,23.974012 1000.232483,23.602945
	C1010.453247,23.602945 1020.674011,23.602945 1031.598145,23.602945
	C1030.557495,24.777617 1030.007446,25.813848 1029.146729,26.302893
	C1023.368225,29.585888 1021.835022,34.568867 1021.898254,40.997456
	C1022.149048,66.482422 1022.000549,91.971313 1022.000122,117.950195
z"/>
<path fill="#0D1117" opacity="0" stroke="none"
	d="
M1121.021240,22.999786
	C1123.679565,23.121672 1125.907349,23.243509 1129.041382,23.414900
	C1126.756836,27.200001 1124.943726,30.204029 1122.856567,33.662277
	C1119.745361,30.281441 1116.937866,27.230610 1113.384033,23.368715
	C1116.269897,23.220959 1118.430298,23.110348 1121.021240,22.999786
z"/>
<path fill="#0D1117" opacity="0" stroke="none"
	d="
M1422.000000,93.000000
	C1422.000000,110.156151 1422.000000,126.812309 1422.000000,143.468460
	C1422.000000,155.807419 1422.000000,155.807419 1429.665649,165.407745
	C1420.450195,165.407745 1411.698975,165.407745 1402.910278,165.407745
	C1402.944702,164.778610 1402.839722,164.281891 1402.996582,164.177246
	C1409.119751,160.090820 1410.162842,154.192612 1410.109863,147.244781
	C1409.862305,114.767174 1410.000000,82.286613 1410.000000,49.807114
	C1410.000000,35.197922 1410.000000,35.197922 1402.354980,23.627033
	C1412.170532,23.627033 1421.588013,23.627033 1431.812500,23.627033
	C1430.640625,24.899973 1430.069458,25.923344 1429.198730,26.400991
	C1423.341797,29.614281 1421.788452,34.604343 1421.899902,41.034336
	C1422.197266,58.184978 1422.000366,75.344193 1422.000000,93.000000
z"/>
<path fill="#0D1117" opacity="0" stroke="none"
	d="
M1361.185059,22.286003
	C1361.585693,22.991974 1362.043457,24.021116 1361.768921,24.283333
	C1357.625488,28.240953 1353.386108,32.097702 1349.286621,35.870113
	C1346.297974,25.853586 1349.420654,22.060759 1361.185059,22.286003
z"/>
<path fill="#0D1117" opacity="0" stroke="none"
	d="
M1473.387207,25.730801
	C1471.842773,24.813702 1470.594971,24.067497 1469.136353,23.195187
	C1480.741577,19.656729 1485.197021,22.939714 1484.277710,34.300663
	C1480.665527,31.436962 1477.174683,28.669327 1473.387207,25.730801
z"/>
<path fill="#0D1117" opacity="0" stroke="none"
	d="
M325.033936,110.000000
	C325.032074,86.841644 324.840149,64.180733 325.144379,41.526482
	C325.235199,34.764748 323.826477,29.414663 317.640533,25.981804
	C316.966492,25.607763 316.510986,24.839924 315.276215,23.542381
	C326.252838,23.542381 336.393066,23.542381 347.597565,23.542381
	C346.060364,24.931894 345.149933,25.923908 344.079559,26.693506
	C339.099487,30.274260 336.912018,34.960773 336.938171,41.213963
	C337.087982,77.033531 337.106750,112.854530 336.926361,148.673813
	C336.891418,155.611435 339.023438,160.979263 344.815063,165.418030
	C335.909027,165.418030 327.003021,165.418030 318.075897,165.418030
	C318.075897,164.954514 317.954590,164.441772 318.093323,164.357620
	C324.562561,160.432800 325.318634,154.370880 325.127502,147.483704
	C324.785583,135.164429 325.032867,122.828796 325.033936,110.000000
z"/>
</svg>
