<svg version="1.1" id="Layer_1" xmlns="http://www.w3.org/2000/svg" xmlns:xlink="http://www.w3.org/1999/xlink" x="0px" y="0px"
	 width="100%" viewBox="0 0 1184 302" enable-background="new 0 0 1184 302" xml:space="preserve">

<path fill="#3C2520" opacity="1.000000" stroke="none"
	d="
M301.083984,177.827972
	C307.562256,194.735138 313.928436,211.268631 320.556824,228.483032
	C326.735199,212.965988 332.688416,198.069397 338.599854,183.156250
	C350.317322,153.595932 362.309753,124.139015 373.540588,94.394707
	C377.073242,85.038712 379.488373,75.017937 380.705078,65.091835
	C382.223877,52.701134 376.227570,42.794949 365.402008,37.054867
	C356.443329,32.304672 346.588684,29.244259 336.349182,25.120264
	C336.349182,24.660446 336.349182,22.726940 336.349182,20.492516
	C370.705811,20.492516 405.119873,20.492516 439.576294,20.492516
	C440.879791,24.499378 439.858704,26.550543 435.646729,28.294106
	C420.425354,34.594997 409.023438,45.551044 400.054840,59.215210
	C388.404449,76.965233 381.016357,96.712250 373.228333,116.268318
	C350.244690,173.981445 327.279633,231.702042 304.417480,289.463348
	C303.100891,292.789642 301.860565,295.179291 297.034515,293.509033
	C271.077515,225.192337 244.890091,156.269135 218.360168,86.444504
	C213.009430,101.155907 207.958405,114.976227 202.954330,128.813522
	C183.522034,182.547714 164.075806,236.276917 144.747406,290.048462
	C143.475677,293.586426 141.680969,294.860931 137.851120,293.558563
	C128.997055,271.316681 120.071541,248.841583 111.105400,226.382690
	C90.162865,173.924637 69.210060,121.470673 48.223152,69.030357
	C46.993862,65.958710 45.429901,63.020660 44.013741,60.024197
	C36.044762,43.162579 24.597942,30.314022 5.112945,26.856932
	C5.112945,24.564541 5.112945,22.623915 5.112945,20.439159
	C47.211411,20.439159 89.126770,20.439159 131.002899,20.439159
	C132.255478,26.626040 132.198242,26.501179 126.143356,27.030529
	C120.857697,27.492628 115.503014,27.969681 110.370216,29.223564
	C95.546288,32.844883 89.934364,42.686302 94.825294,58.447403
	C99.530281,73.609322 105.411873,88.418060 111.071930,103.269394
	C126.643890,144.128387 142.370239,184.928528 158.040192,225.750153
	C158.327530,226.498703 158.673126,227.224884 159.350540,228.792084
	C160.407547,226.212357 161.237137,224.385880 161.914963,222.504730
	C185.663483,156.596970 209.387512,90.680359 233.191681,24.792702
	C233.799576,23.110123 234.950577,20.963167 236.394394,20.376295
	C239.729675,19.020607 241.093307,21.321011 242.240540,24.330843
	C256.697968,62.260788 271.286163,100.140884 285.839478,138.034302
	C290.885712,151.173477 295.927856,164.314240 301.083984,177.827972
M113.819931,158.777084
	C105.790535,137.906845 97.594582,117.098633 89.791588,96.144081
	C84.772652,82.665993 79.958534,69.086548 75.762695,55.335869
	C72.974792,46.199299 76.151886,38.301643 83.570496,32.206470
	C84.997154,31.034325 86.351463,29.774118 88.169144,28.176628
	C67.887260,28.176628 48.475742,28.176628 29.586256,28.176628
	C34.863903,34.702843 40.865299,40.951336 45.441082,48.110954
	C50.050674,55.323475 53.767162,63.230801 56.970772,71.197296
	C74.825714,115.597572 92.415871,160.104370 110.076500,204.582703
	C120.160530,229.979324 130.206360,255.391129 140.567078,281.547668
	C143.806137,272.448303 146.865295,264.088623 149.694153,255.651703
	C150.112518,254.403961 149.735260,252.678986 149.232300,251.363647
	C137.522064,220.740097 125.743652,190.142624 113.819931,158.777084
M255.824203,106.741631
	C248.370865,87.220757 240.917511,67.699883 233.036301,47.058403
	C229.777786,55.993099 226.681702,63.627953 224.293289,71.478111
	C223.414261,74.367264 223.317215,78.100746 224.367538,80.880882
	C245.135147,135.851501 266.116577,190.741379 287.073944,245.640244
	C291.485992,257.197845 295.974640,268.726196 300.797363,281.225372
	C304.440674,271.892853 307.757690,263.620239 310.836884,255.260025
	C311.284088,254.045853 310.883575,252.302414 310.386536,250.988876
	C292.284149,203.149216 274.123871,155.331497 255.824203,106.741631
M402.321655,37.819008
	C405.286346,34.587986 408.251038,31.356962 411.037659,28.320015
	C396.182312,28.320015 380.950134,28.320015 364.288879,28.320015
	C377.893463,34.628117 386.052979,43.736664 387.823608,57.505329
	C392.670868,50.887802 397.260681,44.621716 402.321655,37.819008
z"/>
<path fill="#3A241F" opacity="1.000000" stroke="none"
	d="
M1016.000000,287.893127
	C985.369080,287.893127 955.238159,287.893127 925.116028,287.893127
	C923.740173,283.528168 924.278748,281.005768 929.298340,280.473022
	C932.527405,280.130341 935.718140,278.850739 938.782837,277.631195
	C953.898499,271.616241 960.986572,259.932312 961.990173,244.130188
	C962.380737,237.980637 962.771118,231.817123 962.779175,225.659470
	C962.843018,176.826233 962.912354,127.992523 962.721558,79.159966
	C962.688538,70.709976 962.486694,62.009373 960.514221,53.872681
	C956.869568,38.838715 945.160217,31.792044 931.121216,27.949604
	C929.202637,27.424494 927.236450,27.073231 924.914062,26.557478
	C924.914062,24.699299 924.914062,22.801327 924.914062,20.548878
	C998.932800,20.548878 1072.990723,20.548878 1147.515991,20.548878
	C1149.981934,44.538883 1152.452515,68.575714 1154.947876,92.852692
	C1152.712769,92.852692 1150.775146,92.852692 1149.696167,92.852692
	C1144.678711,82.485809 1140.573730,72.107300 1134.899902,62.672356
	C1122.729248,42.433567 1104.282104,31.378510 1080.840576,28.880968
	C1065.437256,27.239849 1049.989502,26.601490 1034.717651,30.033182
	C1019.172363,33.526299 1010.572144,43.008282 1009.199097,59.127117
	C1008.254150,70.219856 1008.301941,81.408638 1008.183350,92.557449
	C1008.027832,107.186020 1008.145264,121.817497 1008.145264,136.694611
	C1020.782471,136.694611 1033.055786,136.915497 1045.314453,136.590866
	C1050.553223,136.452164 1055.799683,135.372833 1060.977539,134.381699
	C1080.444580,130.655365 1090.031006,117.303230 1094.765869,99.324043
	C1095.061157,98.202774 1095.332764,97.075020 1095.645874,95.958817
	C1095.780396,95.479530 1095.992065,95.021881 1096.250854,94.335930
	C1097.941650,94.335930 1099.707031,94.335930 1101.742920,94.335930
	C1101.742920,127.140625 1101.742920,159.895721 1101.742920,192.849548
	C1099.854980,192.849548 1098.085815,192.849548 1096.361450,192.849548
	C1094.254761,186.144333 1092.361206,179.466202 1090.063477,172.930191
	C1083.930054,155.484177 1070.735596,147.298981 1053.007812,146.076645
	C1038.286743,145.061600 1023.507263,144.893234 1008.422974,144.337616
	C1008.299500,146.621796 1008.153687,148.069214 1008.153015,149.516708
	C1008.140015,176.850021 1008.036682,204.184082 1008.223877,231.516113
	C1008.268188,237.982224 1008.920471,244.503036 1009.953430,250.891937
	C1012.542908,266.908051 1019.202942,274.242279 1035.272095,276.498444
	C1052.604004,278.931915 1070.131592,279.192749 1087.407593,275.325287
	C1106.497070,271.051941 1122.223999,260.483032 1135.965820,247.237473
	C1147.681396,235.944901 1158.370728,223.564056 1169.169800,211.360031
	C1171.999756,208.161835 1174.635254,206.962280 1178.910767,208.332291
	C1171.271362,234.710800 1163.636353,261.073853 1155.869263,287.893127
	C1109.375000,287.893127 1062.937500,287.893127 1016.000000,287.893127
M1007.332825,31.858147
	C1008.718933,30.805164 1010.105103,29.752184 1011.993469,28.317656
	C990.770569,28.317656 970.336792,28.317656 949.508484,28.317656
	C955.016724,32.640678 960.107239,36.621143 965.180969,40.622955
	C968.717468,43.412289 970.013062,47.106564 970.009888,51.566582
	C969.961487,120.032768 969.960083,188.499008 970.005127,256.965179
	C970.008118,261.457367 968.544556,265.048065 964.994507,267.809723
	C961.015869,270.904877 957.070740,274.043213 952.541870,277.611084
	C971.703918,277.611084 989.987549,277.611084 1008.965942,277.611084
	C1005.727722,275.156372 1003.214539,272.976624 1000.441528,271.203247
	C993.485596,266.754974 990.840637,260.637177 990.867310,252.318237
	C991.069580,189.348984 991.355042,126.374237 990.643677,63.412170
	C990.483276,49.211243 993.923462,38.811443 1007.332825,31.858147
M1149.296875,252.889145
	C1150.260254,249.759750 1151.223755,246.630356 1152.187134,243.500946
	C1138.777710,257.341003 1123.741333,268.645935 1105.325439,277.781921
	C1118.459595,277.781921 1130.003418,277.781921 1141.926270,277.781921
	C1144.302734,269.761536 1146.687256,261.713654 1149.296875,252.889145
M1134.100952,36.312050
	C1133.641357,33.591026 1133.181763,30.870003 1132.726074,28.171946
	C1124.007446,28.171946 1115.569702,28.171946 1107.131958,28.171946
	C1118.700439,33.186115 1127.604858,41.282036 1135.201294,51.056675
	C1135.594849,50.874516 1135.988403,50.692356 1136.381958,50.510197
	C1135.644897,46.066444 1134.907837,41.622692 1134.100952,36.312050
M1073.553589,143.872345
	C1078.187744,146.836792 1082.821899,149.801254 1087.658936,152.895493
	C1087.658936,145.007599 1087.658936,137.458771 1087.658936,130.092850
	C1081.147095,133.889236 1074.695801,137.650269 1068.122803,141.482330
	C1069.688232,142.167755 1071.278931,142.864182 1073.553589,143.872345
z"/>
<path fill="#3C2520" opacity="1.000000" stroke="none"
	d="
M869.906128,71.024673
	C869.579102,78.967010 869.002380,86.448845 868.994080,93.931305
	C868.922241,158.581360 868.952759,223.231522 868.952759,287.881653
	C868.952759,289.698120 868.952759,291.514587 868.952759,293.394135
	C864.941833,295.011292 862.425049,293.379456 859.813171,290.596771
	C790.960022,217.241501 722.041443,143.947647 653.122070,70.654587
	C651.688110,69.129669 650.111816,67.738686 648.055054,65.758781
	C648.055054,77.795830 648.038147,89.205742 648.058350,100.615593
	C648.117859,134.272308 647.894531,167.933685 648.424255,201.583115
	C648.606201,213.140091 649.800964,224.844955 652.079895,236.171005
	C656.858704,259.921814 672.452332,273.749847 695.356323,279.982941
	C696.480164,280.288788 697.614258,280.560364 698.751038,280.814484
	C699.703125,281.027252 700.666260,281.191071 701.869629,281.424042
	C701.869629,283.529022 701.869629,285.455200 701.869629,287.640930
	C668.082336,287.640930 634.321472,287.640930 600.342651,287.640930
	C599.128601,283.659485 599.898987,281.384613 604.320618,279.478546
	C624.122864,270.942108 634.182190,254.541443 637.672302,234.200867
	C639.768372,221.984756 640.377625,209.400238 640.464233,196.973007
	C640.777832,151.986694 640.555298,106.996803 640.652344,62.008518
	C640.659668,58.594788 639.753174,56.128941 637.271790,53.703739
	C626.188171,42.870960 615.325439,31.868179 599.978882,26.864710
	C598.641296,26.428614 598.254944,23.074858 597.176025,20.471306
	C599.898804,20.338299 601.362671,20.205334 602.826660,20.204475
	C625.320923,20.191278 647.815369,20.151215 670.308838,20.283630
	C672.005859,20.293619 674.256104,21.084211 675.302185,22.316074
	C686.156006,35.097679 696.235840,48.582512 707.628845,60.852325
	C757.269958,114.313812 807.277344,167.435181 857.150085,220.681625
	C858.166809,221.767181 859.163391,222.871536 860.663452,224.505157
	C860.927979,223.010071 861.211792,222.155838 861.211304,221.301727
	C861.187439,174.981018 861.239441,128.659760 860.976135,82.340302
	C860.940735,76.110992 859.777161,69.777779 858.322815,63.686852
	C853.266052,42.508572 838.268372,32.230602 818.078247,27.942398
	C815.826233,27.464085 813.562561,27.040691 811.059631,26.543209
	C811.059631,24.499353 811.059631,22.586845 811.059631,20.433987
	C841.990906,20.433987 872.752441,20.433987 903.832275,20.433987
	C903.832275,22.442684 903.832275,24.350779 903.832275,26.412867
	C900.228516,27.819319 896.521179,29.153759 892.903442,30.698126
	C879.471313,36.432236 873.197266,47.347820 871.076660,61.189350
	C870.600037,64.300430 870.300842,67.438705 869.906128,71.024673
M640.498230,27.954493
	C633.479248,27.954493 626.460327,27.954493 620.088745,27.954493
	C629.055847,36.164860 638.488159,43.848549 646.806885,52.591736
	C674.702942,81.911270 702.182678,111.626579 729.856995,141.157379
	C764.136292,177.736298 798.448914,214.284012 832.751099,250.841446
	C841.920776,260.614014 851.105225,270.372772 861.237854,281.153961
	C861.237854,274.377960 860.730713,268.907227 861.350830,263.567444
	C862.412415,254.426163 859.070312,247.939377 852.725952,241.242645
	C803.587585,189.375580 754.822571,137.153961 706.071716,84.920982
	C692.219177,70.078964 677.574646,55.730534 665.644775,39.434338
	C658.803040,30.088543 652.214600,26.238855 640.498230,27.954493
M652.314392,267.150940
	C648.694031,260.886230 645.073608,254.621521 642.138794,249.543121
	C636.047485,258.616882 629.529602,268.326233 623.257507,277.669403
	C635.098267,277.669403 647.759094,277.669403 660.816711,277.669403
	C657.935974,274.105408 655.351501,270.908051 652.314392,267.150940
M871.634277,27.950516
	C860.975342,27.950516 850.316345,27.950516 839.657410,27.950516
	C849.526672,33.490173 856.527222,41.178574 860.756409,50.301922
	C865.016846,43.451508 869.282532,36.636600 873.439758,29.756195
	C873.615417,29.465490 872.785034,28.566910 871.634277,27.950516
z"/>
<path fill="#3A231E" opacity="1.000000" stroke="none"
	d="
M566.947144,287.891174
	C529.339844,287.891174 492.222748,287.891174 455.265656,287.891174
	C453.697693,283.267639 454.742371,280.990967 459.527008,280.406189
	C462.752441,280.011963 465.925354,278.729858 468.983185,277.500305
	C483.661743,271.597961 490.955322,260.322754 491.854645,244.851166
	C492.501404,233.724442 492.887329,222.567368 492.916901,211.422607
	C493.033966,167.272919 493.024323,123.122566 492.903748,78.972893
	C492.884735,71.999870 492.559845,64.950722 491.496887,58.072689
	C488.841309,40.889465 477.007477,32.471783 461.437225,28.004623
	C459.388794,27.416916 457.275818,27.053988 454.962433,26.535305
	C454.962433,24.485645 454.962433,22.576056 454.962433,20.433990
	C495.457397,20.433990 535.723328,20.433990 576.396484,20.433990
	C576.396484,22.334625 576.396484,24.208702 576.396484,26.239130
	C572.234985,27.483452 567.925781,28.551676 563.772949,30.052692
	C547.755188,35.842308 539.623413,47.516529 538.958191,64.367409
	C538.505066,75.846237 538.243103,87.339661 538.221008,98.827179
	C538.137756,142.144012 538.074585,185.461624 538.286987,228.777573
	C538.327515,237.045746 538.701111,245.531693 540.584290,253.525345
	C544.395081,269.701416 556.833740,276.899384 571.875488,280.597412
	C577.149048,281.893921 577.161133,281.844757 576.243103,287.891174
	C573.360596,287.891174 570.399048,287.891174 566.947144,287.891174
M500.207336,101.499939
	C500.171783,152.478317 500.061646,203.456879 500.187286,254.434860
	C500.204620,261.467285 497.736145,266.558472 491.962128,270.384583
	C488.762024,272.505096 485.816986,275.010651 482.415558,277.602844
	C501.527802,277.602844 519.880432,277.602844 538.927246,277.602844
	C534.755737,274.425873 531.209717,271.699493 527.635986,269.010071
	C523.037170,265.549103 521.057007,261.006592 521.063049,255.214859
	C521.133240,187.743973 521.132141,120.272942 521.065369,52.802040
	C521.059631,47.002415 523.092529,42.484612 527.707458,39.041943
	C532.300903,35.615234 536.859558,32.141853 541.914917,28.325500
	C520.781799,28.325500 500.356201,28.325500 479.220734,28.325500
	C484.514252,32.270550 489.134033,35.785507 493.831512,39.193420
	C498.223999,42.380081 500.133881,46.591488 500.109589,52.022236
	C500.037384,68.180992 500.160553,84.340630 500.207336,101.499939
z"/>

</svg>
